<?xml version="1.0" encoding="UTF-8" standalone="no"?>
<!-- Created with Inkscape (http://www.inkscape.org/) -->

<svg
   xmlns:dc="http://purl.org/dc/elements/1.1/"
   xmlns:cc="http://creativecommons.org/ns#"
   xmlns:rdf="http://www.w3.org/1999/02/22-rdf-syntax-ns#"
   xmlns:svg="http://www.w3.org/2000/svg"
   xmlns="http://www.w3.org/2000/svg"
   xmlns:sodipodi="http://sodipodi.sourceforge.net/DTD/sodipodi-0.dtd"
   xmlns:inkscape="http://www.inkscape.org/namespaces/inkscape"
   width="400mm"
   height="470mm"
   viewBox="0 0 1417.3228 1665.3542"
   id="svg4761"
   version="1.1"
   inkscape:version="0.91 r13725"
   sodipodi:docname="book_logo2.svg">
  <defs
     id="defs4763">
    <inkscape:path-effect
       effect="bend_path"
       id="path-effect5403"
       is_visible="true"
       bendpath="M 389.36662,241.17341 830.45317,220.92023"
       prop_scale="1"
       scale_y_rel="false"
       vertical="false"
       bendpath-nodetypes="cc" />
    <inkscape:perspective
       sodipodi:type="inkscape:persp3d"
       inkscape:vp_x="-1052.5789 : 561.80055 : 1"
       inkscape:vp_y="0 : 999.99986 : 0"
       inkscape:vp_z="1111.4793 : 608.26757 : 1"
       inkscape:persp3d-origin="474.92747 : 396.75704 : 1"
       id="perspective5309" />
  </defs>
  <sodipodi:namedview
     id="base"
     pagecolor="#ffffff"
     bordercolor="#666666"
     borderopacity="1.0"
     inkscape:pageopacity="0.0"
     inkscape:pageshadow="2"
     inkscape:zoom="0.24748737"
     inkscape:cx="81.344563"
     inkscape:cy="861.39529"
     inkscape:document-units="px"
     inkscape:current-layer="layer1"
     showgrid="false"
     inkscape:window-width="1600"
     inkscape:window-height="838"
     inkscape:window-x="-8"
     inkscape:window-y="-8"
     inkscape:window-maximized="1" />
  <metadata
     id="metadata4766">
    <rdf:RDF>
      <cc:Work
         rdf:about="">
        <dc:format>image/svg+xml</dc:format>
        <dc:type
           rdf:resource="http://purl.org/dc/dcmitype/StillImage" />
        <dc:title></dc:title>
      </cc:Work>
    </rdf:RDF>
  </metadata>
  <g
     inkscape:label="Layer 1"
     inkscape:groupmode="layer"
     id="layer1"
     transform="translate(0,612.99213)">
    <path
       inkscape:connector-curvature="0"
       id="path5349"
       style="fill:#afafde;fill-opacity:1;fill-rule:evenodd;stroke:none;stroke-width:28.34600067;stroke-linecap:butt;stroke-linejoin:round;stroke-miterlimit:4;stroke-dasharray:none;stroke-dashoffset:0;stroke-opacity:1"
       d="M 275.5651,838.17487 957.45679,1003.8325 1092.5737,854.99368 495.17864,750.02191 Z" />
    <path
       inkscape:connector-curvature="0"
       id="path5351"
       style="fill:#552200;fill-opacity:1;fill-rule:evenodd;stroke:#552200;stroke-width:41.53027344;stroke-linecap:butt;stroke-linejoin:round;stroke-miterlimit:4;stroke-dasharray:none;stroke-dashoffset:0;stroke-opacity:1"
       d="m 275.5651,-28.886419 0,867.061289 219.61354,-88.15296 0,-721.639476 z" />
    <path
       inkscape:connector-curvature="0"
       id="path5353"
       style="fill:#552200;fill-opacity:1;fill-rule:evenodd;stroke:#552200;stroke-width:41.53027344;stroke-linecap:butt;stroke-linejoin:round;stroke-miterlimit:4;stroke-dasharray:none;stroke-dashoffset:0;stroke-opacity:1"
       d="m 495.17864,28.382434 597.39506,-99.826038 0,926.437284 -597.39506,-104.97177 z" />
    <path
       inkscape:connector-curvature="0"
       id="path5355"
       style="fill:#4d4d9f;fill-opacity:1;fill-rule:evenodd;stroke:none;stroke-width:28.34600067;stroke-linecap:butt;stroke-linejoin:round;stroke-miterlimit:4;stroke-dasharray:none;stroke-dashoffset:0;stroke-opacity:1"
       d="M 275.5651,-28.886419 957.45679,-176.81678 1092.5737,-71.443604 495.17864,28.382434 Z" />
    <path
       inkscape:connector-curvature="0"
       id="path5357"
       style="fill:#c8beb7;fill-opacity:1;fill-rule:evenodd;stroke:none;stroke-width:28.34600067;stroke-linecap:butt;stroke-linejoin:round;stroke-miterlimit:4;stroke-dasharray:none;stroke-dashoffset:0;stroke-opacity:1"
       d="m 957.45679,-176.81678 0,1180.64928 135.11691,-148.83882 0,-926.437284 z" />
    <path
       inkscape:connector-curvature="0"
       id="path5359"
       style="fill:#502d16;fill-opacity:1;fill-rule:evenodd;stroke:#552200;stroke-width:41.53027344;stroke-linecap:butt;stroke-linejoin:round;stroke-miterlimit:4;stroke-dasharray:none;stroke-dashoffset:0;stroke-opacity:1"
       d="m 275.5651,-28.886419 681.89169,-147.930361 0,1180.64928 L 275.5651,838.17487 Z" />
    <g
       transform="matrix(1.0975777,-0.03280944,0.06021399,1.9539385,-73.801798,-265.58137)"
       style="font-style:normal;font-variant:normal;font-weight:bold;font-stretch:normal;font-size:105.54367065px;line-height:125%;font-family:'Times New Roman';-inkscape-font-specification:'Times New Roman, Bold';text-align:start;letter-spacing:0px;word-spacing:0px;writing-mode:lr-tb;text-anchor:start;fill:#000000;fill-opacity:1;stroke:none;stroke-width:1px;stroke-linecap:butt;stroke-linejoin:miter;stroke-opacity:1"
       id="text5367"
       inkscape:path-effect="#path-effect5403">
      <path
         d="m 387.76395,206.26946 40.4084,-1.85542 0.0875,1.90479 -2.02041,0.0928 c -3.04026,0.1396 -5.12425,0.52763 -6.25199,1.16409 -1.09082,0.60037 -1.86353,1.40969 -2.31813,2.42796 -0.41611,1.0165 -0.53276,3.51533 -0.34996,7.49651 l 1.56958,34.18323 c 0.28681,6.24633 0.99624,10.35809 2.12829,12.33529 1.17054,1.97543 2.99878,3.57674 5.48474,4.80391 2.48597,1.22718 5.57619,1.75595 9.27068,1.58631 4.23326,-0.19438 7.79292,-1.20045 10.67898,-3.01822 2.92297,-1.85386 5.04711,-4.3073 6.37241,-7.36033 1.36378,-3.0548 1.87547,-8.28882 1.53508,-15.70205 l -1.30719,-28.46885 c -0.14341,-3.12317 -0.61144,-5.33721 -1.40409,-6.64214 -0.79267,-1.30492 -1.75884,-2.18917 -2.89851,-2.65273 -1.76804,-0.70985 -4.22991,-0.99233 -7.38561,-0.84743 l -0.0875,-1.90479 27.07364,-1.24313 0.0875,1.90479 -1.61633,0.0742 c -2.19361,0.10072 -4.00349,0.57934 -5.42964,1.43586 -1.42615,0.85652 -2.4301,2.08917 -3.01184,3.69796 -0.44987,1.12122 -0.6094,3.10614 -0.4786,5.95474 l 1.21736,26.51258 c 0.37664,8.20261 0.0327,14.15117 -1.03172,17.84569 -1.02596,3.69275 -3.81635,7.17418 -8.37117,10.44428 -4.55482,3.27011 -10.89231,5.09159 -19.01247,5.46444 -6.77322,0.311 -12.0441,-0.25521 -15.81265,-1.69864 -5.14229,-1.96503 -8.8313,-4.61585 -11.06704,-7.95248 -2.23573,-3.33663 -3.48676,-7.90503 -3.75308,-13.70519 l -1.56958,-34.18322 c -0.18438,-4.0155 -0.54878,-6.49225 -1.09319,-7.43025 -0.546,-0.97233 -1.44814,-1.72194 -2.70642,-2.24884 -1.25829,-0.52691 -3.54146,-0.69721 -6.84953,-0.51092 z"
         style="font-style:normal;font-variant:normal;font-weight:bold;font-stretch:normal;font-size:105.54367065px;line-height:125%;font-family:'Times New Roman';-inkscape-font-specification:'Times New Roman, Bold';text-align:start;writing-mode:lr-tb;text-anchor:start;fill:#ffffff"
         id="path5389"
         inkscape:original-d="m 389.36662,206.23268 36.0745,0 0,1.9068 -1.80372,0 q -4.07127,0 -5.61732,0.87609 -1.49451,0.82456 -2.16447,2.31908 -0.61842,1.49451 -0.61842,7.47257 l 0,34.21924 q 0,9.37937 1.39145,12.41993 1.44298,3.04057 4.68968,5.05043 3.24671,2.00987 8.19407,2.00987 5.66885,0 9.63704,-2.52522 4.01973,-2.57675 5.97806,-7.06029 2.00986,-4.48355 2.00986,-15.61511 l 0,-28.49885 q 0,-4.68968 -0.97916,-6.69955 -0.97917,-2.00986 -2.47368,-2.78289 -2.31908,-1.1853 -6.54495,-1.1853 l 0,-1.9068 24.16992,0 0,1.9068 -1.44298,0 q -2.9375,0 -4.89583,1.1853 -1.95833,1.18531 -2.83442,3.55592 -0.66996,1.64912 -0.66996,5.92652 l 0,26.54052 q 0,12.31687 -1.64912,17.77958 -1.59758,5.46271 -7.88485,10.04932 -6.28727,4.58662 -17.16115,4.58662 -9.07016,0 -14.01752,-2.42215 -6.75109,-3.29824 -9.53398,-8.45174 -2.78289,-5.1535 -2.78289,-13.86291 l 0,-34.21924 q 0,-6.02959 -0.66995,-7.47257 -0.66996,-1.49452 -2.31908,-2.37061 -1.64912,-0.8761 -6.08113,-0.82456 l 0,-1.9068 z"
         inkscape:connector-curvature="0" />
      <path
         d="m 497.45772,222.95179 0.28602,6.22917 c 2.64794,-2.80423 5.21431,-4.86527 7.69911,-6.18311 2.48323,-1.35216 5.18724,-2.09539 8.11204,-2.22968 3.50206,-0.16081 6.4478,0.58095 8.83722,2.22527 2.38784,1.61 4.0257,3.68435 4.91358,6.22304 0.70557,1.928 1.186,5.67196 1.4413,11.23188 l 0.86043,18.739 c 0.17019,3.70662 0.64216,6.00646 1.41591,6.89954 0.81065,0.85699 2.41451,1.35083 4.81156,1.48152 l 0.0851,1.85331 -27.30453,1.25373 -0.0851,-1.85331 c 2.02863,-0.3339 3.45636,-1.1561 4.28319,-2.4666 0.57635,-0.88629 0.78652,-3.0283 0.63051,-6.42602 l -0.98335,-21.416 c -0.18123,-3.94686 -0.46866,-6.42715 -0.86229,-7.44086 -0.39364,-1.01371 -1.02639,-1.77569 -1.89825,-2.28594 -0.83496,-0.54634 -1.75273,-0.79654 -2.75332,-0.7506 -3.30964,0.15197 -6.29146,2.40405 -8.94546,6.75623 l 1.18428,25.79186 c 0.16547,3.60365 0.63586,5.86918 1.41118,6.79658 0.81381,0.92563 2.24606,1.46174 4.29676,1.60834 l 0.0851,1.8533 -27.30454,1.25373 -0.0851,-1.8533 c 2.26111,-0.31018 3.84751,-1.03649 4.75918,-2.17892 0.61957,-0.78509 0.84425,-3.03095 0.67406,-6.73756 l -1.2481,-27.18184 c -0.16704,-3.63798 -0.65589,-5.88546 -1.46655,-6.74245 -0.77218,-0.85876 -2.35758,-1.37064 -4.7562,-1.53565 l -0.0875,-1.90478 z"
         style="font-style:normal;font-variant:normal;font-weight:bold;font-stretch:normal;font-size:105.54367065px;line-height:125%;font-family:'Times New Roman';-inkscape-font-specification:'Times New Roman, Bold';text-align:start;writing-mode:lr-tb;text-anchor:start;fill:#ffffff"
         id="path5391"
         inkscape:original-d="m 486.40702,227.92892 0,6.23573 q 3.71052,-4.01973 7.11183,-5.82346 3.40131,-1.85525 7.31797,-1.85525 4.68968,0 7.78178,2.62828 3.0921,2.57675 4.1228,6.44187 0.82456,2.9375 0.82456,11.28617 l 0,18.75874 q 0,5.56578 0.97916,6.95722 1.0307,1.33991 4.22587,1.70066 l 0,1.85526 -24.37605,0 0,-1.85526 q 2.73136,-0.36075 3.91666,-2.26754 0.82456,-1.28838 0.82456,-6.39034 l 0,-21.43856 q 0,-5.92653 -0.46381,-7.47258 -0.46382,-1.54605 -1.59759,-2.37061 -1.08223,-0.87609 -2.42214,-0.87609 -4.43201,0 -8.2456,6.3388 l 0,25.81904 q 0,5.41117 0.97916,6.85415 1.0307,1.44298 3.76206,1.80373 l 0,1.85526 -24.37606,0 0,-1.85526 q 3.04057,-0.30921 4.32894,-1.95833 0.8761,-1.13377 0.8761,-6.69955 l 0,-27.21048 q 0,-5.46271 -1.0307,-6.80262 -0.97917,-1.33991 -4.17434,-1.75219 l 0,-1.90679 19.63484,0 z"
         inkscape:connector-curvature="0" />
      <path
         d="m 553.13184,197.02547 c 2.50147,-0.11486 4.65435,0.57733 6.45863,2.07655 1.8027,1.46491 2.75448,3.29562 2.85533,5.49213 0.10086,2.19652 -0.69839,4.10762 -2.39775,5.73333 -1.66087,1.62394 -3.7228,2.49246 -6.18579,2.60555 -2.46299,0.11309 -4.59583,-0.56281 -6.39854,-2.02772 -1.8027,-1.4649 -2.75448,-3.29561 -2.85533,-5.49212 -0.10086,-2.19652 0.67915,-4.10674 2.34002,-5.73069 1.6593,-1.65826 3.72044,-2.54394 6.18343,-2.65703 z m 9.15249,22.94971 1.75159,38.14724 c 0.15602,3.39772 0.69865,5.55675 1.62791,6.47708 0.92768,0.88602 2.68389,1.33847 5.26864,1.35736 l 0.0851,1.85331 -29.15177,1.33855 -0.0851,-1.85331 c 2.38287,-0.1782 4.12478,-0.87725 5.22572,-2.09716 0.73344,-0.82472 1.02215,-2.93594 0.86614,-6.33367 l -1.29064,-28.10849 c -0.15602,-3.39774 -0.69787,-5.53961 -1.62555,-6.42561 -0.92926,-0.92034 -2.66702,-1.39083 -5.21328,-1.41149 l -0.0875,-1.90478 z"
         style="font-style:normal;font-variant:normal;font-weight:bold;font-stretch:normal;font-size:105.54367065px;line-height:125%;font-family:'Times New Roman';-inkscape-font-specification:'Times New Roman, Bold';text-align:start;writing-mode:lr-tb;text-anchor:start;fill:#ffffff"
         id="path5393"
         inkscape:original-d="m 537.06592,204.58356 q 3.34977,0 5.66885,2.37061 2.31907,2.31908 2.31907,5.61732 0,3.29824 -2.37061,5.61731 -2.31907,2.31908 -5.61731,2.31908 -3.29824,0 -5.61732,-2.31908 -2.31907,-2.31907 -2.31907,-5.61731 0,-3.29824 2.31907,-5.61732 2.31908,-2.37061 5.61732,-2.37061 z m 7.2149,23.34536 0,38.18743 q 0,5.10196 1.1853,6.54494 1.1853,1.39145 4.63815,1.59759 l 0,1.85526 -26.02517,0 0,-1.85526 q 3.19517,-0.10307 4.74122,-1.85526 1.0307,-1.18531 1.0307,-6.28727 l 0,-28.13811 q 0,-5.10197 -1.18531,-6.49341 -1.1853,-1.44298 -4.58661,-1.64912 l 0,-1.90679 20.20172,0 z"
         inkscape:connector-curvature="0" />
      <path
         d="m 627.47859,241.38341 19.13002,-46.99921 31.86491,-1.46313 0.0875,1.90479 -2.53995,0.11663 c -2.30906,0.10602 -4.13975,0.55121 -5.49209,1.33555 -0.94004,0.52466 -1.67269,1.36654 -2.19795,2.52562 -0.3855,0.84313 -0.49867,2.99788 -0.33951,6.46425 l 2.11326,46.0238 c 0.16389,3.56933 0.47798,5.79044 0.94228,6.66334 0.4643,0.87289 1.36644,1.62251 2.70642,2.24884 1.3384,0.592 3.1044,0.83765 5.298,0.73692 l 2.53996,-0.11662 0.0875,1.90479 -40.87021,1.87662 -0.0875,-1.90479 2.53995,-0.11663 c 2.30906,-0.10602 4.13975,-0.55121 5.49209,-1.33555 0.94004,-0.52466 1.67191,-1.3837 2.19559,-2.5771 0.3855,-0.84313 0.49789,-3.01504 0.33715,-6.51573 l -2.37564,-51.73816 -27.09363,65.06 -1.38543,0.0636 -33.38225,-61.81886 2.25745,49.16412 c 0.15759,3.43205 0.35072,5.53834 0.57939,6.31888 0.57908,1.69306 1.72125,3.05072 3.4265,4.07299 1.74216,0.98619 4.40275,1.39711 7.98178,1.23277 l 0.0875,1.90479 -26.785,1.22988 -0.0875,-1.90479 0.80817,-0.0371 c 1.73336,-0.0452 3.33867,-0.35968 4.81591,-0.94338 1.47567,-0.61805 2.57787,-1.39091 3.30658,-2.31858 0.72871,-0.92767 1.26769,-2.20776 1.61695,-3.84026 0.0596,-0.38106 0.0177,-2.13317 -0.12566,-5.25634 l -2.02816,-44.17049 c -0.16231,-3.53501 -0.47483,-5.7218 -0.93755,-6.56038 -0.4643,-0.87289 -1.36565,-1.60535 -2.70406,-2.19735 -1.33998,-0.62633 -3.10677,-0.88914 -5.30036,-0.78841 l -2.48224,0.11397 -0.0875,-1.90479 31.98036,-1.46843 z"
         style="font-style:normal;font-variant:normal;font-weight:bold;font-stretch:normal;font-size:105.54367065px;line-height:125%;font-family:'Times New Roman';-inkscape-font-specification:'Times New Roman, Bold';text-align:start;writing-mode:lr-tb;text-anchor:start;fill:#ffffff"
         id="path5395"
         inkscape:original-d="m 601.48466,252.30497 18.96488,-46.07229 28.44732,0 0,1.9068 -2.26754,0 q -3.0921,0 -4.94736,1.08223 -1.28837,0.72149 -2.0614,2.42215 -0.56688,1.23684 -0.56688,6.44187 l 0,46.07229 q 0,5.35964 0.56688,6.69955 0.56689,1.33991 2.31908,2.37061 1.75218,0.97916 4.68968,0.97916 l 2.26754,0 0,1.9068 -36.48678,0 0,-1.9068 2.26754,0 q 3.0921,0 4.94736,-1.08223 1.28838,-0.72149 2.0614,-2.47368 0.56689,-1.23684 0.56689,-6.49341 l 0,-51.79267 -26.7982,63.74879 -1.23684,0 -27.21048,-63.28498 0,49.21592 q 0,5.1535 0.25768,6.33881 0.66995,2.57675 2.88596,4.22587 2.26754,1.59758 7.06029,1.59758 l 0,1.9068 -23.91224,0 0,-1.9068 0.72149,0 q 2.31908,0.0515 4.32894,-0.72149 2.00987,-0.82456 3.04057,-2.16447 1.0307,-1.33991 1.59758,-3.76205 0.10307,-0.56689 0.10307,-5.25657 l 0,-44.21703 q 0,-5.3081 -0.56688,-6.59648 -0.56689,-1.33991 -2.31908,-2.31907 -1.75219,-1.0307 -4.68968,-1.0307 l -2.21601,0 0,-1.9068 28.55039,0 19.63483,46.07229 z"
         inkscape:connector-curvature="0" />
      <path
         d="m 717.20066,253.97862 c -6.34284,5.48456 -12.13119,8.347 -17.36504,8.58732 -3.07873,0.14136 -5.6789,-0.63346 -7.80051,-2.32447 -2.12318,-1.72533 -3.24701,-3.94366 -3.37151,-6.65498 -0.16862,-3.67229 1.45037,-7.04834 4.85696,-10.12816 3.40502,-3.11413 10.94145,-7.38097 22.60929,-12.8005 l -0.2222,-4.83919 c -0.16704,-3.63798 -0.50274,-5.90969 -1.0071,-6.81513 -0.46745,-0.94154 -1.33269,-1.72724 -2.5957,-2.3571 -1.26459,-0.66419 -2.66656,-0.96094 -4.20593,-0.89026 -2.50147,0.11486 -4.53752,0.70704 -6.10816,1.77656 -0.97222,0.66371 -1.43942,1.40741 -1.4016,2.23111 0.0331,0.72072 0.61284,1.58832 1.73925,2.60278 1.53016,1.40863 2.32676,2.79935 2.3898,4.17217 0.0772,1.68171 -0.56856,3.15586 -1.93732,4.42246 -1.33185,1.23051 -3.13306,1.8979 -5.40362,2.00215 -2.42451,0.11133 -4.49411,-0.44711 -6.20881,-1.6753 -1.67622,-1.22997 -2.55452,-2.72012 -2.63489,-4.47046 -0.11346,-2.47108 0.87539,-4.87239 2.96655,-7.20395 2.0896,-2.36588 5.06951,-4.23955 8.93974,-5.621 3.87023,-1.38145 7.92198,-2.16937 12.15524,-2.36375 5.1184,-0.23502 9.20415,0.55758 12.25726,2.37778 3.09002,1.78411 5.1296,3.78843 6.11874,6.01294 0.60496,1.41672 1.02642,4.71628 1.26438,9.89867 l 0.85807,18.68752 c 0.10085,2.19652 0.26089,3.58208 0.4801,4.15669 0.21764,0.54029 0.52518,0.93888 0.92263,1.19578 0.39744,0.25689 0.84632,0.37385 1.34662,0.35088 1.00058,-0.0459 1.99126,-0.7277 2.97202,-2.04527 l 1.78852,1.15602 c -1.80759,2.62808 -3.72367,4.57327 -5.74824,5.83559 -1.98765,1.22623 -4.28994,1.89942 -6.90687,2.01958 -3.07873,0.14136 -5.51315,-0.38312 -7.30325,-1.57346 -1.79167,-1.22466 -2.93981,-3.13234 -3.44442,-5.72302 z m -0.17256,-3.7581 -0.73987,-16.11348 c -4.54471,2.65057 -7.88852,5.41797 -10.03143,8.30219 -1.41579,1.92222 -2.08035,3.82714 -1.99368,5.71477 0.0725,1.57874 0.77131,2.93957 2.09645,4.08247 1.00464,0.88248 2.37287,1.28396 4.10466,1.20444 1.92421,-0.0884 4.11217,-1.15182 6.56387,-3.19039 z"
         style="font-style:normal;font-variant:normal;font-weight:bold;font-stretch:normal;font-size:105.54367065px;line-height:125%;font-family:'Times New Roman';-inkscape-font-specification:'Times New Roman, Bold';text-align:start;writing-mode:lr-tb;text-anchor:start;fill:#ffffff"
         id="path5397"
         inkscape:original-d="m 680.90008,269.00231 q -8.81249,7.78178 -15.82125,7.78178 -4.1228,0 -6.85415,-2.67982 -2.73135,-2.73135 -2.73135,-6.80262 0,-5.51424 4.74121,-9.89472 4.74122,-4.43201 20.66554,-11.74998 l 0,-4.84429 q 0,-5.46271 -0.61842,-6.85415 -0.56689,-1.44298 -2.21601,-2.47368 -1.64912,-1.08224 -3.71052,-1.08224 -3.34977,0 -5.51424,1.49452 -1.33991,0.92763 -1.33991,2.16447 0,1.08223 1.44298,2.67982 1.95833,2.216 1.95833,4.2774 0,2.52522 -1.9068,4.32894 -1.85526,1.75219 -4.89582,1.75219 -3.24671,0 -5.46271,-1.95833 -2.16447,-1.95833 -2.16447,-4.58661 0,-3.71052 2.93749,-7.0603 2.9375,-3.40131 8.19407,-5.20503 5.25657,-1.80372 10.92542,-1.80372 6.85415,0 10.82235,2.93749 4.01973,2.88596 5.20503,6.28727 0.72149,2.16447 0.72149,9.94625 l 0,18.70721 q 0,3.29824 0.25768,4.17433 0.25767,0.82456 0.77302,1.23684 0.51535,0.41228 1.18531,0.41228 1.33991,0 2.73135,-1.90679 l 1.54605,1.23684 q -2.57675,3.81359 -5.35964,5.56578 -2.73135,1.70065 -6.23573,1.70065 -4.1228,0 -6.44188,-1.90679 -2.31907,-1.95833 -2.83442,-5.87499 z m 0,-3.76206 0,-16.13045 q -6.23574,3.65898 -9.2763,7.83332 -2.00987,2.78289 -2.00987,5.61731 0,2.37061 1.70066,4.17434 1.28837,1.39144 3.60745,1.39144 2.57675,0 5.97806,-2.88596 z"
         inkscape:connector-curvature="0" />
      <path
         d="m 765.24969,193.01217 0.80842,17.60642 12.81524,-0.58844 0.23402,5.09659 -12.81524,0.58844 1.36392,29.70439 c 0.12765,2.77996 0.34508,4.57561 0.6523,5.38693 0.34411,0.77523 0.89359,1.40347 1.64843,1.8847 0.75326,0.44691 1.43777,0.65623 2.05351,0.62796 2.50147,-0.11486 4.79024,-1.9224 6.86631,-5.42262 l 1.7838,1.05306 c -2.81465,6.73267 -7.72404,10.2598 -14.72816,10.58141 -3.4251,0.15727 -6.36926,-0.55017 -8.83249,-2.12231 -2.42633,-1.60824 -4.01468,-3.44411 -4.76503,-5.50763 -0.43843,-1.14922 -0.77583,-4.29787 -1.01221,-9.44595 l -1.19373,-25.99778 -7.04261,0.32337 -0.0827,-1.80183 c 4.70876,-3.27717 8.67922,-6.67521 11.91139,-10.19412 3.27066,-3.52068 6.08062,-7.41572 8.42989,-11.68512 z"
         style="font-style:normal;font-variant:normal;font-weight:bold;font-stretch:normal;font-size:105.54367065px;line-height:125%;font-family:'Times New Roman';-inkscape-font-specification:'Times New Roman, Bold';text-align:start;writing-mode:lr-tb;text-anchor:start;fill:#ffffff"
         id="path5399"
         inkscape:original-d="m 726.19935,210.30395 0,17.62497 11.44077,0 0,5.10196 -11.44077,0 0,29.73569 q 0,4.17434 0.36075,5.41118 0.41228,1.1853 1.39144,1.95833 0.97917,0.72149 1.80373,0.72149 3.34977,0 6.3388,-5.10197 l 1.54605,1.13377 q -4.17433,9.89472 -13.5537,9.89472 -4.58662,0 -7.78178,-2.52521 -3.14364,-2.57675 -4.01973,-5.72039 -0.51535,-1.75219 -0.51535,-9.48244 l 0,-26.02517 -6.28727,0 0,-1.80373 q 6.49341,-4.58661 11.02849,-9.63704 4.58661,-5.05043 7.98792,-11.28616 l 1.70065,0 z"
         inkscape:connector-curvature="0" />
      <path
         d="m 830.87157,230.03232 -29.6136,1.35975 c 0.63948,6.36771 2.7761,11.32536 6.40988,14.87294 2.7862,2.72668 6.04579,4.00431 9.77876,3.83291 2.30905,-0.10603 4.38043,-0.76862 6.21415,-1.98779 1.83215,-1.25348 3.75723,-3.42264 5.77524,-6.50748 l 2.0147,1.04246 c -2.68054,5.45397 -5.73986,9.37766 -9.17797,11.77107 -3.43969,2.35908 -7.48783,3.64553 -12.14443,3.85934 -8.00471,0.36755 -14.19204,-2.09978 -18.56198,-7.40198 -3.51293,-4.27538 -5.41989,-9.69068 -5.72089,-16.24589 -0.36875,-8.031 1.76264,-14.52594 6.39418,-19.48482 4.66844,-4.99497 10.27382,-7.64265 16.81613,-7.94305 5.46475,-0.25092 10.2905,1.53948 14.47723,5.3712 4.22365,3.79564 6.66985,9.61608 7.3386,17.46134 z m -14.35905,-2.79716 c -0.25371,-5.52561 -0.77421,-9.30212 -1.56147,-11.32954 -0.74879,-2.02919 -1.85957,-3.54306 -3.33233,-4.54161 -0.83654,-0.58067 -1.92828,-0.84007 -3.27522,-0.77823 -2.00118,0.0919 -3.59658,1.04216 -4.78619,2.85082 -2.13031,3.15878 -3.07333,7.39801 -2.82907,12.71769 l 0.0827,1.80183 z"
         style="font-style:normal;font-variant:normal;font-weight:bold;font-stretch:normal;font-size:105.54367065px;line-height:125%;font-family:'Times New Roman';-inkscape-font-specification:'Times New Roman, Bold';text-align:start;writing-mode:lr-tb;text-anchor:start;fill:#ffffff"
         id="path5401"
         inkscape:original-d="m 783.14553,250.2951 -26.43746,0 q 0.46382,9.58551 5.10197,15.15129 3.55591,4.27741 8.55481,4.27741 3.0921,0 5.61731,-1.70066 2.52522,-1.75219 5.41118,-6.23573 l 1.75219,1.13377 q -3.91666,7.98792 -8.65788,11.3377 -4.74122,3.29824 -10.97696,3.29824 -10.71928,0 -16.23352,-8.2456 -4.43201,-6.64802 -4.43201,-16.4912 0,-12.05919 6.49341,-19.17102 6.54494,-7.16336 15.30589,-7.16336 7.31797,0 12.67761,6.02959 5.41118,5.97806 5.82346,17.77957 z m -12.67761,-3.45284 q 0,-8.29714 -0.92763,-11.38924 -0.8761,-3.0921 -2.78289,-4.68968 -1.08224,-0.92763 -2.88596,-0.92763 -2.67982,0 -4.38048,2.62828 -3.04056,4.58662 -3.04056,12.57454 l 0,1.80373 14.01752,0 z"
         inkscape:connector-curvature="0" />
    </g>
    <path
       style="fill:#ffffff;fill-rule:evenodd;stroke:#ffffff;stroke-width:7.32559729;stroke-linecap:butt;stroke-linejoin:miter;stroke-miterlimit:4;stroke-dasharray:none;stroke-opacity:1"
       d="M 352.71074,292.23654 868.70139,236.42321"
       id="path5405"
       inkscape:connector-curvature="0" />
    <text
       xml:space="preserve"
       style="font-style:normal;font-variant:normal;font-weight:bold;font-stretch:normal;font-size:293.15679932px;line-height:125%;font-family:'Times New Roman';-inkscape-font-specification:'Times New Roman, Bold';text-align:start;letter-spacing:0px;word-spacing:0px;writing-mode:lr-tb;text-anchor:start;fill:#1a1a1a;fill-opacity:1;stroke:none;stroke-width:1px;stroke-linecap:butt;stroke-linejoin:miter;stroke-opacity:1"
       x="60.47047"
       y="-315.69275"
       id="text5407"
       sodipodi:linespacing="125%"
       transform="scale(0.9175141,1.0899015)"><tspan
         sodipodi:role="line"
         id="tspan5409"
         x="60.47047"
         y="-315.69275"
         style="font-style:normal;font-variant:normal;font-weight:bold;font-stretch:normal;font-size:293.15679932px;line-height:125%;font-family:'Times New Roman';-inkscape-font-specification:'Times New Roman, Bold';text-align:start;writing-mode:lr-tb;text-anchor:start;fill:#1a1a1a">Welcome to</tspan></text>
  </g>
</svg>
