<?xml version="1.0" standalone="no"?>
<!DOCTYPE svg PUBLIC "-//W3C//DTD SVG 1.1//EN" "http://www.w3.org/Graphics/SVG/1.1/DTD/svg11.dtd" >
<svg xmlns="http://www.w3.org/2000/svg" xmlns:xlink="http://www.w3.org/1999/xlink" version="1.1">
<metadata></metadata>
<defs>
<font id="clementepdapheavyitalic" horiz-adv-x="1269" >
<font-face units-per-em="2048" ascent="1638" descent="-410" />
<missing-glyph horiz-adv-x="669" />
<glyph horiz-adv-x="0" />
<glyph unicode="&#xd;" horiz-adv-x="0" />
<glyph unicode=" "  horiz-adv-x="669" />
<glyph unicode="&#x09;" horiz-adv-x="669" />
<glyph unicode="&#xa0;" horiz-adv-x="669" />
<glyph unicode="!" horiz-adv-x="581" d="M-57 160q10 43 36.5 76.5t62.5 58t78 37t81 12.5t74.5 -12.5t60 -37t36 -58t1.5 -76.5t-37 -77t-62.5 -57.5t-77.5 -37t-81 -13.5t-75 13.5t-60.5 37t-36 57.5t-0.5 77zM127 422l125 1053h416l-361 -1053h-180z" />
<glyph unicode="&#x22;" horiz-adv-x="890" d="M111 737l170 738h278l-170 -738h-278zM500 737l170 738h280l-170 -738h-280z" />
<glyph unicode="#" horiz-adv-x="1028" d="M-70 438l80 215h170l62 168h-168l80 215h168l163 439h220l-164 -439h170l161 439h220l-164 -439h170l-80 -215h-170l-62 -168h168l-80 -215h-167l-164 -438h-217l161 438h-168l-163 -438h-219l163 438h-170zM397 653h170l64 168h-170z" />
<glyph unicode="$" horiz-adv-x="1134" d="M8 557h342q-14 -80 32 -117t120 -37q25 0 54.5 5.5t57 17.5t48 31.5t26.5 48.5t0 48t-30.5 33.5t-68.5 26t-112 23.5q-209 39 -295 113.5t-53 216.5q18 78 62.5 134t105.5 95t134 61.5t149 30.5l43 187h215l-43 -187q74 -6 138 -27.5t109 -60.5t64.5 -98.5t3.5 -143.5 h-328q12 66 -29.5 100t-101.5 34q-66 0 -112.5 -25t-57.5 -74q-6 -27 13.5 -46t53.5 -33.5t78 -25.5t86 -19.5t77.5 -15.5t56.5 -13q49 -16 91 -39t70.5 -57.5t38.5 -82.5t-4 -116q-23 -92 -72.5 -156.5t-117.5 -107.5t-148.5 -65.5t-162.5 -31.5l-43 -184h-215l43 188 q-78 10 -144.5 36t-110.5 71t-62.5 109.5t-0.5 152.5z" />
<glyph unicode="%" horiz-adv-x="1685" d="M143 936q-4 70 15 154q18 84 55 154.5t92 121.5t129 80t166 29h836l-37 -162l-1039 -1313h-202l1038 1313h-334q37 -86 4 -223q-18 -84 -56 -154t-93 -121t-129 -79.5t-166 -28.5t-152.5 28.5t-91.5 79.5t-35 121zM379 939q4 -32 22.5 -52.5t59.5 -20.5q39 0 66.5 20.5 t47 52.5t32 72t22.5 79q8 39 14 78.5t2 72.5t-23.5 52.5t-58.5 19.5q-41 0 -68.5 -20.5t-46 -52.5t-32 -72t-21.5 -78q-10 -39 -15 -79t-1 -72zM799 204.5q-4 69.5 14 153.5t55 155t92.5 122t129 79.5t165.5 28.5t152.5 -28.5t92.5 -79.5t36 -122t-14 -155v2 q-18 -84 -56.5 -154.5t-93.5 -121.5t-129 -80t-166 -29t-152.5 29t-91 80t-34.5 120.5zM1034 210q4 -32 22.5 -52.5t59.5 -20.5q39 0 66.5 20.5t47 52.5t32 70.5t22.5 77.5q8 39 14.5 80t2 73t-24 52.5t-57.5 20.5q-41 0 -69 -20.5t-46.5 -52.5t-31.5 -73t-21 -80 q-10 -39 -15.5 -77.5t-1.5 -70.5z" />
<glyph unicode="&#x26;" horiz-adv-x="1738" d="M-37 436q12 55 42 115.5t73 113t98 88t121 40.5q-61 8 -93 46t-44.5 87t-9 101t13.5 91q23 98 92.5 170t160.5 119t190.5 69.5t180.5 22.5q121 0 219.5 -29.5t162 -92t87 -158t-5.5 -224.5h-342q29 102 -23 164t-151 62q-37 0 -77 -10.5t-75.5 -31t-63 -51t-36.5 -71.5 q-10 -45 1.5 -77t38 -52.5t63.5 -29.5t76 -9h38l-53 -234h-39q-92 0 -164.5 -45t-95.5 -143q-12 -51 12.5 -89t68.5 -63.5t98.5 -38t101.5 -12.5q68 0 138.5 19.5t129.5 55.5t103 87t57 117h-33q-72 0 -104.5 -24.5t-49.5 -88.5l-211 127q12 53 32 105.5t56.5 94.5t95 68.5 t148.5 26.5h408q70 0 103.5 23.5t47.5 87.5l211 -127q-12 -53 -31.5 -105.5t-56.5 -94.5t-95 -67.5t-146 -25.5h-29q-20 -154 -100 -262.5t-197 -176t-262.5 -98.5t-296.5 -31q-127 0 -245 26t-203 82t-125 143t-11 210z" />
<glyph unicode="'" horiz-adv-x="499" d="M111 737l170 738h278l-170 -738h-278z" />
<glyph unicode="(" horiz-adv-x="610" d="M-29.5 35.5q-3.5 226.5 56.5 484.5q59 254 167.5 490.5t274.5 464.5h311q-152 -236 -251 -467.5t-158 -487.5q-59 -254 -63.5 -480t36.5 -462h-313q-57 231 -60.5 457.5z" />
<glyph unicode=")" horiz-adv-x="610" d="M-268 -422q154 236 252 467t157 487q57 254 63.5 480.5t-34.5 462.5h311q57 -231 61 -458t-55 -485q-117 -502 -442 -954h-313z" />
<glyph unicode="*" horiz-adv-x="827" d="M0 1094l70 211l252 -103l-19 273h223l-20 -273l254 103l67 -211l-264 -68l176 -209l-180 -131l-145 234l-144 -234l-180 131l174 209z" />
<glyph unicode="+" horiz-adv-x="1218" d="M92 598v279h377v378h281v-378h376v-279h-376v-379h-281v379h-377z" />
<glyph unicode="," horiz-adv-x="610" d="M-227 -250l516 639l209 -139l-516 -639z" />
<glyph unicode="-" horiz-adv-x="790" d="M14 397l68 299h606l-70 -299h-604z" />
<glyph unicode="." horiz-adv-x="581" d="M-57 160q10 43 36.5 76.5t62.5 58t78 37t81 12.5t74.5 -12.5t60 -37t36 -58t1.5 -76.5t-37 -77t-62.5 -57.5t-77.5 -37t-81 -13.5t-75 13.5t-60.5 37t-36 57.5t-0.5 77z" />
<glyph unicode="/" horiz-adv-x="839" d="M-170 0l903 1475h277l-904 -1475h-276z" />
<glyph unicode="0" horiz-adv-x="1501" d="M123 466q-4 136 27 271t98 271.5t165.5 245t226.5 177t280 68.5q154 0 250 -67.5t145 -176t53 -245t-27 -273.5q-31 -135 -98 -271t-165.5 -245.5t-226.5 -177.5t-282 -68t-250 68t-144 177.5t-52 245.5zM463 433q8 -75 45 -127t123 -52t148.5 51t105.5 126t69.5 159 t40.5 147q14 61 26.5 145.5t4.5 159t-45 127t-123 52.5q-88 0 -150.5 -51.5t-105.5 -126t-68.5 -158.5t-39.5 -148q-14 -63 -26.5 -146t-4.5 -158z" />
<glyph unicode="1" horiz-adv-x="1501" d="M246 1159q12 57 33.5 113.5t60.5 101.5t100.5 73t157.5 28h524l-340 -1475h-399l264 1141h-12q-76 0 -112 -24.5t-52 -94.5z" />
<glyph unicode="2" horiz-adv-x="1501" d="M-51 0q25 135 102.5 242.5t185 195.5t230.5 160t238 133q41 23 87 50.5t86 61.5t69.5 71.5t39.5 82.5q23 92 -14 152.5t-135 60.5q-72 0 -125.5 -28.5t-91 -75.5t-62 -106.5t-37.5 -118.5h-342q25 141 89.5 255.5t159.5 194.5t216 124t262 44q109 0 205 -25.5t161.5 -81 t92.5 -142.5t-2 -210q-18 -80 -57 -147.5t-91.5 -125.5t-116 -108.5t-132.5 -93.5q-111 -70 -223.5 -131t-204.5 -125h370q68 0 103 23.5t49 89.5l211 -129q-16 -68 -40 -122t-63 -92t-94 -58.5t-133 -20.5h-993z" />
<glyph unicode="3" horiz-adv-x="1501" d="M71.5 288.5q-20.5 106.5 26.5 254.5h344q-33 -131 12.5 -205t180.5 -74q96 0 170 50.5t96 152.5q23 98 -28.5 143t-143.5 45h-39l55 234h37q39 0 80 9t77 29.5t62.5 52.5t36.5 77q8 41 -4 71.5t-38.5 51t-61.5 31t-70 10.5q-49 0 -95 -16.5t-84 -46.5t-64.5 -70.5 t-34.5 -92.5h-342q31 129 98.5 224.5t159.5 158t203.5 92t232.5 29.5q82 0 170 -22.5t157.5 -69.5t106.5 -118.5t14 -170.5q-10 -39 -30.5 -91t-55 -101t-84 -87t-112.5 -46q63 -4 102 -40t57.5 -88.5t19.5 -113t-11 -115.5q-29 -119 -99.5 -206t-166 -143t-206 -84 t-216.5 -28q-129 0 -240 34t-181.5 103.5t-91 176z" />
<glyph unicode="4" horiz-adv-x="1501" d="M-29 346l80 342l838 787h364l-190 -820h20q72 0 105 23.5t49 89.5l211 -129q-12 -53 -32.5 -105.5t-57.5 -94.5t-95.5 -67.5t-146.5 -25.5h-125l-80 -346h-376l79 346h-643zM297 655h389l107 467z" />
<glyph unicode="5" horiz-adv-x="1501" d="M13.5 227q-33.5 88 4.5 213h359q-4 -47 11 -80.5t44 -55t68 -31t84 -9.5q49 0 97 15.5t88 44t69.5 69.5t42.5 92q25 109 -26.5 169.5t-156.5 60.5q-70 0 -135 -22.5t-119 -84.5h-340l361 867h838q76 0 121.5 -19.5t67 -57.5t21.5 -92.5t-16 -123.5l-270 -129 q16 70 -10.5 91t-90.5 21h-452l-139 -313q78 55 171 80.5t179 25.5q111 0 190.5 -34.5t124.5 -98t55.5 -152.5t-14.5 -198q-31 -131 -105.5 -225t-175 -155.5t-219 -90.5t-235.5 -29q-102 0 -204.5 26t-178.5 82t-109.5 144z" />
<glyph unicode="6" horiz-adv-x="1501" d="M109.5 421q-3.5 124 29.5 263q37 158 105.5 304.5t172 260t243 182t317.5 68.5q86 0 166 -15.5t145 -56.5l-252 -223q-27 20 -59.5 25.5t-67.5 5.5q-76 0 -137 -34t-108.5 -88t-82 -119.5t-55.5 -129.5q-2 -6 -5 -14t-5 -14q96 86 193.5 122.5t214.5 36.5 q106 0 188 -33.5t134 -97t69 -152t-8 -194.5q-31 -133 -98.5 -234.5t-163 -170t-212 -103.5t-243.5 -35q-162 0 -268.5 59.5t-159.5 164.5q-49 98 -52.5 222zM467 414q8 -45 32.5 -78t64.5 -52.5t93 -19.5t104.5 18.5t93.5 51.5t73 79t43 99t2 97t-38 76t-71 49.5t-94 17.5 t-100 -18.5t-89 -50.5t-69 -76t-41 -95q-12 -53 -4 -98z" />
<glyph unicode="7" horiz-adv-x="1501" d="M268 1182q12 53 31.5 105t56.5 94t95.5 68t148.5 26h832l-72 -310l-617 -1165h-407l616 1165h-319q-72 0 -104.5 -23.5t-49.5 -88.5z" />
<glyph unicode="8" horiz-adv-x="1501" d="M72 442q35 147 130 231.5t238 110.5q-106 35 -141 117t-8 199q27 111 93.5 187.5t154.5 123.5t189 67.5t196 20.5q92 0 185 -21.5t161.5 -69.5t101.5 -124t8 -184q-25 -109 -103.5 -198t-191.5 -118q63 -8 108.5 -37.5t72 -75.5t33.5 -104.5t-7 -124.5 q-29 -127 -104.5 -215t-176 -144t-215 -82t-223.5 -26q-113 0 -216 25t-177 80t-106.5 144t-1.5 218zM432 444q-12 -51 1 -88t44 -60.5t73 -34.5t87 -11t92 11t88 34.5t72 60.5t43 88q27 113 -32.5 166.5t-164.5 53.5q-104 0 -190 -52.5t-113 -167.5zM606 983 q10 -33 36 -53.5t62.5 -30.5t77.5 -10t83 9t79 29.5t65 53.5t38 80q12 51 2.5 87t-35 57.5t-64.5 30.5t-84 9q-90 0 -163.5 -42t-96.5 -142q-10 -45 0 -78z" />
<glyph unicode="9" horiz-adv-x="1501" d="M176.5 760q-16.5 88 7.5 196q31 133 98.5 234.5t163 170.5t212 103.5t243.5 34.5q162 0 267.5 -60.5t158.5 -164.5q49 -96 53.5 -220t-28.5 -263q-37 -158 -105.5 -304.5t-172 -260t-243 -182.5t-317.5 -69q-86 0 -167 15.5t-146 56.5l254 223q25 -20 58.5 -25t68.5 -5 q76 0 136 33.5t108 88t82 120t57 128.5q4 16 10 29q-96 -86 -194.5 -123t-213.5 -37q-106 0 -188 34t-134 96.5t-68.5 150.5zM518 865.5q10 -44.5 38 -76t71 -49t94 -17.5t99 18.5t89 50t70 76t41 95.5t4 97t-32.5 78.5t-64.5 52t-93 19.5t-104.5 -18t-93.5 -51t-73 -79 t-43 -99t-2 -97.5z" />
<glyph unicode=":" horiz-adv-x="581" d="M-57 160q10 43 36.5 76.5t62.5 58t78 37t81 12.5t74.5 -12.5t60 -37t36 -58t1.5 -76.5t-37 -77t-62.5 -57.5t-77.5 -37t-81 -13.5t-75 13.5t-60.5 37t-36 57.5t-0.5 77zM115 901q10 43 36.5 77t62.5 58.5t77 36.5t80 12t74.5 -12t60 -36.5t36 -58.5t1.5 -77t-37 -76.5 t-62.5 -57.5t-76.5 -37t-80 -13t-75 13t-60.5 37t-36 57.5t-0.5 76.5z" />
<glyph unicode=";" horiz-adv-x="581" d="M-227 -250l516 639l209 -139l-516 -639zM115 901q10 43 36.5 77t62.5 58.5t77 36.5t80 12t74.5 -12t60 -36.5t36 -58.5t1.5 -77t-37 -76.5t-62.5 -57.5t-76.5 -37t-80 -13t-75 13t-60.5 37t-36 57.5t-0.5 76.5z" />
<glyph unicode="&#x3c;" horiz-adv-x="1218" d="M92 621v231l1034 420v-295l-612 -240l612 -239v-295z" />
<glyph unicode="=" horiz-adv-x="1218" d="M92 356v281h1034v-281h-1034zM92 838v280h1034v-280h-1034z" />
<glyph unicode="&#x3e;" horiz-adv-x="1218" d="M92 203v295l613 239l-613 240v295l1034 -418v-231z" />
<glyph unicode="?" horiz-adv-x="1232" d="M131 979q27 98 81 191.5t137 166t196.5 116.5t259.5 44q141 0 232 -38t140.5 -98.5t61.5 -133t-2 -142.5q-18 -92 -56 -150t-86 -97t-103.5 -66t-108.5 -53q-43 -23 -72 -43.5t-49.5 -45t-32.5 -55t-20 -69.5l-27 -113h-336l27 113q8 37 20.5 85t38 99t67.5 100.5 t109 83.5q25 14 62 30t71.5 37.5t62 49t38.5 68.5q16 61 -16.5 95t-102.5 34q-90 0 -144.5 -62.5t-66.5 -146.5h-381zM246 160q10 43 36.5 76.5t62.5 58t78 37t81 12.5t74.5 -12.5t60.5 -37t36 -58t1 -76.5t-37 -77t-62.5 -57.5t-77.5 -37t-81 -13.5t-75 13.5t-60.5 37 t-35.5 57.5t-1 77z" />
<glyph unicode="@" horiz-adv-x="1671" d="M76 737q0 176 60.5 317.5t166 240t251.5 151.5t318 53q139 0 269.5 -38t232 -114.5t161.5 -190t60 -267.5q0 -164 -69 -297q-43 -82 -111.5 -147.5t-163.5 -110.5q-41 -18 -88 -31.5t-92 -13.5q-41 0 -73.5 18.5t-43.5 59.5q-4 16 -4 26q-37 -57 -94 -80.5t-123 -23.5 q-78 0 -140.5 27.5t-105.5 76.5t-66.5 114.5t-23.5 141.5q0 94 31 184.5t87 160t137 111.5t184 42q78 0 144.5 -31t109.5 -98l24 92h174l-94 -401q-10 -43 -20.5 -87t-10.5 -90q0 -16 7.5 -34.5t29.5 -18.5q43 0 80 31q35 27 58.5 65.5t38 81.5t20.5 88.5t6 88.5 q0 121 -41 211t-113.5 149t-171 88t-211.5 29q-123 0 -232.5 -42t-190.5 -118t-128 -181.5t-47 -232.5q0 -129 45 -234.5t125 -180t187.5 -116.5t232.5 -42t234.5 31.5t205.5 111.5h209q-115 -174 -279.5 -253t-369.5 -79q-166 0 -309 55.5t-247.5 157t-165 240.5t-60.5 309 zM645 678q0 -66 40 -117t110 -51q57 0 104 22.5t76 69.5q10 25 23.5 75t23.5 89q0 68 -47 113t-115 45q-47 0 -87 -22.5t-68.5 -57.5t-44 -79t-15.5 -87z" />
<glyph unicode="A" d="M-59 0l231 999q59 260 222 385t419 125q263 0 365 -129q65 -82 64 -213q0 -76 -21 -168l-232 -999h-399l135 582h-250l-135 -582h-399zM545 893h250l18 76q9 33 15 73q4 23 3 45q1 15 -1 29q-4 35 -24 58.5t-65 23.5t-75.5 -23.5t-50 -58.5t-32 -75t-20.5 -72z" />
<glyph unicode="B" d="M-59 0l340 1475h553q90 0 168.5 -19.5t132 -63.5t75.5 -114q11 -35 11 -77q0 -43 -11 -93q-25 -106 -93 -181t-173 -118q123 -39 168 -135q27 -57 27 -128q0 -49 -13 -104q-25 -109 -86 -190.5t-145 -138t-182.5 -85t-196.5 -28.5h-575zM412 309h77q41 0 81 8.5t73 29 t56.5 52t35.5 80.5q6 25 6 46q1 47 -27 75q-40 41 -132 41h-95zM545 885h55q80 0 138.5 33.5t76.5 115.5q4 19 4 35q0 43 -32 65q-44 30 -123 31h-56z" />
<glyph unicode="C" horiz-adv-x="1542" d="M54 429q-5 43 -5 89q0 102 27 217q39 168 122 309.5t200.5 245t268 161.5t322.5 58q137 0 242.5 -35.5t175.5 -107.5q71 -72 99 -178q17 -65 17 -143q0 -49 -7 -103h-392q1 16 1 31q0 91 -51 147q-60 66 -171 66q-92 0 -163.5 -42t-125 -106.5t-87 -145.5t-52.5 -157 q-18 -75 -20 -155v-13q1 -71 21 -131q22 -64 74 -105.5t142 -41.5q66 0 120 22.5t96 60.5t75 90t55 111h392q-35 -137 -114 -248.5t-188.5 -191.5t-238.5 -124t-260 -44q-170 0 -293 58.5t-193.5 162t-88.5 243.5z" />
<glyph unicode="D" horiz-adv-x="1421" d="M-59 0l340 1475h581q168 0 277.5 -56.5t168 -156t68.5 -233.5q2 -27 1 -56q0 -110 -29 -234q-84 -356 -318.5 -547.5t-593.5 -191.5h-495zM416 334h78q94 0 169.5 31.5t132 87t94.5 130t58 162.5v-2q15 67 15 124q1 99 -45 167q-72 107 -263 107h-51z" />
<glyph unicode="E" d="M-59 0l340 1475h1046l-78 -334h-645l-59 -248h579l-71 -311h-578l-59 -248h667l-75 -334h-1067z" />
<glyph unicode="F" d="M-59 0l340 1475h1046l-78 -334h-645l-59 -248h579l-71 -311h-578l-135 -582h-399z" />
<glyph unicode="G" horiz-adv-x="1576" d="M54 429q-5 43 -5 89q0 102 27 217q39 168 122 309.5t200.5 245t268 161.5t322.5 58q137 0 242.5 -35.5t175.5 -107.5t99 -178q17 -66 17 -143q0 -49 -7 -103h-392q1 16 1 31q0 89 -51 147q-60 66 -171 66q-92 0 -163.5 -42t-125 -106.5t-87 -145.5t-52.5 -157 q-18 -76 -20 -155v-13q0 -72 21 -131q22 -65 74 -106t142 -41q100 0 172 51t119 129h-246l72 311h668l-82 -358q-9 -39 -9 -66q0 -29 10 -46q19 -31 93 -31l-213 -281q-78 0 -135.5 21.5t-89.5 80.5q-94 -63 -201 -99t-221 -36q-170 0 -293 58.5t-193.5 162t-88.5 243.5z " />
<glyph unicode="H" horiz-adv-x="1486" d="M-59 0l340 1475h399l-125 -547h457l127 547h399l-342 -1475h-399l143 618h-457l-143 -618h-399z" />
<glyph unicode="I" horiz-adv-x="620" d="M-59 0l340 1475h399l-340 -1475h-399z" />
<glyph unicode="J" d="M34 266q-2 24 -2 50q0 74 19 159l23 98h358l-14 -63q-10 -49 -16 -91q-2 -18 -2 -34q0 -22 4 -41q8 -33 33.5 -51.5t76.5 -18.5q49 0 82 22.5t54.5 57.5t34.5 76t22 76l147 635h-156q-74 0 -109.5 -24.5t-51.5 -94.5l-228 137q12 57 34 113.5t61.5 101.5t101 73t158.5 28 h665l-223 -967q-66 -287 -226.5 -415t-428.5 -128q-135 0 -224.5 37t-136.5 103.5t-56 160.5z" />
<glyph unicode="K" horiz-adv-x="1243" d="M-59 0l340 1475h399l-92 -400l368 400h457l-676 -738l336 -737h-457l-184 399l-92 -399h-399z" />
<glyph unicode="L" d="M-59 0l340 1475h399l-264 -1141h366q76 0 112 24.5t52 94.5l225 -138q-12 -57 -33.5 -113.5t-60.5 -101.5t-101.5 -72.5t-156.5 -27.5h-878z" />
<glyph unicode="M" horiz-adv-x="1918" d="M-59 0l231 999q59 260 222 385t419 125q92 0 170 -20.5t133 -69.5q80 49 167 69.5t179 20.5q256 0 362 -126q68 -81 68 -216q0 -76 -22 -168l-232 -999h-399l223 969q8 33 14 73q4 25 5 48q0 14 -2 27q-4 34 -23.5 57.5t-64.5 23.5t-76 -23.5t-50.5 -57.5t-31.5 -75 t-21 -73l-223 -969h-399l223 969q9 33 15 73q4 24 3 46q1 15 -1 29q-4 34 -24 57.5t-65 23.5t-75.5 -23.5t-50 -57.5t-32 -75t-20.5 -73l-223 -969h-399z" />
<glyph unicode="N" d="M-59 0l231 999q59 260 222 385t419 125q263 0 365 -129q65 -82 64 -213q0 -76 -21 -168l-232 -999h-399l223 969q9 33 15 73q4 23 3 45q1 15 -1 29q-4 35 -24 58.5t-65 23.5t-75.5 -23.5t-50 -58.5t-32 -75t-20.5 -72l-223 -969h-399z" />
<glyph unicode="O" horiz-adv-x="1617" d="M58 432q-6 47 -7 97q0 99 25 208q37 164 121 305.5t203.5 245t269 162.5t317.5 59t290 -59t193.5 -162.5t89.5 -245.5q6 -47 7 -96q0 -99 -25 -209q-37 -164 -121 -305t-203.5 -244.5t-269 -163t-317.5 -59.5q-170 0 -292 59.5t-192.5 163t-88.5 244.5zM456 580v-7 q0 -75 24 -137q24 -64 78 -105.5t147 -41.5q92 0 164.5 41t128 105.5t91.5 144t54 157.5t18 158t-24.5 144.5t-78.5 105.5t-147 41q-92 0 -164.5 -41t-127 -105.5t-90 -144.5t-54.5 -158q-18 -77 -19 -157z" />
<glyph unicode="P" horiz-adv-x="1277" d="M-59 0l340 1475h565q143 0 233 -46.5t136.5 -117t54.5 -157.5q2 -27 2 -53q0 -59 -12 -114q-31 -129 -94.5 -223t-152.5 -156.5t-198.5 -93.5t-232.5 -31h-131l-111 -483h-399zM522 793h53q49 0 97.5 6t89.5 24.5t72 54.5t45 95q6 28 6 50q1 21 -5 38q-12 33 -39.5 50 t-69.5 23.5t-91 6.5h-76z" />
<glyph unicode="Q" horiz-adv-x="1617" d="M58 432q-7 47 -7 97q0 99 25 208q37 164 121 305.5t203.5 245t269 162.5t317.5 59t290 -59t193.5 -162.5t89.5 -245.5q7 -47 7 -96q0 -100 -25 -209q-35 -147 -105.5 -276t-174.5 -232l38 -59q20 -31 35 -51.5t41 -22.5h4q30 0 84 31l-41 -291q-53 -33 -111.5 -56.5 t-111.5 -25.5h-6q-49 0 -91 32q-44 34 -83 108l-74 141q-145 -70 -315 -70t-292 59.5t-192.5 163t-88.5 244.5zM457 579.5q0 -79.5 24.5 -144t77.5 -105.5t146 -41q63 0 114 33l-39 69q-16 31 -33.5 51.5t-41.5 22.5q-18 2 -40 -6t-51 -25l41 291q53 31 109.5 55.5 t109.5 26.5h6q51 0 92 -33q44 -35 89 -106l33 -54q16 29 28.5 60.5t20.5 62.5q18 78 18 158t-24.5 144.5t-78.5 105.5t-147 41q-92 0 -164.5 -41t-127 -105.5t-90 -144.5t-54.5 -158q-18 -78 -18 -157.5z" />
<glyph unicode="R" horiz-adv-x="1286" d="M-53 0l340 1475h620q96 0 176 -26t132.5 -77t72.5 -129q9 -35 9 -76q0 -49 -13 -106q-14 -59 -42 -116.5t-67.5 -107t-91 -86t-114.5 -57.5q55 -20 89 -59t49 -89q13 -44 14 -95q0 -7 -1 -13q-2 -58 -14 -119l-72 -319h-389l57 246q14 62 18 116q1 12 2 23q0 40 -12 72 q-16 41 -55 64.5t-110 23.5h-74l-125 -545h-399zM535 823h69q37 0 79 6.5t80 24.5t66.5 52t40.5 89q5 24 5 45q1 50 -29 81q-42 44 -180 44h-52z" />
<glyph unicode="S" horiz-adv-x="1329" d="M-46 296q-6 32 -6 69q0 59 15 129h399q-9 -42 -10 -76q0 -72 42 -110q61 -54 188 -54q35 0 74.5 8t76.5 27.5t65.5 51.5t39.5 79q3 16 3 30q-1 20 -7 34q-12 26 -47 45.5t-95.5 39t-148.5 45.5q-82 25 -164 52.5t-142.5 72.5t-88.5 116q-15 38 -14 87q0 43 11 94 q29 125 98.5 214t164 146.5t205 85t221.5 27.5q117 0 218 -24.5t169.5 -80.5t97.5 -148q15 -47 15 -105q0 -54 -13 -119h-377q10 30 10 55q0 16 -4 30q-10 36 -37.5 59.5t-67.5 34t-81 10.5q-31 0 -66.5 -6.5t-69.5 -20.5t-59.5 -40t-33.5 -64q-2 -11 -2 -22q-1 -33 23 -55 q32 -30 88 -51.5t130 -39t148 -37.5q76 -23 144.5 -53.5t116.5 -78.5q49 -48 69 -119q9 -32 9 -70q0 -47 -14 -103q-31 -139 -110.5 -233.5t-185 -153t-228.5 -84t-242 -25.5q-47 0 -110.5 7.5t-129 29t-127 58t-103.5 95t-57 141.5z" />
<glyph unicode="T" d="M98 1159q12 57 34 113.5t60.5 101.5t100 73t158.5 28h989l-76 -334h-436l-264 -1141h-400l264 1141h-41q-76 0 -111.5 -24.5t-51.5 -94.5z" />
<glyph unicode="U" d="M51 475l230 1000h399l-223 -969q-9 -33 -15 -73q-4 -25 -4 -47q0 -14 2 -28q4 -34 23.5 -58t64.5 -24t76 24t50.5 58.5t31.5 74.5t21 73l223 969h399l-229 -1000q-59 -260 -223 -385t-420 -125q-263 0 -363 129q-64 82 -64 215q0 75 21 166z" />
<glyph unicode="V" horiz-adv-x="1282" d="M170 1475h408l57 -766l409 766h408l-778 -1475h-408z" />
<glyph unicode="W" horiz-adv-x="1918" d="M51 475l230 1000h399l-223 -969q-9 -35 -15 -75q-4 -25 -3 -47q0 -14 1 -26q4 -34 23.5 -58t64.5 -24t76 24t50.5 57.5t31.5 73.5t21 75l223 969h399l-223 -969q-8 -35 -14 -75q-4 -24 -4 -45q0 -14 2 -28q4 -34 23.5 -58t64.5 -24t75.5 24t50 57.5t32 73.5t20.5 75 l223 969h399l-229 -1000q-59 -260 -223 -385t-420 -125q-92 0 -170 20.5t-133 69.5q-80 -49 -167 -69.5t-179 -20.5q-257 0 -361 126q-67 81 -66 215q0 76 21 169z" />
<glyph unicode="X" horiz-adv-x="1466" d="M-170 0l674 737l-334 738h457l184 -400l369 400h456l-675 -738l335 -737h-456l-185 399l-368 -399h-457z" />
<glyph unicode="Y" d="M193 1092l88 383h399l-82 -353q-8 -33 -14 -72q-4 -24 -4 -46q0 -15 2 -29q4 -35 23.5 -58.5t64.5 -23.5t75.5 23.5t51 58.5t32 75t19.5 72l82 353h399l-88 -383q-47 -203 -157.5 -323t-278.5 -161l-141 -608h-400l142 608q-234 66 -234 318q0 75 21 166z" />
<glyph unicode="Z" horiz-adv-x="1343" d="M-127 0l72 315l923 826h-680l76 334h1206l-67 -293l-934 -848h389q76 0 111 24.5t51 94.5l227 -138q-12 -57 -33.5 -113.5t-61.5 -101.5t-102.5 -72.5t-156.5 -27.5h-1020z" />
<glyph unicode="[" horiz-adv-x="827" d="M-158 -422l439 1897h624l-65 -279h-299l-310 -1339h299l-63 -279h-625z" />
<glyph unicode="\" horiz-adv-x="839" d="M170 1475h279l221 -1475h-277z" />
<glyph unicode="]" horiz-adv-x="827" d="M-160 -422l66 279h299l309 1339h-299l64 279h624l-438 -1897h-625z" />
<glyph unicode="^" horiz-adv-x="966" d="M0 705l371 770h223l373 -770h-281l-203 450l-204 -450h-279z" />
<glyph unicode="_" horiz-adv-x="1024" d="M0 -154h1024v-102h-1024v102z" />
<glyph unicode="`" horiz-adv-x="0" d="M516 1468h379l141 -303h-250z" />
<glyph unicode="a" horiz-adv-x="1423" d="M18 304q-8 41 -8 85q0 65 17 137q29 123 95 226.5t158.5 177.5t205 115.5t235.5 41.5q86 0 160.5 -20t132.5 -63l14 57h361l-156 -674q-6 -23 -6 -42q1 -28 13 -46q20 -31 91 -31l-213 -278q-104 0 -168.5 25.5t-91.5 86.5q-51 -35 -97 -58.5t-94.5 -39.5t-98.5 -23.5 t-107 -7.5q-121 0 -214 41t-151 114.5t-78 175.5zM387 526q-14 -57 -13 -103q0 -67 28 -111q48 -74 192 -74q39 0 84 11t87 33.5t72.5 56.5t41.5 77l59 252q2 11 2 22q0 24 -12 44q-18 30 -51 50.5t-72 30.5t-72 10q-150 0 -230.5 -77.5t-115.5 -221.5z" />
<glyph unicode="b" horiz-adv-x="1423" d="M-59 0l245 1061q9 38 9 65q0 30 -11 48q-20 32 -92 32l213 279q61 0 118.5 -9.5t98.5 -39.5q42 -30 58 -90q7 -25 7 -58q0 -45 -14 -104l-41 -180q74 41 159 62t173 21q121 0 215.5 -40.5t152.5 -114.5t76 -178q7 -40 8 -83q0 -68 -18 -145q-29 -123 -95 -225 t-158.5 -175t-204 -113t-230.5 -40q-184 0 -295 95l-14 -68h-360zM397 416q-4 -16 -4 -31q1 -25 11 -46q16 -34 46.5 -56.5t70.5 -33.5t77 -11q147 0 228 75.5t112 212.5q14 59 14 107q0 65 -25 111q-44 81 -196 81q-31 0 -75 -10t-86 -30.5t-74.5 -49t-40.5 -65.5z" />
<glyph unicode="c" horiz-adv-x="1245" d="M18 304q-8 41 -8 85q0 65 17 137q29 123 95 226.5t158.5 177.5t205 115.5t235.5 41.5q100 0 185 -25.5t145.5 -76.5t88.5 -131q18 -53 18 -117q0 -33 -5 -69h-342q2 15 2 29q0 55 -32 87q-40 40 -113 41q-66 0 -114 -26.5t-81 -68.5t-53.5 -95t-32.5 -109 q-12 -53 -16 -104q-1 -11 -1 -22q0 -38 11 -70q14 -41 48 -66.5t99 -25.5q78 0 139.5 52t84.5 126h344q-39 -106 -103.5 -189.5t-147.5 -139.5t-181.5 -85t-202.5 -29q-121 0 -214 41t-151 114.5t-78 175.5z" />
<glyph unicode="d" horiz-adv-x="1423" d="M18 304q-8 41 -8 85q0 65 17 137q29 123 95 226.5t158.5 177.5t205 115.5t235.5 41.5q86 0 160.5 -20t134.5 -63l16 71q6 27 6 48q0 28 -10 48q-18 35 -94 35l213 279q80 0 139.5 -13.5t95.5 -47.5q34 -34 44 -92q3 -18 3 -39q0 -47 -14 -109l-164 -711q-10 -43 -17 -80 q-4 -24 -4 -44q0 -11 1 -21q4 -28 26.5 -44t73.5 -16l-213 -278q-104 0 -170.5 26.5t-91.5 89.5q-94 -72 -189.5 -102.5t-205.5 -30.5q-121 0 -214 41t-151 114.5t-78 175.5zM387 526q-14 -57 -13 -103q0 -67 28 -111q48 -74 192 -74q39 0 84 11t87 33.5t72.5 56.5t41.5 77 l59 252q2 11 2 22q0 24 -12 44q-18 30 -51 50.5t-72 30.5t-72 10q-147 0 -229 -77.5t-117 -221.5z" />
<glyph unicode="e" horiz-adv-x="1245" d="M18 304q-8 41 -8 85q0 65 17 137q29 123 95 226.5t158.5 177.5t205 115.5t235.5 41.5q100 0 185 -25.5t145.5 -76.5t88.5 -130q18 -52 18 -117q0 -33 -5 -68l-782 -264v-8q1 -67 33 -112q34 -48 124 -48q78 0 139.5 52t84.5 126h344q-39 -106 -103.5 -189.5 t-147.5 -139.5t-181.5 -85t-202.5 -29q-121 0 -214 41t-151 114.5t-78 175.5zM414 612l389 129q-27 84 -135 84q-100 0 -161 -58t-89 -140q-4 -12 -4 -15z" />
<glyph unicode="f" horiz-adv-x="581" d="M-221 -154q72 0 106.5 33t53.5 111l190 823h-111l52 223h110l39 170q23 102 67 161.5t99 90.5t117.5 40t124.5 9q63 0 122.5 -5t114.5 -5l-63 -274q-41 6 -90 6q-72 0 -106 -29t-52 -106l-8 -33h110l-57 -248h-111l-217 -944q-25 -102 -68.5 -161.5t-99 -90.5t-117 -40 t-122.5 -9z" />
<glyph unicode="g" horiz-adv-x="1421" d="M18 301q-8 42 -8 88q0 65 17 137q29 125 96 228.5t159.5 177.5t205 114.5t233.5 40.5q90 0 165 -21.5t128 -61.5l14 57h361l-238 -1020q-18 -84 -57 -172t-113 -159.5t-190.5 -119t-292.5 -47.5q-92 0 -179.5 15.5t-152 55.5t-100.5 108q-26 52 -26 123q0 24 3 51h356 q4 -53 43 -95.5t95 -42.5q55 0 97 26t72.5 63.5t50 83.5t29.5 87l13 50q-152 -94 -338 -95q-119 0 -212 40t-151.5 113t-79.5 175zM387 526q-13 -56 -13 -102q0 -66 27 -110q45 -76 193 -76q37 0 83 11t87 33.5t72.5 56.5t42.5 77l59 252q2 11 2 22q0 24 -12 44 q-19 30 -51.5 50.5t-72.5 30.5t-71 10q-76 0 -133 -20.5t-99 -59t-70 -94t-44 -125.5z" />
<glyph unicode="h" horiz-adv-x="1288" d="M-59 0l245 1061q9 38 9 65q0 30 -11 48q-20 32 -92 32l213 279q61 0 119.5 -9.5t99.5 -39.5q42 -30 58 -90q7 -24 7 -55q0 -46 -16 -107l-59 -256q88 90 178 124.5t201 34.5q82 0 143.5 -25.5t99.5 -72.5t48 -115q4 -24 4 -50q0 -47 -12 -99l-72 -311q-9 -39 -9 -67 q0 -29 10 -46q19 -33 91 -33l-211 -278q-61 0 -119.5 9t-100.5 40q-43 31 -59 90q-7 23 -6 54q0 46 15 108l65 282q10 43 14 84q1 13 2 25q0 26 -6 48q-10 32 -37.5 51.5t-78.5 19.5t-92 -19.5t-71 -51.5t-50.5 -75t-30.5 -90l-129 -565h-360z" />
<glyph unicode="i" horiz-adv-x="581" d="M-4 793l213 280q61 0 119.5 -9t99.5 -40q42 -32 58 -92q7 -24 6 -54q0 -46 -15 -108l-82 -356q-9 -38 -9 -66q0 -30 10 -47q20 -33 93 -33l-213 -278q-61 0 -118.5 9t-98.5 40t-57 90q-7 25 -7 57q0 45 13 105l82 358q9 39 9 66q0 29 -10 46q-19 32 -93 32zM211 1325 q0 43 18.5 77t49 57.5t69.5 36.5t78 13t78 -13t69.5 -36.5t49 -57.5t18.5 -77t-18.5 -77t-49 -58.5t-69.5 -36.5t-78 -12t-78 12t-69.5 36.5t-49 58.5t-18.5 77z" />
<glyph unicode="j" horiz-adv-x="581" d="M-799 -104h357q2 -53 42 -95.5t95 -42.5t97 26t73 63.5t50 83.5t30 87l145 631q9 39 9 66q0 30 -10 46q-19 32 -93 32l213 280q61 0 119.5 -9t99.5 -40t58 -92q6 -24 6 -54q0 -47 -15 -108l-168 -729q-18 -84 -57 -172t-112.5 -159.5t-190.5 -119t-293 -47.5 q-92 0 -179 15.5t-151.5 55.5t-100.5 108q-27 52 -27 124q0 24 3 50zM211 1325q0 43 18.5 77t49 57.5t69.5 36.5t78 13t78 -13t69.5 -36.5t49 -57.5t18.5 -77t-18.5 -77t-49 -58.5t-69.5 -36.5t-78 -12t-78 12t-69.5 36.5t-49 58.5t-18.5 77z" />
<glyph unicode="k" horiz-adv-x="1026" d="M-59 0l245 1061q9 38 9 65q0 30 -11 48q-20 32 -92 32l213 279q61 0 118.5 -9.5t98.5 -39.5q42 -30 58 -90q7 -25 7 -58q0 -45 -14 -104l-81 -359l219 236h391l-486 -531l72 -153q10 -23 27.5 -44.5t48.5 -21.5q20 0 40.5 9.5t41.5 19.5l-35 -283q-53 -31 -109.5 -56.5 t-111.5 -25.5q-70 0 -110 42t-66 96l-60 125l-53 -238h-360z" />
<glyph unicode="l" horiz-adv-x="581" d="M0 129q-6 24 -6 54q0 46 14 108l178 770q9 38 9 65q0 30 -11 48q-20 32 -92 32l213 279q61 0 119.5 -9.5t99.5 -39.5q42 -30 58 -90q7 -24 7 -55q0 -46 -16 -107l-178 -770q-9 -38 -8 -66q-1 -30 9 -47q20 -33 93 -33l-213 -278q-61 0 -119.5 9t-99.5 40t-57 90z" />
<glyph unicode="m" horiz-adv-x="1996" d="M-59 0l149 649q8 37 8 65q0 26 -7 44q-14 35 -87 35h-8l213 280q51 0 99 -7t85 -26.5t61.5 -53.5t30.5 -85q33 37 85.5 70t109.5 59.5t113.5 41.5t99.5 15q115 0 193.5 -52t95.5 -163q82 119 187.5 167t232.5 48q166 0 242 -98q51 -65 52 -160q0 -48 -14 -104l-72 -311 q-8 -36 -8 -64t8 -46q16 -36 95 -36l-213 -278q-80 0 -139.5 14t-95.5 48t-45 92q-3 18 -3 40q0 47 14 107l56 244q10 45 18 92q5 27 5 51q0 18 -3 35q-6 39 -32.5 63.5t-84.5 24.5q-53 0 -93 -19.5t-69.5 -52.5t-50 -76t-30.5 -88l-131 -565h-361l133 573q10 43 14 84 q1 13 2 25q0 26 -6 48q-10 32 -37.5 51.5t-78.5 19.5t-92 -19.5t-71 -52.5t-50.5 -76t-30.5 -88l-129 -565h-360z" />
<glyph unicode="n" horiz-adv-x="1288" d="M-59 0l149 649q9 39 9 67t-9 45q-17 32 -86 32h-8l213 280q129 0 198.5 -41t79.5 -135q84 104 184.5 147t221.5 43q82 0 143.5 -25.5t99.5 -72.5t48 -115q4 -24 3 -50q0 -47 -11 -99l-58 -252q-10 -43 -18 -80q-5 -23 -5 -42q0 -11 2 -23q5 -28 27.5 -44t71.5 -16 l-211 -278q-80 0 -139.5 13t-95.5 47q-38 34 -48 92q-3 18 -3 40q0 47 16 109l57 244q10 45 18 92q5 27 5 51q-1 18 -3 35q-6 39 -32.5 63.5t-85.5 24.5q-51 0 -92 -19.5t-71 -52.5t-50.5 -76t-30.5 -88l-129 -565h-360z" />
<glyph unicode="o" horiz-adv-x="1284" d="M14 320q-3 30 -3 61q0 73 18 151q25 111 82 211.5t145 177t205 121.5t262 45t241.5 -45t148.5 -122q53 -76 63 -176q3 -30 3 -61q0 -73 -18 -151q-25 -111 -82 -212t-145 -177.5t-206 -123t-263 -46.5t-240.5 46.5t-148 122.5t-62.5 178zM374 431q-1 -10 -1 -20 q0 -40 10 -75q12 -43 46 -70.5t97 -27.5t110.5 27.5t79.5 70.5t52.5 95t32.5 101q12 50 15 102q1 10 1 20q0 40 -10 74q-12 42 -46 69.5t-97 27.5t-110.5 -27.5t-80.5 -69.5t-53.5 -94t-30.5 -102q-12 -49 -15 -101z" />
<glyph unicode="p" horiz-adv-x="1423" d="M-98 -290q-6 23 -6 54q0 45 14 105l180 780q8 37 8 64t-8 45q-16 35 -94 35l213 280q43 0 83 -4t74.5 -16.5t61.5 -34t41 -55.5q86 61 192.5 92.5t202.5 31.5q121 0 215.5 -40.5t152.5 -114.5t76 -178q8 -40 8 -83q0 -69 -18 -145q-29 -123 -95 -224t-158.5 -175 t-204 -114t-230.5 -40q-92 0 -166.5 23.5t-128.5 71.5l-16 -76q-8 -39 -8 -68q0 -26 7 -43q15 -35 93 -35l-211 -278q-63 0 -121.5 9t-99.5 41t-57 92zM397 416q-4 -16 -4 -31q0 -25 11 -46q16 -34 46.5 -56.5t70.5 -33.5t77 -11q147 0 228 74.5t112 213.5q14 60 14 108 q0 66 -26 112q-45 79 -195 79q-31 0 -75 -10t-86 -29.5t-74.5 -49t-40.5 -66.5z" />
<glyph unicode="q" horiz-adv-x="1423" d="M18 302q-8 41 -8 85q0 65 17 139q29 125 96 228.5t159.5 177.5t205 114.5t233.5 40.5q90 0 165 -21.5t128 -61.5l14 57h361l-248 -1069q-9 -39 -9 -67q0 -29 10 -46q19 -33 93 -33l-213 -278q-61 0 -120.5 9t-100.5 40t-57 91q-7 23 -7 54q0 46 15 107l47 199 q-152 -94 -338 -95q-119 0 -212 40t-152.5 114t-78.5 175zM387 526q-13 -57 -13 -103q0 -66 27 -111q45 -74 193 -74q37 0 83 11t87 33.5t72.5 56.5t42.5 77l59 252q2 12 2 23q0 25 -12 45q-19 28 -51.5 48.5t-71.5 30.5t-72 10q-152 0 -232.5 -78.5t-113.5 -220.5z" />
<glyph unicode="r" horiz-adv-x="880" d="M-59 0l149 649q9 39 9 67t-9 45q-17 32 -86 32h-8l213 280q129 0 197.5 -40t78.5 -132q98 100 189.5 143t218.5 43q16 0 33.5 -1t34.5 -3l-287 -282q-51 0 -92 -19.5t-71 -52.5t-50.5 -76t-30.5 -88l-129 -565h-360z" />
<glyph unicode="s" horiz-adv-x="1134" d="M-41 350h344q-4 -19 -3 -36q0 -20 4 -34q9 -28 29.5 -46.5t52.5 -27.5t69 -9q25 0 54.5 5t56 17t48 31.5t27.5 48.5t0 48.5t-30.5 33.5t-68.5 25.5t-112 23.5q-211 40 -297 114q-62 54 -62 142q0 34 9 74q23 94 82 156.5t138 100.5t169 54t172 16q86 0 170 -14t147 -52 q62 -37 92 -103q19 -41 20 -97q0 -32 -7 -69h-328q2 13 2 24q1 48 -33 76q-42 34 -102 35q-66 0 -113 -25.5t-57 -75.5q-2 -7 -2 -13q0 -31 38 -51q46 -24 109.5 -41t128 -27.5t93.5 -20.5q49 -16 91 -39t70.5 -57.5t38.5 -82.5q4 -20 4 -43q0 -33 -8 -73q-25 -106 -87 -177 t-146 -112t-181.5 -58.5t-189.5 -17.5q-96 0 -183 20.5t-149.5 65.5t-92.5 117q-17 41 -16 92q0 38 9 82z" />
<glyph unicode="t" horiz-adv-x="581" d="M2 129q-7 25 -7 57q0 45 13 105l125 547h-110l53 223h110l47 207l394 143l-82 -350h110l-51 -223h-110l-99 -424q-9 -38 -9 -66q0 -30 10 -47q20 -33 93 -33l-213 -278q-61 0 -118.5 9t-98.5 40t-57 90z" />
<glyph unicode="u" horiz-adv-x="1288" d="M-4 793l213 280q80 0 139.5 -13t95.5 -48q34 -36 44 -94q3 -18 3 -39q0 -47 -14 -109l-55 -244q-10 -45 -18 -92q-5 -27 -6 -50q0 -18 4 -35q6 -38 31.5 -62.5t84.5 -24.5q51 0 92 19.5t71 51.5t50.5 74t30.5 89l131 565h360l-149 -649q-9 -39 -9 -66.5t9 -44.5 q18 -33 92 -33l-211 -278q-129 0 -198.5 40t-79.5 136q-84 -104 -185.5 -148.5t-220.5 -44.5q-167 1 -243 99q-52 67 -52 165q0 46 12 99l58 252q10 43 17 80q4 24 4 44q0 12 -1 22q-4 28 -26.5 43.5t-73.5 15.5z" />
<glyph unicode="v" horiz-adv-x="1073" d="M-27 745l125 308q43 14 87 23t87 9q51 0 86 -16t57.5 -45t35 -67.5t16.5 -84.5l33 -299l274 488h375l-596 -1061h-373l-65 649q-4 39 -18.5 74t-59.5 35q-16 0 -31.5 -4t-32.5 -9z" />
<glyph unicode="w" horiz-adv-x="1996" d="M-4 793l213 280q80 0 139.5 -14.5t95.5 -48.5q34 -36 44 -94q3 -18 3 -39q0 -47 -14 -107l-55 -244q-10 -45 -18 -92q-5 -27 -6 -50q0 -18 4 -35q6 -38 31.5 -62.5t84.5 -24.5q51 0 92 19.5t71 52.5t50.5 75t30.5 87l131 565h360l-133 -574q-10 -43 -14 -83 q-1 -12 -1 -23q0 -26 6 -48q9 -32 36 -51.5t80 -19.5q51 0 92 19.5t70.5 52.5t50 75t30.5 87l132 565h358l-150 -647q-8 -36 -8 -64t8 -46q16 -36 95 -36l-213 -278q-53 0 -99.5 7t-83 26.5t-61.5 52.5t-33 84q-35 -37 -86 -70t-108.5 -59.5t-113.5 -42t-99 -15.5 q-115 0 -194 53.5t-95 161.5q-82 -119 -186.5 -167t-231.5 -48q-165 1 -243 99q-52 66 -53 162q0 47 13 102l72 313q8 37 8 65q0 26 -7 44q-14 35 -87 35h-8z" />
<glyph unicode="x" horiz-adv-x="1118" d="M-170 0l485 530l-73 156q-10 23 -27.5 45.5t-46.5 22.5q-23 0 -43.5 -10.5t-40.5 -20.5l37 283q51 31 108.5 56t112.5 25q68 0 109 -40.5t65 -94.5l62 -131l223 240h393l-487 -531l73 -153q10 -23 27.5 -44.5t48.5 -21.5q20 0 41 9.5t41 19.5l-35 -283 q-53 -31 -109.5 -56.5t-111.5 -25.5q-70 0 -110 42t-66 96l-62 129l-223 -242h-391z" />
<glyph unicode="y" horiz-adv-x="1288" d="M-90 -104h356q2 -53 41 -95.5t96 -42.5q55 0 97.5 26t74 63.5t51 83.5t27.5 87l25 115q-86 -88 -176 -124t-201 -36q-166 0 -243 99q-53 66 -53 162q0 47 13 102l72 313q9 38 9 65q0 29 -10 46q-19 33 -93 33l213 280q61 0 119.5 -9t99.5 -40t56 -92q7 -24 7 -55 q0 -46 -14 -107l-63 -283q-10 -43 -14 -84q-2 -13 -2 -25q0 -26 6 -46q10 -31 35.5 -50.5t78.5 -19.5q51 0 92 19.5t71 51.5t50.5 74t30.5 89l131 565h360l-235 -1020q-18 -84 -57 -172t-113 -159.5t-190.5 -119t-292.5 -47.5q-92 0 -180.5 15.5t-153 55.5t-99.5 108 q-25 51 -25 122q0 25 3 52z" />
<glyph unicode="z" horiz-adv-x="1099" d="M-139 0l65 281l647 518h-243q-61 0 -91 -21.5t-42 -77.5l-181 109q10 45 27.5 91t49.5 81t82 57.5t126 22.5h795l-66 -279l-637 -520h283q61 0 91 21.5t42 76.5l180 -108q-10 -45 -27.5 -90t-49 -81t-82 -58.5t-125.5 -22.5h-844z" />
<glyph unicode="{" horiz-adv-x="843" d="M12 387l64 281q29 0 60.5 8t60 25.5t50 44t32.5 65.5l94 406q14 61 47 108t78 81t98 51.5t109 17.5h217l-64 -279h-76q-61 0 -92 -37t-45 -100l-76 -328q-12 -51 -40.5 -88t-66.5 -61.5t-83 -38t-88 -17.5q47 -6 87 -18t64.5 -37t33.5 -64.5t-5 -99.5l-72 -313 q-16 -72 2.5 -104.5t83.5 -32.5h64l-66 -279h-217q-55 0 -100 17.5t-75 51.5t-41 82t3 107l90 391q18 80 -23.5 117t-107.5 43z" />
<glyph unicode="|" horiz-adv-x="499" d="M111 0v1475h278v-1475h-278z" />
<glyph unicode="}" horiz-adv-x="843" d="M-176 -422l65 279h62q66 0 99.5 32.5t49.5 104.5l74 313q14 59 41 99t63.5 65t82 37t94.5 18q-41 4 -80 17.5t-65.5 38t-39 61.5t-0.5 88l76 328q16 63 3 100t-77 37h-73l63 279h217q55 0 100.5 -17.5t75 -51.5t41 -81t-3.5 -108l-92 -406q-8 -39 1 -65.5t28.5 -44 t48.5 -25.5t57 -8l-65 -281q-68 -6 -127.5 -43t-77.5 -117l-90 -391q-14 -59 -47 -107t-78 -82t-99.5 -51.5t-109.5 -17.5h-217z" />
<glyph unicode="~" horiz-adv-x="1093" d="M76 770q16 33 38.5 64.5t53.5 56t71 40t91 15.5q53 0 111.5 -19.5t117.5 -45.5q57 -25 112.5 -48.5t96.5 -23.5q61 0 103 46t77 99l70 -249q-23 -33 -47.5 -65t-54 -56.5t-66.5 -40t-84 -15.5q-55 0 -105.5 19.5t-101.5 48.5t-108.5 49.5t-128.5 20.5q-68 0 -109 -45.5 t-68 -100.5z" />
<glyph unicode="&#xa1;" horiz-adv-x="581" d="M-86 0l358 1053h183l-125 -1053h-416zM209 1315q10 43 36.5 76.5t62.5 57.5t78 37t81 13t75 -13t60.5 -37t35.5 -57.5t1 -76.5t-37 -77t-62.5 -58.5t-77.5 -37t-81 -12.5t-75 12.5t-60.5 37t-35.5 58.5t-1 77z" />
<glyph unicode="&#xa2;" horiz-adv-x="1245" d="M82 534.5q-12 92.5 12 198.5q25 109 80 202t131 164.5t170 119t199 65.5l43 191h215l-43 -187q82 -12 148.5 -43t112.5 -82t65.5 -122.5t5.5 -166.5h-342q10 76 -30 117t-114 41q-66 0 -113 -26.5t-79.5 -68.5t-54 -95.5t-33.5 -108.5q-12 -53 -15.5 -105.5t10 -93 t48 -66.5t100.5 -26q78 0 138.5 53.5t82.5 127.5h344q-35 -92 -88 -167t-121.5 -130.5t-149.5 -90t-169 -47.5l-43 -188h-215l45 190q-96 16 -169 63.5t-116 118t-55 163z" />
<glyph unicode="&#xa3;" horiz-adv-x="1222" d="M-106 170q49 31 98 64.5t90 72.5t70.5 86t44.5 105q12 55 4 100h-230l54 233h145q-23 47 -30 103.5t7 114.5q27 111 90.5 194.5t150.5 140t190.5 85t207.5 28.5q248 0 359.5 -127t60.5 -381h-350q10 41 8 80t-17.5 69.5t-44 50t-73.5 19.5q-74 0 -128 -35.5t-73 -113.5 q-6 -29 -4 -57.5t9.5 -58.5t15.5 -58.5t12 -53.5h236l-54 -231h-174q6 -33 -4 -76q-16 -70 -67.5 -134t-116.5 -105q53 27 111 26q39 0 75.5 -9t71.5 -19.5t70.5 -19.5t74.5 -9q31 0 58.5 12.5t52.5 32.5t47.5 45t42.5 47l86 -258q-88 -78 -187.5 -123t-205.5 -45 q-70 0 -129.5 18.5t-122.5 34.5q-57 14 -108.5 22.5t-103.5 3.5t-106.5 -23.5t-115.5 -55.5z" />
<glyph unicode="&#xa4;" horiz-adv-x="1177" d="M43 305l121 119q-35 45 -61.5 123t-26.5 164q0 88 26.5 164.5t61.5 119.5l-121 117l143 139l117 -114q41 35 120 61.5t167 26.5q84 0 160.5 -27t119.5 -61l119 114l139 -137l-118 -119q37 -43 64.5 -119.5t27.5 -164.5q0 -84 -25.5 -163t-66.5 -124l118 -119l-137 -137 l-121 121q-51 -45 -122.5 -68.5t-157.5 -23.5q-88 0 -162 22.5t-125 67.5l-123 -119zM338 711q0 -59 22.5 -106.5t57.5 -79t80 -48t92 -16.5q45 0 90 16.5t80 48t57.5 79t22.5 106.5t-22.5 106t-57.5 79t-80 48.5t-90 16.5q-47 0 -92 -16.5t-80 -48.5t-57.5 -79t-22.5 -106z " />
<glyph unicode="&#xa5;" d="M-20 92l51 223h307l20 86h-307l51 224h308l20 90q-305 86 -213 485l64 275h399l-55 -244q-8 -33 -14.5 -73t-2.5 -75.5t23.5 -59.5t64.5 -24t76 24t50.5 59.5t31.5 75.5t20 73l56 244h399l-63 -275q-47 -203 -158 -322.5t-279 -162.5l-20 -90h307l-53 -224h-305l-21 -86 h307l-53 -223h-305l-22 -92h-400l23 92h-307z" />
<glyph unicode="&#xa6;" horiz-adv-x="499" d="M111 0v539h278v-539h-278zM111 936v539h278v-539h-278z" />
<glyph unicode="&#xa7;" horiz-adv-x="1339" d="M39 506q0 190 137 315q-72 53 -104.5 119t-32.5 158q0 121 57.5 199.5t145.5 125.5t194.5 66.5t204.5 19.5q102 0 208.5 -17t196 -62.5t149.5 -123t69 -200.5h-387q-6 41 -27 73.5t-51.5 55t-68.5 34t-77 11.5q-37 0 -73.5 -6t-66.5 -22.5t-48.5 -45t-18.5 -73.5 q0 -37 32 -65t82 -49.5t110.5 -37.5t120 -27.5t108.5 -20.5t76 -18q70 -20 129 -50.5t103 -76t70 -104.5t26 -137q0 -188 -140 -316q72 -53 106 -118.5t34 -157.5q0 -121 -57.5 -200t-145.5 -126t-195.5 -66.5t-206.5 -19.5q-102 0 -208.5 17.5t-195.5 62.5t-149.5 123 t-68.5 201h387q6 -41 26.5 -74t51 -55.5t68.5 -33.5t77 -11q37 0 74 6t66.5 22.5t48 45t18.5 73.5q0 37 -32 64.5t-82 49t-110.5 38t-120 28t-108.5 20.5t-75 17q-70 20 -129.5 51t-103.5 76t-68.5 104.5t-24.5 137.5zM446 557q0 -43 17.5 -71.5t45.5 -46t63.5 -28 t70.5 -18.5q35 -10 68.5 -16t68.5 -15q47 16 80 49.5t33 84.5q0 43 -17.5 71.5t-45 46t-63.5 27.5t-71 18q-35 10 -68.5 16.5t-68.5 14.5q-45 -16 -79 -49t-34 -84z" />
<glyph unicode="&#xa8;" horiz-adv-x="0" d="M303 1303q0 43 18.5 76.5t49 57t69.5 37t78 13.5t78 -13.5t69.5 -37t49 -57t18.5 -76.5t-18.5 -77t-49 -58.5t-69.5 -37t-78 -12.5t-78 12.5t-69.5 37t-49 58.5t-18.5 77zM813 1303q0 43 18.5 76.5t49 57t69.5 37t78 13.5t78 -13.5t69.5 -37t49 -57t18.5 -76.5t-18.5 -77 t-49 -58.5t-69.5 -37t-78 -12.5t-78 12.5t-69.5 37t-49 58.5t-18.5 77z" />
<glyph unicode="&#xa9;" horiz-adv-x="1683" d="M76 737q0 160 60.5 299.5t163.5 242.5t242.5 163.5t299.5 60.5t299 -60.5t242.5 -163.5t164 -242.5t60.5 -299.5t-60.5 -299t-164 -242.5t-243 -164t-298.5 -60.5q-160 0 -299.5 60.5t-242.5 164t-163.5 243t-60.5 298.5zM303 737q0 -115 42 -214t113.5 -175t170 -119 t213.5 -43q113 0 212 43t170.5 119t113.5 175t42 214q0 113 -42 213.5t-113.5 176t-171 118.5t-211.5 43q-115 0 -213.5 -43t-170 -118.5t-113.5 -176t-42 -213.5zM436 733q0 94 29 173t82 137.5t130 91t173 32.5q139 0 237.5 -78.5t124.5 -238.5h-178q-12 66 -60 96.5 t-120 30.5q-102 0 -158.5 -65.5t-56.5 -174.5q0 -106 60.5 -175.5t154.5 -69.5q70 0 120 30.5t60 108.5h185q-12 -82 -46 -143.5t-82.5 -103.5t-108.5 -62.5t-128 -20.5q-94 0 -171 34t-132 92t-85 137t-30 169z" />
<glyph unicode="&#xaa;" horiz-adv-x="931" d="M169 1028.5q-11 61.5 5 134.5q16 74 56 135.5t95.5 106.5t124 69.5t142.5 24.5q49 0 94 -11t82 -36l6 31h219l-92 -393q-10 -37 3.5 -58.5t62.5 -21.5l-129 -170q-63 0 -105.5 15t-58.5 52q-61 -41 -115.5 -58.5t-122.5 -17.5q-74 0 -130 25t-91 68t-46 104.5zM416 1128 q-2 -35 9 -64.5t29.5 -48t43 -20.5t51.5 19q12 -10 35.5 -2t47 26.5t41 42t19.5 43.5q4 2 6 23.5t3 47.5t0 47.5t-3 25.5q-14 29 -59 36t-82 -4q-72 -18 -104.5 -59t-36.5 -113z" />
<glyph unicode="&#xab;" horiz-adv-x="880" d="M55 578l74 319l381 268l-66 -284l-194 -144l129 -137l-68 -291zM432 578l74 319l381 268l-66 -284l-194 -144l129 -137l-68 -291z" />
<glyph unicode="&#xac;" horiz-adv-x="581" d="M-59 477l43 191l131 86l71 307q18 80 -2 112.5t-92 32.5l213 279q61 0 119.5 -9.5t99.5 -40t57.5 -90t-8.5 -161.5l-34 -152l131 86l-45 -188l-129 -88l-101 -428q-18 -80 1.5 -113t92.5 -33l-213 -278q-61 0 -119.5 9t-99.5 40t-57 90t8 162l64 274z" />
<glyph unicode="&#xad;" horiz-adv-x="790" d="M14 397l68 299h606l-70 -299h-604z" />
<glyph unicode="&#xae;" horiz-adv-x="919" d="M76 1116q0 80 29.5 149.5t82 122t123 82t150.5 29.5t149.5 -29.5t121.5 -82t82 -122t30 -149.5t-30 -149.5t-82 -121.5t-121.5 -82t-149.5 -30t-150.5 30t-123 82t-82 121.5t-29.5 149.5zM193 1116q0 -55 20 -105t56 -87t85 -58.5t107 -21.5q55 0 104 21.5t85 58.5 t56.5 87t20.5 105h2q0 55 -20.5 105.5t-57.5 87.5t-86 58.5t-104 21.5q-57 0 -106.5 -21.5t-85.5 -58.5t-56 -87.5t-20 -105.5zM309 918v395h152q82 0 126 -25.5t44 -97.5q0 -55 -31 -79t-74 -28l95 -165h-95l-84 159h-47v-159h-86zM395 1145h80q29 0 46.5 11t17.5 44 q0 31 -27 38t-53 7h-64v-100z" />
<glyph unicode="&#xaf;" horiz-adv-x="0" d="M410 1178l39 168h667l-39 -168h-667z" />
<glyph unicode="&#xb0;" horiz-adv-x="759" d="M76 1196q0 66 22.5 121t63.5 96t96 63.5t121 22.5t121 -22.5t96 -63.5t64.5 -96t23.5 -121t-22.5 -122t-63.5 -97t-97.5 -63.5t-121.5 -22.5q-66 0 -121 22.5t-96 63.5t-63.5 97t-22.5 122zM221 1196q0 -70 46 -115t112 -45t113 45t47 115q0 68 -47.5 113t-112.5 45 q-66 0 -112 -45t-46 -113z" />
<glyph unicode="&#xb1;" horiz-adv-x="1218" d="M92 219v279h1034v-279h-1034zM92 780v279h377v196h281v-196h376v-279h-376v-196h-281v196h-377z" />
<glyph unicode="&#xb2;" horiz-adv-x="811" d="M45 674q14 80 56 141.5t101.5 110.5t129 88t139.5 76q20 10 44 23t44.5 29.5t35.5 35t19 41.5q10 45 -7 72.5t-64 27.5q-68 0 -104 -50t-52 -126h-217q14 82 51 148.5t91.5 112.5t125 70.5t150.5 24.5q61 0 115.5 -14.5t93.5 -45t55 -79.5t0 -119q-16 -72 -62.5 -126 t-105.5 -97t-124.5 -80t-121.5 -72h154q35 0 48 12.5t24 57.5l143 -82q-20 -84 -63.5 -132t-137.5 -48h-561z" />
<glyph unicode="&#xb3;" horiz-adv-x="796" d="M96.5 840.5q-12.5 62.5 16.5 148.5h219q-39 -147 90 -147q49 0 84 23.5t45 70.5q10 45 -13.5 65.5t-70.5 20.5h-35l35 152h35q41 0 76.5 18t46.5 57q8 35 -21 54.5t-65 19.5q-49 0 -88 -30.5t-50 -90.5h-217q18 80 57.5 136.5t93.5 92t118.5 52t132.5 16.5q45 0 96 -12 t91 -39t62.5 -68t8.5 -98q-8 -35 -36 -88t-83 -82q25 -12 39 -34.5t20.5 -49.5t6 -55t-6.5 -53q-16 -68 -57 -116t-96.5 -80t-118.5 -47t-123 -15q-74 0 -136.5 18t-103 58t-53 102.5z" />
<glyph unicode="&#xb4;" horiz-adv-x="0" d="M444 1163l281 305h383l-416 -305h-248z" />
<glyph unicode="&#xb5;" horiz-adv-x="1288" d="M-221 -154q49 0 78.5 15.5t48 44t28 65.5t19.5 80l233 1010h359l-131 -574q-10 -43 -14.5 -82.5t5 -71.5t35 -51.5t78.5 -19.5q51 0 92 19.5t71 51.5t50.5 74t30.5 89l131 565h360l-143 -623q-10 -41 -14 -72.5t4 -53t30.5 -33t65.5 -11.5l-211 -278q-127 0 -195.5 38 t-80.5 128q-47 -53 -110.5 -98.5t-139.5 -61.5q-16 -4 -40 -7t-48.5 -3t-44 2t-27.5 10l-29 -129q-20 -90 -57 -148.5t-88 -92.5t-117.5 -47t-144.5 -13z" />
<glyph unicode="&#xb6;" horiz-adv-x="1284" d="M76 1106q0 109 38 179.5t104.5 112.5t157.5 59.5t197 17.5h601v-1897h-250v1706h-144v-1706h-248v1172q-221 0 -338.5 95t-117.5 261z" />
<glyph unicode="&#xb7;" horiz-adv-x="581" d="M76 737q0 43 18.5 77t49 57.5t69.5 37t78 13.5t78 -13.5t69.5 -37t49 -57.5t18.5 -77t-18.5 -76.5t-49 -57t-69.5 -37t-78 -13.5t-78 13.5t-69.5 37t-49 57t-18.5 76.5z" />
<glyph unicode="&#xb8;" horiz-adv-x="0" d="M113 -408l61 86q41 -10 79 -24t85 -14q18 0 39.5 4t40 13t32 24.5t19.5 37.5q8 35 -17.5 54.5t-56.5 19.5q-45 0 -90 -22l-39 45l158 184h108l-116 -131q23 8 47 10t47 2q37 0 70.5 -9t57.5 -28.5t34 -50.5t0 -72q-12 -53 -45 -87.5t-76 -56t-91 -31t-91 -9.5 q-78 0 -134.5 15.5t-121.5 39.5z" />
<glyph unicode="&#xb9;" horiz-adv-x="657" d="M203 1284q8 35 20.5 68.5t36 61.5t61 44.5t95.5 16.5h303l-189 -811h-247l139 606h-14q-23 0 -34.5 -17.5t-19.5 -54.5z" />
<glyph unicode="&#xba;" horiz-adv-x="837" d="M165 1038.5q-7 61.5 9 126.5q14 66 49 126.5t88.5 106.5t124 73.5t158.5 27.5t146.5 -27.5t90 -73.5t37.5 -106.5t-8 -126.5q-16 -66 -50 -127t-87 -107t-124 -74t-159 -28t-146 28t-90 74t-39 107.5zM385 1104.5q-2 -31.5 5 -57t27.5 -42t59.5 -16.5t66.5 16.5t48 42 t33 57t18.5 60.5t8 59.5t-6 56.5t-28.5 42t-59.5 16q-37 0 -65.5 -16t-48 -42t-32 -56.5t-18.5 -59.5t-8 -60.5z" />
<glyph unicode="&#xbb;" horiz-adv-x="880" d="M-6 309l65 285l195 143l-131 137l67 291l259 -268l-76 -319zM371 309l65 285l195 143l-131 137l67 291l258 -268l-75 -319z" />
<glyph unicode="&#xbc;" horiz-adv-x="1734" d="M133 0l1127 1475h202l-1128 -1475h-201zM203 1284q8 35 20.5 68.5t36 61.5t61 44.5t95.5 16.5h303l-189 -811h-247l139 606h-14q-23 0 -34.5 -17.5t-19.5 -54.5zM729 184l45 201l467 426h221l-100 -434h14q23 0 34 15.5t20 51.5l143 -82q-8 -33 -20.5 -64.5t-34 -57 t-57.5 -41t-89 -15.5h-53l-43 -184h-238l43 184h-352zM958 377h168l45 194z" />
<glyph unicode="&#xbd;" horiz-adv-x="1716" d="M133 0l1127 1475h202l-1128 -1475h-201zM203 1284q8 35 20.5 68.5t36 61.5t61 44.5t95.5 16.5h303l-189 -811h-247l139 606h-14q-23 0 -34.5 -17.5t-19.5 -54.5zM795 0q14 80 56 141.5t101.5 109.5t129 88t139.5 77q20 10 43.5 23.5t44 29.5t36 34.5t19.5 41.5 q10 45 -7.5 71.5t-64.5 26.5q-68 0 -103.5 -50t-51.5 -126h-217q14 82 51 148.5t91 113.5t124.5 71.5t150.5 24.5q61 0 115.5 -14t93.5 -45t55.5 -80t0.5 -119q-16 -72 -62.5 -127t-106 -98t-124 -79t-119.5 -70h151q35 0 48.5 12t23.5 55l143 -82q-20 -82 -63 -130 t-137 -48h-561z" />
<glyph unicode="&#xbe;" horiz-adv-x="1841" d="M96.5 840.5q-12.5 62.5 16.5 148.5h219q-39 -147 90 -147q49 0 84 23.5t45 70.5q10 45 -13.5 65.5t-70.5 20.5h-35l35 152h35q41 0 76.5 18t46.5 57q8 35 -21 54.5t-65 19.5q-49 0 -88 -30.5t-50 -90.5h-217q18 80 57.5 136.5t93.5 92t118.5 52t132.5 16.5q45 0 96 -12 t91 -39t62.5 -68t8.5 -98q-8 -35 -36 -88t-83 -82q25 -12 39 -34.5t20.5 -49.5t6 -55t-6.5 -53q-16 -68 -57 -116t-96.5 -80t-118.5 -47t-123 -15q-74 0 -136.5 18t-103 58t-53 102.5zM238 0l1126 1475h203l-1129 -1475h-200zM834 184l45 201l469 426h221l-101 -434h13 q25 0 35 15.5t20 51.5l141 -82q-6 -33 -18 -64.5t-34.5 -57t-58.5 -41t-89 -15.5h-54l-43 -184h-237l43 184h-352zM1063 377h168l45 194z" />
<glyph unicode="&#xbf;" horiz-adv-x="1232" d="M-6 244.5q-12 72.5 2 142.5q18 92 56 150.5t86 97.5t102.5 64.5t107.5 54.5q43 23 73 43t50.5 44.5t32.5 54.5t20 71l25 112h338l-27 -112q-8 -37 -20.5 -85t-38 -99.5t-67.5 -100.5t-109 -84q-25 -14 -62 -29.5t-72.5 -37t-64.5 -50t-37 -67.5q-14 -61 18.5 -95 t102.5 -34q45 0 81 16t62.5 45t44 67t23.5 81h379q-27 -98 -80 -191.5t-136 -166.5t-197 -117t-259 -44q-141 0 -232.5 38t-140.5 98.5t-61 133zM557 1313q10 43 37 76.5t62.5 57t77.5 37t81 13.5t75 -13.5t60.5 -37t34.5 -57t2 -76.5q-10 -43 -36.5 -77t-62.5 -58.5 t-78 -37t-81 -12.5t-75 12.5t-60.5 37t-35.5 58.5t-1 77z" />
<glyph unicode="&#xc0;" d="M-59 0l231 999q59 260 222 385t419 125q262 0 364.5 -129t43.5 -381l-232 -999h-399l135 582h-250l-135 -582h-399zM545 893h250l18 76q8 33 14.5 72.5t2 74.5t-24 58.5t-64.5 23.5t-75.5 -23.5t-50 -58.5t-32 -75t-20.5 -72zM588 1870h381l141 -305h-250z" />
<glyph unicode="&#xc1;" d="M-59 0l231 999q59 260 222 385t419 125q262 0 364.5 -129t43.5 -381l-232 -999h-399l135 582h-250l-135 -582h-399zM545 893h250l18 76q8 33 14.5 72.5t2 74.5t-24 58.5t-64.5 23.5t-75.5 -23.5t-50 -58.5t-32 -75t-20.5 -72zM549 1565l282 305h381l-415 -305h-248z" />
<glyph unicode="&#xc2;" d="M-59 0l231 999q59 260 222 385t419 125q262 0 364.5 -129t43.5 -381l-232 -999h-399l135 582h-250l-135 -582h-399zM436 1567l316 303h297l178 -303h-269l-90 168l-163 -168h-269zM545 893h250l18 76q8 33 14.5 72.5t2 74.5t-24 58.5t-64.5 23.5t-75.5 -23.5t-50 -58.5 t-32 -75t-20.5 -72z" />
<glyph unicode="&#xc3;" d="M-59 0l231 999q59 260 222 385t419 125q262 0 364.5 -129t43.5 -381l-232 -999h-399l135 582h-250l-135 -582h-399zM467 1569q8 43 30.5 91t57.5 89t83 67.5t110 26.5q45 0 87 -13t78.5 -29.5t67.5 -30t51 -13.5q35 0 63.5 19.5t51.5 70.5h151q-14 -55 -40.5 -103 t-63.5 -85t-83 -58.5t-99 -21.5q-47 0 -85 12.5t-73 27.5t-67.5 28.5t-65.5 13.5q-35 0 -65.5 -31t-43.5 -61h-145zM545 893h250l18 76q8 33 14.5 72.5t2 74.5t-24 58.5t-64.5 23.5t-75.5 -23.5t-50 -58.5t-32 -75t-20.5 -72z" />
<glyph unicode="&#xc4;" d="M-59 0l231 999q59 260 222 385t419 125q262 0 364.5 -129t43.5 -381l-232 -999h-399l135 582h-250l-135 -582h-399zM399 1702q0 43 18.5 78t49.5 58.5t69.5 36.5t77.5 13t78 -13t70 -36.5t49 -58.5t18 -78t-18 -77t-49 -57.5t-70 -36.5t-78 -13t-77.5 13t-69.5 36.5 t-49.5 57.5t-18.5 77zM545 893h250l18 76q8 33 14.5 72.5t2 74.5t-24 58.5t-64.5 23.5t-75.5 -23.5t-50 -58.5t-32 -75t-20.5 -72zM909 1702q0 43 18.5 78t49.5 58.5t69.5 36.5t77.5 13t78 -13t70 -36.5t49 -58.5t18 -78t-18 -77t-49 -57.5t-70 -36.5t-78 -13t-77.5 13 t-69.5 36.5t-49.5 57.5t-18.5 77z" />
<glyph unicode="&#xc5;" d="M-59 0l231 999q59 260 222 385t419 125q262 0 364.5 -129t43.5 -381l-232 -999h-399l135 582h-250l-135 -582h-399zM545 893h250l18 76q8 33 14.5 72.5t2 74.5t-24 58.5t-64.5 23.5t-75.5 -23.5t-50 -58.5t-32 -75t-20.5 -72zM645 1753q0 45 17.5 86t48 72t71.5 48t86 17 t86 -17t72 -48t48.5 -72t17.5 -86t-17.5 -86t-47.5 -71.5t-71 -49t-88 -18.5t-87 17.5t-70.5 48t-48 71.5t-17.5 88zM758 1753q0 -45 32.5 -79t77.5 -34q47 0 79 35t32 78t-33 77t-78 34q-43 0 -76.5 -33t-33.5 -78z" />
<glyph unicode="&#xc6;" horiz-adv-x="1918" d="M-59 0l231 999q59 260 222 385t419 125q221 0 326 -100l16 66h821l-78 -334h-645q-10 -47 -18 -78t-14.5 -56.5t-12.5 -51t-14 -62.5h580l-72 -311h-578l-59 -248h668l-76 -334h-1067l135 582h-250l-135 -582h-399zM545 893h250l18 76q8 33 14.5 72.5t2 74.5t-24 58.5 t-64.5 23.5t-75.5 -23.5t-50 -58.5t-32 -75t-20.5 -72z" />
<glyph unicode="&#xc7;" horiz-adv-x="1542" d="M54.5 439q-15.5 136 21.5 296q39 168 122 309.5t200.5 245t268 161.5t322.5 58q137 0 242.5 -35.5t175.5 -107.5t98.5 -178.5t10.5 -245.5h-392q10 111 -50 177.5t-171 66.5q-92 0 -163.5 -42t-125 -106.5t-87 -145.5t-52.5 -157q-18 -76 -20 -155.5t20.5 -144 t74.5 -105.5t142 -41q66 0 120 22.5t96 60.5t75 90t55 111h392q-33 -129 -106 -236.5t-173 -186t-220 -127t-245 -56.5l-88 -98q23 8 47.5 10t46.5 2q37 0 71 -9t57.5 -28.5t33.5 -50.5t0 -72q-12 -53 -45 -87.5t-76 -56t-91 -31t-91 -9.5q-78 0 -134.5 15.5t-121.5 39.5 l61 86q41 -10 79 -24t85 -14q18 0 40 4t40 13t31.5 24.5t19.5 37.5q8 35 -17.5 54.5t-55.5 19.5q-45 0 -91 -22l-38 45l129 151q-158 8 -269.5 70.5t-175 164t-79 237.5z" />
<glyph unicode="&#xc8;" d="M-59 0l340 1475h1046l-78 -334h-645l-59 -248h579l-71 -311h-578l-59 -248h667l-75 -334h-1067zM567 1870h381l139 -305h-247z" />
<glyph unicode="&#xc9;" horiz-adv-x="1388" d="M-59 0l340 1475h1046l-78 -334h-645l-59 -248h579l-71 -311h-578l-59 -248h667l-75 -334h-1067zM584 1565l282 305h381l-416 -305h-247z" />
<glyph unicode="&#xca;" d="M-59 0l340 1475h1046l-78 -334h-645l-59 -248h579l-71 -311h-578l-59 -248h667l-75 -334h-1067zM438 1567l316 303h297l178 -303h-268l-91 168l-163 -168h-269z" />
<glyph unicode="&#xcb;" d="M-59 0l340 1475h1046l-78 -334h-645l-59 -248h579l-71 -311h-578l-59 -248h667l-75 -334h-1067zM385 1702q0 43 18.5 78t49 58.5t68.5 36.5t77 13t78 -13t69.5 -36.5t49 -58.5t18.5 -78t-18.5 -77t-49 -57.5t-69.5 -36.5t-78 -13t-77 13t-68.5 36.5t-49 57.5t-18.5 77z M893 1702q0 43 18.5 78t49 58.5t69.5 36.5t78 13t78 -13t69.5 -36.5t49 -58.5t18.5 -78t-18.5 -77t-49 -57.5t-69.5 -36.5t-78 -13t-78 13t-69.5 36.5t-49 57.5t-18.5 77z" />
<glyph unicode="&#xcc;" horiz-adv-x="620" d="M-59 0l340 1475h399l-340 -1475h-399zM260 1870h381l139 -305h-248z" />
<glyph unicode="&#xcd;" horiz-adv-x="620" d="M-59 0l340 1475h399l-340 -1475h-399zM229 1565l281 305h383l-416 -305h-248z" />
<glyph unicode="&#xce;" horiz-adv-x="620" d="M-59 0l340 1475h399l-340 -1475h-399zM113 1567l315 303h297l178 -303h-268l-90 168l-164 -168h-268z" />
<glyph unicode="&#xcf;" horiz-adv-x="620" d="M-59 0l340 1475h399l-340 -1475h-399zM78 1702q0 43 18.5 78t49 58.5t68.5 36.5t77 13t78 -13t69.5 -36.5t49 -58.5t18.5 -78t-18.5 -77t-49 -57.5t-69.5 -36.5t-78 -13t-77 13t-68.5 36.5t-49 57.5t-18.5 77zM586 1702q0 43 18.5 78t49 58.5t69.5 36.5t78 13t78 -13 t69.5 -36.5t49 -58.5t18.5 -78t-18.5 -77t-49 -57.5t-69.5 -36.5t-78 -13t-78 13t-69.5 36.5t-49 57.5t-18.5 77z" />
<glyph unicode="&#xd0;" horiz-adv-x="1421" d="M-59 0l149 647h-110l51 225h110l140 603h581q168 0 277.5 -56.5t168 -156t68 -233.5t-27.5 -290q-84 -356 -318.5 -547.5t-593.5 -191.5h-495zM416 334h78q94 0 169.5 31.5t132 87t94.5 130t58 162.5v-2q41 184 -30.5 291t-262.5 107h-51l-63 -269h243l-51 -223h-244z " />
<glyph unicode="&#xd1;" d="M-59 0l231 999q59 260 222 385t419 125q262 0 364.5 -129t43.5 -381l-232 -999h-399l223 969q8 33 14.5 72.5t2 74.5t-24 58.5t-64.5 23.5t-75.5 -23.5t-50 -58.5t-32 -75t-20.5 -72l-223 -969h-399zM469 1569q8 43 30.5 91t58.5 89t83 67.5t109 26.5q45 0 87 -13 t78.5 -29.5t67.5 -30t51 -13.5q35 0 63.5 19.5t51.5 70.5h151q-14 -55 -40.5 -103t-63.5 -85t-83 -58.5t-99 -21.5q-47 0 -85 12.5t-73 27.5t-67.5 28.5t-65.5 13.5q-35 0 -65.5 -31t-43.5 -61h-145z" />
<glyph unicode="&#xd2;" horiz-adv-x="1617" d="M57.5 432q-18.5 141 18.5 305t121 305.5t203.5 245t269 162.5t317.5 59t290 -59t193.5 -162.5t90 -245t-18.5 -305.5t-121 -305t-203.5 -244.5t-269 -163t-317.5 -59.5q-170 0 -292 59.5t-192.5 163t-89 244.5zM456 579.5q-1 -79.5 23.5 -144t78.5 -105.5t147 -41 q92 0 164.5 41t128 105.5t91.5 144t54 157.5t18 158t-24.5 144.5t-78.5 105.5t-147 41q-92 0 -164.5 -41t-127 -105.5t-90 -144.5t-54.5 -158q-18 -78 -19 -157.5zM674 1870h379l141 -305h-250z" />
<glyph unicode="&#xd3;" horiz-adv-x="1617" d="M57.5 432q-18.5 141 18.5 305t121 305.5t203.5 245t269 162.5t317.5 59t290 -59t193.5 -162.5t90 -245t-18.5 -305.5t-121 -305t-203.5 -244.5t-269 -163t-317.5 -59.5q-170 0 -292 59.5t-192.5 163t-89 244.5zM456 579.5q-1 -79.5 23.5 -144t78.5 -105.5t147 -41 q92 0 164.5 41t128 105.5t91.5 144t54 157.5t18 158t-24.5 144.5t-78.5 105.5t-147 41q-92 0 -164.5 -41t-127 -105.5t-90 -144.5t-54.5 -158q-18 -78 -19 -157.5zM727 1565l281 305h383l-416 -305h-248z" />
<glyph unicode="&#xd4;" horiz-adv-x="1617" d="M57.5 432q-18.5 141 18.5 305t121 305.5t203.5 245t269 162.5t317.5 59t290 -59t193.5 -162.5t90 -245t-18.5 -305.5t-121 -305t-203.5 -244.5t-269 -163t-317.5 -59.5q-170 0 -292 59.5t-192.5 163t-89 244.5zM456 579.5q-1 -79.5 23.5 -144t78.5 -105.5t147 -41 q92 0 164.5 41t128 105.5t91.5 144t54 157.5t18 158t-24.5 144.5t-78.5 105.5t-147 41q-92 0 -164.5 -41t-127 -105.5t-90 -144.5t-54.5 -158q-18 -78 -19 -157.5zM602 1567l316 303h299l176 -303h-269l-90 168l-164 -168h-268z" />
<glyph unicode="&#xd5;" horiz-adv-x="1617" d="M57.5 432q-18.5 141 18.5 305t121 305.5t203.5 245t269 162.5t317.5 59t290 -59t193.5 -162.5t90 -245t-18.5 -305.5t-121 -305t-203.5 -244.5t-269 -163t-317.5 -59.5q-170 0 -292 59.5t-192.5 163t-89 244.5zM456 579.5q-1 -79.5 23.5 -144t78.5 -105.5t147 -41 q92 0 164.5 41t128 105.5t91.5 144t54 157.5t18 158t-24.5 144.5t-78.5 105.5t-147 41q-92 0 -164.5 -41t-127 -105.5t-90 -144.5t-54.5 -158q-18 -78 -19 -157.5zM651 1569q8 43 31 91t58.5 89t82.5 67.5t109 26.5q45 0 88 -13t80 -29.5t66.5 -30t50.5 -13.5 q35 0 63.5 19.5t50.5 70.5h152q-14 -55 -41 -103t-63 -85t-82 -58.5t-101 -21.5q-47 0 -85 12.5t-72.5 27.5t-67.5 28.5t-66 13.5q-35 0 -64.5 -31t-43.5 -61h-146z" />
<glyph unicode="&#xd6;" horiz-adv-x="1617" d="M57.5 432q-18.5 141 18.5 305t121 305.5t203.5 245t269 162.5t317.5 59t290 -59t193.5 -162.5t90 -245t-18.5 -305.5t-121 -305t-203.5 -244.5t-269 -163t-317.5 -59.5q-170 0 -292 59.5t-192.5 163t-89 244.5zM456 579.5q-1 -79.5 23.5 -144t78.5 -105.5t147 -41 q92 0 164.5 41t128 105.5t91.5 144t54 157.5t18 158t-24.5 144.5t-78.5 105.5t-147 41q-92 0 -164.5 -41t-127 -105.5t-90 -144.5t-54.5 -158q-18 -78 -19 -157.5zM549 1702q0 43 18.5 78t49 58.5t69.5 36.5t78 13t78 -13t69.5 -36.5t49 -58.5t18.5 -78t-18.5 -77t-49 -57.5 t-69.5 -36.5t-78 -13t-78 13t-69.5 36.5t-49 57.5t-18.5 77zM1059 1702q0 43 18.5 78t49 58.5t69.5 36.5t78 13t78 -13t69.5 -36.5t49 -58.5t18.5 -78t-18.5 -77t-49 -57.5t-69.5 -36.5t-78 -13t-78 13t-69.5 36.5t-49 57.5t-18.5 77z" />
<glyph unicode="&#xd7;" horiz-adv-x="997" d="M0 436l301 301l-301 301l197 197l301 -301l301 303l198 -197l-303 -303l303 -301l-198 -196l-301 301l-301 -301z" />
<glyph unicode="&#xd8;" horiz-adv-x="1617" d="M-80 12l215 191q-66 102 -82 235t21 293q37 166 122 306.5t204.5 242.5t269 159.5t315.5 57.5q143 0 253 -43t183 -123l209 182l68 -73l-213 -187q61 -100 76.5 -232t-21.5 -290q-39 -166 -123 -306t-203.5 -242.5t-268 -160t-314.5 -57.5q-141 0 -250 41t-180 117 l-215 -189zM456 599q-1 -60 9 -107l653 575q-39 59 -94 83t-115 24q-55 0 -119.5 -22t-125 -73t-111.5 -136t-80 -212q-16 -72 -17 -132zM502 389q37 -55 91 -77.5t112 -22.5q55 0 119.5 21.5t125 72.5t111.5 136t80 212q16 70 18 126t-8 104z" />
<glyph unicode="&#xd9;" d="M51 475l230 1000h399l-223 -969q-8 -33 -14.5 -73t-2.5 -74.5t23.5 -58.5t64.5 -24t76 24t50.5 58.5t31.5 74.5t21 73l223 969h399l-229 -1000q-59 -260 -223 -385t-420 -125q-262 0 -362.5 129t-43.5 381zM584 1870h379l141 -305h-248z" />
<glyph unicode="&#xda;" d="M51 475l230 1000h399l-223 -969q-8 -33 -14.5 -73t-2.5 -74.5t23.5 -58.5t64.5 -24t76 24t50.5 58.5t31.5 74.5t21 73l223 969h399l-229 -1000q-59 -260 -223 -385t-420 -125q-262 0 -362.5 129t-43.5 381zM569 1565l283 305h381l-416 -305h-248z" />
<glyph unicode="&#xdb;" d="M51 475l230 1000h399l-223 -969q-8 -33 -14.5 -73t-2.5 -74.5t23.5 -58.5t64.5 -24t76 24t50.5 58.5t31.5 74.5t21 73l223 969h399l-229 -1000q-59 -260 -223 -385t-420 -125q-262 0 -362.5 129t-43.5 381zM424 1567l315 303h299l176 -303h-268l-90 168l-164 -168h-268z " />
<glyph unicode="&#xdc;" d="M51 475l230 1000h399l-223 -969q-8 -33 -14.5 -73t-2.5 -74.5t23.5 -58.5t64.5 -24t76 24t50.5 58.5t31.5 74.5t21 73l223 969h399l-229 -1000q-59 -260 -223 -385t-420 -125q-262 0 -362.5 129t-43.5 381zM383 1702q0 43 18.5 78t49 58.5t69.5 36.5t78 13t77 -13 t68.5 -36.5t49 -58.5t18.5 -78t-18.5 -77t-49 -57.5t-68.5 -36.5t-77 -13t-78 13t-69.5 36.5t-49 57.5t-18.5 77zM893 1702q0 43 18.5 78t49 58.5t68.5 36.5t77 13t78 -13t69.5 -36.5t49 -58.5t18.5 -78t-18.5 -77t-49 -57.5t-69.5 -36.5t-78 -13t-77 13t-68.5 36.5 t-49 57.5t-18.5 77z" />
<glyph unicode="&#xdd;" d="M193 1092l88 383h399l-82 -353q-8 -33 -14 -72.5t-2 -74.5t23.5 -58.5t64.5 -23.5t75.5 23.5t51 58.5t32 75t19.5 72l82 353h399l-88 -383q-47 -203 -157.5 -323t-278.5 -161l-141 -608h-400l142 608q-303 86 -213 484zM553 1571l283 303h381l-416 -303h-248z" />
<glyph unicode="&#xde;" horiz-adv-x="1277" d="M-59 0l340 1475h399l-41 -183h166q143 0 232 -46t135.5 -116.5t54.5 -157.5t-10 -167q-29 -129 -92.5 -223.5t-152.5 -157t-198.5 -93t-232.5 -30.5h-131l-70 -301h-399zM481 610h54q49 0 97 6.5t89 24.5t71 54.5t44 95.5q12 55 0.5 87.5t-39 50t-69.5 23.5t-91 6h-76z " />
<glyph unicode="&#xdf;" horiz-adv-x="1294" d="M-221 -154q72 0 106.5 33t53.5 111l229 993q29 123 86 220t139 165t186.5 103.5t227.5 35.5q88 0 174 -22.5t148.5 -70.5t91 -121.5t4.5 -176.5q-25 -109 -87.5 -180.5t-166.5 -120.5q63 -8 105 -45t63.5 -89t23.5 -114t-12 -121q-25 -104 -79 -188t-130 -144.5t-170 -92 t-197 -31.5q-43 0 -86 2t-83 10l63 277q41 -10 78 -11q94 0 161.5 60.5t90.5 152.5q14 63 4 105.5t-39 67t-74 34.5t-98 10h-27l47 203h21q41 0 80 6t71.5 24.5t56 50.5t36.5 81q18 78 -18 118t-109 40q-94 0 -144.5 -59.5t-70.5 -145.5l-265 -1147q-25 -102 -68.5 -161.5 t-99 -90.5t-117 -40t-122.5 -9z" />
<glyph unicode="&#xe0;" horiz-adv-x="1423" d="M17.5 304.5q-19.5 101.5 9.5 221.5q29 123 95 226.5t158.5 177.5t205 115.5t235.5 41.5q86 0 160.5 -20t132.5 -63l14 57h361l-156 -674q-14 -57 6.5 -88t91.5 -31l-213 -278q-104 0 -168.5 25.5t-91.5 86.5q-51 -35 -97 -58.5t-94.5 -39.5t-98.5 -23.5t-107 -7.5 q-121 0 -214 41t-151.5 115t-78 175.5zM387 526q-33 -139 14.5 -213.5t192.5 -74.5q39 0 84 11t87 33.5t72.5 56.5t41.5 77l59 252q8 37 -10.5 66.5t-51 50t-71.5 30.5t-72 10q-150 0 -230.5 -77.5t-115.5 -221.5zM487 1468h381l142 -303l-250 -2z" />
<glyph unicode="&#xe1;" horiz-adv-x="1423" d="M17.5 304.5q-19.5 101.5 9.5 221.5q29 123 95 226.5t158.5 177.5t205 115.5t235.5 41.5q86 0 160.5 -20t132.5 -63l14 57h361l-156 -674q-14 -57 6.5 -88t91.5 -31l-213 -278q-104 0 -168.5 25.5t-91.5 86.5q-51 -35 -97 -58.5t-94.5 -39.5t-98.5 -23.5t-107 -7.5 q-121 0 -214 41t-151.5 115t-78 175.5zM387 526q-33 -139 14.5 -213.5t192.5 -74.5q39 0 84 11t87 33.5t72.5 56.5t41.5 77l59 252q8 37 -10.5 66.5t-51 50t-71.5 30.5t-72 10q-150 0 -230.5 -77.5t-115.5 -221.5zM510 1163l281 305h383l-416 -305h-248z" />
<glyph unicode="&#xe2;" horiz-adv-x="1423" d="M17.5 304.5q-19.5 101.5 9.5 221.5q29 123 95 226.5t158.5 177.5t205 115.5t235.5 41.5q86 0 160.5 -20t132.5 -63l14 57h361l-156 -674q-14 -57 6.5 -88t91.5 -31l-213 -278q-104 0 -168.5 25.5t-91.5 86.5q-51 -35 -97 -58.5t-94.5 -39.5t-98.5 -23.5t-107 -7.5 q-121 0 -214 41t-151.5 115t-78 175.5zM358 1165l316 303h297l178 -303h-268l-90 168l-164 -168h-269zM387 526q-33 -139 14.5 -213.5t192.5 -74.5q39 0 84 11t87 33.5t72.5 56.5t41.5 77l59 252q8 37 -10.5 66.5t-51 50t-71.5 30.5t-72 10q-150 0 -230.5 -77.5 t-115.5 -221.5z" />
<glyph unicode="&#xe3;" horiz-adv-x="1423" d="M17.5 304.5q-19.5 101.5 9.5 221.5q29 123 95 226.5t158.5 177.5t205 115.5t235.5 41.5q86 0 160.5 -20t132.5 -63l14 57h361l-156 -674q-14 -57 6.5 -88t91.5 -31l-213 -278q-104 0 -168.5 25.5t-91.5 86.5q-51 -35 -97 -58.5t-94.5 -39.5t-98.5 -23.5t-107 -7.5 q-121 0 -214 41t-151.5 115t-78 175.5zM387 526q-33 -139 14.5 -213.5t192.5 -74.5q39 0 84 11t87 33.5t72.5 56.5t41.5 77l59 252q8 37 -10.5 66.5t-51 50t-71.5 30.5t-72 10q-150 0 -230.5 -77.5t-115.5 -221.5zM442 1167q8 43 31 92.5t58.5 90.5t83 67.5t108.5 26.5 q45 0 88 -13.5t80 -31t67.5 -30.5t51.5 -13q35 0 63.5 19.5t48.5 72.5h154q-16 -55 -42 -104.5t-62.5 -85t-83 -57t-101.5 -21.5q-47 0 -85 12t-72.5 27.5t-67.5 28t-66 12.5q-35 0 -64.5 -31t-41.5 -62h-148z" />
<glyph unicode="&#xe4;" horiz-adv-x="1423" d="M17.5 304.5q-19.5 101.5 9.5 221.5q29 123 95 226.5t158.5 177.5t205 115.5t235.5 41.5q86 0 160.5 -20t132.5 -63l14 57h361l-156 -674q-14 -57 6.5 -88t91.5 -31l-213 -278q-104 0 -168.5 25.5t-91.5 86.5q-51 -35 -97 -58.5t-94.5 -39.5t-98.5 -23.5t-107 -7.5 q-121 0 -214 41t-151.5 115t-78 175.5zM379 1303q0 43 18.5 76.5t49 57t69.5 37t78 13.5t78 -13.5t69.5 -37t49 -57t18.5 -76.5t-18.5 -77t-49 -58.5t-69.5 -37t-78 -12.5t-78 12.5t-69.5 37t-49 58.5t-18.5 77zM387 526q-33 -139 14.5 -213.5t192.5 -74.5q39 0 84 11 t87 33.5t72.5 56.5t41.5 77l59 252q8 37 -10.5 66.5t-51 50t-71.5 30.5t-72 10q-150 0 -230.5 -77.5t-115.5 -221.5zM889 1303q0 43 18.5 76.5t49 57t69.5 37t78 13.5t78 -13.5t69.5 -37t49 -57t18.5 -76.5t-18.5 -77t-49 -58.5t-69.5 -37t-78 -12.5t-78 12.5t-69.5 37 t-49 58.5t-18.5 77z" />
<glyph unicode="&#xe5;" horiz-adv-x="1423" d="M17.5 304.5q-19.5 101.5 9.5 221.5q29 123 95 226.5t158.5 177.5t205 115.5t235.5 41.5q86 0 160.5 -20t132.5 -63l14 57h361l-156 -674q-14 -57 6.5 -88t91.5 -31l-213 -278q-104 0 -168.5 25.5t-91.5 86.5q-51 -35 -97 -58.5t-94.5 -39.5t-98.5 -23.5t-107 -7.5 q-121 0 -214 41t-151.5 115t-78 175.5zM387 526q-33 -139 14.5 -213.5t192.5 -74.5q39 0 84 11t87 33.5t72.5 56.5t41.5 77l59 252q8 37 -10.5 66.5t-51 50t-71.5 30.5t-72 10q-150 0 -230.5 -77.5t-115.5 -221.5zM561 1364q0 45 18.5 86t49 71.5t71.5 48t86 17.5t86 -17.5 t72 -48t48.5 -71.5t17.5 -86t-17.5 -86t-48.5 -71.5t-72 -49t-86 -18.5q-47 0 -88 17.5t-71.5 48t-48 71.5t-17.5 88zM674 1364q0 -45 33.5 -79t78.5 -34t78 35t33 78t-34 77t-77 34t-77.5 -33t-34.5 -78z" />
<glyph unicode="&#xe6;" horiz-adv-x="2121" d="M18.5 301q-20.5 102 8.5 225q29 125 96 228.5t159.5 177.5t205 114.5t233.5 40.5q90 0 165 -21.5t128 -61.5l14 57h270l-16 -66q70 43 149.5 67.5t167.5 24.5q98 0 184.5 -25.5t147 -76.5t88 -130t13.5 -185l-785 -264q-2 -72 33 -120t127 -48q78 0 138.5 52t84.5 126 h342q-39 -106 -103.5 -189.5t-147.5 -139.5t-180 -85t-202 -29q-86 0 -154.5 25t-117.5 65l-14 -63h-271l17 68q-152 -94 -338 -95q-119 0 -212 40t-151.5 113t-79 175zM387 526q-31 -139 14 -213.5t193 -74.5q37 0 83 11t87 33.5t72.5 56.5t42.5 77l59 252q8 37 -10.5 66.5 t-51 50t-72.5 30.5t-71 10q-76 0 -133 -20.5t-99 -59t-70 -94t-44 -125.5zM1290 612l389 129q-27 84 -133 84q-102 0 -162.5 -58t-89.5 -140q0 -2 -1 -3t-1 -6q-2 -4 -2 -6z" />
<glyph unicode="&#xe7;" horiz-adv-x="1245" d="M16.5 314.5q-16.5 97.5 10.5 211.5q29 123 95 226.5t158.5 177.5t205 115.5t235.5 41.5q100 0 185 -25.5t145.5 -76.5t88 -131t13.5 -186h-342q10 76 -30 116.5t-113 40.5q-66 0 -114 -26.5t-81 -68.5t-53.5 -95t-32.5 -109q-12 -53 -16 -104t10 -92t48 -66.5t99 -25.5 q78 0 139.5 52t84.5 126h344q-37 -98 -95.5 -177t-134 -134.5t-164 -88t-184.5 -41.5l-96 -106q23 8 47.5 10t46.5 2q37 0 71 -9t57.5 -28.5t33.5 -50.5t0 -72q-12 -53 -45 -87.5t-76 -56t-91 -31t-91 -9.5q-78 0 -134.5 15.5t-121.5 39.5l61 86q41 -10 79 -24t85 -14 q18 0 40 4t40 13t31.5 24.5t19.5 37.5q8 35 -17.5 54.5t-56.5 19.5q-45 0 -90 -22l-39 45l136 159q-109 8 -192 53.5t-133 117t-66.5 169z" />
<glyph unicode="&#xe8;" horiz-adv-x="1144" d="M17.5 304.5q-19.5 101.5 9.5 221.5q29 123 95 226.5t158.5 177.5t205 115.5t235.5 41.5q100 0 185 -25.5t145.5 -76.5t88 -130t13.5 -185l-782 -264q-2 -72 32.5 -120t124.5 -48q78 0 139.5 52t84.5 126h344q-39 -106 -103.5 -189.5t-147.5 -139.5t-181.5 -85t-202.5 -29 q-121 0 -214 41t-151.5 115t-78 175.5zM414 612l389 129q-27 84 -135 84q-100 0 -161 -58t-89 -140q-4 -12 -4 -15zM471 1468h379l141 -303l-250 -2z" />
<glyph unicode="&#xe9;" horiz-adv-x="1144" d="M17.5 304.5q-19.5 101.5 9.5 221.5q29 123 95 226.5t158.5 177.5t205 115.5t235.5 41.5q100 0 185 -25.5t145.5 -76.5t88 -130t13.5 -185l-782 -264q-2 -72 32.5 -120t124.5 -48q78 0 139.5 52t84.5 126h344q-39 -106 -103.5 -189.5t-147.5 -139.5t-181.5 -85t-202.5 -29 q-121 0 -214 41t-151.5 115t-78 175.5zM414 612l389 129q-27 84 -135 84q-100 0 -161 -58t-89 -140q-4 -12 -4 -15zM438 1163l283 305h381l-416 -305h-248z" />
<glyph unicode="&#xea;" horiz-adv-x="1144" d="M17.5 304.5q-19.5 101.5 9.5 221.5q29 123 95 226.5t158.5 177.5t205 115.5t235.5 41.5q100 0 185 -25.5t145.5 -76.5t88 -130t13.5 -185l-782 -264q-2 -72 32.5 -120t124.5 -48q78 0 139.5 52t84.5 126h344q-39 -106 -103.5 -189.5t-147.5 -139.5t-181.5 -85t-202.5 -29 q-121 0 -214 41t-151.5 115t-78 175.5zM340 1165l315 303h299l179 -303h-271l-88 168l-166 -168h-268zM414 612l389 129q-27 84 -135 84q-100 0 -161 -58t-89 -140q-4 -12 -4 -15z" />
<glyph unicode="&#xeb;" horiz-adv-x="1144" d="M17.5 304.5q-19.5 101.5 9.5 221.5q29 123 95 226.5t158.5 177.5t205 115.5t235.5 41.5q100 0 185 -25.5t145.5 -76.5t88 -130t13.5 -185l-782 -264q-2 -72 32.5 -120t124.5 -48q78 0 139.5 52t84.5 126h344q-39 -106 -103.5 -189.5t-147.5 -139.5t-181.5 -85t-202.5 -29 q-121 0 -214 41t-151.5 115t-78 175.5zM305 1303q0 43 18.5 76.5t49 57t69.5 37t78 13.5t78 -13.5t69.5 -37t49 -57t18.5 -76.5t-18.5 -77t-49 -58.5t-69.5 -37t-78 -12.5t-78 12.5t-69.5 37t-49 58.5t-18.5 77zM414 612l389 129q-27 84 -135 84q-100 0 -161 -58t-89 -140 q-4 -12 -4 -15zM815 1303q0 43 18.5 76.5t49 57t69.5 37t78 13.5t78 -13.5t69.5 -37t49 -57t18.5 -76.5t-18.5 -77t-49 -58.5t-69.5 -37t-78 -12.5t-78 12.5t-69.5 37t-49 58.5t-18.5 77z" />
<glyph unicode="&#xec;" horiz-adv-x="581" d="M-4 793l213 280q61 0 119.5 -9t99.5 -40t57.5 -91.5t-8.5 -162.5l-82 -356q-18 -80 1.5 -113t92.5 -33l-213 -278q-61 0 -118.5 9t-98.5 40t-57 90t6 162l82 358q18 80 -1 112t-93 32zM154 1468h381l141 -303l-250 -2z" />
<glyph unicode="&#xed;" horiz-adv-x="581" d="M-4 793l213 280q61 0 119.5 -9t99.5 -40t57.5 -91.5t-8.5 -162.5l-82 -356q-18 -80 1.5 -113t92.5 -33l-213 -278q-61 0 -118.5 9t-98.5 40t-57 90t6 162l82 358q18 80 -1 112t-93 32zM104 1163l283 305h381l-416 -305h-248z" />
<glyph unicode="&#xee;" horiz-adv-x="581" d="M-4 793l213 280q61 0 119.5 -9t99.5 -40t57.5 -91.5t-8.5 -162.5l-82 -356q-18 -80 1.5 -113t92.5 -33l-213 -278q-61 0 -118.5 9t-98.5 40t-57 90t6 162l82 358q18 80 -1 112t-93 32zM4 1165l315 303h297l179 -303h-269l-90 168l-164 -168h-268z" />
<glyph unicode="&#xef;" horiz-adv-x="581" d="M-31 1303q0 43 18.5 76.5t49.5 57t69.5 37t77.5 13.5t77 -13.5t68.5 -37t49 -57t18.5 -76.5t-18.5 -77t-49 -58.5t-68.5 -37t-77 -12.5t-77.5 12.5t-69.5 37t-49.5 58.5t-18.5 77zM-4 793l213 280q61 0 119.5 -9t99.5 -40t57.5 -91.5t-8.5 -162.5l-82 -356 q-18 -80 1.5 -113t92.5 -33l-213 -278q-61 0 -118.5 9t-98.5 40t-57 90t6 162l82 358q18 80 -1 112t-93 32zM479 1303q0 43 18.5 76.5t49.5 57t68.5 37t76.5 13.5t78 -13.5t69.5 -37t49 -57t18.5 -76.5t-18.5 -77t-49 -58.5t-69.5 -37t-78 -12.5t-76.5 12.5t-68.5 37 t-49.5 58.5t-18.5 77z" />
<glyph unicode="&#xf0;" horiz-adv-x="1284" d="M10.5 276.5q-18.5 100.5 12.5 231.5q27 111 84 204t138 160.5t181 105.5t213 38q53 0 106.5 -11.5t88.5 -37.5q-23 53 -60 99t-78 87l-157 -76l-101 144l121 59q-14 18 -29.5 35.5t-33.5 32.5l292 151q2 -2 15.5 -13t29 -23.5t27.5 -24t14 -13.5l140 70l106 -141 l-119 -60q117 -137 169.5 -314t5.5 -382q-31 -137 -92.5 -252t-150.5 -197.5t-207 -129t-261 -46.5q-127 0 -223.5 34t-154.5 101.5t-76.5 168zM372 414q-1 -49 12 -88t47 -63.5t93 -24.5t105.5 24.5t79 63.5t54.5 88t34 100t13 100.5t-14.5 87t-50 60t-94.5 22.5 q-59 0 -103 -22.5t-77 -60t-53.5 -87t-32.5 -100.5t-13 -100z" />
<glyph unicode="&#xf1;" horiz-adv-x="1288" d="M-59 0l149 649q18 78 0 112t-94 32l213 280q129 0 198.5 -41t79.5 -135q84 104 184.5 147t221.5 43q82 0 143.5 -25.5t99.5 -72.5t48 -114.5t-8 -149.5l-58 -252q-10 -43 -18 -80t-3 -65.5t27.5 -44t71.5 -15.5l-211 -278q-80 0 -139.5 13t-96 47t-47 92.5t12.5 148.5 l57 244q10 45 18.5 92t2 86t-33 63.5t-85.5 24.5q-51 0 -92 -19.5t-71 -52.5t-50.5 -76t-30.5 -88l-129 -565h-360zM365 1167q8 43 30.5 92.5t58 90.5t83 67.5t108.5 26.5q45 0 87 -13.5t79 -31t67.5 -30.5t51.5 -13q35 0 63.5 19.5t50.5 72.5h152q-14 -55 -41 -104.5 t-62.5 -85t-81.5 -57t-102 -21.5q-47 0 -85 12t-72.5 27.5t-67.5 28t-66 12.5q-35 0 -64.5 -31t-43.5 -62h-145z" />
<glyph unicode="&#xf2;" horiz-adv-x="1284" d="M14.5 320.5q-10.5 101.5 14.5 211.5q25 111 82 211.5t145 177t205 121.5t262 45t241.5 -45t148.5 -121.5t62.5 -177t-14.5 -211.5t-82 -212t-145 -177.5t-206 -123t-263 -46.5t-240.5 46.5t-147.5 123t-62.5 178zM374 431q-3 -52 9 -95t46 -70.5t97 -27.5t110.5 27.5 t79.5 70.5t52.5 95t32.5 101t15 101.5t-9 94.5t-46 69.5t-97 27.5t-110.5 -27.5t-80.5 -69.5t-53.5 -94t-30.5 -102q-12 -49 -15 -101zM485 1468h381l142 -303l-250 -2z" />
<glyph unicode="&#xf3;" horiz-adv-x="1284" d="M14.5 320.5q-10.5 101.5 14.5 211.5q25 111 82 211.5t145 177t205 121.5t262 45t241.5 -45t148.5 -121.5t62.5 -177t-14.5 -211.5t-82 -212t-145 -177.5t-206 -123t-263 -46.5t-240.5 46.5t-147.5 123t-62.5 178zM374 431q-3 -52 9 -95t46 -70.5t97 -27.5t110.5 27.5 t79.5 70.5t52.5 95t32.5 101t15 101.5t-9 94.5t-46 69.5t-97 27.5t-110.5 -27.5t-80.5 -69.5t-53.5 -94t-30.5 -102q-12 -49 -15 -101zM477 1163l281 305h383l-416 -305h-248z" />
<glyph unicode="&#xf4;" horiz-adv-x="1284" d="M14.5 320.5q-10.5 101.5 14.5 211.5q25 111 82 211.5t145 177t205 121.5t262 45t241.5 -45t148.5 -121.5t62.5 -177t-14.5 -211.5t-82 -212t-145 -177.5t-206 -123t-263 -46.5t-240.5 46.5t-147.5 123t-62.5 178zM338 1165l315 303h297l178 -303h-268l-90 168l-164 -168 h-268zM374 431q-3 -52 9 -95t46 -70.5t97 -27.5t110.5 27.5t79.5 70.5t52.5 95t32.5 101t15 101.5t-9 94.5t-46 69.5t-97 27.5t-110.5 -27.5t-80.5 -69.5t-53.5 -94t-30.5 -102q-12 -49 -15 -101z" />
<glyph unicode="&#xf5;" horiz-adv-x="1284" d="M14.5 320.5q-10.5 101.5 14.5 211.5q25 111 82 211.5t145 177t205 121.5t262 45t241.5 -45t148.5 -121.5t62.5 -177t-14.5 -211.5t-82 -212t-145 -177.5t-206 -123t-263 -46.5t-240.5 46.5t-147.5 123t-62.5 178zM348 1167q8 43 30.5 92.5t58.5 90.5t83 67.5t109 26.5 q45 0 88 -13.5t80 -31t67.5 -30.5t50.5 -13q35 0 64 19.5t49 72.5h154q-16 -55 -42 -104.5t-63 -85t-83 -57t-101 -21.5q-47 0 -85 12t-73 27.5t-67.5 28t-65.5 12.5q-35 0 -64.5 -31t-41.5 -62h-148zM374 431q-3 -52 9 -95t46 -70.5t97 -27.5t110.5 27.5t79.5 70.5t52.5 95 t32.5 101t15 101.5t-9 94.5t-46 69.5t-97 27.5t-110.5 -27.5t-80.5 -69.5t-53.5 -94t-30.5 -102q-12 -49 -15 -101z" />
<glyph unicode="&#xf6;" horiz-adv-x="1284" d="M14.5 320.5q-10.5 101.5 14.5 211.5q25 111 82 211.5t145 177t205 121.5t262 45t241.5 -45t148.5 -121.5t62.5 -177t-14.5 -211.5t-82 -212t-145 -177.5t-206 -123t-263 -46.5t-240.5 46.5t-147.5 123t-62.5 178zM303 1303q0 43 18.5 76.5t49 57t69.5 37t78 13.5 t77 -13.5t68.5 -37t49 -57t18.5 -76.5t-18.5 -77t-49 -58.5t-68.5 -37t-77 -12.5t-78 12.5t-69.5 37t-49 58.5t-18.5 77zM374 431q-3 -52 9 -95t46 -70.5t97 -27.5t110.5 27.5t79.5 70.5t52.5 95t32.5 101t15 101.5t-9 94.5t-46 69.5t-97 27.5t-110.5 -27.5t-80.5 -69.5 t-53.5 -94t-30.5 -102q-12 -49 -15 -101zM813 1303q0 43 18.5 76.5t49 57t68.5 37t77 13.5t78 -13.5t69.5 -37t49 -57t18.5 -76.5t-18.5 -77t-49 -58.5t-69.5 -37t-78 -12.5t-77 12.5t-68.5 37t-49 58.5t-18.5 77z" />
<glyph unicode="&#xf7;" horiz-adv-x="1218" d="M92 598v279h1034v-279h-1034zM418 313q0 80 56 135.5t136 55.5t135.5 -55.5t55.5 -135.5t-54.5 -137t-136.5 -57q-41 0 -75.5 15.5t-61.5 42t-41 61t-14 75.5zM418 1161q0 39 15.5 75t41 62.5t60 42t75.5 15.5q39 0 74 -15.5t61.5 -42t41 -62.5t14.5 -75 q0 -80 -54.5 -135t-136.5 -55t-137 55t-55 135z" />
<glyph unicode="&#xf8;" horiz-adv-x="1284" d="M-49 2l139 125q-61 78 -75.5 183.5t14.5 221.5q25 111 82 211.5t145 177t205 121.5t262 45q109 0 187.5 -25.5t136.5 -72.5l127 117l53 -59l-125 -113q59 -78 72.5 -181.5t-13.5 -220.5q-25 -111 -82 -212t-145 -177.5t-206 -123t-263 -46.5q-104 0 -183 26t-135 71 l-143 -131zM377 387l416 373q-16 29 -48 47t-81 18q-63 0 -110.5 -27.5t-79.5 -69.5t-52.5 -94t-32.5 -102q-8 -37 -12 -74.5t0 -70.5zM399 299q33 -61 127 -61q63 0 110.5 27.5t79.5 70.5t52.5 95t32.5 101q8 35 12 69t0 69z" />
<glyph unicode="&#xf9;" horiz-adv-x="1288" d="M-4 793l213 280q80 0 139.5 -13t95 -48t45 -93.5t-11.5 -148.5l-55 -244q-10 -45 -18.5 -92t-2 -85t32 -62.5t84.5 -24.5q51 0 92 19.5t71 51.5t50.5 74t30.5 89l131 565h360l-149 -649q-18 -78 0 -111t92 -33l-211 -278q-129 0 -198.5 40t-79.5 136 q-84 -104 -185.5 -148.5t-220.5 -44.5q-166 0 -242.5 98.5t-40.5 264.5l58 252q10 43 17 80t3 65.5t-26.5 44t-73.5 15.5zM475 1468h381l141 -303l-249 -2z" />
<glyph unicode="&#xfa;" horiz-adv-x="1288" d="M-4 793l213 280q80 0 139.5 -13t95 -48t45 -93.5t-11.5 -148.5l-55 -244q-10 -45 -18.5 -92t-2 -85t32 -62.5t84.5 -24.5q51 0 92 19.5t71 51.5t50.5 74t30.5 89l131 565h360l-149 -649q-18 -78 0 -111t92 -33l-211 -278q-129 0 -198.5 40t-79.5 136 q-84 -104 -185.5 -148.5t-220.5 -44.5q-166 0 -242.5 98.5t-40.5 264.5l58 252q10 43 17 80t3 65.5t-26.5 44t-73.5 15.5zM467 1163l283 305h380l-415 -305h-248z" />
<glyph unicode="&#xfb;" horiz-adv-x="1288" d="M-4 793l213 280q80 0 139.5 -13t95 -48t45 -93.5t-11.5 -148.5l-55 -244q-10 -45 -18.5 -92t-2 -85t32 -62.5t84.5 -24.5q51 0 92 19.5t71 51.5t50.5 74t30.5 89l131 565h360l-149 -649q-18 -78 0 -111t92 -33l-211 -278q-129 0 -198.5 40t-79.5 136 q-84 -104 -185.5 -148.5t-220.5 -44.5q-166 0 -242.5 98.5t-40.5 264.5l58 252q10 43 17 80t3 65.5t-26.5 44t-73.5 15.5zM342 1165l315 303h297l179 -303h-269l-90 168l-164 -168h-268z" />
<glyph unicode="&#xfc;" horiz-adv-x="1288" d="M-4 793l213 280q80 0 139.5 -13t95 -48t45 -93.5t-11.5 -148.5l-55 -244q-10 -45 -18.5 -92t-2 -85t32 -62.5t84.5 -24.5q51 0 92 19.5t71 51.5t50.5 74t30.5 89l131 565h360l-149 -649q-18 -78 0 -111t92 -33l-211 -278q-129 0 -198.5 40t-79.5 136 q-84 -104 -185.5 -148.5t-220.5 -44.5q-166 0 -242.5 98.5t-40.5 264.5l58 252q10 43 17 80t3 65.5t-26.5 44t-73.5 15.5zM315 1303q0 43 18.5 76.5t49.5 57t70 37t77 13.5q39 0 78 -13.5t70 -37t49 -57t18 -76.5t-18 -77t-49 -58.5t-70 -37t-78 -12.5t-77.5 12.5t-69.5 37 t-49.5 58.5t-18.5 77zM825 1303q0 43 18.5 76.5t49.5 57t69.5 37t77.5 13.5t78 -13.5t70 -37t49 -57t18 -76.5t-18 -77t-49 -58.5t-70 -37t-78 -12.5t-77.5 12.5t-69.5 37t-49.5 58.5t-18.5 77z" />
<glyph unicode="&#xfd;" horiz-adv-x="1288" d="M-90 -104h356q2 -53 41 -95.5t96 -42.5q55 0 97.5 26t74 63.5t51 83.5t27.5 87l25 115q-86 -88 -176 -124t-201 -36q-166 0 -243.5 98.5t-39.5 264.5l72 313q18 78 -1 111t-93 33l213 280q61 0 119.5 -9t99.5 -40t56.5 -91.5t-7.5 -162.5l-63 -283q-10 -43 -14.5 -84 t5 -71.5t35 -50t78.5 -19.5q51 0 92 19.5t71 51.5t50.5 74t30.5 89l131 565h360l-235 -1020q-18 -84 -57 -172t-113 -159.5t-190.5 -119t-292.5 -47.5q-92 0 -180.5 15.5t-153 55.5t-99 108.5t-22.5 173.5zM479 1169l283 306h381l-416 -306h-248z" />
<glyph unicode="&#xfe;" horiz-adv-x="1423" d="M-98.5 -292.5q-16.5 59.5 8.5 161.5l276 1192q18 80 -2 112.5t-92 32.5l213 279q61 0 118.5 -9.5t98.5 -40t57.5 -90t-6.5 -161.5l-41 -180q74 41 159 62t173 21q121 0 215.5 -40.5t152.5 -114.5t76.5 -177.5t-10.5 -228.5q-29 -123 -95 -225t-158.5 -175t-204 -113 t-230.5 -40q-184 0 -295 95l-16 -76q-16 -80 2 -113t90 -33l-211 -278q-61 0 -119.5 9t-100.5 40t-58.5 90.5zM397 416q-10 -43 6.5 -77t47 -56.5t70.5 -33.5t77 -11q147 0 228 74.5t112 213.5q33 137 -11 218t-196 81q-31 0 -75 -10t-86 -30.5t-74.5 -49t-40.5 -65.5z" />
<glyph unicode="&#xff;" horiz-adv-x="1288" d="M-90 -104h356q2 -53 41 -95.5t96 -42.5q55 0 97.5 26t74 63.5t51 83.5t27.5 87l25 115q-86 -88 -176 -124t-201 -36q-166 0 -243.5 98.5t-39.5 264.5l72 313q18 78 -1 111t-93 33l213 280q61 0 119.5 -9t99.5 -40t56.5 -91.5t-7.5 -162.5l-63 -283q-10 -43 -14.5 -84 t5 -71.5t35 -50t78.5 -19.5q51 0 92 19.5t71 51.5t50.5 74t30.5 89l131 565h360l-235 -1020q-18 -84 -57 -172t-113 -159.5t-190.5 -119t-292.5 -47.5q-92 0 -180.5 15.5t-153 55.5t-99 108.5t-22.5 173.5zM311 1309q0 43 18.5 76.5t49.5 57t69.5 37t77.5 13.5t78 -13.5 t70 -37t49 -57t18 -76.5t-18 -78t-49 -58.5t-70 -37t-78 -13.5t-77.5 13.5t-69.5 37t-49.5 58.5t-18.5 78zM821 1309q0 43 18.5 76.5t49.5 57t69.5 37t77.5 13.5t78 -13.5t69.5 -37t49 -57t18.5 -76.5t-18.5 -78t-49 -58.5t-69.5 -37t-78 -13.5t-77.5 13.5t-69.5 37 t-49.5 58.5t-18.5 78z" />
<glyph unicode="&#x152;" horiz-adv-x="2234" d="M54.5 429q-17.5 140 21.5 306q39 168 122 309.5t200.5 245t268 161.5t322.5 58q90 0 168 -20.5t133 -58.5l10 45h1010l-76 -334h-647l-57 -248h579l-71 -311h-580l-57 -248h667l-77 -334h-1030l16 68q-78 -47 -165 -75t-183 -28q-170 0 -293 58.5t-193.5 162t-88 243.5z M455 579.5q-2 -79.5 20.5 -144t74.5 -105.5t142 -41q66 0 120 22.5t96 60.5t75 90t55 111l86 369q10 111 -50 177.5t-171 66.5q-92 0 -163.5 -42t-125 -106.5t-87 -145.5t-52.5 -157q-18 -76 -20 -155.5z" />
<glyph unicode="&#x153;" horiz-adv-x="2017" d="M14.5 320.5q-10.5 101.5 14.5 211.5q25 111 82 211.5t145 177t205 121.5t262 45q133 0 221 -40.5t137 -108.5q86 70 191.5 109.5t222.5 39.5q98 0 184 -25.5t146.5 -76.5t88.5 -131t13 -186l-784 -262q-2 -72 33.5 -121t126.5 -49q78 0 138 53t85 127h342 q-39 -106 -103.5 -189.5t-147.5 -139.5t-180.5 -85t-201.5 -29q-117 0 -203 40t-139 110q-82 -68 -189.5 -109t-238.5 -41q-145 0 -240.5 46.5t-147.5 123t-62.5 178zM374 431q-3 -52 9 -95t46 -70.5t97 -27.5t110.5 27.5t79.5 70.5t52.5 95t32.5 101t15 101.5t-9 94.5 t-46 69.5t-97 27.5t-110.5 -27.5t-80.5 -69.5t-53.5 -94t-30.5 -102q-12 -49 -15 -101zM1186 610l389 131q-27 84 -133 84q-102 0 -162.5 -58t-89.5 -140q0 -2 -2 -8.5t-2 -8.5z" />
<glyph unicode="&#x178;" d="M193 1092l88 383h399l-82 -353q-8 -33 -14 -72.5t-2 -74.5t23.5 -58.5t64.5 -23.5t75.5 23.5t51 58.5t32 75t19.5 72l82 353h399l-88 -383q-47 -203 -157.5 -323t-278.5 -161l-141 -608h-400l142 608q-303 86 -213 484zM387 1702q0 43 18.5 78t49 58.5t69.5 36.5t78 13 t78 -13t69.5 -36.5t49 -58.5t18.5 -78t-18.5 -77t-49 -57.5t-69.5 -36.5t-78 -13t-78 13t-69.5 36.5t-49 57.5t-18.5 77zM897 1702q0 43 18.5 78t49 58.5t69.5 36.5t78 13t78 -13t69.5 -36.5t49 -58.5t18.5 -78t-18.5 -77t-49 -57.5t-69.5 -36.5t-78 -13t-78 13t-69.5 36.5 t-49 57.5t-18.5 77z" />
<glyph unicode="&#x2c6;" horiz-adv-x="0" d="M346 1165l316 303h296l179 -303h-269l-90 168l-164 -168h-268z" />
<glyph unicode="&#x2dc;" horiz-adv-x="0" d="M358 1167q8 43 31 92.5t57.5 90.5t83 67.5t109.5 26.5q45 0 87 -13.5t79 -31t67.5 -30.5t51.5 -13q35 0 63.5 19.5t50.5 72.5h152q-14 -55 -41 -104.5t-63.5 -85t-83 -57t-99.5 -21.5q-47 0 -85 12t-73.5 27.5t-68.5 28t-66 12.5q-35 0 -64.5 -31t-41.5 -62h-146z" />
<glyph unicode="&#x2000;" horiz-adv-x="988" />
<glyph unicode="&#x2001;" horiz-adv-x="1976" />
<glyph unicode="&#x2002;" horiz-adv-x="988" />
<glyph unicode="&#x2003;" horiz-adv-x="1976" />
<glyph unicode="&#x2004;" horiz-adv-x="658" />
<glyph unicode="&#x2005;" horiz-adv-x="494" />
<glyph unicode="&#x2006;" horiz-adv-x="329" />
<glyph unicode="&#x2007;" horiz-adv-x="329" />
<glyph unicode="&#x2008;" horiz-adv-x="247" />
<glyph unicode="&#x2009;" horiz-adv-x="395" />
<glyph unicode="&#x200a;" horiz-adv-x="109" />
<glyph unicode="&#x2010;" horiz-adv-x="790" d="M14 397l68 299h606l-70 -299h-604z" />
<glyph unicode="&#x2011;" horiz-adv-x="790" d="M14 397l68 299h606l-70 -299h-604z" />
<glyph unicode="&#x2012;" horiz-adv-x="790" d="M14 397l68 299h606l-70 -299h-604z" />
<glyph unicode="&#x2013;" horiz-adv-x="1208" d="M14 403l68 289h1024l-68 -289h-1024z" />
<glyph unicode="&#x2014;" horiz-adv-x="2232" d="M14 403l68 289h2048l-68 -289h-2048z" />
<glyph unicode="&#x2018;" horiz-adv-x="610" d="M143 1360l275 139l221 -639l-274 -139z" />
<glyph unicode="&#x2019;" horiz-adv-x="610" d="M29 860l516 639l209 -139l-516 -639z" />
<glyph unicode="&#x201a;" horiz-adv-x="610" d="M-227 -250l516 639l209 -139l-516 -639z" />
<glyph unicode="&#x201c;" horiz-adv-x="1044" d="M143 1360l275 139l221 -639l-274 -139zM578 1360l274 139l221 -639l-274 -139z" />
<glyph unicode="&#x201d;" horiz-adv-x="1044" d="M29 860l516 639l209 -139l-516 -639zM463 860l516 639l209 -139l-516 -639z" />
<glyph unicode="&#x201e;" horiz-adv-x="1048" d="M-227 -250l516 639l209 -139l-516 -639zM211 -250l514 639l211 -139l-516 -639z" />
<glyph unicode="&#x2022;" horiz-adv-x="837" d="M76 737q0 72 26.5 134.5t72.5 108.5t108.5 72.5t134.5 26.5t134 -26.5t109.5 -72.5t74 -108.5t26.5 -134.5t-26.5 -134t-74 -109.5t-110 -74t-133.5 -26.5q-72 0 -134.5 26.5t-108.5 74t-72.5 110t-26.5 133.5z" />
<glyph unicode="&#x2026;" horiz-adv-x="2048" d="M-6 164q8 43 35.5 76.5t63.5 57.5t78 37t81 13t74.5 -13t60.5 -37t36 -57.5t1 -76.5t-37 -78t-62.5 -58.5t-77.5 -37t-81 -13.5t-75 13.5t-60.5 37t-35.5 58.5t-1 78zM676 164q8 43 35.5 76.5t63.5 57.5t78 37t81 13t74.5 -13t60.5 -37t36 -57.5t1 -76.5t-37 -78 t-62.5 -58.5t-77.5 -37t-81 -13.5t-75 13.5t-60.5 37t-35.5 58.5t-1 78zM1358 164q8 43 35.5 76.5t63.5 57.5t78 37t81 13t74.5 -13t60.5 -37t36 -57.5t1 -76.5t-37 -78t-62.5 -58.5t-77.5 -37t-81 -13.5t-75 13.5t-60.5 37t-35.5 58.5t-1 78z" />
<glyph unicode="&#x202f;" horiz-adv-x="395" />
<glyph unicode="&#x2039;" horiz-adv-x="503" d="M55 578l74 319l381 268l-66 -284l-194 -144l129 -137l-68 -291z" />
<glyph unicode="&#x203a;" horiz-adv-x="503" d="M-6 309l65 285l195 143l-131 137l67 291l259 -268l-76 -319z" />
<glyph unicode="&#x205f;" horiz-adv-x="494" />
<glyph unicode="&#x2122;" horiz-adv-x="1861" d="M76 1300q0 31 5 63t20.5 56.5t46 40t83.5 15.5h545v-185h-239v-626h-222v626h-22q-41 0 -56.5 -13t-15.5 -52zM815 664v548q0 141 74 211t215 70q49 0 95 -10t85 -37q37 27 83 37t95 10q141 0 215 -69.5t74 -211.5v-548h-221v532q0 18 -2 39.5t-8.5 41t-19.5 32t-38 12.5 t-38 -12.5t-20 -32t-8 -41t-1 -39.5v-532h-224v532q0 18 -1 39.5t-8 41t-20.5 32t-37.5 12.5q-25 0 -38 -12.5t-19.5 -32t-8.5 -41t-2 -39.5v-532h-221z" />
<glyph unicode="&#x25fc;" horiz-adv-x="1085" d="M0 0v1085h1085v-1085h-1085z" />
<glyph unicode="&#xfb01;" horiz-adv-x="1163" d="M-221 -154q72 0 106.5 33t53.5 111l190 823h-111l52 223h110l39 170q23 102 67 161.5t99 90.5t117.5 40t124.5 9q63 0 122.5 -5t114.5 -5l-63 -274q-41 6 -90 6q-74 0 -106 -22.5t-50 -102.5l-10 -43h581l-149 -647q-18 -80 1 -113t93 -33l-213 -278q-61 0 -119.5 9 t-99.5 40t-56.5 90t7.5 162l119 522h-222l-217 -944q-25 -102 -68.5 -161.5t-99 -90.5t-117 -40t-122.5 -9z" />
<glyph unicode="&#xfb02;" horiz-adv-x="1163" d="M-221 -154q72 0 106.5 33t53.5 111l190 823h-111l52 223h110l39 170q23 102 67 161.5t99 90.5t117.5 40t124.5 9q59 0 117.5 -15t115.5 -15h363l-246 -1063q-18 -80 1 -113t93 -33l-213 -278q-61 0 -119.5 9t-99.5 40t-57.5 90t8.5 162l215 932q-43 6 -94 6 q-72 0 -106 -29t-52 -106l-8 -33h110l-57 -248h-111l-217 -944q-25 -102 -68.5 -161.5t-99 -90.5t-117 -40t-122.5 -9z" />
</font>
</defs>
</svg>
