<?xml version="1.0" standalone="no"?>
<!DOCTYPE svg PUBLIC "-//W3C//DTD SVG 1.1//EN" "http://www.w3.org/Graphics/SVG/1.1/DTD/svg11.dtd" >
<svg xmlns="http://www.w3.org/2000/svg" xmlns:xlink="http://www.w3.org/1999/xlink" version="1.1">
<metadata></metadata>
<defs>
<font id="clementepdambold" horiz-adv-x="1232" >
<font-face units-per-em="2048" ascent="1638" descent="-410" />
<missing-glyph horiz-adv-x="655" />
<glyph horiz-adv-x="0" />
<glyph unicode="&#xd;" horiz-adv-x="0" />
<glyph unicode=" "  horiz-adv-x="655" />
<glyph unicode="&#x09;" horiz-adv-x="655" />
<glyph unicode="&#xa0;" horiz-adv-x="655" />
<glyph unicode="!" horiz-adv-x="536" d="M76 141q0 39 16.5 70t44 52.5t62 32.5t69.5 11t70 -11t62.5 -32.5t44 -52.5t16.5 -70q0 -37 -16.5 -67.5t-44 -52t-62.5 -34t-70 -12.5t-69.5 12.5t-62 34t-44 52t-16.5 67.5zM84 1475h367l-103 -1088h-160z" />
<glyph unicode="&#x22;" horiz-adv-x="823" d="M111 776v699h245v-699h-245zM467 776v699h246v-697z" />
<glyph unicode="#" horiz-adv-x="1050" d="M0 451l27 188h194l27 195h-195l27 190h194l64 451h194l-63 -451h195l63 451h193l-64 -451h195l-27 -188h-195l-26 -195h194l-26 -190h-195l-63 -451h-193l64 451h-195l-63 -451h-195l64 451h-195zM416 639h194l27 197h-195z" />
<glyph unicode="$" horiz-adv-x="1099" d="M47 559h301q4 -94 63.5 -137t149.5 -43q31 0 63.5 6t60.5 21.5t46.5 38t18.5 57.5t-14.5 57.5t-45.5 38.5t-80 28.5t-118 24.5q-102 18 -180.5 45t-130.5 65t-78.5 90t-26.5 124t29.5 127t80 94t118 62.5t145.5 29.5v187h190v-187q76 -6 144.5 -27.5t120.5 -60.5 t85 -98.5t35 -143.5h-287q-2 39 -17 68t-42 48.5t-59.5 29.5t-69.5 10q-88 0 -130 -35t-42 -82q0 -43 49 -70.5t114.5 -46t133 -29.5t102.5 -22q53 -16 103.5 -38.5t88.5 -56.5t61.5 -82.5t23.5 -116.5q0 -90 -35 -154t-93.5 -104.5t-132 -63.5t-153.5 -29v-184h-188v188 q-84 8 -157 35t-127 72t-86 110.5t-34 153.5z" />
<glyph unicode="%" horiz-adv-x="1634" d="M76 1094q0 84 20.5 153.5t63.5 120.5t108.5 79t155.5 28h823v-144l-760 -1331h-182l760 1331h-360q35 -45 52 -104.5t17 -130.5q0 -82 -21.5 -152t-64.5 -121t-108.5 -79.5t-155.5 -28.5t-155.5 28.5t-108.5 79.5t-63.5 121t-20.5 150zM285 1094q0 -41 5 -83t20.5 -76 t43 -54.5t70.5 -20.5t70.5 20.5t43 54.5t20.5 76t5 83q0 43 -5 86t-20.5 76.5t-42 54t-71.5 20.5q-43 0 -70.5 -20.5t-43 -54t-20.5 -76.5t-5 -86zM860 354q0 82 20.5 153t63.5 121t108.5 78.5t155.5 28.5t157 -28.5t110 -78.5t63.5 -121t20.5 -153t-20.5 -151.5 t-63.5 -119.5t-109 -79t-156 -29q-92 0 -157.5 29t-108.5 79t-63.5 119.5t-20.5 151.5zM1071 354q0 -43 5 -85t20.5 -75.5t42 -54t69.5 -20.5t71 20.5t43 54t21.5 75.5t6.5 85t-5.5 86t-20.5 76t-43 53.5t-71 20.5q-45 0 -71.5 -20.5t-42 -54.5t-20.5 -76t-5 -85z" />
<glyph unicode="&#x26;" horiz-adv-x="1677" d="M35 432q0 57 16.5 118.5t49 114t81.5 88t115 40.5q-63 8 -106.5 44.5t-69 85t-35.5 101.5t-10 96q0 98 51 169t129 118t169 69.5t173 22.5q119 0 222.5 -30.5t179 -92t118.5 -156t45 -221.5h-301q2 57 -16.5 104.5t-52 80.5t-81.5 51t-104 18q-41 0 -84 -11t-77.5 -34.5 t-56 -58.5t-21.5 -82q0 -49 20.5 -86t54 -59.5t76.5 -33.5t88 -11h39v-205h-39q-102 0 -172.5 -52.5t-70.5 -160.5q0 -55 33.5 -99.5t83.5 -73t110.5 -44t114.5 -15.5q74 0 143.5 21.5t122.5 61.5t83.5 96.5t28.5 128.5h-47q-78 0 -104.5 -28t-26.5 -89l-213 112 q0 49 8.5 99.5t35 89.5t76.5 63.5t134 24.5h385q78 0 105.5 26.5t27.5 88.5l211 -111q0 -51 -8 -100t-34.5 -88t-77 -63.5t-134.5 -24.5h-37q14 -150 -37 -255.5t-148 -173t-228 -99.5t-279 -32q-123 0 -240.5 27t-210.5 83t-150.5 142t-57.5 205z" />
<glyph unicode="'" horiz-adv-x="466" d="M111 776v699h245v-697z" />
<glyph unicode="(" horiz-adv-x="573" d="M76 524q0 500 225 951h272q-98 -233 -147 -465t-49 -486q0 -256 49 -484t149 -462h-274q-113 233 -169 459.5t-56 486.5z" />
<glyph unicode=")" horiz-adv-x="573" d="M0 -422q100 233 148.5 464.5t48.5 485.5t-49.5 483.5t-147.5 463.5h272q55 -117 98.5 -231t72 -229.5t43 -236.5t14.5 -250q0 -500 -226 -950h-274z" />
<glyph unicode="*" horiz-adv-x="798" d="M0 1112l61 191l256 -103l-18 275h201l-19 -275l256 103l62 -191l-267 -68l175 -210l-160 -119l-148 233l-147 -233l-162 119l176 210z" />
<glyph unicode="+" horiz-adv-x="1218" d="M92 614v246h393v395h246v-395h395v-246h-395v-395h-244v395h-395z" />
<glyph unicode="," horiz-adv-x="561" d="M0 -242l348 604l213 -122l-348 -605z" />
<glyph unicode="-" horiz-adv-x="755" d="M92 416v262h572v-262h-572z" />
<glyph unicode="." horiz-adv-x="536" d="M76 141q0 39 16.5 70t44 52.5t62 32.5t69.5 11t70 -11t62.5 -32.5t44 -52.5t16.5 -70q0 -37 -16.5 -67.5t-44 -52t-62.5 -34t-70 -12.5t-69.5 12.5t-62 34t-44 52t-16.5 67.5z" />
<glyph unicode="/" horiz-adv-x="817" d="M0 0l573 1475h244l-573 -1475h-244z" />
<glyph unicode="0" horiz-adv-x="1449" d="M133 737q0 133 35 269.5t106.5 246t182 178t262.5 68.5q154 0 264.5 -68.5t182 -177t106.5 -245t35 -271.5t-35 -270t-106.5 -244.5t-182.5 -178.5t-262 -69q-154 0 -264.5 69t-182 178.5t-106.5 244.5t-35 270zM436 737q0 -72 9.5 -161t38 -167.5t85 -133t150.5 -54.5 t150.5 54.5t86 133t39 167.5t9.5 161q0 70 -9.5 159t-39 169t-85 134t-149.5 54q-96 0 -152.5 -54t-85 -133t-38 -168t-9.5 -161z" />
<glyph unicode="1" horiz-adv-x="1449" d="M172 1180q0 53 8 106t37 95t81 68t142 26h463v-1475h-348v1184h-16q-82 0 -111 -29t-29 -94z" />
<glyph unicode="2" horiz-adv-x="1449" d="M115 0q-6 129 45 232.5t134 188.5t186.5 154.5t199.5 131.5q43 27 87 59.5t81 70t60.5 82t23.5 93.5q0 102 -60.5 168.5t-166.5 66.5q-78 0 -129.5 -30.5t-81 -80t-42 -112.5t-10.5 -129h-299q-6 137 30 248.5t109.5 190.5t181 122t245.5 43q106 0 203.5 -25.5t173 -81 t120.5 -140.5t45 -203q0 -80 -24.5 -150t-66.5 -130t-98 -111.5t-118 -96.5q-104 -76 -207.5 -146.5t-171.5 -144.5h420q76 0 105.5 28t27.5 89l211 -111q0 -63 -11 -114t-40 -87t-78 -55.5t-123 -19.5h-962z" />
<glyph unicode="3" horiz-adv-x="1449" d="M133 535h303q-6 -143 65.5 -225.5t219.5 -82.5q106 0 179 59.5t73 170.5t-71 163t-173 52h-39v205h39q45 0 88 11t77 33.5t54.5 59.5t20.5 86q0 47 -21.5 82t-56.5 58.5t-78 34.5t-84 11q-55 0 -103 -18t-83 -51t-53.5 -80t-16.5 -105h-299q2 127 45 221.5t119 156 t178 92t223 30.5q82 0 173.5 -22.5t169 -68.5t129 -117.5t51.5 -168.5q0 -43 -11.5 -97t-37 -102.5t-67.5 -85t-106 -44.5q66 -4 115 -40t82 -88.5t49.5 -114t16.5 -118.5q0 -115 -50.5 -201t-130.5 -143t-181 -85t-206 -28q-129 0 -243.5 34t-198.5 103.5t-128 175 t-32 247.5z" />
<glyph unicode="4" horiz-adv-x="1449" d="M63 360v302l662 813h319v-844h27q78 0 104.5 27.5t26.5 89.5l213 -111q0 -51 -8 -100.5t-34.5 -88t-77 -63.5t-134.5 -25h-117v-360h-329v360h-652zM287 631h428v534z" />
<glyph unicode="5" horiz-adv-x="1449" d="M82 442h313q12 -113 91 -164t184 -51q57 0 107 17.5t87 51.5t58.5 81t21.5 106q0 119 -72.5 188.5t-191.5 69.5q-78 0 -144.5 -26.5t-107.5 -96.5h-299l162 857h809q143 0 198.5 -72t55.5 -205l-213 -111q2 72 -32 94.5t-99 22.5h-475l-78 -366q66 61 154.5 89.5 t181.5 28.5q111 0 197.5 -34.5t147 -98t92.5 -152.5t32 -198q0 -129 -50.5 -222t-134.5 -154.5t-191.5 -91.5t-223.5 -30q-102 0 -209 27t-192 84t-136 145t-43 211z" />
<glyph unicode="6" horiz-adv-x="1449" d="M139 686q0 154 33 300.5t108.5 260t197.5 183t298 69.5q82 0 165 -15.5t155 -58.5l-176 -194q-35 23 -73 30t-79 7q-88 0 -147.5 -41t-97.5 -103.5t-57.5 -139.5t-25.5 -148q0 -6 -1 -16.5t-1 -16.5q70 98 167 144t220 46q106 0 196.5 -34.5t157 -98t104.5 -152 t38 -194.5q0 -129 -44 -229.5t-122 -169t-184.5 -104.5t-229.5 -36q-158 0 -276.5 60.5t-194.5 165.5q-72 98 -101.5 223t-29.5 262zM465 508q0 -59 21.5 -109.5t58.5 -88.5t87 -59.5t109 -21.5t111.5 21.5t91.5 58.5t61.5 88.5t22.5 110.5t-23.5 109.5t-62.5 86t-91 56 t-110 20.5q-57 0 -107 -20.5t-88 -57t-59.5 -87t-21.5 -107.5z" />
<glyph unicode="7" horiz-adv-x="1449" d="M152 1198q0 51 8 100.5t34.5 88t77 63.5t134.5 25h829v-271l-373 -1204h-354l373 1204h-385q-78 0 -104.5 -27.5t-26.5 -89.5z" />
<glyph unicode="8" horiz-adv-x="1449" d="M137 440q0 147 78 235.5t215 117.5q-111 35 -165 117.5t-54 197.5q0 106 46 180t120 121t165 68.5t181 21.5q88 0 180 -22.5t168 -69.5t123 -121t47 -178q0 -53 -15.5 -103.5t-43 -92.5t-69.5 -73.5t-93 -45.5q66 -10 119 -42t92 -79t59.5 -106.5t20.5 -125.5 q0 -121 -52.5 -209t-136.5 -145t-188.5 -84t-210.5 -27q-109 0 -214.5 26t-188 82t-133 144t-50.5 213zM451 440q0 -55 23.5 -97t61 -69.5t87 -42t100.5 -14.5t99 14.5t87 42t62.5 69.5t23.5 97q0 61 -20.5 107.5t-57 77t-86 46t-104.5 15.5q-57 0 -107.5 -15.5t-88 -46 t-59 -76.5t-21.5 -108zM496 1075q0 -47 19.5 -83t50 -59.5t71.5 -35.5t84 -12q45 0 87 11t74.5 33.5t53 59.5t20.5 86q0 53 -18 91t-50 62.5t-74 36t-91 11.5q-96 0 -161.5 -48t-65.5 -153z" />
<glyph unicode="9" horiz-adv-x="1449" d="M123 961q0 129 44 229t122 168.5t184.5 104.5t231.5 36q156 0 275.5 -60.5t195.5 -164.5q70 -98 99.5 -223.5t29.5 -262.5q0 -154 -33 -300t-109 -259.5t-196.5 -183.5t-296.5 -70q-84 0 -167 15.5t-155 58.5l176 195q35 -23 73 -30t79 -7q88 0 147.5 40t97 103.5t57 140 t26.5 148.5q0 6 1 16.5t1 16.5q-70 -98 -167.5 -145.5t-220.5 -47.5q-106 0 -196 35t-156.5 98.5t-104.5 151.5t-38 197zM418 967q0 -59 22.5 -109.5t62.5 -86.5t91 -56.5t111 -20.5q57 0 107 20.5t87 57.5t58.5 87.5t21.5 107.5t-21.5 108t-58.5 89t-87 59.5t-107 21.5 q-59 0 -111.5 -21.5t-91.5 -58.5t-61.5 -88t-22.5 -110z" />
<glyph unicode=":" horiz-adv-x="536" d="M76 141q0 39 16.5 70t44 52.5t62 32.5t69.5 11t70 -11t62.5 -32.5t44 -52.5t16.5 -70q0 -37 -16.5 -67.5t-44 -52t-62.5 -34t-70 -12.5t-69.5 12.5t-62 34t-44 52t-16.5 67.5zM76 920q0 37 16.5 67.5t44 52t62 33.5t69.5 12t70 -12t62.5 -33.5t44 -52t16.5 -67.5 q0 -39 -16.5 -70t-44 -52.5t-62.5 -33.5t-70 -12t-69.5 12t-62 33.5t-44 52.5t-16.5 70z" />
<glyph unicode=";" horiz-adv-x="536" d="M0 -242l348 604l213 -122l-348 -605zM76 920q0 37 16.5 67.5t44 52t62 33.5t69.5 12t70 -12t62.5 -33.5t44 -52t16.5 -67.5q0 -39 -16.5 -70t-44 -52.5t-62.5 -33.5t-70 -12t-69.5 12t-62 33.5t-44 52.5t-16.5 70z" />
<glyph unicode="&#x3c;" horiz-adv-x="1220" d="M92 633v207l1036 432v-258l-669 -277l669 -276v-258z" />
<glyph unicode="=" horiz-adv-x="1218" d="M92 379v246h1034v-246h-1034zM92 850v246h1034v-246h-1034z" />
<glyph unicode="&#x3e;" horiz-adv-x="1220" d="M92 203v258l670 276l-670 277v258l1036 -430v-207z" />
<glyph unicode="?" horiz-adv-x="1200" d="M76 983q2 98 34.5 191.5t97 165t165 114.5t241.5 43q133 0 228.5 -36t158 -93t92 -129t31.5 -143h-2q2 -90 -21.5 -148.5t-62.5 -97.5t-85 -66.5t-89 -54.5q-41 -27 -67.5 -51.5t-42 -52t-21.5 -60.5t-6 -78v-129h-293v127q0 41 2 91.5t17.5 101.5t46 100t90.5 86 q20 14 53 30.5t64.5 41.5t54 57.5t22.5 79.5q0 74 -48 114t-132 40q-106 0 -155.5 -71t-40.5 -173h-332zM389 141q0 39 16.5 70t44 52.5t61.5 32.5t69 11t69.5 -11t62 -32.5t44 -52.5t16.5 -70q0 -37 -16.5 -67.5t-44 -52t-62.5 -34t-69 -12.5q-35 0 -69 12.5t-61.5 34 t-44 52t-16.5 67.5z" />
<glyph unicode="@" horiz-adv-x="1658" d="M76 737q0 174 59.5 314.5t166 240t250.5 153.5t314 54q139 0 268.5 -39t229.5 -115.5t159.5 -192t59.5 -267.5q0 -162 -63 -289q-41 -80 -107.5 -146.5t-159.5 -111.5q-41 -23 -89 -37t-95 -14q-41 0 -74.5 20.5t-44.5 61.5q0 8 -1 14t-1 14q-39 -59 -98 -84.5 t-127 -25.5q-76 0 -137.5 27.5t-104.5 75.5t-65.5 111.5t-22.5 137.5q0 94 31 187.5t89 165t141 116.5t186 45q78 0 147.5 -33t110.5 -102l28 98h156l-113 -432q-10 -41 -21 -84t-11 -86q0 -20 10 -38.5t35 -18.5t48 9t42 23q39 29 65.5 70t43 87t24.5 95.5t8 96.5 q0 125 -43 217t-116.5 153.5t-174 92t-217.5 30.5q-127 0 -239.5 -44t-196.5 -123t-132 -187.5t-48 -239.5q0 -133 46 -241.5t128 -187.5t193.5 -122t242.5 -43q133 0 250 40t215 130h184q-113 -174 -278.5 -256t-370.5 -82q-166 0 -309.5 55.5t-247.5 157t-163.5 240.5 t-59.5 309zM610 664q0 -72 44 -126.5t120 -54.5q137 0 203 115q12 35 28.5 91.5t32.5 103.5q-4 72 -55 117.5t-125 45.5q-55 0 -100 -26.5t-78 -69.5t-51.5 -95t-18.5 -101z" />
<glyph unicode="A" d="M111 0v1014q0 250 129 372.5t376 122.5q254 0 380 -124.5t126 -368.5v-1016h-348v602h-315v-602h-348zM459 872h315v109q0 43 -5 88t-21.5 82t-48 61.5t-83.5 24.5q-53 0 -83.5 -24.5t-47 -61.5t-21.5 -82t-5 -88v-109z" />
<glyph unicode="B" d="M111 0v1475h526q88 0 171 -20.5t145.5 -64.5t100.5 -114t38 -168q0 -111 -56.5 -188.5t-156.5 -116.5q135 -35 206.5 -131.5t71.5 -235.5q0 -109 -42 -189.5t-111.5 -136t-160.5 -83t-190 -27.5h-542zM459 270h112q47 0 90.5 10.5t76 34t52 60.5t19.5 92q0 96 -59.5 143 t-161.5 47h-129v-387zM459 870h94q90 0 148.5 41t58.5 133h2q0 84 -58.5 122t-150.5 38h-94v-334z" />
<glyph unicode="C" horiz-adv-x="1527" d="M76 733q0 166 49 308.5t143 246t228.5 162.5t306.5 59q131 0 244.5 -35.5t199.5 -105.5t139.5 -173t65.5 -239h-340q-8 61 -35.5 110.5t-70.5 85.5t-97.5 55.5t-113.5 19.5q-102 0 -172 -45t-115 -116t-64.5 -158t-19.5 -173t19.5 -172t62.5 -156.5t112.5 -114.5 t169.5 -44q74 0 130.5 25.5t95.5 69.5t63.5 103.5t34.5 126.5h340q-4 -135 -57.5 -247.5t-141.5 -192.5t-205.5 -124t-250.5 -44q-170 0 -303.5 59.5t-226.5 162t-142 242.5t-49 304z" />
<glyph unicode="D" horiz-adv-x="1363" d="M111 0v1475h526q168 0 291 -56.5t202.5 -156t118.5 -233.5t39 -290q0 -176 -48 -313t-141 -231.5t-230.5 -144.5t-313.5 -50h-444zM459 291h80q104 0 180 34.5t125 95t72.5 143.5t23.5 179q0 98 -25.5 180.5t-78 139.5t-130 89t-180.5 32h-67v-893z" />
<glyph unicode="E" d="M111 0v1475h1011v-291h-663v-312h598v-270h-598v-311h682v-291h-1030z" />
<glyph unicode="F" d="M111 0v1475h1011v-291h-663v-312h598v-270h-598v-602h-348z" />
<glyph unicode="G" horiz-adv-x="1562" d="M76 733q0 166 49 308.5t143 246t228.5 162.5t306.5 59q131 0 244.5 -35.5t199.5 -105.5t139.5 -173t65.5 -239h-340q-8 61 -35.5 110.5t-70.5 85.5t-97.5 55.5t-113.5 19.5q-102 0 -172 -45t-115 -116t-64.5 -158t-19.5 -173t19.5 -172t62.5 -156.5t112.5 -114.5 t169.5 -44q123 0 196 65.5t101 169.5h-290v273h657v-367q0 -86 29.5 -116.5t99.5 -30.5l-129 -246q-86 0 -141.5 35t-96.5 112q-76 -84 -181 -131t-236 -47q-170 0 -303.5 59.5t-226.5 162t-142 242.5t-49 304z" />
<glyph unicode="H" horiz-adv-x="1419" d="M111 0v1475h348v-572h493v572h348v-1475h-348v633h-493v-633h-348z" />
<glyph unicode="I" horiz-adv-x="569" d="M111 0v1475h348v-1475h-348z" />
<glyph unicode="J" d="M111 459v114h313v-84q0 -55 7 -101t26.5 -80t54.5 -53t90 -19t89 22.5t52.5 59t24.5 82.5t6 94v690h-211q-80 0 -108.5 -29t-28.5 -94l-229 119q0 53 8 106t36.5 95t82 68t143.5 26h655v-986q0 -272 -126 -398t-386 -126q-129 0 -223 36t-155.5 100.5t-91 155.5 t-29.5 202z" />
<glyph unicode="K" horiz-adv-x="1169" d="M111 0v1475h348v-443l313 443h397l-512 -738l512 -737h-397l-313 442v-442h-348z" />
<glyph unicode="L" d="M111 0v1475h348v-1184h407q82 0 111 28.5t29 94.5l227 -119q0 -53 -8 -106.5t-37 -95.5t-82 -67.5t-141 -25.5h-854z" />
<glyph unicode="M" horiz-adv-x="1896" d="M111 0v1016q0 248 129 370.5t376 122.5q98 0 183.5 -26.5t148.5 -85.5q63 59 148.5 85.5t183.5 26.5q248 0 377 -122.5t129 -370.5v-1016h-348v981q0 43 -5.5 89t-21.5 83t-48 60.5t-83 23.5q-53 0 -84 -23.5t-47 -60.5t-21.5 -83t-5.5 -89v-981h-348v981q0 43 -5 89 t-21.5 83t-48 60.5t-83.5 23.5q-53 0 -83.5 -23.5t-47 -60.5t-21.5 -83t-5 -89v-981h-348z" />
<glyph unicode="N" d="M111 0v1016q0 248 129 370.5t376 122.5q254 0 380 -124.5t126 -368.5v-1016h-348v981q0 43 -5 88t-21.5 82t-48 61.5t-83.5 24.5q-53 0 -83.5 -24.5t-47 -61.5t-21.5 -82t-5 -88v-981h-348z" />
<glyph unicode="O" horiz-adv-x="1601" d="M76 737q0 162 50 303.5t144.5 246t228.5 163.5t302 59t302 -59t228 -163.5t144.5 -246t50.5 -303.5t-50.5 -303t-144.5 -245.5t-228 -164t-302 -59.5t-302 59.5t-228.5 164t-144.5 245.5t-50 303zM424 737q0 -88 20.5 -175t66.5 -156.5t116.5 -113.5t173.5 -44 q100 0 171.5 44t117 113.5t66 156.5t20.5 175h2q0 88 -21.5 175t-67 157t-117 114t-171.5 44q-102 0 -173 -44t-117 -114t-66.5 -157t-20.5 -175z" />
<glyph unicode="P" horiz-adv-x="1239" d="M111 0v1475h538q137 0 235.5 -43t160 -111t90 -153t28.5 -169q0 -123 -41 -215t-112.5 -153.5t-173 -91t-220.5 -29.5h-157v-510h-348zM459 782h94q55 0 105.5 8.5t89 31t62.5 62.5t24 103q0 59 -19.5 97t-54.5 60.5t-83 31t-104 8.5h-114v-402z" />
<glyph unicode="Q" horiz-adv-x="1601" d="M76 737q0 162 50 303.5t144.5 246t228.5 163.5t302 59t302 -59t228 -163.5t144.5 -246t50.5 -303.5q0 -145 -41 -274t-121 -234l82 -84q27 -29 47 -49t49 -22q20 -2 41 8t43 27l27 -254q-45 -33 -93.5 -56.5t-101.5 -23.5q-96 0 -203 129l-127 153q-139 -92 -327 -92 q-168 0 -302 59.5t-228.5 164t-144.5 245.5t-50 303zM424 737q0 -88 20.5 -175t66.5 -156.5t116.5 -113.5t173.5 -44q94 0 160 59l-80 90q-27 29 -48.5 49.5t-48.5 22.5h-4q-35 0 -80 -35l-26 254q43 31 90 54.5t98 25.5h6q50 0 94 -32q48 -34 107 -97l72 -76q18 41 26.5 85 t8.5 89h2q0 88 -21.5 175t-67 157t-117 114t-171.5 44q-102 0 -173 -44t-117 -114t-66.5 -157t-20.5 -175z" />
<glyph unicode="R" horiz-adv-x="1247" d="M115 0v1475h585q98 0 183.5 -25t150 -76t101 -128t36.5 -181q0 -123 -62 -225.5t-181 -141.5q66 -18 109.5 -57t71.5 -89t40 -110.5t12 -124.5v-317h-338v256q0 68 -10 125t-37.5 98t-77 64.5t-125.5 23.5h-110v-567h-348zM463 811h106q43 0 88 8t82 30.5t60.5 62 t23.5 100.5q0 92 -58 142t-208 50h-94v-393z" />
<glyph unicode="S" horiz-adv-x="1306" d="M23 494h348q0 -150 87 -213.5t228 -63.5q43 0 87 10.5t80 33t59.5 60t23.5 91.5q0 49 -22.5 79.5t-68.5 54t-113.5 43t-160.5 44.5q-88 25 -176 51.5t-158.5 70.5t-115.5 113.5t-45 180.5q0 123 48 210t128 143t182.5 81.5t208.5 25.5q117 0 220.5 -24.5t183 -80.5 t129 -146.5t55.5 -221.5h-332q1 9 1 18q0 48 -18 84q-22 42 -59 68.5t-85 38.5t-97 12q-37 0 -79 -7t-76.5 -25.5t-57 -50t-22.5 -78.5q2 -55 40.5 -89t101 -57.5t141.5 -42t161 -39.5q84 -23 162 -52.5t138 -76.5t97 -118t37 -175q0 -133 -55 -225t-144.5 -148.5t-201 -82 t-226.5 -25.5q-51 0 -118.5 8.5t-138 31t-138 59t-121 96t-86 141.5t-32.5 193z" />
<glyph unicode="T" d="M0 1180q0 53 8 106t37 95t81 68t142 26h965v-291h-442v-1184h-349v1184h-75q-82 0 -111 -29t-29 -94z" />
<glyph unicode="U" d="M111 459v1016h348v-981q0 -43 5 -88.5t21.5 -82t47 -61t83.5 -24.5t84 24.5t47.5 61t21.5 82t5 88.5v981h348v-1014q0 -250 -129 -373t-377 -123q-254 0 -379.5 125t-125.5 369z" />
<glyph unicode="V" horiz-adv-x="1257" d="M0 1475h356l273 -859l274 859h354l-450 -1475h-356z" />
<glyph unicode="W" horiz-adv-x="1896" d="M111 459v1016h348v-981q0 -43 5 -89.5t21.5 -83t47 -60t83.5 -23.5q51 0 83 23.5t48.5 60t21.5 83t5 89.5v981h348v-981q0 -43 5.5 -89.5t21.5 -83t47 -60t84 -23.5q51 0 83 23.5t48 60t21.5 83t5.5 89.5v981h348v-1016q0 -248 -129 -371t-377 -123q-98 0 -183 26.5 t-149 86.5q-63 -59 -148 -86t-184 -27q-248 0 -376.5 123t-128.5 371z" />
<glyph unicode="X" horiz-adv-x="1423" d="M0 0l512 737l-512 738h399l312 -443l313 443h399l-512 -738l512 -737h-399l-313 442l-312 -442h-399z" />
<glyph unicode="Y" d="M111 1096v379h348v-347q0 -43 5 -88t21.5 -81.5t47 -61.5t83.5 -25t84 25t47.5 62.5t21.5 82.5t5 86v347h348v-379q0 -201 -84 -319t-247 -154v-623h-349v623q-332 78 -331 473z" />
<glyph unicode="Z" horiz-adv-x="1302" d="M37 0v279l776 905h-723v291h1178v-261l-781 -923h455q80 0 108.5 28.5t28.5 94.5l230 -119q0 -53 -8.5 -106.5t-37 -95.5t-82 -67.5t-143.5 -25.5h-1001z" />
<glyph unicode="[" horiz-adv-x="770" d="M111 -422v1897h567v-246h-285v-1405h285v-246h-567z" />
<glyph unicode="\" horiz-adv-x="817" d="M0 1475h244l573 -1475h-244z" />
<glyph unicode="]" horiz-adv-x="770" d="M106 -176h285v1405h-285v246h568v-1897h-568v246z" />
<glyph unicode="^" horiz-adv-x="968" d="M0 682l385 793h199l385 -793h-246l-238 512l-239 -512h-246z" />
<glyph unicode="_" horiz-adv-x="1024" d="M0 -154h1024v-102h-1024v102z" />
<glyph unicode="`" horiz-adv-x="0" d="M352 1466h336l217 -303h-219z" />
<glyph unicode="a" horiz-adv-x="1374" d="M76 524q0 123 41 226.5t114.5 178.5t175 116.5t224.5 41.5q92 0 174 -25.5t143 -78.5v78h316v-1061h-314v86q-61 -53 -144 -83t-181 -30q-119 0 -219.5 41t-174 114t-114.5 174t-41 222zM391 524q0 -147 69.5 -233t225.5 -86q43 0 90 13t85 40t63.5 63.5t25.5 86.5v270 q0 41 -26.5 73.5t-66.5 56t-84 36t-81 12.5q-84 0 -141 -24.5t-92 -69.5t-51.5 -105.5t-16.5 -132.5z" />
<glyph unicode="b" horiz-adv-x="1374" d="M111 0v1475h313v-492q63 53 145 78.5t174 25.5q123 0 224.5 -41.5t175.5 -116.5t114.5 -178.5t40.5 -226.5q0 -121 -40.5 -222t-114.5 -174t-174.5 -114t-218.5 -41q-98 0 -181.5 30t-142.5 83v-86h-315zM424 408q0 -49 25.5 -86t63.5 -64t85 -40t90 -13q156 0 225.5 86 t69.5 233q0 72 -16.5 132.5t-51 105.5t-93 69.5t-140.5 24.5q-37 0 -81 -12.5t-84 -36t-66.5 -56t-26.5 -73.5v-270z" />
<glyph unicode="c" horiz-adv-x="1216" d="M76 524q0 121 41 224.5t113.5 178t175 117.5t225.5 43q96 0 184 -25.5t157.5 -76.5t113.5 -128t55 -179h-299q-10 86 -65.5 132t-139.5 46q-74 0 -122 -28.5t-75.5 -75.5t-39 -106.5t-11.5 -121.5q0 -59 11.5 -116.5t39 -102.5t73.5 -72.5t118 -27.5q88 0 145.5 58.5 t65.5 144.5h299q-12 -104 -56.5 -185.5t-113 -136.5t-156.5 -84t-190 -29q-121 0 -221.5 41t-173 115t-113.5 174t-41 221z" />
<glyph unicode="d" horiz-adv-x="1374" d="M76 524q0 123 41 226.5t114.5 178.5t175 116.5t224.5 41.5q92 0 174 -25.5t143 -78.5v492h316v-1475h-314v86q-61 -53 -144 -83t-181 -30q-119 0 -219.5 41t-174 114t-114.5 174t-41 222zM391 524q0 -147 69.5 -233t225.5 -86q43 0 90 13t85 40t63.5 63.5t25.5 86.5v270 q0 41 -26.5 73.5t-66.5 56t-84 36t-81 12.5q-84 0 -141 -24.5t-92 -69.5t-51.5 -105.5t-16.5 -132.5z" />
<glyph unicode="e" horiz-adv-x="1216" d="M76 524q0 121 41 224.5t113.5 178t175 117.5t225.5 43q96 0 184 -25.5t157.5 -76.5t113.5 -128t55 -179l-740 -270q16 -86 70.5 -144.5t159.5 -58.5q88 0 145.5 58.5t65.5 144.5h299q-12 -104 -56.5 -185.5t-113 -136.5t-156.5 -84t-190 -29q-121 0 -221.5 41t-173 115 t-113.5 174t-41 221zM395 590l422 155q-23 53 -70 82t-110 29q-59 0 -102 -20.5t-73 -54t-45.5 -79t-19.5 -94.5q0 -4 -1 -9t-1 -9z" />
<glyph unicode="f" horiz-adv-x="536" d="M0 842v196h111v181q0 96 27.5 153.5t72.5 87t101.5 38.5t113.5 9q59 0 113.5 -5t105.5 -5v-242q-37 6 -90 7q-70 0 -100.5 -28t-30.5 -112v-61h113v-219h-111v-842h-315v842h-111z" />
<glyph unicode="g" horiz-adv-x="1370" d="M76 524q0 123 41 226.5t114.5 178.5t175 116.5t224.5 41.5q92 0 174 -25.5t143 -78.5v78h316v-1030q0 -86 -19.5 -173t-77 -157t-160 -114t-268.5 -44q-90 0 -178 15.5t-159.5 55.5t-120 107.5t-58.5 169.5h312q12 -68 69.5 -112.5t124.5 -44.5q61 0 103 24.5t68 64.5 t38 89t12 98v76q-61 -53 -144 -83t-181 -30q-119 0 -219.5 41t-174 114t-114.5 174t-41 222zM391 524q0 -147 69.5 -233t225.5 -86q43 0 89 13t85 40t63.5 63.5t24.5 86.5l2 270q0 41 -26.5 73.5t-66.5 56t-84 36t-81 12.5q-84 0 -141 -24.5t-92 -69.5t-51.5 -105.5 t-16.5 -132.5z" />
<glyph unicode="h" horiz-adv-x="1251" d="M111 0v1475h313v-566q63 96 147 137t201 41q82 0 150.5 -25.5t116.5 -73.5t75 -115.5t27 -151.5v-721h-316v590q0 49 -7 93t-27.5 78t-56.5 53.5t-91 19.5q-59 0 -100 -21.5t-66.5 -58.5t-38 -85t-12.5 -100v-569h-315z" />
<glyph unicode="i" horiz-adv-x="536" d="M76 1343q0 37 16.5 68t44 52.5t62 33.5t69.5 12t70 -12t62.5 -33.5t44 -52.5t16.5 -68q0 -39 -16.5 -69.5t-44 -52t-62.5 -32.5t-70 -11t-69.5 11t-62 32.5t-44 52.5t-16.5 69zM111 0v1061h313v-1061h-313z" />
<glyph unicode="j" horiz-adv-x="536" d="M-616 -109h311q14 -68 71.5 -112.5t124.5 -44.5q61 0 102.5 24.5t68 64.5t38 89t11.5 98v1051h313v-1032l2 2q0 -86 -20.5 -173t-77 -157t-158.5 -114t-268 -44q-92 0 -180.5 15.5t-159 55.5t-118.5 107.5t-60 169.5zM76 1343q0 37 16.5 68t44 52.5t62 33.5t69.5 12 t70 -12t62.5 -33.5t44 -52.5t16.5 -68q0 -39 -16.5 -69.5t-44 -52t-62.5 -32.5t-70 -11t-69.5 11t-62 32.5t-44 52.5t-16.5 69z" />
<glyph unicode="k" horiz-adv-x="964" d="M111 0v1475h313v-691l199 277h342l-369 -531l369 -530h-342l-197 276v-276h-315z" />
<glyph unicode="l" horiz-adv-x="536" d="M111 0v1475h315v-1475h-315z" />
<glyph unicode="m" horiz-adv-x="1966" d="M111 0v1061h313v-152q63 96 148 137t200 41q129 0 219 -61t125 -168q51 123 144.5 176t226.5 53q82 0 150.5 -26.5t116.5 -73.5t74.5 -115.5t26.5 -150.5v-721h-315v590q0 49 -7 93t-27.5 78t-56.5 53.5t-91 19.5q-59 0 -100 -21.5t-67 -58.5t-38 -85t-12 -100v-569h-316 v590q0 49 -7 93t-27.5 78t-56.5 53.5t-91 19.5q-59 0 -100 -21.5t-66.5 -58.5t-38 -85t-12.5 -100v-569h-315z" />
<glyph unicode="n" horiz-adv-x="1251" d="M111 0v1061h313v-152q63 96 147 137t201 41q82 0 150.5 -25.5t116.5 -73.5t75 -115.5t27 -151.5v-721h-316v590q0 49 -7 93t-27.5 78t-56.5 53.5t-91 19.5q-59 0 -100 -21.5t-66.5 -58.5t-38 -85t-12.5 -100v-569h-315z" />
<glyph unicode="o" horiz-adv-x="1257" d="M76 530q0 111 33.5 211.5t101.5 177t172 122.5t246 46q141 0 245.5 -46t172 -122.5t101.5 -177t34 -211.5t-34 -211t-101.5 -176.5t-172 -123t-245.5 -46.5t-245.5 46.5t-172.5 123t-101.5 177t-33.5 210.5zM389 530q0 -55 11.5 -113.5t39 -105.5t73.5 -76.5t116 -29.5 t116 29.5t73.5 76.5t38.5 104.5t11 114.5q0 55 -11 113.5t-38.5 106t-74 77t-115.5 29.5q-70 0 -116 -29.5t-73.5 -77t-39 -104.5t-11.5 -115z" />
<glyph unicode="p" horiz-adv-x="1374" d="M111 -422v1483h313v-78q63 53 145 78.5t174 25.5q123 0 224.5 -41.5t175.5 -116.5t114.5 -178.5t40.5 -226.5q0 -121 -40.5 -222t-114.5 -174t-174.5 -114t-218.5 -41q-98 0 -181.5 30t-142.5 83v-508h-315zM424 408q0 -49 25.5 -86t63.5 -64t85 -40t90 -13 q156 0 225.5 86t69.5 233q0 72 -16.5 132.5t-51 105.5t-93 69.5t-140.5 24.5q-37 0 -81 -12.5t-84 -36t-66.5 -56t-26.5 -73.5v-270z" />
<glyph unicode="q" horiz-adv-x="1374" d="M76 524q0 123 41 226.5t114.5 178.5t175 116.5t224.5 41.5q92 0 174 -25.5t143 -78.5v78h316v-1483h-314v508q-61 -53 -144 -83t-181 -30q-119 0 -219.5 41t-174 114t-114.5 174t-41 222zM391 524q0 -147 69.5 -233t225.5 -86q43 0 90 13t85 40t63.5 63.5t25.5 86.5v270 q0 41 -26.5 73.5t-66.5 56t-84 36t-81 12.5q-84 0 -141 -24.5t-92 -69.5t-51.5 -105.5t-16.5 -132.5z" />
<glyph unicode="r" horiz-adv-x="835" d="M111 0v1061h313v-152q63 96 148 136t200 40h31.5t32.5 -4l-193 -247q-59 0 -100 -21.5t-66.5 -58.5t-38 -85t-12.5 -100v-569h-315z" />
<glyph unicode="s" horiz-adv-x="1099" d="M47 352h301q4 -94 63.5 -137t149.5 -43q31 0 63.5 6t60.5 20.5t46.5 38t18.5 58.5t-14.5 57.5t-45.5 39t-80 28.5t-118 24q-102 18 -180.5 44t-130.5 64t-78.5 90t-26.5 124q0 86 41 147.5t106.5 100.5t149.5 56t168 17q86 0 172 -15t153.5 -54t110.5 -104.5t47 -163.5 h-287q-2 39 -17 68.5t-42 49t-59.5 29.5t-69.5 10q-88 0 -130 -34.5t-42 -81.5q0 -43 49 -71t114.5 -46.5t133 -29.5t102.5 -21q53 -16 103.5 -39t88.5 -56.5t61.5 -82.5t23.5 -117q0 -102 -45 -170t-117 -109t-161 -58.5t-179 -17.5q-96 0 -186.5 20.5t-160 66.5 t-112.5 118t-45 174z" />
<glyph unicode="t" horiz-adv-x="536" d="M0 862v199h111v217l313 143v-360h113v-199h-111v-862h-315v862h-111z" />
<glyph unicode="u" horiz-adv-x="1251" d="M111 338v723h313v-592q0 -47 8 -91t28.5 -78t56.5 -53.5t91 -19.5q57 0 98.5 21.5t68 57.5t38.5 83t12 100v572h316v-1061h-316v152q-61 -96 -146 -137.5t-202 -41.5q-82 0 -149.5 26t-115.5 74t-74.5 114.5t-26.5 150.5z" />
<glyph unicode="v" horiz-adv-x="1036" d="M0 1061h326l192 -561l191 561h327l-354 -1061h-328z" />
<glyph unicode="w" horiz-adv-x="1966" d="M111 338v723h313v-592q0 -47 8 -91t28.5 -78t56.5 -53.5t91 -19.5q57 0 99.5 21.5t68 58.5t37.5 84t12 98v572h314v-592q0 -47 8 -91t28.5 -78t56.5 -53.5t91 -19.5q57 0 99 21.5t68 58.5t38 84t12 98v572h315v-1061h-315v152q-61 -96 -147 -137.5t-201 -41.5 q-129 0 -218 60.5t-124 169.5q-51 -123 -144.5 -176.5t-228.5 -53.5q-84 0 -151.5 26t-114.5 74t-73.5 114.5t-26.5 150.5z" />
<glyph unicode="x" horiz-adv-x="1079" d="M0 0l369 530l-369 531h342l199 -277l196 277h342l-368 -531l368 -530h-342l-196 276l-197 -276h-344z" />
<glyph unicode="y" horiz-adv-x="1251" d="M98 -109h312q14 -68 71.5 -112.5t124.5 -44.5q61 0 102.5 24.5t68 64.5t37.5 89t11 98v142q-61 -96 -146 -137.5t-202 -41.5q-82 0 -149.5 26t-115.5 74t-74.5 114.5t-26.5 150.5v723h313v-592q0 -47 8 -91t28.5 -78t56.5 -53.5t91 -19.5q57 0 98.5 21.5t68 57.5t38.5 83 t12 100v572h316v-1030q0 -86 -20.5 -173t-77 -157t-159 -114t-268.5 -44q-92 0 -180 15.5t-158.5 55.5t-118.5 107.5t-61 169.5z" />
<glyph unicode="z" horiz-adv-x="1062" d="M29 0v248l557 581h-510v232h911v-246l-549 -584h326q70 0 93.5 26t23.5 79l182 -94q0 -45 -7 -88t-31 -77t-68 -55.5t-117 -21.5h-811z" />
<glyph unicode="{" horiz-adv-x="806" d="M92 406v245q29 0 58.5 12.5t53 34t39 53t15.5 72.5v400q0 121 74 186.5t182 65.5h201v-246h-78q-63 0 -85 -38t-22 -110v-331q0 -49 -18 -89t-49 -68t-71 -44.5t-83 -22.5q47 -6 87 -21.5t70 -43t46 -69.5t16 -101v-318q0 -80 27 -114.5t92 -34.5h68v-246h-201 q-109 0 -182.5 66.5t-73.5 187.5v385q0 86 -47 129t-119 60z" />
<glyph unicode="|" horiz-adv-x="466" d="M111 0v1475h245v-1475h-245z" />
<glyph unicode="}" horiz-adv-x="806" d="M92 -176h68q66 0 91 35t25 114v318q0 59 17.5 101t47.5 69.5t70 43t87 21.5q-43 6 -83 22.5t-71 44.5t-49.5 67.5t-18.5 89.5v331q0 72 -21.5 110t-84.5 38h-78v246h201q109 0 182.5 -66t73.5 -186v-400q0 -41 14.5 -72.5t38 -53t53 -34t60.5 -12.5v-245 q-72 -16 -119 -59.5t-47 -129.5v-385q0 -121 -74 -187.5t-182 -66.5h-201v246z" />
<glyph unicode="~" horiz-adv-x="1089" d="M76 752q35 68 94 122t158 56q53 0 112.5 -20.5t118.5 -47.5q57 -25 112.5 -48t96.5 -23q61 0 103 46t77 99l66 -215q-23 -33 -47.5 -64.5t-53 -56.5t-65.5 -40t-82 -15q-55 0 -104.5 20.5t-102.5 46.5q-49 27 -107.5 49.5t-129.5 22.5q-70 0 -111 -45t-70 -102z" />
<glyph unicode="&#xa1;" horiz-adv-x="536" d="M76 1333q0 37 16.5 68t44 52.5t62 33.5t69.5 12t70 -12t62.5 -33.5t44 -52.5t16.5 -68q0 -39 -16.5 -69.5t-44 -52t-62.5 -33t-70 -11.5t-69.5 11.5t-62 33t-44 52t-16.5 69.5zM86 0l100 1087h162l103 -1087h-365z" />
<glyph unicode="&#xa2;" horiz-adv-x="1216" d="M92 731q0 109 32 203t91 167t143 120t189 63v191h188v-187q82 -10 156 -39.5t130 -80t92 -121t44 -162.5h-299q-10 86 -65.5 132t-139.5 46q-74 0 -121 -28.5t-74.5 -76t-38.5 -106.5t-11 -121q0 -59 11 -116.5t38.5 -102.5t74 -72.5t115.5 -27.5q90 0 146.5 58t64.5 144 h299q-23 -184 -136.5 -293.5t-285.5 -132.5v-188h-188v190q-102 14 -186.5 60.5t-143.5 117t-92 164t-33 199.5z" />
<glyph unicode="&#xa3;" horiz-adv-x="1204" d="M14 614v205h144q-35 53 -58.5 114.5t-23.5 123.5q0 111 44 192.5t116.5 137t167 83t196.5 27.5q248 0 386 -129t142 -379h-307q2 49 -10 96.5t-39 82t-67.5 56t-94.5 21.5q-88 0 -146 -42t-58 -136q0 -31 10 -62.5t24.5 -64.5t30.5 -63.5t29 -57.5h248v-205h-191 q10 -25 14 -50t4 -54q0 -78 -38.5 -145.5t-100.5 -114.5q53 33 121 33q41 0 81 -10.5t80 -22.5t79 -22.5t77 -10.5q35 0 63 13.5t50.5 34t42 46t35.5 49.5l129 -225q-70 -78 -158 -124t-194 -46q-74 0 -143.5 22.5t-141.5 39.5q-57 12 -107.5 17t-98.5 -1t-95 -24.5 t-96 -53.5l-131 182q43 31 85 67t74.5 77t52 89t19.5 107q0 33 -6 66t-21 61h-219z" />
<glyph unicode="&#xa4;" horiz-adv-x="1177" d="M49 295l123 119q-41 47 -68.5 128t-27.5 167q0 88 27.5 166.5t68.5 125.5l-123 117l127 125l117 -117q47 41 127 68t168 27q86 0 164.5 -27t126.5 -68l118 117l123 -123l-119 -119q41 -47 71 -125.5t30 -166.5q0 -86 -27.5 -166t-73.5 -129l119 -119l-121 -123l-120 123 q-53 -49 -129 -73.5t-162 -24.5q-88 0 -164 23.5t-131 70.5l-121 -119zM307 709q0 -66 23.5 -117t63.5 -88t90.5 -56.5t103.5 -19.5t103 19.5t90 55.5t63.5 88t23.5 118h2q0 66 -24.5 118t-64.5 87.5t-90 55t-103 19.5t-103.5 -19.5t-89.5 -55t-63.5 -88t-24.5 -117.5z" />
<glyph unicode="&#xa5;" d="M111 1188v287h348v-254q0 -43 5 -88.5t21.5 -82t47 -61t83.5 -24.5t84 24.5t47.5 62.5t21.5 83t5 86v254h348v-287q0 -201 -84 -318.5t-247 -154.5v-105h305v-198h-305v-103h305v-198h-305v-111h-349v111h-305v198h305v103h-305v198h305v105q-332 78 -331 473z" />
<glyph unicode="&#xa6;" horiz-adv-x="466" d="M111 0v541h245v-541h-245zM111 934v541h245v-541h-245z" />
<glyph unicode="&#xa7;" horiz-adv-x="1298" d="M39 516q0 193 147 313q-76 53 -111.5 119t-35.5 160q0 117 55.5 193.5t140 122.5t187 65.5t199.5 19.5q102 0 205.5 -17t189.5 -63.5t142 -125t65 -199.5h-338q-10 102 -85 152.5t-171 50.5q-41 0 -82 -8.5t-75 -27t-55.5 -51t-21.5 -81.5q0 -41 31 -72t79 -54.5 t107.5 -40t116.5 -28.5t107.5 -22.5t81.5 -18.5q70 -20 132 -50t108 -73t74 -102.5t28 -140.5q0 -98 -37 -175t-111 -139q76 -53 112 -118.5t36 -159.5q0 -117 -55.5 -195t-140.5 -124t-187.5 -64.5t-198.5 -18.5q-102 0 -206.5 17.5t-189.5 63.5t-141.5 125t-64.5 200h338 q10 -100 83.5 -151.5t170.5 -51.5q41 0 83 8t75.5 26.5t55 51.5t21.5 82q0 41 -30.5 71.5t-79 54t-107.5 40t-117.5 29t-108.5 21.5t-81 20q-70 20 -132.5 49.5t-108.5 72.5t-72.5 102.5t-26.5 141.5zM395 559q0 -51 21.5 -83t55.5 -52.5t75 -31.5t82 -21q37 -10 73.5 -16.5 t73.5 -16.5q53 20 90 58.5t37 97.5q0 51 -21.5 82.5t-55 52t-75.5 32t-83 21.5q-35 10 -73 16.5t-73 16.5q-53 -20 -90 -58.5t-37 -97.5z" />
<glyph unicode="&#xa8;" horiz-adv-x="0" d="M197 1294q0 39 16 70t43 52.5t61.5 32.5t69.5 11t70 -11t62.5 -32.5t44 -52.5t16.5 -70t-16.5 -69.5t-44 -52t-62.5 -33t-70 -11.5t-69.5 11.5t-61.5 33t-43 52t-16 69.5zM678 1294q0 39 16.5 70t44 52.5t62.5 32.5t69 11q35 0 70 -11t62.5 -32.5t44 -52.5t16.5 -70 t-16.5 -69.5t-44 -52t-62.5 -33t-70 -11.5t-69.5 11.5t-62 33t-44 52t-16.5 69.5z" />
<glyph unicode="&#xa9;" horiz-adv-x="1683" d="M76 737q0 160 60.5 299.5t163.5 242.5t242.5 163.5t299.5 60.5t299 -60.5t242.5 -163.5t164 -242.5t60.5 -299.5t-60.5 -299t-164 -242.5t-243 -164t-298.5 -60.5q-160 0 -299.5 60.5t-242.5 164t-163.5 243t-60.5 298.5zM276 737q0 -119 44.5 -223t120 -183t179 -124 t222.5 -45t222 45t179 124t120 183t44 223t-44 223.5t-120 183.5t-179 124t-222 45t-222.5 -45t-179 -124t-120 -183.5t-44.5 -223.5zM434 733q0 94 29 174t82 138.5t131 92t174 33.5q141 0 240.5 -78.5t126.5 -238.5h-158q-16 74 -70.5 110.5t-132.5 36.5 q-117 0 -180.5 -73.5t-63.5 -190.5q0 -119 66.5 -196.5t175.5 -77.5q76 0 132 37t71 123h164h2q-29 -162 -130.5 -245t-236.5 -83q-96 0 -174 33.5t-133 92t-85 139.5t-30 173z" />
<glyph unicode="&#xaa;" horiz-adv-x="905" d="M76 1161q0 74 24.5 136.5t69.5 106.5t106.5 69.5t135.5 25.5q53 0 101 -13t87 -42v39h195v-635h-195v45q-78 -61 -192 -62q-72 0 -132.5 25t-105.5 69t-69.5 104.5t-24.5 131.5zM270 1161q0 -86 41 -136t133 -50q27 0 54.5 7t50 22.5t37 37t14.5 50.5v161 q0 25 -15.5 43.5t-39 31.5t-50 20.5t-46.5 7.5q-98 0 -138.5 -54.5t-40.5 -140.5z" />
<glyph unicode="&#xab;" horiz-adv-x="837" d="M92 598v279l303 270v-254l-162 -156l162 -149v-260zM442 598v279l303 270v-254l-161 -156l161 -149v-260z" />
<glyph unicode="&#xac;" horiz-adv-x="536" d="M0 506v168l111 88v713h313v-469l113 88v-168l-111 -88v-838h-315v594z" />
<glyph unicode="&#xad;" horiz-adv-x="755" d="M92 416v262h572v-262h-572z" />
<glyph unicode="&#xae;" horiz-adv-x="923" d="M76 1116q0 80 29.5 149.5t82 122t123 82t150.5 29.5t150.5 -29.5t122.5 -82t83 -122t31 -149.5t-31 -149.5t-83 -121.5t-122.5 -82t-150.5 -30t-150.5 30t-123 82t-82 121.5t-29.5 149.5zM180 1116q0 -59 21.5 -110.5t60.5 -89t89 -60t110 -22.5q59 0 110.5 22.5t89 60 t59 89t21.5 110.5q0 57 -21.5 109.5t-59 90.5t-89 60.5t-110.5 22.5t-109.5 -22.5t-89.5 -60.5t-60.5 -90t-21.5 -110zM313 911v404h152q80 0 123 -26.5t43 -96.5q0 -55 -30 -80t-73 -29l99 -172h-86l-92 166h-56v-166h-80zM391 1141h82q33 0 53.5 12t20.5 47t-27.5 43 t-56.5 8h-72v-110z" />
<glyph unicode="&#xaf;" horiz-adv-x="0" d="M309 1190v151h639v-151h-639z" />
<glyph unicode="&#xb0;" horiz-adv-x="755" d="M76 1196q0 63 22.5 119.5t63.5 96.5t95 63.5t120 23.5t121 -23.5t96 -63.5t63.5 -96.5t22.5 -119.5q0 -66 -22.5 -121t-63.5 -95t-96.5 -63.5t-118.5 -23.5q-66 0 -121 22.5t-96 63.5t-63.5 96t-22.5 121zM205 1196q0 -74 51 -123t121 -49q72 0 122 49t50 123h2 q0 74 -50 123t-122 49q-35 0 -66.5 -13.5t-55.5 -37t-38 -54t-14 -67.5z" />
<glyph unicode="&#xb1;" horiz-adv-x="1218" d="M92 219v246h1034v-246h-1034zM92 784v246h393v225h246v-225h395v-246h-395v-225h-244v225h-395z" />
<glyph unicode="&#xb2;" horiz-adv-x="788" d="M61 674q-4 76 23 135t73 106.5t104 86t116 73.5q45 29 88 66t43 86t-28.5 79.5t-82.5 30.5q-76 0 -103.5 -53t-25.5 -133h-192q-8 162 80 255t243 93q59 0 115.5 -14.5t100.5 -45t71 -78.5t27 -116q0 -76 -38 -132t-92.5 -102t-113.5 -85t-102 -80h186q37 0 48 14t9 55 l146 -71q0 -78 -32 -124t-122 -46h-541z" />
<glyph unicode="&#xb3;" horiz-adv-x="780" d="M55 985h193q-6 -164 143 -164q53 0 88 29t35 82q0 51 -32.5 75.5t-86.5 24.5h-35v135h35q47 0 82 21.5t35 66.5q0 41 -37 63.5t-80 22.5q-57 0 -94 -34.5t-33 -100.5h-192q0 76 25.5 132.5t69.5 91t102.5 52t125.5 17.5q45 0 98.5 -12t98.5 -39t74.5 -67t29.5 -97 q0 -39 -18 -92t-68 -80q55 -25 82 -83t27 -111q0 -66 -28.5 -114t-76 -80t-105.5 -47t-116 -15q-72 0 -137 18t-113.5 58t-74 101.5t-17.5 145.5z" />
<glyph unicode="&#xb4;" horiz-adv-x="0" d="M350 1163l221 303h336l-340 -303h-217z" />
<glyph unicode="&#xb5;" horiz-adv-x="1251" d="M111 -422v1483h313v-592q0 -47 8 -91t28.5 -78t56.5 -53.5t91 -19.5q57 0 98.5 21.5t68 57.5t38.5 83t12 100v572h316v-1061h-316v152q-37 -68 -92 -108t-123 -50q-53 -10 -99 -2t-85 28v-442h-315z" />
<glyph unicode="&#xb6;" d="M76 1100q0 106 37 179t102.5 116t155.5 61.5t196 18.5h555v-1897h-219v1729h-151v-1729h-220v1163q-219 0 -337.5 97.5t-118.5 261.5z" />
<glyph unicode="&#xb7;" horiz-adv-x="536" d="M76 737q0 39 16.5 70t44 52.5t62 32.5t69.5 11t70 -11t62.5 -32.5t44 -52.5t16.5 -70t-16.5 -69.5t-44 -52t-62.5 -33t-70 -11.5t-69.5 11.5t-62 33t-44 52t-16.5 69.5z" />
<glyph unicode="&#xb8;" horiz-adv-x="0" d="M377 -399l37 82q41 -12 82 -25.5t86 -13.5q41 0 80.5 17t39.5 67q0 37 -31.5 55t-62.5 18q-47 0 -88 -22l-47 43l115 178h100l-86 -129q18 8 42 10t46 2q37 0 71 -9t61.5 -27.5t44 -48t16.5 -70.5q0 -51 -23.5 -86t-59.5 -55.5t-81 -29t-88 -8.5q-76 0 -133.5 14.5 t-120.5 37.5z" />
<glyph unicode="&#xb9;" horiz-adv-x="616" d="M76 1296q0 33 5 65t21.5 57.5t49 41t86.5 15.5h268v-811h-219v628h-15q-29 0 -36 -18.5t-7 -52.5z" />
<glyph unicode="&#xba;" horiz-adv-x="827" d="M76 1165q0 66 20.5 126.5t62.5 106.5t105.5 73.5t149.5 27.5t149.5 -27.5t105.5 -73.5t62.5 -106.5t20.5 -126.5t-20.5 -126t-62.5 -106t-105.5 -74t-149.5 -28t-149.5 28t-105.5 74t-62.5 106.5t-20.5 125.5zM268 1165q0 -33 7.5 -66.5t23.5 -61t45 -46t70 -18.5 t68.5 18.5t45 46t24.5 61t7 66.5t-7 67t-24.5 61.5t-45 45t-68.5 17.5t-70 -17.5t-45 -45t-23.5 -61.5t-7.5 -67z" />
<glyph unicode="&#xbb;" horiz-adv-x="837" d="M92 328v254l162 155l-162 150v260l303 -270v-279zM442 328v254l162 155l-162 150v260l303 -270v-279z" />
<glyph unicode="&#xbc;" horiz-adv-x="1642" d="M76 1296q0 33 5 65t21.5 57.5t49 41t86.5 15.5h268v-811h-219v628h-15q-29 0 -36 -18.5t-7 -52.5zM260 0l807 1475h180l-809 -1475h-178zM797 193v176l370 442h197v-449h14q29 0 37 17.5t8 52.5l144 -72q0 -31 -5.5 -60.5t-20.5 -54t-46 -38.5t-82 -14h-49v-193h-209v193 h-358zM963 362h192v234z" />
<glyph unicode="&#xbd;" horiz-adv-x="1648" d="M76 1296q0 33 5 65t21.5 57.5t49 41t86.5 15.5h268v-811h-219v628h-15q-29 0 -36 -18.5t-7 -52.5zM260 0l807 1475h180l-809 -1475h-178zM922 0q-4 76 23.5 135.5t73.5 106.5t104.5 86t115.5 73q45 29 88 65t43 87q0 49 -29.5 80t-80.5 31q-76 0 -105 -53.5t-27 -133.5 h-190q-8 162 79 255t245 93q59 0 115.5 -14t99.5 -45t69.5 -79t26.5 -116q0 -76 -38 -132t-92 -102t-113.5 -86t-102.5 -81h186q39 0 49.5 14.5t10.5 57.5l143 -74q2 -78 -30 -123t-122 -45h-542z" />
<glyph unicode="&#xbe;" horiz-adv-x="1771" d="M55 985h193q-6 -164 143 -164q53 0 88 29t35 82q0 51 -32.5 75.5t-86.5 24.5h-35v135h35q47 0 82 21.5t35 66.5q0 41 -37 63.5t-80 22.5q-57 0 -94 -34.5t-33 -100.5h-192q0 76 25.5 132.5t69.5 91t102.5 52t125.5 17.5q45 0 98.5 -12t98.5 -39t74.5 -67t29.5 -97 q0 -39 -18 -92t-68 -80q55 -25 82 -83t27 -111q0 -66 -28.5 -114t-76 -80t-105.5 -47t-116 -15q-72 0 -137 18t-113.5 58t-74 101.5t-17.5 145.5zM387 0l807 1475h182l-809 -1475h-180zM924 193v176l372 442h195v-449h16q29 0 36 17.5t7 52.5l146 -72q0 -31 -5 -60.5 t-21.5 -54t-46.5 -38.5t-81 -14h-51v-193h-209v193h-358zM1092 362h190v234z" />
<glyph unicode="&#xbf;" horiz-adv-x="1200" d="M76 377q-2 90 22.5 148.5t62.5 97.5t85 65.5t90 54.5q41 27 66.5 50.5t41 51t21.5 61.5t6 79v129h295v-127q0 -41 -2 -91t-17.5 -101.5t-47 -100.5t-91.5 -86q-20 -14 -53 -30.5t-63.5 -41t-53 -58.5t-22.5 -79q0 -74 48 -113.5t130 -39.5q106 0 155.5 70.5t43.5 172.5 h331q-4 -98 -35.5 -191t-97 -165t-166 -115t-239.5 -43q-133 0 -229.5 36t-158 93.5t-91 129t-31.5 143.5zM426 1331q0 37 16.5 68t44 52.5t62.5 33.5t69 12q35 0 70 -12t62.5 -33.5t44 -52.5t16.5 -68q0 -39 -16.5 -69.5t-44 -52t-62.5 -33t-70 -11.5t-69.5 11.5t-62 33 t-44 52t-16.5 69.5z" />
<glyph unicode="&#xc0;" d="M111 0v1014q0 250 129 372.5t376 122.5q254 0 380 -124.5t126 -368.5v-1016h-348v602h-315v-602h-348zM334 1868h334l219 -303h-219zM459 872h315v109q0 43 -5 88t-21.5 82t-48 61.5t-83.5 24.5q-53 0 -83.5 -24.5t-47 -61.5t-21.5 -82t-5 -88v-109z" />
<glyph unicode="&#xc1;" d="M111 0v1014q0 250 129 372.5t376 122.5q254 0 380 -124.5t126 -368.5v-1016h-348v602h-315v-602h-348zM352 1565l219 303h336l-338 -303h-217zM459 872h315v109q0 43 -5 88t-21.5 82t-48 61.5t-83.5 24.5q-53 0 -83.5 -24.5t-47 -61.5t-21.5 -82t-5 -88v-109z" />
<glyph unicode="&#xc2;" d="M111 0v1014q0 250 129 372.5t376 122.5q254 0 380 -124.5t126 -368.5v-1016h-348v602h-315v-602h-348zM246 1567l243 301h261l245 -299l-235 -2l-142 180l-135 -180h-237zM459 872h315v109q0 43 -5 88t-21.5 82t-48 61.5t-83.5 24.5q-53 0 -83.5 -24.5t-47 -61.5 t-21.5 -82t-5 -88v-109z" />
<glyph unicode="&#xc3;" d="M111 0v1014q0 250 129 372.5t376 122.5q254 0 380 -124.5t126 -368.5v-1016h-348v602h-315v-602h-348zM272 1573q0 41 10.5 86t35 84t64.5 63.5t97 24.5q43 0 87 -14.5t84 -31t72 -30.5t54 -14q37 0 61.5 21.5t32.5 72.5h138q-2 -51 -16.5 -97t-41 -80t-65.5 -54.5 t-90 -20.5q-45 0 -86 13.5t-78 29.5t-72 29.5t-67 13.5q-37 0 -60.5 -31.5t-28.5 -64.5h-131zM459 872h315v109q0 43 -5 88t-21.5 82t-48 61.5t-83.5 24.5q-53 0 -83.5 -24.5t-47 -61.5t-21.5 -82t-5 -88v-109z" />
<glyph unicode="&#xc4;" d="M111 0v1014q0 250 129 372.5t376 122.5q254 0 380 -124.5t126 -368.5v-1016h-348v602h-315v-602h-348zM195 1696q0 39 16 69.5t44 52t61.5 33t68.5 11.5t69.5 -11.5t62.5 -33t44.5 -52t16.5 -69.5q0 -37 -16.5 -68t-44.5 -52.5t-62.5 -33.5t-69.5 -12t-68.5 12 t-61.5 33.5t-44 52.5t-16 68zM459 872h315v109q0 43 -5 88t-21.5 82t-48 61.5t-83.5 24.5q-53 0 -83.5 -24.5t-47 -61.5t-21.5 -82t-5 -88v-109zM676 1696q0 39 16.5 69.5t44 52t62.5 33t69 11.5q35 0 70 -11.5t62.5 -33t44 -52t16.5 -69.5q0 -37 -16.5 -68t-44 -52.5 t-62.5 -33.5t-70 -12t-69.5 12t-62 33.5t-44 52.5t-16.5 68z" />
<glyph unicode="&#xc5;" d="M111 0v1014q0 250 129 372.5t376 122.5q254 0 380 -124.5t126 -368.5v-1016h-348v602h-315v-602h-348zM397 1745q0 45 17.5 84t47.5 68.5t69.5 47t84.5 17.5q43 0 83 -17.5t70 -47t47.5 -68.5t17.5 -84t-17.5 -85t-46.5 -69.5t-68.5 -47t-85.5 -17.5q-45 0 -84.5 17.5 t-69.5 47t-47.5 69.5t-17.5 85zM459 872h315v109q0 43 -5 88t-21.5 82t-48 61.5t-83.5 24.5q-53 0 -83.5 -24.5t-47 -61.5t-21.5 -82t-5 -88v-109zM500 1745q0 -47 34.5 -82t81.5 -35t81 36t34 81q0 47 -33.5 81t-81.5 34q-45 0 -80.5 -34t-35.5 -81z" />
<glyph unicode="&#xc6;" horiz-adv-x="1896" d="M111 0v1014q0 250 129 372.5t376 122.5q227 0 351 -112v78h819v-291h-664v-312h596v-270h-596v-311h682v-291h-1030v602h-315v-602h-348zM459 872h315v109q0 43 -5 88t-21.5 82t-48 61.5t-83.5 24.5q-53 0 -83.5 -24.5t-47 -61.5t-21.5 -82t-5 -88v-109z" />
<glyph unicode="&#xc7;" horiz-adv-x="1527" d="M76 733q0 166 49 308.5t143 246t228.5 162.5t306.5 59q131 0 244.5 -35.5t199.5 -105.5t139.5 -173t65.5 -239h-340q-8 61 -35.5 110.5t-70.5 85.5t-97.5 55.5t-113.5 19.5q-102 0 -172 -45t-115 -116t-64.5 -158t-19.5 -173t19.5 -172t62.5 -156.5t112.5 -114.5 t169.5 -44q74 0 130.5 25.5t95.5 69.5t63.5 103.5t34.5 126.5h340q-4 -129 -52 -236.5t-129 -187t-189.5 -127t-233.5 -55.5l-64 -96q18 8 42 10t46 2q37 0 71 -9t61.5 -27.5t44 -48t16.5 -70.5q0 -51 -23.5 -86t-59.5 -55.5t-81 -29t-88 -8.5q-74 0 -131 14.5t-123 37.5 l37 82q41 -12 83 -25.5t87 -13.5q41 0 80 17t39 67q0 37 -31 55t-63 18q-47 0 -86 -22l-50 43l95 145q-158 8 -283 70.5t-212 165t-133 237.5t-46 293z" />
<glyph unicode="&#xc8;" d="M111 0v1475h1011v-291h-663v-312h598v-270h-598v-311h682v-291h-1030zM311 1868h334l217 -303h-217z" />
<glyph unicode="&#xc9;" horiz-adv-x="1335" d="M111 0v1475h1011v-291h-663v-312h598v-270h-598v-311h682v-291h-1030zM399 1565l219 303h338l-340 -303h-217z" />
<glyph unicode="&#xca;" d="M111 0v1475h1011v-291h-663v-312h598v-270h-598v-311h682v-291h-1030zM248 1567l244 301h260l245 -299l-235 -2l-141 180l-136 -180h-237z" />
<glyph unicode="&#xcb;" d="M111 0v1475h1011v-291h-663v-312h598v-270h-598v-311h682v-291h-1030zM180 1696q0 39 16.5 69.5t44 52t62.5 33t70 11.5t69.5 -11.5t62 -33t44 -52t16.5 -69.5q0 -37 -16.5 -68t-44 -52.5t-62 -33.5t-69.5 -12t-70 12t-62.5 33.5t-44 52.5t-16.5 68zM664 1696 q0 39 16 69.5t44 52t62.5 33t69.5 11.5t68.5 -11.5t61.5 -33t44.5 -52t16.5 -69.5q0 -37 -16.5 -68t-44.5 -52.5t-61.5 -33.5t-68.5 -12t-69.5 12t-62.5 33.5t-44 52.5t-16 68z" />
<glyph unicode="&#xcc;" horiz-adv-x="569" d="M-6 1868h334l217 -303h-217zM111 0v1475h348v-1475h-348z" />
<glyph unicode="&#xcd;" horiz-adv-x="569" d="M27 1565l219 303h336l-338 -303h-217zM111 0v1475h348v-1475h-348z" />
<glyph unicode="&#xce;" horiz-adv-x="569" d="M-84 1567l244 301h258l248 -299l-238 -2l-139 180l-137 -180h-236zM111 0v1475h348v-1475h-348z" />
<glyph unicode="&#xcf;" horiz-adv-x="569" d="M-137 1696q0 39 16.5 69.5t44 52t62 33t69.5 11.5t70 -11.5t62.5 -33t44 -52t16.5 -69.5q0 -37 -16.5 -68t-44 -52.5t-62.5 -33.5t-70 -12t-69.5 12t-62 33.5t-44 52.5t-16.5 68zM111 0v1475h348v-1475h-348zM346 1696q0 39 16.5 69.5t44 52t62.5 33t70 11.5t68.5 -11.5 t61 -33t44 -52t16.5 -69.5q0 -37 -16.5 -68t-44 -52.5t-61.5 -33.5t-68 -12q-35 0 -70 12t-62.5 33.5t-44 52.5t-16.5 68z" />
<glyph unicode="&#xd0;" horiz-adv-x="1363" d="M-4 662v196h115v617h526q168 0 291 -56.5t202.5 -156t118.5 -233.5t39 -290q0 -176 -48 -313t-141 -231.5t-230.5 -144.5t-313.5 -50h-444v662h-115zM459 291h80q104 0 180 34.5t125 95t72.5 143.5t23.5 179q0 98 -25.5 180.5t-78 139.5t-130 89t-180.5 32h-67v-324h264 v-198h-264v-371z" />
<glyph unicode="&#xd1;" d="M111 0v1016q0 248 129 370.5t376 122.5q254 0 380 -124.5t126 -368.5v-1016h-348v981q0 43 -5 88t-21.5 82t-48 61.5t-83.5 24.5q-53 0 -83.5 -24.5t-47 -61.5t-21.5 -82t-5 -88v-981h-348zM279 1573q0 41 11 86t35.5 84t64.5 63.5t95 24.5q43 0 87 -14.5t84 -31 t73 -30.5t55 -14q35 0 59.5 21.5t35.5 72.5h135q-2 -51 -16.5 -97t-41 -80t-65.5 -54.5t-90 -20.5q-45 0 -86 13.5t-78 29.5t-72 29.5t-67 13.5q-35 0 -59.5 -31.5t-28.5 -64.5h-131z" />
<glyph unicode="&#xd2;" horiz-adv-x="1601" d="M76 737q0 162 50 303.5t144.5 246t228.5 163.5t302 59t302 -59t228 -163.5t144.5 -246t50.5 -303.5t-50.5 -303t-144.5 -245.5t-228 -164t-302 -59.5t-302 59.5t-228.5 164t-144.5 245.5t-50 303zM424 737q0 -88 20.5 -175t66.5 -156.5t116.5 -113.5t173.5 -44 q100 0 171.5 44t117 113.5t66 156.5t20.5 175h2q0 88 -21.5 175t-67 157t-117 114t-171.5 44q-102 0 -173 -44t-117 -114t-66.5 -157t-20.5 -175zM428 1868h334l219 -303h-219z" />
<glyph unicode="&#xd3;" horiz-adv-x="1601" d="M76 737q0 162 50 303.5t144.5 246t228.5 163.5t302 59t302 -59t228 -163.5t144.5 -246t50.5 -303.5t-50.5 -303t-144.5 -245.5t-228 -164t-302 -59.5t-302 59.5t-228.5 164t-144.5 245.5t-50 303zM424 737q0 -88 20.5 -175t66.5 -156.5t116.5 -113.5t173.5 -44 q100 0 171.5 44t117 113.5t66 156.5t20.5 175h2q0 88 -21.5 175t-67 157t-117 114t-171.5 44q-102 0 -173 -44t-117 -114t-66.5 -157t-20.5 -175zM549 1565l219 303h336l-338 -303h-217z" />
<glyph unicode="&#xd4;" horiz-adv-x="1601" d="M76 737q0 162 50 303.5t144.5 246t228.5 163.5t302 59t302 -59t228 -163.5t144.5 -246t50.5 -303.5t-50.5 -303t-144.5 -245.5t-228 -164t-302 -59.5t-302 59.5t-228.5 164t-144.5 245.5t-50 303zM422 1567l244 301h260l245 -299l-235 -2l-141 180l-136 -180h-237z M424 737q0 -88 20.5 -175t66.5 -156.5t116.5 -113.5t173.5 -44q100 0 171.5 44t117 113.5t66 156.5t20.5 175h2q0 88 -21.5 175t-67 157t-117 114t-171.5 44q-102 0 -173 -44t-117 -114t-66.5 -157t-20.5 -175z" />
<glyph unicode="&#xd5;" horiz-adv-x="1601" d="M76 737q0 162 50 303.5t144.5 246t228.5 163.5t302 59t302 -59t228 -163.5t144.5 -246t50.5 -303.5t-50.5 -303t-144.5 -245.5t-228 -164t-302 -59.5t-302 59.5t-228.5 164t-144.5 245.5t-50 303zM424 737q0 -88 20.5 -175t66.5 -156.5t116.5 -113.5t173.5 -44 q100 0 171.5 44t117 113.5t66 156.5t20.5 175h2q0 88 -21.5 175t-67 157t-117 114t-171.5 44q-102 0 -173 -44t-117 -114t-66.5 -157t-20.5 -175zM463 1573q0 41 11 86t36 84t64.5 63.5t95.5 24.5q45 0 89 -14.5t83 -31t71.5 -30.5t55.5 -14q35 0 60.5 21.5t33.5 72.5h137 q-2 -51 -16.5 -97t-42 -80t-66.5 -54.5t-90 -20.5q-45 0 -86 13.5t-78 29.5t-71.5 29.5t-67.5 13.5q-35 0 -58.5 -31.5t-27.5 -64.5h-133z" />
<glyph unicode="&#xd6;" horiz-adv-x="1601" d="M76 737q0 162 50 303.5t144.5 246t228.5 163.5t302 59t302 -59t228 -163.5t144.5 -246t50.5 -303.5t-50.5 -303t-144.5 -245.5t-228 -164t-302 -59.5t-302 59.5t-228.5 164t-144.5 245.5t-50 303zM354 1696q0 39 16.5 69.5t44 52t62.5 33t70 11.5t69.5 -11.5t62.5 -33 t44 -52t16 -69.5q0 -37 -16 -68t-44 -52.5t-62.5 -33.5t-69.5 -12t-70 12t-62.5 33.5t-44 52.5t-16.5 68zM424 737q0 -88 20.5 -175t66.5 -156.5t116.5 -113.5t173.5 -44q100 0 171.5 44t117 113.5t66 156.5t20.5 175h2q0 88 -21.5 175t-67 157t-117 114t-171.5 44 q-102 0 -173 -44t-117 -114t-66.5 -157t-20.5 -175zM838 1696q0 39 16 69.5t44 52t62.5 33t69.5 11.5t69 -11.5t61.5 -33t44 -52t16.5 -69.5q0 -37 -16.5 -68t-44 -52.5t-61.5 -33.5t-69 -12t-69.5 12t-62.5 33.5t-44 52.5t-16 68z" />
<glyph unicode="&#xd7;" horiz-adv-x="974" d="M0 424l313 313l-313 314l172 174l313 -316l316 316l174 -172l-316 -316l316 -313l-176 -174l-312 315l-313 -315z" />
<glyph unicode="&#xd8;" horiz-adv-x="1601" d="M76 731q0 164 51 304.5t145.5 242.5t228.5 160.5t300 58.5q145 0 264 -44t211 -126l160 174l77 -65l-163 -181q84 -100 130 -233t46 -291q0 -164 -51.5 -304t-145.5 -242.5t-228 -161t-300 -58.5q-143 0 -261 44t-208 122l-168 -186l-76 71l170 187q-88 102 -135 236 t-47 292zM424 731q0 -84 16.5 -153.5t44.5 -122.5l580 641v-2q-55 63 -124 91.5t-140 28.5q-70 0 -137.5 -26.5t-121 -83.5t-86 -149.5t-32.5 -223.5zM541 362q53 -59 120.5 -86.5t139.5 -27.5q70 0 136.5 26.5t119.5 84t87 149.5t34 223q0 80 -15.5 147.5t-44.5 120.5z" />
<glyph unicode="&#xd9;" d="M111 459v1016h348v-981q0 -43 5 -88.5t21.5 -82t47 -61t83.5 -24.5t84 24.5t47.5 61t21.5 82t5 88.5v981h348v-1014q0 -250 -129 -373t-377 -123q-254 0 -379.5 125t-125.5 369zM326 1868h336l217 -303h-220z" />
<glyph unicode="&#xda;" d="M111 459v1016h348v-981q0 -43 5 -88.5t21.5 -82t47 -61t83.5 -24.5t84 24.5t47.5 61t21.5 82t5 88.5v981h348v-1014q0 -250 -129 -373t-377 -123q-254 0 -379.5 125t-125.5 369zM375 1565l219 303h336l-338 -303h-217z" />
<glyph unicode="&#xdb;" d="M111 459v1016h348v-981q0 -43 5 -88.5t21.5 -82t47 -61t83.5 -24.5t84 24.5t47.5 61t21.5 82t5 88.5v981h348v-1014q0 -250 -129 -373t-377 -123q-254 0 -379.5 125t-125.5 369zM236 1567l243 301h260l246 -299l-235 -2l-142 180l-135 -180h-237z" />
<glyph unicode="&#xdc;" d="M111 459v1016h348v-981q0 -43 5 -88.5t21.5 -82t47 -61t83.5 -24.5t84 24.5t47.5 61t21.5 82t5 88.5v981h348v-1016v2q0 -250 -129 -373t-377 -123q-254 0 -379.5 125t-125.5 369zM180 1696q0 39 16.5 69.5t44 52t62.5 33t70 11.5t69.5 -11.5t62 -33t44 -52t16.5 -69.5 q0 -37 -16.5 -68t-44 -52.5t-62 -33.5t-69.5 -12t-70 12t-62.5 33.5t-44 52.5t-16.5 68zM664 1696q0 39 16 69.5t44 52t62.5 33t69.5 11.5t70 -11.5t62.5 -33t44 -52t16.5 -69.5q0 -37 -16.5 -68t-44 -52.5t-62.5 -33.5t-70 -12t-69.5 12t-62.5 33.5t-44 52.5t-16 68z" />
<glyph unicode="&#xdd;" d="M111 1096v379h348v-347q0 -43 5 -88t21.5 -81.5t47 -61.5t83.5 -25t84 25t47.5 62.5t21.5 82.5t5 86v347h348v-379q0 -201 -84 -319t-247 -154v-623h-349v623q-332 78 -331 473zM373 1577l219 303h336l-338 -303h-217z" />
<glyph unicode="&#xde;" horiz-adv-x="1239" d="M111 0v1475h348v-193h190q137 0 235.5 -43t160 -110.5t90 -152.5t28.5 -169q0 -123 -41 -215t-112.5 -153.5t-173 -91.5t-220.5 -30h-157v-317h-348zM459 590h94q55 0 105.5 8t89 30.5t62.5 63t24 103.5q0 59 -19.5 97t-54.5 60.5t-83 30.5t-104 8h-114v-401z" />
<glyph unicode="&#xdf;" horiz-adv-x="1251" d="M111 0v1008q0 233 130 366t365 133q88 0 175 -22.5t157 -69.5t114 -119.5t44 -173.5q0 -111 -48.5 -185.5t-146.5 -121.5q70 -8 121 -43t85 -87t51.5 -115t17.5 -126q0 -106 -35 -190t-96.5 -142.5t-147.5 -90t-190 -31.5q-80 0 -156 12v244q41 -10 76 -10 q111 0 173 64.5t62 174.5q0 70 -22.5 116t-60.5 73.5t-90 38t-111 10.5h-27v178h20q45 0 87 8t75 28.5t51.5 57.5t18.5 92q0 86 -52.5 131t-136.5 45q-102 0 -145 -62.5t-43 -156.5v-1034h-315z" />
<glyph unicode="&#xe0;" horiz-adv-x="1374" d="M76 524q0 123 41 226.5t114.5 178.5t175 116.5t224.5 41.5q92 0 174 -25.5t143 -78.5v78h316v-1061h-314v86q-61 -53 -144 -83t-181 -30q-119 0 -219.5 41t-174 114t-114.5 174t-41 222zM328 1466h334l219 -303h-219zM391 524q0 -147 69.5 -233t225.5 -86q43 0 90 13 t85 40t63.5 63.5t25.5 86.5v270q0 41 -26.5 73.5t-66.5 56t-84 36t-81 12.5q-84 0 -141 -24.5t-92 -69.5t-51.5 -105.5t-16.5 -132.5z" />
<glyph unicode="&#xe1;" horiz-adv-x="1374" d="M76 524q0 123 41 226.5t114.5 178.5t175 116.5t224.5 41.5q92 0 174 -25.5t143 -78.5v78h316v-1061h-314v86q-61 -53 -144 -83t-181 -30q-119 0 -219.5 41t-174 114t-114.5 174t-41 222zM391 524q0 -147 69.5 -233t225.5 -86q43 0 90 13t85 40t63.5 63.5t25.5 86.5v270 q0 41 -26.5 73.5t-66.5 56t-84 36t-81 12.5q-84 0 -141 -24.5t-92 -69.5t-51.5 -105.5t-16.5 -132.5zM408 1163l219 303h336l-338 -303h-217z" />
<glyph unicode="&#xe2;" horiz-adv-x="1374" d="M76 524q0 123 41 226.5t114.5 178.5t175 116.5t224.5 41.5q92 0 174 -25.5t143 -78.5v78h316v-1061h-314v86q-61 -53 -144 -83t-181 -30q-119 0 -219.5 41t-174 114t-114.5 174t-41 222zM266 1165l244 301h258l248 -301h-238l-139 181l-137 -181h-236zM391 524 q0 -147 69.5 -233t225.5 -86q43 0 90 13t85 40t63.5 63.5t25.5 86.5v270q0 41 -26.5 73.5t-66.5 56t-84 36t-81 12.5q-84 0 -141 -24.5t-92 -69.5t-51.5 -105.5t-16.5 -132.5z" />
<glyph unicode="&#xe3;" horiz-adv-x="1374" d="M76 524q0 123 41 226.5t114.5 178.5t175 116.5t224.5 41.5q92 0 174 -25.5t143 -78.5v78h316v-1061h-314v86q-61 -53 -144 -83t-181 -30q-119 0 -219.5 41t-174 114t-114.5 174t-41 222zM338 1171q0 41 10 86.5t35 84t64.5 63.5t97.5 25q43 0 87 -14.5t84 -32t71.5 -32 t54.5 -14.5q37 0 61.5 22.5t32.5 74.5h137q-2 -51 -16.5 -97.5t-41 -81t-65.5 -55t-90 -20.5q-45 0 -86 13t-78 30.5t-71.5 31t-67.5 13.5q-37 0 -60.5 -33t-27.5 -64h-131zM391 524q0 -147 69.5 -233t225.5 -86q43 0 90 13t85 40t63.5 63.5t25.5 86.5v270q0 41 -26.5 73.5 t-66.5 56t-84 36t-81 12.5q-84 0 -141 -24.5t-92 -69.5t-51.5 -105.5t-16.5 -132.5z" />
<glyph unicode="&#xe4;" horiz-adv-x="1374" d="M76 524q0 123 41 226.5t114.5 178.5t175 116.5t224.5 41.5q92 0 174 -25.5t143 -78.5v78h316v-1061h-314v86q-61 -53 -144 -83t-181 -30q-119 0 -219.5 41t-174 114t-114.5 174t-41 222zM264 1294q0 39 16.5 70t44 52.5t62.5 32.5t70 11t69.5 -11t62 -32.5t44 -52.5 t16.5 -70t-16.5 -69.5t-44 -52t-62 -33t-69.5 -11.5t-70 11.5t-62.5 33t-44 52t-16.5 69.5zM391 524q0 -147 69.5 -233t225.5 -86q43 0 90 13t85 40t63.5 63.5t25.5 86.5v270q0 41 -26.5 73.5t-66.5 56t-84 36t-81 12.5q-84 0 -141 -24.5t-92 -69.5t-51.5 -105.5 t-16.5 -132.5zM748 1294q0 39 16 70t44 52.5t62.5 32.5t69.5 11t68.5 -11t61.5 -32.5t44 -52.5t16 -70t-16 -69.5t-44 -52t-61.5 -33t-68.5 -11.5t-69.5 11.5t-62.5 33t-44 52t-16 69.5z" />
<glyph unicode="&#xe5;" horiz-adv-x="1374" d="M76 524q0 123 41 226.5t114.5 178.5t175 116.5t224.5 41.5q92 0 174 -25.5t143 -78.5v78h316v-1061h-314v86q-61 -53 -144 -83t-181 -30q-119 0 -219.5 41t-174 114t-114.5 174t-41 222zM391 524q0 -147 69.5 -233t225.5 -86q43 0 90 13t85 40t63.5 63.5t25.5 86.5v270 q0 41 -26.5 73.5t-66.5 56t-84 36t-81 12.5q-84 0 -141 -24.5t-92 -69.5t-51.5 -105.5t-16.5 -132.5zM414 1366q0 45 17.5 84t47 68.5t69.5 47t85 17.5q43 0 83 -17.5t69.5 -47t47 -68.5t17.5 -84q0 -43 -17.5 -83t-47 -70.5t-68.5 -48t-84 -17.5t-85 17.5t-69.5 47 t-47 69.5t-17.5 85zM516 1366q0 -47 35 -82t82 -35t81 36t34 81q0 47 -35 81t-80 34q-47 0 -82 -34t-35 -81z" />
<glyph unicode="&#xe6;" horiz-adv-x="2091" d="M76 524q0 123 41 226.5t114.5 178.5t175 116.5t224.5 41.5q92 0 174 -25.5t143 -78.5v78h238v-100q59 57 138 91.5t179 34.5q96 0 185.5 -25.5t158 -76.5t113.5 -128t55 -179l-741 -270q16 -86 70.5 -144.5t158.5 -58.5q90 0 146.5 58.5t64.5 144.5h301 q-14 -104 -58 -185.5t-112.5 -136.5t-157 -84t-190.5 -29q-96 0 -174 33t-135 88v-94h-238v86q-61 -53 -144 -83t-181 -30q-119 0 -219.5 41t-174 114t-114.5 174t-41 222zM391 524q0 -147 69.5 -233t225.5 -86q43 0 89 13t85 40t63.5 63.5t24.5 86.5l2 270q0 41 -26.5 73.5 t-66.5 56t-84 36t-81 12.5q-84 0 -141 -24.5t-92 -69.5t-51.5 -105.5t-16.5 -132.5zM1270 590l422 155q-23 53 -70 82t-113 29q-59 0 -102 -20.5t-72.5 -54t-45 -79t-19.5 -94.5v-18z" />
<glyph unicode="&#xe7;" horiz-adv-x="1216" d="M76 524q0 121 41 224.5t113.5 178t175 117.5t225.5 43q96 0 184 -25.5t157.5 -76.5t113.5 -128t55 -179h-299q-10 86 -65.5 132t-139.5 46q-74 0 -122 -28.5t-75.5 -75.5t-39 -106.5t-11.5 -121.5q0 -59 11.5 -116.5t39 -102.5t73.5 -72.5t118 -27.5q88 0 145.5 58.5 t65.5 144.5h299q-12 -98 -52 -175t-101.5 -132.5t-141.5 -87t-172 -38.5l-70 -104q18 8 42 10t46 2q37 0 71 -9t61.5 -27.5t44 -48t16.5 -70.5q0 -51 -23.5 -86t-59.5 -55.5t-81 -29t-88 -8.5q-74 0 -131.5 14.5t-122.5 37.5l37 82q41 -12 83 -25.5t87 -13.5q41 0 80 17 t39 67q0 37 -31 55t-64 18q-47 0 -86 -22l-49 43l100 153q-111 8 -202.5 52.5t-157 117t-102.5 169t-37 210.5z" />
<glyph unicode="&#xe8;" horiz-adv-x="1130" d="M76 524q0 121 41 224.5t113.5 178t175 117.5t225.5 43q96 0 184 -25.5t157.5 -76.5t113.5 -128t55 -179l-740 -270q16 -86 70.5 -144.5t159.5 -58.5q88 0 145.5 58.5t65.5 144.5h299q-12 -104 -56.5 -185.5t-113 -136.5t-156.5 -84t-190 -29q-121 0 -221.5 41t-173 115 t-113.5 174t-41 221zM315 1466h334l219 -303h-219zM395 590l422 155q-23 53 -70 82t-110 29q-59 0 -102 -20.5t-73 -54t-45.5 -79t-19.5 -94.5q0 -4 -1 -9t-1 -9z" />
<glyph unicode="&#xe9;" horiz-adv-x="1130" d="M76 524q0 121 41 224.5t113.5 178t175 117.5t225.5 43q96 0 184 -25.5t157.5 -76.5t113.5 -128t55 -179l-740 -270q16 -86 70.5 -144.5t159.5 -58.5q88 0 145.5 58.5t65.5 144.5h299q-12 -104 -56.5 -185.5t-113 -136.5t-156.5 -84t-190 -29q-121 0 -221.5 41t-173 115 t-113.5 174t-41 221zM348 1163l219 303h338l-340 -303h-217zM395 590l422 155q-23 53 -70 82t-110 29q-59 0 -102 -20.5t-73 -54t-45.5 -79t-19.5 -94.5q0 -4 -1 -9t-1 -9z" />
<glyph unicode="&#xea;" horiz-adv-x="1130" d="M76 524q0 121 41 224.5t113.5 178t175 117.5t225.5 43q96 0 184 -25.5t157.5 -76.5t113.5 -128t55 -179l-740 -270q16 -86 70.5 -144.5t159.5 -58.5q88 0 145.5 58.5t65.5 144.5h299q-12 -104 -56.5 -185.5t-113 -136.5t-156.5 -84t-190 -29q-121 0 -221.5 41t-173 115 t-113.5 174t-41 221zM254 1165l244 301h258l248 -301h-238l-139 181l-138 -181h-235zM395 590l422 155q-23 53 -70 82t-110 29q-59 0 -102 -20.5t-73 -54t-45.5 -79t-19.5 -94.5q0 -4 -1 -9t-1 -9z" />
<glyph unicode="&#xeb;" horiz-adv-x="1130" d="M76 524q0 121 41 224.5t113.5 178t175 117.5t225.5 43q96 0 184 -25.5t157.5 -76.5t113.5 -128t55 -179l-740 -270q16 -86 70.5 -144.5t159.5 -58.5q88 0 145.5 58.5t65.5 144.5h299q-12 -104 -56.5 -185.5t-113 -136.5t-156.5 -84t-190 -29q-121 0 -221.5 41t-173 115 t-113.5 174t-41 221zM201 1294q0 39 16 70t44 52.5t62.5 32.5t69.5 11t70 -11t62.5 -32.5t44 -52.5t16.5 -70t-16.5 -69.5t-44 -52t-62.5 -33t-70 -11.5t-69.5 11.5t-62.5 33t-44 52t-16 69.5zM395 590l422 155q-23 53 -70 82t-110 29q-59 0 -102 -20.5t-73 -54t-45.5 -79 t-19.5 -94.5q0 -4 -1 -9t-1 -9zM684 1294q0 39 16.5 70t44 52.5t62.5 32.5t70 11t68.5 -11t61 -32.5t44 -52.5t16.5 -70t-16.5 -69.5t-44 -52t-61.5 -33t-68 -11.5q-35 0 -70 11.5t-62.5 33t-44 52t-16.5 69.5z" />
<glyph unicode="&#xec;" horiz-adv-x="536" d="M-14 1466h333l218 -303h-218zM111 0v1061h315v-1061h-315z" />
<glyph unicode="&#xed;" horiz-adv-x="536" d="M2 1163l219 303h338l-340 -303h-217zM111 0v1061h315v-1061h-315z" />
<glyph unicode="&#xee;" horiz-adv-x="536" d="M-98 1165l243 301h261l245 -301h-235l-142 181l-135 -181h-237zM111 0v1061h315v-1061h-315z" />
<glyph unicode="&#xef;" horiz-adv-x="536" d="M-150 1294q0 39 16.5 70t44.5 52.5t61.5 32.5t68.5 11t69.5 -11t62.5 -32.5t44 -52.5t16 -70t-16 -69.5t-44 -52t-62.5 -33t-69.5 -11.5t-68.5 11.5t-61.5 33t-44.5 52t-16.5 69.5zM111 0v1061h315v-1061h-315zM332 1294q0 39 16.5 70t44 52.5t62 32.5t69.5 11t70 -11 t62.5 -32.5t44 -52.5t16.5 -70t-16.5 -69.5t-44 -52t-62.5 -33t-70 -11.5t-69.5 11.5t-62 33t-44 52t-16.5 69.5z" />
<glyph unicode="&#xf0;" horiz-adv-x="1257" d="M76 508q0 111 34.5 205t99 161.5t157 106.5t204.5 39q59 0 120 -15.5t106 -50.5q-39 61 -93.5 117.5t-109.5 104.5l-158 -86l-119 127l127 71q-23 23 -45 41.5t-49 34.5l225 133q6 -4 23.5 -14t36 -23.5t35 -26t22.5 -16.5l142 80l124 -127l-127 -70q154 -143 252.5 -322 t98.5 -394q0 -133 -35 -245t-103.5 -192.5t-173 -127t-243.5 -46.5q-125 0 -226.5 36t-174 104.5t-111.5 168t-39 226.5zM389 514q0 -57 12.5 -112.5t40 -99.5t73.5 -70.5t112 -26.5t111.5 26.5t74.5 70.5t42 99.5t13 112.5t-13 111.5t-42 96.5t-74 67.5t-110 25.5 q-66 0 -112 -25.5t-74.5 -67.5t-41 -96.5t-12.5 -111.5z" />
<glyph unicode="&#xf1;" horiz-adv-x="1251" d="M111 0v1061h313v-152q63 96 147 137t201 41q82 0 150.5 -25.5t116.5 -73.5t75 -115.5t27 -151.5v-721h-316v590q0 49 -7 93t-27.5 78t-56.5 53.5t-91 19.5q-59 0 -100 -21.5t-66.5 -58.5t-38 -85t-12.5 -100v-569h-315zM266 1171q0 41 11.5 86.5t36 84t64.5 63.5t95 25 q45 0 89 -14.5t84 -32t72 -32t54 -14.5q37 0 61.5 22.5t32.5 74.5h138q-2 -51 -16.5 -97.5t-41 -81t-65.5 -55t-90 -20.5q-45 0 -86 13t-78 30.5t-72 31t-68 13.5q-37 0 -60.5 -33t-27.5 -64h-133z" />
<glyph unicode="&#xf2;" horiz-adv-x="1257" d="M76 530q0 111 33.5 211.5t101.5 177t172 122.5t246 46q141 0 245.5 -46t172 -122.5t101.5 -177t34 -211.5t-34 -211t-101.5 -176.5t-172 -123t-245.5 -46.5t-245.5 46.5t-172.5 123t-101.5 177t-33.5 210.5zM326 1466h333l220 -303h-220zM389 530q0 -55 11.5 -113.5 t39 -105.5t73.5 -76.5t116 -29.5t116 29.5t73.5 76.5t38.5 104.5t11 114.5q0 55 -11 113.5t-38.5 106t-74 77t-115.5 29.5q-70 0 -116 -29.5t-73.5 -77t-39 -104.5t-11.5 -115z" />
<glyph unicode="&#xf3;" horiz-adv-x="1257" d="M76 530q0 111 33.5 211.5t101.5 177t172 122.5t246 46q141 0 245.5 -46t172 -122.5t101.5 -177t34 -211.5t-34 -211t-101.5 -176.5t-172 -123t-245.5 -46.5t-245.5 46.5t-172.5 123t-101.5 177t-33.5 210.5zM385 1163l219 303h336l-338 -303h-217zM389 530 q0 -55 11.5 -113.5t39 -105.5t73.5 -76.5t116 -29.5t116 29.5t73.5 76.5t38.5 104.5t11 114.5q0 55 -11 113.5t-38.5 106t-74 77t-115.5 29.5q-70 0 -116 -29.5t-73.5 -77t-39 -104.5t-11.5 -115z" />
<glyph unicode="&#xf4;" horiz-adv-x="1257" d="M76 530q0 111 33.5 211.5t101.5 177t172 122.5t246 46q141 0 245.5 -46t172 -122.5t101.5 -177t34 -211.5t-34 -211t-101.5 -176.5t-172 -123t-245.5 -46.5t-245.5 46.5t-172.5 123t-101.5 177t-33.5 210.5zM248 1165l244 301h260l245 -301h-235l-141 181l-136 -181h-237 zM389 530q0 -55 11.5 -113.5t39 -105.5t73.5 -76.5t116 -29.5t116 29.5t73.5 76.5t38.5 104.5t11 114.5q0 55 -11 113.5t-38.5 106t-74 77t-115.5 29.5q-70 0 -116 -29.5t-73.5 -77t-39 -104.5t-11.5 -115z" />
<glyph unicode="&#xf5;" horiz-adv-x="1257" d="M76 530q0 111 33.5 211.5t101.5 177t172 122.5t246 46q141 0 245.5 -46t172 -122.5t101.5 -177t34 -211.5t-34 -211t-101.5 -176.5t-172 -123t-245.5 -46.5t-245.5 46.5t-172.5 123t-101.5 177t-33.5 210.5zM254 1171q0 41 10 86.5t35 84t64.5 63.5t97.5 25 q43 0 87 -14.5t84 -32t71.5 -32t54.5 -14.5q37 0 61.5 22.5t32.5 74.5h137q-2 -51 -16.5 -97.5t-41 -81t-65.5 -55t-90 -20.5q-45 0 -86 13t-78 30.5t-71.5 31t-67.5 13.5q-37 0 -60.5 -33t-27.5 -64h-131zM389 530q0 -55 11.5 -113.5t39 -105.5t73.5 -76.5t116 -29.5 t116 29.5t73.5 76.5t38.5 104.5t11 114.5q0 55 -11 113.5t-38.5 106t-74 77t-115.5 29.5q-70 0 -116 -29.5t-73.5 -77t-39 -104.5t-11.5 -115z" />
<glyph unicode="&#xf6;" horiz-adv-x="1257" d="M76 530q0 111 33.5 211.5t101.5 177t172 122.5t246 46q141 0 245.5 -46t172 -122.5t101.5 -177t34 -211.5t-34 -211t-101.5 -176.5t-172 -123t-245.5 -46.5t-245.5 46.5t-172.5 123t-101.5 177t-33.5 210.5zM197 1294q0 39 16 70t44 52.5t61.5 32.5t68.5 11t70 -11 t62.5 -32.5t44 -52.5t16.5 -70t-16.5 -69.5t-44 -52t-62.5 -33t-70 -11.5t-68.5 11.5t-61.5 33t-44 52t-16 69.5zM389 530q0 -55 11.5 -113.5t39 -105.5t73.5 -76.5t116 -29.5t116 29.5t73.5 76.5t38.5 104.5t11 114.5q0 55 -11 113.5t-38.5 106t-74 77t-115.5 29.5 q-70 0 -116 -29.5t-73.5 -77t-39 -104.5t-11.5 -115zM678 1294q0 39 16.5 70t44 52.5t62.5 32.5t69 11q35 0 70 -11t62.5 -32.5t44 -52.5t16.5 -70t-16.5 -69.5t-44 -52t-62.5 -33t-70 -11.5t-69.5 11.5t-62 33t-44 52t-16.5 69.5z" />
<glyph unicode="&#xf7;" horiz-adv-x="1218" d="M92 614v246h1034v-246h-1034zM434 311q0 74 51.5 125t124.5 51q37 0 69 -13t55.5 -37.5t37.5 -56.5t14 -69q0 -74 -50 -126t-126 -52q-78 0 -127 52.5t-49 125.5zM434 1163q0 74 51.5 126t124.5 52q74 0 125 -52t51 -126t-50 -125t-126 -51t-126 51.5t-50 124.5z" />
<glyph unicode="&#xf8;" horiz-adv-x="1257" d="M76 530q0 111 33.5 211.5t101.5 177t172 122.5t246 46q109 0 194.5 -28.5t151.5 -79.5l98 115l62 -56l-99 -110q74 -78 110 -179.5t36 -218.5q0 -111 -34 -211t-101.5 -176.5t-172 -123t-245.5 -46.5q-106 0 -191.5 29t-150.5 78l-113 -129l-63 57l112 125 q-76 78 -111.5 180.5t-35.5 216.5zM389 530q0 -43 8.5 -87t24.5 -83l375 418h2q-29 35 -70 56.5t-100 21.5q-70 0 -116 -29.5t-73.5 -77t-39 -104.5t-11.5 -115zM461 281q29 -35 69.5 -55.5t98.5 -20.5q70 0 116 29.5t73.5 76.5t38.5 104.5t11 114.5q0 88 -32 166z" />
<glyph unicode="&#xf9;" horiz-adv-x="1251" d="M111 338v723h313v-592q0 -47 8 -91t28.5 -78t56.5 -53.5t91 -19.5q57 0 98.5 21.5t68 57.5t38.5 83t12 100v572h316v-1061h-316v152q-61 -96 -146 -137.5t-202 -41.5q-82 0 -149.5 26t-115.5 74t-74.5 114.5t-26.5 150.5zM309 1466h334l219 -303h-219z" />
<glyph unicode="&#xfa;" horiz-adv-x="1251" d="M111 338v723h313v-592q0 -47 8 -91t28.5 -78t56.5 -53.5t91 -19.5q57 0 98.5 21.5t68 57.5t38.5 83t12 100v572h316v-1061h-316v152q-61 -96 -146 -137.5t-202 -41.5q-82 0 -149.5 26t-115.5 74t-74.5 114.5t-26.5 150.5zM367 1163l221 303h336l-340 -303h-217z" />
<glyph unicode="&#xfb;" horiz-adv-x="1251" d="M111 338v723h313v-592q0 -47 8 -91t28.5 -78t56.5 -53.5t91 -19.5q57 0 98.5 21.5t68 57.5t38.5 83t12 100v572h316v-1061h-316v152q-61 -96 -146 -137.5t-202 -41.5q-82 0 -149.5 26t-115.5 74t-74.5 114.5t-26.5 150.5zM246 1165l243 301h261l245 -301h-235l-142 181 l-137 -181h-235z" />
<glyph unicode="&#xfc;" horiz-adv-x="1251" d="M111 338v723h313v-592q0 -47 8 -91t28.5 -78t56.5 -53.5t91 -19.5q57 0 98.5 21.5t68 57.5t38.5 83t12 100v572h316v-1061h-316v152q-61 -96 -146 -137.5t-202 -41.5q-82 0 -149.5 26t-115.5 74t-74.5 114.5t-26.5 150.5zM201 1294q0 39 16 70t44 52.5t62.5 32.5t69.5 11 t70 -11t62.5 -32.5t44 -52.5t16.5 -70t-16.5 -69.5t-44 -52t-62.5 -33t-70 -11.5t-69.5 11.5t-62.5 33t-44 52t-16 69.5zM684 1294q0 39 16.5 70t44 52.5t62.5 32.5t70 11t68.5 -11t61 -32.5t44 -52.5t16.5 -70t-16.5 -69.5t-44 -52t-61.5 -33t-68 -11.5q-35 0 -70 11.5 t-62.5 33t-44 52t-16.5 69.5z" />
<glyph unicode="&#xfd;" horiz-adv-x="1251" d="M98 -109h312q14 -68 71.5 -112.5t124.5 -44.5q61 0 102.5 24.5t68 64.5t37.5 89t11 98v142q-61 -96 -146 -137.5t-202 -41.5q-82 0 -149.5 26t-115.5 74t-74.5 114.5t-26.5 150.5v723h313v-592q0 -47 8 -91t28.5 -78t56.5 -53.5t91 -19.5q57 0 98.5 21.5t68 57.5t38.5 83 t12 100v572h316v-1032v2q0 -86 -20.5 -173t-77 -157t-159 -114t-268.5 -44q-92 0 -180 15.5t-158.5 55.5t-118.5 107.5t-61 169.5zM381 1174l219 303h336l-338 -303h-217z" />
<glyph unicode="&#xfe;" horiz-adv-x="1374" d="M111 -422v1897h313v-492q63 53 145 78.5t174 25.5q123 0 224.5 -41.5t175.5 -116.5t114.5 -178.5t40.5 -226.5q0 -121 -40.5 -222t-114.5 -174t-174.5 -114t-218.5 -41q-98 0 -181.5 30t-142.5 83v-508h-315zM424 408q0 -49 25.5 -86t63.5 -64t85 -40t90 -13 q156 0 225.5 86t69.5 233q0 72 -16.5 132.5t-51 105.5t-93 69.5t-140.5 24.5q-37 0 -81 -12.5t-84 -36t-66.5 -56t-26.5 -73.5v-270z" />
<glyph unicode="&#xff;" horiz-adv-x="1251" d="M98 -109h312q14 -68 71.5 -112.5t124.5 -44.5q61 0 102.5 24.5t68 64.5t37.5 89t11 98v142q-61 -96 -146 -137.5t-202 -41.5q-82 0 -149.5 26t-115.5 74t-74.5 114.5t-26.5 150.5v723h313v-592q0 -47 8 -91t28.5 -78t56.5 -53.5t91 -19.5q57 0 98.5 21.5t68 57.5t38.5 83 t12 100v572h316v-1032v2q0 -86 -20.5 -173t-77 -157t-159 -114t-268.5 -44q-92 0 -180 15.5t-158.5 55.5t-118.5 107.5t-61 169.5zM199 1305q0 39 16 69.5t44 52t62.5 34t69.5 12.5t70 -12.5t61.5 -34t43 -52t16.5 -69.5q0 -37 -16.5 -68t-43 -52.5t-61.5 -33.5t-70 -12 t-69.5 12t-62.5 33.5t-44 52.5t-16 68zM682 1305q0 39 16.5 69.5t43 52t61.5 34t69 12.5q35 0 70 -12.5t62.5 -34t44 -52t16.5 -69.5q0 -37 -16.5 -68t-44 -52.5t-62.5 -33.5t-70 -12t-69.5 12t-61 33.5t-43 52.5t-16.5 68z" />
<glyph unicode="&#x152;" horiz-adv-x="2232" d="M76 733q0 166 49 308.5t143 246t228.5 162.5t306.5 59q100 0 194.5 -29.5t159.5 -82.5v78h981v-291h-663v-312h598v-270h-598v-311h682v-291h-1000v115q-66 -68 -156 -109t-204 -41q-170 0 -303.5 59.5t-226.5 162t-142 242.5t-49 304zM424 735q0 -86 19.5 -172 t62.5 -156.5t112.5 -114.5t169.5 -44q74 0 130.5 25.5t95.5 69.5t63.5 103.5t34.5 126.5v383q-8 61 -35.5 110.5t-70.5 85.5t-97.5 55.5t-113.5 19.5q-102 0 -172 -45t-115 -116t-64.5 -158t-19.5 -173z" />
<glyph unicode="&#x153;" horiz-adv-x="2009" d="M76 530q0 111 33.5 211.5t101.5 177t172 122.5t246 46q141 0 240.5 -52t162.5 -134q66 86 163 135t226 49q96 0 185.5 -25.5t159 -75.5t113.5 -127t54 -179l-741 -270q16 -86 70.5 -144.5t158.5 -58.5q90 0 147.5 58.5t63.5 144.5h301q-12 -104 -57 -185.5t-112.5 -136.5 t-156.5 -84t-190 -29q-127 0 -224 49.5t-163 131.5q-63 -80 -162.5 -130.5t-238.5 -50.5q-141 0 -245.5 46.5t-172.5 123t-101.5 177t-33.5 210.5zM389 530q0 -55 11.5 -113.5t39 -105.5t73.5 -76.5t116 -29.5t116 29.5t73.5 76.5t38.5 104.5t11 114.5q0 55 -11 113.5 t-38.5 106t-74 77t-115.5 29.5q-70 0 -116 -29.5t-73.5 -77t-39 -104.5t-11.5 -115zM1188 590l422 153q-23 53 -70 82t-110 29q-61 0 -104.5 -19.5t-71 -53t-43 -79t-21.5 -94.5q-2 -2 -2 -8v-10z" />
<glyph unicode="&#x178;" d="M111 1096v379h348v-347q0 -43 5 -88t21.5 -81.5t47 -61.5t83.5 -25t84 25t47.5 62.5t21.5 82.5t5 86v347h348v-379q0 -201 -84 -319t-247 -154v-623h-349v623q-332 78 -331 473zM184 1696q0 39 16.5 69.5t44 52t61.5 33t69 11.5t69.5 -11.5t62.5 -33t44 -52t16 -69.5 q0 -37 -16 -68t-44 -52.5t-62.5 -33.5t-69.5 -12t-69 12t-61.5 33.5t-44 52.5t-16.5 68zM666 1696q0 39 16 69.5t44 52t62.5 33t69.5 11.5t70 -11.5t62.5 -33t44 -52t16.5 -69.5q0 -37 -16.5 -68t-44 -52.5t-62.5 -33.5t-70 -12t-69.5 12t-62.5 33.5t-44 52.5t-16 68z" />
<glyph unicode="&#x2c6;" horiz-adv-x="0" d="M254 1165l244 301h260l246 -301h-236l-141 181l-135 -181h-238z" />
<glyph unicode="&#x2dc;" horiz-adv-x="0" d="M262 1171q0 41 10.5 86.5t35 84t64.5 63.5t97 25q43 0 87 -14.5t84 -32t71.5 -32t54.5 -14.5q37 0 61.5 22.5t32.5 74.5h137q-2 -51 -16 -97.5t-41 -81t-65.5 -55t-90.5 -20.5q-45 0 -86 13t-77.5 30.5t-71.5 31t-68 13.5q-37 0 -60.5 -33t-27.5 -64h-131z" />
<glyph unicode="&#x2000;" horiz-adv-x="981" />
<glyph unicode="&#x2001;" horiz-adv-x="1962" />
<glyph unicode="&#x2002;" horiz-adv-x="981" />
<glyph unicode="&#x2003;" horiz-adv-x="1962" />
<glyph unicode="&#x2004;" horiz-adv-x="654" />
<glyph unicode="&#x2005;" horiz-adv-x="490" />
<glyph unicode="&#x2006;" horiz-adv-x="327" />
<glyph unicode="&#x2007;" horiz-adv-x="327" />
<glyph unicode="&#x2008;" horiz-adv-x="245" />
<glyph unicode="&#x2009;" horiz-adv-x="392" />
<glyph unicode="&#x200a;" horiz-adv-x="109" />
<glyph unicode="&#x2010;" horiz-adv-x="755" d="M92 416v262h572v-262h-572z" />
<glyph unicode="&#x2011;" horiz-adv-x="755" d="M92 416v262h572v-262h-572z" />
<glyph unicode="&#x2012;" horiz-adv-x="755" d="M92 416v262h572v-262h-572z" />
<glyph unicode="&#x2013;" horiz-adv-x="1208" d="M92 420v254h1024v-252z" />
<glyph unicode="&#x2014;" horiz-adv-x="2232" d="M92 420v254h2048v-252z" />
<glyph unicode="&#x2018;" horiz-adv-x="561" d="M0 1376l213 123l348 -604l-213 -123z" />
<glyph unicode="&#x2019;" horiz-adv-x="561" d="M0 895l348 604l213 -123l-348 -604z" />
<glyph unicode="&#x201a;" horiz-adv-x="561" d="M0 -242l348 604l213 -122l-348 -605z" />
<glyph unicode="&#x201c;" horiz-adv-x="956" d="M0 1376l213 123l348 -604l-213 -123zM395 1376l211 123l350 -604l-213 -123z" />
<glyph unicode="&#x201d;" horiz-adv-x="956" d="M0 895l348 604l213 -123l-348 -604zM395 895l348 604l213 -123l-350 -604z" />
<glyph unicode="&#x201e;" horiz-adv-x="958" d="M0 -242l348 604l213 -122l-348 -605zM397 -242l351 604l210 -122l-348 -605z" />
<glyph unicode="&#x2022;" horiz-adv-x="790" d="M76 737q0 68 24.5 126.5t67.5 101.5t101.5 67.5t125.5 24.5q66 0 124.5 -24.5t101.5 -67.5t68.5 -101.5t25.5 -126.5t-25.5 -126t-68.5 -101t-101.5 -68.5t-124.5 -25.5q-68 0 -126 25.5t-101 68.5t-67.5 101.5t-24.5 125.5z" />
<glyph unicode="&#x2026;" horiz-adv-x="2048" d="M150 147q0 39 16 70t44 52.5t62.5 32.5t69.5 11t69.5 -11t62.5 -32.5t44.5 -52.5t16.5 -70q0 -37 -16.5 -67.5t-44.5 -52t-62.5 -33.5t-69.5 -12t-69.5 12t-62.5 33.5t-44 52.5t-16 67zM831 147q0 39 16.5 70t44.5 52.5t62.5 32.5t69.5 11t69.5 -11t62.5 -32.5 t44.5 -52.5t16.5 -70q0 -37 -16.5 -67.5t-44.5 -52t-62.5 -33.5t-69.5 -12t-69.5 12t-62.5 33.5t-44.5 52.5t-16.5 67zM1513 147q0 39 16.5 70t44.5 52.5t62.5 32.5t69.5 11t69.5 -11t62.5 -32.5t44 -52.5t16 -70q0 -37 -16 -67.5t-44 -52t-62.5 -33.5t-69.5 -12t-69.5 12 t-62.5 33.5t-44.5 52.5t-16.5 67z" />
<glyph unicode="&#x202f;" horiz-adv-x="392" />
<glyph unicode="&#x2039;" horiz-adv-x="487" d="M92 598v279l303 270v-254l-162 -156l162 -149v-260z" />
<glyph unicode="&#x203a;" horiz-adv-x="487" d="M92 328v254l162 155l-162 150v260l303 -270v-279z" />
<glyph unicode="&#x205f;" horiz-adv-x="490" />
<glyph unicode="&#x2122;" horiz-adv-x="1828" d="M76 1309q0 31 5 60.5t20.5 53t46 38t79.5 14.5h533v-164h-244v-647h-197v647h-38q-43 0 -58.5 -15.5t-15.5 -52.5zM793 664v557q0 137 72.5 204.5t207.5 67.5q53 0 100.5 -13.5t81.5 -41.5q37 29 83 42t100 13q137 0 208.5 -67.5t71.5 -204.5v-557h-194v538q0 23 -3 47.5 t-12.5 44t-26 32.5t-44.5 13q-29 0 -45.5 -13t-24.5 -32.5t-11 -44t-3 -47.5v-538h-195v538q0 25 -3 48.5t-12 44t-25.5 32.5t-45.5 12t-45 -13t-24.5 -32.5t-11.5 -44t-3 -47.5v-538h-196z" />
<glyph unicode="&#x25fc;" horiz-adv-x="1064" d="M0 0v1065h1065v-1065h-1065z" />
<glyph unicode="&#xfb01;" horiz-adv-x="1071" d="M0 842v196h111v181q0 96 27.5 153.5t72.5 87t101.5 38.5t113.5 9q59 0 113.5 -5t105.5 -5v-242q-37 6 -90 7q-35 0 -60.5 -4.5t-41 -18.5t-22.5 -38.5t-7 -67.5v-72h537v-1061h-314v842h-221v-842h-315v842h-111z" />
<glyph unicode="&#xfb02;" horiz-adv-x="1071" d="M0 842v196h111v181q0 96 27.5 153.5t72.5 87t101.5 38.5t113.5 9q53 0 108.5 -13t106.5 -13q88 -2 158 -2h162v-1479h-314v1255q-23 4 -46 5.5t-46 1.5q-70 0 -100.5 -28t-30.5 -112v-61h113v-219h-111v-842h-315v842h-111z" />
</font>
</defs>
</svg>
