<?xml version="1.0" standalone="no"?>
<!DOCTYPE svg PUBLIC "-//W3C//DTD SVG 1.1//EN" "http://www.w3.org/Graphics/SVG/1.1/DTD/svg11.dtd" >
<svg xmlns="http://www.w3.org/2000/svg" xmlns:xlink="http://www.w3.org/1999/xlink" version="1.1">
<metadata></metadata>
<defs>
<font id="clementepdarultrabolditalic" horiz-adv-x="1306" >
<font-face units-per-em="2048" ascent="1638" descent="-410" />
<missing-glyph horiz-adv-x="684" />
<glyph horiz-adv-x="0" />
<glyph unicode="&#xd;" horiz-adv-x="0" />
<glyph unicode=" "  horiz-adv-x="684" />
<glyph unicode="&#x09;" horiz-adv-x="684" />
<glyph unicode="&#xa0;" horiz-adv-x="684" />
<glyph unicode="!" horiz-adv-x="626" d="M-53 178q10 47 39.5 85t69.5 63.5t86 40t89 14.5t82 -14.5t67 -40t40 -63.5t2 -85t-40 -85t-70 -63.5t-86 -40t-89 -14.5t-82 14.5t-66.5 40t-39.5 63.5t-2 85zM147 457l103 1018h467l-369 -1018h-201z" />
<glyph unicode="&#x22;" horiz-adv-x="958" d="M102 698l179 777h313l-178 -777h-314zM526 698l179 777h313l-178 -777h-314z" />
<glyph unicode="#" horiz-adv-x="1005" d="M-86 0l158 426h-144l88 240h144l53 143h-143l90 240h143l158 426h244l-158 -426h143l158 426h244l-158 -426h143l-90 -240h-143l-53 -143h143l-88 -240h-144l-157 -426h-244l158 426h-144l-157 -426h-244zM403 666h144l53 143h-143z" />
<glyph unicode="$" horiz-adv-x="1169" d="M8 555h387q-10 -66 30 -96.5t99 -30.5q20 0 45 4t48.5 13.5t41 25.5t23.5 39q4 23 0 39t-25.5 28.5t-63.5 22.5t-110 23q-223 41 -306 118.5t-50 214.5q18 82 65.5 141.5t110 98.5t136 60.5t145.5 31.5l43 187h239l-43 -185q72 -8 137.5 -29.5t111.5 -59.5t67.5 -97.5 t5.5 -145.5h-369q4 25 -4 46.5t-23.5 36t-38 22.5t-44.5 8q-43 0 -87 -15.5t-57 -66.5q-6 -33 41 -54.5t112.5 -36.5t129 -26.5t90.5 -19.5q47 -16 87 -40t66.5 -59.5t35.5 -83.5t-5 -114q-23 -94 -73 -160.5t-119.5 -110.5t-151.5 -67.5t-166 -32.5l-43 -184h-239l43 188 q-76 10 -141.5 37t-111.5 71t-66.5 108.5t-2.5 150.5z" />
<glyph unicode="%" horiz-adv-x="1734" d="M141 928.5q-4 70.5 15 156.5q20 86 57 157t93 123t131 81t169 29h848l-41 -179l-1007 -1296h-226l1008 1296h-303q20 -86 -8 -211q-18 -86 -56.5 -156.5t-94.5 -122.5t-131 -81t-169 -29t-155.5 29t-93.5 81t-36 122.5zM401 944q2 -31 16.5 -50.5t49.5 -19.5t59.5 19.5 t40 50.5t25.5 68.5t18 72.5t15.5 73t6.5 68.5t-16.5 50t-50.5 19.5t-58.5 -19.5t-39.5 -50t-26.5 -68.5t-18.5 -73t-15.5 -72.5t-5.5 -68.5zM835.5 208q-4.5 71 16.5 157q20 86 57 156.5t93.5 122.5t131 81t169.5 29q94 0 155.5 -29t94 -81t36.5 -122.5t-16 -156.5t-57 -157 t-93.5 -123t-131 -81t-169.5 -29q-94 0 -155.5 29t-94 81t-37 123zM1097 223.5q1 -30.5 16 -50t50 -19.5t58.5 19.5t40 50t27 68.5t18.5 73t15 72.5t6 68.5t-16.5 50t-49.5 19q-35 0 -58.5 -19t-40 -50t-27 -69t-18.5 -72q-8 -35 -15 -73t-6 -68.5z" />
<glyph unicode="&#x26;" horiz-adv-x="1800" d="M-37 440q12 51 40 111.5t69 113t95 88t116 40.5q-59 10 -88 49t-38.5 88t-5 100t12.5 86q23 98 95.5 171t165.5 120t194.5 69.5t183.5 22.5q123 0 223 -29.5t165.5 -91t91.5 -158t-3 -229.5h-385q12 43 6 79t-27.5 61.5t-55.5 40t-75 14.5q-31 0 -65.5 -9.5t-66 -26.5 t-55.5 -44t-32 -62q-10 -41 1.5 -68.5t36 -44t56 -24.5t66.5 -8h37l-59 -260h-37q-80 0 -144.5 -38t-85.5 -126q-10 -45 15.5 -77.5t68.5 -54t95.5 -33t95.5 -11.5q61 0 127.5 17.5t124 49t99.5 77.5t54 106h-20q-63 0 -97 -20.5t-51 -86.5l-235 144q12 55 32.5 110.5 t58.5 100.5t98.5 72.5t154.5 27.5h430q66 0 98.5 20.5t48.5 86.5l236 -144q-12 -55 -32.5 -110.5t-58.5 -100.5t-98.5 -72.5t-154.5 -27.5h-21q-20 -160 -102 -269.5t-205 -177t-273.5 -97.5t-308.5 -30q-131 0 -253.5 26t-212 81t-132.5 143t-14 215z" />
<glyph unicode="'" horiz-adv-x="534" d="M102 698l179 777h313l-178 -777h-314z" />
<glyph unicode="(" horiz-adv-x="647" d="M-30.5 35.5q-4.5 226.5 55.5 482.5q117 506 442 957h350q-150 -238 -247 -469.5t-156 -487.5q-29 -127 -45.5 -245.5t-20.5 -233.5t4 -228.5t27 -232.5h-350q-55 231 -59.5 457.5z" />
<glyph unicode=")" horiz-adv-x="647" d="M-268 -422q150 238 247 469.5t156 487.5q57 254 64.5 478t-29.5 462h350q57 -231 60 -457.5t-56 -482.5q-117 -506 -442 -957h-350z" />
<glyph unicode="*" horiz-adv-x="858" d="M0 1073l76 234l252 -103l-21 271h246l-21 -271l250 103l76 -234l-264 -63l176 -207l-199 -146l-141 232l-143 -232l-199 146l176 207z" />
<glyph unicode="+" horiz-adv-x="1218" d="M92 580v313h361v362h313v-360h360v-313h-360v-363h-313v361h-361z" />
<glyph unicode="," horiz-adv-x="659" d="M-229 -256l542 672l236 -158l-543 -672z" />
<glyph unicode="-" horiz-adv-x="825" d="M10 379l76 336h641l-76 -336h-641z" />
<glyph unicode="." horiz-adv-x="626" d="M-53 178q10 47 39.5 85t69.5 63.5t86 40t89 14.5t82 -14.5t67 -40t40 -63.5t2 -85t-40 -85t-70 -63.5t-86 -40t-89 -14.5t-82 14.5t-66.5 40t-39.5 63.5t-2 85z" />
<glyph unicode="/" horiz-adv-x="862" d="M-170 0l891 1475h311l-891 -1475h-311z" />
<glyph unicode="0" horiz-adv-x="1552" d="M138 464q-5 136 26 273t100.5 273.5t170 245t229.5 176t280 67.5q154 0 252 -67.5t149.5 -175t57.5 -245t-27 -274.5q-31 -137 -100.5 -273t-169.5 -244.5t-229 -176.5t-283 -68t-251 68t-148.5 176.5t-56.5 244.5zM517 457.5q5 -70.5 37 -119.5t110 -49q80 0 135 49 t93 118.5t60.5 147.5t34.5 133t25.5 132t8.5 147.5t-37 120t-107 49.5q-80 0 -135.5 -49.5t-93.5 -119t-60.5 -146t-34.5 -134.5q-12 -55 -26.5 -132t-9.5 -147.5z" />
<glyph unicode="1" horiz-adv-x="1552" d="M215 1139q14 59 35.5 119.5t62.5 108.5t106.5 78t166.5 30h585l-340 -1475h-450l254 1100h-8q-68 0 -105 -21.5t-53 -93.5z" />
<glyph unicode="2" horiz-adv-x="1552" d="M-47 0q25 141 105.5 254t192 204t239.5 163.5t245 136.5q33 18 73 40.5t75 50.5t61.5 61.5t36.5 72.5q18 82 -12.5 137.5t-116.5 55.5q-68 0 -116 -28t-83 -73t-55 -100t-33 -111h-385q25 145 91.5 262t165 200t224 128t271.5 45q113 0 211 -25.5t166.5 -81t96.5 -144.5 t-1 -216q-18 -78 -54 -144.5t-85 -122.5t-109.5 -104.5t-128.5 -91.5q-100 -63 -205.5 -115.5t-204.5 -105.5h322q59 0 95 20.5t50 86.5l236 -144q-16 -74 -42 -131t-65.5 -97t-97 -61.5t-139.5 -21.5h-1024z" />
<glyph unicode="3" horiz-adv-x="1552" d="M81.5 290.5q-22.5 108.5 27.5 258.5h389q-29 -117 7 -183.5t161 -66.5q86 0 146 43t83 133q20 88 -26 126t-126 38h-36l59 260h37q35 0 71.5 8t68.5 24.5t55.5 44.5t33.5 68q8 35 -4 62t-34.5 44t-53.5 26.5t-61 9.5q-41 0 -81 -14.5t-74 -40t-57.5 -61.5t-29.5 -79h-385 q33 133 101.5 229.5t163.5 158t209 91t237 29.5q80 0 171 -22.5t163.5 -69.5t111.5 -120t16 -171q-8 -35 -27.5 -86t-52 -100t-79.5 -88t-111 -49q61 -4 98 -40t55.5 -88.5t18.5 -113t-12 -111.5q-29 -121 -101.5 -209t-172 -144t-213 -84t-220.5 -28q-133 0 -245.5 34 t-185.5 103.5t-95.5 178z" />
<glyph unicode="4" horiz-adv-x="1552" d="M-33 332l90 385l826 758h407l-182 -795h14q63 0 96 20.5t50 85.5l235 -143q-12 -55 -32.5 -110.5t-58.5 -100.5t-98.5 -72.5t-154.5 -27.5h-133l-76 -332h-426l76 332h-633zM334 680h348l92 399z" />
<glyph unicode="5" horiz-adv-x="1552" d="M19.5 225q-35.5 88 5.5 215h403q0 -41 14.5 -67.5t41 -43t60.5 -23.5t70 -7q41 0 83 13.5t78 38t62.5 59t36.5 79.5q23 94 -22 146.5t-137 52.5q-61 0 -120.5 -18.5t-107.5 -73.5h-381l363 879h864q82 0 129 -21.5t68.5 -61.5t20.5 -97.5t-17 -131.5l-301 -143 q16 66 -10.5 86t-87.5 20h-430l-115 -260q78 49 167 72t171 23q111 0 189.5 -35t123.5 -97.5t55.5 -151.5t-14.5 -200q-31 -135 -108.5 -230t-182 -155.5t-225.5 -88.5t-240 -28q-100 0 -206.5 26t-185.5 81t-114.5 143z" />
<glyph unicode="6" horiz-adv-x="1552" d="M125 419q-6 124 27 265q37 160 107.5 307.5t176 260t246.5 180t322 67.5q86 0 169.5 -14.5t149.5 -57.5l-283 -249q-23 16 -52.5 21t-61.5 5q-63 0 -115.5 -27.5t-95.5 -72.5t-74 -99.5t-51 -109.5q-8 -20 -10 -29q98 74 186 101.5t197 27.5q106 0 188 -33.5t134 -95 t69 -148.5t-8 -196q-31 -137 -100.5 -239.5t-166 -171t-215.5 -102.5t-250 -34q-166 0 -273.5 59.5t-160.5 164.5q-49 96 -55 220zM528 516q-23 -92 23.5 -153.5t138.5 -61.5q45 0 90 15.5t83 44t65 68.5t39 87q10 47 0.5 86t-35 65.5t-62 41t-82.5 14.5q-90 0 -164.5 -58.5 t-95.5 -148.5z" />
<glyph unicode="7" horiz-adv-x="1552" d="M279 1163q12 55 32.5 110.5t59.5 100.5t99 73t155 28h833l-80 -349l-583 -1126h-459l584 1126h-258q-63 0 -96.5 -20.5t-49.5 -85.5z" />
<glyph unicode="8" horiz-adv-x="1552" d="M74 446q35 145 127 225.5t233 104.5q-109 33 -141.5 115t-5.5 199t97.5 195.5t163.5 126.5t198.5 67.5t203.5 19.5q94 0 191.5 -20.5t171 -68.5t110.5 -127t11 -193q-12 -53 -39 -103.5t-65 -93.5t-87 -74t-106 -43q63 -6 108 -34.5t71.5 -73.5t32.5 -102t-8 -120 q-31 -131 -108.5 -221t-182 -145t-223 -80t-229.5 -25q-115 0 -223.5 22.5t-185 77t-111.5 145.5t-4 226zM479 449q-12 -47 1.5 -79t42 -51.5t67.5 -27.5t80 -8q39 0 82 8t79.5 27.5t65.5 51.5t39 79q25 104 -29.5 148t-150.5 44t-174 -43t-103 -149zM641 974 q10 -30 34.5 -48.5t59.5 -26.5t72 -8q39 0 79 7t74.5 25.5t61.5 48.5t37 75q12 51 2 83.5t-35 51t-61.5 25.5t-79.5 7q-86 0 -153.5 -34.5t-90.5 -132.5q-10 -43 0 -73z" />
<glyph unicode="9" horiz-adv-x="1552" d="M184.5 756q-16.5 88 8.5 196q31 137 100 239.5t165.5 171.5t215.5 102.5t248 33.5q166 0 274.5 -59.5t161.5 -163.5q49 -96 55 -220t-27 -265q-37 -160 -106.5 -307.5t-175 -260t-247.5 -180.5t-322 -68q-86 0 -170 14.5t-152 57.5l285 250q23 -16 52.5 -21.5t59.5 -5.5 q63 0 116.5 28t95.5 73t74 99t52 110q4 8 5 15t5 13q-98 -74 -187 -101.5t-198 -27.5q-106 0 -188 33t-133 94.5t-67.5 149.5zM570.5 872.5q9.5 -38.5 34 -65.5t62.5 -41t83 -14q90 0 165 58t95 148q23 92 -23.5 154t-138.5 62q-47 0 -92 -15.5t-82 -44.5t-64.5 -68.5 t-38.5 -87.5q-10 -47 -0.5 -85.5z" />
<glyph unicode=":" horiz-adv-x="626" d="M-53 178q10 47 39.5 85t69.5 63.5t86 40t89 14.5t82 -14.5t67 -40t40 -63.5t2 -85t-40 -85t-70 -63.5t-86 -40t-89 -14.5t-82 14.5t-66.5 40t-39.5 63.5t-2 85zM110.5 800q-12.5 38 0.5 85q10 47 39.5 85t69.5 63.5t85 39.5t88 14t83 -14t67.5 -39.5t40 -63.5t2.5 -85 q-12 -47 -42 -85t-70 -63.5t-85 -40t-88 -14.5t-83 14.5t-67.5 40t-40 63.5z" />
<glyph unicode=";" horiz-adv-x="626" d="M-229 -256l542 672l236 -158l-543 -672zM110.5 800q-12.5 38 0.5 85q10 47 39.5 85t69.5 63.5t85 39.5t88 14t83 -14t67.5 -39.5t40 -63.5t2.5 -85q-12 -47 -42 -85t-70 -63.5t-85 -40t-88 -14.5t-83 14.5t-67.5 40t-40 63.5z" />
<glyph unicode="&#x3c;" horiz-adv-x="1218" d="M92 606v258l1034 408v-330l-557 -203l557 -204v-330z" />
<glyph unicode="=" horiz-adv-x="1218" d="M92 334v313h1034v-313h-1034zM92 827v314h1034v-314h-1034z" />
<glyph unicode="&#x3e;" horiz-adv-x="1218" d="M92 203v329l557 203l-557 205v332l1034 -404v-258z" />
<glyph unicode="?" horiz-adv-x="1265" d="M131 975q27 96 82 189t140 167t201 120t267 46q150 0 244 -40t143 -102.5t61.5 -137t-1.5 -142.5q-18 -94 -56 -152.5t-87.5 -97.5t-105.5 -64.5t-114 -51.5q-39 -18 -65.5 -37t-44 -39.5t-28.5 -47t-19 -61.5l-23 -98h-379l23 98q6 31 17 79t35.5 99.5t65.5 100.5 t109 82q27 12 62.5 26.5t69.5 32t60.5 42t34.5 58.5q12 51 -13.5 78t-82.5 27q-74 0 -116 -53.5t-52 -120.5h-428zM241.5 93q-12.5 38 0.5 85q10 47 39.5 85t69.5 63.5t85 40t88 14.5t83 -14.5t67.5 -40t40 -63.5t2.5 -85q-12 -47 -42 -85t-70 -63.5t-85 -40t-88 -14.5 t-83 14.5t-67.5 40t-40 63.5z" />
<glyph unicode="@" horiz-adv-x="1681" d="M76 735q0 178 60.5 319.5t167 241t252.5 151.5t321 52q139 0 270 -37t233.5 -112.5t164 -189t61.5 -267.5q0 -170 -72 -307q-45 -84 -115.5 -148.5t-171.5 -105.5q-39 -16 -86 -29.5t-90 -13.5q-41 0 -72.5 18.5t-42.5 54.5q-4 16 -4 29q-35 -55 -89 -78.5t-118 -23.5 q-80 0 -143 28.5t-107 78.5t-69 117t-25 144q0 94 30 181.5t85 155t135 107.5t180 40q76 0 139.5 -29t108.5 -92l21 84h194l-73 -373q-10 -45 -20.5 -89t-10.5 -89q0 -14 5 -32.5t24 -18.5q37 0 67 26q31 27 51.5 63t32.5 76t17.5 82t5.5 80q0 119 -40 206t-111 143.5 t-166 84t-206 27.5q-121 0 -226 -40t-184 -113.5t-125 -176t-46 -225.5t45 -224t121.5 -174t181 -113t225.5 -40q117 0 219.5 23.5t196.5 93.5h231q-117 -174 -279.5 -250t-367.5 -76q-166 0 -309 55.5t-248.5 156t-167 240.5t-61.5 308zM678 690q0 -59 37 -105t98 -46 q47 0 90 14t72 53q4 14 14.5 57t18.5 74q2 31 -9.5 59.5t-31 50t-47 34t-60.5 12.5q-39 0 -72.5 -17.5t-58 -46t-38 -65.5t-13.5 -74z" />
<glyph unicode="A" d="M-59 0l227 983q61 268 230 397t433 129q272 0 377 -132q67 -84 67 -221q0 -78 -22 -173l-227 -983h-451l130 563h-185l-129 -563h-450zM602 911h184l9 43q4 23 12 59t8 68.5t-13.5 56t-49.5 23.5q-37 0 -61.5 -23.5t-41 -56t-26 -68.5t-13.5 -59z" />
<glyph unicode="B" d="M-59 0l340 1475h579q90 0 170 -19.5t136 -62.5t78 -114q11 -35 11 -77q0 -43 -12 -94q-25 -104 -86 -175t-162 -118q117 -43 158 -138q23 -54 23 -121q0 -50 -13 -107q-25 -109 -86 -193t-145 -140.5t-183.5 -86t-199.5 -29.5h-608zM471 348h43q35 0 68.5 6t61.5 22.5 t48.5 43t30.5 69.5q6 24 6 43q0 94 -131 95h-61zM598 899h16q72 0 119 26.5t64 98.5v-2q4 15 4 28q0 34 -27 52q-37 24 -106 24h-17z" />
<glyph unicode="C" horiz-adv-x="1556" d="M56 428q-6 45 -6 94q0 102 26 215q39 168 123 310.5t203.5 245t270 159.5t322.5 57q287 0 427 -144q111 -114 112 -320q0 -54 -8 -115h-441q2 16 2 31q0 75 -41 125q-49 60 -147 59q-84 0 -146.5 -39t-107.5 -98.5t-74.5 -131t-44.5 -139.5q-16 -67 -19 -139v-21 q1 -59 15 -110q18 -59 62.5 -98t126.5 -39q57 0 102 19.5t81 52t62.5 77.5t47.5 94h440q-31 -137 -112 -249.5t-191.5 -192.5t-240.5 -123t-261 -43q-172 0 -296 57.5t-196.5 161t-90.5 244.5z" />
<glyph unicode="D" horiz-adv-x="1480" d="M-59 0l340 1475h634q168 0 280 -56.5t170 -154.5q57 -99 67 -234q2 -28 3 -56q0 -111 -30 -235q-84 -362 -319.5 -550.5t-598.5 -188.5h-546zM477 375h72q86 0 153.5 28.5t117.5 78.5t84 117.5t52 145.5q14 59 14 109q0 90 -46 152q-70 94 -240 94h-39z" />
<glyph unicode="E" d="M-59 0l340 1475h1081l-86 -375h-631l-43 -189h561l-82 -348h-561l-43 -188h653l-86 -375h-1103z" />
<glyph unicode="F" d="M-59 0l340 1475h1081l-86 -375h-631l-43 -189h561l-82 -348h-561l-129 -563h-450z" />
<glyph unicode="G" horiz-adv-x="1593" d="M56 428q-6 45 -6 94q0 101 26 215q39 168 123 310.5t203.5 245t270 159.5t322.5 57q287 0 427 -144q112 -114 112 -320q0 -54 -8 -115h-441q2 16 2 31q0 75 -41 125q-49 59 -147 59q-84 0 -146.5 -39t-107.5 -98.5t-74.5 -131t-44.5 -139.5q-16 -68 -19 -139v-21 q0 -60 15 -110q17 -59 62 -98t127 -39q78 0 133 34.5t96 90.5h-201l80 348h678l-80 -348q-8 -38 -8 -65q0 -26 7 -43q16 -34 93 -34l-241 -313q-70 0 -135.5 10t-110.5 49q-184 -94 -383 -94q-172 0 -296 57.5t-196.5 161t-90.5 244.5z" />
<glyph unicode="H" horiz-adv-x="1554" d="M-59 0l340 1475h450l-121 -523h422l121 523h451l-340 -1475h-451l139 604h-422l-139 -604h-450z" />
<glyph unicode="I" horiz-adv-x="671" d="M-59 0l340 1475h450l-340 -1475h-450z" />
<glyph unicode="J" d="M32 276q-2 22 -2 46q0 78 23 170l21 81h405l-10 -43q-10 -43 -17 -82q-5 -24 -5 -44q0 -13 1 -24q5 -30 25.5 -48.5t65.5 -18.5q43 0 71.5 23.5t46 55.5t25.5 68t14 60l133 580h-98q-70 0 -105.5 -21.5t-52.5 -93.5l-254 154q14 59 36 119.5t63 108.5t106.5 78t165.5 30 h676l-219 -949q-35 -152 -93.5 -258t-142.5 -173.5t-194.5 -98.5t-247.5 -31q-139 0 -232.5 38t-144.5 106.5t-60 166.5z" />
<glyph unicode="K" horiz-adv-x="1314" d="M-59 0l340 1475h450l-82 -357l322 357h514l-666 -738l326 -737h-514l-158 356l-82 -356h-450z" />
<glyph unicode="L" d="M-59 0l340 1475h450l-254 -1100h326q68 0 104.5 21.5t53.5 92.5l253 -153q-14 -59 -35.5 -119.5t-62.5 -109t-106.5 -78t-165.5 -29.5h-903z" />
<glyph unicode="M" horiz-adv-x="1941" d="M-59 0l227 983q61 268 230 397t433 129q82 0 160 -14t142 -53q82 39 166.5 53t166.5 14q264 0 374 -129q70 -82 70 -222q0 -79 -22 -175l-227 -983h-451l220 954q6 25 13 61t7 68.5t-13.5 55t-50.5 22.5t-61.5 -22.5t-39.5 -55t-24.5 -68.5t-15.5 -61l-219 -954h-451 l220 954q6 25 13 61t7 68.5t-13.5 55t-49.5 22.5q-37 0 -61.5 -22.5t-40 -55t-25 -68.5t-15.5 -61l-219 -954h-450z" />
<glyph unicode="N" d="M-59 0l227 983q61 268 230 397t433 129q272 0 377 -132q67 -84 67 -221q0 -78 -22 -173l-227 -983h-451l220 954q6 23 13 59t7 68.5t-13.5 56t-49.5 23.5q-37 0 -61.5 -23.5t-41 -56t-25 -68.5t-14.5 -59l-219 -954h-450z" />
<glyph unicode="O" horiz-adv-x="1634" d="M58 430q-7 49 -8 100q0 98 26 207q39 166 124 307.5t205.5 245t270 161.5t319.5 58q168 0 292 -58t196.5 -161.5t93.5 -245.5q7 -50 7 -102q0 -98 -25 -205q-39 -166 -124 -307t-206 -244.5t-271.5 -162t-318.5 -58.5q-170 0 -293 58.5t-195.5 162t-92.5 244.5zM508 596 q0 -6 -1 -12q-1 -65 19 -119q20 -59 67.5 -97t129.5 -38t146.5 38t111.5 97t79 131.5t48 140.5q16 69 18 141v12q0 66 -18 120q-20 60 -67.5 97.5t-129.5 37.5t-146.5 -38t-112.5 -97.5t-78.5 -132t-47.5 -140.5q-16 -69 -18 -141z" />
<glyph unicode="P" horiz-adv-x="1314" d="M-59 0l340 1475h591q150 0 241 -49.5t137 -123t54 -161.5q2 -27 2 -53q0 -59 -12 -113q-31 -133 -96 -230.5t-155.5 -162t-204 -96t-238.5 -31.5h-104l-105 -455h-450zM575 803h13q43 0 87 3t82 18.5t66.5 47t40.5 86.5q6 26 6 46q0 18 -5 32q-11 29 -37.5 43.5 t-64.5 17.5t-79 3h-39z" />
<glyph unicode="Q" horiz-adv-x="1634" d="M58 430q-8 49 -8 100q0 98 26 207q39 166 124 307.5t205.5 245t270 161.5t319.5 58q168 0 292 -58t196.5 -161.5t92.5 -245.5q8 -49 8 -102q0 -97 -25 -205q-35 -150 -107 -278.5t-176 -229.5l14 -34q31 -70 72 -76h4q29 0 82 28l-47 -327q-59 -33 -119.5 -57.5 t-118.5 -26.5q-55 0 -104 31.5t-84 115.5l-55 127q-66 -23 -136.5 -34t-144.5 -11q-170 0 -293 58.5t-195.5 162t-92.5 244.5zM508 596v-12q0 -65 18 -119q21 -59 68 -97t129 -38q16 0 29.5 1t25.5 3l-20 51q-29 70 -72 76h-4q-28 0 -82 -29l47 328q57 33 116.5 57.5 t115.5 26.5h12q50 0 94 -30q49 -34 88 -118l14 -30q6 18 11.5 35.5t9.5 35.5q16 68 18 141v12q0 65 -18 120q-21 59 -68 97t-129 38t-146.5 -38t-112.5 -97.5t-78.5 -132t-47.5 -140.5q-16 -68 -18 -141z" />
<glyph unicode="R" horiz-adv-x="1325" d="M-53 0l340 1475h655q96 0 176 -27t134 -79q56 -52 76 -130q9 -35 9 -76q0 -49 -14 -106q-12 -57 -39 -113.5t-65.5 -106t-88 -88t-110.5 -59.5q49 -23 81 -61.5t47 -90.5q14 -48 14 -100v-7q-1 -56 -13 -112l-74 -319h-438l53 236q12 53 18 105q2 16 1 31q-1 34 -9 61 q-12 40 -45.5 64.5t-99.5 24.5h-37l-121 -522h-450zM590 836h33q31 0 66.5 4t68.5 19t58.5 44t37.5 78q5 21 5 39q-1 42 -27 68q-38 38 -166 38h-9z" />
<glyph unicode="S" horiz-adv-x="1351" d="M-46 294q-7 34 -7 72q0 59 16 130h451q-10 -40 -10 -72q0 -58 32 -88q49 -47 160 -47q27 0 61.5 6t66.5 22.5t56.5 43t34.5 67.5q6 29 -3 48.5t-40 36.5t-88 36.5t-145 46.5q-82 25 -164 53.5t-142.5 74.5t-88.5 116q-15 38 -14 87q0 43 11 95q29 127 100.5 219 t168 151.5t209 88t225.5 28.5q119 0 221 -24.5t173 -81.5q72 -57 102 -149q16 -49 16 -109q0 -54 -13 -117h-425q9 26 9 47q1 13 -3 23q-8 30 -32 49.5t-57.5 29t-66.5 9.5q-23 0 -53.5 -4t-58 -15.5t-48 -31t-26.5 -50.5q-2 -8 -2 -16q0 -31 26 -51q32 -26 87 -44 t126.5 -35t143.5 -38q74 -23 140 -53.5t112.5 -79.5t64.5 -121q8 -32 9 -70q0 -47 -13 -102q-33 -143 -115 -240.5t-192.5 -158t-236.5 -86t-249 -25.5q-41 0 -103.5 7.5t-129 26.5t-129 55t-106.5 95.5t-61 144.5z" />
<glyph unicode="T" d="M92 1139q14 59 36 119.5t62.5 108.5t106 78t166.5 30h1014l-86 -375h-428l-254 -1100h-451l254 1100h-8q-68 0 -105 -21.5t-53 -93.5z" />
<glyph unicode="U" d="M53 492l228 983h450l-219 -955q-6 -23 -13 -58.5t-7 -68.5t13 -56.5t50 -23.5t61.5 23.5t41 56.5t24.5 69t14 58l219 955h451l-227 -983q-61 -268 -230.5 -397.5t-433.5 -129.5q-273 0 -377 132q-67 84 -66 222q0 78 21 173z" />
<glyph unicode="V" horiz-adv-x="1304" d="M170 1475h459l39 -674l348 674h459l-764 -1475h-459z" />
<glyph unicode="W" horiz-adv-x="1941" d="M53 492l228 983h450l-219 -955q-6 -25 -13 -60.5t-7 -68.5t13 -55.5t50 -22.5t61.5 22.5t40 55.5t24.5 69l15 60l219 955h451l-219 -955q-6 -25 -13.5 -60.5t-7.5 -68.5t13.5 -55.5t50.5 -22.5t61.5 22.5t40 55.5t24.5 69l15 60l219 955h451l-227 -983 q-61 -268 -230.5 -397.5t-433.5 -129.5q-82 0 -160 14.5t-141 53.5q-82 -39 -167 -53.5t-167 -14.5q-263 0 -373 129q-70 83 -71 223q0 79 22 175z" />
<glyph unicode="X" horiz-adv-x="1509" d="M-170 0l668 737l-328 738h514l158 -357l323 357h514l-667 -738l327 -737h-514l-159 356l-322 -356h-514z" />
<glyph unicode="Y" d="M193 1090l88 385h450l-82 -357q-6 -25 -13 -60q-6 -30 -6 -59v-8q1 -33 14 -56.5t50 -23.5t61.5 23.5t40 56.5t23.5 68t15 59l81 357h451l-88 -385q-47 -205 -156.5 -328t-275.5 -170l-137 -592h-451l137 592q-224 73 -224 323q0 79 22 175z" />
<glyph unicode="Z" horiz-adv-x="1382" d="M-121 0l82 352l862 748h-641l86 375h1235l-76 -328l-874 -772h326q68 0 104.5 21.5t52.5 92.5l254 -153q-14 -59 -35.5 -119.5t-62.5 -109t-106.5 -78t-165.5 -29.5h-1041z" />
<glyph unicode="[" horiz-adv-x="882" d="M-158 -422l439 1897h680l-72 -314h-316l-292 -1270h315l-74 -313h-680z" />
<glyph unicode="\" horiz-adv-x="862" d="M170 1475h311l211 -1475h-311z" />
<glyph unicode="]" horiz-adv-x="882" d="M-158 -422l74 313h315l293 1270h-315l72 314h680l-439 -1897h-680z" />
<glyph unicode="^" horiz-adv-x="962" d="M0 727l356 748h250l357 -748h-314l-168 387l-168 -387h-313z" />
<glyph unicode="_" horiz-adv-x="1024" d="M0 -154h1024v-102h-1024v102z" />
<glyph unicode="`" horiz-adv-x="0" d="M510 1470h426l133 -305h-281z" />
<glyph unicode="a" horiz-adv-x="1472" d="M20 304q-8 42 -8 88q0 65 17 138q29 123 96.5 226.5t161.5 177.5t208.5 115t237.5 41q78 0 153 -15.5t136 -52.5l10 41h406l-152 -649q-4 -17 -4 -32q0 -28 12 -50q17 -31 84 -31h8l-239 -313q-104 0 -176 21.5t-105 78.5q-53 -31 -100 -52.5t-93 -35.5t-94.5 -20.5 t-103.5 -6.5q-123 0 -218 40t-156 114.5t-81 176.5zM434 530q-13 -56 -13 -99q0 -61 25 -99q43 -64 179 -64q33 0 73.5 10.5t79.5 30t69 48t38 67.5l53 235q8 33 -11.5 58.5t-50 43t-66.5 26t-62 8.5q-137 0 -210 -65.5t-104 -199.5z" />
<glyph unicode="b" horiz-adv-x="1472" d="M-59 0l237 1032q8 38 8 66q0 26 -7 42q-15 34 -93 34l242 313q63 0 126.5 -9.5t107.5 -41.5q44 -30 62 -94q8 -26 8 -60q0 -49 -16 -113l-34 -147q147 68 321 68q119 0 215 -40t157.5 -114t82.5 -178q9 -43 8 -90q0 -65 -16 -138q-29 -127 -97.5 -229t-164 -175 t-210 -113t-233.5 -40q-176 0 -289 74l-10 -47h-405zM444 424q-3 -13 -3 -25q1 -23 11 -43q16 -28 45 -47.5t65 -30t69 -10.5q137 0 209.5 65.5t101.5 196.5q13 56 13 101q0 59 -23 97q-41 67 -180 67q-27 0 -67 -8.5t-79 -26t-69.5 -43t-38.5 -58.5z" />
<glyph unicode="c" horiz-adv-x="1273" d="M20 306q-8 42 -8 88q0 65 17 136q29 123 96.5 226.5t161.5 177.5t208.5 115t237.5 41q102 0 191.5 -26t151.5 -78q64 -52 92 -134q18 -53 18 -117q0 -36 -6 -76h-385q2 15 2 28q0 46 -26 73q-34 35 -99 35q-59 0 -99.5 -23.5t-68 -61.5t-44 -85t-26.5 -95 q-10 -47 -15 -94q-2 -17 -2 -32q0 -28 6 -52q9 -37 39 -60.5t89 -23.5q66 0 117 47t71 109h387q-41 -109 -107.5 -193t-151.5 -141t-185 -87t-207 -30q-123 0 -218 41t-156 115.5t-81 176.5z" />
<glyph unicode="d" horiz-adv-x="1472" d="M20 304q-8 42 -8 88q0 65 17 138q29 123 96.5 226.5t161.5 177.5t208.5 115t237.5 41q78 0 153 -15.5t138 -52.5l4 27q4 27 4 50t-9 39.5t-30.5 26t-60.5 9.5l242 313q84 0 147 -14.5t102 -50.5t49 -97q4 -20 4 -44q0 -48 -14 -112l-151 -657q-9 -41 -19 -79 q-7 -29 -8 -53q0 -8 1 -14q3 -30 24.5 -47.5t76.5 -17.5l-239 -313q-106 0 -179 22.5t-106 81.5q-96 -66 -188 -92.5t-199 -26.5q-123 0 -218 40t-156 114.5t-81 176.5zM434 530q-13 -56 -13 -99q0 -61 25 -99q43 -64 179 -64q33 0 73.5 10.5t79.5 30t69 48t38 67.5l53 235 q8 33 -11.5 58.5t-50 43t-66.5 26t-62 8.5q-137 0 -210 -65.5t-104 -199.5z" />
<glyph unicode="e" horiz-adv-x="1273" d="M20 306q-8 42 -8 88q0 65 17 136q29 123 96.5 226.5t161.5 177.5t208.5 115t237.5 41q102 0 191.5 -26t151.5 -78q64 -52 92 -134q18 -53 18 -117q0 -36 -6 -76l-764 -256q2 -57 29.5 -96t105.5 -39q66 0 117 47t71 109h387q-41 -109 -107.5 -193t-151.5 -141t-185 -87 t-207 -30q-123 0 -218 41t-156 115.5t-81 176.5zM465 633l319 106q-29 55 -112 56q-82 0 -129 -44t-74 -106q-4 -8 -4 -12z" />
<glyph unicode="f" horiz-adv-x="626" d="M-213 -121q78 0 109.5 34t48.5 107l176 764h-111l58 250h110l37 158q25 109 72 172t106.5 95t126 41t131.5 9q66 0 131.5 -6t126.5 -6l-71 -307q-47 6 -90 6q-76 0 -108 -29.5t-48 -101.5v-2h110l-65 -279h-111l-207 -901q-25 -109 -71.5 -172t-106 -96t-127 -41 t-131.5 -8z" />
<glyph unicode="g" horiz-adv-x="1472" d="M20 301q-8 42 -8 89q0 66 17 140q29 125 97.5 228.5t163.5 177.5t208.5 114t234.5 40q84 0 157 -16.5t132 -51.5l10 41h406l-234 -1012q-18 -80 -55 -169t-111.5 -163.5t-196.5 -125t-309 -50.5q-94 0 -184 15.5t-157.5 54.5t-104.5 107q-29 54 -29 133q0 22 2 45h402 q4 -18 14 -39t25.5 -38.5t35 -27.5t39.5 -10q49 0 87 25.5t65 63.5t43 80t23 75l4 20q-147 -74 -322 -74q-121 0 -216 40t-156.5 113t-82.5 175zM434 530q-13 -56 -13 -99q0 -60 24 -97q42 -66 180 -66q33 0 73.5 10.5t79.5 30t69 48t38 67.5l53 235q8 33 -11.5 58.5t-50 43 t-66.5 26t-62 8.5q-139 0 -211 -66.5t-103 -198.5z" />
<glyph unicode="h" horiz-adv-x="1327" d="M-59 0l237 1032q8 38 8 66q0 26 -7 42q-15 34 -93 34l242 313q63 0 126.5 -9.5t107.5 -41.5q44 -30 62 -94q7 -26 6 -61q0 -48 -14 -112l-51 -221q90 82 175 112t194 30q164 0 240 -98q52 -66 52 -162q0 -47 -12 -101l-65 -287q-8 -38 -9 -66q0 -26 8 -42q15 -34 93 -33 l-240 -313q-66 0 -128 8t-107 41q-44 33 -62 97q-7 26 -8 59q0 48 15 112l59 252q8 37 14 75q3 19 4 36q0 18 -4 32q-6 30 -28.5 48t-71.5 18q-90 0 -140 -61.5t-69 -143.5l-129 -561h-405z" />
<glyph unicode="i" horiz-adv-x="626" d="M-8 762l239 313q63 0 126 -9t108 -41q45 -31 63 -95q7 -26 6 -60q0 -48 -14 -112l-71 -316q-8 -38 -8 -66q0 -26 7 -42q15 -34 93 -33l-240 -313q-66 0 -128 8t-107.5 41t-62.5 97q-7 26 -7 60q0 48 14 111l74 316q8 38 8 66q0 25 -7 41q-15 34 -93 34zM207 1307 q0 47 20.5 85t54 63.5t76.5 39.5t86 14t85 -14t76 -39.5t55.5 -63.5t21.5 -85t-21.5 -85t-55.5 -63.5t-76 -40t-85 -14.5t-86 14.5t-76.5 40t-54 63.5t-20.5 85z" />
<glyph unicode="j" horiz-adv-x="626" d="M-786 -102h401q4 -18 14.5 -39t25.5 -38.5t34.5 -27.5t40.5 -10q49 0 86 25.5t63.5 63.5t43 80t24.5 75l137 594q8 38 8 66q0 25 -7 41q-15 34 -93 34l239 313q63 0 127 -9t108 -41t62 -95q7 -27 7 -60q0 -48 -15 -112l-162 -707q-18 -80 -55 -169t-111.5 -163.5 t-196.5 -125t-308 -50.5q-94 0 -184.5 15.5t-158 54.5t-104.5 107q-29 53 -29 130q0 23 3 48zM207 1307q0 47 20.5 85t54 63.5t76.5 39.5t86 14t85 -14t76 -39.5t55.5 -63.5t21.5 -85t-21.5 -85t-55.5 -63.5t-76 -40t-85 -14.5t-86 14.5t-76.5 40t-54 63.5t-20.5 85z" />
<glyph unicode="k" horiz-adv-x="1095" d="M-59 0l237 1032q8 38 8 66q0 26 -7 42q-15 34 -93 34l242 313q63 0 126.5 -9.5t107.5 -41.5q44 -30 62 -94q7 -26 6 -61q0 -48 -14 -112l-71 -311l184 205h440l-481 -531l53 -116q10 -23 25.5 -43.5t44.5 -20.5q20 0 40.5 9.5t39.5 19.5l-41 -318q-55 -33 -115.5 -59.5 t-120.5 -26.5q-72 0 -113.5 42t-68.5 100l-39 86l-47 -205h-405z" />
<glyph unicode="l" horiz-adv-x="626" d="M3 134q-7 26 -7 60q0 48 14 111l168 727q8 38 8 66q0 26 -7 42q-15 34 -93 34l242 313q63 0 126.5 -9.5t107.5 -41.5q44 -30 62 -94q7 -26 6 -61q0 -48 -14 -112l-167 -727q-8 -38 -8 -66q0 -26 7 -42q15 -34 93 -33l-240 -313q-66 0 -128 8t-107.5 41t-62.5 97z" />
<glyph unicode="m" horiz-adv-x="2027" d="M-59 0l143 621q8 37 8 65q0 26 -7 42q-14 34 -85 34h-8l239 313q51 0 100.5 -5t90.5 -21.5t69.5 -47t38.5 -83.5q35 31 88.5 61.5t110.5 55t111.5 40t93.5 15.5q109 0 187.5 -49.5t99.5 -153.5q82 115 186 159t227 44q164 0 241 -98q52 -66 52 -162q0 -47 -12 -101 l-66 -287q-8 -37 -8 -64q-1 -26 7 -44q15 -34 86 -33h8l-240 -313q-86 0 -150.5 14t-102.5 49t-49 97q-4 20 -4 44q0 49 15 113l49 207q8 39 20 84q9 36 9 67q0 8 -1 16q-3 38 -25.5 62.5t-78.5 24.5q-45 0 -79.5 -17.5t-60 -45t-43 -65.5t-25.5 -77l-129 -561h-406l129 557 q8 37 14 75q3 19 4 36q0 18 -4 32q-6 30 -28.5 48t-71.5 18q-45 0 -80 -17.5t-60.5 -45t-43 -65.5t-25.5 -77l-129 -561h-405z" />
<glyph unicode="n" horiz-adv-x="1327" d="M-59 0l143 621q8 37 8 65q0 26 -7 42q-14 34 -85 34h-8l239 313q129 0 208 -33.5t93 -130.5q86 98 185.5 138.5t216.5 40.5q164 0 240 -98q52 -66 52 -162q0 -47 -12 -101l-49 -217q-10 -41 -19 -79q-7 -28 -6 -52v-15q3 -30 24.5 -47.5t76.5 -17.5l-240 -313 q-86 0 -150.5 14t-102.5 49q-36 35 -48 97q-4 20 -4 44q0 49 15 113l49 207q8 39 20 84q9 34 8 65v18q-4 38 -26.5 62.5t-77.5 24.5q-45 0 -80 -17.5t-60.5 -45t-43 -65.5t-25.5 -77l-129 -561h-405z" />
<glyph unicode="o" horiz-adv-x="1310" d="M14 320q-3 30 -3 61q0 73 18 151q25 111 83 211.5t147 177t209 123t269 46.5q150 0 248 -46.5t152.5 -123t64.5 -176.5q3 -30 3 -61q0 -73 -17 -151q-25 -111 -83 -212t-147.5 -177.5t-209 -123t-269.5 -46.5t-248 46.5t-152.5 122.5t-64.5 178zM419 443q-2 -16 -2 -32 q0 -28 6 -53q9 -39 37.5 -64.5t86.5 -25.5q57 0 97 25.5t67.5 64.5t44 85t26.5 89q10 44 16 90q2 16 1 30q-1 28 -7 54q-10 38 -38.5 63.5t-85.5 25.5t-97.5 -26t-67 -63.5t-43 -84t-26.5 -89.5t-15 -89z" />
<glyph unicode="p" horiz-adv-x="1472" d="M-94 -288q-7 26 -7 59q0 48 15 112l170 738q8 38 8 66q0 25 -7 41q-15 34 -93 34l239 313q43 0 85 -3t79 -13t67 -30.5t48 -53.5q88 57 193.5 86t199.5 29q119 0 215 -40t157.5 -114t82.5 -178q9 -43 9 -90q0 -66 -17 -138q-29 -127 -97.5 -229t-164 -175t-210 -113 t-233.5 -40q-176 0 -289 74l-6 -27q-8 -38 -8 -65q0 -26 8 -43q15 -33 92 -33l-239 -313q-66 0 -128.5 8t-106.5 41t-62 97zM444 424q-3 -13 -3 -25q0 -24 11 -43q15 -28 44.5 -47.5t65.5 -30t69 -10.5q137 0 209.5 65.5t101.5 196.5q13 56 13 101q0 59 -23 97 q-41 67 -180 67q-27 0 -67 -8.5t-79 -26t-69.5 -43t-38.5 -58.5z" />
<glyph unicode="q" horiz-adv-x="1472" d="M20 301q-8 42 -8 89q0 66 17 140q29 125 97.5 228.5t163.5 177.5t208.5 114t234.5 40q84 0 157 -16.5t132 -51.5l10 41h406l-242 -1043q-8 -38 -8 -66q0 -25 7 -42q15 -33 93 -33l-239 -313q-66 0 -127.5 8t-106.5 41t-63 97q-7 26 -7 59q0 48 15 112l37 164 q-147 -74 -322 -74q-121 0 -216 40t-156.5 113t-82.5 175zM434 530q-13 -56 -13 -99q0 -60 24 -97q42 -66 180 -66q33 0 73.5 10.5t79.5 30t69 48t38 67.5l53 235q8 33 -11.5 58.5t-50 43t-66.5 26t-62 8.5q-139 0 -211 -66.5t-103 -198.5z" />
<glyph unicode="r" horiz-adv-x="925" d="M-59 0l143 621q8 37 8 65q0 26 -7 42q-14 34 -85 34h-8l239 313q129 0 207 -32.5t94 -124.5q51 47 96.5 79.5t92.5 53t98 30t115 9.5q37 0 72 -7l-322 -317q-45 0 -80 -17.5t-60.5 -45t-43 -65.5t-25.5 -77l-129 -561h-405z" />
<glyph unicode="s" horiz-adv-x="1169" d="M-39 348h387q-2 -13 -2 -25q0 -47 32 -71q40 -30 99 -29q20 0 45 4t47.5 13.5t40 26t23.5 38.5q6 23 1 39t-26.5 28.5t-62.5 23t-109 22.5q-223 40 -306 118q-59 55 -59 142q0 34 9 74q23 100 86 165.5t146 103.5t175.5 53.5t171.5 15.5q86 0 173.5 -14t153.5 -52 q64 -36 98 -102q21 -41 21 -97q0 -33 -7 -71h-369q2 11 2 21q1 37 -29 59q-38 30 -86 30q-43 0 -86 -15t-55 -67q-6 -23 15.5 -39t57.5 -29.5t80 -23.5t88 -18t78.5 -14.5t53.5 -12.5q47 -16 87 -39.5t66.5 -59.5t35.5 -84q4 -19 4 -40q0 -34 -9 -74q-25 -111 -90 -183.5 t-152.5 -114.5t-187.5 -59.5t-196 -17.5q-94 0 -183.5 19.5t-155 64.5t-97.5 117q-19 42 -18 95q0 37 9 79z" />
<glyph unicode="t" horiz-adv-x="626" d="M3 134q-7 26 -7 60q0 48 14 111l119 508h-111l58 250h110l45 197l443 161l-82 -358h110l-57 -250h-110l-86 -371q-8 -38 -8 -66q0 -26 7 -42q15 -34 93 -33l-240 -313q-66 0 -128 8t-107.5 41t-62.5 97z" />
<glyph unicode="u" horiz-adv-x="1327" d="M-8 762l239 313q86 0 149.5 -14t101.5 -49q38 -36 48 -98q4 -21 4 -45q0 -49 -14 -111l-47 -207q-11 -41 -21 -85q-8 -33 -8 -63q0 -10 2 -19q4 -38 25 -62.5t76 -24.5q45 0 81 17.5t60.5 45t40.5 64.5t27 78l131 561h405l-143 -621q-8 -37 -8 -65q0 -27 7 -43 q14 -34 85 -33h8l-240 -313q-129 0 -207.5 33.5t-93.5 130.5q-86 -98 -185 -138.5t-216 -40.5q-165 -1 -241 97q-52 66 -52 165q0 46 12 99l50 217q8 39 18 78q8 30 8 54q0 7 -1 15q-3 30 -24.5 47t-76.5 17z" />
<glyph unicode="v" horiz-adv-x="1110" d="M-20 707l141 344q47 16 95 26t95 10q53 0 90 -17t60.5 -47t36 -71t16.5 -88l21 -219l231 418h420l-590 -1063h-420l-57 612q-4 39 -16.5 73t-59.5 34q-16 0 -31.5 -4t-31.5 -8z" />
<glyph unicode="w" horiz-adv-x="2027" d="M-8 762l239 313q86 0 149.5 -14t101.5 -49q38 -36 48 -98q4 -21 4 -45q0 -49 -14 -111l-47 -207q-11 -41 -21 -85q-8 -33 -8 -63q0 -10 2 -19q4 -38 25 -62.5t76 -24.5q45 0 81 17.5t60.5 45t40.5 64.5t27 78l131 561h405l-129 -557q-8 -37 -14 -75q-3 -19 -3 -36t3 -31 q6 -30 27.5 -48.5t70.5 -18.5q45 0 81 17.5t60.5 45t41 64.5t26.5 78l131 561h406l-144 -621q-8 -37 -8 -64q-1 -26 7 -44q15 -34 86 -33h8l-240 -313q-51 0 -100.5 5t-91.5 21.5t-70.5 47t-38.5 83.5q-35 -31 -87 -61.5t-109.5 -55t-112 -40t-93.5 -15.5 q-111 0 -188.5 49.5t-97.5 153.5q-84 -115 -187.5 -159t-226.5 -44q-165 -1 -241 97q-52 66 -52 165q0 46 12 99l66 287q8 37 8 65q0 26 -7 42q-14 34 -85 34h-8z" />
<glyph unicode="x" horiz-adv-x="1157" d="M-170 0l481 530l-53 119q-10 23 -25.5 43.5t-44.5 20.5q-20 0 -40.5 -9.5t-38.5 -19.5l41 317q53 33 114.5 61t120.5 28q72 0 115 -43t67 -101l39 -88l187 205h440l-481 -531l51 -116q10 -23 26.5 -43.5t44.5 -20.5q20 0 41 9.5t39 19.5l-41 -318q-55 -33 -116.5 -59.5 t-120.5 -26.5q-72 0 -113 42t-67 100l-39 86l-187 -205h-440z" />
<glyph unicode="y" horiz-adv-x="1327" d="M-86 -102h401q4 -18 14.5 -39t26 -38.5t35 -27.5t39.5 -10q49 0 86 25.5t63.5 63.5t43 80t24.5 75l21 88q-90 -82 -176 -112t-193 -30q-164 0 -241 97q-52 67 -52 165q0 46 12 99l66 287q8 38 8 66q0 25 -7 41q-15 34 -93 34l239 313q63 0 126 -9t108 -41t63 -95 q7 -27 7 -60q0 -48 -15 -112l-57 -252q-8 -37 -15 -75q-3 -19 -3 -36t3 -31q7 -30 28.5 -48.5t70.5 -18.5q92 0 141 61.5t68 143.5l131 561h405l-233 -1012q-18 -80 -55 -169t-112 -163.5t-197 -125t-308 -50.5q-94 0 -184 15.5t-158 54.5t-105 107q-28 54 -28 133 q0 22 2 45z" />
<glyph unicode="z" horiz-adv-x="1138" d="M-135 0l72 313l602 455h-201q-53 0 -82 -17.5t-41 -72.5l-201 121q10 47 27.5 94t49.5 85t83 61.5t131 23.5h823l-71 -311l-592 -457h242q53 0 81.5 17.5t40.5 72.5l201 -121q-10 -47 -27.5 -94t-50 -85t-84 -61.5t-131.5 -23.5h-872z" />
<glyph unicode="{" horiz-adv-x="880" d="M8 369l72 313q29 0 60.5 5t59 18.5t49 36t30.5 57.5l96 413q14 61 49 109.5t83 82.5t104.5 52.5t113.5 18.5h233l-71 -314h-72q-63 0 -92 -35.5t-41 -89.5l-76 -323q-12 -51 -41.5 -86t-69.5 -56.5t-86.5 -32t-89.5 -12.5q49 -4 91.5 -14t70 -31.5t37.5 -59.5t-2 -97 l-70 -308q-14 -61 5.5 -93t85.5 -32h57l-74 -313h-233q-57 0 -105.5 18.5t-80 52.5t-45 82t0.5 109l93 396q8 37 -1.5 63.5t-30 41.5t-50 21.5t-60.5 6.5z" />
<glyph unicode="|" horiz-adv-x="534" d="M111 0v1475h313v-1475h-313z" />
<glyph unicode="}" horiz-adv-x="880" d="M-176 -422l74 313h57q66 0 99.5 32t47.5 93l70 306q14 59 42 97t65.5 60.5t85 31.5t98.5 13q-43 2 -84 12.5t-70.5 32t-44 56t-2.5 86.5l76 325q12 53 -1 89t-75 36h-72l72 314h234q57 0 105 -18.5t81 -52.5t46 -82t-1 -110l-96 -411q-8 -35 3 -58.5t32.5 -37t51.5 -17.5 t58 -4l-71 -313q-33 0 -66 -7.5t-60.5 -22.5t-48 -41t-28.5 -62l-92 -398q-14 -61 -49 -109t-84.5 -82t-105.5 -52.5t-114 -18.5h-233z" />
<glyph unicode="~" horiz-adv-x="1097" d="M76 786q16 33 39.5 65t54.5 56.5t71 40t91 15.5q53 0 110.5 -19.5t116.5 -46.5q57 -25 112.5 -48.5t96.5 -23.5q61 0 103 46.5t77 99.5l74 -283q-23 -33 -48.5 -64.5t-55 -56t-67.5 -40t-85 -15.5q-57 0 -107.5 19.5t-101.5 48.5q-49 29 -106.5 49t-128.5 20 q-68 0 -108 -46t-64 -99z" />
<glyph unicode="&#xa1;" horiz-adv-x="626" d="M-90 0l369 1018h200l-102 -1018h-467zM205 1296q10 47 39.5 85t69.5 63.5t86 40t89 14.5t82 -14.5t67 -40t40 -63.5t2 -85t-40 -84.5t-70 -63.5t-86 -40t-89 -14t-82 14t-66.5 40t-39.5 63.5t-2 84.5z" />
<glyph unicode="&#xa2;" horiz-adv-x="1273" d="M86 537.5q-12 91.5 12 197.5q25 106 79 198.5t131 164t171 120t197 66.5l43 191h239l-43 -187q82 -12 150 -45t114 -85t66.5 -124.5t5.5 -169.5h-387q10 66 -23.5 101.5t-97.5 35.5q-59 0 -100 -23.5t-68.5 -61t-44 -85t-26.5 -94.5t-15.5 -94t5 -85t40 -61.5t89.5 -23.5 q66 0 117 47t71 111h385q-35 -94 -89 -170t-123 -132.5t-151.5 -91t-170.5 -49.5l-44 -188h-239l43 190q-94 18 -166 66.5t-115 119t-55 162z" />
<glyph unicode="&#xa3;" horiz-adv-x="1243" d="M-106 195q49 29 97 60.5t88 68t69.5 82t41.5 102.5q4 18 7.5 37.5t-0.5 38.5h-240l59 260h146q-23 41 -26 92t9 102q27 113 91.5 199t153.5 144.5t194.5 87t212.5 28.5q248 0 361.5 -126t68.5 -380h-396q6 31 5.5 63.5t-12 58.5t-34 43.5t-57.5 17.5q-63 0 -103 -29 t-57 -94q-10 -49 5.5 -104.5t23.5 -102.5h223l-59 -260h-154q0 -25 -6 -45q-14 -63 -61 -123t-107 -94q23 10 47.5 14t46.5 4q37 0 72 -8t69 -17.5t67.5 -17.5t70.5 -8q29 0 54.5 12t48 32.5t42 43t35.5 45.5l96 -291q-88 -78 -189 -122t-206 -44q-66 0 -121 15.5t-114 31.5 t-113.5 25.5t-108 6.5t-110.5 -21.5t-123 -57.5z" />
<glyph unicode="&#xa4;" horiz-adv-x="1179" d="M35 315l123 119q-29 41 -55.5 118t-26.5 161q-2 86 25.5 161.5t56.5 114.5l-123 117l160 156l116 -115q37 31 115 55.5t164 24.5q84 0 158.5 -24.5t113.5 -55.5l119 115l156 -154l-119 -119q33 -39 59.5 -114.5t26.5 -161.5q0 -82 -25.5 -160t-60.5 -119l119 -119 l-154 -153l-121 123q-47 -43 -117.5 -64.5t-154.5 -21.5q-86 0 -159 20.5t-120 61.5l-123 -119zM371 713q0 -55 19.5 -96.5t51 -69t70.5 -40.5t78 -13t78 13t70.5 40.5t51 69t19.5 96.5t-19.5 96t-51 68.5t-70.5 41t-78 13.5t-78 -13.5t-70.5 -41t-51 -68.5t-19.5 -96z" />
<glyph unicode="&#xa5;" d="M-33 72l58 250h307l16 69h-307l57 250h308l16 74q-295 96 -203 497l62 263h450l-53 -234q-6 -25 -13.5 -59.5t-7.5 -67.5t13.5 -56.5t50.5 -23.5t61.5 23.5t41 56.5t24.5 68t14 59l53 234h451l-61 -263q-47 -205 -157 -327.5t-276 -169.5l-16 -74h307l-57 -250h-307 l-17 -69h308l-58 -250h-307l-16 -72h-451l16 72h-307z" />
<glyph unicode="&#xa6;" horiz-adv-x="534" d="M111 0v535h313v-535h-313zM111 940v535h313v-535h-313z" />
<glyph unicode="&#xa7;" horiz-adv-x="1382" d="M37 496q0 186 131 317q-66 55 -98.5 119.5t-32.5 152.5q0 125 59.5 207t151.5 130t202.5 67.5t213.5 19.5q102 0 211.5 -16t202.5 -60t155.5 -123t73.5 -202h-437q-6 33 -25.5 59.5t-46 46t-58 29.5t-64.5 10q-31 0 -62.5 -5t-57.5 -19.5t-41 -39t-15 -63.5 q0 -33 32.5 -57.5t84 -44.5t114 -34.5t121.5 -26t107.5 -20.5t72.5 -15q137 -43 225.5 -131t88.5 -240q0 -96 -32 -173t-100 -144q68 -55 100 -120t32 -153q0 -125 -60.5 -207t-153 -130t-203 -67.5t-210.5 -19.5q-102 0 -212 16.5t-202 60.5t-155.5 123t-73.5 202h436 q6 -33 25.5 -59.5t46 -46t58.5 -30t65 -10.5q31 0 62.5 5.5t57 19.5t41 38.5t15.5 63.5q0 33 -33 57.5t-84 45t-113.5 35t-122 25.5t-108.5 19.5t-72 16.5q-68 20 -125 53t-99 78t-65.5 104.5t-23.5 135.5zM500 553q0 -37 13 -59.5t35.5 -38t50.5 -23.5t58 -16 q33 -8 65 -15.5t64 -11.5q37 14 67 40t30 71q0 37 -13.5 59.5t-36 37.5t-50 24.5t-58.5 17.5q-66 14 -129 25q-37 -14 -66.5 -40t-29.5 -71z" />
<glyph unicode="&#xa8;" horiz-adv-x="0" d="M281 1311q0 47 20.5 85t54 63.5t76.5 39.5t86 14t86 -14t77 -39.5t54.5 -63.5t20.5 -85t-20.5 -85t-54.5 -64.5t-77 -41t-86 -14.5t-86 14.5t-76.5 41t-54 64.5t-20.5 85zM819 1311q0 47 20.5 85t54.5 63.5t77 39.5t86 14t85 -14t75.5 -39.5t55 -63.5t21.5 -85t-21.5 -85 t-55 -64.5t-75.5 -41t-85 -14.5t-86 14.5t-77 41t-54.5 64.5t-20.5 85z" />
<glyph unicode="&#xa9;" horiz-adv-x="1683" d="M76 737q0 160 60.5 299.5t163.5 242.5t242.5 163.5t299.5 60.5t299 -60.5t242.5 -163.5t164 -242.5t60.5 -299.5t-60.5 -299t-164 -242.5t-243 -164t-298.5 -60.5q-160 0 -299.5 60.5t-242.5 164t-163.5 243t-60.5 298.5zM330 737q0 -109 39 -204t108.5 -166.5 t162.5 -113.5t202 -42t202 42t162.5 113.5t108.5 166.5t39 204t-39 204t-108.5 167t-163 114t-201.5 42q-109 0 -202 -42t-162.5 -114t-108.5 -167t-39 -204zM440 735q0 92 29 171t81 135.5t128 89t170 32.5q139 0 236.5 -78.5t123.5 -238.5h-196q-25 106 -158 106 q-90 0 -139 -57t-49 -156q0 -98 53 -158.5t133 -60.5q63 0 107.5 25.5t52.5 93.5h205q-12 -84 -46 -145.5t-82.5 -102.5t-108.5 -61.5t-128 -20.5q-92 0 -169 33t-130 90t-83 135t-30 168z" />
<glyph unicode="&#xaa;" horiz-adv-x="958" d="M170 1028.5q-12 61.5 4 134.5q16 74 57 136.5t97.5 106.5t125 68.5t142.5 24.5q47 0 92 -9t82 -32l6 25h244l-90 -389q-6 -29 4 -48.5t55 -19.5l-143 -188q-63 0 -106.5 12t-61.5 47q-66 -35 -117 -51.5t-119 -16.5q-74 0 -131 25t-93 69t-48 105.5zM418 1163 q-18 -78 7.5 -117.5t106.5 -39.5q18 0 43 6t48.5 18t41 29.5t23.5 40.5l33 141q4 20 -7.5 35.5t-29.5 26t-39.5 15.5t-38.5 5q-82 0 -126 -40t-62 -120z" />
<glyph unicode="&#xab;" horiz-adv-x="921" d="M51 555l82 363l395 266l-71 -316l-191 -131l131 -123l-73 -323zM455 555l82 363l395 266l-72 -316l-190 -131l131 -123l-74 -321z" />
<glyph unicode="&#xac;" horiz-adv-x="626" d="M-66 451l48 208l131 86l65 287q16 74 1 108t-93 34l242 313q63 0 126.5 -9.5t107.5 -41t62.5 -95t-8.5 -172.5l-26 -112l131 86l-49 -209l-129 -86l-94 -406q-16 -74 -1 -107.5t93 -33.5l-240 -313q-66 0 -128 8t-107.5 41t-62.5 96.5t7 171.5l53 232z" />
<glyph unicode="&#xad;" horiz-adv-x="825" d="M10 379l76 336h641l-76 -336h-641z" />
<glyph unicode="&#xae;" horiz-adv-x="917" d="M76 1116q0 80 29.5 149.5t82 122t122 82t149.5 29.5t149.5 -29.5t121.5 -82t82 -122t30 -149.5t-30 -149.5t-82 -121.5t-121.5 -82t-149.5 -30t-149.5 30t-122 82t-82 121.5t-29.5 149.5zM203 1116q0 -55 19.5 -103t54 -84t80.5 -56.5t102 -20.5q53 0 100 20.5t82 56.5 t54.5 84t19.5 103q0 53 -19.5 101.5t-54.5 84t-81 56t-101 20.5q-53 0 -100.5 -20.5t-82 -56t-54 -84t-19.5 -101.5zM307 922v387h150q84 0 128 -24.5t44 -96.5q0 -57 -30 -80t-73 -27l88 -159h-100l-78 153h-37v-153h-92zM399 1147h76q29 0 42 11t13 40t-25.5 34t-47.5 5 h-58v-90z" />
<glyph unicode="&#xaf;" horiz-adv-x="0" d="M408 1165l43 187h694l-43 -187h-694z" />
<glyph unicode="&#xb0;" horiz-adv-x="761" d="M76 1194q0 66 22.5 122t63.5 97t97 63.5t122 22.5t122 -22.5t97 -63.5t63.5 -97t22.5 -122t-22.5 -122t-63.5 -97t-97.5 -63.5t-121.5 -22.5q-66 0 -122 22.5t-97 63.5t-63.5 97t-22.5 122zM236 1194q0 -63 43 -104t102 -41t102 41t43 104t-43 104t-102 41t-102 -41 t-43 -104z" />
<glyph unicode="&#xb1;" horiz-adv-x="1218" d="M92 219v313h1034v-313h-1034zM92 776v314h361v165h313v-165h360v-314h-360v-166h-313v166h-361z" />
<glyph unicode="&#xb2;" horiz-adv-x="833" d="M45 674q14 84 58 147.5t105.5 114.5t133.5 91t143 77q35 16 75 43t48 63q10 41 -4 64.5t-55 23.5q-61 0 -93 -47t-46 -118h-242q14 86 52 153.5t94.5 114.5t128 72.5t155.5 25.5q63 0 119.5 -14.5t96.5 -45t57.5 -80.5t0.5 -122q-16 -68 -56 -120t-93 -93t-114.5 -73.5 t-121.5 -61.5h121q29 0 42.5 10t23.5 57l157 -92q-20 -88 -65 -139t-143 -51h-578z" />
<glyph unicode="&#xb3;" horiz-adv-x="813" d="M97.5 841.5q-13.5 63.5 17.5 153.5h243q-16 -70 1.5 -101.5t76.5 -31.5q88 0 107 78q10 39 -10.5 56.5t-61.5 17.5h-37l39 168h37q37 0 67.5 14t36.5 47q6 27 -17.5 43.5t-53.5 16.5q-41 0 -75 -27t-42 -76h-244q20 80 61.5 137.5t95.5 93t119.5 52t135.5 16.5 q45 0 97 -12t94 -39t65.5 -68t11.5 -98q-4 -16 -12 -38.5t-21.5 -47.5t-33 -47.5t-45.5 -36.5q23 -12 36 -35.5t19 -50.5t6 -54t-6 -50q-16 -68 -58 -117t-99.5 -81t-123 -47t-125.5 -15q-74 0 -138 18t-107 58t-56.5 103.5z" />
<glyph unicode="&#xb4;" horiz-adv-x="0" d="M438 1165l275 305h428l-424 -305h-279z" />
<glyph unicode="&#xb5;" horiz-adv-x="1327" d="M-213 -121q55 0 85 17.5t47.5 47t24.5 67.5t17 79l225 973h406l-129 -557q-8 -37 -14.5 -75t0 -67.5t28 -48t70.5 -18.5q45 0 81 17.5t60.5 45t40.5 64.5t27 78l131 561h405l-137 -592q-8 -37 -13 -68.5t1 -54t28.5 -35t69.5 -12.5l-240 -313q-127 0 -204.5 31.5 t-96.5 121.5q-45 -41 -99 -79.5t-120 -61.5q-10 -4 -30.5 -8t-43 -9.5t-42 -7.5t-25.5 0l-21 -92q-23 -96 -60.5 -157.5t-92.5 -96.5t-126 -49t-157 -14z" />
<glyph unicode="&#xb6;" horiz-adv-x="1333" d="M76 1110q0 111 39 181.5t106.5 111.5t159.5 56.5t199 15.5h643v-1897h-279v1686h-133v-1686h-279v1182q-223 0 -339.5 92t-116.5 258z" />
<glyph unicode="&#xb7;" horiz-adv-x="626" d="M76 737q0 47 20.5 85t54 63.5t76.5 40t86 14.5t85 -14.5t76 -40t55.5 -63.5t21.5 -85t-21.5 -85t-55.5 -63.5t-76 -39.5t-85 -14t-86 14t-76.5 39.5t-54 63.5t-20.5 85z" />
<glyph unicode="&#xb8;" horiz-adv-x="0" d="M113 -418l65 94q41 -12 80 -26.5t86 -14.5q37 0 76 16.5t49 59.5q8 35 -16.5 53.5t-55.5 18.5q-39 0 -86 -21l-41 50l158 188h119l-117 -135q23 10 49.5 12t48.5 2q39 0 73 -10t58.5 -29.5t34.5 -51.5t0 -75q-12 -53 -46 -90t-78 -58.5t-93 -30.5t-94 -9 q-82 0 -141.5 15.5t-128.5 41.5z" />
<glyph unicode="&#xb9;" horiz-adv-x="700" d="M199 1274q8 35 21 70.5t38 64.5t63.5 47.5t100.5 18.5h338l-187 -811h-278l133 581h-14q-18 0 -27.5 -16.5t-19.5 -52.5z" />
<glyph unicode="&#xba;" horiz-adv-x="847" d="M165 1037.5q-7 60.5 9 127.5q14 66 49 126.5t89.5 106.5t126 73.5t161.5 27.5t149.5 -27.5t91 -73.5t37.5 -106.5t-8 -126.5q-16 -68 -50 -128t-88 -106t-125.5 -74t-162.5 -28q-90 0 -149 28t-91 74t-39 106.5zM409 1111.5q-3 -28.5 2 -52t22.5 -38.5t51.5 -15 q35 0 58.5 15t40 38.5t27 52t16.5 53.5t9 53.5t-2 51t-22.5 38t-52.5 15.5t-58.5 -15.5t-40 -38t-26.5 -51t-16 -53.5t-9 -53.5z" />
<glyph unicode="&#xbb;" horiz-adv-x="921" d="M-10 291l71 315l191 131l-131 123l74 324l272 -264l-82 -363zM393 291l72 315l190 131l-131 123l74 324l272 -264l-82 -363z" />
<glyph unicode="&#xbc;" horiz-adv-x="1826" d="M176 0l1104 1475h225l-1106 -1475h-223zM199 1274q8 35 21 70.5t38 64.5t63.5 47.5t100.5 18.5h338l-187 -811h-278l133 581h-14q-18 0 -27.5 -16.5t-19.5 -52.5zM786 176l52 223l460 412h248l-98 -422h12q18 0 28.5 15.5t18.5 52.5l158 -92q-8 -33 -20.5 -67t-35 -60.5 t-59.5 -44t-94 -17.5h-57l-41 -176h-264l41 176h-349zM1040 389h144l37 158z" />
<glyph unicode="&#xbd;" horiz-adv-x="1783" d="M176 0l1104 1475h225l-1106 -1475h-223zM199 1274q8 35 21 70.5t38 64.5t63.5 47.5t100.5 18.5h338l-187 -811h-278l133 581h-14q-18 0 -27.5 -16.5t-19.5 -52.5zM840 0q14 84 57 147.5t104.5 113.5t134 91t144.5 78q33 16 73 42t50 65t-4.5 62.5t-55.5 23.5 q-61 0 -92.5 -46.5t-48.5 -117.5h-241q14 86 52 153.5t95 114.5t129 72.5t156 25.5q61 0 118.5 -14t97.5 -46t57 -82t1 -122q-16 -68 -55 -119t-93.5 -92t-116 -73.5t-120.5 -61.5h119q31 0 44 10.5t23 55.5l158 -93q-20 -88 -65 -138t-144 -50h-577z" />
<glyph unicode="&#xbe;" horiz-adv-x="1908" d="M97.5 841.5q-13.5 63.5 17.5 153.5h243q-16 -70 1.5 -101.5t76.5 -31.5q88 0 107 78q10 39 -10.5 56.5t-61.5 17.5h-37l39 168h37q37 0 67.5 14t36.5 47q6 27 -17.5 43.5t-53.5 16.5q-41 0 -75 -27t-42 -76h-244q20 80 61.5 137.5t95.5 93t119.5 52t135.5 16.5 q45 0 97 -12t94 -39t65.5 -68t11.5 -98q-4 -16 -12 -38.5t-21.5 -47.5t-33 -47.5t-45.5 -36.5q23 -12 36 -35.5t19 -50.5t6 -54t-6 -50q-16 -68 -58 -117t-99.5 -81t-123 -47t-125.5 -15q-74 0 -138 18t-107 58t-56.5 103.5zM258 0l1104 1475h225l-1106 -1475h-223zM868 176 l52 223l460 412h248l-98 -422h12q18 0 28.5 15.5t18.5 52.5l158 -92q-8 -33 -20.5 -67t-35 -60.5t-59.5 -44t-94 -17.5h-57l-41 -176h-264l41 176h-349zM1122 389h144l37 158z" />
<glyph unicode="&#xbf;" horiz-adv-x="1265" d="M-4 255q-12 75 2 142q18 94 56 152.5t87 97.5t105.5 63.5t113.5 53.5q39 18 66 36.5t44 39t28.5 47t19.5 61.5l23 99h379l-23 -99q-6 -31 -17.5 -79t-36 -99t-65.5 -100t-108 -82q-27 -12 -63 -26.5t-69.5 -32t-60 -42t-35.5 -59.5q-25 -104 95 -104q74 0 116.5 53 t53.5 121h428q-29 -96 -83.5 -189.5t-139.5 -167t-201.5 -120t-266.5 -46.5t-244 40t-143 102.5t-61 137.5zM549 1294q12 47 42 85t69.5 63.5t85 40t88.5 14.5t82.5 -14.5t67.5 -40t40 -63.5t0 -85q-10 -47 -40 -85t-70 -63.5t-86 -39.5t-89 -14t-82 14t-66.5 39.5 t-39.5 63.5t-2 85z" />
<glyph unicode="&#xc0;" d="M-59 0l227 983q61 268 230 397t433 129q272 0 377 -132t45 -394l-227 -983h-451l130 563h-185l-129 -563h-450zM582 1870h426l133 -305h-281zM602 911h184l9 43q4 23 12 59t8 68.5t-13.5 56t-49.5 23.5q-37 0 -61.5 -23.5t-41 -56t-26 -68.5t-13.5 -59z" />
<glyph unicode="&#xc1;" d="M-59 0l227 983q61 268 230 397t433 129q272 0 377 -132t45 -394l-227 -983h-451l130 563h-185l-129 -563h-450zM555 1565l274 305h428l-423 -305h-279zM602 911h184l9 43q4 23 12 59t8 68.5t-13.5 56t-49.5 23.5q-37 0 -61.5 -23.5t-41 -56t-26 -68.5t-13.5 -59z" />
<glyph unicode="&#xc2;" d="M-59 0l227 983q61 268 230 397t433 129q272 0 377 -132t45 -394l-227 -983h-451l130 563h-185l-129 -563h-450zM432 1565l320 305h335l179 -305h-301l-80 155l-152 -155h-301zM602 911h184l9 43q4 23 12 59t8 68.5t-13.5 56t-49.5 23.5q-37 0 -61.5 -23.5t-41 -56 t-26 -68.5t-13.5 -59z" />
<glyph unicode="&#xc3;" d="M-59 0l227 983q61 268 230 397t433 129q272 0 377 -132t45 -394l-227 -983h-451l130 563h-185l-129 -563h-450zM467 1565q10 45 32.5 96t59.5 94t88 71.5t117 28.5q47 0 91 -13t83 -28.5t69.5 -27.5t49.5 -12q33 0 61.5 17t50.5 71h168q-16 -59 -43.5 -110.5t-66.5 -90.5 t-87 -61.5t-106 -22.5q-47 0 -88 12.5t-76.5 25.5t-69.5 25.5t-67 12.5q-35 0 -62.5 -30t-41.5 -58h-162zM602 911h184l9 43q4 23 12 59t8 68.5t-13.5 56t-49.5 23.5q-37 0 -61.5 -23.5t-41 -56t-26 -68.5t-13.5 -59z" />
<glyph unicode="&#xc4;" d="M-59 0l227 983q61 268 230 397t433 129q272 0 377 -132t45 -394l-227 -983h-451l130 563h-185l-129 -563h-450zM385 1710q0 47 20.5 85t54.5 63.5t77 40t86 14.5t85 -14.5t75.5 -40t55 -63.5t21.5 -85t-21.5 -85t-55 -64.5t-75.5 -41t-85 -14.5t-86 14.5t-77 41 t-54.5 64.5t-20.5 85zM602 911h184l9 43q4 23 12 59t8 68.5t-13.5 56t-49.5 23.5q-37 0 -61.5 -23.5t-41 -56t-26 -68.5t-13.5 -59zM922 1710q0 47 20.5 85t54 63.5t76.5 40t86 14.5t85 -14.5t76 -40t55.5 -63.5t21.5 -85t-21.5 -85t-55.5 -64.5t-76 -41t-85 -14.5t-86 14.5 t-76.5 41t-54 64.5t-20.5 85z" />
<glyph unicode="&#xc5;" d="M-59 0l227 983q61 268 230 397t433 129q272 0 377 -132t45 -394l-227 -983h-451l130 563h-185l-129 -563h-450zM602 911h184l9 43q4 23 12 59t8 68.5t-13.5 56t-49.5 23.5q-37 0 -61.5 -23.5t-41 -56t-26 -68.5t-13.5 -59zM657 1761q0 47 18.5 89t50.5 73t74 49.5 t89 18.5t89 -18.5t72.5 -49.5t49 -73t18.5 -89t-18.5 -89t-49 -73.5t-72.5 -50t-89 -18.5t-89 18.5t-74 50t-50.5 73.5t-18.5 89zM780 1761q0 -43 33 -75.5t76 -32.5t74.5 33.5t31.5 74.5t-32.5 74t-73.5 33t-75 -32t-34 -75z" />
<glyph unicode="&#xc6;" horiz-adv-x="1941" d="M-59 0l227 983q61 268 230 397t433 129q217 0 328 -86l12 52h826l-86 -375h-631q-12 -53 -17.5 -73.5t-7.5 -32t-6 -27t-12 -56.5h561l-82 -348h-561l-43 -188h653l-86 -375h-1104l130 563h-185l-129 -563h-450zM602 911h184l9 43q4 23 12 59t8 68.5t-13.5 56t-49.5 23.5 q-37 0 -61.5 -23.5t-41 -56t-26 -68.5t-13.5 -59z" />
<glyph unicode="&#xc7;" horiz-adv-x="1556" d="M54.5 440.5q-15.5 137.5 21.5 296.5q39 168 123 310.5t203.5 245t270 159.5t322.5 57q287 0 427.5 -144t103.5 -435h-441q10 96 -39 155.5t-147 59.5q-84 0 -146.5 -39t-107.5 -98.5t-74.5 -131t-44.5 -139.5q-16 -68 -19 -139.5t14.5 -130.5t62.5 -98t127 -39 q57 0 102 19.5t81 52t62.5 77.5t47.5 94h440q-31 -129 -103.5 -236.5t-174 -186t-221.5 -126t-245 -57.5l-88 -102q23 10 49.5 12t47.5 2q39 0 73.5 -10t59 -29.5t35 -51.5t0.5 -75q-12 -53 -46 -90t-79 -58.5t-94.5 -30.5t-94.5 -9q-82 0 -140 15.5t-128 41.5l63 94 q41 -12 81 -26.5t87 -14.5q35 0 74 16.5t49 59.5q8 35 -15.5 53.5t-55.5 18.5q-37 0 -84 -21l-41 50l129 155q-158 8 -269.5 69.5t-177 164t-81 240z" />
<glyph unicode="&#xc8;" d="M-59 0l340 1475h1081l-86 -375h-631l-43 -189h561l-82 -348h-561l-43 -188h653l-86 -375h-1103zM563 1870h426l133 -305h-280z" />
<glyph unicode="&#xc9;" horiz-adv-x="1441" d="M-59 0l340 1475h1081l-86 -375h-631l-43 -189h561l-82 -348h-561l-43 -188h653l-86 -375h-1103zM578 1565l274 305h428l-424 -305h-278z" />
<glyph unicode="&#xca;" d="M-59 0l340 1475h1081l-86 -375h-631l-43 -189h561l-82 -348h-561l-43 -188h653l-86 -375h-1103zM434 1565l320 305h336l178 -305h-301l-80 155l-152 -155h-301z" />
<glyph unicode="&#xcb;" d="M-59 0l340 1475h1081l-86 -375h-631l-43 -189h561l-82 -348h-561l-43 -188h653l-86 -375h-1103zM367 1710q0 47 20.5 85t54 63.5t76.5 40t86 14.5t85 -14.5t76 -40t55.5 -63.5t21.5 -85t-21.5 -85t-55.5 -64.5t-76 -41t-85 -14.5t-86 14.5t-76.5 41t-54 64.5t-20.5 85z M903 1710q0 47 20.5 85t54.5 63.5t77 40t86 14.5t85 -14.5t75.5 -40t55 -63.5t21.5 -85t-21.5 -85t-55 -64.5t-75.5 -41t-85 -14.5t-86 14.5t-77 41t-54.5 64.5t-20.5 85z" />
<glyph unicode="&#xcc;" horiz-adv-x="671" d="M-59 0l340 1475h450l-340 -1475h-450zM266 1870h426l133 -305h-280z" />
<glyph unicode="&#xcd;" horiz-adv-x="671" d="M-59 0l340 1475h450l-340 -1475h-450zM240 1565l274 305h428l-424 -305h-278z" />
<glyph unicode="&#xce;" horiz-adv-x="671" d="M-59 0l340 1475h450l-340 -1475h-450zM117 1565l319 305h336l178 -305h-301l-80 155l-151 -155h-301z" />
<glyph unicode="&#xcf;" horiz-adv-x="671" d="M-59 0l340 1475h450l-340 -1475h-450zM70 1710q0 47 20.5 85t54 63.5t76.5 40t86 14.5t85 -14.5t76 -40t55.5 -63.5t21.5 -85t-21.5 -85t-55.5 -64.5t-76 -41t-85 -14.5t-86 14.5t-76.5 41t-54 64.5t-20.5 85zM606 1710q0 47 20.5 85t54.5 63.5t77 40t86 14.5t85 -14.5 t75.5 -40t55 -63.5t21.5 -85t-21.5 -85t-55 -64.5t-75.5 -41t-85 -14.5t-86 14.5t-77 41t-54.5 64.5t-20.5 85z" />
<glyph unicode="&#xd0;" horiz-adv-x="1480" d="M-59 0l145 635h-109l60 250h108l136 590h634q168 0 280 -56.5t170 -155t67.5 -233.5t-27.5 -291q-84 -362 -319.5 -550.5t-598.5 -188.5h-546zM477 375h72q86 0 153.5 28.5t117.5 78.5t84 117.5t52 145.5q39 166 -31.5 260.5t-240.5 94.5h-39l-49 -215h223l-59 -250h-223 z" />
<glyph unicode="&#xd1;" d="M-59 0l227 983q61 268 230 397t433 129q272 0 377 -132t45 -394l-227 -983h-451l220 954q6 23 13 59t7 68.5t-13.5 56t-49.5 23.5q-37 0 -61.5 -23.5t-41 -56t-25 -68.5t-14.5 -59l-219 -954h-450zM465 1565q10 45 32.5 96t59.5 94t88 71.5t117 28.5q47 0 91 -13 t83 -28.5t69.5 -27.5t49.5 -12q33 0 61.5 17t50.5 71h168q-16 -59 -43.5 -110.5t-66.5 -90.5t-87 -61.5t-106 -22.5q-47 0 -88 12.5t-77 25.5t-69.5 25.5t-66.5 12.5q-35 0 -62.5 -30t-41.5 -58h-162z" />
<glyph unicode="&#xd2;" horiz-adv-x="1634" d="M57.5 430q-20.5 141 18.5 307t124 307.5t205.5 245t270 161.5t319.5 58q168 0 292 -58t196.5 -161.5t93.5 -245t-18 -307.5t-124 -307t-206 -244.5t-271.5 -162t-318.5 -58.5q-170 0 -293 58.5t-195.5 162t-93 244.5zM508 596.5q-2 -72.5 18.5 -131.5t67.5 -97t129 -38 t146.5 38t111.5 97t79 131.5t48 140.5t18 140.5t-18.5 132t-67.5 97.5t-129 38t-146.5 -38t-112.5 -97.5t-78.5 -132t-47.5 -140.5q-16 -68 -18 -140.5zM657 1870h426l134 -305h-281z" />
<glyph unicode="&#xd3;" horiz-adv-x="1634" d="M57.5 430q-20.5 141 18.5 307t124 307.5t205.5 245t270 161.5t319.5 58q168 0 292 -58t196.5 -161.5t93.5 -245t-18 -307.5t-124 -307t-206 -244.5t-271.5 -162t-318.5 -58.5q-170 0 -293 58.5t-195.5 162t-93 244.5zM508 596.5q-2 -72.5 18.5 -131.5t67.5 -97t129 -38 t146.5 38t111.5 97t79 131.5t48 140.5t18 140.5t-18.5 132t-67.5 97.5t-129 38t-146.5 -38t-112.5 -97.5t-78.5 -132t-47.5 -140.5q-16 -68 -18 -140.5zM713 1565l274 305h428l-424 -305h-278z" />
<glyph unicode="&#xd4;" horiz-adv-x="1634" d="M57.5 430q-20.5 141 18.5 307t124 307.5t205.5 245t270 161.5t319.5 58q168 0 292 -58t196.5 -161.5t93.5 -245t-18 -307.5t-124 -307t-206 -244.5t-271.5 -162t-318.5 -58.5q-170 0 -293 58.5t-195.5 162t-93 244.5zM508 596.5q-2 -72.5 18.5 -131.5t67.5 -97t129 -38 t146.5 38t111.5 97t79 131.5t48 140.5t18 140.5t-18.5 132t-67.5 97.5t-129 38t-146.5 -38t-112.5 -97.5t-78.5 -132t-47.5 -140.5q-16 -68 -18 -140.5zM590 1565l319 305h336l178 -305h-301l-80 155l-151 -155h-301z" />
<glyph unicode="&#xd5;" horiz-adv-x="1634" d="M57.5 430q-20.5 141 18.5 307t124 307.5t205.5 245t270 161.5t319.5 58q168 0 292 -58t196.5 -161.5t93.5 -245t-18 -307.5t-124 -307t-206 -244.5t-271.5 -162t-318.5 -58.5q-170 0 -293 58.5t-195.5 162t-93 244.5zM508 596.5q-2 -72.5 18.5 -131.5t67.5 -97t129 -38 t146.5 38t111.5 97t79 131.5t48 140.5t18 140.5t-18.5 132t-67.5 97.5t-129 38t-146.5 -38t-112.5 -97.5t-78.5 -132t-47.5 -140.5q-16 -68 -18 -140.5zM645 1565q10 45 32.5 96t59.5 94t88.5 71.5t116.5 28.5q47 0 91 -13t83 -28.5t70 -27.5t49 -12q33 0 61.5 17t51.5 71 h168q-16 -59 -44 -110.5t-67 -90.5t-87 -61.5t-106 -22.5q-47 0 -88 12.5t-76.5 25.5t-69.5 25.5t-67 12.5q-35 0 -62.5 -30t-41.5 -58h-162z" />
<glyph unicode="&#xd6;" horiz-adv-x="1634" d="M57.5 430q-20.5 141 18.5 307t124 307.5t205.5 245t270 161.5t319.5 58q168 0 292 -58t196.5 -161.5t93.5 -245t-18 -307.5t-124 -307t-206 -244.5t-271.5 -162t-318.5 -58.5q-170 0 -293 58.5t-195.5 162t-93 244.5zM508 596.5q-2 -72.5 18.5 -131.5t67.5 -97t129 -38 t146.5 38t111.5 97t79 131.5t48 140.5t18 140.5t-18.5 132t-67.5 97.5t-129 38t-146.5 -38t-112.5 -97.5t-78.5 -132t-47.5 -140.5q-16 -68 -18 -140.5zM522 1710q0 47 20.5 85t54.5 63.5t77 40t86 14.5t85 -14.5t75.5 -40t55 -63.5t21.5 -85t-21.5 -85t-55 -64.5t-75.5 -41 t-85 -14.5t-86 14.5t-77 41t-54.5 64.5t-20.5 85zM1059 1710q0 47 20.5 85t54 63.5t76.5 40t86 14.5t85 -14.5t76 -40t55.5 -63.5t21.5 -85t-21.5 -85t-55.5 -64.5t-76 -41t-85 -14.5t-86 14.5t-76.5 41t-54 64.5t-20.5 85z" />
<glyph unicode="&#xd7;" horiz-adv-x="1019" d="M0 449l289 288l-289 289l221 221l289 -289l289 291l221 -221l-289 -291l289 -288l-223 -222l-287 289l-289 -289z" />
<glyph unicode="&#xd8;" horiz-adv-x="1634" d="M-82 10l221 193q-66 102 -84 235t19 293q39 168 125 308.5t206.5 241.5t271 158.5t316.5 57.5q141 0 251 -41t188 -119l215 189l75 -80l-223 -195q61 -98 77.5 -230t-20.5 -290q-39 -168 -123.5 -308t-205.5 -241.5t-271.5 -159t-316.5 -57.5q-139 0 -247.5 40 t-182.5 112l-219 -193zM507 619.5q-3 -50.5 1 -91.5l582 510q-35 53 -84.5 74t-96.5 21q-43 0 -98 -17.5t-109.5 -61.5t-101.5 -122t-76 -201q-14 -61 -17 -111.5zM549 416q33 -49 81 -67.5t93 -18.5q43 0 98.5 17.5t108.5 61.5t100 121.5t76 200.5q14 57 18 103.5t0 87.5z " />
<glyph unicode="&#xd9;" d="M53 492l228 983h450l-219 -955q-6 -23 -13 -58.5t-7 -68.5t13 -56.5t50 -23.5t61.5 23.5t41 56.5t24.5 69t14 58l219 955h451l-227 -983q-61 -268 -230.5 -397.5t-433.5 -129.5q-272 0 -376.5 132t-45.5 395zM580 1870h426l133 -305h-281z" />
<glyph unicode="&#xda;" d="M53 492l228 983h450l-219 -955q-6 -23 -13 -58.5t-7 -68.5t13 -56.5t50 -23.5t61.5 23.5t41 56.5t24.5 69t14 58l219 955h451l-227 -983q-61 -268 -230.5 -397.5t-433.5 -129.5q-272 0 -376.5 132t-45.5 395zM573 1565l275 305h428l-424 -305h-279z" />
<glyph unicode="&#xdb;" d="M53 492l228 983h450l-219 -955q-6 -23 -13 -58.5t-7 -68.5t13 -56.5t50 -23.5t61.5 23.5t41 56.5t24.5 69t14 58l219 955h451l-227 -983q-61 -268 -230.5 -397.5t-433.5 -129.5q-272 0 -376.5 132t-45.5 395zM420 1565l319 305h336l178 -305h-301l-80 155l-151 -155h-301 z" />
<glyph unicode="&#xdc;" d="M53 492l228 983h450l-219 -955q-6 -23 -13 -58.5t-7 -68.5t13 -56.5t50 -23.5t61.5 23.5t41 56.5t24.5 69t14 58l219 955h451l-227 -983q-61 -268 -230.5 -397.5t-433.5 -129.5q-272 0 -376.5 132t-45.5 395zM362 1710q0 47 20.5 85t54.5 63.5t77 40t86 14.5t85 -14.5 t76 -40t55.5 -63.5t21.5 -85t-21.5 -85t-55.5 -64.5t-76 -41t-85 -14.5t-86 14.5t-77 41t-54.5 64.5t-20.5 85zM899 1710q0 47 20.5 85t54.5 63.5t77 40t86 14.5t85 -14.5t75.5 -40t55 -63.5t21.5 -85t-21.5 -85t-55 -64.5t-75.5 -41t-85 -14.5t-86 14.5t-77 41t-54.5 64.5 t-20.5 85z" />
<glyph unicode="&#xdd;" d="M193 1090l88 385h450l-82 -357q-6 -25 -13 -59.5t-6 -67.5t14 -56.5t50 -23.5t61.5 23.5t40 56.5t23.5 68t15 59l81 357h451l-88 -385q-47 -205 -156.5 -328t-275.5 -170l-137 -592h-451l137 592q-295 96 -202 498zM541 1565l274 305h428l-424 -305h-278z" />
<glyph unicode="&#xde;" horiz-adv-x="1314" d="M-59 0l340 1475h450l-39 -172h142q150 0 240.5 -49.5t136.5 -123t53 -161.5t-11 -166q-31 -133 -95 -230.5t-155.5 -162t-204 -96t-237.5 -31.5h-104l-66 -283h-450zM537 631h12q43 0 87 3t82 18.5t66.5 47t40.5 86.5q12 49 0 78t-38.5 43.5t-64.5 17.5t-79 3h-39z" />
<glyph unicode="&#xdf;" horiz-adv-x="1335" d="M-213 -121q78 0 109.5 34t48.5 107l217 941q29 127 89 228t146 173t194.5 109.5t237.5 37.5q92 0 180.5 -22.5t153 -70.5t95 -122.5t6.5 -181.5q-25 -106 -83.5 -176t-156.5 -123q61 -8 99 -45t58.5 -89t21.5 -113.5t-11 -116.5q-25 -102 -79 -187.5t-130 -146t-170 -94 t-195 -33.5q-49 0 -96 3t-94 11l72 311q39 -12 82 -12q80 0 139 55.5t76 130.5q12 57 3 95.5t-35 61t-64.5 31.5t-86.5 9h-28l51 225h20q37 0 71 5.5t62.5 20.5t50 42t31.5 72q16 68 -12.5 102.5t-93.5 34.5q-86 0 -130 -56.5t-61 -130.5l-256 -1116q-25 -109 -71.5 -172 t-106 -96t-127 -41t-131.5 -8z" />
<glyph unicode="&#xe0;" horiz-adv-x="1472" d="M20.5 303.5q-20.5 102.5 8.5 226.5q29 123 96.5 226.5t161.5 177.5t208.5 115t237.5 41q78 0 153 -15.5t136 -52.5l10 41h406l-152 -649q-10 -49 8.5 -82t91.5 -31l-239 -313q-104 0 -176 21.5t-105 78.5q-53 -31 -100 -52.5t-93 -35.5t-94.5 -20.5t-103.5 -6.5 q-123 0 -218 40t-155.5 114t-81 176.5zM434 530q-31 -133 12 -197.5t179 -64.5q33 0 73.5 10.5t79.5 30t69 48t38 67.5l53 235q8 33 -11.5 58.5t-50 43t-66.5 26t-62 8.5q-137 0 -210 -65.5t-104 -199.5zM479 1470h426l133 -305h-280z" />
<glyph unicode="&#xe1;" horiz-adv-x="1472" d="M20.5 303.5q-20.5 102.5 8.5 226.5q29 123 96.5 226.5t161.5 177.5t208.5 115t237.5 41q78 0 153 -15.5t136 -52.5l10 41h406l-152 -649q-10 -49 8.5 -82t91.5 -31l-239 -313q-104 0 -176 21.5t-105 78.5q-53 -31 -100 -52.5t-93 -35.5t-94.5 -20.5t-103.5 -6.5 q-123 0 -218 40t-155.5 114t-81 176.5zM434 530q-31 -133 12 -197.5t179 -64.5q33 0 73.5 10.5t79.5 30t69 48t38 67.5l53 235q8 33 -11.5 58.5t-50 43t-66.5 26t-62 8.5q-137 0 -210 -65.5t-104 -199.5zM514 1165l274 305h429l-424 -305h-279z" />
<glyph unicode="&#xe2;" horiz-adv-x="1472" d="M20.5 303.5q-20.5 102.5 8.5 226.5q29 123 96.5 226.5t161.5 177.5t208.5 115t237.5 41q78 0 153 -15.5t136 -52.5l10 41h406l-152 -649q-10 -49 8.5 -82t91.5 -31l-239 -313q-104 0 -176 21.5t-105 78.5q-53 -31 -100 -52.5t-93 -35.5t-94.5 -20.5t-103.5 -6.5 q-123 0 -218 40t-155.5 114t-81 176.5zM350 1165l320 305h336l178 -305h-301l-80 156l-152 -156h-301zM434 530q-31 -133 12 -197.5t179 -64.5q33 0 73.5 10.5t79.5 30t69 48t38 67.5l53 235q8 33 -11.5 58.5t-50 43t-66.5 26t-62 8.5q-137 0 -210 -65.5t-104 -199.5z" />
<glyph unicode="&#xe3;" horiz-adv-x="1472" d="M20.5 303.5q-20.5 102.5 8.5 226.5q29 123 96.5 226.5t161.5 177.5t208.5 115t237.5 41q78 0 153 -15.5t136 -52.5l10 41h406l-152 -649q-10 -49 8.5 -82t91.5 -31l-239 -313q-104 0 -176 21.5t-105 78.5q-53 -31 -100 -52.5t-93 -35.5t-94.5 -20.5t-103.5 -6.5 q-123 0 -218 40t-155.5 114t-81 176.5zM434 530q-31 -133 12 -197.5t179 -64.5q33 0 73.5 10.5t79.5 30t69 48t38 67.5l53 235q8 33 -11.5 58.5t-50 43t-66.5 26t-62 8.5q-137 0 -210 -65.5t-104 -199.5zM446 1165q10 45 33 96.5t59.5 94.5t88 71.5t116.5 28.5 q47 0 91.5 -13t82 -28.5t68.5 -28t51 -12.5q33 0 61.5 17.5t51.5 70.5h168q-16 -59 -44 -110.5t-67 -90t-87 -61t-105 -22.5q-47 0 -88 12t-77 25.5t-70 25.5t-66 12q-35 0 -62.5 -29.5t-42.5 -58.5h-162z" />
<glyph unicode="&#xe4;" horiz-adv-x="1472" d="M20.5 303.5q-20.5 102.5 8.5 226.5q29 123 96.5 226.5t161.5 177.5t208.5 115t237.5 41q78 0 153 -15.5t136 -52.5l10 41h406l-152 -649q-10 -49 8.5 -82t91.5 -31l-239 -313q-104 0 -176 21.5t-105 78.5q-53 -31 -100 -52.5t-93 -35.5t-94.5 -20.5t-103.5 -6.5 q-123 0 -218 40t-155.5 114t-81 176.5zM365 1311q0 47 20.5 85t54 63.5t76.5 39.5t86 14t85 -14t76 -39.5t55.5 -63.5t21.5 -85t-21.5 -85t-55.5 -64.5t-76 -41t-85 -14.5t-86 14.5t-76.5 41t-54 64.5t-20.5 85zM434 530q-31 -133 12 -197.5t179 -64.5q33 0 73.5 10.5 t79.5 30t69 48t38 67.5l53 235q8 33 -11.5 58.5t-50 43t-66.5 26t-62 8.5q-137 0 -210 -65.5t-104 -199.5zM901 1311q0 47 20.5 85t54.5 63.5t77 39.5t86 14t85 -14t75.5 -39.5t55 -63.5t21.5 -85t-21.5 -85t-55 -64.5t-75.5 -41t-85 -14.5t-86 14.5t-77 41t-54.5 64.5 t-20.5 85z" />
<glyph unicode="&#xe5;" horiz-adv-x="1472" d="M20.5 303.5q-20.5 102.5 8.5 226.5q29 123 96.5 226.5t161.5 177.5t208.5 115t237.5 41q78 0 153 -15.5t136 -52.5l10 41h406l-152 -649q-10 -49 8.5 -82t91.5 -31l-239 -313q-104 0 -176 21.5t-105 78.5q-53 -31 -100 -52.5t-93 -35.5t-94.5 -20.5t-103.5 -6.5 q-123 0 -218 40t-155.5 114t-81 176.5zM434 530q-31 -133 12 -197.5t179 -64.5q33 0 73.5 10.5t79.5 30t69 48t38 67.5l53 235q8 33 -11.5 58.5t-50 43t-66.5 26t-62 8.5q-137 0 -210 -65.5t-104 -199.5zM563 1362q0 47 18.5 89t50.5 72.5t74 49t89 18.5t89 -18.5t72.5 -49 t49 -72.5t18.5 -89t-18.5 -89t-49 -74t-72.5 -50.5t-89 -18.5t-89 18.5t-74 50.5t-50.5 74t-18.5 89zM686 1362q0 -43 33 -76t76 -33t74.5 34t31.5 75t-32.5 73.5t-73.5 32.5t-75 -31.5t-34 -74.5z" />
<glyph unicode="&#xe6;" horiz-adv-x="2154" d="M20.5 301q-20.5 102 8.5 229q29 125 97.5 228.5t163.5 177.5t208.5 114t234.5 40q84 0 157 -16.5t132 -51.5l10 41h303l-8 -35q135 61 287 62q102 0 191 -26t151.5 -78t91.5 -134t12 -193l-764 -256q2 -57 30 -96t106 -39q66 0 116.5 47t71.5 109h387 q-41 -109 -107.5 -193t-151.5 -141t-185.5 -87t-206.5 -30q-150 0 -258 60l-8 -33h-304l11 47q-147 -74 -322 -74q-121 0 -216 40t-156.5 113t-82 175zM434 530q-31 -131 11 -196.5t180 -65.5q33 0 73.5 10.5t79.5 30t69 48t38 67.5l53 235q8 33 -11.5 58.5t-50 43t-66.5 26 t-62 8.5q-139 0 -211 -66.5t-103 -198.5zM1346 633l319 106q-29 55 -113 56q-82 0 -131 -43t-71 -107z" />
<glyph unicode="&#xe7;" horiz-adv-x="1273" d="M18.5 315.5q-16.5 98.5 10.5 214.5q29 123 96.5 226.5t161.5 177.5t208.5 115t237.5 41q102 0 191.5 -26t152 -78t91 -134t12.5 -193h-385q10 66 -24 101t-99 35q-59 0 -99.5 -23.5t-68 -61.5t-44 -85t-26.5 -95q-10 -47 -15 -94t4 -84t39 -60.5t89 -23.5q66 0 117 47 t71 109h387q-37 -102 -97 -181t-137 -136.5t-167 -90t-188 -41.5l-97 -110q23 10 49.5 12t47.5 2q39 0 73.5 -10t59 -29.5t35 -51.5t0.5 -75q-12 -53 -46 -90t-79 -58.5t-94.5 -30.5t-94.5 -9q-82 0 -140 15.5t-128 41.5l63 94q41 -12 81 -26.5t87 -14.5q35 0 74 16.5 t49 59.5q8 35 -15.5 53.5t-55.5 18.5q-37 0 -84 -21l-41 50l137 163q-109 8 -194 53.5t-137 117t-68.5 170z" />
<glyph unicode="&#xe8;" horiz-adv-x="1159" d="M20.5 305.5q-20.5 102.5 8.5 224.5q29 123 96.5 226.5t161.5 177.5t208.5 115t237.5 41q102 0 191.5 -26t152 -78t91 -134t12.5 -193l-764 -256q2 -57 29.5 -96t105.5 -39q66 0 117 47t71 109h387q-41 -109 -107.5 -193t-151.5 -141t-185 -87t-207 -30q-123 0 -218 41 t-155.5 115t-81 176.5zM457 1470h426l133 -305h-281zM465 633l319 106q-29 55 -112 56q-82 0 -129 -44t-74 -106q-4 -8 -4 -12z" />
<glyph unicode="&#xe9;" horiz-adv-x="1159" d="M20.5 305.5q-20.5 102.5 8.5 224.5q29 123 96.5 226.5t161.5 177.5t208.5 115t237.5 41q102 0 191.5 -26t152 -78t91 -134t12.5 -193l-764 -256q2 -57 29.5 -96t105.5 -39q66 0 117 47t71 109h387q-41 -109 -107.5 -193t-151.5 -141t-185 -87t-207 -30q-123 0 -218 41 t-155.5 115t-81 176.5zM430 1165l275 305h428l-424 -305h-279zM465 633l319 106q-29 55 -112 56q-82 0 -129 -44t-74 -106q-4 -8 -4 -12z" />
<glyph unicode="&#xea;" horiz-adv-x="1159" d="M20.5 305.5q-20.5 102.5 8.5 224.5q29 123 96.5 226.5t161.5 177.5t208.5 115t237.5 41q102 0 191.5 -26t152 -78t91 -134t12.5 -193l-764 -256q2 -57 29.5 -96t105.5 -39q66 0 117 47t71 109h387q-41 -109 -107.5 -193t-151.5 -141t-185 -87t-207 -30q-123 0 -218 41 t-155.5 115t-81 176.5zM328 1165l319 305h336l178 -305h-301l-80 156l-151 -156h-301zM465 633l319 106q-29 55 -112 56q-82 0 -129 -44t-74 -106q-4 -8 -4 -12z" />
<glyph unicode="&#xeb;" horiz-adv-x="1159" d="M20.5 305.5q-20.5 102.5 8.5 224.5q29 123 96.5 226.5t161.5 177.5t208.5 115t237.5 41q102 0 191.5 -26t152 -78t91 -134t12.5 -193l-764 -256q2 -57 29.5 -96t105.5 -39q66 0 117 47t71 109h387q-41 -109 -107.5 -193t-151.5 -141t-185 -87t-207 -30q-123 0 -218 41 t-155.5 115t-81 176.5zM281 1311q0 47 20.5 85t54 63.5t76.5 39.5t86 14t85 -14t76 -39.5t55.5 -63.5t21.5 -85t-21.5 -85t-55.5 -64.5t-76 -41t-85 -14.5t-86 14.5t-76.5 41t-54 64.5t-20.5 85zM465 633l319 106q-29 55 -112 56q-82 0 -129 -44t-74 -106q-4 -8 -4 -12z M817 1311q0 47 20.5 85t54.5 63.5t77 39.5t86 14t85 -14t75.5 -39.5t55 -63.5t21.5 -85t-21.5 -85t-55 -64.5t-75.5 -41t-85 -14.5t-86 14.5t-77 41t-54.5 64.5t-20.5 85z" />
<glyph unicode="&#xec;" horiz-adv-x="626" d="M-8 762l239 313q63 0 126 -9t108 -41t62.5 -95.5t-7.5 -171.5l-71 -316q-16 -74 -1 -107.5t93 -33.5l-240 -313q-66 0 -128 8t-107.5 41t-62.5 96.5t7 171.5l74 316q16 74 1 107.5t-93 33.5zM156 1470h426l133 -305h-281z" />
<glyph unicode="&#xed;" horiz-adv-x="626" d="M-8 762l239 313q63 0 126 -9t108 -41t62.5 -95.5t-7.5 -171.5l-71 -316q-16 -74 -1 -107.5t93 -33.5l-240 -313q-66 0 -128 8t-107.5 41t-62.5 96.5t7 171.5l74 316q16 74 1 107.5t-93 33.5zM109 1165l274 305h428l-424 -305h-278z" />
<glyph unicode="&#xee;" horiz-adv-x="626" d="M-8 762l239 313q63 0 126 -9t108 -41t62.5 -95.5t-7.5 -171.5l-71 -316q-16 -74 -1 -107.5t93 -33.5l-240 -313q-66 0 -128 8t-107.5 41t-62.5 96.5t7 171.5l74 316q16 74 1 107.5t-93 33.5zM6 1165l320 305h336l178 -305h-301l-80 156l-152 -156h-301z" />
<glyph unicode="&#xef;" horiz-adv-x="626" d="M-41 1311q0 47 20.5 85t54.5 63.5t77 39.5t86 14t85 -14t75.5 -39.5t55 -63.5t21.5 -85t-21.5 -85t-55 -64.5t-75.5 -41t-85 -14.5t-86 14.5t-77 41t-54.5 64.5t-20.5 85zM-8 762l239 313q63 0 126 -9t108 -41t62.5 -95.5t-7.5 -171.5l-71 -316q-16 -74 -1 -107.5 t93 -33.5l-240 -313q-66 0 -128 8t-107.5 41t-62.5 96.5t7 171.5l74 316q16 74 1 107.5t-93 33.5zM496 1311q0 47 20.5 85t54 63.5t76.5 39.5t86 14t85 -14t76 -39.5t55.5 -63.5t21.5 -85t-21.5 -85t-55.5 -64.5t-76 -41t-85 -14.5t-86 14.5t-76.5 41t-54 64.5t-20.5 85z " />
<glyph unicode="&#xf0;" horiz-adv-x="1310" d="M11.5 272.5q-19.5 100.5 11.5 235.5q27 113 84 206t138 159.5t182 103.5t214 37q47 0 95 -8.5t83 -26.5q-23 43 -54.5 80t-66.5 71l-139 -67l-110 160l96 49q-18 35 -49 59l329 168l76 -63l117 59l121 -158l-99 -47q111 -133 161 -307t5 -373q-33 -141 -95 -257.5 t-153.5 -200.5t-212 -131.5t-268.5 -47.5q-129 0 -227 33t-158.5 99.5t-80 167zM417 428q-3 -45 7 -80t39 -57.5t82 -22.5t93 21.5t67.5 57.5t45 80t27.5 89t13.5 88t-9 76t-42 53.5t-83.5 20.5q-53 0 -91 -20.5t-65.5 -54.5t-44 -76t-26.5 -87q-10 -43 -13 -88z" />
<glyph unicode="&#xf1;" horiz-adv-x="1327" d="M-59 0l143 621q16 72 1 107.5t-93 33.5l239 313q129 0 208 -33.5t93 -130.5q86 98 185.5 138.5t216.5 40.5q164 0 240.5 -97.5t39.5 -263.5l-49 -217q-10 -41 -19 -79t-6 -67.5t24.5 -47t76.5 -17.5l-240 -313q-86 0 -150.5 14t-102 49t-49 96.5t11.5 157.5l49 207 q8 39 19.5 84t8 83t-26 62.5t-77.5 24.5q-45 0 -80 -17.5t-60.5 -45t-43 -65.5t-25.5 -77l-129 -561h-405zM360 1165q10 45 33 96.5t59.5 94.5t88 71.5t116.5 28.5q47 0 91.5 -13t82 -28.5t68.5 -28t51 -12.5q33 0 61.5 17.5t51.5 70.5h168q-16 -59 -44 -110.5t-67 -90 t-87 -61t-105 -22.5q-47 0 -88 12t-77 25.5t-70 25.5t-66 12q-35 0 -62.5 -29.5t-42.5 -58.5h-162z" />
<glyph unicode="&#xf2;" horiz-adv-x="1310" d="M14.5 320.5q-10.5 101.5 14.5 211.5q25 111 83 211.5t147 177t209 123t269 46.5q150 0 248 -46.5t152.5 -123t65 -177t-14.5 -211.5t-83 -212t-147.5 -177.5t-209 -123t-269.5 -46.5t-248 46.5t-152 123t-64.5 178zM419 443q-5 -46 4 -85t37.5 -64.5t86.5 -25.5 q57 0 97 25.5t67.5 64.5t44 85t26.5 89t15.5 89.5t-5 84t-39 63.5t-85.5 26t-97.5 -26t-67 -63.5t-43 -84t-26.5 -89.5t-15 -89zM477 1470h426l133 -305h-280z" />
<glyph unicode="&#xf3;" horiz-adv-x="1310" d="M14.5 320.5q-10.5 101.5 14.5 211.5q25 111 83 211.5t147 177t209 123t269 46.5q150 0 248 -46.5t152.5 -123t65 -177t-14.5 -211.5t-83 -212t-147.5 -177.5t-209 -123t-269.5 -46.5t-248 46.5t-152 123t-64.5 178zM419 443q-5 -46 4 -85t37.5 -64.5t86.5 -25.5 q57 0 97 25.5t67.5 64.5t44 85t26.5 89t15.5 89.5t-5 84t-39 63.5t-85.5 26t-97.5 -26t-67 -63.5t-43 -84t-26.5 -89.5t-15 -89zM471 1165l274 305h429l-424 -305h-279z" />
<glyph unicode="&#xf4;" horiz-adv-x="1310" d="M14.5 320.5q-10.5 101.5 14.5 211.5q25 111 83 211.5t147 177t209 123t269 46.5q150 0 248 -46.5t152.5 -123t65 -177t-14.5 -211.5t-83 -212t-147.5 -177.5t-209 -123t-269.5 -46.5t-248 46.5t-152 123t-64.5 178zM328 1165l319 305h336l178 -305h-301l-80 156 l-151 -156h-301zM419 443q-5 -46 4 -85t37.5 -64.5t86.5 -25.5q57 0 97 25.5t67.5 64.5t44 85t26.5 89t15.5 89.5t-5 84t-39 63.5t-85.5 26t-97.5 -26t-67 -63.5t-43 -84t-26.5 -89.5t-15 -89z" />
<glyph unicode="&#xf5;" horiz-adv-x="1310" d="M14.5 320.5q-10.5 101.5 14.5 211.5q25 111 83 211.5t147 177t209 123t269 46.5q150 0 248 -46.5t152.5 -123t65 -177t-14.5 -211.5t-83 -212t-147.5 -177.5t-209 -123t-269.5 -46.5t-248 46.5t-152 123t-64.5 178zM342 1165q10 45 32.5 96.5t59.5 94.5t88 71.5t117 28.5 q47 0 91 -13t82 -28.5t68.5 -28t51.5 -12.5q33 0 61.5 17.5t50.5 70.5h168q-16 -59 -43.5 -110.5t-66.5 -90t-87 -61t-106 -22.5q-47 0 -88 12t-76.5 25.5t-69.5 25.5t-67 12q-35 0 -62.5 -29.5t-41.5 -58.5h-162zM419 443q-5 -46 4 -85t37.5 -64.5t86.5 -25.5q57 0 97 25.5 t67.5 64.5t44 85t26.5 89t15.5 89.5t-5 84t-39 63.5t-85.5 26t-97.5 -26t-67 -63.5t-43 -84t-26.5 -89.5t-15 -89z" />
<glyph unicode="&#xf6;" horiz-adv-x="1310" d="M14.5 320.5q-10.5 101.5 14.5 211.5q25 111 83 211.5t147 177t209 123t269 46.5q150 0 248 -46.5t152.5 -123t65 -177t-14.5 -211.5t-83 -212t-147.5 -177.5t-209 -123t-269.5 -46.5t-248 46.5t-152 123t-64.5 178zM281 1311q0 47 20.5 85t54 63.5t76.5 39.5t86 14 t85 -14t76 -39.5t55.5 -63.5t21.5 -85t-21.5 -85t-55.5 -64.5t-76 -41t-85 -14.5t-86 14.5t-76.5 41t-54 64.5t-20.5 85zM419 443q-5 -46 4 -85t37.5 -64.5t86.5 -25.5q57 0 97 25.5t67.5 64.5t44 85t26.5 89t15.5 89.5t-5 84t-39 63.5t-85.5 26t-97.5 -26t-67 -63.5 t-43 -84t-26.5 -89.5t-15 -89zM817 1311q0 47 20.5 85t54.5 63.5t77 39.5t86 14t85 -14t75.5 -39.5t55 -63.5t21.5 -85t-21.5 -85t-55 -64.5t-75.5 -41t-85 -14.5t-86 14.5t-77 41t-54.5 64.5t-20.5 85z" />
<glyph unicode="&#xf7;" horiz-adv-x="1218" d="M92 580v315h1034v-315h-1034zM403 313q0 43 16.5 81t44.5 66.5t65.5 45t80.5 16.5t81 -16.5t65.5 -44t44 -66.5t16.5 -82v2q0 -43 -16.5 -80.5t-44 -67.5t-65.5 -46.5t-81 -16.5t-80.5 16.5t-65.5 45.5t-44.5 66.5t-16.5 80.5zM403 1159q0 43 16.5 81t44.5 67.5t65.5 46 t80.5 16.5t81 -16.5t65.5 -45t44 -66.5t16.5 -81t-16.5 -81t-44 -66.5t-65.5 -45t-81 -16.5t-80.5 16.5t-65.5 44t-44.5 65.5t-16.5 81z" />
<glyph unicode="&#xf8;" horiz-adv-x="1310" d="M-43 -4l139 125q-66 78 -81 185.5t14 225.5q25 111 83 211.5t147 177t209 123t269 46.5q106 0 186.5 -24t139.5 -67l129 119l57 -63l-125 -115q61 -78 77 -183.5t-13 -224.5q-25 -111 -83 -212t-147.5 -177.5t-209 -123t-269.5 -46.5q-104 0 -183 22.5t-136 63.5 l-144 -131zM420 414l356 327q-27 53 -108 54q-57 0 -97.5 -26t-67 -63.5t-43 -84t-26.5 -89.5q-6 -29 -11 -59.5t-3 -58.5zM442 317q27 -49 105 -49q57 0 97 25.5t67.5 64.5t44 85t26.5 89q6 27 10.5 54.5t4.5 56.5z" />
<glyph unicode="&#xf9;" horiz-adv-x="1327" d="M-8 762l239 313q86 0 149.5 -14t101.5 -49t48.5 -97.5t-10.5 -156.5l-47 -207q-10 -41 -20.5 -85t-7 -82t25 -62.5t76.5 -24.5q45 0 81 17.5t60.5 45t40.5 64.5t27 78l131 561h405l-143 -621q-16 -72 -1 -107.5t93 -33.5l-240 -313q-129 0 -207.5 33.5t-93.5 130.5 q-86 -98 -185 -138.5t-216 -40.5q-164 0 -240.5 97.5t-40.5 263.5l50 217q8 39 18 78t7 68.5t-24.5 47t-76.5 17.5zM475 1470h426l133 -305h-280z" />
<glyph unicode="&#xfa;" horiz-adv-x="1327" d="M-8 762l239 313q86 0 149.5 -14t101.5 -49t48.5 -97.5t-10.5 -156.5l-47 -207q-10 -41 -20.5 -85t-7 -82t25 -62.5t76.5 -24.5q45 0 81 17.5t60.5 45t40.5 64.5t27 78l131 561h405l-143 -621q-16 -72 -1 -107.5t93 -33.5l-240 -313q-129 0 -207.5 33.5t-93.5 130.5 q-86 -98 -185 -138.5t-216 -40.5q-164 0 -240.5 97.5t-40.5 263.5l50 217q8 39 18 78t7 68.5t-24.5 47t-76.5 17.5zM469 1165l274 305h428l-423 -305h-279z" />
<glyph unicode="&#xfb;" horiz-adv-x="1327" d="M-8 762l239 313q86 0 149.5 -14t101.5 -49t48.5 -97.5t-10.5 -156.5l-47 -207q-10 -41 -20.5 -85t-7 -82t25 -62.5t76.5 -24.5q45 0 81 17.5t60.5 45t40.5 64.5t27 78l131 561h405l-143 -621q-16 -72 -1 -107.5t93 -33.5l-240 -313q-129 0 -207.5 33.5t-93.5 130.5 q-86 -98 -185 -138.5t-216 -40.5q-164 0 -240.5 97.5t-40.5 263.5l50 217q8 39 18 78t7 68.5t-24.5 47t-76.5 17.5zM338 1165l319 305h336l178 -305h-301l-79 156l-152 -156h-301z" />
<glyph unicode="&#xfc;" horiz-adv-x="1327" d="M-8 762l239 313q86 0 149.5 -14t101.5 -49t48.5 -97.5t-10.5 -156.5l-47 -207q-10 -41 -20.5 -85t-7 -82t25 -62.5t76.5 -24.5q45 0 81 17.5t60.5 45t40.5 64.5t27 78l131 561h405l-143 -621q-16 -72 -1 -107.5t93 -33.5l-240 -313q-129 0 -207.5 33.5t-93.5 130.5 q-86 -98 -185 -138.5t-216 -40.5q-164 0 -240.5 97.5t-40.5 263.5l50 217q8 39 18 78t7 68.5t-24.5 47t-76.5 17.5zM301 1311q0 47 20.5 85t54.5 63.5t77 39.5t86 14t85 -14t75.5 -39.5t55 -63.5t21.5 -85t-21.5 -85t-55 -64.5t-75.5 -41t-85 -14.5t-86 14.5t-77 41 t-54.5 64.5t-20.5 85zM838 1311q0 47 20.5 85t54 63.5t76.5 39.5t86 14t85 -14t76 -39.5t55.5 -63.5t21.5 -85t-21.5 -85t-55.5 -64.5t-76 -41t-85 -14.5t-86 14.5t-76.5 41t-54 64.5t-20.5 85z" />
<glyph unicode="&#xfd;" horiz-adv-x="1327" d="M-86 -102h401q4 -18 14.5 -39t26 -38.5t35 -27.5t39.5 -10q49 0 86 25.5t63.5 63.5t43 80t24.5 75l21 88q-90 -82 -176 -112t-193 -30q-164 0 -240.5 97.5t-40.5 263.5l66 287q16 74 1 107.5t-93 33.5l239 313q63 0 126 -9t108 -41t62.5 -95.5t-7.5 -171.5l-57 -252 q-8 -37 -14.5 -75t0 -67.5t28 -48t70.5 -18.5q92 0 141 61.5t68 143.5l131 561h405l-233 -1012q-18 -80 -55 -169t-112 -163.5t-197 -125t-308 -50.5q-94 0 -184 15.5t-158 54.5t-104.5 107.5t-26.5 177.5zM477 1165l275 305h428l-424 -305h-279z" />
<glyph unicode="&#xfe;" horiz-adv-x="1472" d="M-93.5 -288.5q-17.5 63.5 7.5 171.5l264 1149q16 74 1 108t-93 34l242 313q63 0 126.5 -9.5t107.5 -41t62.5 -95t-8.5 -172.5l-34 -147q147 68 321 68q119 0 215 -40t157.5 -114t82.5 -177.5t-8 -228.5q-29 -127 -97.5 -229t-164 -175t-210 -113t-233.5 -40 q-176 0 -289 74l-6 -27q-16 -74 -0.5 -107.5t92.5 -33.5l-239 -313q-66 0 -128.5 8t-106.5 41t-61.5 96.5zM444 424q-8 -39 7.5 -67.5t45 -48t65.5 -30t69 -10.5q137 0 209.5 65.5t101.5 196.5q31 131 -10 198t-180 67q-27 0 -67 -8.5t-79 -26t-69.5 -43t-38.5 -58.5z" />
<glyph unicode="&#xff;" horiz-adv-x="1327" d="M-86 -102h401q4 -18 14.5 -39t26 -38.5t35 -27.5t39.5 -10q49 0 86 25.5t63.5 63.5t43 80t24.5 75l21 88q-90 -82 -176 -112t-193 -30q-164 0 -240.5 97.5t-40.5 263.5l66 287q16 74 1 107.5t-93 33.5l239 313q63 0 126 -9t108 -41t62.5 -95.5t-7.5 -171.5l-57 -252 q-8 -37 -14.5 -75t0 -67.5t28 -48t70.5 -18.5q92 0 141 61.5t68 143.5l131 561h405l-233 -1012q-18 -80 -55 -169t-112 -163.5t-197 -125t-308 -50.5q-94 0 -184 15.5t-158 54.5t-104.5 107.5t-26.5 177.5zM295 1311q0 47 20.5 85t54 63.5t76.5 39.5t86 14t85 -14t76 -39.5 t55.5 -63.5t21.5 -85t-21.5 -85t-55.5 -64.5t-76 -41t-85 -14.5t-86 14.5t-76.5 41t-54 64.5t-20.5 85zM831 1311q0 47 20.5 85t54.5 63.5t77 39.5t86 14t85 -14t76 -39.5t55.5 -63.5t21.5 -85t-21.5 -85t-55.5 -64.5t-76 -41t-85 -14.5t-86 14.5t-77 41t-54.5 64.5 t-20.5 85z" />
<glyph unicode="&#x152;" horiz-adv-x="2236" d="M55.5 428q-18.5 141 20.5 309t123 310.5t203.5 245t270 159.5t322.5 57q164 0 275 -45l4 11h1040l-88 -375h-631l-43 -189h562l-80 -348h-561l-43 -188h653l-88 -375h-1063l6 23q-150 -57 -299 -58q-172 0 -296 57.5t-196.5 161t-91 244.5zM507 597.5 q-3 -71.5 14.5 -130.5t62.5 -98t127 -39q57 0 102 19.5t81 52t62.5 77.5t47.5 94l81 357q10 96 -39 155.5t-147 59.5q-84 0 -146.5 -39t-107.5 -98.5t-74.5 -131t-44.5 -139.5q-16 -68 -19 -139.5z" />
<glyph unicode="&#x153;" horiz-adv-x="2027" d="M14.5 320.5q-10.5 101.5 14.5 211.5q25 111 83 211.5t147 177t209 123t269 46.5q123 0 211 -32t146 -85q88 55 187 86t206 31q102 0 191 -26t151.5 -78t91.5 -134t12 -193l-764 -256q2 -57 30 -96t106 -39q66 0 117 47t71 109h387q-41 -109 -107.5 -193t-151.5 -141 t-185.5 -87t-206.5 -30t-192.5 31t-147.5 86q-82 -53 -184.5 -85t-225.5 -32q-150 0 -248 46.5t-152 123t-64.5 178zM419 443q-5 -46 4 -85t37.5 -64.5t86.5 -25.5q57 0 97 25.5t67.5 64.5t44 85t26.5 89t15.5 89.5t-5 84t-39 63.5t-85.5 26t-97.5 -26t-67 -63.5t-43 -84 t-26.5 -89.5t-15 -89zM1219 633l319 106q-29 55 -113 56q-82 0 -131 -43t-71 -107z" />
<glyph unicode="&#x178;" d="M193 1090l88 385h450l-82 -357q-6 -25 -13 -59.5t-6 -67.5t14 -56.5t50 -23.5t61.5 23.5t40 56.5t23.5 68t15 59l81 357h451l-88 -385q-47 -205 -156.5 -328t-275.5 -170l-137 -592h-451l137 592q-295 96 -202 498zM371 1710q0 47 20.5 85t54 63.5t76.5 40t86 14.5 t85 -14.5t76 -40t55.5 -63.5t21.5 -85t-21.5 -85t-55.5 -64.5t-76 -41t-85 -14.5t-86 14.5t-76.5 41t-54 64.5t-20.5 85zM907 1710q0 47 20.5 85t54.5 63.5t77 40t86 14.5t85 -14.5t75.5 -40t55 -63.5t21.5 -85t-21.5 -85t-55 -64.5t-75.5 -41t-85 -14.5t-86 14.5t-77 41 t-54.5 64.5t-20.5 85z" />
<glyph unicode="&#x2c6;" horiz-adv-x="0" d="M338 1165l317 305h336l180 -305h-301l-82 156l-149 -156h-301z" />
<glyph unicode="&#x2dc;" horiz-adv-x="0" d="M354 1165q8 45 32 96.5t60.5 94.5t88 71.5t116.5 28.5q47 0 91 -13t82 -28.5t69 -28t49 -12.5q33 0 61.5 17.5t51.5 70.5h168q-16 -59 -44 -110.5t-67 -90t-87 -61t-105 -22.5q-47 0 -87 12t-76 25.5t-70 25.5t-66 12q-35 0 -64 -29.5t-41 -58.5h-162z" />
<glyph unicode="&#x2000;" horiz-adv-x="995" />
<glyph unicode="&#x2001;" horiz-adv-x="1991" />
<glyph unicode="&#x2002;" horiz-adv-x="995" />
<glyph unicode="&#x2003;" horiz-adv-x="1991" />
<glyph unicode="&#x2004;" horiz-adv-x="663" />
<glyph unicode="&#x2005;" horiz-adv-x="497" />
<glyph unicode="&#x2006;" horiz-adv-x="331" />
<glyph unicode="&#x2007;" horiz-adv-x="331" />
<glyph unicode="&#x2008;" horiz-adv-x="248" />
<glyph unicode="&#x2009;" horiz-adv-x="398" />
<glyph unicode="&#x200a;" horiz-adv-x="110" />
<glyph unicode="&#x2010;" horiz-adv-x="825" d="M10 379l76 336h641l-76 -336h-641z" />
<glyph unicode="&#x2011;" horiz-adv-x="825" d="M10 379l76 336h641l-76 -336h-641z" />
<glyph unicode="&#x2012;" horiz-adv-x="825" d="M10 379l76 336h641l-76 -336h-641z" />
<glyph unicode="&#x2013;" horiz-adv-x="1208" d="M10 385l76 324h1024l-76 -324h-1024z" />
<glyph unicode="&#x2014;" horiz-adv-x="2232" d="M10 385l76 324h2048l-76 -324h-2048z" />
<glyph unicode="&#x2018;" horiz-adv-x="659" d="M139 1341l307 158l234 -672l-307 -157z" />
<glyph unicode="&#x2019;" horiz-adv-x="659" d="M20 827l543 672l236 -156l-543 -673z" />
<glyph unicode="&#x201a;" horiz-adv-x="659" d="M-229 -256l542 672l236 -158l-543 -672z" />
<glyph unicode="&#x201c;" horiz-adv-x="1132" d="M139 1341l307 158l234 -672l-307 -157zM612 1341l310 158l231 -672l-307 -157z" />
<glyph unicode="&#x201d;" horiz-adv-x="1132" d="M20 827l543 672l236 -156l-543 -673zM494 827l544 672l234 -156l-543 -673z" />
<glyph unicode="&#x201e;" horiz-adv-x="1136" d="M-229 -256l542 672l236 -158l-543 -672zM248 -256l543 672l235 -158l-543 -672z" />
<glyph unicode="&#x2022;" horiz-adv-x="882" d="M76 737q0 76 28.5 142.5t77.5 115.5t116 78t142 29q76 0 142.5 -29t117 -78t79 -115.5t28.5 -142.5t-28.5 -142.5t-79 -116.5t-117 -78.5t-142.5 -28.5t-142.5 28.5t-115.5 78.5t-77.5 117t-28.5 142z" />
<glyph unicode="&#x2026;" horiz-adv-x="2048" d="M-25 178q10 47 40 85t70 63.5t86 40t89 14.5t82 -14.5t66.5 -40t40 -63.5t2.5 -85t-40 -85t-70 -63.5t-86 -40t-89 -14.5t-82 14.5t-66.5 40t-40 63.5t-2.5 85zM657 178q10 47 40 85t70 63.5t86 40t89 14.5t82 -14.5t66.5 -40t40 -63.5t2.5 -85t-40 -85t-70 -63.5 t-86 -40t-89 -14.5t-82 14.5t-66.5 40t-40 63.5t-2.5 85zM1339 178q10 47 40 85t70 63.5t86 40t89 14.5t82 -14.5t66.5 -40t40 -63.5t2.5 -85t-40 -85t-70 -63.5t-86 -40t-89 -14.5t-82 14.5t-66.5 40t-40 63.5t-2.5 85z" />
<glyph unicode="&#x202f;" horiz-adv-x="398" />
<glyph unicode="&#x2039;" horiz-adv-x="518" d="M51 555l82 363l395 266l-71 -316l-191 -131l131 -123l-73 -321z" />
<glyph unicode="&#x203a;" horiz-adv-x="518" d="M-10 291l71 315l191 131l-131 123l74 324l272 -264l-82 -363z" />
<glyph unicode="&#x205f;" horiz-adv-x="497" />
<glyph unicode="&#x2122;" horiz-adv-x="1894" d="M76 1290q0 33 4 66t21.5 59.5t49 43t87.5 16.5h557v-207h-236v-604h-248v604h-4q-39 0 -55 -11.5t-16 -52.5zM838 664v540q0 147 75.5 218t221.5 71q47 0 91 -7t85 -30q41 23 85 30t89 7q145 0 222 -70.5t77 -218.5v-540h-248v524q0 14 -1 33.5t-5 38t-14.5 31 t-30.5 12.5t-30.5 -12.5t-15.5 -31t-5 -38v-33.5v-524h-248v524v33.5t-5 38t-15.5 31t-30.5 12.5t-30.5 -12.5t-15 -31t-4.5 -38v-33.5v-524h-247z" />
<glyph unicode="&#x25fc;" horiz-adv-x="1085" d="M0 0v1085h1085v-1085h-1085z" />
<glyph unicode="&#xfb01;" horiz-adv-x="1253" d="M-213 -121q78 0 109.5 34t48.5 107l176 764h-111l58 250h110l37 158q25 109 72 172t106.5 95t126 41t131.5 9q66 0 131.5 -6t126.5 -6l-71 -307q-47 6 -90 6q-78 0 -111 -21.5t-43 -97.5l-2 -14h627l-144 -621q-16 -74 -0.5 -107.5t92.5 -33.5l-239 -313q-66 0 -128.5 8 t-107.5 41t-62.5 96.5t7.5 171.5l111 479h-222l-207 -901q-25 -109 -71.5 -172t-106 -96t-127 -41t-131.5 -8z" />
<glyph unicode="&#xfb02;" horiz-adv-x="1253" d="M-213 -121q78 0 109.5 34t48.5 107l176 764h-111l58 250h110l37 158q25 109 72 172t106.5 95t126 41t131.5 9q66 0 130.5 -17t125.5 -17h406l-238 -1033q-16 -74 -0.5 -107.5t92.5 -33.5l-239 -313q-66 0 -128.5 8t-107.5 41t-62.5 95.5t7.5 172.5l205 885q-23 4 -47.5 5 t-46.5 1q-76 0 -108 -29.5t-48 -101.5v-2h110l-65 -279h-111l-207 -901q-25 -111 -71.5 -173t-106 -95t-127 -41t-131.5 -8z" />
</font>
</defs>
</svg>
