<?xml version="1.0" standalone="no"?>
<!DOCTYPE svg PUBLIC "-//W3C//DTD SVG 1.1//EN" "http://www.w3.org/Graphics/SVG/1.1/DTD/svg11.dtd" >
<svg xmlns="http://www.w3.org/2000/svg" xmlns:xlink="http://www.w3.org/1999/xlink" version="1.1">
<metadata></metadata>
<defs>
<font id="clementepdahbookitalic" horiz-adv-x="1122" >
<font-face units-per-em="2048" ascent="1638" descent="-410" />
<missing-glyph horiz-adv-x="612" />
<glyph horiz-adv-x="0" />
<glyph unicode="&#xd;" horiz-adv-x="0" />
<glyph unicode=" "  horiz-adv-x="612" />
<glyph unicode="&#x09;" horiz-adv-x="612" />
<glyph unicode="&#xa0;" horiz-adv-x="612" />
<glyph unicode="!" horiz-adv-x="399" d="M-74 86q10 49 55.5 80t92.5 31t78.5 -31t19.5 -80q-10 -49 -55 -80t-92 -31t-79 31t-20 80zM45 283l217 1192h213l-330 -1192h-100z" />
<glyph unicode="&#x22;" horiz-adv-x="618" d="M147 895l134 580h143l-133 -580h-144zM401 895l134 580h143l-133 -580h-144z" />
<glyph unicode="#" horiz-adv-x="1120" d="M-57 485l43 117h270l100 270h-270l43 117h270l181 486h118l-180 -486h273l180 486h116l-180 -486h273l-43 -117h-273l-100 -270h272l-43 -117h-272l-180 -485h-119l180 485h-270l-180 -485h-119l180 485h-270zM375 602h270l103 270h-273z" />
<glyph unicode="$" horiz-adv-x="993" d="M2 565h170q-29 -135 36.5 -198.5t203.5 -63.5q43 0 92 10.5t93 32t77 57t45 86.5t-3.5 85t-51 55.5t-90 36t-119.5 28.5q-80 18 -146.5 39t-110.5 53.5t-61.5 84t0.5 128.5q27 117 139.5 199t288.5 90l43 187h117l-43 -187q76 -6 137.5 -27.5t100 -61.5t53 -100.5 t-3.5 -144.5h-164q12 59 2 102.5t-39 71t-74 41t-100 13.5q-78 0 -130 -20.5t-84 -48.5t-48.5 -56.5t-20.5 -46.5q-14 -61 22 -97t92 -57.5t120.5 -35t107.5 -25.5q53 -16 104.5 -36t86.5 -51.5t50 -79.5t-1 -120q-18 -84 -66.5 -143.5t-112 -98.5t-139 -57.5t-149.5 -22.5 l-41 -186h-117l43 186q-176 14 -263 105.5t-46 273.5z" />
<glyph unicode="%" horiz-adv-x="1484" d="M70 0l1153 1382h-445q45 -45 56.5 -114.5t-9.5 -159.5q-18 -76 -54 -142.5t-89 -115.5t-121.5 -77t-152.5 -28q-86 0 -141.5 29t-85 78t-34 115.5t14.5 140.5q18 80 54 147.5t88 115.5t121 76t150 28h785l-23 -93l-1155 -1382h-112zM274.5 1006.5q-0.5 -48.5 15 -86 t49.5 -60t89 -22.5t100 22.5t79 60t56.5 86t34.5 101.5q12 57 13.5 107.5t-15 87t-50.5 58t-91 21.5t-101 -22.5t-77 -59t-55.5 -87t-34.5 -105.5q-12 -53 -12.5 -101.5zM641 197.5q-4 66.5 12 140.5q18 80 55 147.5t89.5 116.5t121 76t150.5 27q84 0 140.5 -27t86 -76 t34.5 -116.5t-13 -147.5v2q-18 -78 -54 -144.5t-89.5 -115.5t-122 -77t-152.5 -28q-86 0 -141.5 29t-84 78t-32.5 115.5zM766 236.5q0 -48.5 15.5 -86t50 -60t90.5 -22.5q55 0 100 22.5t79 60t56.5 87t34.5 100.5q12 57 13 107.5t-15 87t-51 58t-92 21.5t-102.5 -22.5 t-78 -59t-54 -87t-34.5 -105.5q-12 -53 -12 -101.5z" />
<glyph unicode="&#x26;" horiz-adv-x="1492" d="M-31 418q14 66 49 130t84.5 116.5t111.5 86t134 40.5q-66 8 -106.5 40.5t-62 81t-23.5 104.5t10 111q23 94 82 165t139 116t170 67.5t174 22.5q117 0 205 -31.5t142.5 -93t70.5 -154t-10 -210.5h-170q41 162 -33 254t-234 92q-57 0 -117.5 -15.5t-112.5 -47t-91 -80 t-53 -111.5q-16 -66 -2 -114t49 -81t87 -48t111 -15h41l-26 -123h-43q-68 0 -131.5 -18.5t-114.5 -54.5t-88 -90t-53 -126q-16 -74 4 -131t66 -97t110.5 -60.5t132.5 -20.5q92 0 177 26.5t154.5 76.5t117 123t63.5 165h-84q-49 0 -81 -10t-51 -27.5t-29.5 -41t-16.5 -50.5 l-113 59q10 43 28.5 84t50.5 73t80 50.5t118 18.5h317q49 0 81 10t51.5 26.5t29.5 40t16 52.5l113 -62q-10 -43 -28.5 -83t-50.5 -71.5t-80 -50t-117 -18.5h-62q-20 -135 -85.5 -236.5t-163 -168t-220.5 -100.5t-254 -34q-109 0 -204 29t-160.5 84t-94 138t-4.5 192z" />
<glyph unicode="'" horiz-adv-x="364" d="M147 895l134 580h143l-133 -580h-144z" />
<glyph unicode="(" horiz-adv-x="464" d="M-27 41q-2 117 11.5 237.5t44.5 251.5q57 248 169.5 485.5t278.5 459.5h158q-160 -225 -269.5 -460t-166.5 -485q-59 -254 -58.5 -488.5t58.5 -463.5h-158q-31 117 -48.5 231.5t-19.5 231.5z" />
<glyph unicode=")" horiz-adv-x="464" d="M-266 -422q160 225 268.5 459.5t165.5 484.5q59 254 59 488.5t-57 464.5h158q31 -117 48 -232t19 -231.5t-11 -237.5t-44 -252q-57 -248 -171 -485.5t-278 -458.5h-157z" />
<glyph unicode="*" horiz-adv-x="708" d="M0 1169l41 125l262 -100l-14 281h131l-14 -281l262 100l41 -125l-273 -73l176 -217l-104 -78l-154 235l-153 -235l-107 78l176 217z" />
<glyph unicode="+" horiz-adv-x="1216" d="M92 666v143h445v446h143v-446h444v-143h-444v-447h-143v447h-445z" />
<glyph unicode="," horiz-adv-x="413" d="M-221 -217l405 502l109 -72l-406 -502z" />
<glyph unicode="-" horiz-adv-x="649" d="M31 473l35 152h464l-34 -152h-465z" />
<glyph unicode="." horiz-adv-x="399" d="M-74 86q10 49 55.5 80t92.5 31t78.5 -31t19.5 -80q-10 -49 -55 -80t-92 -31t-79 31t-20 80z" />
<glyph unicode="/" horiz-adv-x="751" d="M-170 0l950 1475h142l-951 -1475h-141z" />
<glyph unicode="0" horiz-adv-x="1294" d="M56 473q1 135 32 264t91.5 264.5t152.5 246t214 181t273 70.5q154 0 244 -70.5t131 -181t39 -246t-33 -264.5t-91 -264t-151.5 -245.5t-213 -181.5t-275.5 -71t-243 71t-130 181.5t-40 245.5zM228 536.5q-9 -108.5 12.5 -201.5t82 -154.5t179.5 -61.5t208 61.5 t153.5 153.5t104 200.5t62.5 202.5q14 61 23.5 132t9.5 139.5t-13.5 131t-45 110.5t-85 77t-131.5 29q-119 0 -207.5 -61.5t-153.5 -153.5t-105.5 -201t-61.5 -203q-23 -92 -32 -200.5z" />
<glyph unicode="1" horiz-adv-x="1294" d="M362 1241q10 45 29 87t51.5 75t82.5 52.5t124 19.5h277l-340 -1475h-195l301 1309h-28q-49 0 -82 -10.5t-52.5 -28t-31 -42t-17.5 -50.5z" />
<glyph unicode="2" horiz-adv-x="1294" d="M-66 0q20 106 86 196.5t157 166t196.5 141t208.5 125.5q70 41 140.5 88t130.5 100t103 112.5t60 125.5q29 133 -37 215t-203 82q-92 0 -164.5 -34t-125 -90.5t-86 -130t-52.5 -153.5h-170q27 125 83 228.5t137 175t186.5 111.5t228.5 40q98 0 180 -26.5t136.5 -80 t75 -133t-4.5 -186.5q-18 -84 -65.5 -157.5t-113 -139t-144 -123t-160.5 -106.5q-78 -47 -154 -94t-142.5 -96.5t-119.5 -99.5t-86 -101h571q96 0 131 36.5t48 92.5l112 -62q-12 -49 -31.5 -90t-52 -70.5t-80 -46t-112.5 -16.5h-867z" />
<glyph unicode="3" horiz-adv-x="1294" d="M30.5 282.5q-16.5 100.5 24.5 231.5h172q-53 -186 25 -288.5t260 -102.5q70 0 136.5 20.5t121.5 60.5t96 97t58 131q16 72 3.5 126t-47 90t-89 54.5t-121.5 18.5h-41l28 123h41q59 0 117.5 15t109 48t87.5 81t53 114q14 63 -3.5 111.5t-55 80t-91 47t-110.5 15.5 q-78 0 -148.5 -23.5t-126 -68.5t-94.5 -109.5t-55 -144.5h-170q27 119 86 211t142 153.5t185.5 93t219.5 31.5q82 0 161.5 -22.5t139 -67.5t87.5 -115.5t5 -165.5q-12 -55 -42 -111t-73 -104.5t-99 -81t-124 -40.5q70 -6 117 -40t71.5 -86.5t28.5 -116.5t-10 -130 q-25 -106 -88.5 -188.5t-148.5 -138.5t-185 -86t-199 -30q-123 0 -220 35t-157.5 103.5t-77 169z" />
<glyph unicode="4" horiz-adv-x="1294" d="M-10 401l39 177l886 897h187l-213 -916h43q49 0 80.5 10.5t51 26.5t30 39.5t16.5 50.5l113 -59q-10 -43 -28.5 -84t-50.5 -73t-80 -50.5t-118 -18.5h-92l-94 -401h-185l93 401h-678zM158 559h547l169 735z" />
<glyph unicode="5" horiz-adv-x="1294" d="M-8.5 238q-22.5 88 10.5 206h176q-16 -80 -3 -140t51 -100t98.5 -60.5t138.5 -20.5q80 0 150.5 24.5t129 70.5t99.5 110.5t59 144.5q35 158 -40 254t-232 96q-98 0 -193.5 -40t-165.5 -128h-176l352 820h730q227 0 172 -224l-140 -61q18 78 -14.5 103.5t-103.5 25.5h-539 l-234 -526q82 82 188.5 119.5t209.5 37.5q109 0 188.5 -34.5t126.5 -98t60.5 -153t-11.5 -195.5q-29 -119 -92 -211t-150 -154.5t-193.5 -95.5t-219.5 -33q-106 0 -197.5 29t-152 87.5t-83 146.5z" />
<glyph unicode="6" horiz-adv-x="1294" d="M55 434q8 127 37 258q33 143 95.5 286.5t158.5 259.5t227.5 188.5t300.5 72.5q76 0 148 -17.5t129 -58.5l-127 -114q-37 29 -85 41t-101 12q-123 0 -217.5 -59.5t-163 -149.5t-113.5 -199.5t-70 -208.5q0 -4 -4 -17t-4 -17q41 66 97.5 118t122 88.5t138 56t144.5 19.5 q104 0 187 -37.5t135.5 -104.5t71 -157t-6.5 -196q-29 -117 -92.5 -213.5t-152.5 -165t-196.5 -106.5t-221.5 -38q-141 0 -246 61.5t-152 166.5q-47 104 -39 231zM235 350.5q13 -67.5 52 -119t99 -80t138 -28.5t154 28.5t138.5 79t107.5 119t63 146.5t4 145.5t-54 117.5 t-101.5 78.5t-139.5 28.5t-152.5 -28.5t-136 -78.5t-105.5 -118t-62 -145q-18 -78 -5 -145.5z" />
<glyph unicode="7" horiz-adv-x="1294" d="M225 1251q10 43 28.5 83t50.5 72t80 50.5t120 18.5h823l-35 -156l-751 -1319h-203l752 1319h-574q-49 0 -79.5 -10.5t-50 -27.5t-31 -40.5t-17.5 -50.5z" />
<glyph unicode="8" horiz-adv-x="1294" d="M57.5 238q-22.5 84 1.5 192q35 150 142.5 252t255.5 137q-94 35 -132 120t-12 196q20 88 71.5 155.5t122.5 113.5t152.5 70.5t161.5 24.5t151.5 -24.5t121 -70.5t71 -114.5t0.5 -154.5q-25 -109 -103.5 -195t-184.5 -121q63 -14 111 -50t76 -88t36 -116.5t-8 -134.5 q-25 -106 -87.5 -191t-148.5 -143.5t-186.5 -89.5t-198.5 -31q-100 0 -187 31t-145.5 89.5t-81 142.5zM236 303q14 -57 51 -99t93 -64.5t124 -22.5t133 22.5t121.5 64.5t97.5 99t57 127q16 72 4 132.5t-47.5 103.5t-92 66.5t-126.5 23.5t-137.5 -23.5t-122.5 -66.5 t-96 -103.5t-57 -132.5q-16 -70 -2 -127zM470 1019q11 -44 40 -77t72 -50.5t96 -17.5q51 0 103.5 17.5t96.5 49.5t76.5 77t44.5 100q27 117 -35.5 182.5t-172.5 65.5q-53 0 -105.5 -17.5t-95.5 -50t-75 -77.5t-44 -103q-12 -55 -1 -99z" />
<glyph unicode="9" horiz-adv-x="1294" d="M144.5 780q-17.5 90 7.5 197q27 117 90 213t152 164.5t197.5 106.5t223.5 38q141 0 245.5 -61.5t151.5 -167.5q45 -102 38 -229.5t-38 -258.5q-33 -143 -95 -287.5t-157.5 -259t-226.5 -187.5t-301 -73q-78 0 -149.5 17.5t-128.5 58.5l127 115q39 -29 86 -41t100 -12 q123 0 217 59t162.5 149.5t114 200t69.5 207.5q2 4 5 17.5t5 17.5q-41 -66 -98 -118t-122.5 -89t-138.5 -56.5t-144 -19.5q-104 0 -187.5 38t-135.5 104.5t-69.5 156.5zM313.5 833.5q14.5 -67.5 54.5 -117.5t102 -79t140 -29q76 0 151 29t136 79t105.5 117.5t62.5 145.5 t5 145.5t-51 118.5t-99.5 80t-139.5 29t-152.5 -29t-138 -79t-108.5 -118.5t-64 -146.5q-18 -78 -3.5 -145.5z" />
<glyph unicode=":" horiz-adv-x="399" d="M-74 86q10 49 55.5 80t92.5 31t78.5 -31t19.5 -80q-10 -49 -55 -80t-92 -31t-79 31t-20 80zM129 971q12 49 57 79.5t93 30.5q47 0 77.5 -30.5t20.5 -79.5t-56.5 -80t-93.5 -31t-77.5 31t-20.5 80z" />
<glyph unicode=";" horiz-adv-x="399" d="M-221 -217l405 502l109 -72l-406 -502zM129 971q12 49 57 79.5t93 30.5q47 0 77.5 -30.5t20.5 -79.5t-56.5 -80t-93.5 -31t-77.5 31t-20.5 80z" />
<glyph unicode="&#x3c;" horiz-adv-x="1222" d="M92 674v127l1038 471v-152l-835 -383l835 -383v-151z" />
<glyph unicode="=" horiz-adv-x="1216" d="M92 449v143h1032v-143h-1032zM92 883v143h1032v-143h-1032z" />
<glyph unicode="&#x3e;" horiz-adv-x="1222" d="M92 203v151l836 383l-836 383v152l1038 -471v-127z" />
<glyph unicode="?" horiz-adv-x="1099" d="M135 997q25 102 76 193.5t128 159t178 107.5t226 40q109 0 187 -28.5t124 -80t61 -119t-1 -143.5q-18 -84 -55 -141t-82 -99t-92 -71t-86 -55q-59 -39 -99.5 -73t-68 -70.5t-46 -82t-32.5 -104.5l-41 -174h-166l39 174q12 55 30.5 107.5t49.5 102.5t77 99t115 97 q18 12 57.5 34.5t80.5 56.5t76.5 80t50.5 107q25 111 -38 169t-182 58q-78 0 -141 -25.5t-112.5 -71.5t-81 -109.5t-45.5 -137.5h-187zM266 86q10 49 56.5 80t93.5 31t77.5 -31t20.5 -80q-12 -49 -57 -80t-92 -31t-79 31t-20 80z" />
<glyph unicode="@" horiz-adv-x="1626" d="M76 741q0 166 59.5 305.5t163.5 239.5t246.5 156.5t306.5 56.5q139 0 266 -42t223.5 -122t152.5 -195.5t56 -262.5q0 -143 -55 -267q-35 -74 -94.5 -143.5t-136.5 -118.5q-45 -29 -95.5 -47t-101.5 -18q-47 0 -83 24.5t-40 71.5q-2 12 0 27q-47 -66 -113.5 -94.5 t-144.5 -28.5q-70 0 -126 26.5t-96 70.5t-62.5 104.5t-22.5 127.5q0 98 33.5 197.5t95 180.5t148.5 132.5t194 51.5q86 0 163 -40t113 -122l39 123h101l-174 -521q-12 -37 -22.5 -75.5t-10.5 -79.5q0 -33 16.5 -52.5t48.5 -19.5q35 0 67 13.5t60 33.5q47 33 84 81 t61.5 103.5t37 116t12.5 117.5q0 131 -47 231.5t-128 170t-189.5 105.5t-231.5 36q-139 0 -261 -49.5t-212 -137.5t-142.5 -206.5t-52.5 -260.5q0 -147 49.5 -269t137.5 -209t209.5 -135t267.5 -48q160 0 299 65.5t239 186.5h117q-109 -170 -281.5 -263.5t-373.5 -93.5 q-170 0 -311.5 56.5t-243 158t-158.5 241.5t-57 310zM508 625q0 -45 15.5 -86t43 -72t65.5 -48.5t85 -17.5q96 0 161.5 50.5t100.5 134.5q29 66 54 142.5t52 148.5q-16 86 -79.5 132t-149.5 46q-78 0 -141.5 -41t-109.5 -104.5t-71.5 -139.5t-25.5 -145z" />
<glyph unicode="A" d="M-59 0l245 1063q51 221 191.5 333.5t361.5 112.5q223 -1 311 -115q56 -72 56 -184q0 -66 -19 -147l-245 -1063h-195l152 659h-512l-152 -659h-194zM324 815h512l47 207q16 70 18 130v12q-1 54 -17 94q-18 46 -62 71t-120 25t-131 -25.5t-94 -71t-64.5 -105.5t-41.5 -130z " />
<glyph unicode="B" d="M-59 0l340 1475h448q86 0 160 -21.5t123 -67.5q50 -44 68 -114q8 -31 8 -67q0 -45 -13 -97q-14 -61 -45 -114.5t-75 -95.5t-98 -70.5t-116 -41.5q139 -20 202 -120q41 -66 42 -152q0 -45 -12 -96q-25 -106 -84.5 -184t-139 -130.5t-175 -78t-191.5 -25.5h-442zM172 156 h217q66 0 129.5 15t115.5 49t91 86t57 126q9 39 9 71q0 27 -6 50q-13 51 -49 84t-90 49t-122 16h-227zM326 829h211q57 0 113.5 15.5t103.5 46.5t81 77t48 107q8 35 8 64q1 23 -5 45q-12 46 -43.5 76t-80.5 44.5t-111 14.5h-211z" />
<glyph unicode="C" horiz-adv-x="1482" d="M52 435q-5 41 -4 83q0 101 26 211q37 162 116.5 303.5t194.5 247.5t261.5 167.5t316.5 61.5q115 0 215 -34.5t170 -100.5q71 -64 105 -160q22 -61 22 -134q0 -41 -7 -85h-190q3 23 3 45q-1 56 -19 102q-26 64 -76.5 110t-120.5 71t-145 25q-129 0 -237 -53.5 t-190.5 -140.5t-140 -197.5t-84.5 -227.5q-20 -91 -20 -180v-39q6 -108 48 -193.5t122 -137.5t205 -52q102 0 189 34t156.5 94t123 141t88.5 177h190q-41 -133 -117.5 -244.5t-178 -192.5t-225.5 -126t-259 -45q-164 0 -278.5 61.5t-179 166t-80.5 242.5z" />
<glyph unicode="D" horiz-adv-x="1187" d="M-59 0l340 1475h364q166 0 273.5 -57.5t162 -157t60.5 -234.5q1 -20 1 -40q0 -118 -30 -249q-39 -168 -116.5 -304t-190.5 -232.5t-256 -148.5t-316 -52h-292zM174 166h94q129 0 236.5 44t189.5 121t138.5 182t85.5 228v-2q24 105 24 196v33q-6 104 -50 180.5t-129 118.5 t-216 42h-111z" />
<glyph unicode="E" d="M-59 0l340 1475h905l-37 -166h-713l-112 -494h651l-37 -156h-651l-113 -493h725l-39 -166h-919z" />
<glyph unicode="F" d="M-59 0l340 1475h905l-37 -166h-713l-112 -494h651l-37 -156h-651l-152 -659h-194z" />
<glyph unicode="G" horiz-adv-x="1519" d="M52 435q-4 41 -4 83q0 101 26 211q37 162 116.5 303.5t194.5 247.5t261.5 167.5t316.5 61.5q115 0 215 -34.5t170.5 -100t104.5 -160.5q22 -62 22 -134q0 -41 -7 -85h-190q3 23 3 45q0 55 -19 102q-25 64 -76 110t-121 71t-145 25q-129 0 -237 -53.5t-190.5 -140.5 t-140 -197.5t-84.5 -227.5q-20 -91 -20 -180v-39q6 -109 48 -194t122 -137t205 -52q96 0 178 29.5t148.5 84t118.5 128t87 159.5h-424l37 158h629l-92 -395q-9 -39 -9 -67v-15q4 -31 18.5 -47.5t38 -21.5t52.5 -5l-102 -143q-55 0 -87 17.5t-46.5 52t-14.5 86t6 120.5 q-102 -137 -246.5 -220t-324.5 -83q-164 0 -278.5 61.5t-179 166t-80.5 242.5z" />
<glyph unicode="H" horiz-adv-x="1214" d="M-59 0l340 1475h194l-147 -644h600l149 644h195l-342 -1475h-195l156 674h-600l-156 -674h-194z" />
<glyph unicode="I" horiz-adv-x="415" d="M-59 0l340 1475h194l-340 -1475h-194z" />
<glyph unicode="J" d="M18 232q-2 18 -2 38q0 66 19 142l39 161h176l-33 -147q-14 -62 -14 -112q0 -66 24 -112q43 -81 183 -81q141 0 223 84t119 248l196 856h-377q-49 0 -81.5 -10.5t-52 -28t-31 -42t-17.5 -50.5l-119 63q10 45 29.5 87t52.5 75t82 52.5t123 19.5h625l-240 -1039 q-53 -229 -188.5 -350t-376.5 -121q-117 0 -194 33t-117.5 92.5t-47.5 141.5z" />
<glyph unicode="K" horiz-adv-x="952" d="M-59 0l340 1475h194l-131 -572l553 572h225l-704 -738l364 -737h-227l-289 571l-131 -571h-194z" />
<glyph unicode="L" d="M-59 0l340 1475h194l-301 -1309h531q49 0 81.5 10t52 27.5t31 41t17.5 52.5l119 -64q-10 -45 -29 -87t-51.5 -74.5t-82.5 -52t-124 -19.5h-778z" />
<glyph unicode="M" horiz-adv-x="1828" d="M-59 0l245 1063q51 221 191.5 333.5t361.5 112.5q125 0 204 -44t108 -134q141 178 395 178q223 -1 311 -113q56 -71 56 -185q0 -66 -19 -148l-246 -1063h-194l235 1022q17 70 19 131v14q0 51 -16 91q-18 44 -62.5 70t-120.5 26t-131 -25.5t-94 -70t-64.5 -105.5 t-42.5 -131l-235 -1022h-195l236 1022q16 70 18 131v12q-1 53 -17 93q-18 44 -62 70t-120 26t-131 -25.5t-94 -70t-64.5 -105.5t-41.5 -131l-236 -1022h-194z" />
<glyph unicode="N" d="M-59 0l245 1063q51 221 191.5 333.5t361.5 112.5q223 -1 311 -115q56 -72 56 -184q0 -66 -19 -147l-245 -1063h-195l236 1022q16 70 18 130v12q-1 54 -17 94q-18 46 -62 71t-120 25t-131 -25.5t-94 -71t-64.5 -105.5t-41.5 -130l-236 -1022h-194z" />
<glyph unicode="O" horiz-adv-x="1550" d="M54 440q-4 40 -5 80q0 104 27 217q37 158 115.5 298.5t192.5 245.5t258 166.5t310 61.5q168 0 284 -61.5t182 -166.5t80 -245q4 -40 3 -81q0 -104 -26 -218q-37 -158 -116 -298t-192.5 -245.5t-258 -167t-312.5 -61.5q-166 0 -281.5 61.5t-181 167.5t-79.5 246zM248 510 q6 -110 48 -195.5t126 -136.5t213 -51t235.5 51t188.5 137t138 195.5t83 226.5q22 97 22 189v38q-6 110 -48 195.5t-126 137t-213 51.5t-235.5 -51.5t-188 -137.5t-138 -195.5t-83.5 -226.5q-22 -97 -23 -189q0 -19 1 -38z" />
<glyph unicode="P" horiz-adv-x="1126" d="M-59 0l340 1475h460q121 0 203 -34t128 -93.5t56 -138.5q3 -26 3 -54q0 -56 -13 -117q-25 -111 -81 -193.5t-136 -139t-179 -84t-210 -27.5h-240l-137 -594h-194zM307 750h217q70 0 136.5 16t121 50t94.5 88t56 128q11 47 11 86q0 81 -49 125q-73 66 -230 66h-228z" />
<glyph unicode="Q" horiz-adv-x="1550" d="M54 440q-5 39 -5 80q0 104 27 217q37 158 115.5 298.5t192.5 245.5t258 166.5t310 61.5q168 0 284 -61.5t181.5 -166.5t79.5 -245q4 -40 4 -81q0 -104 -26 -218q-33 -139 -99.5 -269t-169.5 -237l129 -159q18 -23 41 -43.5t54 -22.5q23 0 48 12.5t50 30.5l-8 -143 q-41 -29 -85 -49.5t-87 -20.5q-47 0 -81 26.5t-69 71.5l-147 195q-100 -84 -216 -124t-239 -40q-166 0 -281.5 61.5t-181 167t-79.5 246.5zM248 510q6 -109 48 -195t126 -137t213 -51q94 0 183 35t167 106l-117 148q-20 25 -41.5 44t-50.5 21q-25 0 -50.5 -12t-49.5 -31 l8 144q41 29 84 49t86 20h6q43 0 76 -25q35 -28 70 -73l114 -141q61 72 100.5 155.5t59.5 169.5q22 97 22 189v38q-6 109 -48 195t-126 137.5t-213 51.5t-235.5 -51.5t-188 -137.5t-138 -195.5t-83.5 -226.5q-22 -97 -22 -189v-38z" />
<glyph unicode="R" horiz-adv-x="1128" d="M-57 0l340 1475h483q98 0 177 -22.5t129 -70t68 -123.5q8 -32 7 -69q0 -51 -14 -113q-33 -135 -128.5 -234.5t-236.5 -133.5q76 -16 119 -51q43 -36 61 -88q14 -42 14 -91q0 -13 -2 -25q-4 -64 -20 -139l-74 -315h-190l67 289q21 88 21 153q0 63 -26 105q-26 43 -83 64.5 t-151 21.5h-221l-146 -633h-194zM315 776h217q61 0 126 14.5t120.5 47t97.5 87t58 132.5q9 41 9 75q-1 72 -41 118q-60 68 -240 69h-220z" />
<glyph unicode="S" horiz-adv-x="1236" d="M-30 238q-18 50 -18 113q0 64 19 141h195q-15 -60 -15 -110q-1 -35 7 -65q18 -73 67 -118t125 -65.5t168 -20.5q63 0 129 15t122 48t98 85t59 126q8 34 8 62q0 38 -14 66q-24 48 -76.5 79t-128.5 50.5t-158 41.5q-84 23 -166 48.5t-141.5 67.5t-87.5 110q-15 36 -16 85 q0 42 12 93q27 117 92 196.5t152 128.5t187.5 71.5t198.5 22.5q111 0 203 -24.5t153.5 -78.5t87.5 -142q13 -45 13 -101q0 -52 -12 -114h-186q11 47 11 86q0 32 -8 59q-16 59 -57 97t-103.5 54.5t-135.5 16.5q-57 0 -122 -11.5t-122 -40t-101 -76.5t-61 -122q-6 -27 -6 -51 q0 -43 20 -73q30 -46 90 -75.5t140 -50t162 -43.5q88 -25 165.5 -51.5t132.5 -70.5q54 -43 76 -113q10 -32 10 -74q0 -48 -14 -107q-27 -119 -93 -201.5t-155.5 -135t-195 -77t-209.5 -24.5q-102 0 -205.5 25.5t-181.5 85.5t-114 162z" />
<glyph unicode="T" d="M117 1241q10 45 28.5 87t51 75t83 52.5t123.5 19.5h889l-39 -166h-462l-304 -1309h-194l303 1309h-178q-49 0 -82 -10.5t-52.5 -28t-30.5 -42t-17 -50.5z" />
<glyph unicode="U" d="M35 412l246 1063h194l-235 -1022q-16 -71 -18 -131q0 -7 -1 -14q1 -52 17 -91q18 -45 62 -70.5t120 -25.5t131 25.5t94 70.5t64.5 105.5t42.5 130.5l235 1022h195l-246 -1063q-51 -221 -191.5 -334t-361.5 -113q-223 0 -311 115q-56 73 -56 186q0 66 19 146z" />
<glyph unicode="V" horiz-adv-x="1189" d="M170 1475h201l133 -1135l655 1135h201l-836 -1475h-200z" />
<glyph unicode="W" horiz-adv-x="1828" d="M35 412l246 1063h194l-235 -1022q-16 -73 -18 -133q0 -7 -1 -14q1 -52 17 -90q18 -44 62 -69.5t120 -25.5t131 25.5t94 69.5t64.5 104.5t42.5 132.5l235 1022h195l-236 -1022q-16 -73 -18 -133v-11q0 -53 16 -93q18 -44 62.5 -69.5t119.5 -25.5q76 0 131.5 25.5 t94.5 69.5t64.5 104.5t41.5 132.5l236 1022h194l-246 -1063q-51 -221 -191 -334t-361 -113q-125 0 -204 44t-108 134q-141 -178 -395 -178q-221 1 -310 113q-57 72 -57 187q0 66 19 147z" />
<glyph unicode="X" horiz-adv-x="1294" d="M-170 0l705 737l-365 738h225l289 -572l553 572h227l-704 -738l362 -737h-225l-289 571l-553 -571h-225z" />
<glyph unicode="Y" d="M197 1106l84 369h194l-76 -328q-16 -72 -18 -133v-11q0 -53 17 -93q18 -44 62 -69.5t120 -25.5t131 25.5t94 70.5t64.5 105.5t41.5 130.5l76 328h195l-84 -369q-43 -193 -159 -303.5t-296 -132.5l-156 -670h-194l156 670q-172 23 -233 133q-37 65 -37 158q0 66 18 145z " />
<glyph unicode="Z" horiz-adv-x="1183" d="M-152 0l39 166l1168 1143h-844l39 166h1091l-36 -158l-1172 -1151h645q49 0 82 10t52.5 27.5t30.5 41t18 52.5l118 -64q-10 -45 -29.5 -87t-52 -74.5t-82 -52t-122.5 -19.5h-945z" />
<glyph unicode="[" horiz-adv-x="602" d="M-158 -422l439 1897h399l-33 -144h-237l-371 -1610h237l-34 -143h-400z" />
<glyph unicode="\" horiz-adv-x="751" d="M170 1475h143l269 -1475h-144z" />
<glyph unicode="]" horiz-adv-x="602" d="M-168 -422l33 143h237l371 1610h-237l32 144h402l-439 -1897h-399z" />
<glyph unicode="^" horiz-adv-x="978" d="M0 614l430 861h119l430 -861h-143l-347 701l-346 -701h-143z" />
<glyph unicode="_" horiz-adv-x="1024" d="M0 -154h1024v-102h-1024v102z" />
<glyph unicode="`" horiz-adv-x="0" d="M539 1458h196l168 -297h-123z" />
<glyph unicode="a" horiz-adv-x="1226" d="M12 303q-4 33 -5 67q0 69 18 144q27 119 86 222.5t143 180t191.5 120.5t232.5 44q104 0 184 -40t121 -113l29 129h178l-178 -774q-8 -36 -8 -61q0 -7 1 -14q3 -28 18 -43t38.5 -20.5t52.5 -5.5l-102 -143q-104 0 -144.5 44t-40.5 120q-86 -92 -189 -138.5t-230 -46.5 q-117 0 -201 42t-132.5 115t-62.5 171zM188 354q5 -74 37.5 -128t93 -84.5t150.5 -30.5q61 0 122.5 18t116 54t93.5 86t55 114l76 322q1 14 1 27q1 41 -13 75q-18 45 -54.5 75.5t-84.5 47t-103 16.5q-98 0 -177 -33.5t-138.5 -92t-99.5 -137.5t-60 -169q-16 -69 -16 -130 q0 -15 1 -30z" />
<glyph unicode="b" horiz-adv-x="1226" d="M-59 0l272 1180q10 41 10 68q0 8 -1 14q-3 30 -17.5 46.5t-38 21.5t-51.5 5l102 144q45 0 87 -9.5t70 -35.5q28 -27 38 -74q4 -17 4 -37q0 -37 -13 -86l-71 -309q76 76 174 114.5t201 38.5q125 0 212 -44t136 -120.5t61 -180.5q3 -31 3 -63q0 -76 -19 -159 q-27 -115 -86.5 -213t-142.5 -171t-186 -114t-218 -41q-117 0 -198 44t-117 126l-33 -145h-178zM207 383q-7 -29 -7 -56q0 -29 9 -57q16 -50 53 -86.5t91.5 -54.5t113.5 -18q92 0 167 30.5t132 85t96.5 128t59.5 159.5q17 78 17 152v8q-1 78 -31.5 138t-94 97t-168.5 37 q-51 0 -109.5 -18.5t-111.5 -50t-92 -75.5t-51 -95z" />
<glyph unicode="c" horiz-adv-x="1130" d="M12 303q-4 33 -5 67q0 69 18 144q27 119 86 222.5t143 180t191.5 120.5t232.5 44q88 0 160.5 -24.5t123 -72.5t74.5 -118q16 -46 15 -101q0 -29 -4 -60h-170q1 16 1 31q0 93 -52 147q-62 63 -177 63q-94 0 -168.5 -36t-130 -96t-92.5 -138t-55 -162q-17 -72 -17 -139v-11 q2 -72 30 -129t83 -90.5t143 -33.5q123 0 222.5 74.5t138.5 197.5h170q-33 -96 -90.5 -172t-131 -128t-161.5 -80t-182 -28q-117 0 -201 42t-132.5 115t-62.5 171z" />
<glyph unicode="d" horiz-adv-x="1226" d="M12 303q-4 33 -5 67q0 69 18 144q27 119 86 222.5t143 180t191.5 120.5t232.5 44q104 0 184 -40t121 -113l59 258q8 38 8 64v12q-2 30 -17 46.5t-38.5 21.5t-52.5 5l102 144q55 0 97.5 -11.5t67 -39t31.5 -74.5q2 -14 2 -31q0 -38 -11 -86l-211 -918q-12 -53 -12 -89 q0 -35 12 -54q21 -37 87 -37h7l-102 -143q-104 0 -146 44q-40 42 -39 115v7q-170 -186 -419 -187q-117 0 -201 42t-132.5 115t-62.5 171zM188 354q5 -74 37.5 -128t93 -84.5t150.5 -30.5q61 0 122.5 18t116 54t93.5 86t55 114l76 322q1 14 1 27q1 41 -13 75 q-18 45 -54.5 75.5t-84.5 47t-103 16.5q-98 0 -177 -33.5t-138.5 -92t-99.5 -137.5t-60 -169q-16 -69 -16 -130q0 -15 1 -30z" />
<glyph unicode="e" horiz-adv-x="1130" d="M12 303q-4 33 -5 67q0 69 18 144q27 119 86 222.5t143 180t191.5 120.5t232.5 44q88 0 160.5 -24.5t123 -72.5t74.5 -118q16 -46 15 -100q0 -28 -4 -59l-861 -291q-2 -20 -2 -40q0 -40 8 -78q12 -56 43 -98t82.5 -65.5t124.5 -23.5q123 0 222.5 74.5t138.5 197.5h170 q-33 -96 -90.5 -172t-131 -128t-161.5 -80t-182 -28q-117 0 -201 42t-132.5 115t-62.5 171zM209 528l665 224q-4 92 -64 143t-161 51q-88 0 -159.5 -31.5t-126 -85t-91 -124t-57.5 -148.5q-2 -8 -3 -14t-3 -15z" />
<glyph unicode="f" horiz-adv-x="399" d="M-260 -283q29 0 55.5 5.5t48 21.5t38 46t28.5 81l244 1055h-111l29 121h110l49 215q18 76 49 123t71 73.5t86 35.5t93 9q53 0 88 -4t70 -4l-31 -141q-14 4 -37.5 5t-52.5 1t-55.5 -5t-48 -20.5t-37.5 -46.5t-29 -80l-35 -151h111l-31 -131h-110l-256 -1110 q-18 -76 -49 -123t-71 -74t-86 -36t-93 -9z" />
<glyph unicode="g" horiz-adv-x="1216" d="M-20 -117h176q-3 -22 -3 -41q0 -83 54 -128q67 -56 174 -56q156 0 254 91t131 239l35 157q-74 -82 -175.5 -126t-217.5 -44q-115 0 -200 41t-134 114t-62 171q-5 33 -5 67q0 69 18 146q27 119 86 222.5t144 180t192.5 120.5t230.5 44q104 0 184 -38.5t121 -114.5l29 129 h178l-244 -1059q-23 -96 -66.5 -179t-114.5 -144.5t-171 -96.5t-236 -35q-86 0 -160.5 17.5t-129 57.5t-80.5 104q-15 39 -15 89q0 34 7 72zM190 354q5 -73 36.5 -127.5t92 -85t150.5 -30.5q61 0 122.5 18t116 54t93.5 86t55 114l76 322q5 19 5 38q0 30 -13 58 q-19 45 -57 76.5t-88 50t-101 18.5q-104 0 -184 -37t-138.5 -97t-96.5 -138t-56 -160q-14 -67 -14 -127q0 -17 1 -33z" />
<glyph unicode="h" horiz-adv-x="1134" d="M-59 0l272 1180q10 41 10 68q0 8 -1 14q-3 30 -17.5 46.5t-38 21.5t-51.5 5l102 144q45 0 87 -9.5t70 -35.5q28 -27 38 -74q4 -17 4 -37q0 -37 -13 -86l-88 -387q76 119 182.5 175t235.5 56q170 0 247 -100q51 -66 51 -164q0 -49 -13 -106l-96 -416q-9 -38 -9 -65 q0 -9 1 -17q4 -31 18 -47t37.5 -21.5t52.5 -5.5l-102 -143q-47 0 -89.5 9t-70 36t-37.5 74q-4 17 -4 37q0 37 12 86l94 403q13 57 13 107v10q-2 54 -24.5 93.5t-67 62t-111.5 22.5q-78 0 -140.5 -28.5t-111.5 -78t-82 -113t-49 -132.5l-133 -584h-178z" />
<glyph unicode="i" horiz-adv-x="399" d="M-14 115q-3 16 -3 35q0 38 13 88l121 524q10 41 10 68q0 8 -1 14q-3 30 -17.5 46.5t-38 22t-54.5 5.5l103 143q47 0 89 -9.5t70 -35.5q28 -27 38 -74q4 -17 4 -37q0 -37 -13 -86l-121 -524q-10 -41 -10 -69q0 -7 1 -13q3 -31 17.5 -47t38 -21.5t52.5 -5.5l-103 -143 q-47 0 -89 9t-69.5 36t-37.5 74zM229 1399q0 49 38 79.5t85 30.5t85 -30.5t38 -79.5t-38 -80t-85 -31t-85 31t-38 80z" />
<glyph unicode="j" horiz-adv-x="399" d="M-850 -117h176q-3 -19 -3 -36q0 -34 11 -62q15 -43 45.5 -70.5t74.5 -42t97 -14.5q158 0 255.5 91t132.5 239l178 774q10 41 10 68q0 7 -1 14q-3 30 -17.5 46.5t-38 22t-54.5 5.5l103 143q47 0 89 -9.5t69.5 -36t38.5 -73.5q3 -17 3 -37q0 -37 -12 -86l-190 -821 q-23 -96 -67 -179t-114.5 -144.5t-170 -96.5t-234.5 -35q-86 0 -162 17.5t-129 57.5t-80 104q-16 41 -16 93q0 32 6 68zM229 1399q0 49 38 79.5t85 30.5t85 -30.5t38 -79.5t-38 -80t-85 -31t-85 31t-38 80z" />
<glyph unicode="k" horiz-adv-x="753" d="M-59 0l272 1180q10 41 10 68q0 8 -1 14q-3 30 -17.5 46.5t-38 21.5t-51.5 5l102 144q45 0 87 -9.5t70 -35.5q28 -27 38 -74q4 -17 4 -37q0 -37 -13 -86l-124 -543l352 363h196l-503 -529l157 -309q14 -27 35 -51.5t55 -24.5q23 0 46.5 10.5t46.5 24.5l-13 -143 q-37 -23 -78 -41.5t-81 -18.5q-57 0 -91 35t-57 78l-141 274l-84 -362h-178z" />
<glyph unicode="l" horiz-adv-x="399" d="M-14 115q-3 16 -3 35q0 38 13 88l217 942q10 41 10 68q0 8 -1 14q-3 30 -17.5 46.5t-38 21.5t-51.5 5l102 144q45 0 87 -9.5t70 -35.5q28 -27 38 -74q4 -17 4 -37q0 -37 -13 -86l-217 -942q-10 -41 -10 -69q0 -7 1 -13q3 -31 17.5 -47t38 -21.5t52.5 -5.5l-103 -143 q-47 0 -89 9t-69.5 36t-37.5 74z" />
<glyph unicode="m" horiz-adv-x="1871" d="M-59 0l176 762q9 40 9 69t-8 49q-17 38 -94 38h-8l103 143q61 0 98 -17.5t56.5 -47t24.5 -69.5q4 -29 4 -61q0 -13 -1 -26q33 55 83 99t108.5 76t120 49t120.5 17q133 0 214 -67.5t81 -198.5q74 135 186.5 200.5t253.5 65.5q172 0 249 -100q51 -66 52 -164 q0 -49 -14 -106l-96 -416q-9 -40 -10 -70q0 -28 9 -48q16 -38 91 -38h8l-102 -143q-123 0 -169 58q-29 36 -29 98q0 38 11 86l88 387q14 61 14 116q0 59 -22 103q-20 43 -64 67.5t-114 24.5q-76 0 -139.5 -28.5t-111.5 -78t-80.5 -113t-49.5 -132.5l-135 -584h-178l149 641 q13 57 13 106v11q-2 54 -24.5 93.5t-67 62t-111.5 22.5q-78 0 -140.5 -28.5t-111.5 -78t-82 -113t-49 -132.5l-133 -584h-178z" />
<glyph unicode="n" horiz-adv-x="1134" d="M-59 0l176 762q10 41 10 68q0 8 -1 14q-3 30 -17.5 46.5t-38 22t-54.5 5.5l103 143q66 0 103.5 -17.5t57 -48t23.5 -71.5q2 -20 2 -42t-2 -44q74 123 185.5 183t244.5 60q172 0 248 -100q50 -66 51 -163q0 -50 -14 -107l-90 -392q-12 -53 -11 -89q1 -35 11 -54 q21 -37 87 -37h7l-102 -143q-55 0 -97.5 11t-68 39t-32.5 74q-2 14 -2 30q0 38 11 88l90 387q15 65 15 123q0 56 -22 97q-22 42 -65.5 66.5t-113.5 24.5q-78 0 -140.5 -28.5t-111.5 -78t-82 -113t-49 -132.5l-133 -584h-178z" />
<glyph unicode="o" horiz-adv-x="1179" d="M11 320q-2 27 -2 53q0 75 18 155q25 109 80 209.5t137 177t189.5 121.5t236.5 45t214 -45t132 -122q48 -76 56 -176q2 -26 1 -52q0 -77 -18 -158q-25 -109 -80 -209t-137 -176.5t-188.5 -122t-235.5 -45.5t-214 45.5t-132.5 122.5t-56.5 177zM190 374q3 -76 30.5 -134 t82.5 -93.5t143 -35.5q86 0 158 35.5t126 94t91.5 134t55.5 153.5q15 67 15 132v21q-3 75 -29.5 134t-82 95t-141.5 36q-88 0 -160.5 -36t-127 -95t-91.5 -134t-55 -153q-15 -67 -15 -132v-22z" />
<glyph unicode="p" horiz-adv-x="1226" d="M-112 -299q-2 14 -2 31q0 37 12 84l219 946q9 38 9 68t-10 50q-17 38 -92 38h-8l103 143q86 0 134 -36t52 -114q80 86 188.5 128t213.5 42q125 0 212 -44t136 -120.5t61 -180.5q3 -30 3 -63q0 -76 -19 -159q-27 -115 -85.5 -213t-141 -170t-186 -114t-220.5 -42 q-111 0 -194 42t-121 128l-64 -272q-9 -39 -9 -68.5t9 -49.5q17 -38 92 -38h8l-102 -143q-53 0 -95 11.5t-68.5 40t-34.5 75.5zM207 383q-7 -31 -7 -58q0 -31 9 -58q16 -50 54 -85t91.5 -53t112.5 -18q92 0 167 30.5t132 85t96.5 128t59.5 159.5q17 78 17 148v21 q-3 79 -36 137.5t-96.5 92t-161.5 33.5q-47 0 -105.5 -17.5t-111.5 -49t-94 -75.5t-53 -97z" />
<glyph unicode="q" horiz-adv-x="1226" d="M12 301q-5 33 -5 67q0 69 18 146q27 119 86 222.5t144 180t192.5 120.5t230.5 44q106 0 185 -40t120 -113l29 129h178l-275 -1184q-10 -41 -10 -69q0 -7 1 -13q3 -31 17.5 -47t39 -21.5t53.5 -5.5l-103 -143q-47 0 -89 9t-69.5 36t-37.5 74q-4 17 -4 37q0 37 12 86 l76 329q-74 -82 -175.5 -126t-217.5 -44q-117 0 -201 42t-133 114t-62 170zM188 354q5 -73 37.5 -127.5t93 -85t150.5 -30.5q61 0 122.5 18t116 54t93.5 86t55 114l76 322q1 14 1 27q0 41 -13 75q-19 45 -55 75.5t-84 47t-103 16.5q-98 0 -177 -33.5t-138.5 -92 t-99.5 -137.5t-60 -169q-16 -69 -16 -130q0 -15 1 -30z" />
<glyph unicode="r" horiz-adv-x="700" d="M-59 0l176 762q10 41 10 68q0 8 -1 14q-3 30 -17.5 46.5t-38 22t-54.5 5.5l103 143q66 0 103.5 -17.5t57 -48t22.5 -70.5q2 -24 2 -50q0 -17 -1 -35q157 241 428 241h2h23.5t23.5 -2l-145 -143q-78 0 -140.5 -28.5t-111.5 -78t-82 -113t-49 -132.5l-133 -584h-178z" />
<glyph unicode="s" horiz-adv-x="993" d="M-52 184q-8 32 -8 70q0 47 13 102h170q-9 -41 -9 -76q0 -78 46 -122q66 -64 202 -64q43 0 92.5 10.5t93.5 32t76.5 56t45.5 86.5q5 23 5 42q-1 25 -9 43q-16 32 -51 54t-88.5 36.5t-118.5 28.5q-80 18 -147.5 39t-112 54.5t-61.5 85.5q-8 25 -8 56q0 33 9 73 q14 66 57 119t105.5 91.5t142.5 59t172 20.5q88 0 162 -17t123 -57q50 -41 70 -105q10 -33 10 -72t-10 -85h-164q7 32 7 60q0 23 -5 43q-10 44 -39 71t-74 40.5t-100 13.5q-78 0 -130.5 -20.5t-84 -48t-48 -56.5t-20.5 -47q-4 -17 -4 -33q0 -39 26 -64q36 -36 92 -57.5 t120.5 -35t109.5 -25.5q53 -16 103.5 -36t86.5 -52q34 -31 50 -79q8 -24 8 -53q0 -30 -8 -67q-20 -92 -73.5 -153.5t-126.5 -99.5t-154.5 -54.5t-161.5 -16.5q-100 0 -180 21.5t-132 68.5t-70 119z" />
<glyph unicode="t" horiz-adv-x="399" d="M-14 115q-3 16 -3 35q0 38 13 88l162 700h-111l27 119h110l60 248l192 65l-74 -313h111l-29 -119h-110l-148 -643q-10 -41 -10 -69q0 -7 1 -13q3 -31 17.5 -47t38 -21.5t52.5 -5.5l-103 -143q-47 0 -89 9t-69.5 36t-37.5 74z" />
<glyph unicode="u" horiz-adv-x="1134" d="M16 918l103 143q55 0 97 -11.5t68 -39.5q24 -27 32 -74q2 -14 2 -31q0 -37 -11 -86l-90 -387q-15 -62 -15 -115v-7q1 -56 22.5 -98t65.5 -66.5t116 -24.5q76 0 139 28.5t111.5 77.5t81 112.5t48.5 133.5l136 584h176l-176 -764q-10 -41 -10 -69v-11q2 -31 17 -47 t38.5 -21.5t54.5 -5.5l-102 -143q-66 0 -104 17.5t-57.5 48t-23.5 71.5q-2 20 -2 41.5t2 44.5q-74 -123 -185.5 -183.5t-244.5 -60.5q-171 1 -247 101q-51 67 -51 165q0 49 13 105l91 391q12 52 11 88q0 35 -11 55q-22 38 -88 38h-7z" />
<glyph unicode="v" horiz-adv-x="925" d="M-53 903l55 156q29 10 59.5 16t59.5 6q41 0 68.5 -15t46 -40t28.5 -57.5t15 -67.5l79 -618l453 774h188l-614 -1057h-186l-99 801q-2 20 -7 40.5t-14 37t-24.5 28t-40.5 11.5q-29 0 -67 -15z" />
<glyph unicode="w" horiz-adv-x="1871" d="M16 918l103 143q123 1 170 -57q29 -36 29 -98q0 -38 -11 -87l-90 -387q-13 -59 -13 -112v-8q1 -56 21.5 -99t64.5 -67.5t116 -24.5q76 0 139 28.5t111.5 77.5t81 112.5t48.5 133.5l134 584h178l-148 -641q-12 -55 -12 -103v-13q2 -54 24.5 -94t66.5 -62.5t112 -22.5 q76 0 139 28.5t111.5 77.5t81 112.5t49.5 133.5l135 584h178l-176 -762q-9 -40 -9 -70q0 -28 8 -48q16 -38 91 -38h8l-102 -143q-59 0 -96 17.5t-57 46.5q-20 30 -26 70q-4 26 -4 55q0 16 1 32q-35 -55 -84.5 -100t-107.5 -76t-119.5 -48.5t-119.5 -17.5q-135 0 -216 68 q-78 66 -78 190v9q-74 -135 -188 -201t-255 -66q-171 1 -247 101q-51 67 -51 165q0 49 13 105l97 416q9 40 9 69t-8 49q-17 38 -94 38h-8z" />
<glyph unicode="x" horiz-adv-x="962" d="M-170 0l504 528l-158 310q-14 27 -35.5 52t-56.5 25q-23 0 -45.5 -11t-44.5 -23l10 143q39 23 80 40t82 17q57 0 91 -34.5t56 -75.5l154 -299l373 385h196l-504 -529l158 -309q14 -27 34.5 -51.5t55.5 -24.5q23 0 46.5 10.5t45.5 24.5l-12 -143q-37 -23 -78 -41.5 t-82 -18.5q-57 0 -91 35t-56 78l-154 297l-372 -385h-197z" />
<glyph unicode="y" horiz-adv-x="1134" d="M-113 -117h176q-3 -22 -3 -41q0 -83 54 -128q68 -56 175 -56q156 0 253 91t132 239l51 217q-76 -117 -183.5 -173.5t-236.5 -56.5q-170 0 -247 101q-51 67 -51 165q0 49 13 105l97 416q10 41 10 68q0 7 -1 14q-3 30 -17.5 46.5t-38 22t-54.5 5.5l103 143q47 0 89 -9.5 t69.5 -36t38.5 -73.5q3 -17 3 -37q0 -37 -12 -86l-94 -403q-12 -55 -12 -104v-14q2 -54 25.5 -93t67.5 -61.5t112 -22.5q76 0 139 28.5t111.5 77.5t81 112.5t48.5 133.5l134 584h178l-244 -1059q-23 -96 -67 -179t-114.5 -144.5t-170 -96.5t-234.5 -35q-86 0 -161.5 17.5 t-129 57.5t-79.5 104q-17 41 -17 93q0 32 6 68z" />
<glyph unicode="z" horiz-adv-x="948" d="M-152 0l35 150l826 770h-414q-47 0 -78 -9.5t-49 -26t-27.5 -39t-15.5 -46.5l-98 51q8 39 25.5 77t47 66.5t73.5 46t110 17.5h680l-35 -150l-822 -772h451q47 0 77 9.5t48 26.5t28.5 39.5t16.5 47.5l98 -51q-10 -41 -26.5 -78t-46 -65.5t-74.5 -46t-109 -17.5h-721z" />
<glyph unicode="{" horiz-adv-x="694" d="M29 459l32 143q31 2 65 23.5t62.5 56.5t52 80t35.5 98l89 377q29 119 94 178.5t162 59.5h151l-33 -144h-88q-61 0 -95 -42t-56 -142l-80 -342q-10 -47 -34 -92t-56.5 -83t-73.5 -64.5t-84 -39.5q76 -23 111.5 -95.5t7.5 -188.5l-78 -334q-27 -109 -7.5 -148t79.5 -39h84 l-33 -143h-152q-98 0 -137 60.5t-10 179.5l86 368q25 106 1 171t-95 102z" />
<glyph unicode="|" horiz-adv-x="364" d="M111 0v1475h143v-1475h-143z" />
<glyph unicode="}" horiz-adv-x="694" d="M-176 -422l33 143h84q61 0 96 39t61 148l78 334q29 117 96.5 189.5t153.5 94.5q-39 12 -66.5 39t-43 65t-18.5 83t7 92l80 342q23 100 8.5 142t-76.5 42h-88l33 144h152q98 0 137 -59.5t10 -178.5l-86 -377q-25 -104 5 -178t91 -80l-32 -143q-90 -37 -142.5 -101.5 t-77.5 -171.5l-86 -368q-29 -119 -94 -179.5t-164 -60.5h-151z" />
<glyph unicode="~" horiz-adv-x="1077" d="M76 700q37 72 95 124.5t153 54.5q53 2 113.5 -19.5t119.5 -48.5t114.5 -49.5t96.5 -22.5q61 0 103 46t77 100l53 -113q-20 -33 -43.5 -64.5t-51 -56t-62.5 -40t-78 -15.5q-53 0 -101.5 19.5t-101.5 46.5q-51 25 -108.5 49t-135.5 24q-70 0 -113.5 -44t-76.5 -103z" />
<glyph unicode="&#xa1;" horiz-adv-x="399" d="M-78 0l332 1192h100l-217 -1192h-215zM225 1389q12 49 57.5 79.5t92.5 30.5t78.5 -30.5t19.5 -79.5q-10 -49 -56 -80t-93 -31t-78 30.5t-21 80.5z" />
<glyph unicode="&#xa2;" horiz-adv-x="1130" d="M66.5 523q-9.5 93 15.5 200q25 111 78 208t127.5 173t171 124t211.5 58l43 189h114l-43 -187q78 -6 141.5 -33.5t106.5 -74.5t62.5 -114t9.5 -151h-170q10 113 -51.5 176.5t-175.5 63.5q-96 0 -171 -36t-130.5 -96t-92.5 -138t-55 -162q-18 -78 -15 -150.5t30.5 -129 t83 -90.5t143.5 -34q123 0 222 75t138 198h170q-31 -88 -80 -159t-114.5 -122t-142.5 -82.5t-163 -40.5l-43 -188h-114l43 188q-104 8 -179 52.5t-118 117t-52.5 165.5z" />
<glyph unicode="&#xa3;" horiz-adv-x="1144" d="M-106 76q53 35 104 76t95 89t77 102t47 116q10 49 13 103t-11 97h-188l28 125h140q-23 68 -42.5 146t-0.5 157q25 104 84 181.5t140 127.5t175 75.5t190 25.5q242 0 345.5 -134t35.5 -378h-174q25 80 22 146.5t-34 114.5t-87 76t-138 28q-61 0 -122 -14.5t-111 -46.5 t-88 -81t-52 -116q-10 -39 -6 -79t14 -79t22.5 -77t20.5 -73h287l-29 -122h-248q12 -45 9.5 -94.5t-13.5 -98.5q-23 -98 -89 -182t-156 -146q41 27 87 41.5t91 14.5q47 0 89 -13.5t83 -29t82 -28.5t86 -13q84 0 152.5 48t133.5 107l50 -127q-90 -80 -183.5 -128t-203.5 -48 q-45 0 -85 11.5t-79 25.5t-78 27.5t-82 17.5q-92 10 -172 -6t-172 -76z" />
<glyph unicode="&#xa4;" horiz-adv-x="1171" d="M72 266l118 117q-53 61 -83.5 145t-30.5 174q0 92 30.5 176.5t83.5 143.5l-118 117l78 75l116 -116q59 53 144.5 83.5t175.5 30.5t174 -30.5t143 -83.5l117 116l78 -75l-119 -117q55 -59 86 -143.5t31 -176.5q0 -88 -31 -173t-86 -146l119 -117l-76 -76l-119 119 q-63 -57 -144 -86.5t-173 -29.5q-90 0 -172 28.5t-148 85.5l-119 -117zM211 702q0 -80 30.5 -148.5t82 -118.5t120 -78.5t142.5 -28.5t142.5 28.5t119.5 78.5t82 118.5t31 148.5t-31 149t-82 119t-118.5 78.5t-143.5 28.5q-74 0 -142.5 -28.5t-120 -78.5t-82 -119 t-30.5 -149z" />
<glyph unicode="&#xa5;" d="M29 168l28 119h303l35 157h-303l29 119h303l35 154q-170 23 -232.5 132t-19.5 302l74 324h194l-65 -283q-16 -70 -18.5 -130.5t16 -104.5t62.5 -69.5t120 -25.5t131 25.5t94 69.5t64.5 104.5t42.5 130.5l65 283h195l-74 -324q-45 -193 -159.5 -302.5t-295.5 -131.5 l-35 -154h304l-27 -119h-305l-35 -157h303l-29 -119h-303l-39 -168h-194l39 168h-303z" />
<glyph unicode="&#xa6;" horiz-adv-x="364" d="M111 0v551h143v-551h-143zM111 924v551h143v-551h-143z" />
<glyph unicode="&#xa7;" horiz-adv-x="1171" d="M39 545q0 104 44 180t128 133q-88 47 -130 113.5t-42 171.5q0 102 48 172.5t123 114t166 61.5t177 18q104 0 200.5 -20.5t171 -68.5t121 -127t50.5 -195h-191q-4 76 -31.5 131t-73.5 90t-108.5 52.5t-132.5 17.5q-55 0 -111.5 -11.5t-103.5 -39t-76.5 -71.5t-29.5 -110 q0 -82 57 -131t138 -77.5t168 -45t147 -33.5q74 -20 142 -45.5t122.5 -67.5t87.5 -101.5t33 -147.5q0 -104 -44.5 -180t-130.5 -133q88 -47 131.5 -114t43.5 -171q0 -102 -48.5 -173t-123 -114t-167 -61.5t-178.5 -18.5q-104 0 -199 20.5t-170 69t-121 127t-50 195.5h188 q2 -76 31 -131t75 -90t108.5 -52.5t133.5 -17.5q55 0 111.5 11.5t103.5 39t77 71.5t30 110q0 82 -57.5 131t-138.5 77.5t-169 45t-147 32.5q-72 20 -141.5 46t-123 68t-86 101.5t-32.5 147.5zM238 569q0 -74 33.5 -118.5t85 -72.5t113.5 -43.5l118 -29.5q43 -10 87 -19.5 t87 -21.5q74 29 123 82t49 137q0 74 -34 118t-86 71.5t-113.5 44t-118.5 31.5q-43 10 -86 19t-86 21q-74 -29 -123 -82t-49 -137z" />
<glyph unicode="&#xa8;" horiz-adv-x="0" d="M389 1272q0 49 38 79.5t85 30.5t86 -30.5t39 -79.5q0 -51 -39 -81t-86 -30t-85 30t-38 81zM788 1272q0 49 39 79.5t86 30.5t85 -30.5t38 -79.5q0 -51 -37.5 -81t-85.5 -30q-47 0 -86 30t-39 81z" />
<glyph unicode="&#xa9;" horiz-adv-x="1683" d="M76 737q0 160 60.5 299.5t163.5 242.5t242.5 163.5t299.5 60.5t299 -60.5t242.5 -163.5t164 -242.5t60.5 -299.5t-60.5 -299t-164 -242.5t-243 -164t-298.5 -60.5q-160 0 -299.5 60.5t-242.5 164t-163.5 243t-60.5 298.5zM197 737q0 -135 50 -252.5t138 -207t205 -140.5 t252 -51t251.5 51t204.5 140.5t138.5 207t50.5 252.5t-50.5 253t-138.5 207t-204.5 140.5t-251.5 51.5t-252 -51.5t-205 -140.5t-138 -207t-50 -253zM424 729q0 98 29.5 181t85 143.5t135.5 94.5t180 34q72 0 134.5 -20.5t111.5 -59.5t81.5 -98.5t45.5 -135.5h-101 q-16 104 -92 156.5t-178 52.5q-78 0 -137.5 -25.5t-100 -71.5t-62 -109.5t-21.5 -139.5q0 -74 22.5 -138.5t64.5 -111.5t102 -74.5t136 -27.5q94 0 169 53t97 164h103q-29 -152 -130.5 -238t-238.5 -86q-98 0 -179 36t-138.5 97.5t-88 144.5t-30.5 179z" />
<glyph unicode="&#xaa;" horiz-adv-x="825" d="M168 1030.5q-8 59.5 8 128.5q16 72 52 134.5t87.5 108.5t117 71.5t140.5 25.5q119 0 181 -78l14 64h117l-94 -414q-14 -61 1 -94t85 -33l-66 -96q-129 0 -147 94q-53 -55 -119 -80.5t-135 -25.5q-70 0 -121 24.5t-82 67.5t-39 102.5zM331.5 1080.5q10.5 -60.5 76.5 -95.5 q25 -12 54.5 -17t58 2t54 25.5t41.5 51.5q6 2 23.5 26.5t34 54t27 56.5t6.5 35q12 20 7 47.5t-20.5 51t-37 41t-42.5 19.5q-84 10 -148.5 -39t-103.5 -120q-41 -78 -30.5 -138.5z" />
<glyph unicode="&#xab;" horiz-adv-x="712" d="M74 659l37 156l321 277l-39 -162l-211 -193l123 -190l-39 -164zM344 659l37 156l321 277l-38 -162l-211 -193l122 -190l-38 -164z" />
<glyph unicode="&#xac;" horiz-adv-x="399" d="M-35 588l27 110l131 93l90 389q12 51 9 81.5t-17.5 47t-38 21.5t-51.5 5l102 144q45 0 87 -9.5t69.5 -36t38 -73.5t-8.5 -123l-71 -307l133 92l-27 -111l-131 -92l-121 -524q-12 -51 -9 -82t17.5 -47t38 -21.5t52.5 -5.5l-103 -143q-47 0 -88 9t-68.5 36t-36.5 74t7 123 l100 442z" />
<glyph unicode="&#xad;" horiz-adv-x="649" d="M31 473l35 152h464l-34 -152h-465z" />
<glyph unicode="&#xae;" horiz-adv-x="929" d="M76 1116q0 80 30.5 149.5t83 122t124 82t151.5 29.5t151.5 -29.5t124 -82t83 -122t30.5 -149.5t-30.5 -149.5t-83 -121.5t-124 -82t-151.5 -30t-151.5 30t-124 82t-83 121.5t-30.5 149.5zM150 1116q0 -66 24.5 -122t67.5 -99t100 -67.5t123 -24.5t123 24.5t100 67.5 t67.5 99.5t24.5 121.5h2q0 63 -24.5 120.5t-67.5 100.5t-101.5 68t-123.5 25q-66 0 -123 -25t-100 -68t-67.5 -100t-24.5 -121zM322 899v426h153q160 0 160 -125q0 -55 -31 -81.5t-74 -33.5l119 -186h-69l-111 182q-16 -2 -45 -1t-43 1v-182h-59zM381 1133h90q39 0 70.5 12 t31.5 59q0 43 -30.5 55.5t-69.5 12.5h-92v-139z" />
<glyph unicode="&#xaf;" horiz-adv-x="0" d="M424 1229l22 94h558l-23 -94h-557z" />
<glyph unicode="&#xb0;" horiz-adv-x="747" d="M76 1202q0 61 22.5 115.5t62.5 94.5t94 63.5t118 23.5q63 0 117.5 -23.5t94.5 -63.5t63.5 -94.5t23.5 -115.5q0 -63 -22.5 -118.5t-62.5 -95.5t-95.5 -63.5t-118.5 -23.5t-117.5 22.5t-94.5 63.5t-62.5 95.5t-22.5 119.5zM162 1202q0 -47 16.5 -86t46 -67.5t67.5 -45 t81 -16.5q92 0 152.5 61.5t60.5 153.5q0 43 -16.5 81t-44 67.5t-67.5 46t-85 16.5q-43 0 -81 -17.5t-67.5 -46t-46 -66.5t-16.5 -81z" />
<glyph unicode="&#xb1;" horiz-adv-x="1216" d="M92 219v143h1032v-143h-1032zM92 797v143h445v315h143v-315h444v-143h-444v-316h-143v316h-445z" />
<glyph unicode="&#xb2;" horiz-adv-x="720" d="M47 674q12 63 49 115.5t87 95.5t109.5 78.5t117.5 68.5q78 43 146.5 97.5t84.5 121.5q16 66 -18.5 107t-104.5 41q-96 0 -149.5 -62.5t-73.5 -156.5h-117q31 147 126 233t239 86q55 0 101 -15.5t78 -45t45 -74.5t-1 -104q-20 -86 -88 -151t-151 -118t-161.5 -103 t-119.5 -108h286q47 0 62.5 18.5t23.5 55.5l84 -41q-14 -63 -52 -101t-115 -38h-488z" />
<glyph unicode="&#xb3;" horiz-adv-x="733" d="M93 835.5q-9 57.5 16 135.5h116q-29 -102 11 -155.5t137 -53.5q72 0 133 41t78 112q16 72 -23 109t-110 37h-35l20 88h35q66 0 119 31.5t67 95.5q14 61 -28.5 93t-104.5 32q-84 0 -143 -47t-78 -140h-117q33 143 132.5 214t230.5 71q45 0 91 -12t81 -38t51 -64.5t4 -94.5 q-12 -53 -51 -105t-98 -75q57 -23 75.5 -81.5t4.5 -119.5q-14 -59 -50 -105t-85.5 -78t-106.5 -48t-113 -16q-70 0 -125 19t-90 58t-44 96.5z" />
<glyph unicode="&#xb4;" horiz-adv-x="0" d="M465 1159l315 299h197l-387 -299h-125z" />
<glyph unicode="&#xb5;" horiz-adv-x="1134" d="M-260 -283q72 -2 113 37t63 144l268 1159h178l-149 -641q-14 -63 -12 -117.5t25.5 -93.5t67.5 -61.5t112 -22.5q76 0 139 28.5t111.5 77.5t81 112.5t48.5 133.5l134 584h178l-174 -752q-23 -102 4.5 -135t93.5 -31l-102 -143q-66 0 -103 17.5t-56.5 47t-23.5 69.5t0 85 q-59 -104 -154.5 -164.5t-209.5 -66.5q-80 -4 -146.5 23.5t-87.5 84.5l-63 -276q-33 -141 -111 -191.5t-188 -50.5z" />
<glyph unicode="&#xb6;" horiz-adv-x="1083" d="M76 1087q0 100 33.5 174t96 121.5t149.5 70t196 22.5h422v-1897h-129v1792h-182v-1792h-132v1135q-104 0 -188 28.5t-143.5 78.5t-91 119t-31.5 148z" />
<glyph unicode="&#xb7;" horiz-adv-x="399" d="M76 737q0 49 38 80t85 31t86 -31t39 -80t-39 -79.5t-86 -30.5t-85 30.5t-38 79.5z" />
<glyph unicode="&#xb8;" horiz-adv-x="0" d="M115 -369l43 60q35 -12 71.5 -24.5t77.5 -12.5q49 0 99.5 20.5t64.5 75.5q4 20 -3 34.5t-20.5 25t-31 15.5t-31.5 5q-59 0 -104 -25l-33 31l153 164h70l-113 -123l36 9t46 5q33 0 61.5 -8t49 -24.5t29 -43t0.5 -63.5q-12 -49 -39 -80.5t-63 -50t-78 -26t-85 -7.5 q-63 0 -110 13.5t-90 29.5z" />
<glyph unicode="&#xb9;" horiz-adv-x="489" d="M213 1331q12 57 49 100.5t123 43.5h164l-187 -811h-131l162 700h-14q-43 0 -56.5 -20.5t-23.5 -55.5z" />
<glyph unicode="&#xba;" horiz-adv-x="796" d="M167 1041.5q-7 60.5 9 125.5q14 66 48 125.5t85 105.5t119 73.5t147 27.5q80 0 134.5 -27.5t84 -73.5t35.5 -105.5t-8 -125.5q-16 -66 -50 -126t-85 -107t-117.5 -75t-148.5 -28q-80 0 -134.5 28t-83 75t-35.5 107.5zM285 1080q2 -44 19.5 -78.5t51 -56t86.5 -21.5 q51 0 95.5 21.5t78 56t56.5 78.5t33 87t7 86t-20.5 77t-51.5 55.5t-85 21.5q-53 0 -97 -21.5t-77 -55.5t-55.5 -77t-32.5 -86t-8 -87z" />
<glyph unicode="&#xbb;" horiz-adv-x="712" d="M10 383l37 162l211 192l-123 191l39 164l193 -277l-35 -156zM281 383l36 162l211 192l-122 191l38 164l193 -277l-35 -156z" />
<glyph unicode="&#xbc;" horiz-adv-x="1366" d="M-41 0l1215 1475h112l-1212 -1475h-115zM213 1331q12 57 49 100.5t123 43.5h164l-187 -811h-131l162 700h-14q-43 0 -56.5 -20.5t-23.5 -55.5zM498 215l24 109l492 487h119l-113 -489h18q45 0 58.5 19t21.5 54l84 -41q-12 -55 -48 -97t-120 -42h-39l-49 -215h-125l49 215 h-372zM629 322h266l80 350z" />
<glyph unicode="&#xbd;" horiz-adv-x="1447" d="M-41 0l1215 1475h112l-1212 -1475h-115zM213 1331q12 57 49 100.5t123 43.5h164l-187 -811h-131l162 700h-14q-43 0 -56.5 -20.5t-23.5 -55.5zM621 0q12 63 49 114.5t87 94.5t109.5 79t116.5 68q78 43 145.5 98.5t83.5 120.5q16 68 -17.5 109t-104.5 41 q-94 0 -147.5 -62.5t-76.5 -156.5h-114q31 147 126 233t236 86q55 0 102.5 -15t79 -45t44 -75t-2.5 -104q-14 -57 -50 -104.5t-84 -88.5t-103.5 -76.5t-109.5 -69.5t-99 -69t-74 -74h287q49 0 64.5 19.5t23.5 56.5l84 -41q-16 -63 -53 -101t-115 -38h-487z" />
<glyph unicode="&#xbe;" horiz-adv-x="1562" d="M93 835.5q-9 57.5 16 135.5h116q-29 -102 11 -155.5t137 -53.5q72 0 133 41t78 112q16 72 -23 109t-110 37h-35l20 88h35q66 0 119 31.5t67 95.5q14 61 -28.5 93t-104.5 32q-84 0 -143 -47t-78 -140h-117q33 143 132.5 214t230.5 71q45 0 91 -12t81 -38t51 -64.5t4 -94.5 q-12 -53 -51 -105t-98 -75q57 -23 75.5 -81.5t4.5 -119.5q-14 -59 -50 -105t-85.5 -78t-106.5 -48t-113 -16q-70 0 -125 19t-90 58t-44 96.5zM158 0l1212 1475h113l-1213 -1475h-112zM694 215l25 109l491 487h119l-112 -489h20q45 0 57.5 19t22.5 54l82 -41q-12 -55 -48 -97 t-120 -42h-39l-49 -215h-125l49 215h-373zM827 322h265l82 350z" />
<glyph unicode="&#xbf;" horiz-adv-x="1099" d="M-16.5 201.5q-14.5 66.5 2.5 144.5q18 84 55 141.5t81 99.5t91 70.5t86 55.5q57 39 99 72.5t71 70.5t47.5 82t30.5 104l39 175h168l-41 -175q-12 -55 -30.5 -107t-49.5 -103.5t-77 -99.5t-116 -95q-18 -12 -56 -34.5t-79 -56.5t-76.5 -80t-50.5 -108q-25 -111 36.5 -169 t182.5 -58q76 0 140.5 25.5t112.5 71.5t81 109.5t45 137.5h187q-23 -102 -74 -193.5t-128 -159t-178.5 -107.5t-226.5 -40q-109 0 -186.5 29t-124.5 80t-61.5 117.5zM586 1386q10 49 56 80t93 31t78 -31t21 -80q-12 -49 -57.5 -79.5t-92.5 -30.5t-79 30.5t-19 79.5z" />
<glyph unicode="&#xc0;" d="M-59 0l245 1063q51 221 191.5 333.5t361.5 112.5q223 0 311.5 -114.5t36.5 -331.5l-245 -1063h-195l152 659h-512l-152 -659h-194zM324 815h512l47 207q16 70 18 130t-16.5 105.5t-62.5 71t-120 25.5t-131 -25.5t-94 -71t-64.5 -105.5t-41.5 -130zM616 1866h197l168 -299 h-123z" />
<glyph unicode="&#xc1;" d="M-59 0l245 1063q51 221 191.5 333.5t361.5 112.5q223 0 311.5 -114.5t36.5 -331.5l-245 -1063h-195l152 659h-512l-152 -659h-194zM324 815h512l47 207q16 70 18 130t-16.5 105.5t-62.5 71t-120 25.5t-131 -25.5t-94 -71t-64.5 -105.5t-41.5 -130zM524 1567l314 299h198 l-389 -299h-123z" />
<glyph unicode="&#xc2;" d="M-59 0l245 1063q51 221 191.5 333.5t361.5 112.5q223 0 311.5 -114.5t36.5 -331.5l-245 -1063h-195l152 659h-512l-152 -659h-194zM324 815h512l47 207q16 70 18 130t-16.5 105.5t-62.5 71t-120 25.5t-131 -25.5t-94 -71t-64.5 -105.5t-41.5 -130zM446 1573l306 293h145 l172 -293h-139l-125 215l-221 -215h-138z" />
<glyph unicode="&#xc3;" d="M-59 0l245 1063q51 221 191.5 333.5t361.5 112.5q223 0 311.5 -114.5t36.5 -331.5l-245 -1063h-195l152 659h-512l-152 -659h-194zM324 815h512l47 207q16 70 18 130t-16.5 105.5t-62.5 71t-120 25.5t-131 -25.5t-94 -71t-64.5 -105.5t-41.5 -130zM461 1585q8 35 27.5 72 t49 67.5t66.5 51t78 20.5q39 0 75 -16.5t67.5 -37t59 -36.5t54.5 -16q41 0 72.5 28.5t48.5 75.5h88q-20 -82 -78.5 -142.5t-144.5 -60.5q-43 0 -76 16.5t-61.5 35t-58.5 35t-62 16.5q-20 0 -39 -10.5t-35.5 -27t-27.5 -34.5t-17 -37h-86z" />
<glyph unicode="&#xc4;" d="M-59 0l245 1063q51 221 191.5 333.5t361.5 112.5q223 0 311.5 -114.5t36.5 -331.5l-245 -1063h-195l152 659h-512l-152 -659h-194zM324 815h512l47 207q16 70 18 130t-16.5 105.5t-62.5 71t-120 25.5t-131 -25.5t-94 -71t-64.5 -105.5t-41.5 -130zM461 1677q0 49 39 80 t86 31t85 -31t38 -80q0 -51 -38 -80.5t-85 -29.5t-86 29.5t-39 80.5zM862 1677q0 49 38 80t85 31t86 -31t39 -80q0 -51 -39 -80.5t-86 -29.5t-85 29.5t-38 80.5z" />
<glyph unicode="&#xc5;" d="M-59 0l245 1063q51 221 191.5 333.5t361.5 112.5q223 0 311.5 -114.5t36.5 -331.5l-245 -1063h-195l152 659h-512l-152 -659h-194zM324 815h512l47 207q16 70 18 130t-16.5 105.5t-62.5 71t-120 25.5t-131 -25.5t-94 -71t-64.5 -105.5t-41.5 -130zM590 1722q0 39 16.5 76 t43 63.5t62.5 43t76 16.5q39 0 76 -16.5t63.5 -43t43 -63.5t16.5 -76q0 -41 -15.5 -76.5t-43 -63.5t-63.5 -44t-77 -16t-76.5 15t-63 43t-43 64.5t-15.5 77.5zM662 1722q0 -53 36.5 -91t89.5 -38t90 38t37 91q0 51 -37.5 89t-89.5 38q-51 0 -88.5 -37.5t-37.5 -89.5z" />
<glyph unicode="&#xc6;" horiz-adv-x="1828" d="M-59 0l245 1063q51 221 191.5 333.5t361.5 112.5q246 0 318 -151l26 117h809l-37 -166h-712q-4 -12 -12.5 -51t-20.5 -90.5t-24.5 -109t-23.5 -108.5t-20.5 -88t-11.5 -47h651l-36 -156h-652l-112 -493h725l-39 -166h-920l152 659h-512l-152 -659h-194zM324 815h512 l47 207q16 70 18 130t-16.5 105.5t-62.5 71t-120 25.5t-131 -25.5t-94 -71t-64.5 -105.5t-41.5 -130z" />
<glyph unicode="&#xc7;" horiz-adv-x="1482" d="M52.5 442.5q-13.5 135.5 21.5 286.5q37 162 116.5 303.5t194.5 247.5t261.5 167.5t316.5 61.5q115 0 215 -34.5t170.5 -100t104.5 -161t15 -218.5h-190q10 82 -15.5 146.5t-76.5 110.5t-121 71t-145 25q-129 0 -237 -53.5t-190.5 -140.5t-140 -197.5t-84.5 -227.5 q-25 -111 -19.5 -219.5t47.5 -193.5t122 -137t205 -52q102 0 189 34t156.5 94t123 141t88.5 177h190q-41 -129 -112.5 -237.5t-169 -188t-214 -127t-247.5 -53.5l-82 -90q16 4 35.5 9t44.5 5q33 0 62.5 -8t50 -24.5t28.5 -43t0 -63.5q-12 -49 -39 -80.5t-63.5 -50t-78.5 -26 t-83 -7.5q-66 0 -112 13.5t-89 29.5l41 60q35 -12 72 -24.5t80 -12.5q49 0 99 20.5t62 75.5q4 20 -3 34.5t-20.5 25t-30.5 15.5t-32 5q-55 0 -104 -25l-31 31l121 129q-156 6 -263.5 69.5t-166.5 168t-72.5 240z" />
<glyph unicode="&#xc8;" d="M-59 0l340 1475h905l-37 -166h-713l-112 -494h651l-37 -156h-651l-113 -493h725l-39 -166h-919zM586 1866h196l168 -299h-125z" />
<glyph unicode="&#xc9;" horiz-adv-x="1173" d="M-59 0l340 1475h905l-37 -166h-713l-112 -494h651l-37 -156h-651l-113 -493h725l-39 -166h-919zM610 1567l314 299h198l-389 -299h-123z" />
<glyph unicode="&#xca;" d="M-59 0l340 1475h905l-37 -166h-713l-112 -494h651l-37 -156h-651l-113 -493h725l-39 -166h-919zM449 1573l305 293h145l172 -293h-139l-125 215l-221 -215h-137z" />
<glyph unicode="&#xcb;" d="M-59 0l340 1475h905l-37 -166h-713l-112 -494h651l-37 -156h-651l-113 -493h725l-39 -166h-919zM455 1677q0 49 38.5 80t86.5 31q47 0 84.5 -31t37.5 -80q0 -51 -37.5 -80.5t-84.5 -29.5t-86 29.5t-39 80.5zM856 1677q0 49 38 80t85 31t86 -31t39 -80q0 -51 -39 -80.5 t-86 -29.5t-85 29.5t-38 80.5z" />
<glyph unicode="&#xcc;" horiz-adv-x="415" d="M-59 0l340 1475h194l-340 -1475h-194zM238 1866h196l168 -299h-125z" />
<glyph unicode="&#xcd;" horiz-adv-x="415" d="M-59 0l340 1475h194l-340 -1475h-194zM182 1567l316 299h196l-387 -299h-125z" />
<glyph unicode="&#xce;" horiz-adv-x="415" d="M-59 0l340 1475h194l-340 -1475h-194zM92 1573l305 293h146l172 -293h-140l-124 215l-220 -215h-139z" />
<glyph unicode="&#xcf;" horiz-adv-x="415" d="M-59 0l340 1475h194l-340 -1475h-194zM106 1677q0 49 39 80t86 31t85 -31t38 -80q0 -51 -37.5 -80.5t-85.5 -29.5q-47 0 -86 29.5t-39 80.5zM508 1677q0 49 38 80t85 31t86 -31t39 -80q0 -51 -39 -80.5t-86 -29.5t-85 29.5t-38 80.5z" />
<glyph unicode="&#xd0;" horiz-adv-x="1187" d="M-59 0l161 700h-122l28 121h121l152 654h364q166 0 273.5 -57.5t162 -157t60.5 -234.5t-29 -289q-39 -168 -116.5 -304t-190.5 -232.5t-256 -148.5t-316 -52h-292zM174 166h94q129 0 236.5 44t189.5 121t138.5 182t85.5 228v-2q29 125 23.5 229.5t-49.5 180.5t-129 118 t-216 42h-111l-112 -488h323l-26 -119h-324z" />
<glyph unicode="&#xd1;" d="M-59 0l245 1063q51 221 191.5 333.5t361.5 112.5q223 0 311.5 -114.5t36.5 -331.5l-245 -1063h-195l236 1022q16 70 18 130t-16.5 105.5t-62.5 71t-120 25.5t-131 -25.5t-94 -71t-64.5 -105.5t-41.5 -130l-236 -1022h-194zM481 1585q8 35 27.5 72t49.5 67.5t67 51 t77 20.5q39 0 74 -16.5t66.5 -37t59.5 -36.5t54 -16q43 0 75 28.5t46 75.5h90q-23 -82 -80 -142.5t-145 -60.5q-43 0 -75.5 16.5t-61.5 35t-58.5 35t-62.5 16.5q-39 0 -72.5 -37t-44.5 -72h-86z" />
<glyph unicode="&#xd2;" horiz-adv-x="1550" d="M53.5 439.5q-14.5 140.5 22.5 297.5q37 158 115.5 298.5t192.5 245.5t258 166.5t310 61.5q168 0 284 -61.5t181.5 -166.5t80 -245.5t-22.5 -298.5t-116 -298t-192.5 -245.5t-258 -167t-312.5 -61.5q-166 0 -281.5 61.5t-181 167t-80 246zM248.5 510.5 q5.5 -109.5 47.5 -195.5t126 -137t213 -51t235.5 51t188.5 137t138 195.5t83 226.5t21.5 226.5t-47.5 195.5t-126 137.5t-213 51.5t-235.5 -51.5t-188 -137.5t-138 -195.5t-83.5 -226.5t-21.5 -226.5zM739 1866h197l168 -299h-125z" />
<glyph unicode="&#xd3;" horiz-adv-x="1550" d="M53.5 439.5q-14.5 140.5 22.5 297.5q37 158 115.5 298.5t192.5 245.5t258 166.5t310 61.5q168 0 284 -61.5t181.5 -166.5t80 -245.5t-22.5 -298.5t-116 -298t-192.5 -245.5t-258 -167t-312.5 -61.5q-166 0 -281.5 61.5t-181 167t-80 246zM248.5 510.5 q5.5 -109.5 47.5 -195.5t126 -137t213 -51t235.5 51t188.5 137t138 195.5t83 226.5t21.5 226.5t-47.5 195.5t-126 137.5t-213 51.5t-235.5 -51.5t-188 -137.5t-138 -195.5t-83.5 -226.5t-21.5 -226.5zM778 1567l316 299h196l-387 -299h-125z" />
<glyph unicode="&#xd4;" horiz-adv-x="1550" d="M53.5 439.5q-14.5 140.5 22.5 297.5q37 158 115.5 298.5t192.5 245.5t258 166.5t310 61.5q168 0 284 -61.5t181.5 -166.5t80 -245.5t-22.5 -298.5t-116 -298t-192.5 -245.5t-258 -167t-312.5 -61.5q-166 0 -281.5 61.5t-181 167t-80 246zM248.5 510.5 q5.5 -109.5 47.5 -195.5t126 -137t213 -51t235.5 51t188.5 137t138 195.5t83 226.5t21.5 226.5t-47.5 195.5t-126 137.5t-213 51.5t-235.5 -51.5t-188 -137.5t-138 -195.5t-83.5 -226.5t-21.5 -226.5zM649 1573l305 293h146l172 -293h-137l-127 215l-220 -215h-139z" />
<glyph unicode="&#xd5;" horiz-adv-x="1550" d="M53.5 439.5q-14.5 140.5 22.5 297.5q37 158 115.5 298.5t192.5 245.5t258 166.5t310 61.5q168 0 284 -61.5t181.5 -166.5t80 -245.5t-22.5 -298.5t-116 -298t-192.5 -245.5t-258 -167t-312.5 -61.5q-166 0 -281.5 61.5t-181 167t-80 246zM248.5 510.5 q5.5 -109.5 47.5 -195.5t126 -137t213 -51t235.5 51t188.5 137t138 195.5t83 226.5t21.5 226.5t-47.5 195.5t-126 137.5t-213 51.5t-235.5 -51.5t-188 -137.5t-138 -195.5t-83.5 -226.5t-21.5 -226.5zM672 1585q8 35 27.5 72t49 67.5t66.5 51t78 20.5q39 0 75 -16.5 t67.5 -37t59 -36.5t54.5 -16q41 0 73.5 28.5t47.5 75.5h88q-20 -82 -78.5 -142.5t-144.5 -60.5q-43 0 -76 16.5t-61.5 35t-58.5 35t-62 16.5q-20 0 -39 -10.5t-35.5 -27t-27.5 -34.5t-17 -37h-86z" />
<glyph unicode="&#xd6;" horiz-adv-x="1550" d="M53.5 439.5q-14.5 140.5 22.5 297.5q37 158 115.5 298.5t192.5 245.5t258 166.5t310 61.5q168 0 284 -61.5t181.5 -166.5t80 -245.5t-22.5 -298.5t-116 -298t-192.5 -245.5t-258 -167t-312.5 -61.5q-166 0 -281.5 61.5t-181 167t-80 246zM248.5 510.5 q5.5 -109.5 47.5 -195.5t126 -137t213 -51t235.5 51t188.5 137t138 195.5t83 226.5t21.5 226.5t-47.5 195.5t-126 137.5t-213 51.5t-235.5 -51.5t-188 -137.5t-138 -195.5t-83.5 -226.5t-21.5 -226.5zM657 1677q0 49 38 80t85 31t86 -31t39 -80q0 -51 -39 -80.5t-86 -29.5 t-85 29.5t-38 80.5zM1059 1677q0 49 38 80t85 31t85 -31t38 -80q0 -51 -38 -80.5t-85 -29.5t-85 29.5t-38 80.5z" />
<glyph unicode="&#xd7;" horiz-adv-x="905" d="M0 387l352 350l-352 353l100 100l351 -354l352 354l102 -100l-354 -353l354 -350l-102 -102l-352 354l-351 -354z" />
<glyph unicode="&#xd8;" horiz-adv-x="1550" d="M-74 25l199 176q-59 104 -72.5 239t21.5 291q37 160 116.5 300t193.5 243.5t257 163t309 59.5q150 0 258.5 -49t175.5 -137l177 153l43 -45l-181 -159q59 -102 72 -237.5t-22 -291.5q-37 -160 -117 -300t-193.5 -243.5t-257 -163t-309.5 -59.5q-150 0 -257.5 49 t-174.5 138l-195 -175zM245.5 516q6.5 -98 41.5 -172l948 836q-51 78 -133 116.5t-189 38.5q-109 0 -210 -40t-187 -117.5t-150.5 -190.5t-97.5 -256q-29 -117 -22.5 -215zM313 283q49 -78 131 -117t191 -39t210 40t186 117.5t148.5 189.5t98.5 257q29 117 22.5 213 t-40.5 170z" />
<glyph unicode="&#xd9;" d="M35 412l246 1063h194l-235 -1022q-16 -70 -18.5 -130.5t16 -105.5t62.5 -70.5t120 -25.5t131 25.5t94 70.5t64.5 105.5t42.5 130.5l235 1022h195l-246 -1063q-51 -221 -191.5 -334t-361.5 -113q-223 0 -311 115t-37 332zM600 1866h197l168 -299h-123z" />
<glyph unicode="&#xda;" d="M35 412l246 1063h194l-235 -1022q-16 -70 -18.5 -130.5t16 -105.5t62.5 -70.5t120 -25.5t131 25.5t94 70.5t64.5 105.5t42.5 130.5l235 1022h195l-246 -1063q-51 -221 -191.5 -334t-361.5 -113q-223 0 -311 115t-37 332zM553 1567l315 299h197l-387 -299h-125z" />
<glyph unicode="&#xdb;" d="M35 412l246 1063h194l-235 -1022q-16 -70 -18.5 -130.5t16 -105.5t62.5 -70.5t120 -25.5t131 25.5t94 70.5t64.5 105.5t42.5 130.5l235 1022h195l-246 -1063q-51 -221 -191.5 -334t-361.5 -113q-223 0 -311 115t-37 332zM438 1573l305 293h146l172 -293h-137l-127 215 l-219 -215h-140z" />
<glyph unicode="&#xdc;" d="M35 412l246 1063h194l-235 -1022q-16 -70 -18.5 -130.5t16 -105.5t62.5 -70.5t120 -25.5t131 25.5t94 70.5t64.5 105.5t42.5 130.5l235 1022h195l-246 -1063q-51 -221 -191.5 -334t-361.5 -113q-223 0 -311 115t-37 332zM463 1677q0 49 38 80t85 31t86 -31t39 -80 q0 -51 -39 -80.5t-86 -29.5t-85 29.5t-38 80.5zM864 1677q0 49 38 80t85 31t85 -31t38 -80q0 -51 -38 -80.5t-85 -29.5t-85 29.5t-38 80.5z" />
<glyph unicode="&#xdd;" d="M197 1106l84 369h194l-76 -328q-16 -72 -18 -132.5t16.5 -104.5t62.5 -69.5t120 -25.5t131 25.5t94 70.5t64.5 105.5t41.5 130.5l76 328h195l-84 -369q-43 -193 -159 -303.5t-296 -132.5l-156 -670h-194l156 670q-172 23 -233.5 133t-18.5 303zM602 1593l316 299h196 l-387 -299h-125z" />
<glyph unicode="&#xde;" horiz-adv-x="1126" d="M-59 0l340 1475h194l-51 -224h266q121 0 203 -33.5t128 -93t56 -138.5t-10 -171q-25 -111 -82 -193.5t-137 -139t-179.5 -84t-209.5 -27.5h-238l-86 -371h-194zM256 526h217q70 0 136.5 16.5t120.5 50.5t94.5 88t56.5 128q35 145 -38 210.5t-231 65.5h-227z" />
<glyph unicode="&#xdf;" horiz-adv-x="1126" d="M-260 -283q29 0 55.5 5.5t48 21.5t38 46t28.5 81l278 1206q23 100 71 179t116.5 134.5t154.5 84t185 28.5q82 0 154.5 -23.5t122.5 -68.5t71.5 -113.5t1.5 -156.5q-29 -119 -103.5 -203t-197.5 -119q76 -8 125 -41t75.5 -84t29.5 -116.5t-13 -139.5 q-51 -223 -203.5 -332.5t-369.5 -109.5h-48.5t-48.5 4l33 143q31 -6 64 -6q154 0 258 79t141 239q20 92 6 150.5t-56 92t-107.5 46t-143.5 12.5h-21l27 110h16q61 0 120 12.5t108 42t85 78t52 119.5q12 57 2 101.5t-38 75t-72 46t-99 15.5q-127 0 -208 -72t-109 -197 l-293 -1271q-18 -76 -49 -123t-71 -74t-86 -36t-93 -9z" />
<glyph unicode="&#xe0;" horiz-adv-x="1226" d="M11.5 303q-13.5 98 13.5 211q27 119 86 222.5t143 180t191.5 120.5t232.5 44q104 0 184 -40t121 -113l29 129h178l-178 -774q-10 -47 -7 -75t18 -43t38.5 -20.5t52.5 -5.5l-102 -143q-104 0 -144.5 44t-40.5 120q-86 -92 -189 -138.5t-230 -46.5q-117 0 -201 42t-133 115 t-62.5 171zM188 354.5q5 -73.5 37.5 -128t93 -85t150.5 -30.5q61 0 122.5 18t116 54t93.5 86t55 114l76 322q6 57 -12.5 102t-54.5 75.5t-84 47t-103 16.5q-98 0 -177 -33.5t-138.5 -92t-99.5 -137.5t-60 -169q-20 -86 -15 -159.5zM522 1458h199l168 -297l-125 -2z" />
<glyph unicode="&#xe1;" horiz-adv-x="1226" d="M11.5 303q-13.5 98 13.5 211q27 119 86 222.5t143 180t191.5 120.5t232.5 44q104 0 184 -40t121 -113l29 129h178l-178 -774q-10 -47 -7 -75t18 -43t38.5 -20.5t52.5 -5.5l-102 -143q-104 0 -144.5 44t-40.5 120q-86 -92 -189 -138.5t-230 -46.5q-117 0 -201 42t-133 115 t-62.5 171zM188 354.5q5 -73.5 37.5 -128t93 -85t150.5 -30.5q61 0 122.5 18t116 54t93.5 86t55 114l76 322q6 57 -12.5 102t-54.5 75.5t-84 47t-103 16.5q-98 0 -177 -33.5t-138.5 -92t-99.5 -137.5t-60 -169q-20 -86 -15 -159.5zM492 1159l313 299h199l-390 -299h-122z " />
<glyph unicode="&#xe2;" horiz-adv-x="1226" d="M11.5 303q-13.5 98 13.5 211q27 119 86 222.5t143 180t191.5 120.5t232.5 44q104 0 184 -40t121 -113l29 129h178l-178 -774q-10 -47 -7 -75t18 -43t38.5 -20.5t52.5 -5.5l-102 -143q-104 0 -144.5 44t-40.5 120q-86 -92 -189 -138.5t-230 -46.5q-117 0 -201 42t-133 115 t-62.5 171zM188 354.5q5 -73.5 37.5 -128t93 -85t150.5 -30.5q61 0 122.5 18t116 54t93.5 86t55 114l76 322q6 57 -12.5 102t-54.5 75.5t-84 47t-103 16.5q-98 0 -177 -33.5t-138.5 -92t-99.5 -137.5t-60 -169q-20 -86 -15 -159.5zM385 1167l305 291h146l172 -291h-138 l-127 215l-219 -215h-139z" />
<glyph unicode="&#xe3;" horiz-adv-x="1226" d="M11.5 303q-13.5 98 13.5 211q27 119 86 222.5t143 180t191.5 120.5t232.5 44q104 0 184 -40t121 -113l29 129h178l-178 -774q-10 -47 -7 -75t18 -43t38.5 -20.5t52.5 -5.5l-102 -143q-104 0 -144.5 44t-40.5 120q-86 -92 -189 -138.5t-230 -46.5q-117 0 -201 42t-133 115 t-62.5 171zM188 354.5q5 -73.5 37.5 -128t93 -85t150.5 -30.5q61 0 122.5 18t116 54t93.5 86t55 114l76 322q6 57 -12.5 102t-54.5 75.5t-84 47t-103 16.5q-98 0 -177 -33.5t-138.5 -92t-99.5 -137.5t-60 -169q-20 -86 -15 -159.5zM424 1180q8 35 27.5 71.5t49 67.5 t66.5 51.5t78 20.5q39 0 75 -16.5t66.5 -37t59 -37t53.5 -16.5q43 0 75 28.5t48 76.5h88q-20 -82 -78.5 -142.5t-146.5 -60.5q-43 0 -76 16.5t-61.5 34.5t-58.5 34.5t-62 16.5q-18 0 -38 -10t-35 -26.5t-26.5 -35t-17.5 -36.5h-86z" />
<glyph unicode="&#xe4;" horiz-adv-x="1226" d="M11.5 303q-13.5 98 13.5 211q27 119 86 222.5t143 180t191.5 120.5t232.5 44q104 0 184 -40t121 -113l29 129h178l-178 -774q-10 -47 -7 -75t18 -43t38.5 -20.5t52.5 -5.5l-102 -143q-104 0 -144.5 44t-40.5 120q-86 -92 -189 -138.5t-230 -46.5q-117 0 -201 42t-133 115 t-62.5 171zM188 354.5q5 -73.5 37.5 -128t93 -85t150.5 -30.5q61 0 122.5 18t116 54t93.5 86t55 114l76 322q6 57 -12.5 102t-54.5 75.5t-84 47t-103 16.5q-98 0 -177 -33.5t-138.5 -92t-99.5 -137.5t-60 -169q-20 -86 -15 -159.5zM436 1272q0 49 39 79.5t86 30.5t85 -30.5 t38 -79.5q0 -51 -38 -81t-85 -30t-86 30t-39 81zM838 1272q0 49 37.5 79.5t85.5 30.5q47 0 85.5 -30.5t38.5 -79.5q0 -51 -38.5 -81t-85.5 -30t-85 30t-38 81z" />
<glyph unicode="&#xe5;" horiz-adv-x="1226" d="M11.5 303q-13.5 98 13.5 211q27 119 86 222.5t143 180t191.5 120.5t232.5 44q104 0 184 -40t121 -113l29 129h178l-178 -774q-10 -47 -7 -75t18 -43t38.5 -20.5t52.5 -5.5l-102 -143q-104 0 -144.5 44t-40.5 120q-86 -92 -189 -138.5t-230 -46.5q-117 0 -201 42t-133 115 t-62.5 171zM188 354.5q5 -73.5 37.5 -128t93 -85t150.5 -30.5q61 0 122.5 18t116 54t93.5 86t55 114l76 322q6 57 -12.5 102t-54.5 75.5t-84 47t-103 16.5q-98 0 -177 -33.5t-138.5 -92t-99.5 -137.5t-60 -169q-20 -86 -15 -159.5zM551 1374q0 39 16.5 76t44 63.5t63.5 43 t77 16.5q39 0 75.5 -16.5t63.5 -43t43 -63.5t16 -76q0 -41 -15 -76.5t-43 -63.5t-63.5 -44t-76.5 -16t-77 15t-63.5 43t-44 64.5t-16.5 77.5zM623 1374q0 -53 37.5 -91t91.5 -38q51 0 89 38t38 91q0 51 -38 89t-89 38q-53 0 -91 -38t-38 -89z" />
<glyph unicode="&#xe6;" horiz-adv-x="1992" d="M11.5 301q-13.5 98 13.5 213q27 119 86 222.5t144 180t192.5 120.5t230.5 44q104 0 184 -38.5t121 -114.5l29 129h139l-45 -197q78 98 186.5 159.5t247.5 61.5q88 0 161 -24.5t124 -72.5t74.5 -117.5t11.5 -159.5l-860 -291q-6 -63 5 -118.5t41.5 -97.5t82 -65.5 t125.5 -23.5q123 0 222 74.5t138 197.5h170q-33 -96 -90 -172t-131 -128t-162 -80t-182 -28q-129 0 -208 57.5t-112 149.5l-43 -182h-139l33 145q-74 -82 -175.5 -126t-217.5 -44q-115 0 -200 41t-134 114t-62.5 171zM190 354.5q5 -73.5 36.5 -128t92 -85t150.5 -30.5 q61 0 122.5 18t116 54t93.5 86t55 114l76 322q12 51 -7.5 96t-57.5 76.5t-88 50t-101 18.5q-104 0 -184 -37t-138.5 -97t-96.5 -138t-56 -160q-18 -86 -13 -159.5zM1071 528l666 224q-4 92 -63.5 143t-160.5 51q-88 0 -159.5 -31.5t-127 -85t-92 -124t-57.5 -148.5 q-2 -6 -3 -14t-3 -15z" />
<glyph unicode="&#xe7;" horiz-adv-x="1130" d="M10 310.5q-10 95.5 15 203.5q27 119 86 222.5t143 180t191.5 120.5t232.5 44q88 0 160.5 -24.5t123 -72.5t74 -117.5t11.5 -161.5h-170q10 115 -51.5 178t-176.5 63q-94 0 -168.5 -36t-130 -96t-92.5 -138t-55 -162q-18 -78 -16.5 -150.5t29.5 -129t83 -90t143 -33.5 q123 0 222.5 74.5t138.5 197.5h170q-63 -186 -206.5 -291.5t-324.5 -116.5l-90 -98l36 9t44 5q33 0 62.5 -8t50 -24.5t29 -43t-0.5 -63.5q-12 -49 -38.5 -80.5t-63.5 -50t-79 -26t-83 -7.5q-66 0 -111.5 13.5t-88.5 29.5l41 60q35 -12 71.5 -24.5t79.5 -12.5q49 0 99.5 20.5 t62.5 75.5q4 20 -3 34.5t-20.5 25t-31 15.5t-31.5 5q-55 0 -105 -25l-30 31l129 139q-109 6 -185.5 51.5t-121 117t-54.5 167z" />
<glyph unicode="&#xe8;" horiz-adv-x="1087" d="M11.5 303q-13.5 98 13.5 211q27 119 86 222.5t143 180t191.5 120.5t232.5 44q88 0 160.5 -24.5t123 -72.5t74 -117.5t11.5 -159.5l-861 -291q-6 -63 6.5 -118.5t43 -97.5t82 -65.5t124.5 -23.5q123 0 222.5 74.5t138.5 197.5h170q-33 -96 -90.5 -172t-131 -128 t-161.5 -80t-182 -28q-117 0 -201 42t-133 115t-62.5 171zM209 528l665 224q-4 92 -64 143t-161 51q-88 0 -159.5 -31.5t-126 -85t-91 -124t-57.5 -148.5q-2 -8 -3 -14t-3 -15zM526 1458h197l168 -297l-125 -2z" />
<glyph unicode="&#xe9;" horiz-adv-x="1087" d="M11.5 303q-13.5 98 13.5 211q27 119 86 222.5t143 180t191.5 120.5t232.5 44q88 0 160.5 -24.5t123 -72.5t74 -117.5t11.5 -159.5l-861 -291q-6 -63 6.5 -118.5t43 -97.5t82 -65.5t124.5 -23.5q123 0 222.5 74.5t138.5 197.5h170q-33 -96 -90.5 -172t-131 -128 t-161.5 -80t-182 -28q-117 0 -201 42t-133 115t-62.5 171zM209 528l665 224q-4 92 -64 143t-161 51q-88 0 -159.5 -31.5t-126 -85t-91 -124t-57.5 -148.5q-2 -8 -3 -14t-3 -15zM471 1159l315 299h197l-387 -299h-125z" />
<glyph unicode="&#xea;" horiz-adv-x="1087" d="M11.5 303q-13.5 98 13.5 211q27 119 86 222.5t143 180t191.5 120.5t232.5 44q88 0 160.5 -24.5t123 -72.5t74 -117.5t11.5 -159.5l-861 -291q-6 -63 6.5 -118.5t43 -97.5t82 -65.5t124.5 -23.5q123 0 222.5 74.5t138.5 197.5h170q-33 -96 -90.5 -172t-131 -128 t-161.5 -80t-182 -28q-117 0 -201 42t-133 115t-62.5 171zM209 528l665 224q-4 92 -64 143t-161 51q-88 0 -159.5 -31.5t-126 -85t-91 -124t-57.5 -148.5q-2 -8 -3 -14t-3 -15zM389 1167l305 291h146l172 -291h-140l-124 215l-222 -215h-137z" />
<glyph unicode="&#xeb;" horiz-adv-x="1087" d="M11.5 303q-13.5 98 13.5 211q27 119 86 222.5t143 180t191.5 120.5t232.5 44q88 0 160.5 -24.5t123 -72.5t74 -117.5t11.5 -159.5l-861 -291q-6 -63 6.5 -118.5t43 -97.5t82 -65.5t124.5 -23.5q123 0 222.5 74.5t138.5 197.5h170q-33 -96 -90.5 -172t-131 -128 t-161.5 -80t-182 -28q-117 0 -201 42t-133 115t-62.5 171zM209 528l665 224q-4 92 -64 143t-161 51q-88 0 -159.5 -31.5t-126 -85t-91 -124t-57.5 -148.5q-2 -8 -3 -14t-3 -15zM403 1272q0 49 39 79.5t86 30.5t85 -30.5t38 -79.5q0 -51 -38 -81t-85 -30t-86 30t-39 81z M805 1272q0 49 38 79.5t85 30.5t86 -30.5t39 -79.5q0 -51 -39 -81t-86 -30t-85 30t-38 81z" />
<glyph unicode="&#xec;" horiz-adv-x="399" d="M-13.5 115q-9.5 47 9.5 123l121 524q12 51 9 81.5t-17.5 47t-38 22t-54.5 5.5l103 143q47 0 89 -9.5t69.5 -36t38 -73.5t-8.5 -123l-121 -524q-12 -51 -9 -82t17.5 -47t38 -21.5t52.5 -5.5l-103 -143q-47 0 -89 9t-69.5 36t-37 74zM152 1458h196l168 -297l-125 -2z" />
<glyph unicode="&#xed;" horiz-adv-x="399" d="M-13.5 115q-9.5 47 9.5 123l121 524q12 51 9 81.5t-17.5 47t-38 22t-54.5 5.5l103 143q47 0 89 -9.5t69.5 -36t38 -73.5t-8.5 -123l-121 -524q-12 -51 -9 -82t17.5 -47t38 -21.5t52.5 -5.5l-103 -143q-47 0 -89 9t-69.5 36t-37 74zM88 1159l315 299h197l-387 -299h-125z " />
<glyph unicode="&#xee;" horiz-adv-x="399" d="M-13.5 115q-9.5 47 9.5 123l121 524q12 51 9 81.5t-17.5 47t-38 22t-54.5 5.5l103 143q47 0 89 -9.5t69.5 -36t38 -73.5t-8.5 -123l-121 -524q-12 -51 -9 -82t17.5 -47t38 -21.5t52.5 -5.5l-103 -143q-47 0 -89 9t-69.5 36t-37 74zM-6 1167l303 291h145l172 -291h-137 l-127 215l-219 -215h-137z" />
<glyph unicode="&#xef;" horiz-adv-x="399" d="M-13.5 115q-9.5 47 9.5 123l121 524q12 51 9 81.5t-17.5 47t-38 22t-54.5 5.5l103 143q47 0 89 -9.5t69.5 -36t38 -73.5t-8.5 -123l-121 -524q-12 -51 -9 -82t17.5 -47t38 -21.5t52.5 -5.5l-103 -143q-47 0 -89 9t-69.5 36t-37 74zM8 1272q0 49 38 79.5t85 30.5t86 -30.5 t39 -79.5q0 -51 -39 -81t-86 -30t-85 30t-38 81zM410 1272q0 49 37.5 79.5t84.5 30.5t85 -30.5t38 -79.5q0 -51 -37.5 -81t-85.5 -30q-47 0 -84.5 30t-37.5 81z" />
<glyph unicode="&#xf0;" horiz-adv-x="1179" d="M8 292q-12 97 15 214q25 109 80 204t133.5 165.5t178 111.5t214.5 41q78 0 148.5 -27.5t109.5 -82.5q-29 88 -84 174t-117 151l-229 -113l-56 80l211 105q-27 29 -56.5 52.5t-61.5 45.5l147 82q29 -18 70 -51t63 -55l221 108l60 -80l-211 -102q68 -78 120 -163t82.5 -180 t35 -201.5t-22.5 -225.5q-29 -119 -85 -223.5t-139 -181.5t-189.5 -121t-233.5 -44q-119 0 -205 39t-136.5 110t-62.5 168zM186.5 360.5q3.5 -71.5 32.5 -127t84 -89t141 -33.5t157 33.5t125 89t91 127t55 149.5q18 76 14.5 147.5t-33.5 127t-85 88t-139 32.5 q-86 0 -157 -32.5t-125 -87t-91 -126t-55 -149.5t-14.5 -149.5z" />
<glyph unicode="&#xf1;" horiz-adv-x="1134" d="M-59 0l176 762q12 51 9 81.5t-17.5 47t-38 22t-54.5 5.5l103 143q66 0 103.5 -17.5t57 -48t23.5 -71.5t0 -86q74 123 185.5 183t244.5 60q172 0 248 -100t37 -270l-90 -392q-23 -104 -0.5 -143t94.5 -37l-102 -143q-55 0 -97.5 11t-68 39t-32.5 74t9 118l90 387 q14 63 14.5 120.5t-21 99.5t-65.5 66.5t-114 24.5q-78 0 -140.5 -28.5t-111.5 -78t-82 -113t-49 -132.5l-133 -584h-178zM377 1180q8 35 27.5 71.5t49 67.5t66.5 51.5t78 20.5q39 0 75 -16.5t67.5 -37t59 -37t54.5 -16.5q41 0 72.5 28.5t48.5 76.5h88q-20 -82 -78.5 -142.5 t-144.5 -60.5q-43 0 -76 16.5t-61.5 34.5t-58.5 34.5t-62 16.5q-20 0 -39 -10t-35 -26.5t-27.5 -35t-17.5 -36.5h-86z" />
<glyph unicode="&#xf2;" horiz-adv-x="1179" d="M11 319.5q-9 100.5 16 208.5q25 109 80 209.5t137 177t189.5 121.5t236.5 45t214 -45t132 -121.5t55.5 -177t-16.5 -209.5t-80 -209t-137 -176.5t-188.5 -122t-235.5 -45.5t-214 45.5t-132.5 122t-56.5 177zM190 374.5q3 -75.5 30.5 -134t82.5 -94t143 -35.5 q86 0 158 35.5t126 94t91.5 134t55.5 153.5t15 153t-29.5 134t-82 95t-141.5 36q-88 0 -160.5 -36t-127 -95t-91.5 -134t-55 -153t-15 -153.5zM520 1458h199l168 -297l-125 -2z" />
<glyph unicode="&#xf3;" horiz-adv-x="1179" d="M11 319.5q-9 100.5 16 208.5q25 109 80 209.5t137 177t189.5 121.5t236.5 45t214 -45t132 -121.5t55.5 -177t-16.5 -209.5t-80 -209t-137 -176.5t-188.5 -122t-235.5 -45.5t-214 45.5t-132.5 122t-56.5 177zM190 374.5q3 -75.5 30.5 -134t82.5 -94t143 -35.5 q86 0 158 35.5t126 94t91.5 134t55.5 153.5t15 153t-29.5 134t-82 95t-141.5 36q-88 0 -160.5 -36t-127 -95t-91.5 -134t-55 -153t-15 -153.5zM500 1159l313 299h199l-389 -299h-123z" />
<glyph unicode="&#xf4;" horiz-adv-x="1179" d="M11 319.5q-9 100.5 16 208.5q25 109 80 209.5t137 177t189.5 121.5t236.5 45t214 -45t132 -121.5t55.5 -177t-16.5 -209.5t-80 -209t-137 -176.5t-188.5 -122t-235.5 -45.5t-214 45.5t-132.5 122t-56.5 177zM190 374.5q3 -75.5 30.5 -134t82.5 -94t143 -35.5 q86 0 158 35.5t126 94t91.5 134t55.5 153.5t15 153t-29.5 134t-82 95t-141.5 36q-88 0 -160.5 -36t-127 -95t-91.5 -134t-55 -153t-15 -153.5zM377 1167l303 291h145l172 -291h-137l-127 215l-219 -215h-137z" />
<glyph unicode="&#xf5;" horiz-adv-x="1179" d="M11 319.5q-9 100.5 16 208.5q25 109 80 209.5t137 177t189.5 121.5t236.5 45t214 -45t132 -121.5t55.5 -177t-16.5 -209.5t-80 -209t-137 -176.5t-188.5 -122t-235.5 -45.5t-214 45.5t-132.5 122t-56.5 177zM190 374.5q3 -75.5 30.5 -134t82.5 -94t143 -35.5 q86 0 158 35.5t126 94t91.5 134t55.5 153.5t15 153t-29.5 134t-82 95t-141.5 36q-88 0 -160.5 -36t-127 -95t-91.5 -134t-55 -153t-15 -153.5zM371 1180q8 35 27.5 71.5t49 67.5t66.5 51.5t78 20.5q39 0 74.5 -16.5t66.5 -37t59.5 -37t53.5 -16.5q43 0 74.5 28.5t48.5 76.5 h88q-20 -82 -78.5 -142.5t-147.5 -60.5q-43 0 -75.5 16.5t-61 34.5t-58.5 34.5t-63 16.5q-18 0 -37.5 -10t-35 -26.5t-26.5 -35t-17 -36.5h-86z" />
<glyph unicode="&#xf6;" horiz-adv-x="1179" d="M11 319.5q-9 100.5 16 208.5q25 109 80 209.5t137 177t189.5 121.5t236.5 45t214 -45t132 -121.5t55.5 -177t-16.5 -209.5t-80 -209t-137 -176.5t-188.5 -122t-235.5 -45.5t-214 45.5t-132.5 122t-56.5 177zM190 374.5q3 -75.5 30.5 -134t82.5 -94t143 -35.5 q86 0 158 35.5t126 94t91.5 134t55.5 153.5t15 153t-29.5 134t-82 95t-141.5 36q-88 0 -160.5 -36t-127 -95t-91.5 -134t-55 -153t-15 -153.5zM391 1272q0 49 38 79.5t85 30.5t86 -30.5t39 -79.5q0 -51 -39 -81t-86 -30t-85 30t-38 81zM793 1272q0 49 37.5 79.5t84.5 30.5 t85 -30.5t38 -79.5q0 -51 -37.5 -81t-85.5 -30q-47 0 -84.5 30t-37.5 81z" />
<glyph unicode="&#xf7;" horiz-adv-x="1216" d="M92 666v143h1032v-143h-1032zM479 307q0 55 38 93t91 38q55 0 93 -39t38 -92t-34.5 -92t-96.5 -39q-59 0 -94 39t-35 92zM479 1167q0 55 38 93t91 38q55 0 93 -39t38 -92t-34.5 -92t-96.5 -39q-59 0 -94 39t-35 92z" />
<glyph unicode="&#xf8;" horiz-adv-x="1179" d="M-82 27l148 127q-47 74 -55.5 171t16.5 203q25 109 80 209.5t137 177t189.5 121.5t236.5 45q111 0 187.5 -34.5t125.5 -96.5l119 105l37 -43l-123 -105q47 -76 55.5 -173t-16.5 -206t-80 -209t-137 -176.5t-188.5 -122t-235.5 -45.5q-111 0 -190 36t-126 98l-143 -125z M189.5 399q0.5 -63 19.5 -116l643 551q-29 51 -81 81.5t-132 30.5q-88 0 -160.5 -36t-127 -95t-91.5 -134t-55 -153q-16 -66 -15.5 -129zM229 225q27 -53 80 -83.5t137 -30.5q86 0 158 35.5t126 94t91.5 134t55.5 153.5q16 66 15 130.5t-22 117.5z" />
<glyph unicode="&#xf9;" horiz-adv-x="1134" d="M16 918l103 143q55 0 97 -11.5t67.5 -39t33 -74.5t-9.5 -117l-90 -387q-16 -66 -15 -122t22.5 -98t65.5 -66.5t116 -24.5q76 0 139 28.5t111.5 77.5t81 112.5t48.5 133.5l136 584h176l-176 -764q-12 -49 -9.5 -80t17 -47t38 -21.5t54.5 -5.5l-102 -143q-66 0 -104 17.5 t-57.5 48t-23.5 71.5t0 86q-74 -123 -185.5 -183.5t-244.5 -60.5q-170 0 -246.5 100.5t-38.5 270.5l91 391q23 104 0 143.5t-95 37.5zM481 1458h197l168 -297l-123 -2z" />
<glyph unicode="&#xfa;" horiz-adv-x="1134" d="M16 918l103 143q55 0 97 -11.5t67.5 -39t33 -74.5t-9.5 -117l-90 -387q-16 -66 -15 -122t22.5 -98t65.5 -66.5t116 -24.5q76 0 139 28.5t111.5 77.5t81 112.5t48.5 133.5l136 584h176l-176 -764q-12 -49 -9.5 -80t17 -47t38 -21.5t54.5 -5.5l-102 -143q-66 0 -104 17.5 t-57.5 48t-23.5 71.5t0 86q-74 -123 -185.5 -183.5t-244.5 -60.5q-170 0 -246.5 100.5t-38.5 270.5l91 391q23 104 0 143.5t-95 37.5zM461 1159l313 299h199l-389 -299h-123z" />
<glyph unicode="&#xfb;" horiz-adv-x="1134" d="M16 918l103 143q55 0 97 -11.5t67.5 -39t33 -74.5t-9.5 -117l-90 -387q-16 -66 -15 -122t22.5 -98t65.5 -66.5t116 -24.5q76 0 139 28.5t111.5 77.5t81 112.5t48.5 133.5l136 584h176l-176 -764q-12 -49 -9.5 -80t17 -47t38 -21.5t54.5 -5.5l-102 -143q-66 0 -104 17.5 t-57.5 48t-23.5 71.5t0 86q-74 -123 -185.5 -183.5t-244.5 -60.5q-170 0 -246.5 100.5t-38.5 270.5l91 391q23 104 0 143.5t-95 37.5zM354 1167l305 291h146l172 -291h-139l-125 215l-219 -215h-140z" />
<glyph unicode="&#xfc;" horiz-adv-x="1134" d="M16 918l103 143q55 0 97 -11.5t67.5 -39t33 -74.5t-9.5 -117l-90 -387q-16 -66 -15 -122t22.5 -98t65.5 -66.5t116 -24.5q76 0 139 28.5t111.5 77.5t81 112.5t48.5 133.5l136 584h176l-176 -764q-12 -49 -9.5 -80t17 -47t38 -21.5t54.5 -5.5l-102 -143q-66 0 -104 17.5 t-57.5 48t-23.5 71.5t0 86q-74 -123 -185.5 -183.5t-244.5 -60.5q-170 0 -246.5 100.5t-38.5 270.5l91 391q23 104 0 143.5t-95 37.5zM373 1272q0 49 39 79.5t86 30.5t85 -30.5t38 -79.5q0 -51 -38 -81t-85 -30t-86 30t-39 81zM774 1272q0 49 38 79.5t85 30.5t86 -30.5 t39 -79.5q0 -51 -39 -81t-86 -30t-85 30t-38 81z" />
<glyph unicode="&#xfd;" horiz-adv-x="1134" d="M-113 -117h176q-16 -113 51.5 -169t174.5 -56q156 0 253 91t132 239l51 217q-76 -117 -183.5 -173.5t-236.5 -56.5q-170 0 -246.5 100.5t-38.5 270.5l97 416q12 51 9 81.5t-17.5 47t-38 22t-54.5 5.5l103 143q47 0 89 -9.5t69.5 -36t38 -73.5t-8.5 -123l-94 -403 q-14 -63 -12 -117.5t25.5 -93.5t67.5 -61.5t112 -22.5q76 0 139 28.5t111.5 77.5t81 112.5t48.5 133.5l134 584h178l-244 -1059q-23 -96 -67 -179t-114.5 -144.5t-170 -96.5t-234.5 -35q-86 0 -161.5 17.5t-129 57.5t-80 104.5t-10.5 160.5zM487 1188l316 299h196l-387 -299 h-125z" />
<glyph unicode="&#xfe;" horiz-adv-x="1226" d="M-110.5 -307q-10.5 47 8.5 123l315 1364q12 51 9 81.5t-17.5 47t-38 21.5t-51.5 5l102 144q45 0 87 -9.5t69.5 -36t38 -73.5t-8.5 -123l-71 -309q76 76 174 114.5t201 38.5q125 0 212 -44t136 -120.5t60.5 -180t-15.5 -222.5q-27 -115 -86.5 -213t-142.5 -171t-186 -114 t-218 -41q-117 0 -198 44t-117 126l-64 -272q-12 -51 -9 -82t17.5 -47t39 -21.5t52.5 -5.5l-102 -143q-47 0 -89 9t-69.5 36t-38 74zM207 383q-14 -63 2 -113.5t53 -86.5t91.5 -54t113.5 -18q92 0 167 30.5t132 85t96.5 128t59.5 159.5q18 82 17 160t-31.5 138t-94 97 t-168.5 37q-51 0 -109.5 -18.5t-111.5 -50t-92 -75.5t-51 -95z" />
<glyph unicode="&#xff;" horiz-adv-x="1134" d="M-113 -117h176q-16 -113 51.5 -169t174.5 -56q156 0 253 91t132 239l51 217q-76 -117 -183.5 -173.5t-236.5 -56.5q-170 0 -246.5 100.5t-38.5 270.5l97 416q12 51 9 81.5t-17.5 47t-38 22t-54.5 5.5l103 143q47 0 89 -9.5t69.5 -36t38 -73.5t-8.5 -123l-94 -403 q-14 -63 -12 -117.5t25.5 -93.5t67.5 -61.5t112 -22.5q76 0 139 28.5t111.5 77.5t81 112.5t48.5 133.5l134 584h178l-244 -1059q-23 -96 -67 -179t-114.5 -144.5t-170 -96.5t-234.5 -35q-86 0 -161.5 17.5t-129 57.5t-80 104.5t-10.5 160.5zM383 1298q0 51 38 81t85 30 t86 -30t39 -81q0 -49 -39 -79.5t-86 -30.5t-85 30.5t-38 79.5zM782 1298q0 51 39 81t86 30t85 -30t38 -81q0 -49 -38 -79.5t-85 -30.5t-86 30.5t-39 79.5z" />
<glyph unicode="&#x152;" horiz-adv-x="2228" d="M52.5 435q-15.5 138 21.5 294q37 162 116.5 303.5t194.5 247.5t261.5 167.5t316.5 61.5q63 0 126.5 -14t118 -42t97.5 -67.5t65 -91.5l41 181h891l-39 -166h-711l-114 -494h651l-37 -156h-651l-113 -493h725l-39 -166h-903l57 256q-96 -131 -231 -211t-307 -80 q-164 0 -278.5 61.5t-179 166t-80 242.5zM248.5 509.5q5.5 -108.5 47.5 -193.5t122 -137t205 -52q102 0 189 34t156.5 94t123 141t88.5 177l98 422q10 82 -15.5 146.5t-76.5 110.5t-121 71t-145 25q-129 0 -237 -53.5t-190.5 -140.5t-140 -197.5t-84.5 -227.5 q-25 -111 -19.5 -219.5z" />
<glyph unicode="&#x153;" horiz-adv-x="1980" d="M11 319.5q-9 100.5 16 208.5q25 109 80 209.5t137 177t189.5 121.5t236.5 45q80 0 142 -21.5t107.5 -60t73 -90t39.5 -112.5q82 125 207 204.5t289 79.5q88 0 160.5 -24.5t123 -72.5t74 -117.5t10.5 -161.5l-860 -289q-6 -63 6.5 -118.5t43 -97.5t82 -66.5t124.5 -24.5 q123 0 222.5 74.5t138.5 197.5h170q-33 -96 -90.5 -172t-131 -128t-161.5 -80t-183 -28q-156 0 -243.5 78t-110.5 199q-80 -119 -205 -197t-284 -78q-129 0 -214 45.5t-132.5 122t-56.5 177zM190 374.5q3 -75.5 30.5 -134t82.5 -94t143 -35.5q86 0 158 35.5t126 94t91.5 134 t55.5 153.5t15 153t-29.5 134t-82 95t-141.5 36q-88 0 -160.5 -36t-127 -95t-91.5 -134t-55 -153t-15 -153.5zM1059 528l663 224q-4 92 -63.5 142t-159.5 50q-88 0 -159.5 -31.5t-126 -85t-91.5 -124t-57 -148.5q-2 -6 -4 -14.5t-2 -12.5z" />
<glyph unicode="&#x178;" d="M197 1106l84 369h194l-76 -328q-16 -72 -18 -132.5t16.5 -104.5t62.5 -69.5t120 -25.5t131 25.5t94 70.5t64.5 105.5t41.5 130.5l76 328h195l-84 -369q-43 -193 -159 -303.5t-296 -132.5l-156 -670h-194l156 670q-172 23 -233.5 133t-18.5 303zM457 1677q0 49 39 80 t86 31t85 -31t38 -80q0 -51 -38 -80.5t-85 -29.5t-86 29.5t-39 80.5zM858 1677q0 49 38 80t85 31t86 -31t39 -80q0 -51 -39 -80.5t-86 -29.5t-85 29.5t-38 80.5z" />
<glyph unicode="&#x2c6;" horiz-adv-x="0" d="M377 1167l305 291h145l172 -291h-137l-127 215l-219 -215h-139z" />
<glyph unicode="&#x2dc;" horiz-adv-x="0" d="M373 1180q8 35 27.5 71.5t49 67.5t66.5 51.5t78 20.5q39 0 75 -16.5t67.5 -37t59 -37t54.5 -16.5q41 0 72.5 28.5t48.5 76.5h88q-20 -82 -78.5 -142.5t-144.5 -60.5q-43 0 -76 16.5t-62.5 34.5t-58.5 34.5t-61 16.5q-20 0 -39 -10t-35.5 -26.5t-27.5 -35t-17 -36.5h-86z " />
<glyph unicode="&#x2000;" horiz-adv-x="960" />
<glyph unicode="&#x2001;" horiz-adv-x="1921" />
<glyph unicode="&#x2002;" horiz-adv-x="960" />
<glyph unicode="&#x2003;" horiz-adv-x="1921" />
<glyph unicode="&#x2004;" horiz-adv-x="640" />
<glyph unicode="&#x2005;" horiz-adv-x="480" />
<glyph unicode="&#x2006;" horiz-adv-x="320" />
<glyph unicode="&#x2007;" horiz-adv-x="320" />
<glyph unicode="&#x2008;" horiz-adv-x="240" />
<glyph unicode="&#x2009;" horiz-adv-x="384" />
<glyph unicode="&#x200a;" horiz-adv-x="106" />
<glyph unicode="&#x2010;" horiz-adv-x="649" d="M31 473l35 152h464l-34 -152h-465z" />
<glyph unicode="&#x2011;" horiz-adv-x="649" d="M31 473l35 152h464l-34 -152h-465z" />
<glyph unicode="&#x2012;" horiz-adv-x="649" d="M31 473l35 152h464l-34 -152h-465z" />
<glyph unicode="&#x2013;" horiz-adv-x="1208" d="M31 475l35 148h1024l-35 -148h-1024z" />
<glyph unicode="&#x2014;" horiz-adv-x="2232" d="M31 475l35 148h2048l-35 -148h-2048z" />
<glyph unicode="&#x2018;" horiz-adv-x="413" d="M160 1427l139 72l174 -502l-139 -71z" />
<glyph unicode="&#x2019;" horiz-adv-x="413" d="M59 997l406 502l108 -72l-405 -501z" />
<glyph unicode="&#x201a;" horiz-adv-x="413" d="M-221 -217l405 502l109 -72l-406 -502z" />
<glyph unicode="&#x201c;" horiz-adv-x="690" d="M160 1427l139 72l174 -502l-139 -71zM436 1427l139 72l175 -502l-142 -71z" />
<glyph unicode="&#x201d;" horiz-adv-x="690" d="M59 997l406 502l108 -72l-405 -501zM336 997l405 502l109 -72l-406 -501z" />
<glyph unicode="&#x201e;" horiz-adv-x="692" d="M-221 -217l405 502l109 -72l-406 -502zM59 -217l404 502l108 -72l-405 -502z" />
<glyph unicode="&#x2022;" horiz-adv-x="653" d="M76 737q0 51 19.5 97.5t53 80t78.5 53t99 19.5q51 0 97 -19.5t81 -53t54.5 -80t19.5 -97.5q0 -53 -19.5 -98t-54.5 -80t-81 -54.5t-97 -19.5q-53 0 -98.5 19.5t-79 54.5t-53 80t-19.5 98z" />
<glyph unicode="&#x2026;" horiz-adv-x="2048" d="M72 102q10 49 56 80t93 31t77.5 -31t20.5 -80q-12 -51 -57 -81.5t-92 -30.5t-78 30.5t-20 81.5zM754 102q10 49 56 80t93 31t77.5 -31t20.5 -80q-12 -51 -57 -81.5t-92 -30.5t-78 30.5t-20 81.5zM1436 102q10 49 56 80t93 31t77.5 -31t20.5 -80q-12 -51 -57 -81.5 t-92 -30.5t-78 30.5t-20 81.5z" />
<glyph unicode="&#x202f;" horiz-adv-x="384" />
<glyph unicode="&#x2039;" horiz-adv-x="442" d="M74 659l37 156l321 277l-39 -162l-211 -193l123 -190l-39 -164z" />
<glyph unicode="&#x203a;" horiz-adv-x="442" d="M10 383l37 162l211 192l-123 191l39 164l193 -277l-35 -156z" />
<glyph unicode="&#x205f;" horiz-adv-x="480" />
<glyph unicode="&#x2122;" horiz-adv-x="1734" d="M78 1337q0 27 5 52.5t19.5 44t41 30t67.5 11.5h496v-103h-256v-708h-119v708h-92q-51 0 -64.5 -19.5t-13.5 -54.5zM727 664v581q0 123 65.5 185.5t188.5 62.5q66 0 115 -20.5t80 -63.5q31 43 80 63.5t114 20.5q123 0 188.5 -62.5t65.5 -185.5v-581h-119v559 q0 76 -27.5 125t-107.5 49q-82 0 -108.5 -49.5t-26.5 -124.5v-559h-119v559q0 76 -27.5 125t-107.5 49t-107.5 -49.5t-27.5 -124.5v-559h-119z" />
<glyph unicode="&#x25fc;" horiz-adv-x="1085" d="M0 0v1085h1085v-1085h-1085z" />
<glyph unicode="&#xfb01;" horiz-adv-x="798" d="M-260 -283q29 0 55.5 5.5t48 21.5t38 46t28.5 81l244 1055h-111l29 121h110l49 215q18 76 49 123t71 73.5t86 35.5t93 9q53 0 88 -4t70 -4l-31 -141q-14 4 -37.5 5t-52.5 1t-55.5 -4t-48 -19.5t-37.5 -44t-29 -80.5l-35 -155h398l-174 -762q-12 -51 -9 -82t17 -47 t37.5 -21.5t52.5 -5.5l-102 -143q-47 0 -89 9t-70 36t-38 74t8 123l160 688h-221l-256 -1110q-18 -76 -49 -123t-71 -74t-86 -36t-93 -9z" />
<glyph unicode="&#xfb02;" horiz-adv-x="798" d="M-260 -283q29 0 55.5 5.5t48 21.5t38 46t28.5 81l244 1055h-111l29 121h110l49 215q18 76 49 123t71 73.5t86 35.5t93 9q37 0 71 -6t67 -8q51 0 92 -2q35 -2 64.5 -3t33.5 -1l-272 -1188q-12 -51 -9 -82t17 -47t37.5 -21.5t52.5 -5.5l-102 -143q-47 0 -89 9t-70 36 t-38 74t8 123l258 1118q-16 2 -38.5 3t-45.5 1q-29 0 -55.5 -5t-48 -20.5t-37.5 -46.5t-29 -80l-35 -151h111l-31 -131h-110l-256 -1110q-18 -76 -49 -123t-71 -74t-86 -36t-93 -9z" />
</font>
</defs>
</svg>
