<?xml version="1.0" standalone="no"?>
<!DOCTYPE svg PUBLIC "-//W3C//DTD SVG 1.1//EN" "http://www.w3.org/Graphics/SVG/1.1/DTD/svg11.dtd" >
<svg xmlns="http://www.w3.org/2000/svg" xmlns:xlink="http://www.w3.org/1999/xlink" version="1.1">
<metadata></metadata>
<defs>
<font id="clementepdacextralight" horiz-adv-x="1048" >
<font-face units-per-em="2048" ascent="1638" descent="-410" />
<missing-glyph horiz-adv-x="583" />
<glyph horiz-adv-x="0" />
<glyph unicode="&#xd;" horiz-adv-x="0" />
<glyph unicode=" "  horiz-adv-x="583" />
<glyph unicode="&#x09;" horiz-adv-x="583" />
<glyph unicode="&#xa0;" horiz-adv-x="583" />
<glyph unicode="!" horiz-adv-x="307" d="M76 49q0 33 23.5 53.5t54.5 20.5t54 -20.5t23 -53.5t-23.5 -53.5t-53.5 -20.5q-31 0 -54.5 20.5t-23.5 53.5zM98 1475h111l-25 -1262h-61z" />
<glyph unicode="&#x22;" horiz-adv-x="481" d="M111 975v500h75v-500h-75zM297 975v500h74v-500h-74z" />
<glyph unicode="#" horiz-adv-x="1167" d="M0 510l10 65h322l45 324h-322l8 66h324l72 510h67l-71 -510h321l72 510h70l-72 -510h321l-8 -66h-323l-45 -324h323l-10 -65h-322l-73 -510h-68l72 510h-322l-72 -510h-69l74 510h-324zM399 575h324l45 324h-324z" />
<glyph unicode="$" horiz-adv-x="923" d="M37 569h84q0 -162 94 -239.5t262 -77.5q51 0 107.5 12t102.5 39t76 71t30 105q0 63 -29 103.5t-76 66t-110.5 41t-131.5 31.5q-72 16 -138 33.5t-118.5 48.5t-83 81t-30.5 132q0 49 20.5 97t63.5 86t110.5 62.5t161.5 26.5v187h66v-187q158 -10 254 -89t96 -247h-82 q0 145 -88 209t-225 64q-100 0 -158.5 -27t-88.5 -60.5t-38 -68.5t-8 -49q0 -72 40 -115t99 -67.5t127 -38t123 -27.5q59 -16 118.5 -34.5t105.5 -49.5t75 -78t29 -121q0 -80 -34 -137t-87.5 -93t-121 -53.5t-136.5 -19.5v-186h-66v186q-188 10 -291.5 102.5t-103.5 280.5z " />
<glyph unicode="%" horiz-adv-x="1384" d="M76 1116q0 78 20.5 143.5t61.5 113.5t99 75t136 27h758v-58l-887 -1417h-69l886 1417h-503q70 -45 104.5 -121.5t34.5 -177.5q0 -74 -20.5 -138.5t-61.5 -112.5t-101.5 -75.5t-140.5 -27.5q-82 0 -142.5 28.5t-99 78t-57 113t-18.5 132.5zM145 1116q0 -59 14.5 -112.5 t45.5 -93.5t77 -63.5t111 -23.5q63 0 111.5 23.5t80 64.5t47 93.5t15.5 111.5q0 131 -61.5 216t-192.5 85q-66 0 -113 -23.5t-76.5 -63.5t-44 -95t-14.5 -119zM670 328q0 78 20.5 143.5t60.5 113.5t99 74.5t137 26.5q80 0 139.5 -26.5t100.5 -74.5t61.5 -113.5t20.5 -143.5 v2q0 -74 -20.5 -138.5t-61.5 -112.5t-100.5 -76t-139.5 -28q-82 0 -142.5 29t-99 78t-57 112.5t-18.5 133.5zM737 328q0 -59 14.5 -112.5t45 -94.5t78 -64.5t112.5 -23.5q63 0 111.5 24.5t80 64.5t47 93.5t15.5 112.5q0 131 -60.5 215t-193.5 84q-66 0 -113 -23.5 t-77.5 -63.5t-45 -94.5t-14.5 -117.5z" />
<glyph unicode="&#x26;" horiz-adv-x="1370" d="M47 410q0 72 21.5 137t61.5 117.5t99.5 86t132.5 40.5q-68 6 -121 36.5t-89.5 77.5t-56 106.5t-19.5 123.5q0 92 39 160.5t103.5 113.5t144 67.5t163.5 22.5q113 0 204 -32.5t154.5 -94t97.5 -150.5t34 -204h-84q4 193 -105.5 299t-298.5 106q-68 0 -134 -18.5 t-118.5 -55t-85 -93t-32.5 -132.5t28.5 -132t77.5 -94t112.5 -57.5t133.5 -19.5h43v-67h-43q-80 0 -148.5 -21.5t-118.5 -64.5t-79 -106.5t-29 -147.5t35 -150.5t93.5 -114t133 -73t154.5 -25.5q102 0 188 31t147.5 88t92.5 141t22 189h-110q-55 0 -87 -12.5t-47.5 -32 t-19.5 -44t-4 -49.5l-69 27q0 39 9 73t32.5 59.5t63.5 41t101 15.5h273q55 0 87 12t47 31.5t19 44t4 49.5l70 -27q0 -39 -9 -72.5t-32.5 -59.5t-63.5 -41t-102 -15h-78q8 -125 -28.5 -222.5t-108 -165t-174 -102.5t-225.5 -35q-98 0 -188.5 30t-160 86t-111.5 136t-42 183z " />
<glyph unicode="'" horiz-adv-x="296" d="M111 975v500h75v-500h-75z" />
<glyph unicode="(" horiz-adv-x="391" d="M76 535q0 248 60.5 485t174.5 455h80q-113 -219 -172 -456t-59 -484q0 -252 58 -493t175 -464h-80q-59 119 -104 232.5t-75 230.5t-44 238.5t-14 255.5z" />
<glyph unicode=")" horiz-adv-x="391" d="M0 1475h80q59 -119 103 -233t74 -230.5t45 -238.5t15 -255q0 -248 -60 -485.5t-175 -454.5h-80q113 219 172 455.5t59 484.5q0 252 -58 492.5t-175 464.5z" />
<glyph unicode="*" horiz-adv-x="647" d="M0 1208l27 80l266 -98l-10 285h84l-13 -285l269 98l24 -80l-274 -78l178 -223l-70 -49l-157 238l-158 -238l-68 49l176 223z" />
<glyph unicode="+" horiz-adv-x="1216" d="M92 700v74h479v481h74v-481h479v-74h-479v-481h-74v481h-479z" />
<glyph unicode="," horiz-adv-x="315" d="M0 -203l250 434l65 -38l-249 -433z" />
<glyph unicode="-" horiz-adv-x="577" d="M92 510v78h393v-78h-393z" />
<glyph unicode="." horiz-adv-x="307" d="M76 49q0 33 23.5 53.5t54.5 20.5t54 -20.5t23 -53.5t-23.5 -53.5t-53.5 -20.5q-31 0 -54.5 20.5t-23.5 53.5z" />
<glyph unicode="/" horiz-adv-x="706" d="M0 0l633 1475h74l-631 -1475h-76z" />
<glyph unicode="0" horiz-adv-x="1189" d="M57 737q0 127 27 262.5t89.5 246t164.5 182t256 71.5t256 -71.5t164.5 -182t89 -246t26.5 -262.5t-26.5 -262t-89 -245.5t-164.5 -182.5t-256 -72t-256 72t-164.5 182.5t-89.5 245.5t-27 262zM143 737q0 -109 20.5 -229.5t71 -222t137.5 -168t222 -66.5t223 66.5 t138.5 168t71 222t20.5 229.5t-20.5 229.5t-71 222t-138.5 168t-223 66.5t-222 -66.5t-137.5 -168t-71 -222t-20.5 -229.5z" />
<glyph unicode="1" horiz-adv-x="1189" d="M295 1282q0 39 9 74t33.5 61.5t64.5 42t102 15.5h153v-1475h-92v1393h-39q-55 0 -87.5 -12.5t-48 -32t-19.5 -45t-4 -50.5z" />
<glyph unicode="2" horiz-adv-x="1189" d="M96 0q-2 94 39 176t106.5 152.5t148.5 132t165 117.5q74 51 144.5 107t126 118.5t89 132.5t33.5 147q0 76 -26.5 138.5t-74.5 107.5t-114.5 69.5t-144.5 24.5q-104 0 -177 -35.5t-119 -97t-66.5 -142.5t-20.5 -173h-84q0 119 29.5 215t89 164.5t147.5 106.5t203 38 q92 0 173 -27.5t141.5 -80t96 -128t35.5 -173.5q0 -86 -33.5 -163t-89 -145.5t-128 -130t-148.5 -114.5t-147.5 -107.5t-131 -111t-100.5 -117t-53 -121.5h674q55 0 86.5 12t47 31.5t19.5 44.5t4 49l70 -29q0 -80 -44 -134t-163 -54h-803z" />
<glyph unicode="3" horiz-adv-x="1189" d="M90 500h86q-8 -104 20.5 -188.5t86 -141.5t141.5 -88t186 -31q80 0 152 25.5t127 73t88 114t33 150.5t-29 147.5t-79 106.5t-117.5 64.5t-147.5 21.5h-45v67h45q70 0 133.5 19.5t111.5 57.5t76.5 94.5t28.5 131.5q0 76 -31.5 132.5t-84 93t-119 55t-134.5 18.5 q-94 0 -169.5 -27.5t-129 -79.5t-81 -128t-25.5 -170h-84q0 229 132 355t360 126q82 0 162.5 -22.5t145 -67.5t103.5 -113.5t39 -160.5q0 -63 -19.5 -123t-56.5 -107t-90 -77.5t-121 -36.5q74 -6 133.5 -40t99.5 -86.5t61.5 -117.5t21.5 -137q0 -100 -41 -181.5 t-108.5 -137.5t-155.5 -86t-183 -30q-119 0 -218 36t-169.5 103.5t-106.5 165t-28 220.5z" />
<glyph unicode="4" horiz-adv-x="1189" d="M68 430v92l692 953h94v-965h55q55 0 87 12.5t47.5 31.5t19.5 44t4 49l70 -26q0 -39 -9.5 -74t-33 -60.5t-62.5 -41t-100 -15.5h-76v-430h-90v430h-698zM139 510h627v870z" />
<glyph unicode="5" horiz-adv-x="1189" d="M59 446h86q0 -195 114 -295t302 -100q94 0 170 30t129 84t83 131t30 171q0 92 -30 167t-84 129t-129 84t-167 30q-113 0 -212 -48.5t-154 -150.5h-95l166 797h674q96 0 151.5 -44.5t53.5 -144.5l-70 -29q2 82 -39 110t-118 28h-584l-133 -631q61 94 164.5 138t214.5 44 q106 0 194 -34.5t151.5 -98t98.5 -153t35 -195.5q0 -113 -37 -203t-103.5 -153.5t-158.5 -98.5t-203 -35q-109 0 -202 31t-159.5 90.5t-103.5 147.5t-35 202z" />
<glyph unicode="6" horiz-adv-x="1189" d="M80 694q0 137 26.5 279.5t91 259.5t173 191.5t274.5 74.5q74 0 145.5 -17.5t133.5 -58.5l-50 -61q-53 35 -111 49t-120 14q-147 0 -240.5 -71.5t-147.5 -181t-73.5 -240.5t-19.5 -248v-35q20 76 66 139.5t108.5 109.5t138.5 70.5t156 24.5q104 0 196.5 -40t161 -107.5 t108.5 -160t40 -196.5q0 -111 -40 -203.5t-111 -162.5t-166 -109t-204 -39q-131 0 -247.5 61.5t-186.5 168.5q-35 51 -55.5 111.5t-30.5 123t-13 128t-3 126.5zM182 487q0 -90 34 -169.5t92.5 -139t138 -93.5t169.5 -34t170 34t139.5 93.5t93.5 139t34 169.5t-34 170 t-93.5 138.5t-139 92.5t-170.5 34q-90 0 -168.5 -34t-138 -92.5t-93.5 -138t-34 -170.5z" />
<glyph unicode="7" horiz-adv-x="1189" d="M78 1286q0 39 9 73t32.5 59.5t63.5 41t102 15.5h821v-80l-498 -1395h-98l498 1395h-701q-55 0 -88 -12.5t-48 -32t-19.5 -44t-4.5 -49.5z" />
<glyph unicode="8" horiz-adv-x="1189" d="M127 424q0 76 23.5 142.5t65.5 120.5t99.5 93t126.5 58q-98 37 -156.5 120.5t-58.5 194.5q0 76 30 139.5t81 109.5t116.5 71.5t139.5 25.5t140.5 -25.5t117.5 -71.5t81 -109.5t30 -139.5q0 -109 -59.5 -195t-155.5 -120q70 -18 127 -57.5t99 -94.5t65.5 -121.5 t23.5 -140.5q0 -98 -38 -180t-102.5 -141.5t-148.5 -93.5t-178 -34q-96 0 -181 34t-148.5 93.5t-101.5 141.5t-38 180zM213 424q0 -80 30.5 -147.5t83 -119t121 -80t146.5 -28.5t147.5 28.5t121.5 80t83 119t31 147.5t-29.5 148.5t-82 118.5t-121 80t-148.5 30t-149.5 -29 t-122 -80t-82 -119.5t-29.5 -148.5zM309 1147q0 -59 22.5 -110.5t61.5 -88.5t90.5 -58.5t110.5 -21.5t111.5 21.5t91.5 58.5t61.5 88.5t22.5 110.5t-22.5 110.5t-60.5 89t-90.5 59t-111.5 21.5t-111.5 -21.5t-91.5 -59t-61.5 -89t-22.5 -110.5z" />
<glyph unicode="9" horiz-adv-x="1189" d="M76 985q0 111 40 204t110.5 162.5t165.5 108.5t204 39q133 0 247.5 -61.5t186.5 -169.5q68 -104 86.5 -233.5t18.5 -254.5q0 -137 -27 -279.5t-92.5 -259t-174 -191.5t-274.5 -75q-74 0 -145.5 17.5t-132.5 58.5l49 62q53 -35 112.5 -49.5t118.5 -14.5q147 0 240.5 72 t148 181.5t74 240.5t19.5 248v34q-20 -78 -66.5 -140t-109 -108.5t-138 -71t-155.5 -24.5q-104 0 -196.5 40t-161 107.5t-108.5 160t-40 196.5zM160 987q0 -90 33.5 -170t93 -138t139.5 -92t170 -34t170 34t138.5 92t92 138t33.5 170t-33.5 170t-92 139.5t-138.5 93 t-170 33.5t-170 -33.5t-139.5 -93t-93 -139.5t-33.5 -170z" />
<glyph unicode=":" horiz-adv-x="307" d="M76 49q0 33 23.5 53.5t54.5 20.5t54 -20.5t23 -53.5t-23.5 -53.5t-53.5 -20.5q-31 0 -54.5 20.5t-23.5 53.5zM76 1006q0 31 23.5 52t54.5 21t54 -21t23 -52q0 -33 -23.5 -53.5t-53.5 -20.5q-31 0 -54.5 20.5t-23.5 53.5z" />
<glyph unicode=";" horiz-adv-x="307" d="M0 -203l250 434l65 -38l-249 -433zM76 1006q0 31 23.5 52t54.5 21t54 -21t23 -52q0 -33 -23.5 -53.5t-53.5 -20.5q-31 0 -54.5 20.5t-23.5 53.5z" />
<glyph unicode="&#x3c;" horiz-adv-x="1224" d="M92 700v74l1041 498v-80l-949 -455l949 -454v-80z" />
<glyph unicode="=" horiz-adv-x="1216" d="M92 496v73h1032v-73h-1032zM92 905v74h1032v-74h-1032z" />
<glyph unicode="&#x3e;" horiz-adv-x="1224" d="M92 203v80l948 454l-948 455v80l1041 -498v-74z" />
<glyph unicode="?" horiz-adv-x="1032" d="M76 1006q-4 104 25.5 194t88 156.5t145.5 103.5t202 37q92 0 168.5 -24.5t132 -70.5t87 -110.5t31.5 -144.5t-22.5 -137.5t-55 -100.5t-68.5 -73.5t-62 -55.5q-55 -49 -92.5 -89t-60 -84t-31.5 -95t-9 -121v-203h-84v203q0 63 8 118.5t30.5 106t59.5 99.5t97 102 q14 12 46.5 37t66.5 64.5t60.5 95t26.5 129.5q0 66 -24.5 117t-68.5 85.5t-105.5 53t-132.5 18.5q-94 0 -165 -30.5t-117 -85t-68.5 -130t-18.5 -165.5h-90zM434 49q0 33 23.5 53.5t56.5 20.5q31 0 54.5 -20.5t23.5 -53.5t-23.5 -53.5t-54.5 -20.5q-33 0 -56.5 20.5 t-23.5 53.5z" />
<glyph unicode="@" horiz-adv-x="1605" d="M76 743q0 162 59.5 300.5t162.5 239.5t242.5 158.5t301.5 57.5q139 0 264 -43t219 -125t149.5 -199t55.5 -264q0 -131 -49 -247q-31 -72 -85.5 -142.5t-125.5 -124.5q-47 -33 -98.5 -53t-106.5 -20q-47 0 -86 26.5t-41 79.5q0 4 1 10t1 15q-51 -72 -123 -101.5 t-155 -29.5q-66 0 -120.5 24.5t-92 67.5t-59 99t-21.5 120q0 100 35.5 205.5t100 191.5t155 141.5t198.5 55.5q43 0 88 -11.5t83 -33t67.5 -55t46.5 -76.5l49 135h61l-213 -576q-12 -35 -23 -72.5t-11 -74.5q0 -80 81 -80q41 0 78 15.5t72 37.5q55 37 97 90.5t72 115t45 128 t15 131.5q0 135 -49 242.5t-134 182.5t-198.5 114t-242.5 39q-147 0 -275.5 -53.5t-223.5 -146.5t-149.5 -220t-54.5 -275q0 -158 50.5 -287.5t142.5 -223t221 -144.5t287 -51q176 0 329.5 83t257.5 224h70q-53 -84 -125 -152.5t-157 -116.5t-181 -74t-194 -26 q-170 0 -311.5 56.5t-242 158t-155.5 242.5t-55 311zM438 596q0 -51 17.5 -97t49.5 -80t76 -53.5t97 -19.5q115 0 188.5 64.5t114.5 167.5q35 86 67.5 176t67.5 178q-23 96 -95.5 141t-166.5 45q-92 0 -168 -51t-131 -128t-86 -169t-31 -174z" />
<glyph unicode="A" d="M111 0v1094q0 203 104 309t309 106t309.5 -107.5t104.5 -307.5v-1094h-92v698h-643v-698h-92zM203 776h643v273q0 88 -16.5 158.5t-53.5 119.5t-98.5 76t-153.5 27t-153.5 -27t-99.5 -76t-53 -119.5t-15 -158.5v-273z" />
<glyph unicode="B" d="M111 0v1475h395q86 0 161.5 -22.5t133 -69t90.5 -115t33 -160.5q0 -66 -21.5 -123t-60.5 -101t-93.5 -74t-117.5 -36q76 -4 139.5 -33.5t108.5 -79t69.5 -114.5t24.5 -141q0 -106 -40 -183.5t-106.5 -126.5t-154.5 -72.5t-185 -23.5h-376zM203 80h286q78 0 149 19.5 t125 59.5t86 102.5t32 148.5q0 84 -31 145t-83 101t-122 58.5t-147 18.5h-295v-653zM203 803h289q68 0 130 18.5t109 55t76 91t29 128.5q0 76 -27 132t-73 93t-109.5 55.5t-134.5 18.5h-289v-592z" />
<glyph unicode="C" horiz-adv-x="1454" d="M76 727q0 158 45 299t133 248.5t217 171t299 63.5q104 0 209.5 -33.5t191.5 -97t143.5 -153.5t63.5 -203h-90q-10 94 -59 170t-122 128t-161 79.5t-176 27.5q-147 0 -260 -58t-188.5 -156.5t-114.5 -224.5t-39 -261q0 -129 37 -252t110.5 -218t181 -152.5t248.5 -57.5 q121 0 215.5 40t162 109.5t108.5 166t57 210.5h90q-16 -133 -64 -243.5t-128 -192.5t-190.5 -127t-247.5 -45q-162 0 -287 62.5t-211 168t-130 242.5t-44 289z" />
<glyph unicode="D" horiz-adv-x="1071" d="M111 0v1475h256q166 0 284.5 -58.5t195.5 -158t112.5 -233.5t35.5 -288q0 -164 -45 -299t-133 -232t-218 -151.5t-298 -54.5h-190zM203 82h104q147 0 258 50t186.5 138t113.5 208t38 259q0 141 -31.5 261t-99 207t-175.5 137.5t-257 50.5h-137v-1311z" />
<glyph unicode="E" d="M111 0v1475h835v-82h-743v-617h686v-78h-686v-616h753v-82h-845z" />
<glyph unicode="F" d="M111 0v1475h835v-82h-743v-617h686v-78h-686v-698h-92z" />
<glyph unicode="G" horiz-adv-x="1488" d="M76 727q0 158 45 299t133 248.5t217 171t299 63.5q104 0 209.5 -33.5t191.5 -97t143.5 -153.5t63.5 -203h-90q-10 94 -59 170t-122 128t-161 79.5t-176 27.5q-147 0 -260 -58t-188.5 -156.5t-114.5 -224.5t-39 -261q0 -129 37 -252t110.5 -218t181 -152.5t248.5 -57.5 q119 0 212.5 39t160 106.5t108.5 162t58 204.5h-516v80h610v-414q0 -55 12.5 -88t32 -49t45 -20.5t50.5 -4.5l-29 -73q-66 0 -101.5 23.5t-53 68.5t-22.5 112.5t-7 157.5q-66 -174 -205 -280.5t-352 -106.5q-162 0 -287 62.5t-211 168t-130 242.5t-44 289z" />
<glyph unicode="H" horiz-adv-x="1079" d="M111 0v1475h92v-693h671v693h95v-1475h-92v702h-674v-702h-92z" />
<glyph unicode="I" horiz-adv-x="313" d="M111 0v1475h92v-1475h-92z" />
<glyph unicode="J" d="M111 381v192h86v-188q0 -340 319 -340q164 0 247 86t83 295v967h-490q-55 0 -87.5 -12.5t-48 -32t-19.5 -45t-4 -50.5l-72 29q0 39 9 74t34 61.5t64.5 42t101.5 15.5h604v-1076q0 -98 -22.5 -179t-73.5 -137t-131 -87t-193 -31q-109 0 -185.5 32t-125.5 87t-72.5 131 t-23.5 166z" />
<glyph unicode="K" horiz-adv-x="806" d="M111 0v1475h92v-660l493 660h111l-549 -738l549 -737h-111l-493 659v-659h-92z" />
<glyph unicode="L" d="M111 0v1475h92v-1393h614q55 0 88 12t48.5 31.5t19.5 45.5t4 50l72 -28q0 -39 -9.5 -74t-34 -61.5t-64.5 -42t-101 -15.5h-729z" />
<glyph unicode="M" horiz-adv-x="1783" d="M111 0v1094q0 203 104 309t309 106q287 0 369 -223q78 223 367 223q205 0 309 -106.5t104 -308.5v-1094h-92v1049q0 88 -16.5 158.5t-53 119.5t-98 76t-153.5 27t-154 -27t-99.5 -76t-53 -119.5t-15.5 -158.5v-1049h-92v1049q0 88 -16.5 158.5t-53.5 119.5t-98.5 76 t-153.5 27t-153.5 -27t-99.5 -76t-53 -119.5t-15 -158.5v-1049h-92z" />
<glyph unicode="N" d="M111 0v1094q0 203 104 309t309 106t309.5 -107.5t104.5 -307.5v-1094h-92v1049q0 88 -16.5 158.5t-53.5 119.5t-98.5 76t-153.5 27t-153.5 -27t-99.5 -76t-53 -119.5t-15 -158.5v-1049h-92z" />
<glyph unicode="O" horiz-adv-x="1515" d="M76 737q0 156 44 295t131 245.5t214 169t293 62.5t294 -62.5t214 -169t130 -245.5t44 -295t-44 -296t-130 -245.5t-214 -168t-294 -62.5t-293 62.5t-214 168t-131 246t-44 295.5zM168 737q0 -135 37 -260t110.5 -220t184 -152.5t258.5 -57.5q147 0 257.5 57.5 t184.5 152.5t111 220t37 260t-37 260t-111 220.5t-184.5 152.5t-257.5 57t-258 -57t-184.5 -152.5t-110.5 -220.5t-37 -260z" />
<glyph unicode="P" horiz-adv-x="1050" d="M111 0v1475h407q221 0 339 -108.5t118 -303.5q0 -102 -36 -179t-99.5 -129.5t-151.5 -79t-192 -26.5h-293v-649h-92zM203 729h299q80 0 150.5 21.5t121.5 63.5t81 103.5t30 143.5q0 164 -96.5 248t-282.5 84h-303v-664z" />
<glyph unicode="Q" horiz-adv-x="1515" d="M76 737q0 156 44 295t131 245.5t214 169t293 62.5t294 -62.5t214 -169t130 -245.5t44 -295q0 -135 -35 -265t-111 -239l224 -208q25 -23 53 -44.5t63 -21.5q29 0 52.5 15.5t42.5 35.5l22 -71q-27 -27 -60.5 -45.5t-70.5 -18.5q-43 0 -80 23.5t-72 56.5l-235 221 q-90 -109 -212 -160t-263 -51q-166 0 -293 62.5t-214 168t-131 246t-44 295.5zM168 737q0 -135 37 -260t110.5 -220t184 -152.5t258.5 -57.5q127 0 235.5 47t188.5 148l-197 184q-25 23 -54.5 44.5t-62.5 21.5q-29 0 -52 -15.5t-42 -36.5l-22 72q27 27 59.5 45t71.5 18 q43 0 79.5 -23.5t71.5 -55.5l197 -185q63 94 90 204.5t27 221.5q0 135 -37 260t-111 220.5t-184.5 152.5t-257.5 57t-258 -57t-184.5 -152.5t-110.5 -220.5t-37 -260z" />
<glyph unicode="R" horiz-adv-x="1050" d="M111 0v1475h413q100 0 183.5 -20.5t142.5 -67t92 -121.5t33 -181q0 -145 -81 -240t-220 -128q90 -12 144 -47t84 -87.5t40 -120t10 -149.5v-313h-90v309q0 100 -17.5 170t-60.5 114t-112.5 63.5t-173.5 19.5h-295v-676h-92zM203 752h291q74 0 144.5 18t124.5 59t87 105.5 t33 155.5v-3q-2 145 -88 226.5t-285 81.5h-307v-643z" />
<glyph unicode="S" horiz-adv-x="1189" d="M31 489h92q0 -123 41 -207.5t112.5 -138t168 -78t204.5 -24.5q78 0 151.5 18.5t130 58.5t90.5 102.5t34 150.5q0 100 -44 160.5t-114 95.5t-157 55t-173 41q-88 20 -176 44t-157.5 65.5t-113.5 108.5t-44 175q0 111 45 186.5t117.5 121.5t164 65.5t183.5 19.5 q109 0 203 -24.5t164.5 -77.5t112.5 -139t48 -211h-88q-4 104 -39 176t-93 116t-137 64.5t-171 20.5q-72 0 -145.5 -14.5t-135 -50.5t-100.5 -95.5t-39 -149.5q0 -92 43 -147t112.5 -89t157.5 -55.5t180 -44.5q98 -25 187.5 -50t156 -68t105.5 -112.5t39 -182.5 q0 -109 -42 -186.5t-112.5 -127t-161 -73t-188.5 -23.5q-117 0 -227.5 29t-196.5 91q-86 61 -138 161q-50 96 -50 232v11z" />
<glyph unicode="T" d="M0 1282q0 39 9 74t34 61.5t64.5 42t101.5 15.5h840v-82h-478v-1393h-92v1393h-248q-55 0 -87.5 -12.5t-48 -32t-19.5 -45t-4 -50.5z" />
<glyph unicode="U" d="M111 381v1094h92v-1049q0 -90 16.5 -160.5t53 -120t98 -75t153.5 -25.5t153.5 26.5t99.5 76t53.5 120t15.5 158.5v1049h92v-1094q0 -203 -104.5 -309.5t-309.5 -106.5t-309 107.5t-104 308.5z" />
<glyph unicode="V" horiz-adv-x="1142" d="M0 1475h98l473 -1319l473 1319h99l-522 -1475h-99z" />
<glyph unicode="W" horiz-adv-x="1783" d="M111 381v1094h92v-1049q0 -90 16.5 -160.5t53 -120t98 -75t153.5 -25.5t153.5 25.5t99.5 75t53.5 120t15.5 160.5v1049h92v-1049q0 -90 16.5 -160.5t53 -120t98 -75t154.5 -25.5q92 0 153.5 25.5t99 75t53 120t15.5 160.5v1049h92v-1094q0 -203 -104.5 -309.5 t-308.5 -106.5q-287 0 -369 223q-78 -223 -367 -223q-205 0 -309 106.5t-104 309.5z" />
<glyph unicode="X" horiz-adv-x="1208" d="M0 0l549 737l-549 738h111l493 -660l492 660h112l-549 -738l549 -737h-112l-492 659l-493 -659h-111z" />
<glyph unicode="Y" d="M111 1112v363h92v-318q0 -88 16.5 -158.5t53 -120t98 -76t153.5 -26.5t153.5 26.5t99.5 76t53.5 120t15.5 158.5v318h92v-363q0 -188 -93 -293.5t-274 -116.5v-702h-92v702q-184 10 -276 116t-92 294z" />
<glyph unicode="Z" horiz-adv-x="1103" d="M6 0v92l989 1301h-923v82h1034v-91l-991 -1302h774q55 0 88 12t48 31.5t19.5 45.5t4.5 50l71 -28q0 -39 -9 -74t-32.5 -61.5t-64.5 -42t-103 -15.5h-905z" />
<glyph unicode="[" horiz-adv-x="489" d="M111 -422v1897h286v-76h-204v-1745h204v-76h-286z" />
<glyph unicode="\" horiz-adv-x="706" d="M0 1475h74l633 -1475h-74z" />
<glyph unicode="]" horiz-adv-x="489" d="M94 -346h207v1745h-207v76h289v-1897h-289v76z" />
<glyph unicode="^" horiz-adv-x="985" d="M0 569l459 906h67l459 -906h-76l-417 826l-416 -826h-76z" />
<glyph unicode="_" horiz-adv-x="1024" d="M0 -154h1024v-102h-1024v102z" />
<glyph unicode="`" horiz-adv-x="0" d="M385 1454h107l249 -295h-63z" />
<glyph unicode="a" horiz-adv-x="1128" d="M76 508q0 115 30.5 218t94 182t157 125t220.5 46q111 0 206 -48t148 -140v164h86v-1055h-86v184q-53 -100 -149.5 -154.5t-225.5 -54.5q-115 0 -204 42t-150.5 115t-94 169t-32.5 207zM162 508q0 -92 25.5 -176t76.5 -147.5t127 -100.5t176 -37q72 0 137.5 21.5 t116.5 63.5t81 101.5t30 133.5v356q0 59 -31 111.5t-80 90.5t-110.5 59.5t-122.5 21.5q-119 0 -201 -44t-132 -116t-71.5 -161t-21.5 -177z" />
<glyph unicode="b" horiz-adv-x="1128" d="M111 0v1475h86v-584q53 92 148 140t206 48q125 0 219 -46t157.5 -124t94.5 -181t31 -220q0 -111 -33 -207t-94.5 -169t-151.5 -115t-203 -42q-129 0 -225 54.5t-149 154.5v-184h-86zM197 367q0 -74 29.5 -133.5t80.5 -101.5t116.5 -63.5t137.5 -21.5q100 0 176 37 t127 100.5t77 147.5t26 176q0 88 -21.5 177t-72 161t-132.5 116t-200 44q-61 0 -123 -21.5t-111 -59.5t-79.5 -89.5t-30.5 -110.5v-358z" />
<glyph unicode="c" horiz-adv-x="1073" d="M76 508q0 117 31.5 220t94 181t157 124t219.5 46q82 0 153.5 -24.5t127.5 -70.5t92 -111.5t46 -149.5h-84q-20 135 -110 209t-223 74q-111 0 -190 -41t-129 -110t-74.5 -159t-24.5 -188q0 -90 24.5 -174t74.5 -147.5t124 -101.5t172 -38q72 0 134.5 22.5t110.5 64.5 t76.5 100.5t34.5 132.5h84q-18 -184 -138 -288t-302 -104q-115 0 -204 43t-150.5 116t-94 169t-32.5 205z" />
<glyph unicode="d" horiz-adv-x="1128" d="M76 508q0 115 30.5 218t94 182t157 125t220.5 46q111 0 206 -48t148 -140v584h86v-1475h-86v184q-53 -100 -149.5 -154.5t-225.5 -54.5q-115 0 -204 42t-150.5 115t-94 169t-32.5 207zM162 508q0 -92 25.5 -176t76.5 -147.5t127 -100.5t176 -37q72 0 137.5 21.5 t116.5 63.5t81 101.5t30 133.5v356q0 59 -31 111.5t-80 90.5t-110.5 59.5t-122.5 21.5q-119 0 -201 -44t-132 -116t-71.5 -161t-21.5 -177z" />
<glyph unicode="e" horiz-adv-x="1073" d="M76 508q0 117 31.5 220t94 181t157 124t219.5 46q82 0 153.5 -24.5t127.5 -69.5t92 -111.5t46 -148.5l-829 -303q10 -78 40 -145.5t78 -119t116.5 -81t154.5 -29.5q72 0 134.5 22.5t110.5 64.5t76.5 100.5t34.5 132.5h84q-18 -184 -138 -288t-302 -104q-115 0 -204 43 t-150.5 116t-94 169t-32.5 205zM164 487l741 271q-29 117 -116 182.5t-209 65.5q-109 0 -187 -40t-128 -106.5t-75.5 -154t-25.5 -183.5v-35z" />
<glyph unicode="f" horiz-adv-x="307" d="M0 983v68h111v237q0 63 15 104.5t43 66t62.5 33.5t75.5 9q49 0 72.5 -3t46.5 -5v-74q-10 4 -34.5 5t-55.5 1q-25 0 -50.5 -4t-45 -19.5t-31.5 -48t-12 -87.5v-211h110v-72h-110v-983h-86v983h-111z" />
<glyph unicode="g" horiz-adv-x="1114" d="M76 508q0 115 30.5 218t94 182t157 125t220.5 46q111 0 206 -48t148 -140v164h86v-1080q0 -209 -111.5 -320.5t-341.5 -111.5q-82 0 -155.5 18.5t-131 58.5t-93 103.5t-40.5 153.5h86q2 -72 31 -122t73 -82.5t102.5 -48t123.5 -15.5q180 0 275.5 92t95.5 272v211 q-53 -100 -149.5 -154.5t-225.5 -54.5q-115 0 -204 42t-150.5 115t-94 169t-32.5 207zM162 508q0 -92 25.5 -176t76.5 -147.5t127 -100.5t176 -37q72 0 137.5 21.5t116.5 63.5t81 101.5t30 133.5v356q0 59 -31 111.5t-80 90.5t-110.5 59.5t-122.5 21.5q-119 0 -201 -44 t-132 -116t-71.5 -161t-21.5 -177z" />
<glyph unicode="h" horiz-adv-x="1058" d="M111 0v1475h86v-664q41 133 141 200.5t235 67.5q174 0 274.5 -101t100.5 -276v-702h-86v676q0 147 -78.5 237.5t-230.5 90.5q-88 0 -154.5 -34t-111.5 -91.5t-67.5 -131t-22.5 -155.5v-592h-86z" />
<glyph unicode="i" horiz-adv-x="307" d="M76 1436q0 33 23.5 53t54.5 20t54 -20t23 -53t-23.5 -53.5t-53.5 -20.5q-31 0 -54.5 20.5t-23.5 53.5zM111 0v1055h86v-1055h-86z" />
<glyph unicode="j" horiz-adv-x="307" d="M-676 -123h86q4 -72 32 -122t73 -82.5t103 -48t124 -15.5q180 0 274.5 92t94.5 272v1082h86v-1080q0 -209 -112 -320.5t-341 -111.5q-82 0 -155.5 18.5t-131 58.5t-93.5 103.5t-40 153.5zM76 1436q0 33 23.5 53t54.5 20t54 -20t23 -53t-23.5 -53.5t-53.5 -20.5 q-31 0 -54.5 20.5t-23.5 53.5z" />
<glyph unicode="k" horiz-adv-x="638" d="M111 0v1475h86v-877l344 457h98l-391 -529l391 -526h-98l-344 457v-457h-86z" />
<glyph unicode="l" horiz-adv-x="307" d="M111 0v1475h86v-1475h-86z" />
<glyph unicode="m" horiz-adv-x="1808" d="M111 0v1055h86v-244q41 133 141 200.5t235 67.5q152 0 248.5 -78.5t118.5 -216.5q37 147 135.5 221t249.5 74q174 0 273.5 -101t99.5 -276v-702h-86v676q0 147 -78 237.5t-231 90.5q-88 0 -155 -34t-111 -91.5t-66.5 -131t-22.5 -155.5v-592h-86v676q0 147 -77.5 237.5 t-231.5 90.5q-88 0 -154.5 -34t-111.5 -91.5t-67.5 -131t-22.5 -155.5v-592h-86z" />
<glyph unicode="n" horiz-adv-x="1058" d="M111 0v1055h86v-244q41 133 141 200.5t235 67.5q174 0 274.5 -101t100.5 -276v-702h-86v676q0 147 -78.5 237.5t-230.5 90.5q-88 0 -154.5 -34t-111.5 -91.5t-67.5 -131t-22.5 -155.5v-592h-86z" />
<glyph unicode="o" horiz-adv-x="1126" d="M76 526q0 109 30.5 208.5t92 176t152.5 122.5t212 46q119 0 210 -46t152.5 -122.5t93.5 -176t32 -208.5t-32 -208t-93.5 -175.5t-152.5 -122t-210 -45.5q-121 0 -212 45.5t-152.5 122t-92 176t-30.5 207.5zM162 526q0 -92 24.5 -178t74.5 -153.5t126 -107.5t176 -40 t175 40t125 107.5t76 153.5t26 178t-26 178.5t-76 153t-124.5 107.5t-175.5 41q-100 0 -176 -41t-126 -107.5t-74.5 -153t-24.5 -178.5z" />
<glyph unicode="p" horiz-adv-x="1128" d="M111 -422v1477h86v-164q53 92 148 140t206 48q125 0 219 -46t157.5 -124t94.5 -181t31 -220q0 -111 -33 -207t-94.5 -169t-151.5 -115t-203 -42q-129 0 -225 54.5t-149 154.5v-606h-86zM197 367q0 -74 29.5 -133.5t80.5 -101.5t116.5 -63.5t137.5 -21.5q100 0 176 37 t127 100.5t77 147.5t26 176q0 88 -21.5 177t-72 161t-132.5 116t-200 44q-61 0 -123 -21.5t-111 -59.5t-79.5 -89.5t-30.5 -110.5v-358z" />
<glyph unicode="q" horiz-adv-x="1128" d="M76 508q0 115 30.5 218t94 182t157 125t220.5 46q111 0 206 -48t148 -140v164h86v-1477h-86v606q-53 -100 -149.5 -154.5t-225.5 -54.5q-115 0 -204 42t-150.5 115t-94 169t-32.5 207zM162 508q0 -92 25.5 -176t76.5 -147.5t127 -100.5t176 -37q72 0 137.5 21.5 t116.5 63.5t81 101.5t30 133.5v356q0 59 -31 111.5t-80 90.5t-110.5 59.5t-122.5 21.5q-119 0 -201 -44t-132 -116t-71.5 -161t-21.5 -177z" />
<glyph unicode="r" horiz-adv-x="612" d="M111 0v1055h86v-244q41 133 141 200.5t235 67.5h19.5t19.5 -2l-59 -73q-88 0 -154.5 -34t-111.5 -91.5t-67.5 -131t-22.5 -155.5v-592h-86z" />
<glyph unicode="s" horiz-adv-x="923" d="M37 358h84q0 -162 94 -238.5t262 -76.5q51 0 107.5 12.5t102.5 39t76 69.5t30 104q0 63 -29 103.5t-76 66t-110.5 41t-131.5 31.5q-72 16 -138 33.5t-118.5 48.5t-83 81t-30.5 132q0 51 22.5 100t68.5 88t116.5 62.5t167.5 23.5q88 0 160.5 -19.5t124.5 -59t82 -104.5 t30 -153h-82q0 143 -88 208t-225 65q-100 0 -158.5 -26.5t-88.5 -61.5t-38 -70t-8 -49q0 -72 40 -114t99 -66.5t127 -37.5t123 -28q59 -16 118.5 -34.5t105.5 -49t75 -78.5t29 -122q0 -84 -36 -141.5t-93.5 -93.5t-129 -52.5t-143.5 -16.5q-205 0 -321.5 92.5t-116.5 290.5z " />
<glyph unicode="t" horiz-adv-x="307" d="M0 987v68h111v270l86 94v-364h110v-68h-110v-987h-86v987h-111z" />
<glyph unicode="u" horiz-adv-x="1058" d="M111 352v703h86v-676q0 -147 77.5 -237.5t231.5 -90.5q88 0 154.5 34t110.5 90t66.5 131t22.5 157v592h88v-1055h-86v242q-41 -133 -141 -200t-238 -67q-174 0 -273 101.5t-99 275.5z" />
<glyph unicode="v" horiz-adv-x="849" d="M0 1055h94l332 -918l332 918h92l-377 -1055h-94z" />
<glyph unicode="w" horiz-adv-x="1808" d="M111 352v703h86v-676q0 -147 77.5 -237.5t231.5 -90.5q88 0 154.5 34t110.5 90t66.5 131t22.5 157v592h88v-676q0 -147 78 -237.5t229 -90.5q88 0 156 34t112 90t66.5 131t22.5 157v592h86v-1055h-86v242q-39 -133 -140.5 -200t-236.5 -67q-152 0 -248 79t-119 214 q-35 -145 -134 -219t-251 -74q-174 0 -273 101.5t-99 275.5z" />
<glyph unicode="x" horiz-adv-x="884" d="M0 0l393 526l-393 529h100l342 -457l342 457h101l-393 -529l393 -526h-101l-342 457l-342 -457h-100z" />
<glyph unicode="y" horiz-adv-x="1058" d="M74 -123h86q4 -72 31.5 -122t72.5 -82.5t103.5 -48t124.5 -15.5q180 0 275 92t95 272v269q-41 -133 -141 -200t-238 -67q-174 0 -273 101.5t-99 275.5v703h86v-676q0 -147 77.5 -237.5t231.5 -90.5q88 0 154.5 34t110.5 90t66.5 131t22.5 157v592h88v-1080 q0 -209 -112.5 -320.5t-339.5 -111.5q-82 0 -157 18.5t-132 58.5t-93 103.5t-40 153.5z" />
<glyph unicode="z" horiz-adv-x="872" d="M12 0v84l709 897h-653v74h755v-84l-706 -899h534q55 0 86 12t46.5 31.5t19.5 43t4 48.5l65 -23q0 -37 -9 -70.5t-32.5 -59t-62.5 -40t-96 -14.5h-660z" />
<glyph unicode="{" horiz-adv-x="620" d="M92 494v75q33 4 59.5 32t47 71t32 97t11.5 114v364q0 117 38.5 172.5t129.5 55.5h118v-76h-94q-61 0 -86.5 -45t-25.5 -162v-350q0 -47 -10.5 -96.5t-30 -92.5t-50 -76.5t-69.5 -48.5q72 -29 116 -115.5t44 -203.5v-344q0 -127 27.5 -169t86.5 -42h92v-76h-118 q-90 0 -128 57.5t-38 174.5v358q0 119 -32 196.5t-120 129.5z" />
<glyph unicode="|" horiz-adv-x="296" d="M111 0v1475h75v-1475h-75z" />
<glyph unicode="}" horiz-adv-x="620" d="M92 -346h92q59 0 87 42t28 169v344q0 117 44 204t116 115q-41 14 -71 48t-49.5 77t-29.5 92.5t-10 96.5v350q0 117 -25.5 162t-87.5 45h-94v76h119q90 0 129 -55.5t39 -172.5v-364q0 -59 11 -113.5t30.5 -97.5t47.5 -71t60 -32v-75q-88 -51 -118.5 -129t-30.5 -197v-358 q0 -117 -39 -174.5t-129 -57.5h-119v76z" />
<glyph unicode="~" horiz-adv-x="1069" d="M76 668q39 72 96 124t147 54q55 0 117 -21.5t121 -48.5q61 -27 115.5 -49t95.5 -22q31 0 56.5 13t47 33.5t40 47t36.5 53.5l45 -47q-20 -33 -42.5 -64.5t-50.5 -56.5t-60.5 -40t-73.5 -15q-51 0 -99.5 20.5t-101.5 44.5q-53 23 -110.5 49.5t-137.5 26.5q-70 0 -115.5 -43 t-80.5 -106z" />
<glyph unicode="&#xa1;" horiz-adv-x="307" d="M76 1425q0 33 23.5 53.5t54.5 20.5t54 -20.5t23 -53.5t-23.5 -53t-53.5 -20q-31 0 -54.5 20.5t-23.5 52.5zM98 0l25 1262h61l27 -1262h-113z" />
<glyph unicode="&#xa2;" horiz-adv-x="1073" d="M78 717q0 111 28.5 211t87 178t144.5 126t203 54v189h65v-187q76 -4 144.5 -29.5t121 -70.5t86 -109.5t41.5 -144.5h-84q-20 133 -110 208t-223 75q-111 0 -189 -41t-129 -111t-74.5 -160t-23.5 -188q0 -90 24.5 -173t73.5 -146.5t124 -101.5t173 -38q72 0 134.5 22.5 t109.5 64.5t75.5 100.5t34.5 132.5h84q-16 -172 -122.5 -274.5t-270.5 -115.5v-188h-65v186q-111 2 -197 46t-145.5 117t-90 168t-30.5 200z" />
<glyph unicode="&#xa3;" horiz-adv-x="1105" d="M57 29q45 39 89 84t77 96t53.5 108.5t20.5 120.5q0 61 -13.5 130t-43.5 122h-168v70h137q-20 39 -44 81t-43.5 86t-32.5 89t-13 90q0 100 40 174t105.5 122t151.5 71.5t176 23.5q119 0 213 -36t156.5 -102.5t92 -161.5t19.5 -214h-86q8 98 -14.5 179t-73.5 138.5t-128 89 t-177 31.5q-74 0 -143.5 -17.5t-124 -56t-87 -98t-32.5 -141.5q0 -45 14.5 -90t36 -89t46 -87t44.5 -82h311v-68h-286q33 -59 44 -121.5t11 -128.5q0 -115 -52 -208t-138 -164q86 68 194 67q51 0 100.5 -15.5t97.5 -32.5t95 -32.5t94 -15.5q96 0 163 50t130 116l43 -62 q-72 -80 -151.5 -130t-190.5 -50q-49 0 -97 14.5t-95.5 32t-94.5 32.5t-94 17q-80 4 -147.5 -21.5t-130.5 -74.5z" />
<glyph unicode="&#xa4;" horiz-adv-x="1169" d="M76 698q0 92 33.5 180.5t95.5 155.5l-119 117l45 45l117 -117q70 63 157 95t179 32t180 -31.5t156 -95.5l116 117l45 -45l-116 -117q63 -68 96 -156t33 -180t-33 -179t-96 -157l116 -116l-45 -45l-116 118q-70 -63 -156 -94.5t-180 -34.5q-92 0 -178.5 32t-157.5 95 l-117 -116l-45 45l119 116q-63 70 -96 157t-33 179zM147 698q0 -90 35 -169.5t95.5 -139t139.5 -93.5t167 -34t167.5 34t139 93.5t94.5 139t35 169.5q0 92 -35 171t-94.5 138.5t-138 93.5t-168.5 34q-88 0 -167 -34t-139.5 -93.5t-95.5 -139.5t-35 -170z" />
<glyph unicode="&#xa5;" d="M111 1128v347h92v-301q0 -90 16.5 -161t53 -120t98 -74.5t153.5 -25.5t153.5 26.5t99.5 75.5t53.5 119.5t15.5 159.5v301h92v-347q0 -190 -93 -295.5t-276 -115.5v-185h303v-67h-303v-191h303v-67h-301v-207h-92v207h-303v67h303v191h-303v67h303v185q-184 10 -276 116.5 t-92 294.5z" />
<glyph unicode="&#xa6;" horiz-adv-x="296" d="M111 0v557h75v-557h-75zM111 918v557h75v-557h-75z" />
<glyph unicode="&#xa7;" horiz-adv-x="1085" d="M39 565q0 106 49 182t139 127q-96 47 -142 115t-46 176q0 94 43 160t111.5 107t152.5 59t164 18q104 0 194.5 -22.5t158 -71.5t106.5 -129t41 -194h-90q-2 94 -34 160.5t-86.5 108.5t-128 61.5t-159.5 19.5q-63 0 -131 -14.5t-123 -47t-90 -84t-35 -127.5 q0 -94 52.5 -149t129 -88t163.5 -50.5t157 -35.5q74 -18 147.5 -42t132 -64t95.5 -100t37 -153q0 -106 -49.5 -182t-139.5 -127q96 -47 142.5 -114.5t46.5 -176.5q0 -94 -43 -159.5t-112 -106.5t-153 -59.5t-164 -18.5q-104 0 -194 22.5t-157.5 72t-106.5 129t-41 194.5h90 q2 -94 33.5 -160.5t86 -108.5t128 -61.5t159.5 -19.5q63 0 131 14.5t123.5 46t90 83.5t34.5 128q0 94 -52 149.5t-129 88.5t-164 50t-156 36q-74 18 -148 41.5t-132 63.5t-95 100.5t-37 152.5zM133 575q0 -88 42 -141t105.5 -86t138.5 -51t142 -35q47 -12 95.5 -22.5 t95.5 -24.5q88 35 144 99.5t56 162.5q0 88 -42 141.5t-104.5 86t-137 51t-142.5 35.5q-49 12 -97 22t-95 25q-88 -35 -144.5 -99.5t-56.5 -163.5z" />
<glyph unicode="&#xa8;" horiz-adv-x="0" d="M311 1255q0 33 23.5 53.5t54.5 20.5q33 0 56.5 -20.5t23.5 -53.5t-23.5 -53t-56.5 -20q-31 0 -54.5 20.5t-23.5 52.5zM657 1255q0 33 24 53.5t54 20.5q31 0 55.5 -20.5t24.5 -53.5t-24.5 -53t-55.5 -20t-54.5 20.5t-23.5 52.5z" />
<glyph unicode="&#xa9;" horiz-adv-x="1683" d="M76 737q0 160 60.5 299.5t163.5 242.5t242.5 163.5t299.5 60.5t299 -60.5t242.5 -163.5t164 -242.5t60.5 -299.5t-60.5 -299t-164 -242.5t-243 -164t-298.5 -60.5q-160 0 -299.5 60.5t-242.5 164t-163.5 243t-60.5 298.5zM143 737q0 -145 54.5 -272t149.5 -222.5 t222 -150.5t273 -55q145 0 272 55t222.5 150.5t149.5 222.5t54 272t-54 272.5t-149.5 222.5t-222.5 150.5t-272 55.5t-272.5 -55.5t-222.5 -150.5t-149.5 -222t-54.5 -273zM418 727q0 98 29.5 183t86 146.5t138.5 96.5t184 35q145 0 250.5 -79t126.5 -230h-59 q-20 123 -109.5 185t-206.5 62q-90 0 -159.5 -29.5t-118 -82.5t-74 -126t-25.5 -159q0 -84 25.5 -158.5t75 -130t120 -87t160.5 -31.5q53 0 102.5 16t91.5 49t72.5 81t45.5 112h61q-33 -145 -132 -233.5t-241 -88.5q-102 0 -184 36t-139.5 99.5t-89 149.5t-31.5 184z" />
<glyph unicode="&#xaa;" horiz-adv-x="774" d="M80 1157q0 68 18.5 130.5t57.5 109.5t96 74.5t135 27.5q59 0 111.5 -22.5t93.5 -69.5v78h67v-633h-67v86q-80 -100 -217 -100q-70 0 -125 25.5t-93 68.5t-57.5 101.5t-19.5 123.5zM145 1157q0 -53 15.5 -101t45.5 -84t74 -57.5t101 -21.5q43 0 81 12.5t66.5 36t46 57 t17.5 74.5v211q0 33 -17.5 61.5t-46 50t-64.5 34t-71 12.5q-68 0 -116 -24.5t-76.5 -65.5t-42 -92.5t-13.5 -102.5z" />
<glyph unicode="&#xab;" horiz-adv-x="628" d="M92 700v74l227 283v-103l-169 -217l169 -217v-102zM309 700v74l228 283v-103l-170 -217l170 -217v-102z" />
<glyph unicode="&#xac;" horiz-adv-x="307" d="M0 643v70l111 94v668h86v-596l110 94v-72l-110 -94v-807h-86v737z" />
<glyph unicode="&#xad;" horiz-adv-x="577" d="M92 510v78h393v-78h-393z" />
<glyph unicode="&#xae;" horiz-adv-x="935" d="M76 1116q0 80 30.5 149.5t84 122t124 82t152.5 29.5t153.5 -29.5t125 -82t84 -122t30.5 -149.5t-30.5 -149.5t-84 -121.5t-125 -82t-153.5 -30t-152.5 30t-124 82t-84 121.5t-30.5 149.5zM127 1116q0 -70 26.5 -130t72.5 -105t107.5 -72t133.5 -27t133.5 27t107.5 72 t72.5 105.5t26.5 129.5h2q0 70 -26.5 130.5t-72.5 105.5t-108.5 71.5t-134.5 26.5t-133.5 -26.5t-107.5 -71.5t-72.5 -105.5t-26.5 -130.5zM328 889v442h153q158 0 158 -125q0 -55 -32 -83.5t-75 -35.5l130 -198h-56l-125 194q-25 -2 -57.5 -2h-48.5v-192h-47zM375 1126h94 q20 0 43 3.5t39 11.5t27.5 23t11.5 42q0 49 -33 64.5t-78 15.5h-104v-160z" />
<glyph unicode="&#xaf;" horiz-adv-x="0" d="M311 1253v60h504v-60h-504z" />
<glyph unicode="&#xb0;" horiz-adv-x="741" d="M76 1204q0 61 22.5 114.5t62.5 93.5t94 63.5t116 23.5q61 0 114.5 -23.5t93 -63.5t63.5 -93.5t24 -114.5t-22.5 -115.5t-62.5 -94.5t-94.5 -63.5t-115.5 -23.5t-115.5 22.5t-94.5 62.5t-62.5 94.5t-22.5 117.5zM131 1204q0 -53 19.5 -97t52.5 -76t76 -50t92 -18 q51 0 94 18t74.5 51t50 77t18.5 95q0 49 -17.5 92t-49 76t-75.5 52.5t-95 19.5q-49 0 -92 -19.5t-76 -53.5t-52.5 -77t-19.5 -90z" />
<glyph unicode="&#xb1;" horiz-adv-x="1216" d="M92 219v76h1032v-76h-1032zM92 805v76h479v374h74v-374h479v-76h-479v-375h-74v375h-479z" />
<glyph unicode="&#xb2;" horiz-adv-x="675" d="M61 674q-2 57 21.5 104t60.5 87t84 74t92 65q39 27 78 56.5t68 62t47 68.5t18 75q0 78 -52 126t-136 48q-109 0 -155 -70t-46 -172h-65q0 139 67.5 220t200.5 81q51 0 97 -15.5t82 -44t56.5 -71.5t20.5 -98q0 -63 -29.5 -113.5t-75.5 -94.5t-101.5 -83t-105.5 -77 t-89 -79t-52 -86h355q57 0 67.5 20.5t10.5 55.5l57 -20q0 -53 -26.5 -86t-96.5 -33h-453z" />
<glyph unicode="&#xb3;" horiz-adv-x="702" d="M55 963h66q-8 -117 55.5 -179.5t173.5 -62.5q43 0 81 13.5t66.5 37t45 58t16.5 77.5q0 86 -54 129t-140 43h-35v56h35q76 0 129 38.5t53 114.5t-59.5 114t-133.5 38q-100 0 -157.5 -56.5t-55.5 -162.5h-65q0 135 74.5 206.5t203.5 71.5q47 0 93.5 -12t83 -38t59 -64.5 t22.5 -92.5q0 -59 -30.5 -110.5t-89.5 -71.5q66 -23 101.5 -80t35.5 -127q0 -55 -23.5 -100t-62.5 -77t-89.5 -48t-103.5 -16q-68 0 -124 19t-96 58t-60.5 94.5t-14.5 129.5z" />
<glyph unicode="&#xb4;" horiz-adv-x="0" d="M379 1157l262 297h107l-308 -297h-61z" />
<glyph unicode="&#xb5;" horiz-adv-x="1058" d="M111 -422v1477h86v-676q0 -147 77.5 -237.5t231.5 -90.5q88 0 154.5 34t110.5 90t66.5 131t22.5 157v592h88v-1055h-86v242q-35 -129 -131 -194.5t-225 -70.5q-109 -2 -187.5 41t-121.5 121v-561h-86z" />
<glyph unicode="&#xb6;" horiz-adv-x="983" d="M76 1077q0 199 123 298.5t340 99.5h333v-1897h-69v1835h-201v-1835h-72v1116q-102 0 -186 30t-143.5 82t-92 121.5t-32.5 149.5z" />
<glyph unicode="&#xb7;" horiz-adv-x="307" d="M76 737q0 33 23.5 53.5t54.5 20.5t54 -20.5t23 -53.5t-23.5 -53t-53.5 -20q-31 0 -54.5 20.5t-23.5 52.5z" />
<glyph unicode="&#xb8;" horiz-adv-x="0" d="M367 -350l22 47q37 -12 74 -23.5t78 -11.5q27 0 54.5 5t50 17.5t35.5 32t13 50.5q0 20 -11 35.5t-27.5 25.5t-36 15t-33.5 5q-66 0 -107 -26l-35 24l117 154h51l-84 -117q14 2 28.5 7.5t41.5 5.5q63 0 112.5 -28.5t49.5 -100.5q0 -47 -17.5 -77t-47 -46.5t-67.5 -23.5 t-79 -7q-57 0 -102.5 13.5t-79.5 23.5z" />
<glyph unicode="&#xb9;" horiz-adv-x="405" d="M76 1354q0 51 26.5 86t98.5 35h94v-811h-70v747h-14q-55 0 -65.5 -22.5t-10.5 -55.5z" />
<glyph unicode="&#xba;" horiz-adv-x="778" d="M76 1169q0 63 20.5 124t59.5 106t97 72.5t136 27.5t136.5 -27.5t98.5 -72.5t59 -106t19 -124q0 -66 -19 -126t-59 -107t-99.5 -74.5t-137.5 -27.5q-76 0 -134 27.5t-97 74.5t-59.5 107.5t-20.5 125.5zM141 1169q0 -51 16.5 -101t48.5 -89t78 -63.5t105 -24.5t105.5 24.5 t77 63.5t47 89t16.5 101q0 49 -16.5 98.5t-47 88.5t-76.5 62.5t-106 23.5q-59 0 -105 -23.5t-78 -62.5t-48.5 -88t-16.5 -99z" />
<glyph unicode="&#xbb;" horiz-adv-x="628" d="M92 418v102l168 217l-168 217v103l227 -283v-74zM309 418v102l168 217l-168 217v103l228 -283v-74z" />
<glyph unicode="&#xbc;" horiz-adv-x="1181" d="M43 0l915 1475h70l-915 -1475h-70zM76 1354q0 51 26.5 86t98.5 35h94v-811h-70v747h-14q-55 0 -65.5 -22.5t-10.5 -55.5zM498 231v62l385 518h67v-518h23q55 0 65.5 21.5t10.5 56.5l57 -21q0 -51 -25.5 -85t-97.5 -34h-33v-231h-67v231h-385zM567 293h316v428z" />
<glyph unicode="&#xbd;" horiz-adv-x="1314" d="M43 0l915 1475h70l-915 -1475h-70zM76 1354q0 51 26.5 86t98.5 35h94v-811h-70v747h-14q-55 0 -65.5 -22.5t-10.5 -55.5zM702 0q-2 55 22 102.5t60.5 87t82.5 73.5t91 65q41 27 79 57.5t68 63t48 68.5t18 75q0 78 -53 125t-135 47q-109 0 -155 -68.5t-46 -171.5h-65 q-2 137 66.5 219t199.5 82q51 0 98 -15t82 -45t55.5 -73t20.5 -98q0 -63 -29.5 -113.5t-76 -94.5t-100.5 -83t-104 -77t-89 -79t-52 -86h355q55 0 65.5 21.5t10.5 56.5l59 -20q0 -53 -26.5 -86t-96.5 -33h-453z" />
<glyph unicode="&#xbe;" horiz-adv-x="1425" d="M55 963h66q-8 -117 55.5 -179.5t173.5 -62.5q43 0 81 13.5t66.5 37t45 58t16.5 77.5q0 86 -54 129t-140 43h-35v56h35q76 0 129 38.5t53 114.5t-59.5 114t-133.5 38q-100 0 -157.5 -56.5t-55.5 -162.5h-65q0 135 74.5 206.5t203.5 71.5q47 0 93.5 -12t83 -38t59 -64.5 t22.5 -92.5q0 -59 -30.5 -110.5t-89.5 -71.5q66 -23 101.5 -80t35.5 -127q0 -55 -23.5 -100t-62.5 -77t-89.5 -48t-103.5 -16q-68 0 -124 19t-96 58t-60.5 94.5t-14.5 129.5zM287 0l915 1475h70l-916 -1475h-69zM741 231v62l385 518h68v-518h23q53 0 63 21.5t10 56.5l60 -21 q0 -51 -26 -85t-97 -34h-33v-231h-70v231h-383zM811 293h313v428z" />
<glyph unicode="&#xbf;" horiz-adv-x="1032" d="M76 326q0 80 22.5 137t55 100t68.5 74t65 55q53 49 90 89t59.5 84t31.5 95.5t9 120.5v203h84v-203q0 -66 -8 -120t-30.5 -104t-60.5 -99t-95 -103q-12 -12 -46 -36.5t-68 -64.5t-60.5 -95.5t-26.5 -128.5q0 -66 24.5 -117t68.5 -86t105.5 -53.5t133.5 -18.5 q94 0 164.5 31t116.5 85t68.5 130t18.5 166h90q2 -104 -26.5 -194.5t-87 -157t-146.5 -103.5t-200 -37q-92 0 -169 25t-132.5 71t-87 110.5t-31.5 144.5zM440 1423q0 33 23.5 53.5t56.5 20.5q31 0 54.5 -20.5t23.5 -53.5t-23.5 -53t-54.5 -20q-33 0 -56.5 20.5t-23.5 52.5z " />
<glyph unicode="&#xc0;" d="M111 0v1094q0 203 104 309t309 106t309.5 -107.5t104.5 -307.5v-1094h-92v698h-643v-698h-92zM203 776h643v273q0 88 -16.5 158.5t-53.5 119.5t-98.5 76t-153.5 27t-153.5 -27t-99.5 -76t-53 -119.5t-15 -158.5v-273zM371 1864h106l250 -297h-63z" />
<glyph unicode="&#xc1;" d="M111 0v1094q0 203 104 309t309 106t309.5 -107.5t104.5 -307.5v-1094h-92v698h-643v-698h-92zM203 776h643v273q0 88 -16.5 158.5t-53.5 119.5t-98.5 76t-153.5 27t-153.5 -27t-99.5 -76t-53 -119.5t-15 -158.5v-273zM319 1567l263 297h104l-305 -297h-62z" />
<glyph unicode="&#xc2;" d="M111 0v1094q0 203 104 309t309 106t309.5 -107.5t104.5 -307.5v-1094h-92v698h-643v-698h-92zM203 776h643v273q0 88 -16.5 158.5t-53.5 119.5t-98.5 76t-153.5 27t-153.5 -27t-99.5 -76t-53 -119.5t-15 -158.5v-273zM258 1575l234 289h67l236 -289h-72l-201 240 l-190 -240h-74z" />
<glyph unicode="&#xc3;" d="M111 0v1094q0 203 104 309t309 106t309.5 -107.5t104.5 -307.5v-1094h-92v698h-643v-698h-92zM203 776h643v273q0 88 -16.5 158.5t-53.5 119.5t-98.5 76t-153.5 27t-153.5 -27t-99.5 -76t-53 -119.5t-15 -158.5v-273zM260 1593q0 31 11.5 63t32 57.5t48 42t60.5 16.5 q37 0 71.5 -18.5t68.5 -40t65.5 -39t60.5 -17.5q47 0 71.5 32.5t26.5 77.5h58q0 -68 -38 -119t-116 -51q-41 0 -75 17.5t-64.5 39t-62.5 39t-64 17.5q-43 0 -70 -40t-27 -77h-57z" />
<glyph unicode="&#xc4;" d="M111 0v1094q0 203 104 309t309 106t309.5 -107.5t104.5 -307.5v-1094h-92v698h-643v-698h-92zM203 776h643v273q0 88 -16.5 158.5t-53.5 119.5t-98.5 76t-153.5 27t-153.5 -27t-99.5 -76t-53 -119.5t-15 -158.5v-273zM279 1663q0 33 23.5 53.5t53.5 20.5q31 0 54.5 -20.5 t23.5 -53.5q0 -31 -23.5 -52.5t-54.5 -21.5t-54 21.5t-23 52.5zM625 1663q0 33 23.5 53.5t53.5 20.5q31 0 54.5 -20.5t23.5 -53.5q0 -31 -23.5 -52.5t-54.5 -21.5t-54 21.5t-23 52.5z" />
<glyph unicode="&#xc5;" d="M111 0v1094q0 203 104 309t309 106t309.5 -107.5t104.5 -307.5v-1094h-92v698h-643v-698h-92zM203 776h643v273q0 88 -16.5 158.5t-53.5 119.5t-98.5 76t-153.5 27t-153.5 -27t-99.5 -76t-53 -119.5t-15 -158.5v-273zM338 1706q0 37 15.5 70.5t41 59.5t59 41t70.5 15 t71 -15t59.5 -41t41 -59.5t15.5 -70.5q0 -78 -54.5 -132t-132.5 -54q-37 0 -70.5 14t-59 39.5t-41 59.5t-15.5 73zM389 1706q0 -55 40 -95t95 -40t95 40t40 95t-39.5 95t-95.5 40q-55 0 -95 -40t-40 -95z" />
<glyph unicode="&#xc6;" horiz-adv-x="1783" d="M111 0v1094q0 203 104 309t309 106q260 0 355 -178v144h802v-82h-743v-617h686v-78h-686v-616h754v-82h-846v698h-643v-698h-92zM203 776h643v273q0 88 -16.5 158.5t-53.5 119.5t-98.5 76t-153.5 27t-153.5 -27t-99.5 -76t-53 -119.5t-15 -158.5v-273z" />
<glyph unicode="&#xc7;" horiz-adv-x="1454" d="M76 727q0 158 45 299t133 248.5t217 171t299 63.5q104 0 209.5 -33.5t191.5 -97t143.5 -153.5t63.5 -203h-90q-10 94 -59 170t-122 128t-161 79.5t-176 27.5q-147 0 -260 -58t-188.5 -156.5t-114.5 -224.5t-39 -261q0 -129 37 -252t110.5 -218t181 -152.5t248.5 -57.5 q121 0 215.5 40t162 109.5t108.5 166t57 210.5h90q-16 -129 -62 -237.5t-122 -189t-181.5 -129t-238.5 -52.5l-59 -82q14 2 28.5 7.5t40.5 5.5q63 0 112.5 -29t49.5 -100q0 -47 -17.5 -77t-47 -46.5t-67.5 -23.5t-77 -7q-59 0 -104 13.5t-80 23.5l22 47q37 -12 75 -23.5 t79 -11.5q27 0 54.5 5t49 17.5t35 32t13.5 50.5q0 20 -11.5 35.5t-28 25.5t-36 15t-33.5 5q-66 0 -106 -26l-35 24l92 119q-156 6 -276.5 70.5t-202.5 169t-125 240t-43 282.5z" />
<glyph unicode="&#xc8;" d="M111 0v1475h835v-82h-743v-617h686v-78h-686v-616h753v-82h-845zM336 1864h104l250 -297h-61z" />
<glyph unicode="&#xc9;" horiz-adv-x="1064" d="M111 0v1475h835v-82h-743v-617h686v-78h-686v-616h753v-82h-845zM432 1567l262 297h105l-305 -297h-62z" />
<glyph unicode="&#xca;" d="M111 0v1475h835v-82h-743v-617h686v-78h-686v-616h753v-82h-845zM260 1575l234 289h67l238 -289h-74l-201 240l-190 -240h-74z" />
<glyph unicode="&#xcb;" d="M111 0v1475h835v-82h-743v-617h686v-78h-686v-616h753v-82h-845zM276 1663q0 33 24 53.5t56 20.5q31 0 54.5 -20.5t23.5 -53.5q0 -31 -23.5 -52.5t-54.5 -21.5q-33 0 -56.5 21.5t-23.5 52.5zM623 1663q0 33 23.5 53.5t53.5 20.5q33 0 56.5 -20.5t23.5 -53.5 q0 -31 -23.5 -52.5t-56.5 -21.5q-31 0 -54 21.5t-23 52.5z" />
<glyph unicode="&#xcc;" horiz-adv-x="313" d="M-33 1864h105l250 -297h-62zM111 0v1475h92v-1475h-92z" />
<glyph unicode="&#xcd;" horiz-adv-x="313" d="M-31 1567l260 297h107l-305 -297h-62zM111 0v1475h92v-1475h-92z" />
<glyph unicode="&#xce;" horiz-adv-x="313" d="M-111 1575l234 289h67l236 -289h-74l-198 240l-191 -240h-74zM111 0v1475h92v-1475h-92z" />
<glyph unicode="&#xcf;" horiz-adv-x="313" d="M-92 1663q0 33 23.5 53.5t56.5 20.5q31 0 54.5 -20.5t23.5 -53.5q0 -31 -24 -52.5t-54 -21.5q-33 0 -56.5 21.5t-23.5 52.5zM111 0v1475h92v-1475h-92zM254 1663q0 33 23.5 53.5t54.5 20.5q33 0 56.5 -20.5t23.5 -53.5q0 -31 -23.5 -52.5t-56.5 -21.5q-31 0 -54.5 21.5 t-23.5 52.5z" />
<glyph unicode="&#xd0;" horiz-adv-x="1071" d="M-18 727v68h129v680h256q166 0 284.5 -58.5t195.5 -158t112.5 -233.5t35.5 -288q0 -164 -45 -299t-133 -232t-218 -151.5t-298 -54.5h-190v727h-129zM203 82h104q147 0 258 50t186.5 138t113.5 208t38 259q0 141 -31.5 261t-99 207t-175.5 137.5t-257 50.5h-137v-598h362 v-66h-362v-647z" />
<glyph unicode="&#xd1;" d="M111 0v1094q0 203 104 309t309 106t309.5 -107.5t104.5 -307.5v-1094h-92v1049q0 88 -16.5 158.5t-53.5 119.5t-98.5 76t-153.5 27t-153.5 -27t-99.5 -76t-53 -119.5t-15 -158.5v-1049h-92zM289 1593q0 31 11 63t31.5 57.5t48.5 42t58 16.5q37 0 73 -18.5t69.5 -40 t65.5 -39t61 -17.5q45 0 70.5 32.5t27.5 77.5h57q0 -68 -38 -119t-115 -51q-41 0 -75 17.5t-65.5 39t-62.5 39t-64 17.5q-43 0 -69.5 -40t-28.5 -77h-55z" />
<glyph unicode="&#xd2;" horiz-adv-x="1515" d="M76 737q0 156 44 295t131 245.5t214 169t293 62.5t294 -62.5t214 -169t130 -245.5t44 -295t-44 -296t-130 -245.5t-214 -168t-294 -62.5t-293 62.5t-214 168t-131 246t-44 295.5zM168 737q0 -135 37 -260t110.5 -220t184 -152.5t258.5 -57.5q147 0 257.5 57.5 t184.5 152.5t111 220t37 260t-37 260t-111 220.5t-184.5 152.5t-257.5 57t-258 -57t-184.5 -152.5t-110.5 -220.5t-37 -260zM512 1864h104l250 -297h-61z" />
<glyph unicode="&#xd3;" horiz-adv-x="1515" d="M76 737q0 156 44 295t131 245.5t214 169t293 62.5t294 -62.5t214 -169t130 -245.5t44 -295t-44 -296t-130 -245.5t-214 -168t-294 -62.5t-293 62.5t-214 168t-131 246t-44 295.5zM168 737q0 -135 37 -260t110.5 -220t184 -152.5t258.5 -57.5q147 0 257.5 57.5 t184.5 152.5t111 220t37 260t-37 260t-111 220.5t-184.5 152.5t-257.5 57t-258 -57t-184.5 -152.5t-110.5 -220.5t-37 -260zM614 1567l260 297h107l-305 -297h-62z" />
<glyph unicode="&#xd4;" horiz-adv-x="1515" d="M76 737q0 156 44 295t131 245.5t214 169t293 62.5t294 -62.5t214 -169t130 -245.5t44 -295t-44 -296t-130 -245.5t-214 -168t-294 -62.5t-293 62.5t-214 168t-131 246t-44 295.5zM168 737q0 -135 37 -260t110.5 -220t184 -152.5t258.5 -57.5q147 0 257.5 57.5 t184.5 152.5t111 220t37 260t-37 260t-111 220.5t-184.5 152.5t-257.5 57t-258 -57t-184.5 -152.5t-110.5 -220.5t-37 -260zM479 1575l234 289h69l236 -289h-74l-199 240l-192 -240h-74z" />
<glyph unicode="&#xd5;" horiz-adv-x="1515" d="M76 737q0 156 44 295t131 245.5t214 169t293 62.5t294 -62.5t214 -169t130 -245.5t44 -295t-44 -296t-130 -245.5t-214 -168t-294 -62.5t-293 62.5t-214 168t-131 246t-44 295.5zM168 737q0 -135 37 -260t110.5 -220t184 -152.5t258.5 -57.5q147 0 257.5 57.5 t184.5 152.5t111 220t37 260t-37 260t-111 220.5t-184.5 152.5t-257.5 57t-258 -57t-184.5 -152.5t-110.5 -220.5t-37 -260zM485 1593q0 31 11.5 63t32 57.5t48 42t58.5 16.5q37 0 72.5 -18.5t69.5 -40t64.5 -39t59.5 -17.5q47 0 72.5 32.5t27.5 77.5h58q-2 -68 -40 -119 t-114 -51q-41 0 -74.5 17.5t-65.5 39t-63.5 39t-64.5 17.5q-20 0 -37.5 -11t-30 -28.5t-20.5 -38t-8 -39.5h-56z" />
<glyph unicode="&#xd6;" horiz-adv-x="1515" d="M76 737q0 156 44 295t131 245.5t214 169t293 62.5t294 -62.5t214 -169t130 -245.5t44 -295t-44 -296t-130 -245.5t-214 -168t-294 -62.5t-293 62.5t-214 168t-131 246t-44 295.5zM168 737q0 -135 37 -260t110.5 -220t184 -152.5t258.5 -57.5q147 0 257.5 57.5 t184.5 152.5t111 220t37 260t-37 260t-111 220.5t-184.5 152.5t-257.5 57t-258 -57t-184.5 -152.5t-110.5 -220.5t-37 -260zM498 1663q0 33 23.5 53.5t53.5 20.5q31 0 54.5 -20.5t23.5 -53.5q0 -31 -23.5 -52.5t-54.5 -21.5t-54 21.5t-23 52.5zM844 1663q0 33 23.5 53.5 t54.5 20.5t54 -20.5t23 -53.5q0 -31 -23.5 -52.5t-53.5 -21.5q-31 0 -54.5 21.5t-23.5 52.5z" />
<glyph unicode="&#xd7;" horiz-adv-x="858" d="M0 362l377 375l-377 377l53 51l375 -379l377 379l53 -51l-379 -377l379 -375l-53 -53l-377 379l-375 -379z" />
<glyph unicode="&#xd8;" horiz-adv-x="1515" d="M76 731q0 158 45 297t132 243.5t214 165t291 60.5q154 0 273.5 -52t205.5 -145l127 140l39 -31l-131 -147q84 -102 126 -238.5t42 -292.5q0 -158 -45 -297t-131 -243.5t-213 -165t-293 -60.5q-154 0 -273.5 53.5t-205.5 147.5l-150 -166l-37 31l152 170 q-82 104 -125 240.5t-43 289.5zM168 731q0 -141 36 -257t101 -204l873 965q-78 86 -183.5 133t-236.5 47q-135 0 -243.5 -49t-185.5 -139t-119 -216t-42 -280zM338 229q76 -88 181.5 -135t238.5 -47q135 0 243.5 49t185.5 139.5t119 216t42 279.5q0 139 -36 256t-104 205z " />
<glyph unicode="&#xd9;" d="M111 381v1094h92v-1049q0 -90 16.5 -160.5t53 -120t98 -75t153.5 -25.5t153.5 26.5t99.5 76t53.5 120t15.5 158.5v1049h92v-1094q0 -203 -104.5 -309.5t-309.5 -106.5t-309 107.5t-104 308.5zM350 1864h105l250 -297h-62z" />
<glyph unicode="&#xda;" d="M111 381v1094h92v-1049q0 -90 16.5 -160.5t53 -120t98 -75t153.5 -25.5t153.5 26.5t99.5 76t53.5 120t15.5 158.5v1049h92v-1094q0 -203 -104.5 -309.5t-309.5 -106.5t-309 107.5t-104 308.5zM354 1567l262 297h105l-305 -297h-62z" />
<glyph unicode="&#xdb;" d="M111 381v1094h92v-1049q0 -90 16.5 -160.5t53 -120t98 -75t153.5 -25.5t153.5 26.5t99.5 76t53.5 120t15.5 158.5v1049h92v-1094q0 -203 -104.5 -309.5t-309.5 -106.5t-309 107.5t-104 308.5zM252 1575l233 289h70l236 -289h-74l-199 240l-192 -240h-74z" />
<glyph unicode="&#xdc;" d="M111 381v1094h92v-1049q0 -90 16.5 -160.5t53 -120t98 -75t153.5 -25.5t153.5 26.5t99.5 76t53.5 120t15.5 158.5v1049h92v-1094q0 -203 -104.5 -309.5t-309.5 -106.5t-309 107.5t-104 308.5zM289 1663q0 33 23.5 53.5t54.5 20.5t55 -20.5t24 -53.5q0 -31 -24.5 -52.5 t-54.5 -21.5q-31 0 -54.5 21.5t-23.5 52.5zM635 1663q0 33 23.5 53.5t54.5 20.5t54.5 -20.5t23.5 -53.5q0 -31 -24 -52.5t-54 -21.5q-31 0 -54.5 21.5t-23.5 52.5z" />
<glyph unicode="&#xdd;" d="M111 1112v363h92v-318q0 -88 16.5 -158.5t53 -120t98 -76t153.5 -26.5t153.5 26.5t99.5 76t53.5 120t15.5 158.5v318h92v-363q0 -188 -93 -293.5t-274 -116.5v-702h-92v702q-184 10 -276 116t-92 294zM428 1606l260 297h107l-306 -297h-61z" />
<glyph unicode="&#xde;" horiz-adv-x="1050" d="M111 0v1475h92v-244h315q221 0 339 -108.5t118 -303.5q0 -102 -36 -179t-99.5 -129t-151.5 -78.5t-192 -26.5h-293v-406h-92zM203 485h299q80 0 150.5 21.5t121.5 63.5t81 103.5t30 143.5q0 164 -96.5 248t-282.5 84h-303v-664z" />
<glyph unicode="&#xdf;" horiz-adv-x="1042" d="M111 0v1124q0 180 103 278.5t280 98.5q76 0 147.5 -23.5t126.5 -68.5t88 -109.5t33 -146.5q0 -125 -61.5 -215t-188.5 -117q168 -14 248 -120.5t80 -266.5q0 -227 -125 -331.5t-346 -104.5h-30.5t-31.5 2v76q16 -2 29.5 -3t28.5 -1q186 0 286.5 88t100.5 280 q0 106 -33 173t-90.5 105t-136 52t-168.5 14h-17v64h17q74 0 138 15.5t112.5 51t77 92t28.5 138.5q0 68 -24.5 119t-67.5 86.5t-99.5 54t-119.5 18.5q-143 0 -221 -76.5t-78 -222.5v-1124h-86z" />
<glyph unicode="&#xe0;" horiz-adv-x="1128" d="M76 508q0 115 30.5 218t94 182t157 125t220.5 46q111 0 206 -48t148 -140v164h86v-1055h-86v184q-53 -100 -149.5 -154.5t-225.5 -54.5q-115 0 -204 42t-150.5 115t-94 169t-32.5 207zM162 508q0 -92 25.5 -176t76.5 -147.5t127 -100.5t176 -37q72 0 137.5 21.5 t116.5 63.5t81 101.5t30 133.5v356q0 59 -31 111.5t-80 90.5t-110.5 59.5t-122.5 21.5q-119 0 -201 -44t-132 -116t-71.5 -161t-21.5 -177zM375 1454h106l250 -295l-63 -2z" />
<glyph unicode="&#xe1;" horiz-adv-x="1128" d="M76 508q0 115 30.5 218t94 182t157 125t220.5 46q111 0 206 -48t148 -140v164h86v-1055h-86v184q-53 -100 -149.5 -154.5t-225.5 -54.5q-115 0 -204 42t-150.5 115t-94 169t-32.5 207zM162 508q0 -92 25.5 -176t76.5 -147.5t127 -100.5t176 -37q72 0 137.5 21.5 t116.5 63.5t81 101.5t30 133.5v356q0 59 -31 111.5t-80 90.5t-110.5 59.5t-122.5 21.5q-119 0 -201 -44t-132 -116t-71.5 -161t-21.5 -177zM385 1157l262 297h107l-308 -297h-61z" />
<glyph unicode="&#xe2;" horiz-adv-x="1128" d="M76 508q0 115 30.5 218t94 182t157 125t220.5 46q111 0 206 -48t148 -140v164h86v-1055h-86v184q-53 -100 -149.5 -154.5t-225.5 -54.5q-115 0 -204 42t-150.5 115t-94 169t-32.5 207zM162 508q0 -92 25.5 -176t76.5 -147.5t127 -100.5t176 -37q72 0 137.5 21.5 t116.5 63.5t81 101.5t30 133.5v356q0 59 -31 111.5t-80 90.5t-110.5 59.5t-122.5 21.5q-119 0 -201 -44t-132 -116t-71.5 -161t-21.5 -177zM301 1167l234 287h67l236 -287h-74l-199 240l-190 -240h-74z" />
<glyph unicode="&#xe3;" horiz-adv-x="1128" d="M76 508q0 115 30.5 218t94 182t157 125t220.5 46q111 0 206 -48t148 -140v164h86v-1055h-86v184q-53 -100 -149.5 -154.5t-225.5 -54.5q-115 0 -204 42t-150.5 115t-94 169t-32.5 207zM162 508q0 -92 25.5 -176t76.5 -147.5t127 -100.5t176 -37q72 0 137.5 21.5 t116.5 63.5t81 101.5t30 133.5v356q0 59 -31 111.5t-80 90.5t-110.5 59.5t-122.5 21.5q-119 0 -201 -44t-132 -116t-71.5 -161t-21.5 -177zM311 1186q0 31 11.5 61.5t32 57t48 43t58.5 16.5q37 0 72.5 -18.5t69.5 -40t64.5 -39t59.5 -17.5q47 0 72.5 32t27.5 77h58h-2 q0 -66 -38 -118t-114 -52q-41 0 -74.5 17.5t-65.5 39t-63.5 40t-64.5 18.5q-20 0 -37.5 -11.5t-31 -29t-20.5 -38t-7 -38.5h-56z" />
<glyph unicode="&#xe4;" horiz-adv-x="1128" d="M76 508q0 115 30.5 218t94 182t157 125t220.5 46q111 0 206 -48t148 -140v164h86v-1055h-86v184q-53 -100 -149.5 -154.5t-225.5 -54.5q-115 0 -204 42t-150.5 115t-94 169t-32.5 207zM162 508q0 -92 25.5 -176t76.5 -147.5t127 -100.5t176 -37q72 0 137.5 21.5 t116.5 63.5t81 101.5t30 133.5v356q0 59 -31 111.5t-80 90.5t-110.5 59.5t-122.5 21.5q-119 0 -201 -44t-132 -116t-71.5 -161t-21.5 -177zM346 1255q0 33 23.5 53.5t54.5 20.5t54.5 -20.5t23.5 -53.5t-23.5 -53t-54.5 -20t-54.5 20.5t-23.5 52.5zM692 1255q0 33 23.5 53.5 t54.5 20.5t54.5 -20.5t23.5 -53.5t-23.5 -53t-54.5 -20t-54.5 20.5t-23.5 52.5z" />
<glyph unicode="&#xe5;" horiz-adv-x="1128" d="M76 508q0 115 30.5 218t94 182t157 125t220.5 46q111 0 206 -48t148 -140v164h86v-1055h-86v184q-53 -100 -149.5 -154.5t-225.5 -54.5q-115 0 -204 42t-150.5 115t-94 169t-32.5 207zM162 508q0 -92 25.5 -176t76.5 -147.5t127 -100.5t176 -37q72 0 137.5 21.5 t116.5 63.5t81 101.5t30 133.5v356q0 59 -31 111.5t-80 90.5t-110.5 59.5t-122.5 21.5q-119 0 -201 -44t-132 -116t-71.5 -161t-21.5 -177zM397 1378q0 37 15.5 71t41 59.5t60.5 41t72 15.5t70.5 -15.5t59 -41t41 -59.5t15.5 -71q0 -39 -15.5 -72.5t-41 -59t-59 -40 t-70.5 -14.5t-72 14.5t-60.5 40t-41 59t-15.5 72.5zM449 1378q0 -55 40.5 -95t96.5 -40q53 0 94 40t41 95t-41 95t-94 40q-55 0 -96 -39.5t-41 -95.5z" />
<glyph unicode="&#xe6;" horiz-adv-x="1929" d="M76 508q0 115 30.5 218t94 182t157 125t220.5 46q111 0 206 -48t148 -140v164h74v-262q51 127 156.5 206.5t271.5 79.5q82 0 153.5 -24.5t128 -69.5t92 -111.5t45.5 -148.5l-829 -303q10 -78 40 -145.5t78 -119t116.5 -81t154.5 -29.5q72 0 134.5 22.5t109.5 64.5 t76.5 100.5t35.5 132.5h84q-10 -92 -45.5 -164t-93 -123t-134.5 -78t-169 -27q-150 0 -252 75t-153 192v-242h-74v184q-53 -100 -149.5 -154.5t-225.5 -54.5q-115 0 -204 42t-150.5 115t-94 169t-32.5 207zM162 508q0 -92 25.5 -176t76.5 -147.5t127 -100.5t176 -37 q72 0 137.5 21.5t116.5 63.5t81 101.5t30 133.5v356q0 59 -31 111.5t-80 90.5t-110.5 59.5t-122.5 21.5q-119 0 -201 -44t-132 -116t-71.5 -161t-21.5 -177zM1020 487l741 271q-29 117 -115.5 182.5t-211.5 65.5q-106 0 -184.5 -40t-129.5 -106.5t-75.5 -154t-24.5 -183.5 v-35z" />
<glyph unicode="&#xe7;" horiz-adv-x="1073" d="M76 508q0 117 31.5 220t94 181t157 124t219.5 46q82 0 153.5 -24.5t127.5 -70.5t92 -111.5t46 -149.5h-84q-20 135 -110 209t-223 74q-111 0 -190 -41t-129 -110t-74.5 -159t-24.5 -188q0 -90 24.5 -174t74.5 -147.5t124 -101.5t172 -38q72 0 134.5 22.5t110.5 64.5 t76.5 100.5t34.5 132.5h84q-16 -178 -129.5 -280.5t-287.5 -111.5l-66 -92q14 2 28.5 7.5t41.5 5.5q63 0 112 -29t49 -100q0 -47 -17 -77t-47 -46.5t-68 -23.5t-76 -7q-59 0 -104.5 13.5t-80.5 23.5l23 47q37 -12 74.5 -23.5t78.5 -11.5q27 0 54.5 5t49 17.5t35 32 t13.5 50.5q0 20 -11.5 35.5t-27.5 25.5t-35.5 15t-34.5 5q-66 0 -106 -26l-35 24l98 129q-109 6 -192.5 50.5t-142 116t-88 166.5t-29.5 200z" />
<glyph unicode="&#xe8;" horiz-adv-x="1058" d="M76 508q0 117 31.5 220t94 181t157 124t219.5 46q82 0 153.5 -24.5t127.5 -69.5t92 -111.5t46 -148.5l-829 -303q10 -78 40 -145.5t78 -119t116.5 -81t154.5 -29.5q72 0 134.5 22.5t110.5 64.5t76.5 100.5t34.5 132.5h84q-18 -184 -138 -288t-302 -104q-115 0 -204 43 t-150.5 116t-94 169t-32.5 205zM164 487l741 271q-29 117 -116 182.5t-209 65.5q-109 0 -187 -40t-128 -106.5t-75.5 -154t-25.5 -183.5v-35zM389 1454h105l249 -295l-61 -2z" />
<glyph unicode="&#xe9;" horiz-adv-x="1058" d="M76 508q0 117 31.5 220t94 181t157 124t219.5 46q82 0 153.5 -24.5t127.5 -69.5t92 -111.5t46 -148.5l-829 -303q10 -78 40 -145.5t78 -119t116.5 -81t154.5 -29.5q72 0 134.5 22.5t110.5 64.5t76.5 100.5t34.5 132.5h84q-18 -184 -138 -288t-302 -104q-115 0 -204 43 t-150.5 116t-94 169t-32.5 205zM164 487l741 271q-29 117 -116 182.5t-209 65.5q-109 0 -187 -40t-128 -106.5t-75.5 -154t-25.5 -183.5v-35zM391 1157l262 297h105l-305 -297h-62z" />
<glyph unicode="&#xea;" horiz-adv-x="1058" d="M76 508q0 117 31.5 220t94 181t157 124t219.5 46q82 0 153.5 -24.5t127.5 -69.5t92 -111.5t46 -148.5l-829 -303q10 -78 40 -145.5t78 -119t116.5 -81t154.5 -29.5q72 0 134.5 22.5t110.5 64.5t76.5 100.5t34.5 132.5h84q-18 -184 -138 -288t-302 -104q-115 0 -204 43 t-150.5 116t-94 169t-32.5 205zM164 487l741 271q-29 117 -116 182.5t-209 65.5q-109 0 -187 -40t-128 -106.5t-75.5 -154t-25.5 -183.5v-35zM313 1167l234 287h69l236 -287h-74l-198 240l-193 -240h-74z" />
<glyph unicode="&#xeb;" horiz-adv-x="1058" d="M76 508q0 117 31.5 220t94 181t157 124t219.5 46q82 0 153.5 -24.5t127.5 -69.5t92 -111.5t46 -148.5l-829 -303q10 -78 40 -145.5t78 -119t116.5 -81t154.5 -29.5q72 0 134.5 22.5t110.5 64.5t76.5 100.5t34.5 132.5h84q-18 -184 -138 -288t-302 -104q-115 0 -204 43 t-150.5 116t-94 169t-32.5 205zM164 487l741 271q-29 117 -116 182.5t-209 65.5q-109 0 -187 -40t-128 -106.5t-75.5 -154t-25.5 -183.5v-35zM334 1255q0 33 23.5 53.5t54.5 20.5t54 -20.5t23 -53.5t-23.5 -53t-53.5 -20q-31 0 -54.5 20.5t-23.5 52.5zM680 1255 q0 33 23.5 53.5t54.5 20.5t54.5 -20.5t23.5 -53.5t-24 -53t-54 -20q-31 0 -54.5 20.5t-23.5 52.5z" />
<glyph unicode="&#xec;" horiz-adv-x="307" d="M-16 1454h104l250 -295l-62 -2zM111 0v1055h86v-1055h-86z" />
<glyph unicode="&#xed;" horiz-adv-x="307" d="M-16 1157l262 297h104l-305 -297h-61zM111 0v1055h86v-1055h-86z" />
<glyph unicode="&#xee;" horiz-adv-x="307" d="M-113 1167l234 287h69l236 -287h-74l-198 240l-193 -240h-74zM111 0v1055h86v-1055h-86z" />
<glyph unicode="&#xef;" horiz-adv-x="307" d="M-92 1255q0 33 23.5 53.5t54.5 20.5t54 -20.5t23 -53.5t-23.5 -53t-53.5 -20q-31 0 -54.5 20.5t-23.5 52.5zM111 0v1055h86v-1055h-86zM254 1255q0 33 23.5 53.5t54.5 20.5t54.5 -20.5t23.5 -53.5t-24 -53t-54 -20q-31 0 -54.5 20.5t-23.5 52.5z" />
<glyph unicode="&#xf0;" horiz-adv-x="1126" d="M76 506q0 106 31.5 202.5t93 169t150.5 114.5t204 42q90 0 177 -34.5t145 -106.5q-27 51 -64 105.5t-80 106.5t-88 99t-90 84l-236 -131l-45 47l228 127q-80 63 -174 115l65 47q47 -25 94.5 -57.5t87.5 -65.5l234 129l47 -49l-225 -125q90 -84 166.5 -172t133 -186.5 t88.5 -209t32 -239.5q0 -111 -32 -209t-94.5 -173t-153.5 -118t-210 -43q-115 0 -205 42t-152.5 114t-95 168t-32.5 207zM162 508q0 -92 25.5 -175t76.5 -146.5t126 -101.5t173 -38t173 38t126 101.5t77 147.5t26 174t-27 173t-77 145.5t-124.5 100.5t-173.5 38 q-98 0 -173 -38t-125 -100.5t-76.5 -145.5t-26.5 -173z" />
<glyph unicode="&#xf1;" horiz-adv-x="1058" d="M111 0v1055h86v-244q41 133 141 200.5t235 67.5q174 0 274.5 -101t100.5 -276v-702h-86v676q0 147 -78.5 237.5t-230.5 90.5q-88 0 -154.5 -34t-111.5 -91.5t-67.5 -131t-22.5 -155.5v-592h-86zM281 1186q0 31 11 61.5t31.5 57t48 43t58.5 16.5q37 0 73 -18.5t69.5 -40 t64.5 -39t59 -17.5q47 0 73 32t28 77h57q-2 -66 -40 -118t-114 -52q-41 0 -74.5 17.5t-65.5 39t-63.5 40t-64.5 18.5q-20 0 -37.5 -11.5t-30 -29t-20.5 -38t-8 -38.5h-55z" />
<glyph unicode="&#xf2;" horiz-adv-x="1126" d="M76 526q0 109 30.5 208.5t92 176t152.5 122.5t212 46q119 0 210 -46t152.5 -122.5t93.5 -176t32 -208.5t-32 -208t-93.5 -175.5t-152.5 -122t-210 -45.5q-121 0 -212 45.5t-152.5 122t-92 176t-30.5 207.5zM162 526q0 -92 24.5 -178t74.5 -153.5t126 -107.5t176 -40 t175 40t125 107.5t76 153.5t26 178t-26 178.5t-76 153t-124.5 107.5t-175.5 41q-100 0 -176 -41t-126 -107.5t-74.5 -153t-24.5 -178.5zM373 1454h106l250 -295l-63 -2z" />
<glyph unicode="&#xf3;" horiz-adv-x="1126" d="M76 526q0 109 30.5 208.5t92 176t152.5 122.5t212 46q119 0 210 -46t152.5 -122.5t93.5 -176t32 -208.5t-32 -208t-93.5 -175.5t-152.5 -122t-210 -45.5q-121 0 -212 45.5t-152.5 122t-92 176t-30.5 207.5zM162 526q0 -92 24.5 -178t74.5 -153.5t126 -107.5t176 -40 t175 40t125 107.5t76 153.5t26 178t-26 178.5t-76 153t-124.5 107.5t-175.5 41q-100 0 -176 -41t-126 -107.5t-74.5 -153t-24.5 -178.5zM414 1157l262 297h106l-307 -297h-61z" />
<glyph unicode="&#xf4;" horiz-adv-x="1126" d="M76 526q0 109 30.5 208.5t92 176t152.5 122.5t212 46q119 0 210 -46t152.5 -122.5t93.5 -176t32 -208.5t-32 -208t-93.5 -175.5t-152.5 -122t-210 -45.5q-121 0 -212 45.5t-152.5 122t-92 176t-30.5 207.5zM162 526q0 -92 24.5 -178t74.5 -153.5t126 -107.5t176 -40 t175 40t125 107.5t76 153.5t26 178t-26 178.5t-76 153t-124.5 107.5t-175.5 41q-100 0 -176 -41t-126 -107.5t-74.5 -153t-24.5 -178.5zM295 1167l233 287h70l236 -287h-74l-199 240l-192 -240h-74z" />
<glyph unicode="&#xf5;" horiz-adv-x="1126" d="M76 526q0 109 30.5 208.5t92 176t152.5 122.5t212 46q119 0 210 -46t152.5 -122.5t93.5 -176t32 -208.5t-32 -208t-93.5 -175.5t-152.5 -122t-210 -45.5q-121 0 -212 45.5t-152.5 122t-92 176t-30.5 207.5zM162 526q0 -92 24.5 -178t74.5 -153.5t126 -107.5t176 -40 t175 40t125 107.5t76 153.5t26 178t-26 178.5t-76 153t-124.5 107.5t-175.5 41q-100 0 -176 -41t-126 -107.5t-74.5 -153t-24.5 -178.5zM279 1186q0 31 11 61.5t31.5 57t48 43t58.5 16.5q37 0 73 -18.5t69.5 -40t64.5 -39t59 -17.5q47 0 73 32t28 77h57h-2q0 -66 -38 -118 t-114 -52q-41 0 -74.5 17.5t-65.5 39t-63.5 40t-64.5 18.5q-20 0 -37.5 -11.5t-31 -29t-20.5 -38t-7 -38.5h-55z" />
<glyph unicode="&#xf6;" horiz-adv-x="1126" d="M76 526q0 109 30.5 208.5t92 176t152.5 122.5t212 46q119 0 210 -46t152.5 -122.5t93.5 -176t32 -208.5t-32 -208t-93.5 -175.5t-152.5 -122t-210 -45.5q-121 0 -212 45.5t-152.5 122t-92 176t-30.5 207.5zM162 526q0 -92 24.5 -178t74.5 -153.5t126 -107.5t176 -40 t175 40t125 107.5t76 153.5t26 178t-26 178.5t-76 153t-124.5 107.5t-175.5 41q-100 0 -176 -41t-126 -107.5t-74.5 -153t-24.5 -178.5zM315 1255q0 33 23.5 53.5t54.5 20.5t54.5 -20.5t23.5 -53.5t-23.5 -53t-54.5 -20t-54.5 20.5t-23.5 52.5zM662 1255q0 33 23.5 53.5 t53.5 20.5q31 0 54.5 -20.5t23.5 -53.5t-23.5 -53t-54.5 -20t-54 20.5t-23 52.5z" />
<glyph unicode="&#xf7;" horiz-adv-x="1216" d="M92 700v74h1032v-74h-1032zM510 305q0 43 28.5 70.5t69.5 27.5t71 -28.5t30 -69.5t-25 -70.5t-76 -29.5q-49 0 -73.5 29.5t-24.5 70.5zM510 1169q0 43 28.5 72t69.5 29t71 -30t30 -71t-25 -69.5t-76 -28.5q-49 0 -73.5 28.5t-24.5 69.5z" />
<glyph unicode="&#xf8;" horiz-adv-x="1126" d="M63 39l123 127q-55 72 -82.5 166t-27.5 194q0 109 30.5 208.5t92 176t152.5 122.5t212 46q111 0 197 -40t147 -109l92 98l35 -33l-96 -102q55 -72 84 -167.5t29 -199.5q0 -109 -32 -208t-93.5 -175.5t-152.5 -122t-210 -45.5q-115 0 -201 41t-147 111l-117 -121zM162 526 q0 -82 19.5 -157.5t60.5 -139.5l610 641q-47 61 -118.5 98.5t-170.5 37.5q-100 0 -176 -41t-126 -107.5t-74.5 -153t-24.5 -178.5zM270 188q47 -66 121 -103.5t172 -37.5q100 0 175 40t125 107.5t76 153.5t26 178q0 84 -21.5 161t-64.5 142z" />
<glyph unicode="&#xf9;" horiz-adv-x="1058" d="M111 352v703h86v-676q0 -147 77.5 -237.5t231.5 -90.5q88 0 154.5 34t110.5 90t66.5 131t22.5 157v592h88v-1055h-86v242q-41 -133 -141 -200t-238 -67q-174 0 -273 101.5t-99 275.5zM319 1454h105l250 -295l-62 -2z" />
<glyph unicode="&#xfa;" horiz-adv-x="1058" d="M111 352v703h86v-676q0 -147 77.5 -237.5t231.5 -90.5q88 0 154.5 34t110.5 90t66.5 131t22.5 157v592h88v-1055h-86v242q-41 -133 -141 -200t-238 -67q-174 0 -273 101.5t-99 275.5zM360 1157l263 297h104l-305 -297h-62z" />
<glyph unicode="&#xfb;" horiz-adv-x="1058" d="M111 352v703h86v-676q0 -147 77.5 -237.5t231.5 -90.5q88 0 154.5 34t110.5 90t66.5 131t22.5 157v592h88v-1055h-86v242q-41 -133 -141 -200t-238 -67q-174 0 -273 101.5t-99 275.5zM260 1167l234 287h69l236 -287h-74l-199 240l-192 -240h-74z" />
<glyph unicode="&#xfc;" horiz-adv-x="1058" d="M111 352v703h86v-676q0 -147 77.5 -237.5t231.5 -90.5q88 0 154.5 34t110.5 90t66.5 131t22.5 157v592h88v-1055h-86v242q-41 -133 -141 -200t-238 -67q-174 0 -273 101.5t-99 275.5zM283 1255q0 33 23.5 53.5t53.5 20.5q31 0 54.5 -20.5t23.5 -53.5t-23.5 -53t-54.5 -20 t-54 20.5t-23 52.5zM629 1255q0 33 23.5 53.5t54.5 20.5t54 -20.5t23 -53.5t-23.5 -53t-53.5 -20q-31 0 -54.5 20.5t-23.5 52.5z" />
<glyph unicode="&#xfd;" horiz-adv-x="1058" d="M74 -123h86q4 -72 31.5 -122t72.5 -82.5t103.5 -48t124.5 -15.5q180 0 275 92t95 272v269q-41 -133 -141 -200t-238 -67q-174 0 -273 101.5t-99 275.5v703h86v-676q0 -147 77.5 -237.5t231.5 -90.5q88 0 154.5 34t110.5 90t66.5 131t22.5 157v592h88v-1080 q0 -209 -112.5 -320.5t-339.5 -111.5q-82 0 -157 18.5t-132 58.5t-93 103.5t-40 153.5zM385 1198l262 295h107l-305 -295h-64z" />
<glyph unicode="&#xfe;" horiz-adv-x="1128" d="M111 -422v1897h86v-584q53 92 148 140t206 48q125 0 219 -46t157.5 -124t94.5 -181t31 -220q0 -111 -33 -207t-94.5 -169t-151.5 -115t-203 -42q-129 0 -225 54.5t-149 154.5v-606h-86zM197 367q0 -74 29.5 -133.5t80.5 -101.5t116.5 -63.5t137.5 -21.5q100 0 176 37 t127 100.5t77 147.5t26 176q0 88 -21.5 177t-72 161t-132.5 116t-200 44q-61 0 -123 -21.5t-111 -59.5t-79.5 -89.5t-30.5 -110.5v-358z" />
<glyph unicode="&#xff;" horiz-adv-x="1058" d="M74 -123h86q4 -72 31.5 -122t72.5 -82.5t103.5 -48t124.5 -15.5q180 0 275 92t95 272v269q-41 -133 -141 -200t-238 -67q-174 0 -273 101.5t-99 275.5v703h86v-676q0 -147 77.5 -237.5t231.5 -90.5q88 0 154.5 34t110.5 90t66.5 131t22.5 157v592h88v-1080 q0 -209 -112.5 -320.5t-339.5 -111.5q-82 0 -157 18.5t-132 58.5t-93 103.5t-40 153.5zM289 1294q0 33 23.5 53.5t54.5 20.5t54 -20.5t23 -53.5q0 -31 -23.5 -52t-53.5 -21q-31 0 -54.5 21.5t-23.5 51.5zM635 1294q0 33 23.5 53.5t54.5 20.5t54.5 -20.5t23.5 -53.5 q0 -31 -24 -52t-54 -21q-31 0 -54.5 21.5t-23.5 51.5z" />
<glyph unicode="&#x152;" horiz-adv-x="2226" d="M76 727q0 158 45 299t133 248.5t217 171t299 63.5q74 0 151.5 -19.5t149.5 -56t130.5 -89t94.5 -117.5v248h830v-82h-744v-617h686v-78h-686v-616h754v-82h-840v348q-33 -86 -83 -155.5t-118.5 -121t-155.5 -79t-191 -27.5q-162 0 -287 62.5t-211 168t-130 242.5t-44 289 zM168 727q0 -129 37 -252t110.5 -218t181 -152.5t248.5 -57.5q121 0 215.5 40t162 109.5t108.5 166t57 210.5v449q-10 94 -59 170t-122 128t-161 79.5t-176 27.5q-147 0 -260 -58t-188.5 -156.5t-114.5 -224.5t-39 -261z" />
<glyph unicode="&#x153;" horiz-adv-x="1961" d="M76 526q0 109 30.5 208.5t92 176t152.5 122.5t212 46q88 0 162 -27.5t129 -74.5t94 -111.5t62 -138.5q23 76 61.5 139.5t95 110.5t131 73.5t168.5 26.5q82 0 154 -24.5t128 -69.5t92 -111.5t46 -148.5l-829 -303q8 -78 37.5 -145.5t79 -119t118 -81t154.5 -29.5 q72 0 134 22.5t109.5 64.5t77 100.5t35.5 132.5h84q-10 -92 -46 -164t-94 -123t-135 -78t-167 -27q-86 0 -158 26t-127 72t-94 107.5t-59 134.5q-23 -72 -62 -134t-95 -107t-128 -71t-158 -26q-121 0 -212 45.5t-152.5 122t-92 176t-30.5 207.5zM162 526q0 -92 24.5 -178 t74.5 -153.5t126 -107.5t176 -40t175 40t125 107.5t76 153.5t26 178t-26 178.5t-76 153t-124.5 107.5t-175.5 41q-100 0 -176 -41t-126 -107.5t-74.5 -153t-24.5 -178.5zM1051 502q0 -8 2 -17l741 271q-29 117 -116 182.5t-212 65.5q-106 0 -184 -40t-129 -106.5t-76.5 -154 t-25.5 -183.5v-18z" />
<glyph unicode="&#x178;" d="M111 1112v363h92v-318q0 -88 16.5 -158.5t53 -120t98 -76t153.5 -26.5t153.5 26.5t99.5 76t53.5 120t15.5 158.5v318h92v-363q0 -188 -93 -293.5t-274 -116.5v-702h-92v702q-184 10 -276 116t-92 294zM279 1663q0 33 23.5 53.5t53.5 20.5q31 0 54.5 -20.5t23.5 -53.5 q0 -31 -23.5 -52.5t-54.5 -21.5t-54 21.5t-23 52.5zM625 1663q0 33 23.5 53.5t53.5 20.5q31 0 54.5 -20.5t23.5 -53.5q0 -31 -23.5 -52.5t-54.5 -21.5t-54 21.5t-23 52.5z" />
<glyph unicode="&#x2c6;" horiz-adv-x="0" d="M295 1167l233 287h68l235 -287h-73l-199 240l-190 -240h-74z" />
<glyph unicode="&#x2dc;" horiz-adv-x="0" d="M276 1186q0 31 11.5 61.5t32 57t48 43t60.5 16.5q37 0 72 -18.5t68.5 -40t65.5 -39t60 -17.5q45 0 71 32t28 77h57q0 -66 -38 -118t-116 -52q-41 0 -74.5 17.5t-65.5 39t-62.5 40t-63.5 18.5q-43 0 -69.5 -40t-28.5 -77h-56z" />
<glyph unicode="&#x2000;" horiz-adv-x="951" />
<glyph unicode="&#x2001;" horiz-adv-x="1903" />
<glyph unicode="&#x2002;" horiz-adv-x="951" />
<glyph unicode="&#x2003;" horiz-adv-x="1903" />
<glyph unicode="&#x2004;" horiz-adv-x="634" />
<glyph unicode="&#x2005;" horiz-adv-x="475" />
<glyph unicode="&#x2006;" horiz-adv-x="317" />
<glyph unicode="&#x2007;" horiz-adv-x="317" />
<glyph unicode="&#x2008;" horiz-adv-x="237" />
<glyph unicode="&#x2009;" horiz-adv-x="380" />
<glyph unicode="&#x200a;" horiz-adv-x="105" />
<glyph unicode="&#x2010;" horiz-adv-x="577" d="M92 510v78h393v-78h-393z" />
<glyph unicode="&#x2011;" horiz-adv-x="577" d="M92 510v78h393v-78h-393z" />
<glyph unicode="&#x2012;" horiz-adv-x="577" d="M92 510v78h393v-78h-393z" />
<glyph unicode="&#x2013;" horiz-adv-x="1208" d="M92 510v78h1024v-78h-1024z" />
<glyph unicode="&#x2014;" horiz-adv-x="2232" d="M92 510v78h2048v-78h-2048z" />
<glyph unicode="&#x2018;" horiz-adv-x="315" d="M0 1462l66 37l249 -434l-65 -37z" />
<glyph unicode="&#x2019;" horiz-adv-x="315" d="M0 1065l250 434l65 -37l-249 -434z" />
<glyph unicode="&#x201a;" horiz-adv-x="315" d="M0 -203l250 434l65 -38l-249 -433z" />
<glyph unicode="&#x201c;" horiz-adv-x="512" d="M0 1462l66 37l249 -434l-65 -37zM197 1462l65 37l250 -434l-66 -37z" />
<glyph unicode="&#x201d;" horiz-adv-x="512" d="M0 1065l250 434l65 -37l-249 -434zM197 1065l249 434l66 -37l-250 -434z" />
<glyph unicode="&#x201e;" horiz-adv-x="514" d="M0 -203l250 434l65 -38l-249 -433zM199 -203l252 434l63 -38l-250 -433z" />
<glyph unicode="&#x2022;" horiz-adv-x="563" d="M76 737q0 43 15 80t43 64.5t66 44t81 16.5t80.5 -16.5t65.5 -44t44 -64.5t16 -80t-16 -81t-44 -65.5t-65.5 -44t-80.5 -16.5t-81 16.5t-66 44t-43 65.5t-15 81z" />
<glyph unicode="&#x2026;" horiz-adv-x="2048" d="M264 72q0 31 23.5 52t54.5 21t54.5 -21t23.5 -52q0 -33 -23.5 -54.5t-54.5 -21.5t-54.5 21.5t-23.5 54.5zM946 72q0 31 23.5 52t54.5 21t54.5 -21t23.5 -52q0 -33 -23.5 -54.5t-54.5 -21.5t-54.5 21.5t-23.5 54.5zM1628 72q0 31 23.5 52t54.5 21t54.5 -21t23.5 -52 q0 -33 -23.5 -54.5t-54.5 -21.5t-54.5 21.5t-23.5 54.5z" />
<glyph unicode="&#x202f;" horiz-adv-x="380" />
<glyph unicode="&#x2039;" horiz-adv-x="411" d="M92 700v74l227 283v-103l-169 -217l169 -217v-102z" />
<glyph unicode="&#x203a;" horiz-adv-x="411" d="M92 418v102l168 217l-168 217v103l227 -283v-74z" />
<glyph unicode="&#x205f;" horiz-adv-x="475" />
<glyph unicode="&#x2122;" horiz-adv-x="1671" d="M78 1356q0 51 25.5 85t97.5 34h469v-62h-262v-749h-68v749h-127q-55 0 -67.5 -20.5t-12.5 -55.5zM684 664v598q0 111 59.5 171t176.5 60q147 0 202 -104q55 104 201 104q117 0 177.5 -60.5t60.5 -170.5v-598h-68v573q0 94 -36 145.5t-134 51.5q-96 0 -132 -51.5 t-36 -145.5v-573h-68v573q0 94 -34.5 145.5t-132.5 51.5t-133 -51.5t-35 -145.5v-573h-68z" />
<glyph unicode="&#x25fc;" horiz-adv-x="1054" d="M0 0v1055h1055v-1055h-1055z" />
<glyph unicode="&#xfb01;" horiz-adv-x="616" d="M0 983v68h111v237q0 63 15 104.5t43 66t62.5 33.5t75.5 9q49 0 72.5 -3t46.5 -5v-74q-10 4 -34.5 5t-55.5 1q-25 0 -50.5 -4t-45 -19.5t-31.5 -47t-12 -86.5v-213h309v-1055h-88v983h-221v-983h-86v983h-111z" />
<glyph unicode="&#xfb02;" horiz-adv-x="616" d="M0 983v68h111v237q0 63 15 104.5t43 66t62.5 33.5t75.5 9q25 0 46.5 -3t43.5 -5q27 0 49 -2q18 -2 36 -3t24 -3v-1485h-88v1421q-14 2 -36 3t-46 1q-25 0 -50.5 -4t-45 -19.5t-31.5 -48t-12 -87.5v-211h110v-72h-110v-983h-86v983h-111z" />
</font>
</defs>
</svg>
