<?xml version="1.0" standalone="no"?>
<!DOCTYPE svg PUBLIC "-//W3C//DTD SVG 1.1//EN" "http://www.w3.org/Graphics/SVG/1.1/DTD/svg11.dtd" >
<svg xmlns="http://www.w3.org/2000/svg" xmlns:xlink="http://www.w3.org/1999/xlink" version="1.1">
<metadata></metadata>
<defs>
<font id="clementepdaahairline" horiz-adv-x="1011" >
<font-face units-per-em="2048" ascent="1638" descent="-410" />
<missing-glyph horiz-adv-x="569" />
<glyph horiz-adv-x="0" />
<glyph unicode="&#xd;" horiz-adv-x="0" />
<glyph unicode=" "  horiz-adv-x="569" />
<glyph unicode="&#x09;" horiz-adv-x="569" />
<glyph unicode="&#xa0;" horiz-adv-x="569" />
<glyph unicode="!" horiz-adv-x="262" d="M76 31q0 23 16.5 39t38.5 16q23 0 39 -16t16 -39t-16 -39.5t-39 -16.5t-39 16.5t-16 39.5zM100 1475h62l-10 -1297h-41z" />
<glyph unicode="&#x22;" horiz-adv-x="413" d="M111 1014v461h41v-461h-41zM262 1014v461h41v-461h-41z" />
<glyph unicode="#" horiz-adv-x="1191" d="M0 522l6 41h348l49 348h-348l6 41h349l71 523h43l-71 -523h348l71 523h43l-71 -523h348l-6 -41h-348l-50 -348h349l-7 -41h-348l-73 -522h-43l73 522h-348l-74 -522h-43l74 522h-348zM397 563h348l50 348h-349z" />
<glyph unicode="$" horiz-adv-x="888" d="M35 571h41q0 -176 100 -260t285 -84q57 0 117.5 13.5t109.5 43t81 77t32 114.5q0 70 -32 113t-82 70.5t-115.5 44t-133.5 32.5q-66 16 -130 31.5t-116.5 45.5t-84 79t-31.5 133q0 43 18.5 90t60.5 85t109.5 63.5t163.5 25.5v187h41v-187q160 -10 252 -90t92 -246h-41 q0 80 -24.5 135.5t-69.5 91t-107.5 52t-138.5 16.5q-111 0 -174 -29.5t-94 -68.5t-39 -75t-8 -50q0 -78 39 -123t96 -70.5t124.5 -40t127.5 -28.5q61 -16 121.5 -33.5t108.5 -48.5t78 -78t30 -123q0 -78 -33 -133t-86 -90t-119.5 -52.5t-134.5 -17.5v-186h-41v186 q-193 8 -293 100.5t-100 284.5z" />
<glyph unicode="%" horiz-adv-x="1335" d="M76 1120q0 78 20.5 142.5t60.5 111.5t98 74t132 27h743v-41l-911 -1434h-47l911 1434h-530q76 -43 114 -124t38 -188q0 -72 -20.5 -134t-61.5 -110.5t-100.5 -76t-135.5 -27.5q-80 0 -139.5 28.5t-97 77t-56 111t-18.5 129.5zM117 1120q0 -61 16.5 -117.5t50 -97.5 t84.5 -65.5t119 -24.5t120 24.5t87 66.5t52.5 97.5t17.5 116.5q0 141 -68 227.5t-209 86.5t-205.5 -89.5t-64.5 -224.5zM631 322q0 78 20.5 142t60.5 111.5t98 74t132 26.5q156 0 237 -99t81 -253q0 -72 -20.5 -134.5t-61.5 -110.5t-100.5 -76t-135.5 -28q-80 0 -139.5 29 t-97 77t-56 110.5t-18.5 130.5zM672 322q0 -61 16.5 -118t50 -97.5t84.5 -65.5t119 -25t120 25t87 67t52.5 97.5t17.5 116.5q0 141 -68 227t-209 86t-205.5 -89t-64.5 -224z" />
<glyph unicode="&#x26;" horiz-adv-x="1308" d="M49 406q0 74 22.5 140t64.5 118.5t102.5 85t136.5 41.5q-70 6 -125 35.5t-94 75.5t-59.5 106.5t-20.5 128.5q0 92 37 160.5t97 113.5t139 66.5t163 21.5q223 0 350 -126t125 -351h-41q2 102 -27.5 183t-86 137.5t-138.5 86t-182 29.5q-74 0 -144.5 -19.5t-127 -58.5 t-90 -100t-33.5 -143q0 -80 30.5 -141.5t82 -102.5t119 -61.5t140.5 -20.5h46v-41h-46q-86 0 -158.5 -23.5t-125.5 -69.5t-84 -113.5t-31 -157.5t36 -162t95.5 -122t137 -78t161.5 -28q109 0 199 33t151.5 94.5t92 149.5t22.5 199h-123q-59 0 -92 -13.5t-49 -34t-19.5 -45 t-3.5 -49.5l-41 10q0 72 42 122t155 50h250q59 0 92 13.5t49.5 34t19.5 45t3 49.5l41 -10q0 -72 -42 -122t-155 -50h-86q8 -121 -25.5 -216.5t-101.5 -162t-165 -102.5t-214 -36q-92 0 -178 31t-150.5 87.5t-103.5 135t-39 177.5z" />
<glyph unicode="'" horiz-adv-x="262" d="M111 1014v461h41v-461h-41z" />
<glyph unicode="(" horiz-adv-x="354" d="M76 537q0 246 61.5 483t175.5 455h41q-115 -217 -176 -455t-61 -483q0 -250 60.5 -494t178.5 -465h-41q-59 119 -104 232.5t-75 230.5t-45 239.5t-15 256.5z" />
<glyph unicode=")" horiz-adv-x="354" d="M0 1475h41q59 -119 104 -234t75 -231.5t45.5 -238.5t15.5 -255q0 -246 -61.5 -483.5t-176.5 -454.5h-41q115 217 176.5 454.5t61.5 483.5q0 250 -60.5 493.5t-179.5 465.5z" />
<glyph unicode="*" horiz-adv-x="618" d="M0 1227l18 59l271 -98l-10 287h61l-10 -287l268 98l20 -59l-276 -78l176 -225l-49 -37l-160 237l-159 -237l-52 37l178 225z" />
<glyph unicode="+" horiz-adv-x="1216" d="M92 717v41h496v497h41v-497h495v-41h-495v-498h-41v498h-496z" />
<glyph unicode="," horiz-adv-x="266" d="M0 -195l229 400l37 -21l-231 -399z" />
<glyph unicode="-" horiz-adv-x="542" d="M92 528v41h359v-41h-359z" />
<glyph unicode="." horiz-adv-x="262" d="M76 31q0 23 16.5 39t38.5 16q23 0 39 -16t16 -39t-16 -39.5t-39 -16.5t-39 16.5t-16 39.5z" />
<glyph unicode="/" horiz-adv-x="686" d="M0 0l643 1475h43l-645 -1475h-41z" />
<glyph unicode="0" horiz-adv-x="1138" d="M43 737q0 125 24.5 260.5t85 247t162 183t254.5 71.5q154 0 255.5 -71.5t162 -183t85 -247t24.5 -260.5t-24.5 -260t-85 -246.5t-162 -183.5t-255.5 -72t-255 72t-161.5 183.5t-85 246.5t-24.5 260zM84 737q0 -117 22.5 -243.5t78 -232t148.5 -175.5t236 -70t236.5 70 t149 175.5t78 232t22.5 243.5t-22.5 244t-78 232.5t-148.5 175t-237 69.5q-143 0 -236 -69.5t-148.5 -175t-78 -232.5t-22.5 -244z" />
<glyph unicode="1" horiz-adv-x="1138" d="M319 1303q0 72 42 122t155 50h92v-1475h-41v1434h-43q-59 0 -92 -13.5t-49 -34t-19.5 -45t-3.5 -49.5z" />
<glyph unicode="2" horiz-adv-x="1138" d="M92 0q-2 88 37 165t101.5 144.5t141.5 128t158 115.5q80 55 156 116.5t135.5 129t95 142.5t35.5 157t-29.5 148.5t-80.5 113.5t-123 72.5t-154 25.5q-109 0 -186.5 -37t-126.5 -100.5t-71.5 -148.5t-22.5 -181h-41q0 115 28.5 208t85 159.5t140.5 103.5t194 37 q88 0 167 -27.5t136.5 -80t91 -126t33.5 -167.5q0 -86 -35.5 -165t-94 -149.5t-133.5 -133t-155 -118.5q-80 -55 -156.5 -113.5t-137 -119.5t-100.5 -125.5t-48 -132.5h723q59 0 92 13.5t49.5 34t19.5 45t3 48.5l41 -10q0 -72 -42 -122t-155 -50h-772z" />
<glyph unicode="3" horiz-adv-x="1138" d="M82 492h41q-8 -111 22.5 -199t92 -149.5t151.5 -94.5t199 -33q84 0 161.5 28t137 78t95.5 121.5t36 162.5q0 90 -31 157.5t-84 113.5t-125.5 69.5t-159.5 23.5h-45v41h45q74 0 141.5 20.5t119 61.5t82 102.5t30.5 141.5q0 82 -33.5 143t-90 100t-127 58.5t-144.5 19.5 q-102 0 -183 -29.5t-137.5 -86t-86 -137.5t-27.5 -183h-41q-2 225 125 351t350 126q84 0 163 -21.5t139 -66.5t97 -113.5t37 -160.5q0 -68 -20.5 -128.5t-59.5 -106.5t-94 -75.5t-125 -35.5q76 -8 136.5 -41t102.5 -85.5t64.5 -118.5t22.5 -140q0 -98 -39 -177 t-103.5 -135.5t-150.5 -87.5t-178 -31q-117 0 -214.5 36t-165 102.5t-101 162t-25.5 216.5z" />
<glyph unicode="4" horiz-adv-x="1138" d="M70 444v50l696 981h51v-990h60q59 0 91.5 13.5t49 34t19.5 45t3 49.5l41 -11q0 -72 -42 -122t-154 -50h-68v-444h-41v444h-706zM111 485h665v938z" />
<glyph unicode="5" horiz-adv-x="1138" d="M55 446h41q-2 -104 29 -184t89 -135t140 -83t185 -28q100 0 182 32t139.5 90.5t88 141t30.5 183.5q0 98 -32 179t-90 139.5t-139 90t-179 31.5q-119 0 -224.5 -52t-164.5 -161h-52l166 785h645q88 0 143.5 -39t53.5 -133l-41 -11q2 84 -41 113t-123 29h-604l-145 -684 q61 100 166.5 147t220.5 47q106 0 194 -36t151.5 -99.5t99.5 -151.5t36 -194q0 -109 -35 -198t-97.5 -153.5t-151.5 -100.5t-197 -36q-111 0 -201 32t-153.5 91.5t-97.5 147.5t-32 200z" />
<glyph unicode="6" horiz-adv-x="1138" d="M68 696q0 88 10 182.5t35.5 184.5t66.5 169t102.5 138.5t145.5 94t193 34.5q72 0 140 -18.5t128 -57.5l-25 -34q-53 37 -116.5 53t-129.5 16q-106 0 -185 -36t-136 -97t-94 -142t-58.5 -170t-30 -181.5t-8.5 -176.5v-39q16 84 63.5 153t113 118t145.5 76.5t164 27.5 q104 0 196.5 -40t162 -109.5t109.5 -162t40 -196.5q0 -106 -40 -198t-108.5 -161t-161 -109t-198.5 -40q-127 0 -243 61.5t-185 170.5q-35 53 -53.5 113.5t-28.5 124t-12 127t-2 124.5zM125 483q0 -96 37 -181t100.5 -148.5t148.5 -100.5t181 -37t181 37t148.5 100.5 t100.5 148.5t37 181t-37 181.5t-100.5 149t-148.5 100t-181 36.5t-181 -36.5t-148.5 -100t-100.5 -148.5t-37 -182z" />
<glyph unicode="7" horiz-adv-x="1138" d="M63 1303q0 72 42 122t155 50h819v-41l-522 -1434h-47l522 1434h-764q-59 0 -92 -13.5t-49 -34t-19.5 -45t-3.5 -49.5z" />
<glyph unicode="8" horiz-adv-x="1138" d="M125 420q0 76 23.5 144.5t66.5 124.5t101.5 96t127.5 61q-94 39 -153.5 123t-59.5 192q0 70 27 131.5t73 107.5t107.5 72.5t130.5 26.5q70 0 131.5 -26.5t107.5 -72.5t72.5 -107.5t26.5 -131.5q0 -109 -59.5 -192.5t-153.5 -122.5q70 -20 128.5 -60.5t101.5 -96.5 t66.5 -124.5t23.5 -144.5q0 -92 -35 -173t-95.5 -141.5t-141 -95.5t-173.5 -35q-92 0 -173 35t-141 95.5t-95 141.5t-35 173zM166 420q0 -84 31.5 -158t86 -128t128 -86t157.5 -32t158 32t128 86t86 128t32 158t-32 157.5t-86 128t-128 86t-158 31.5t-157.5 -31.5t-128 -86 t-86 -128t-31.5 -157.5zM272 1161q0 -61 23.5 -115.5t63.5 -94.5t94.5 -63.5t115.5 -23.5t115.5 23.5t94.5 63.5t63.5 94.5t23.5 115.5t-23.5 115.5t-63.5 94.5t-94 63.5t-116 23.5q-61 0 -115.5 -23.5t-94.5 -63.5t-63.5 -94t-23.5 -116z" />
<glyph unicode="9" horiz-adv-x="1138" d="M68 991q0 106 39.5 198.5t108.5 161t161 108.5t198 40q127 0 243 -61.5t183 -169.5q33 -53 53.5 -113.5t30 -124t12.5 -127.5t3 -125q0 -133 -25.5 -275.5t-88 -259t-170 -192.5t-269.5 -76q-72 0 -141.5 18.5t-129.5 57.5l25 35q55 -37 118.5 -53.5t129.5 -16.5 q106 0 185 36t136.5 97.5t94 142.5t58 170t30 181t8.5 176v39q-18 -84 -65.5 -152.5t-113 -117.5t-145.5 -77t-162 -28q-104 0 -197 40t-162 109.5t-108.5 162t-39.5 196.5zM109 991q0 -96 36.5 -181t99 -148.5t147.5 -100.5t183 -37q96 0 181.5 37t148 100.5t99 148.5 t36.5 181t-36.5 181t-99 148.5t-147.5 100.5t-182 37q-98 0 -183 -37t-147.5 -100.5t-99 -148.5t-36.5 -181z" />
<glyph unicode=":" horiz-adv-x="262" d="M76 31q0 23 16.5 39t38.5 16q23 0 39 -16t16 -39t-16 -39.5t-39 -16.5t-39 16.5t-16 39.5zM76 1022q0 23 16.5 39t38.5 16q23 0 39 -16t16 -39t-16 -39t-39 -16t-39 16t-16 39z" />
<glyph unicode=";" horiz-adv-x="262" d="M0 -195l229 400l37 -21l-231 -399zM76 1022q0 23 16.5 39t38.5 16q23 0 39 -16t16 -39t-16 -39t-39 -16t-39 16t-16 39z" />
<glyph unicode="&#x3c;" horiz-adv-x="1224" d="M92 713v49l1041 510v-43l-1004 -492l1004 -491v-43z" />
<glyph unicode="=" horiz-adv-x="1216" d="M92 518v41h1032v-41h-1032zM92 915v41h1032v-41h-1032z" />
<glyph unicode="&#x3e;" horiz-adv-x="1224" d="M92 203v43l1004 491l-1004 492v43l1041 -510v-49z" />
<glyph unicode="?" horiz-adv-x="999" d="M76 1010q-4 106 24.5 196t86 154.5t141.5 100.5t192 36q84 0 158 -22.5t128 -65.5t86 -106.5t32 -145.5q0 -78 -22.5 -135t-53.5 -101t-65.5 -76t-59.5 -54q-55 -53 -94 -97.5t-63.5 -90.5t-35 -101.5t-10.5 -128.5v-219h-41v219q0 70 10.5 125t33 105t61.5 99.5 t96 104.5q12 12 45 38.5t68.5 69.5t62.5 103.5t27 138.5q0 72 -28 128t-76 94t-114.5 57.5t-144.5 19.5q-102 0 -179 -32.5t-128 -91t-75.5 -141.5t-20.5 -181h-41zM444 31q0 23 16.5 39t39.5 16t39 -16t16 -39t-16.5 -39.5t-38.5 -16.5q-23 0 -39.5 16.5t-16.5 39.5z" />
<glyph unicode="@" horiz-adv-x="1593" d="M76 743q0 160 59.5 298.5t161.5 239.5t241.5 159.5t299.5 58.5q139 0 263 -44t216 -126t146.5 -200t54.5 -263q0 -61 -11.5 -121.5t-33.5 -117.5q-29 -72 -80.5 -143.5t-118.5 -125.5q-47 -35 -100.5 -57t-108.5 -22q-49 0 -89 28.5t-40 81.5q0 6 1 12.5t3 14.5 q-53 -74 -128 -105.5t-163 -31.5q-63 0 -115.5 24.5t-90 66.5t-58 97t-20.5 117q0 100 35.5 207.5t102 196.5t158 146.5t201.5 57.5q45 0 90 -12.5t85 -35t70 -57t46 -79.5l53 143h43l-233 -604q-12 -35 -23.5 -72t-11.5 -72q0 -84 88 -84q43 0 84 16.5t76 41.5 q57 39 103 94t79 119.5t49.5 135.5t16.5 140q0 137 -50.5 247t-137.5 186.5t-203.5 117.5t-247.5 41q-152 0 -283 -55t-228.5 -151.5t-153.5 -226.5t-56 -282q0 -162 51 -296t146.5 -229t227.5 -148.5t296 -53.5q184 0 344.5 92.5t265.5 241.5h47q-51 -84 -124 -152.5 t-159 -117.5t-181 -77t-193 -28q-172 0 -312.5 56.5t-240 158t-154.5 242.5t-55 311zM406 584q0 -55 18 -103.5t51 -84.5t80 -56.5t102 -20.5q125 0 204 72t122 182q37 98 75 194t75 194q-29 98 -105 144t-174 46t-181 -55.5t-142.5 -140.5t-92 -184t-32.5 -187z" />
<glyph unicode="A" d="M111 0v1110q0 193 99 296t296 103t296 -103t99 -296v-1110h-41v717h-708v-717h-41zM152 758h708v305q0 98 -18.5 174t-59.5 127t-109.5 77.5t-166.5 26.5q-100 0 -168 -26.5t-110 -78.5t-59 -127t-17 -173v-305z" />
<glyph unicode="B" d="M111 0v1475h368q86 0 161 -22.5t131 -69t88 -115t32 -160.5q0 -68 -23.5 -127t-64.5 -105.5t-97.5 -75t-123.5 -32.5q78 -2 142 -30.5t111.5 -78t74 -115t26.5 -143.5q0 -106 -40 -182t-105.5 -125t-153.5 -71.5t-182 -22.5h-344zM152 41h321q84 0 161 20.5t135 64.5 t92 111.5t34 159.5t-34 159t-91 109t-133 62.5t-158 20.5h-327v-707zM152 788h327q72 0 139.5 20.5t118.5 60.5t82 99.5t31 139.5v-2q0 84 -28.5 145.5t-79 102.5t-118 60.5t-145.5 19.5h-327v-646z" />
<glyph unicode="C" horiz-adv-x="1439" d="M76 725q0 156 44 298t131 250.5t216 172t297 63.5q98 0 201.5 -33.5t190.5 -95t145.5 -149.5t62.5 -195h-41q-10 100 -63.5 181t-132 136.5t-174 85t-189.5 29.5q-158 0 -277.5 -61t-202.5 -164.5t-125 -238t-42 -279.5q0 -139 41 -268t119.5 -229.5t194.5 -161 t265 -60.5q131 0 232.5 43t174.5 118t118 179.5t61 226.5h41q-18 -131 -65.5 -242.5t-126 -192.5t-187 -127t-248.5 -46q-160 0 -282.5 63.5t-207.5 169t-128 243t-43 284.5z" />
<glyph unicode="D" d="M111 0v1475h202q166 0 284 -58.5t192.5 -158t110.5 -233.5t36 -288q0 -162 -45 -297t-132 -233t-215 -152.5t-294 -54.5h-139zM152 41h108q156 0 274.5 53t198.5 146.5t121 221.5t41 275t-33 275.5t-103.5 221.5t-183 146.5t-272.5 53.5h-151v-1393z" />
<glyph unicode="E" d="M111 0v1475h800v-41h-759v-676h704v-41h-704v-676h768v-41h-809z" />
<glyph unicode="F" d="M111 0v1475h800v-41h-759v-676h704v-41h-704v-717h-41z" />
<glyph unicode="G" horiz-adv-x="1474" d="M76 725q0 156 44 298t131 250.5t216 172t297 63.5q98 0 201.5 -33.5t190.5 -95t145.5 -149.5t62.5 -195h-41q-10 100 -63.5 181t-132 136.5t-174 85t-189.5 29.5q-158 0 -277.5 -61t-202.5 -164.5t-125 -238t-42 -279.5q0 -139 41 -268t119.5 -229.5t194.5 -161 t265 -60.5q131 0 232.5 43t174.5 118t118 179.5t61 226.5h-559v41h600v-421q0 -59 13.5 -92t34 -49.5t45 -19.5t48.5 -3l-10 -41q-70 0 -104.5 26.5t-50 77.5t-16.5 128t-1 175q-33 -96 -85 -175t-126 -136t-167 -88t-208 -31q-160 0 -282.5 63.5t-207.5 169t-128 243 t-43 284.5z" />
<glyph unicode="H" d="M111 0v1475h41v-717h708v717h41v-1475h-41v717h-708v-717h-41z" />
<glyph unicode="I" horiz-adv-x="262" d="M111 0v1475h41v-1475h-41z" />
<glyph unicode="J" d="M111 365v208h41v-208q0 -180 89 -269.5t259 -89.5q88 0 154.5 20.5t112.5 67.5t69.5 125t23.5 193v1022h-545q-59 0 -92 -13.5t-49 -34t-19 -45t-3 -49.5l-41 11q0 72 42 122t154 50h594v-1094q0 -92 -21.5 -168t-68.5 -131t-124 -86t-187 -31q-104 0 -178 31t-121 84 t-68.5 126t-21.5 159z" />
<glyph unicode="K" horiz-adv-x="733" d="M111 0v1475h41v-703l528 703h53l-555 -738l555 -737h-53l-528 702v-702h-41z" />
<glyph unicode="L" d="M111 0v1475h41v-1434h655q59 0 92 13.5t49.5 34t19.5 45t3 48.5l41 -10q0 -72 -42 -122t-155 -50h-704z" />
<glyph unicode="M" horiz-adv-x="1761" d="M111 0v1110q0 193 99 296t296 103q152 0 246 -62.5t129 -180.5q35 119 129 181t245 62q197 0 296.5 -103t99.5 -296v-1110h-41v1063q0 98 -18.5 174t-59.5 127t-109.5 77.5t-167.5 26.5q-100 0 -167.5 -26.5t-109.5 -78.5t-59.5 -127t-17.5 -173v-1063h-41v1063 q0 98 -18.5 174t-59.5 127t-109.5 77.5t-166.5 26.5q-100 0 -168 -26.5t-110 -78.5t-59 -127t-17 -173v-1063h-41z" />
<glyph unicode="N" d="M111 0v1110q0 193 99 296t296 103t296 -103t99 -296v-1110h-41v1063q0 98 -18.5 174t-59.5 127t-109.5 77.5t-166.5 26.5q-100 0 -168 -26.5t-110 -78.5t-59 -127t-17 -173v-1063h-41z" />
<glyph unicode="O" horiz-adv-x="1499" d="M76 737q0 154 43 294t128 245.5t211 169t292 63.5t291.5 -63.5t210.5 -169t128 -245.5t43 -294t-43 -294t-128 -245.5t-211 -169t-291 -63.5q-166 0 -292 63.5t-211 169t-128 246t-43 293.5zM117 737q0 -145 40 -277t118.5 -233.5t197.5 -161t277 -59.5t276.5 59.5 t197.5 161t118.5 233.5t39.5 277t-39.5 277.5t-118.5 234t-198 160.5t-276 59q-158 0 -277 -59t-197.5 -160.5t-118.5 -233.5t-40 -278z" />
<glyph unicode="P" d="M111 0v1475h381q211 0 327.5 -100.5t116.5 -299.5q0 -96 -35 -171t-96.5 -125t-147.5 -75.5t-186 -25.5h-319v-678h-41zM152 719h340q86 0 159.5 23.5t128 69.5t85 111.5t30.5 151.5q0 174 -100.5 266.5t-302.5 92.5h-340v-715z" />
<glyph unicode="Q" horiz-adv-x="1499" d="M76 737q0 154 43 294t128 245.5t211 169t292 63.5t291.5 -63.5t210.5 -169t128 -245.5t43 -294q0 -133 -33.5 -263t-109.5 -241l252 -233q23 -23 54.5 -43t66.5 -20q29 0 53.5 16t42.5 39l23 -35q-23 -27 -54.5 -44t-66.5 -17q-41 0 -77 20.5t-65 48.5l-254 236 q-96 -121 -225 -178.5t-280 -57.5q-166 0 -292 63.5t-211 169t-128 246t-43 293.5zM117 737q0 -145 40 -277t118.5 -233.5t197.5 -161t277 -59.5q141 0 264 54.5t211 166.5l-219 205q-23 23 -54.5 43.5t-66.5 20.5q-29 0 -53.5 -16.5t-40.5 -39.5l-25 35q23 27 54.5 44.5 t66.5 17.5q41 0 76.5 -20.5t64.5 -49.5l221 -205q72 104 102.5 227t30.5 248q0 145 -39.5 277.5t-118.5 234t-198 160.5t-276 59q-158 0 -277 -59t-197.5 -160.5t-118.5 -233.5t-40 -278z" />
<glyph unicode="R" d="M111 0v1475h378q100 0 182.5 -19.5t140.5 -64.5t91 -118.5t33 -182.5q0 -150 -86 -244t-227 -125q94 -12 151 -46t88 -86t40 -122t9 -154v-313h-41v319q0 106 -19.5 179t-64.5 118.5t-118.5 63.5t-184.5 18h-331v-698h-41zM152 739h327q80 0 156 20.5t134 65.5t92 114 t34 165q-2 156 -94 243t-301 87h-348v-695z" />
<glyph unicode="S" horiz-adv-x="1167" d="M33 489h41q0 -131 45 -223t121.5 -149.5t180 -84t220.5 -26.5q86 0 165 20.5t140.5 63.5t97 110.5t35.5 161.5q0 111 -48 176.5t-122.5 103.5t-166 58.5t-175.5 40.5q-90 20 -177 44t-157.5 64t-113.5 105.5t-43 173.5q0 109 45 182.5t116.5 118t160.5 62.5t177 18 q106 0 198.5 -23.5t161.5 -76.5t109.5 -139t47.5 -209h-41q-4 113 -42 190.5t-100.5 125.5t-148.5 69.5t-185 21.5q-78 0 -158.5 -16t-147 -54t-109.5 -103.5t-43 -164.5q0 -98 44 -158.5t114.5 -97t160.5 -58t185 -44.5q102 -25 193 -49.5t158.5 -66.5t107.5 -110.5 t40 -183.5q0 -104 -40 -178.5t-106.5 -123t-152.5 -72t-180 -23.5q-125 0 -236.5 30t-194.5 93.5t-131 162.5q-46 95 -46 227v11z" />
<glyph unicode="T" d="M0 1303q0 72 42 122t155 50h815v-41h-486v-1434h-41v1434h-280q-59 0 -92 -13.5t-49.5 -34t-19.5 -45t-3 -49.5z" />
<glyph unicode="U" d="M111 365v1110h41v-1063q0 -98 18 -174t59 -127.5t110 -78t167 -26.5q100 0 167.5 26.5t108.5 79t59.5 127t18.5 173.5v1063h41v-1110q0 -193 -99.5 -296.5t-295.5 -103.5q-197 0 -296 103.5t-99 296.5z" />
<glyph unicode="V" horiz-adv-x="1120" d="M0 1475h47l514 -1409l512 1409h47l-536 -1475h-47z" />
<glyph unicode="W" horiz-adv-x="1761" d="M111 365v1110h41v-1063q0 -98 18 -174t59 -127.5t110 -78t167 -26.5q100 0 167.5 26.5t108.5 79t59.5 127t18.5 173.5v1063h41v-1063q0 -98 18.5 -174t59.5 -127.5t109.5 -78t166.5 -26.5q100 0 168 26.5t109 79t59.5 127t18.5 173.5v1063h41v-1110q0 -193 -99.5 -296.5 t-296.5 -103.5q-152 0 -246 62.5t-128 181.5q-35 -119 -129.5 -181.5t-245.5 -62.5q-197 0 -296 103.5t-99 296.5z" />
<glyph unicode="X" horiz-adv-x="1165" d="M0 0l555 737l-555 738h53l529 -703l530 703h53l-557 -738l557 -737h-53l-530 702l-529 -702h-53z" />
<glyph unicode="Y" d="M111 1116v359h41v-312q0 -98 18 -174t59 -127t110 -77.5t167 -26.5q100 0 167.5 26.5t108.5 78.5t59.5 127t18.5 173v312h41v-359q0 -186 -94 -289.5t-281 -109.5v-717h-41v717q-186 6 -280 109.5t-94 289.5z" />
<glyph unicode="Z" horiz-adv-x="1062" d="M0 0v55l1032 1379h-964v41h1005v-56l-1032 -1378h838q59 0 92 13.5t49 34t19 45t3 48.5l41 -10q0 -72 -42 -122t-154 -50h-887z" />
<glyph unicode="[" horiz-adv-x="434" d="M111 -422v1897h231v-41h-190v-1815h190v-41h-231z" />
<glyph unicode="\" horiz-adv-x="686" d="M0 1475h41l645 -1475h-41z" />
<glyph unicode="]" horiz-adv-x="434" d="M92 -381h191v1815h-191v41h232v-1897h-232v41z" />
<glyph unicode="^" horiz-adv-x="987" d="M0 547l473 928h41l473 -928h-41l-452 887l-453 -887h-41z" />
<glyph unicode="_" horiz-adv-x="1024" d="M0 -154h1024v-102h-1024v102z" />
<glyph unicode="`" horiz-adv-x="0" d="M391 1452h60l258 -295h-31z" />
<glyph unicode="a" horiz-adv-x="1079" d="M76 504q0 115 29.5 218t90 182t152.5 126t219 47q115 0 211 -52t150 -155v183h41v-1053h-41v203q-51 -109 -150.5 -168.5t-234.5 -59.5q-113 0 -200 42t-146.5 115t-90 168t-30.5 204zM117 504q0 -96 27.5 -184.5t81 -156t133 -107.5t184.5 -40q78 0 147.5 23.5t122.5 69 t84 108t31 141.5v375q0 63 -32 118.5t-83 96.5t-115.5 64.5t-130.5 23.5q-127 0 -213 -48t-138 -125t-75.5 -172t-23.5 -187z" />
<glyph unicode="b" horiz-adv-x="1079" d="M111 0v1475h41v-605q53 102 149 154.5t211 52.5q127 0 219 -47t152.5 -126t90.5 -182t30 -218q0 -109 -31 -204t-90.5 -168t-146.5 -115t-199 -42q-135 0 -234.5 59.5t-150.5 168.5v-203h-41zM152 358q0 -80 30.5 -142t83.5 -107.5t123 -69t148 -23.5q104 0 184 40 t133 107.5t81 156t28 184.5q0 92 -24 187t-76 172t-139 125t-212 48q-66 0 -130.5 -23.5t-115.5 -64.5t-82.5 -96t-31.5 -119v-375z" />
<glyph unicode="c" horiz-adv-x="1044" d="M76 504q0 115 29.5 219t90 183t152.5 125t219 46q78 0 147.5 -24.5t123 -68.5t87 -107.5t44.5 -143.5h-41q-23 143 -120 223t-241 80q-117 0 -201.5 -43t-140 -116.5t-82 -170t-26.5 -202.5q0 -96 27.5 -184.5t81 -156t133 -107.5t184.5 -40q78 0 145.5 23.5t118.5 69 t83 108t38 141.5h41q-8 -88 -43 -158.5t-90.5 -120.5t-130 -77t-162.5 -27q-115 0 -202 43t-145.5 116t-89 168t-30.5 202z" />
<glyph unicode="d" horiz-adv-x="1079" d="M76 504q0 115 29.5 218t90 182t152.5 126t219 47q115 0 211 -52t150 -155v605h41v-1475h-41v203q-51 -109 -150.5 -168.5t-234.5 -59.5q-113 0 -200 42t-146.5 115t-90 168t-30.5 204zM117 504q0 -96 27.5 -184.5t81 -156t133 -107.5t184.5 -40q78 0 147.5 23.5t122.5 69 t84 108t31 141.5v375q0 63 -32 118.5t-83 96.5t-115.5 64.5t-130.5 23.5q-127 0 -213 -48t-138 -125t-75.5 -172t-23.5 -187z" />
<glyph unicode="e" horiz-adv-x="1044" d="M76 504q0 115 29.5 219t90 183t152.5 125t219 46q78 0 147.5 -24.5t123 -68.5t87 -107.5t44.5 -143.5l-848 -309q10 -84 43 -157.5t85 -129t126 -88.5t168 -33q78 0 145.5 23.5t118.5 69t83 108t38 141.5h41q-8 -88 -43 -158.5t-90.5 -120.5t-130 -77t-162.5 -27 q-115 0 -202 43t-145.5 116t-89 168t-30.5 202zM117 467l807 293q-29 131 -125.5 203.5t-231.5 72.5q-117 0 -201.5 -43t-140 -116.5t-82 -170t-26.5 -202.5v-37z" />
<glyph unicode="f" horiz-adv-x="262" d="M0 1012v41h111v250q0 113 50 154.5t122 41.5q47 0 64.5 -2t35.5 -4v-41q-10 4 -34.5 5t-55.5 1q-25 0 -49.5 -3t-45 -19.5t-33.5 -49t-13 -92.5v-241h110v-41h-110v-1012h-41v1012h-111z" />
<glyph unicode="g" horiz-adv-x="1062" d="M76 504q0 115 29.5 218t90 182t152.5 126t219 47q115 0 211 -52t150 -155v183h41v-1088q0 -217 -116 -319.5t-323 -102.5q-80 0 -151.5 18.5t-126.5 58.5t-88 103.5t-35 151.5h41q2 -78 31.5 -133t79 -90t113 -51.5t134.5 -16.5q193 0 296.5 92.5t103.5 288.5v238 q-51 -109 -150.5 -168.5t-234.5 -59.5q-113 0 -200 42t-146.5 115t-90 168t-30.5 204zM117 504q0 -96 27.5 -184.5t81 -156t133 -107.5t184.5 -40q78 0 147.5 23.5t122.5 69t84 108t31 141.5v375q0 63 -32 118.5t-83 96.5t-115.5 64.5t-130.5 23.5q-127 0 -213 -48 t-138 -125t-75.5 -172t-23.5 -187z" />
<glyph unicode="h" horiz-adv-x="1019" d="M111 0v1475h41v-682q35 139 139 211.5t244 72.5q174 0 274 -102.5t100 -276.5v-698h-41v692q0 160 -87 252t-246 92q-94 0 -166 -35.5t-120 -96t-72.5 -140.5t-24.5 -168v-596h-41z" />
<glyph unicode="i" horiz-adv-x="262" d="M76 1454q0 23 16.5 39t38.5 16q23 0 39 -16t16 -39t-16 -39t-39 -16t-39 16.5t-16 38.5zM111 0v1053h41v-1053h-41z" />
<glyph unicode="j" horiz-adv-x="262" d="M-688 -125h41q2 -78 31.5 -133t79 -90t113 -51.5t134.5 -16.5q193 0 296.5 92.5t103.5 288.5v1088h41v-1088q0 -217 -116 -319.5t-323 -102.5q-80 0 -151.5 18.5t-127 58.5t-88 103.5t-34.5 151.5zM76 1454q0 23 16.5 39t38.5 16q23 0 39 -16t16 -39t-16 -39t-39 -16 t-39 16.5t-16 38.5z" />
<glyph unicode="k" horiz-adv-x="575" d="M111 0v1475h41v-914l370 492h53l-397 -527l397 -526h-51l-372 492v-492h-41z" />
<glyph unicode="l" horiz-adv-x="262" d="M111 0v1475h41v-1475h-41z" />
<glyph unicode="m" horiz-adv-x="1777" d="M111 0v1053h41v-260q35 141 138 212.5t245 71.5q156 0 252 -83t118 -224q35 150 134.5 228.5t252.5 78.5q174 0 274.5 -102.5t100.5 -276.5v-698h-41v692q0 158 -87 251t-247 93q-94 0 -165.5 -35.5t-120 -96t-73 -140.5t-24.5 -168v-596h-41v692q0 158 -87 251t-246 93 q-94 0 -166 -35.5t-120 -96t-72.5 -140.5t-24.5 -168v-596h-41z" />
<glyph unicode="n" horiz-adv-x="1019" d="M111 0v1053h41v-260q35 139 139 211.5t244 72.5q174 0 274 -102.5t100 -276.5v-698h-41v692q0 160 -87 252t-246 92q-94 0 -166 -35.5t-120 -96t-72.5 -140.5t-24.5 -168v-596h-41z" />
<glyph unicode="o" horiz-adv-x="1099" d="M76 526q0 106 30.5 207t91 176.5t148.5 121.5t205 46q115 0 203 -46t148.5 -121.5t91 -176.5t30.5 -207q0 -109 -30.5 -208t-91 -175.5t-148.5 -122t-205 -45.5q-115 0 -204 45.5t-148.5 122t-90 176t-30.5 207.5zM117 526q0 -100 27.5 -192t83 -163t136 -113t187.5 -42 q104 0 185 42t136.5 113t83 163t27.5 192q0 98 -27.5 190.5t-83 163t-136.5 113.5t-185 43q-106 0 -187 -43t-136.5 -113.5t-83 -162.5t-27.5 -191z" />
<glyph unicode="p" horiz-adv-x="1079" d="M111 -422v1475h41v-183q53 102 149 154.5t211 52.5q127 0 219 -47t152.5 -126t90.5 -182t30 -218q0 -109 -31 -204t-90.5 -168t-146.5 -115t-199 -42q-135 0 -234.5 59.5t-150.5 168.5v-625h-41zM152 358q0 -80 30.5 -142t83.5 -107.5t123 -69t148 -23.5q104 0 184 40 t133 107.5t81 156t28 184.5q0 92 -24 187t-76 172t-139 125t-212 48q-66 0 -130.5 -23.5t-115.5 -64.5t-82.5 -96t-31.5 -119v-375z" />
<glyph unicode="q" horiz-adv-x="1079" d="M76 504q0 115 29.5 218t90 182t152.5 126t219 47q115 0 211 -52t150 -155v183h41v-1475h-41v625q-51 -109 -150.5 -168.5t-234.5 -59.5q-113 0 -200 42t-146.5 115t-90 168t-30.5 204zM117 504q0 -96 27.5 -184.5t81 -156t133 -107.5t184.5 -40q78 0 147.5 23.5t122.5 69 t84 108t31 141.5v375q0 63 -32 118.5t-83 96.5t-115.5 64.5t-130.5 23.5q-127 0 -213 -48t-138 -125t-75.5 -172t-23.5 -187z" />
<glyph unicode="r" horiz-adv-x="567" d="M111 0v1053h41v-260q35 141 138 212.5t245 71.5h32l-32 -41q-94 0 -166 -35.5t-120 -96t-72.5 -140.5t-24.5 -168v-596h-41z" />
<glyph unicode="s" horiz-adv-x="888" d="M35 360h41q0 -176 100 -260t285 -84q57 0 117.5 13.5t109.5 43t81 77t32 114.5q0 70 -32 113t-82 70.5t-115.5 44t-133.5 32.5q-66 16 -130 31.5t-116.5 45.5t-84 79t-31.5 133q0 43 18.5 90t61.5 86t110.5 63.5t165.5 24.5q176 0 278.5 -79.5t102.5 -256.5h-41 q0 80 -24.5 135.5t-69.5 91.5t-107.5 52t-138.5 16q-111 0 -174 -29.5t-94 -68.5t-39 -75t-8 -50q0 -78 39 -123t96 -70.5t124.5 -40t127.5 -28.5q61 -16 121.5 -33.5t108.5 -48.5t78 -78t30 -123q0 -80 -34 -135t-88 -90t-123 -51.5t-136 -16.5q-209 0 -317.5 93.5 t-108.5 291.5z" />
<glyph unicode="t" horiz-adv-x="262" d="M0 1012v41h111v282l41 84v-366h110v-41h-110v-1012h-41v1012h-111z" />
<glyph unicode="u" horiz-adv-x="1019" d="M111 354v699h41v-693q0 -160 87 -252t246 -92q94 0 166 36t120 96.5t72.5 140.5t24.5 168v596h41v-1053h-41v260q-35 -139 -139 -212t-244 -73q-174 0 -274 102.5t-100 276.5z" />
<glyph unicode="v" horiz-adv-x="813" d="M0 1053h47l361 -987l358 987h47l-383 -1053h-47z" />
<glyph unicode="w" horiz-adv-x="1777" d="M111 354v699h41v-693q0 -158 87 -251t246 -93q94 0 166 36t120 96.5t72.5 140.5t24.5 168v596h41v-693q0 -158 87 -251t247 -93q94 0 166 36t120 96.5t72.5 140.5t24.5 168v596h41v-1053h-41v260q-35 -141 -138.5 -213t-244.5 -72q-156 0 -252 83t-119 225 q-35 -150 -134 -229t-253 -79q-174 0 -274 102.5t-100 276.5z" />
<glyph unicode="x" horiz-adv-x="845" d="M0 0l397 526l-397 527h51l371 -492l373 492h51l-397 -527l397 -526h-51l-371 492l-373 -492h-51z" />
<glyph unicode="y" horiz-adv-x="1019" d="M70 -125h41q2 -78 31.5 -133t78.5 -90t112.5 -51.5t135.5 -16.5q193 0 296 92.5t103 288.5v295q-35 -139 -139 -212t-244 -73q-174 0 -274 102.5t-100 276.5v699h41v-693q0 -160 87 -252t246 -92q94 0 166 36t120 96.5t72.5 140.5t24.5 168v596h41v-1088 q0 -217 -115.5 -319.5t-322.5 -102.5q-80 0 -151.5 18.5t-127 58.5t-88 103.5t-34.5 151.5z" />
<glyph unicode="z" horiz-adv-x="833" d="M10 0v51l738 961h-682v41h725v-52l-738 -960h576q59 0 92 13.5t49 34t19.5 45t3.5 48.5l41 -10q0 -72 -42 -122t-155 -50h-627z" />
<glyph unicode="{" horiz-adv-x="583" d="M92 512v41q33 6 60.5 37t47 78t30 106.5t10.5 120.5v356q0 117 31.5 170.5t117.5 53.5h103v-41h-99q-61 0 -86.5 -46.5t-25.5 -173.5v-354q0 -45 -8.5 -96t-27 -98.5t-46 -84t-66.5 -53.5q68 -33 108 -126t40 -209v-351q0 -68 6 -111.5t20.5 -68t36 -34t49.5 -9.5h99v-41 h-103q-86 0 -117.5 55.5t-31.5 171.5v353q0 125 -29 210t-119 144z" />
<glyph unicode="|" horiz-adv-x="262" d="M111 0v1475h41v-1475h-41z" />
<glyph unicode="}" horiz-adv-x="583" d="M92 -381h98q29 0 50.5 9.5t35 34t20.5 68.5t7 111v351q0 117 40 210t108 125q-39 16 -67 53t-46.5 84.5t-26.5 98.5t-8 96v354q0 127 -25.5 173.5t-87.5 46.5h-98v41h103q86 0 117.5 -53.5t31.5 -170.5v-356q0 -61 10.5 -120.5t29.5 -106.5t47 -78t61 -37v-41 q-90 -59 -119 -144t-29 -210v-353q0 -117 -31.5 -172t-117.5 -55h-103v41z" />
<glyph unicode="~" horiz-adv-x="1064" d="M76 649q39 72 97 125t144 55q55 2 118 -20.5t122 -48.5q61 -29 115.5 -51.5t95.5 -22.5q61 0 103 47t77 103l41 -13q-20 -33 -42.5 -64.5t-49.5 -57t-59.5 -41t-71.5 -15.5q-51 0 -98 20.5t-101 45.5q-53 23 -111.5 50t-138.5 27q-70 0 -116.5 -43t-83.5 -108z" />
<glyph unicode="&#xa1;" horiz-adv-x="262" d="M76 1444q0 23 16.5 39t38.5 16q23 0 39 -16t16 -39t-16 -39t-39 -16t-39 16t-16 39zM100 0l11 1296h41l10 -1296h-62z" />
<glyph unicode="&#xa2;" horiz-adv-x="1044" d="M76 715q0 113 27.5 214t85 179t144.5 126t206 54v187h41v-187q76 -2 142 -27.5t118.5 -69.5t85 -106.5t43.5 -140.5h-41q-23 143 -120 223t-241 80q-117 0 -201.5 -43t-140 -116.5t-82 -170t-26.5 -202.5q0 -96 27.5 -184.5t81 -156t133 -107.5t184.5 -40 q78 0 145.5 23.5t118.5 69t83 107.5t38 142h41q-16 -168 -121 -269t-268 -112v-188h-41v186q-113 0 -199 44t-144.5 116t-89 168t-30.5 201z" />
<glyph unicode="&#xa3;" horiz-adv-x="1085" d="M63 6q45 39 89.5 86t78 100.5t54 113t20.5 122.5q0 70 -15.5 144.5t-49.5 134.5h-156v41h135q-20 41 -46 86t-47.5 92t-35.5 95t-14 95q0 98 39 170t103.5 119t148.5 69.5t172 22.5q119 0 212 -36t154.5 -103.5t89 -162.5t15.5 -212h-41q10 106 -14.5 194.5t-80 150 t-140.5 95t-195 33.5q-80 0 -156 -19.5t-135.5 -60.5t-95 -105.5t-35.5 -154.5q0 -47 15 -95t38 -95t48.5 -92.5t47.5 -85.5h324v-41h-305q35 -63 48 -135t13 -144q0 -121 -55 -218t-146 -175q45 35 99.5 54.5t111.5 19.5q53 0 104.5 -16.5t100.5 -35t97.5 -35t97.5 -16.5 q51 0 94 14.5t80 37t70.5 53t68.5 65.5l27 -29q-72 -82 -150 -132t-190 -50q-53 0 -103.5 16.5t-99.5 35t-98 35t-99 16.5q-74 0 -137 -28t-119 -75z" />
<glyph unicode="&#xa4;" horiz-adv-x="1167" d="M76 696q2 94 35.5 183.5t99.5 160.5l-117 117l29 29l117 -117q74 68 163 101.5t181 33.5q94 0 183 -33.5t161 -101.5l116 117l29 -29l-117 -117q68 -72 102 -161t34 -183q0 -92 -34 -181t-102 -163l117 -116l-29 -29l-116 117q-72 -66 -161 -100t-183 -36 q-92 0 -181.5 34t-162.5 102l-117 -117l-29 29l117 116q-68 74 -101.5 163t-33.5 181zM117 696q0 -96 36.5 -181t100 -148.5t148.5 -100.5t182 -37q96 0 181 37t148.5 100.5t100.5 148.5t37 181t-37 181.5t-100.5 149t-148.5 100t-181 36.5t-181.5 -36.5t-149 -100 t-100 -148.5t-36.5 -182z" />
<glyph unicode="&#xa5;" d="M111 1116v359h41v-312q0 -98 18 -174t59 -127t110 -77.5t167 -26.5q100 0 167.5 26.5t108.5 78.5t59.5 127t18.5 173v312h41v-359q0 -186 -94 -289.5t-281 -109.5v-201h301v-41h-301v-209h301v-41h-301v-225h-41v225h-301v41h301v209h-301v41h301v201q-186 6 -280 109.5 t-94 289.5z" />
<glyph unicode="&#xa6;" horiz-adv-x="262" d="M111 0v561h41v-561h-41zM111 913v562h41v-562h-41z" />
<glyph unicode="&#xa7;" horiz-adv-x="1042" d="M39 573q0 111 52 187t147 125q-100 43 -149.5 111.5t-49.5 179.5q0 90 41 153.5t105.5 103.5t144.5 58t157 18q104 0 192.5 -22.5t152 -73.5t99.5 -131t36 -192h-41q0 102 -34 174.5t-92.5 117.5t-138 65.5t-174.5 20.5q-68 0 -140.5 -15t-131.5 -50t-97 -91.5 t-38 -135.5q0 -102 50 -161t125 -92.5t162 -51t161 -35.5q76 -18 151.5 -42t137 -62t99.5 -98.5t38 -154.5q0 -111 -51.5 -186.5t-145.5 -124.5q100 -43 148.5 -111.5t48.5 -179.5q0 -90 -41 -153.5t-105.5 -103.5t-144.5 -58.5t-158 -18.5q-104 0 -192.5 22.5t-152 74 t-99 130t-35.5 193.5h41q0 -102 33.5 -175t92 -118t138.5 -65.5t174 -20.5q68 0 140.5 15.5t132 50.5t97.5 91t38 136q0 100 -50.5 159.5t-125 93.5t-161.5 51.5t-161 35.5q-76 18 -151.5 41t-137 61.5t-99.5 99t-38 154.5zM80 580q0 -96 46 -153.5t115.5 -92.5t151.5 -54.5 t154 -37.5q51 -12 101 -23.5t100 -28.5q94 37 154.5 107t60.5 176q0 94 -46.5 152.5t-115 93.5t-150.5 54.5t-153 37.5q-51 12 -101.5 23.5t-101.5 27.5q-94 -37 -154.5 -106.5t-60.5 -175.5z" />
<glyph unicode="&#xa8;" horiz-adv-x="0" d="M336 1247q0 23 16.5 39.5t38.5 16.5q23 0 39 -16.5t16 -39.5t-16 -39t-39 -16t-39 16.5t-16 38.5zM653 1247q0 23 16.5 39.5t39.5 16.5t39 -16.5t16 -39.5t-16.5 -39t-38.5 -16q-23 0 -39.5 16.5t-16.5 38.5z" />
<glyph unicode="&#xa9;" horiz-adv-x="1683" d="M76 737q0 160 60.5 299.5t163.5 242.5t242.5 163.5t299.5 60.5t299 -60.5t242.5 -163.5t164 -242.5t60.5 -299.5t-60.5 -299t-164 -242.5t-243 -164t-298.5 -60.5q-160 0 -299.5 60.5t-242.5 164t-163.5 243t-60.5 298.5zM117 737q0 -152 56 -283.5t154.5 -230 t230.5 -155t284 -56.5q150 0 281.5 56.5t230 155t156 230t57.5 283.5q0 150 -57.5 282t-156 230.5t-230.5 155.5t-281 57q-152 0 -284 -57t-230.5 -155.5t-154.5 -230.5t-56 -282zM414 725q0 100 30.5 186t87 148.5t139.5 97.5t187 35q72 0 136.5 -20.5t115.5 -59.5 t84 -97.5t43 -131.5h-41q-10 68 -41 118t-77 83.5t-102 50t-118 16.5q-96 0 -171 -33t-127 -89t-78.5 -134t-26.5 -168t27.5 -169t80.5 -138.5t129 -93t172 -33.5q113 0 206 71.5t126 206.5h41q-16 -72 -50 -130t-82 -100t-109.5 -65.5t-131.5 -23.5q-102 0 -186 37 t-142.5 100.5t-90 149.5t-31.5 186z" />
<glyph unicode="&#xaa;" horiz-adv-x="747" d="M80 1155q0 68 18.5 130.5t55 110.5t94 75.5t135.5 27.5q59 0 113.5 -23.5t95.5 -74.5v84h41v-633h-41v96q-84 -111 -223 -110q-70 0 -124.5 25.5t-91 69.5t-55 101.5t-18.5 120.5zM121 1155q0 -55 16.5 -105.5t47 -88t76.5 -60t108 -22.5q45 0 86 13t71.5 37.5t48 60.5 t17.5 81v219q0 35 -18.5 65.5t-48 54.5t-66.5 37t-76 13q-74 0 -124 -27.5t-81 -71.5t-44 -98.5t-13 -107.5z" />
<glyph unicode="&#xab;" horiz-adv-x="585" d="M92 721v33l211 284v-71l-170 -230l170 -229v-72zM283 721v33l211 284v-71l-170 -230l170 -229v-72z" />
<glyph unicode="&#xac;" horiz-adv-x="262" d="M0 670v51l111 96v658h41v-623l110 96v-51l-110 -96v-801h-41v766z" />
<glyph unicode="&#xad;" horiz-adv-x="542" d="M92 528v41h359v-41h-359z" />
<glyph unicode="&#xae;" horiz-adv-x="937" d="M76 1116q0 80 30.5 149.5t84 122t125 82t153.5 29.5t153.5 -29.5t125 -82t84 -122t30.5 -149.5t-30.5 -149.5t-84 -121.5t-125 -82t-153.5 -30t-153.5 30t-125 82t-84 121.5t-30.5 149.5zM117 1116q0 -72 27.5 -134t75.5 -109.5t111.5 -74t137.5 -26.5t137.5 26.5 t111.5 74t75.5 109.5t27.5 134t-27.5 134.5t-75.5 108.5t-111.5 72.5t-137.5 26.5t-137.5 -26.5t-111.5 -72.5t-75.5 -108.5t-27.5 -134.5zM330 885v448h153q156 0 156 -125h2q0 -55 -33 -83.5t-76 -37.5l138 -202h-52l-131 198q-29 -2 -62.5 -1t-53.5 1v-198h-41zM371 1122 h96q23 0 46.5 3t41.5 12.5t30.5 26t12.5 44.5h2q0 53 -35 69.5t-82 16.5h-112v-172z" />
<glyph unicode="&#xaf;" horiz-adv-x="0" d="M311 1266v41h477v-41h-477z" />
<glyph unicode="&#xb0;" horiz-adv-x="737" d="M76 1206q0 59 22.5 112.5t62.5 93.5t93 63.5t115 23.5q61 0 114.5 -23.5t93 -63.5t62.5 -93.5t23 -112.5q0 -61 -23 -115.5t-61.5 -94.5t-93 -63.5t-115.5 -23.5t-114.5 22.5t-93.5 62.5t-62.5 94.5t-22.5 117.5zM117 1206q0 -55 20.5 -102t55 -81t79.5 -53.5t97 -19.5 q53 0 99 19.5t80 54.5t53.5 82t19.5 100q0 51 -18.5 96.5t-52.5 80t-80 55t-101 20.5q-51 0 -96.5 -20.5t-80 -56t-55 -81t-20.5 -94.5z" />
<glyph unicode="&#xb1;" horiz-adv-x="1216" d="M92 219v41h1032v-41h-1032zM92 809v41h496v405h41v-405h495v-41h-495v-406h-41v406h-496z" />
<glyph unicode="&#xb2;" horiz-adv-x="651" d="M63 674q-2 53 19.5 98t57.5 83t80 72t87 62q43 31 84 62.5t73 67.5t51.5 74t19.5 81q0 84 -57.5 134t-145.5 50q-57 0 -98 -18.5t-67 -52t-38 -79.5t-12 -100h-41q2 133 65.5 212t190.5 79q102 0 172.5 -59.5t70.5 -165.5q0 -66 -31.5 -118t-80.5 -98t-107.5 -87 t-110.5 -81t-91 -83t-50 -92h388q59 0 70 22.5t11 55.5l41 -11q0 -47 -26.5 -77.5t-91.5 -30.5h-433z" />
<glyph unicode="&#xb3;" horiz-adv-x="686" d="M55 956h41q-10 -123 59.5 -189.5t186.5 -66.5q45 0 86 14.5t72.5 41t50 63.5t18.5 82q0 92 -59 140.5t-152 48.5h-32v38h32q80 0 138.5 42t58.5 124q0 43 -17.5 74t-47 50.5t-67.5 29.5t-77 10q-109 0 -170 -59.5t-59 -173.5h-41q-2 131 70.5 202.5t199.5 71.5 q47 0 92 -12t80 -37t56.5 -63.5t21.5 -92.5q0 -66 -35 -116t-94 -70q68 -20 105.5 -77.5t37.5 -129.5q0 -55 -22.5 -99t-59 -75t-86 -48t-100.5 -17q-66 0 -121 19t-93 57t-57.5 93.5t-15.5 124.5z" />
<glyph unicode="&#xb4;" horiz-adv-x="0" d="M385 1157l270 295h60l-299 -295h-31z" />
<glyph unicode="&#xb5;" horiz-adv-x="1019" d="M111 -422v1475h41v-693q0 -160 87 -252t246 -92q94 0 166 36t120 96.5t72.5 140.5t24.5 168v596h41v-1053h-41v260q-35 -139 -139 -212t-244 -73q-121 0 -205.5 49.5t-127.5 137.5v-584h-41z" />
<glyph unicode="&#xb6;" horiz-adv-x="933" d="M76 1073q0 195 119.5 298.5t336.5 103.5h291v-1897h-41v1856h-211v-1856h-41v1106q-102 0 -185 30.5t-143.5 84t-93 124t-32.5 150.5z" />
<glyph unicode="&#xb7;" horiz-adv-x="262" d="M76 737q0 23 16.5 39.5t38.5 16.5q23 0 39 -16.5t16 -39.5t-16 -39t-39 -16t-39 16.5t-16 38.5z" />
<glyph unicode="&#xb8;" horiz-adv-x="0" d="M365 -340l18 39q35 -12 72 -22.5t77 -10.5q29 0 57.5 5t52.5 17.5t38 34t14 52.5q0 20 -12 36.5t-28.5 25.5t-37 14.5t-34.5 5.5q-66 0 -111 -27l-33 20l117 150h43l-86 -115q14 2 26.5 7.5t41.5 5.5q59 0 107 -27.5t48 -95.5q0 -45 -16.5 -74t-44 -46t-64.5 -23.5 t-75 -6.5q-53 0 -96.5 12.5t-73.5 22.5z" />
<glyph unicode="&#xb9;" horiz-adv-x="364" d="M76 1366q0 47 25.5 78t91.5 31h61v-811h-41v770h-14q-59 0 -70.5 -22.5t-11.5 -55.5z" />
<glyph unicode="&#xba;" horiz-adv-x="768" d="M76 1169q0 63 20.5 124t59.5 106t96 72.5t133 27.5t133 -27.5t96 -72.5t58.5 -106t19.5 -124q0 -66 -19.5 -126t-58.5 -107t-97 -74.5t-134 -27.5q-74 0 -131 27.5t-96 74.5t-59.5 107.5t-20.5 125.5zM117 1169q0 -55 18.5 -108t52 -94t84 -67t113.5 -26t112.5 26t83 67 t52 94t18.5 108q0 53 -18.5 105.5t-52 93.5t-82.5 65.5t-113 24.5q-63 0 -113.5 -24.5t-84 -65.5t-52 -93t-18.5 -106z" />
<glyph unicode="&#xbb;" horiz-adv-x="585" d="M92 436v72l170 229l-170 230v71l211 -284v-33zM283 436v72l170 229l-170 230v71l211 -284v-33z" />
<glyph unicode="&#xbc;" horiz-adv-x="1089" d="M0 0l938 1475h47l-938 -1475h-47zM76 1366q0 47 25.5 78t91.5 31h61v-811h-41v770h-14q-59 0 -70.5 -22.5t-11.5 -55.5zM438 240v36l387 535h43v-532h23q59 0 70.5 23.5t11.5 55.5l41 -10q0 -47 -25.5 -77.5t-91.5 -30.5h-29v-240h-41v240h-389zM487 279h340v466z" />
<glyph unicode="&#xbd;" horiz-adv-x="1247" d="M0 0l938 1475h47l-938 -1475h-47zM76 1366q0 47 25.5 78t91.5 31h61v-811h-41v770h-14q-59 0 -70.5 -22.5t-11.5 -55.5zM659 0q-2 51 19.5 96t57.5 83t80 72t87 62q43 31 84 64t73 67.5t51 73.5t19 82q0 84 -57 134t-145 50q-115 0 -165 -71.5t-50 -180.5h-41 q2 135 65.5 214t190.5 79q51 0 95 -15t77 -45t52 -72t19 -93q0 -66 -31.5 -118t-80.5 -98t-107.5 -87t-111 -81t-91 -83t-49.5 -92h387q59 0 70.5 22.5t11.5 55.5l41 -10q0 -47 -26.5 -78t-91.5 -31h-433z" />
<glyph unicode="&#xbe;" horiz-adv-x="1355" d="M55 956h41q-10 -123 59.5 -189.5t186.5 -66.5q45 0 86 14.5t72.5 41t50 63.5t18.5 82q0 92 -59 140.5t-152 48.5h-32v38h32q80 0 138.5 42t58.5 124q0 43 -17.5 74t-47 50.5t-67.5 29.5t-77 10q-109 0 -170 -59.5t-59 -173.5h-41q-2 131 70.5 202.5t199.5 71.5 q47 0 92 -12t80 -37t56.5 -63.5t21.5 -92.5q0 -66 -35 -116t-94 -70q68 -20 105.5 -77.5t37.5 -129.5q0 -55 -22.5 -99t-59 -75t-86 -48t-100.5 -17q-66 0 -121 19t-93 57t-57.5 93.5t-15.5 124.5zM266 0l938 1475h47l-938 -1475h-47zM705 240v36l387 535h43v-532h22 q61 0 71.5 23.5t10.5 55.5l41 -10q0 -47 -25.5 -77.5t-91.5 -30.5h-28v-240h-41v240h-389zM754 279h340v466z" />
<glyph unicode="&#xbf;" horiz-adv-x="999" d="M76 315q0 76 22.5 134.5t53 102.5t65.5 75.5t59 54.5q55 53 94.5 97t64 90t34.5 101.5t10 129.5v219h41v-219q0 -70 -10 -125t-32.5 -105.5t-61.5 -99.5t-97 -104q-12 -12 -44.5 -39t-68.5 -70t-62.5 -103.5t-26.5 -138.5q0 -72 27.5 -128t75.5 -94t114.5 -57.5 t144.5 -19.5q100 0 178 33t129.5 91.5t76 141.5t20.5 181h41q4 -106 -25 -196.5t-86 -155t-141 -100.5t-193 -36q-84 0 -157.5 22.5t-128 65.5t-86 106.5t-31.5 145.5zM444 1442q0 23 16.5 39t39.5 16t39 -16t16 -39t-16.5 -39.5t-38.5 -16.5q-23 0 -39.5 16.5t-16.5 39.5z " />
<glyph unicode="&#xc0;" d="M111 0v1110q0 193 99 296t296 103t296 -103t99 -296v-1110h-41v717h-708v-717h-41zM152 758h708v305q0 98 -18.5 174t-59.5 127t-109.5 77.5t-166.5 26.5q-100 0 -168 -26.5t-110 -78.5t-59 -127t-17 -173v-305zM379 1862h59l256 -295h-30z" />
<glyph unicode="&#xc1;" d="M111 0v1110q0 193 99 296t296 103t296 -103t99 -296v-1110h-41v717h-708v-717h-41zM152 758h708v305q0 98 -18.5 174t-59.5 127t-109.5 77.5t-166.5 26.5q-100 0 -168 -26.5t-110 -78.5t-59 -127t-17 -173v-305zM313 1567l271 295h59l-299 -295h-31z" />
<glyph unicode="&#xc2;" d="M111 0v1110q0 193 99 296t296 103t296 -103t99 -296v-1110h-41v717h-708v-717h-41zM152 758h708v305q0 98 -18.5 174t-59.5 127t-109.5 77.5t-166.5 26.5q-100 0 -168 -26.5t-110 -78.5t-59 -127t-17 -173v-305zM260 1577l232 285h30l234 -285h-41l-211 252l-203 -252 h-41z" />
<glyph unicode="&#xc3;" d="M111 0v1110q0 193 99 296t296 103t296 -103t99 -296v-1110h-41v717h-708v-717h-41zM152 758h708v305q0 98 -18.5 174t-59.5 127t-109.5 77.5t-166.5 26.5q-100 0 -168 -26.5t-110 -78.5t-59 -127t-17 -173v-305zM258 1597q0 29 11.5 57.5t30.5 52.5t45 38t52 14 q35 0 69 -18.5t66.5 -41t63.5 -41t61 -18.5q47 0 74 35t27 78h41q0 -59 -35 -106.5t-107 -47.5q-39 0 -71.5 18.5t-63 41t-61.5 41t-64 18.5q-23 0 -40 -11t-30.5 -29.5t-20.5 -40t-7 -40.5h-41z" />
<glyph unicode="&#xc4;" d="M111 0v1110q0 193 99 296t296 103t296 -103t99 -296v-1110h-41v717h-708v-717h-41zM152 758h708v305q0 98 -18.5 174t-59.5 127t-109.5 77.5t-166.5 26.5q-100 0 -168 -26.5t-110 -78.5t-59 -127t-17 -173v-305zM295 1657q0 23 16.5 39t38.5 16q23 0 39.5 -16t16.5 -39 t-16.5 -39t-39.5 -16t-39 16t-16 39zM612 1657q0 23 16.5 39t39.5 16t39 -16t16 -39t-16.5 -39t-38.5 -16q-23 0 -39.5 16t-16.5 39z" />
<glyph unicode="&#xc5;" d="M111 0v1110q0 193 99 296t296 103t296 -103t99 -296v-1110h-41v717h-708v-717h-41zM152 758h708v305q0 98 -18.5 174t-59.5 127t-109.5 77.5t-166.5 26.5q-100 0 -168 -26.5t-110 -78.5t-59 -127t-17 -173v-305zM326 1698q0 37 14 69.5t38.5 57t57.5 39t70 14.5 t69.5 -14.5t57 -39t39 -57t14.5 -69.5t-14.5 -70t-39 -57.5t-57 -38.5t-69.5 -14t-70 14t-57.5 38.5t-38.5 57.5t-14 70zM367 1698q0 -57 41 -98t98 -41t98 41t41 98t-41 98t-98 41t-98 -41t-41 -98z" />
<glyph unicode="&#xc6;" horiz-adv-x="1761" d="M111 0v1110q0 193 99 296t296 103q133 0 222 -49t132 -141v156h801v-41h-760v-676h705v-41h-705v-676h768v-41h-809v717h-708v-717h-41zM152 758h708v305q0 98 -18.5 174t-59.5 127t-109.5 77.5t-166.5 26.5q-100 0 -168 -26.5t-110 -78.5t-59 -127t-17 -173v-305z" />
<glyph unicode="&#xc7;" horiz-adv-x="1439" d="M76 725q0 156 44 298t131 250.5t216 172t297 63.5q98 0 201.5 -33.5t190.5 -95t145.5 -149.5t62.5 -195h-41q-10 100 -63.5 181t-132 136.5t-174 85t-189.5 29.5q-158 0 -277.5 -61t-202.5 -164.5t-125 -238t-42 -279.5q0 -139 41 -268t119.5 -229.5t194.5 -161 t265 -60.5q131 0 232.5 43t174.5 118t118 179.5t61 226.5h41q-18 -129 -64.5 -238.5t-121 -190.5t-179 -128t-239.5 -51l-60 -80q14 2 26.5 7.5t41.5 5.5q59 0 106.5 -28t47.5 -95q0 -45 -16.5 -74t-44 -46t-64.5 -23.5t-76 -6.5q-53 0 -96 12.5t-72 22.5l18 39 q35 -12 72 -22.5t78 -10.5q29 0 57.5 5t51 17.5t37 34t14.5 52.5q0 20 -12.5 36.5t-29 25.5t-37 14.5t-34.5 5.5q-66 0 -111 -27l-30 20l90 115q-156 4 -275.5 69.5t-200.5 170t-123 240t-42 280.5z" />
<glyph unicode="&#xc8;" d="M111 0v1475h800v-41h-759v-676h704v-41h-704v-676h768v-41h-809zM340 1862h59l256 -295h-30z" />
<glyph unicode="&#xc9;" d="M111 0v1475h800v-41h-759v-676h704v-41h-704v-676h768v-41h-809zM438 1567l271 295h59l-299 -295h-31z" />
<glyph unicode="&#xca;" d="M111 0v1475h800v-41h-759v-676h704v-41h-704v-676h768v-41h-809zM262 1577l232 285h30l234 -285h-41l-211 252l-203 -252h-41z" />
<glyph unicode="&#xcb;" d="M111 0v1475h800v-41h-759v-676h704v-41h-704v-676h768v-41h-809zM297 1657q0 23 16.5 39t38.5 16q23 0 39.5 -16t16.5 -39t-16.5 -39t-39.5 -16t-39 16t-16 39zM614 1657q0 23 16.5 39t39.5 16t39 -16t16 -39t-16.5 -39t-38.5 -16q-23 0 -39.5 16t-16.5 39z" />
<glyph unicode="&#xcc;" horiz-adv-x="262" d="M-39 1862h59l256 -295h-30zM111 0v1475h41v-1475h-41z" />
<glyph unicode="&#xcd;" horiz-adv-x="262" d="M-43 1567l270 295h60l-299 -295h-31zM111 0v1475h41v-1475h-41z" />
<glyph unicode="&#xce;" horiz-adv-x="262" d="M-117 1577l232 285h30l234 -285h-41l-211 252l-203 -252h-41zM111 0v1475h41v-1475h-41z" />
<glyph unicode="&#xcf;" horiz-adv-x="262" d="M-82 1657q0 23 16.5 39t38.5 16q23 0 39.5 -16t16.5 -39t-16.5 -39t-39.5 -16t-39 16t-16 39zM111 0v1475h41v-1475h-41zM236 1657q0 23 16 39t39 16t39 -16t16 -39t-16.5 -39t-38.5 -16q-23 0 -39 16t-16 39z" />
<glyph unicode="&#xd0;" d="M-20 741v41h131v693h202q166 0 284 -58.5t192.5 -158t110.5 -233.5t36 -288q0 -162 -45 -297t-132 -233t-215 -152.5t-294 -54.5h-139v741h-131zM152 41h108q156 0 274.5 53t198.5 146.5t121 221.5t41 275t-33 275.5t-103.5 221.5t-183 146.5t-272.5 53.5h-151v-652h383 v-41h-383v-700z" />
<glyph unicode="&#xd1;" d="M111 0v1110q0 193 99 296t296 103t296 -103t99 -296v-1110h-41v1063q0 98 -18.5 174t-59.5 127t-109.5 77.5t-166.5 26.5q-100 0 -168 -26.5t-110 -78.5t-59 -127t-17 -173v-1063h-41zM291 1597q0 29 11 57.5t30.5 52.5t45 38t52.5 14q35 0 68.5 -18.5t66.5 -41t63.5 -41 t61.5 -18.5q47 0 74 35t27 78h40q0 -59 -34.5 -106.5t-106.5 -47.5q-39 0 -71.5 18.5t-63.5 41t-61.5 41t-63.5 18.5q-23 0 -40 -11t-30.5 -29.5t-20.5 -40t-7 -40.5h-41z" />
<glyph unicode="&#xd2;" horiz-adv-x="1499" d="M76 737q0 154 43 294t128 245.5t211 169t292 63.5t291.5 -63.5t210.5 -169t128 -245.5t43 -294t-43 -294t-128 -245.5t-211 -169t-291 -63.5q-166 0 -292 63.5t-211 169t-128 246t-43 293.5zM117 737q0 -145 40 -277t118.5 -233.5t197.5 -161t277 -59.5t276.5 59.5 t197.5 161t118.5 233.5t39.5 277t-39.5 277.5t-118.5 234t-198 160.5t-276 59q-158 0 -277 -59t-197.5 -160.5t-118.5 -233.5t-40 -278zM528 1862h60l256 -295h-31z" />
<glyph unicode="&#xd3;" horiz-adv-x="1499" d="M76 737q0 154 43 294t128 245.5t211 169t292 63.5t291.5 -63.5t210.5 -169t128 -245.5t43 -294t-43 -294t-128 -245.5t-211 -169t-291 -63.5q-166 0 -292 63.5t-211 169t-128 246t-43 293.5zM117 737q0 -145 40 -277t118.5 -233.5t197.5 -161t277 -59.5t276.5 59.5 t197.5 161t118.5 233.5t39.5 277t-39.5 277.5t-118.5 234t-198 160.5t-276 59q-158 0 -277 -59t-197.5 -160.5t-118.5 -233.5t-40 -278zM627 1567l270 295h59l-299 -295h-30z" />
<glyph unicode="&#xd4;" horiz-adv-x="1499" d="M76 737q0 154 43 294t128 245.5t211 169t292 63.5t291.5 -63.5t210.5 -169t128 -245.5t43 -294t-43 -294t-128 -245.5t-211 -169t-291 -63.5q-166 0 -292 63.5t-211 169t-128 246t-43 293.5zM117 737q0 -145 40 -277t118.5 -233.5t197.5 -161t277 -59.5t276.5 59.5 t197.5 161t118.5 233.5t39.5 277t-39.5 277.5t-118.5 234t-198 160.5t-276 59q-158 0 -277 -59t-197.5 -160.5t-118.5 -233.5t-40 -278zM492 1577l231 285h31l233 -285h-41l-211 252l-203 -252h-40z" />
<glyph unicode="&#xd5;" horiz-adv-x="1499" d="M76 737q0 154 43 294t128 245.5t211 169t292 63.5t291.5 -63.5t210.5 -169t128 -245.5t43 -294t-43 -294t-128 -245.5t-211 -169t-291 -63.5q-166 0 -292 63.5t-211 169t-128 246t-43 293.5zM117 737q0 -145 40 -277t118.5 -233.5t197.5 -161t277 -59.5t276.5 59.5 t197.5 161t118.5 233.5t39.5 277t-39.5 277.5t-118.5 234t-198 160.5t-276 59q-158 0 -277 -59t-197.5 -160.5t-118.5 -233.5t-40 -278zM489 1597q0 29 11.5 57.5t31 52.5t45 38t52.5 14q35 0 68.5 -18.5t66.5 -41t63.5 -41t61.5 -18.5q47 0 73.5 35t26.5 78h41 q0 -59 -34.5 -106.5t-106.5 -47.5q-39 0 -72 18.5t-63.5 41t-61 41t-63.5 18.5q-23 0 -40.5 -11t-30.5 -29.5t-20.5 -40t-7.5 -40.5h-41z" />
<glyph unicode="&#xd6;" horiz-adv-x="1499" d="M76 737q0 154 43 294t128 245.5t211 169t292 63.5t291.5 -63.5t210.5 -169t128 -245.5t43 -294t-43 -294t-128 -245.5t-211 -169t-291 -63.5q-166 0 -292 63.5t-211 169t-128 246t-43 293.5zM117 737q0 -145 40 -277t118.5 -233.5t197.5 -161t277 -59.5t276.5 59.5 t197.5 161t118.5 233.5t39.5 277t-39.5 277.5t-118.5 234t-198 160.5t-276 59q-158 0 -277 -59t-197.5 -160.5t-118.5 -233.5t-40 -278zM526 1657q0 23 16.5 39t39.5 16t39 -16t16 -39t-16.5 -39t-38.5 -16q-23 0 -39.5 16t-16.5 39zM844 1657q0 23 16.5 39t38.5 16 q23 0 39 -16t16 -39t-16 -39t-39 -16t-39 16t-16 39z" />
<glyph unicode="&#xd7;" horiz-adv-x="835" d="M0 348l389 389l-389 389l29 29l387 -393l391 393l29 -27l-392 -389l392 -389l-29 -31l-391 394l-387 -394z" />
<glyph unicode="&#xd8;" horiz-adv-x="1499" d="M76 731q0 156 44 295t129 243.5t211 166t290 61.5q154 0 273.5 -54t205.5 -149l121 133l30 -24l-125 -139q84 -104 126 -240.5t42 -292.5t-44 -295t-129 -243.5t-211 -166t-289 -61.5q-156 0 -276 54.5t-206 152.5l-145 -162l-31 25l150 166q-82 104 -124 240.5 t-42 289.5zM117 731q0 -152 40 -277.5t113 -220.5l930 1031q-82 92 -194.5 142t-255.5 50q-147 0 -264 -54t-199 -150.5t-126 -229.5t-44 -291zM297 203q80 -94 193.5 -145.5t259.5 -51.5q147 0 263.5 54.5t198.5 150.5t126 229t44 291q0 152 -39.5 279t-115.5 221z" />
<glyph unicode="&#xd9;" d="M111 365v1110h41v-1063q0 -98 18 -174t59 -127.5t110 -78t167 -26.5q100 0 167.5 26.5t108.5 79t59.5 127t18.5 173.5v1063h41v-1110q0 -193 -99.5 -296.5t-295.5 -103.5q-197 0 -296 103.5t-99 296.5zM354 1862h60l256 -295h-31z" />
<glyph unicode="&#xda;" d="M111 365v1110h41v-1063q0 -98 18 -174t59 -127.5t110 -78t167 -26.5q100 0 167.5 26.5t108.5 79t59.5 127t18.5 173.5v1063h41v-1110q0 -193 -99.5 -296.5t-295.5 -103.5q-197 0 -296 103.5t-99 296.5zM350 1567l271 295h59l-299 -295h-31z" />
<glyph unicode="&#xdb;" d="M111 365v1110h41v-1063q0 -98 18 -174t59 -127.5t110 -78t167 -26.5q100 0 167.5 26.5t108.5 79t59.5 127t18.5 173.5v1063h41v-1110q0 -193 -99.5 -296.5t-295.5 -103.5q-197 0 -296 103.5t-99 296.5zM256 1577l231 285h31l234 -285h-41l-211 252l-203 -252h-41z" />
<glyph unicode="&#xdc;" d="M111 365v1110h41v-1063q0 -98 18 -174t59 -127.5t110 -78t167 -26.5q100 0 167.5 26.5t108.5 79t59.5 127t18.5 173.5v1063h41v-1110q0 -193 -99.5 -296.5t-295.5 -103.5q-197 0 -296 103.5t-99 296.5zM311 1657q0 23 16.5 39t39.5 16t39 -16t16 -39t-16.5 -39t-38.5 -16 q-23 0 -39.5 16t-16.5 39zM629 1657q0 23 16.5 39t38.5 16q23 0 39 -16t16 -39t-16 -39t-39 -16t-39 16t-16 39z" />
<glyph unicode="&#xdd;" d="M111 1116v359h41v-312q0 -98 18 -174t59 -127t110 -77.5t167 -26.5q100 0 167.5 26.5t108.5 78.5t59.5 127t18.5 173v312h41v-359q0 -186 -94 -289.5t-281 -109.5v-717h-41v717q-186 6 -280 109.5t-94 289.5zM438 1612l271 295h59l-299 -295h-31z" />
<glyph unicode="&#xde;" d="M111 0v1475h41v-254h340q211 0 327.5 -100.5t116.5 -299.5q0 -96 -35 -171t-96.5 -125t-147.5 -75.5t-186 -25.5h-319v-424h-41zM152 465h340q86 0 159.5 23.5t128 69.5t85 111.5t30.5 151.5q0 174 -100.5 266.5t-302.5 92.5h-340v-715z" />
<glyph unicode="&#xdf;" horiz-adv-x="999" d="M111 0v1147q0 168 97 260t263 92q74 0 142.5 -23.5t120.5 -67.5t83 -107.5t31 -141.5q0 -129 -64.5 -221t-195.5 -115q174 -16 255 -119.5t81 -269.5q0 -117 -32 -198.5t-92.5 -134t-147.5 -77t-199 -24.5h-41v41q14 0 26.5 -1t26.5 -1q199 0 308.5 93t109.5 300 q0 113 -35 184.5t-96.5 112.5t-145.5 55.5t-180 14.5h-14v41h14q78 0 147.5 17t122 55t82 98.5t29.5 146.5q0 72 -27.5 128t-74 94t-106.5 58.5t-128 20.5q-152 0 -235.5 -81t-83.5 -234v-1143h-41z" />
<glyph unicode="&#xe0;" horiz-adv-x="1079" d="M76 504q0 115 29.5 218t90 182t152.5 126t219 47q115 0 211 -52t150 -155v183h41v-1053h-41v203q-51 -109 -150.5 -168.5t-234.5 -59.5q-113 0 -200 42t-146.5 115t-90 168t-30.5 204zM117 504q0 -96 27.5 -184.5t81 -156t133 -107.5t184.5 -40q78 0 147.5 23.5t122.5 69 t84 108t31 141.5v375q0 63 -32 118.5t-83 96.5t-115.5 64.5t-130.5 23.5q-127 0 -213 -48t-138 -125t-75.5 -172t-23.5 -187zM385 1452h59l256 -295h-30z" />
<glyph unicode="&#xe1;" horiz-adv-x="1079" d="M76 504q0 115 29.5 218t90 182t152.5 126t219 47q115 0 211 -52t150 -155v183h41v-1053h-41v203q-51 -109 -150.5 -168.5t-234.5 -59.5q-113 0 -200 42t-146.5 115t-90 168t-30.5 204zM117 504q0 -96 27.5 -184.5t81 -156t133 -107.5t184.5 -40q78 0 147.5 23.5t122.5 69 t84 108t31 141.5v375q0 63 -32 118.5t-83 96.5t-115.5 64.5t-130.5 23.5q-127 0 -213 -48t-138 -125t-75.5 -172t-23.5 -187zM381 1157l270 295h60l-299 -295h-31z" />
<glyph unicode="&#xe2;" horiz-adv-x="1079" d="M76 504q0 115 29.5 218t90 182t152.5 126t219 47q115 0 211 -52t150 -155v183h41v-1053h-41v203q-51 -109 -150.5 -168.5t-234.5 -59.5q-113 0 -200 42t-146.5 115t-90 168t-30.5 204zM117 504q0 -96 27.5 -184.5t81 -156t133 -107.5t184.5 -40q78 0 147.5 23.5t122.5 69 t84 108t31 141.5v375q0 63 -32 118.5t-83 96.5t-115.5 64.5t-130.5 23.5q-127 0 -213 -48t-138 -125t-75.5 -172t-23.5 -187zM307 1167l232 285h30l234 -285h-41l-211 252l-203 -252h-41z" />
<glyph unicode="&#xe3;" horiz-adv-x="1079" d="M76 504q0 115 29.5 218t90 182t152.5 126t219 47q115 0 211 -52t150 -155v183h41v-1053h-41v203q-51 -109 -150.5 -168.5t-234.5 -59.5q-113 0 -200 42t-146.5 115t-90 168t-30.5 204zM117 504q0 -96 27.5 -184.5t81 -156t133 -107.5t184.5 -40q78 0 147.5 23.5t122.5 69 t84 108t31 141.5v375q0 63 -32 118.5t-83 96.5t-115.5 64.5t-130.5 23.5q-127 0 -213 -48t-138 -125t-75.5 -172t-23.5 -187zM305 1188q0 29 11.5 57.5t31 52t45 38t51.5 14.5q35 0 69 -18.5t66.5 -41t63.5 -41t62 -18.5q47 0 73.5 34.5t26.5 77.5h41q0 -59 -35 -106 t-106 -47q-39 0 -72 18.5t-63.5 41t-61.5 41t-64 18.5q-23 0 -40 -11.5t-30.5 -30t-20.5 -40t-7 -39.5h-41z" />
<glyph unicode="&#xe4;" horiz-adv-x="1079" d="M76 504q0 115 29.5 218t90 182t152.5 126t219 47q115 0 211 -52t150 -155v183h41v-1053h-41v203q-51 -109 -150.5 -168.5t-234.5 -59.5q-113 0 -200 42t-146.5 115t-90 168t-30.5 204zM117 504q0 -96 27.5 -184.5t81 -156t133 -107.5t184.5 -40q78 0 147.5 23.5t122.5 69 t84 108t31 141.5v375q0 63 -32 118.5t-83 96.5t-115.5 64.5t-130.5 23.5q-127 0 -213 -48t-138 -125t-75.5 -172t-23.5 -187zM362 1247q0 23 16.5 39.5t39.5 16.5t39 -16.5t16 -39.5t-16.5 -39t-38.5 -16q-23 0 -39.5 16.5t-16.5 38.5zM680 1247q0 23 16.5 39.5t38.5 16.5 q23 0 39.5 -16.5t16.5 -39.5t-16.5 -39t-39.5 -16t-39 16.5t-16 38.5z" />
<glyph unicode="&#xe5;" horiz-adv-x="1079" d="M76 504q0 115 29.5 218t90 182t152.5 126t219 47q115 0 211 -52t150 -155v183h41v-1053h-41v203q-51 -109 -150.5 -168.5t-234.5 -59.5q-113 0 -200 42t-146.5 115t-90 168t-30.5 204zM117 504q0 -96 27.5 -184.5t81 -156t133 -107.5t184.5 -40q78 0 147.5 23.5t122.5 69 t84 108t31 141.5v375q0 63 -32 118.5t-83 96.5t-115.5 64.5t-130.5 23.5q-127 0 -213 -48t-138 -125t-75.5 -172t-23.5 -187zM395 1380q0 37 14.5 70t39 57.5t57.5 39t69 14.5q37 0 70 -14.5t57.5 -39t39 -57.5t14.5 -70t-14.5 -69.5t-39 -57t-57.5 -39t-70 -14.5 t-69.5 14.5t-57 39t-39 57t-14.5 69.5zM436 1380q0 -57 41 -98t98 -41t98.5 41t41.5 98t-41 98.5t-99 41.5q-57 0 -98 -41t-41 -99z" />
<glyph unicode="&#xe6;" horiz-adv-x="1896" d="M76 504q0 115 29.5 218t90 182t152.5 126t219 47q115 0 211 -52t150 -155v183h41v-295q49 139 160.5 229t289.5 90q78 0 147.5 -24.5t123 -68.5t87 -107.5t44.5 -143.5l-848 -309q10 -84 43 -157.5t85 -129t125.5 -88.5t168.5 -33q78 0 145.5 23.5t118.5 69t83 108 t38 141.5h41q-8 -88 -43 -158.5t-90.5 -120.5t-130 -77t-162.5 -27q-162 0 -269.5 84t-156.5 213v-272h-41v203q-51 -109 -150.5 -168.5t-234.5 -59.5q-113 0 -200 42t-146.5 115t-90 168t-30.5 204zM117 504q0 -96 27.5 -184.5t81 -156t133 -107.5t184.5 -40 q78 0 147.5 23.5t122.5 69t84 108t31 141.5v375q0 63 -32 118.5t-83 96.5t-115.5 64.5t-130.5 23.5q-127 0 -213 -48t-138 -125t-75.5 -172t-23.5 -187zM969 467l807 293q-29 131 -125.5 203.5t-231.5 72.5q-117 0 -201.5 -43t-140 -116.5t-82 -170t-26.5 -202.5v-37z" />
<glyph unicode="&#xe7;" horiz-adv-x="1044" d="M76 504q0 115 29.5 219t90 183t152.5 125t219 46q78 0 147.5 -24.5t123 -68.5t87 -107.5t44.5 -143.5h-41q-23 143 -120 223t-241 80q-117 0 -201.5 -43t-140 -116.5t-82 -170t-26.5 -202.5q0 -96 27.5 -184.5t81 -156t133 -107.5t184.5 -40q78 0 145.5 23.5t118.5 69 t83 108t38 141.5h41q-16 -174 -126 -275t-282 -108l-65 -90q14 2 26.5 7.5t40.5 5.5q59 0 106.5 -28t47.5 -95q0 -45 -16.5 -74t-44 -46t-64.5 -23.5t-76 -6.5q-53 0 -96 12.5t-72 22.5l19 39q35 -12 71.5 -22.5t77.5 -10.5q29 0 57.5 5t51 17.5t37 34t14.5 52.5 q0 20 -12.5 36.5t-29 25.5t-36.5 14.5t-35 5.5q-66 0 -110 -27l-31 20l98 125q-109 4 -191.5 49.5t-139 117t-85 165.5t-28.5 197z" />
<glyph unicode="&#xe8;" horiz-adv-x="1044" d="M76 504q0 115 29.5 219t90 183t152.5 125t219 46q78 0 147.5 -24.5t123 -68.5t87 -107.5t44.5 -143.5l-848 -309q10 -84 43 -157.5t85 -129t126 -88.5t168 -33q78 0 145.5 23.5t118.5 69t83 108t38 141.5h41q-8 -88 -43 -158.5t-90.5 -120.5t-130 -77t-162.5 -27 q-115 0 -202 43t-145.5 116t-89 168t-30.5 202zM117 467l807 293q-29 131 -125.5 203.5t-231.5 72.5q-117 0 -201.5 -43t-140 -116.5t-82 -170t-26.5 -202.5v-37zM403 1452h60l256 -295h-31z" />
<glyph unicode="&#xe9;" horiz-adv-x="1044" d="M76 504q0 115 29.5 219t90 183t152.5 125t219 46q78 0 147.5 -24.5t123 -68.5t87 -107.5t44.5 -143.5l-848 -309q10 -84 43 -157.5t85 -129t126 -88.5t168 -33q78 0 145.5 23.5t118.5 69t83 108t38 141.5h41q-8 -88 -43 -158.5t-90.5 -120.5t-130 -77t-162.5 -27 q-115 0 -202 43t-145.5 116t-89 168t-30.5 202zM117 467l807 293q-29 131 -125.5 203.5t-231.5 72.5q-117 0 -201.5 -43t-140 -116.5t-82 -170t-26.5 -202.5v-37zM399 1157l271 295h59l-299 -295h-31z" />
<glyph unicode="&#xea;" horiz-adv-x="1044" d="M76 504q0 115 29.5 219t90 183t152.5 125t219 46q78 0 147.5 -24.5t123 -68.5t87 -107.5t44.5 -143.5l-848 -309q10 -84 43 -157.5t85 -129t126 -88.5t168 -33q78 0 145.5 23.5t118.5 69t83 108t38 141.5h41q-8 -88 -43 -158.5t-90.5 -120.5t-130 -77t-162.5 -27 q-115 0 -202 43t-145.5 116t-89 168t-30.5 202zM117 467l807 293q-29 131 -125.5 203.5t-231.5 72.5q-117 0 -201.5 -43t-140 -116.5t-82 -170t-26.5 -202.5v-37zM326 1167l231 285h31l233 -285h-41l-211 252l-202 -252h-41z" />
<glyph unicode="&#xeb;" horiz-adv-x="1044" d="M76 504q0 115 29.5 219t90 183t152.5 125t219 46q78 0 147.5 -24.5t123 -68.5t87 -107.5t44.5 -143.5l-848 -309q10 -84 43 -157.5t85 -129t126 -88.5t168 -33q78 0 145.5 23.5t118.5 69t83 108t38 141.5h41q-8 -88 -43 -158.5t-90.5 -120.5t-130 -77t-162.5 -27 q-115 0 -202 43t-145.5 116t-89 168t-30.5 202zM117 467l807 293q-29 131 -125.5 203.5t-231.5 72.5q-117 0 -201.5 -43t-140 -116.5t-82 -170t-26.5 -202.5v-37zM360 1247q0 23 16.5 39.5t39.5 16.5t39 -16.5t16 -39.5t-16.5 -39t-38.5 -16q-23 0 -39.5 16.5t-16.5 38.5z M678 1247q0 23 16.5 39.5t38.5 16.5q23 0 39 -16.5t16 -39.5t-16 -39t-39 -16t-39 16.5t-16 38.5z" />
<glyph unicode="&#xec;" horiz-adv-x="262" d="M-16 1452h59l256 -295h-31zM111 0v1053h41v-1053h-41z" />
<glyph unicode="&#xed;" horiz-adv-x="262" d="M-20 1157l270 295h59l-299 -295h-30zM111 0v1053h41v-1053h-41z" />
<glyph unicode="&#xee;" horiz-adv-x="262" d="M-115 1167l232 285h30l234 -285h-41l-211 252l-203 -252h-41zM111 0v1053h41v-1053h-41z" />
<glyph unicode="&#xef;" horiz-adv-x="262" d="M-80 1247q0 23 16.5 39.5t38.5 16.5q23 0 39.5 -16.5t16.5 -39.5t-16.5 -39t-39.5 -16t-39 16.5t-16 38.5zM111 0v1053h41v-1053h-41zM238 1247q0 23 16 39.5t39 16.5t39 -16.5t16 -39.5t-16.5 -39t-38.5 -16q-23 0 -39 16.5t-16 38.5z" />
<glyph unicode="&#xf0;" horiz-adv-x="1099" d="M76 506q0 106 31.5 202.5t92 169t148.5 115.5t203 43q96 0 189.5 -39t152.5 -116q-29 55 -69 114.5t-86 115.5t-95 107.5t-96 92.5l-250 -140l-31 31l248 137q-90 70 -190 123l32 29q109 -57 197 -131l252 139l31 -33l-246 -137q92 -86 172 -175t138 -189.5t91 -214 t33 -244.5q0 -106 -31.5 -202.5t-92 -169.5t-149.5 -116t-202 -43q-115 0 -203 43t-147.5 116t-91 169t-31.5 203zM117 506q0 -98 28.5 -187.5t84 -156t136 -106.5t185.5 -40q104 0 185 40t135.5 107.5t83 157t28.5 185.5t-28.5 185t-84 156.5t-135.5 107.5t-184 40 t-185 -40t-136.5 -107.5t-84 -155.5t-28.5 -186z" />
<glyph unicode="&#xf1;" horiz-adv-x="1019" d="M111 0v1053h41v-260q35 139 139 211.5t244 72.5q174 0 274 -102.5t100 -276.5v-698h-41v692q0 160 -87 252t-246 92q-94 0 -166 -35.5t-120 -96t-72.5 -140.5t-24.5 -168v-596h-41zM283 1188q0 29 11 57.5t30.5 52t45 38t52.5 14.5q35 0 68.5 -18.5t66.5 -41t63.5 -41 t61.5 -18.5q47 0 73.5 34.5t26.5 77.5h41q0 -59 -34.5 -106t-106.5 -47q-39 0 -71.5 18.5t-63.5 41t-61.5 41t-63.5 18.5q-23 0 -40 -11.5t-30.5 -30t-20.5 -40t-7 -39.5h-41z" />
<glyph unicode="&#xf2;" horiz-adv-x="1099" d="M76 526q0 106 30.5 207t91 176.5t148.5 121.5t205 46q115 0 203 -46t148.5 -121.5t91 -176.5t30.5 -207q0 -109 -30.5 -208t-91 -175.5t-148.5 -122t-205 -45.5q-115 0 -204 45.5t-148.5 122t-90 176t-30.5 207.5zM117 526q0 -100 27.5 -192t83 -163t136 -113t187.5 -42 q104 0 185 42t136.5 113t83 163t27.5 192q0 98 -27.5 190.5t-83 163t-136.5 113.5t-185 43q-106 0 -187 -43t-136.5 -113.5t-83 -162.5t-27.5 -191zM383 1452h59l256 -295h-30z" />
<glyph unicode="&#xf3;" horiz-adv-x="1099" d="M76 526q0 106 30.5 207t91 176.5t148.5 121.5t205 46q115 0 203 -46t148.5 -121.5t91 -176.5t30.5 -207q0 -109 -30.5 -208t-91 -175.5t-148.5 -122t-205 -45.5q-115 0 -204 45.5t-148.5 122t-90 176t-30.5 207.5zM117 526q0 -100 27.5 -192t83 -163t136 -113t187.5 -42 q104 0 185 42t136.5 113t83 163t27.5 192q0 98 -27.5 190.5t-83 163t-136.5 113.5t-185 43q-106 0 -187 -43t-136.5 -113.5t-83 -162.5t-27.5 -191zM420 1157l270 295h60l-299 -295h-31z" />
<glyph unicode="&#xf4;" horiz-adv-x="1099" d="M76 526q0 106 30.5 207t91 176.5t148.5 121.5t205 46q115 0 203 -46t148.5 -121.5t91 -176.5t30.5 -207q0 -109 -30.5 -208t-91 -175.5t-148.5 -122t-205 -45.5q-115 0 -204 45.5t-148.5 122t-90 176t-30.5 207.5zM117 526q0 -100 27.5 -192t83 -163t136 -113t187.5 -42 q104 0 185 42t136.5 113t83 163t27.5 192q0 98 -27.5 190.5t-83 163t-136.5 113.5t-185 43q-106 0 -187 -43t-136.5 -113.5t-83 -162.5t-27.5 -191zM305 1167l232 285h30l234 -285h-41l-211 252l-203 -252h-41z" />
<glyph unicode="&#xf5;" horiz-adv-x="1099" d="M76 526q0 106 30.5 207t91 176.5t148.5 121.5t205 46q115 0 203 -46t148.5 -121.5t91 -176.5t30.5 -207q0 -109 -30.5 -208t-91 -175.5t-148.5 -122t-205 -45.5q-115 0 -204 45.5t-148.5 122t-90 176t-30.5 207.5zM117 526q0 -100 27.5 -192t83 -163t136 -113t187.5 -42 q104 0 185 42t136.5 113t83 163t27.5 192q0 98 -27.5 190.5t-83 163t-136.5 113.5t-185 43q-106 0 -187 -43t-136.5 -113.5t-83 -162.5t-27.5 -191zM283 1188q0 29 11 57.5t30.5 52t45 38t52.5 14.5q35 0 68.5 -18.5t66.5 -41t63.5 -41t61.5 -18.5q47 0 73.5 34.5t26.5 77.5 h41q0 -59 -34.5 -106t-106.5 -47q-39 0 -71.5 18.5t-63.5 41t-61.5 41t-63.5 18.5q-23 0 -40 -11.5t-30.5 -30t-20.5 -40t-7 -39.5h-41z" />
<glyph unicode="&#xf6;" horiz-adv-x="1099" d="M76 526q0 106 30.5 207t91 176.5t148.5 121.5t205 46q115 0 203 -46t148.5 -121.5t91 -176.5t30.5 -207q0 -109 -30.5 -208t-91 -175.5t-148.5 -122t-205 -45.5q-115 0 -204 45.5t-148.5 122t-90 176t-30.5 207.5zM117 526q0 -100 27.5 -192t83 -163t136 -113t187.5 -42 q104 0 185 42t136.5 113t83 163t27.5 192q0 98 -27.5 190.5t-83 163t-136.5 113.5t-185 43q-106 0 -187 -43t-136.5 -113.5t-83 -162.5t-27.5 -191zM340 1247q0 23 16.5 39.5t38.5 16.5q23 0 39.5 -16.5t16.5 -39.5t-16.5 -39t-39.5 -16t-39 16.5t-16 38.5zM657 1247 q0 23 16.5 39.5t39.5 16.5t39 -16.5t16 -39.5t-16.5 -39t-38.5 -16q-23 0 -39.5 16.5t-16.5 38.5z" />
<glyph unicode="&#xf7;" horiz-adv-x="1216" d="M92 717v41h1032v-41h-1032zM524 303q0 37 24.5 60.5t59.5 23.5t59.5 -24.5t24.5 -59.5t-18.5 -59.5t-65.5 -24.5q-45 0 -64.5 24.5t-19.5 59.5zM524 1171q0 37 24.5 60.5t59.5 23.5t59.5 -24.5t24.5 -59.5t-18.5 -59.5t-65.5 -24.5q-45 0 -64.5 25t-19.5 59z" />
<glyph unicode="&#xf8;" horiz-adv-x="1099" d="M55 45l123 127q-51 72 -76.5 164t-25.5 190q0 106 30.5 207t91 176.5t148.5 121.5t205 46q111 0 197 -42t145 -115l92 96l29 -29l-96 -100q53 -72 79.5 -165.5t26.5 -195.5q0 -109 -30.5 -208t-91 -175.5t-148.5 -122t-205 -45.5q-115 0 -202 44t-146 118l-117 -121z M117 526q0 -90 22.5 -173t67.5 -150l655 686q-53 68 -130 107.5t-181 39.5q-106 0 -187 -43t-136.5 -113.5t-83 -162.5t-27.5 -191zM231 170q53 -72 133 -113t187 -41q104 0 185 42t136.5 113t83 163t27.5 192q0 92 -24.5 176t-71.5 154z" />
<glyph unicode="&#xf9;" horiz-adv-x="1019" d="M111 354v699h41v-693q0 -160 87 -252t246 -92q94 0 166 36t120 96.5t72.5 140.5t24.5 168v596h41v-1053h-41v260q-35 -139 -139 -212t-244 -73q-174 0 -274 102.5t-100 276.5zM322 1452h59l256 -295h-31z" />
<glyph unicode="&#xfa;" horiz-adv-x="1019" d="M111 354v699h41v-693q0 -160 87 -252t246 -92q94 0 166 36t120 96.5t72.5 140.5t24.5 168v596h41v-1053h-41v260q-35 -139 -139 -212t-244 -73q-174 0 -274 102.5t-100 276.5zM358 1157l271 295h59l-299 -295h-31z" />
<glyph unicode="&#xfb;" horiz-adv-x="1019" d="M111 354v699h41v-693q0 -160 87 -252t246 -92q94 0 166 36t120 96.5t72.5 140.5t24.5 168v596h41v-1053h-41v260q-35 -139 -139 -212t-244 -73q-174 0 -274 102.5t-100 276.5zM264 1167l232 285h30l234 -285h-41l-211 252l-203 -252h-41z" />
<glyph unicode="&#xfc;" horiz-adv-x="1019" d="M111 354v699h41v-693q0 -160 87 -252t246 -92q94 0 166 36t120 96.5t72.5 140.5t24.5 168v596h41v-1053h-41v260q-35 -139 -139 -212t-244 -73q-174 0 -274 102.5t-100 276.5zM299 1247q0 23 16.5 39.5t38.5 16.5q23 0 39.5 -16.5t16.5 -39.5t-16.5 -39t-39.5 -16 t-39 16.5t-16 38.5zM616 1247q0 23 16.5 39.5t39.5 16.5t39 -16.5t16 -39.5t-16.5 -39t-38.5 -16q-23 0 -39.5 16.5t-16.5 38.5z" />
<glyph unicode="&#xfd;" horiz-adv-x="1019" d="M70 -125h41q2 -78 31.5 -133t78.5 -90t112.5 -51.5t135.5 -16.5q193 0 296 92.5t103 288.5v295q-35 -139 -139 -212t-244 -73q-174 0 -274 102.5t-100 276.5v699h41v-693q0 -160 87 -252t246 -92q94 0 166 36t120 96.5t72.5 140.5t24.5 168v596h41v-1088 q0 -217 -115.5 -319.5t-322.5 -102.5q-80 0 -151.5 18.5t-127 58.5t-88 103.5t-34.5 151.5zM387 1202l270 295h60l-299 -295h-31z" />
<glyph unicode="&#xfe;" horiz-adv-x="1079" d="M111 -422v1897h41v-605q53 102 149 154.5t211 52.5q127 0 219 -47t152.5 -126t90.5 -182t30 -218q0 -109 -31 -204t-90.5 -168t-146.5 -115t-199 -42q-135 0 -234.5 59.5t-150.5 168.5v-625h-41zM152 358q0 -80 30.5 -142t83.5 -107.5t123 -69t148 -23.5q104 0 184 40 t133 107.5t81 156t28 184.5q0 92 -24 187t-76 172t-139 125t-212 48q-66 0 -130.5 -23.5t-115.5 -64.5t-82.5 -96t-31.5 -119v-375z" />
<glyph unicode="&#xff;" horiz-adv-x="1019" d="M70 -125h41q2 -78 31.5 -133t78.5 -90t112.5 -51.5t135.5 -16.5q193 0 296 92.5t103 288.5v295q-35 -139 -139 -212t-244 -73q-174 0 -274 102.5t-100 276.5v699h41v-693q0 -160 87 -252t246 -92q94 0 166 36t120 96.5t72.5 140.5t24.5 168v596h41v-1088 q0 -217 -115.5 -319.5t-322.5 -102.5q-80 0 -151.5 18.5t-127 58.5t-88 103.5t-34.5 151.5zM307 1292q0 23 16.5 39.5t38.5 16.5q23 0 39.5 -16.5t16.5 -39.5t-16.5 -39t-39.5 -16t-39 16.5t-16 38.5zM625 1292q0 23 16 39.5t39 16.5t39 -16.5t16 -39.5t-16.5 -39t-38.5 -16 q-23 0 -39 16.5t-16 38.5z" />
<glyph unicode="&#x152;" horiz-adv-x="2224" d="M76 725q0 156 44 298t131 250.5t216 172t297 63.5q78 0 162 -21.5t159.5 -62.5t138 -99t99.5 -132v281h801v-41h-760v-676h704v-41h-704v-676h768v-41h-809v395q-33 -96 -85 -175t-126 -136t-167 -88t-208 -31q-160 0 -282.5 63.5t-207.5 169t-128 243t-43 284.5z M117 725q0 -139 41 -268t119.5 -229.5t194.5 -161t265 -60.5q131 0 232.5 43t174.5 118t118 179.5t61 226.5v463q-10 100 -63.5 181t-132 136.5t-174 85t-189.5 29.5q-158 0 -277.5 -61t-202.5 -164.5t-125 -238t-42 -279.5z" />
<glyph unicode="&#x153;" horiz-adv-x="1951" d="M76 526q0 106 30.5 207t91 176.5t148.5 121.5t205 46q92 0 167 -29.5t132 -82t96 -123t60 -150.5q20 82 58 152.5t96.5 122t137 80t177.5 28.5q78 0 147.5 -24.5t122.5 -68.5t87 -107.5t44 -143.5l-848 -309q10 -84 43 -158t85 -129t126 -88t168 -33q78 0 145.5 23.5 t118.5 69t83 107.5t38 142h41q-8 -88 -43 -158.5t-90 -120.5t-130 -77t-163 -27q-92 0 -166 29t-131 79t-95 117.5t-57 145.5q-20 -78 -60 -145.5t-96.5 -116.5t-131 -78t-164.5 -29q-115 0 -204 45.5t-148.5 122t-90 176t-30.5 207.5zM117 526q0 -100 27.5 -192t83 -163 t136 -113t187.5 -42q104 0 185 42t136.5 113t83 163t27.5 192q0 98 -27.5 190.5t-83 163t-136.5 113.5t-185 43q-106 0 -187 -43t-136.5 -113.5t-83 -162.5t-27.5 -191zM1024 465l807 293q-29 131 -125 203.5t-231 72.5q-117 0 -202 -43t-140.5 -116.5t-82 -170 t-26.5 -202.5v-37z" />
<glyph unicode="&#x178;" d="M111 1116v359h41v-312q0 -98 18 -174t59 -127t110 -77.5t167 -26.5q100 0 167.5 26.5t108.5 78.5t59.5 127t18.5 173v312h41v-359q0 -186 -94 -289.5t-281 -109.5v-717h-41v717q-186 6 -280 109.5t-94 289.5zM297 1657q0 23 16.5 39t38.5 16q23 0 39.5 -16t16.5 -39 t-16.5 -39t-39.5 -16t-39 16t-16 39zM614 1657q0 23 16.5 39t39.5 16t39 -16t16 -39t-16.5 -39t-38.5 -16q-23 0 -39.5 16t-16.5 39z" />
<glyph unicode="&#x2c6;" horiz-adv-x="0" d="M301 1167l231 285h31l236 -285h-41l-211 252l-203 -252h-43z" />
<glyph unicode="&#x2dc;" horiz-adv-x="0" d="M279 1188q0 29 11 57.5t30.5 52t45 38t52.5 14.5q35 0 68.5 -18.5t66.5 -41t63.5 -41t61.5 -18.5q47 0 73.5 34.5t26.5 77.5h43q0 -59 -34.5 -106t-106.5 -47q-39 0 -72 18.5t-63.5 41t-61 41t-63.5 18.5q-23 0 -40.5 -11.5t-30.5 -30t-20 -40t-7 -39.5h-43z" />
<glyph unicode="&#x2000;" horiz-adv-x="953" />
<glyph unicode="&#x2001;" horiz-adv-x="1907" />
<glyph unicode="&#x2002;" horiz-adv-x="953" />
<glyph unicode="&#x2003;" horiz-adv-x="1907" />
<glyph unicode="&#x2004;" horiz-adv-x="635" />
<glyph unicode="&#x2005;" horiz-adv-x="476" />
<glyph unicode="&#x2006;" horiz-adv-x="317" />
<glyph unicode="&#x2007;" horiz-adv-x="317" />
<glyph unicode="&#x2008;" horiz-adv-x="238" />
<glyph unicode="&#x2009;" horiz-adv-x="381" />
<glyph unicode="&#x200a;" horiz-adv-x="105" />
<glyph unicode="&#x2010;" horiz-adv-x="542" d="M92 528v41h359v-41h-359z" />
<glyph unicode="&#x2011;" horiz-adv-x="542" d="M92 528v41h359v-41h-359z" />
<glyph unicode="&#x2012;" horiz-adv-x="542" d="M92 528v41h359v-41h-359z" />
<glyph unicode="&#x2013;" horiz-adv-x="1208" d="M92 528v41h1024v-41h-1024z" />
<glyph unicode="&#x2014;" horiz-adv-x="2232" d="M92 528v41h2048v-41h-2048z" />
<glyph unicode="&#x2018;" horiz-adv-x="266" d="M0 1479l35 20l231 -399l-35 -21z" />
<glyph unicode="&#x2019;" horiz-adv-x="266" d="M0 1100l229 399l37 -20l-231 -400z" />
<glyph unicode="&#x201a;" horiz-adv-x="266" d="M0 -195l229 400l37 -21l-231 -399z" />
<glyph unicode="&#x201c;" horiz-adv-x="423" d="M0 1479l35 20l231 -399l-35 -21zM158 1479l35 20l231 -399l-35 -21z" />
<glyph unicode="&#x201d;" horiz-adv-x="423" d="M0 1100l229 399l37 -20l-231 -400zM158 1100l229 399l37 -20l-231 -400z" />
<glyph unicode="&#x201e;" horiz-adv-x="425" d="M0 -195l229 400l37 -21l-231 -399zM160 -195l229 400l37 -21l-231 -399z" />
<glyph unicode="&#x2022;" horiz-adv-x="518" d="M76 737q0 76 52 129.5t130 53.5q76 0 130 -53.5t54 -129.5q0 -78 -53 -131t-131 -53q-76 0 -129 53t-53 131z" />
<glyph unicode="&#x2026;" horiz-adv-x="2048" d="M287 55q0 23 16 39.5t39 16.5t39 -16.5t16 -39.5t-16 -39t-39 -16t-39 16.5t-16 38.5zM969 55q0 23 16 39.5t39 16.5t39 -16.5t16 -39.5t-16 -39t-39 -16t-39 16.5t-16 38.5zM1651 55q0 23 16 39.5t39 16.5t39 -16.5t16 -39.5t-16 -39t-39 -16t-39 16.5t-16 38.5z" />
<glyph unicode="&#x202f;" horiz-adv-x="381" />
<glyph unicode="&#x2039;" horiz-adv-x="395" d="M92 721v33l211 284v-71l-170 -230l170 -229v-72z" />
<glyph unicode="&#x203a;" horiz-adv-x="395" d="M92 436v72l170 229l-170 230v71l211 -284v-33z" />
<glyph unicode="&#x205f;" horiz-adv-x="476" />
<glyph unicode="&#x2122;" horiz-adv-x="1638" d="M78 1366q0 47 25.5 78t91.5 31h458v-41h-268v-770h-41v770h-143q-59 0 -70.5 -21.5t-11.5 -56.5zM662 664v606q0 106 58 164.5t169 58.5q154 0 207 -113q53 113 204 113q113 0 170.5 -58.5t57.5 -164.5v-606h-41v579q0 104 -41 157.5t-146 53.5q-104 0 -144 -53t-40 -158 v-579h-41v579q0 104 -41 157.5t-145 53.5t-145.5 -53t-41.5 -158v-579h-40z" />
<glyph unicode="&#x25fc;" horiz-adv-x="1054" d="M0 0v1055h1055v-1055h-1055z" />
<glyph unicode="&#xfb01;" horiz-adv-x="524" d="M0 1012v41h111v250q0 113 50 154.5t122 41.5q47 0 64.5 -2t35.5 -4v-41q-10 4 -34.5 5t-55.5 1q-25 0 -49.5 -3t-45 -19.5t-33.5 -49t-13 -92.5v-241h262v-1053h-41v1012h-221v-1012h-41v1012h-111z" />
<glyph unicode="&#xfb02;" horiz-adv-x="524" d="M0 1012v41h111v250q0 113 50 154.5t122 41.5q20 0 34.5 1t30.5 -3q14 -2 27 -4q10 -2 21.5 -3t17.5 -3v-1487h-41v1454q-12 2 -34 3t-46 1q-25 0 -49.5 -3t-45 -19.5t-33.5 -49t-13 -92.5v-241h110v-41h-110v-1012h-41v1012h-111z" />
</font>
</defs>
</svg>
