<?xml version="1.0" standalone="no"?>
<!DOCTYPE svg PUBLIC "-//W3C//DTD SVG 1.1//EN" "http://www.w3.org/Graphics/SVG/1.1/DTD/svg11.dtd" >
<svg xmlns="http://www.w3.org/2000/svg" xmlns:xlink="http://www.w3.org/1999/xlink" version="1.1">
<metadata></metadata>
<defs>
<font id="clementepdanbolditalic" horiz-adv-x="1232" >
<font-face units-per-em="2048" ascent="1638" descent="-410" />
<missing-glyph horiz-adv-x="655" />
<glyph horiz-adv-x="0" />
<glyph unicode="&#xd;" horiz-adv-x="0" />
<glyph unicode=" "  horiz-adv-x="655" />
<glyph unicode="&#x09;" horiz-adv-x="655" />
<glyph unicode="&#xa0;" horiz-adv-x="655" />
<glyph unicode="!" horiz-adv-x="536" d="M-61 141q8 39 32.5 70t56 52.5t68.5 32.5t72 11t66.5 -11t54 -32.5t32 -52.5t1.5 -70q-8 -37 -32 -67.5t-56.5 -52t-69.5 -34t-72 -12.5q-72 0 -121 45.5t-32 120.5zM106 387l148 1088h367l-353 -1088h-162z" />
<glyph unicode="&#x22;" horiz-adv-x="823" d="M121 776l160 699h245l-161 -699h-244zM475 776l162 699h246l-162 -697z" />
<glyph unicode="#" horiz-adv-x="1050" d="M-66 451l70 188h195l71 195h-194l71 190h195l166 451h194l-167 -451h194l168 451h193l-166 -451h194l-71 -188h-195l-72 -195h195l-70 -190h-194l-168 -451h-193l166 451h-194l-166 -451h-195l168 451h-195zM393 639h195l71 197h-194z" />
<glyph unicode="$" horiz-adv-x="1099" d="M4 405.5q-16 65.5 2 153.5h301q-20 -94 30 -137t142 -43q29 0 64 6t66.5 21.5t55 38t31.5 57.5t0 57.5t-35.5 38.5t-73.5 28.5t-114 24.5q-98 18 -171 45t-116 65t-57 90t2 124t58 127t102.5 94t133.5 62.5t153 29.5l43 187h188l-43 -187q74 -6 137.5 -27.5t107.5 -60.5 t62.5 -98.5t1.5 -143.5h-287q8 39 -1 68t-30.5 48.5t-52 29.5t-67.5 10q-88 0 -138 -35t-61 -82q-10 -43 33 -70.5t104.5 -46t126 -29.5t97.5 -22q49 -16 93 -38.5t74.5 -56.5t42 -82.5t-2.5 -116.5q-20 -90 -69.5 -154t-117 -104.5t-147.5 -63.5t-160 -29l-43 -184h-190 l45 188q-80 8 -147.5 35t-112 72t-60.5 110.5z" />
<glyph unicode="%" horiz-adv-x="1634" d="M135 0l1067 1331h-360q49 -90 14 -235q-18 -82 -55 -152t-91.5 -121t-127 -79.5t-162.5 -28.5q-92 0 -151.5 28.5t-90.5 79.5t-35 121t15 150q18 84 56 153.5t92 120.5t126 79t162 28h823l-35 -144l-1067 -1331h-180zM354.5 1010q-4.5 -41 3 -75t30 -54.5t65.5 -20.5 t74.5 20.5t55 54.5t38 76t24.5 83q10 43 14.5 86t-3 76.5t-30 54t-65.5 20.5q-45 0 -76.5 -20.5t-54 -54t-37 -76.5t-24.5 -86t-14.5 -84zM758 202.5q-4 69.5 14 151.5t56 153t92.5 121t126 78.5t161.5 28.5t149.5 -28.5t91.5 -78.5t35.5 -121t-14.5 -153t-55 -151.5 t-91 -119.5t-127 -79t-163 -29q-92 0 -151.5 29t-90 79t-34.5 119.5zM969 269q-4 -42 3 -75.5t29.5 -54t65.5 -20.5t76 20.5t55.5 54t38 75.5t25.5 85t14 86t-4 76t-30.5 53.5t-65.5 20.5q-45 0 -77 -20.5t-54.5 -54.5t-37 -76t-24.5 -85t-14 -85z" />
<glyph unicode="&#x26;" horiz-adv-x="1677" d="M-35 432q12 57 43 118.5t75 114t101.5 88t124.5 40.5q-61 8 -95 44.5t-48 85t-13 101.5t11 96q23 98 90.5 169t156.5 118t185 69.5t178 22.5q119 0 215 -30.5t157.5 -92t83 -156t-6.5 -221.5h-299q33 117 -25.5 185.5t-171.5 68.5q-41 0 -87 -11t-86 -34.5t-69.5 -58.5 t-40.5 -82q-12 -49 1.5 -86t42 -59.5t68.5 -33.5t85 -11h39l-49 -205h-39q-102 0 -184 -52.5t-107 -160.5q-12 -55 11.5 -99.5t67.5 -73t100.5 -44t109.5 -15.5q74 0 147.5 21.5t136 61.5t106.5 96.5t58 128.5h-47q-78 0 -110.5 -28t-46.5 -89l-187 112q12 49 31.5 99.5 t54.5 89.5t91.5 63.5t140.5 24.5h385q78 0 110.5 26.5t46.5 88.5l187 -111q-12 -51 -32 -100t-54.5 -88t-91 -63.5t-140.5 -24.5h-37q-20 -150 -96 -255.5t-187.5 -173t-250.5 -99.5t-287 -32q-123 0 -234.5 27t-191.5 83t-117.5 142t-9.5 205z" />
<glyph unicode="'" horiz-adv-x="466" d="M121 776l160 699h245l-161 -697z" />
<glyph unicode="(" horiz-adv-x="573" d="M-29 38q-2 116 11.5 236.5t44.5 249.5q117 504 444 951h272q-154 -233 -255 -465t-160 -486q-29 -127 -44.5 -246.5t-17.5 -236.5t8.5 -231.5t32.5 -231.5h-272q-29 117 -45.5 230.5t-18.5 229.5z" />
<glyph unicode=")" horiz-adv-x="573" d="M-266 -422q154 233 255 464.5t161 485.5q57 254 61 483.5t-41 463.5h272q57 -233 62.5 -460t-53.5 -487q-117 -504 -445 -950h-272z" />
<glyph unicode="*" horiz-adv-x="798" d="M0 1112l61 191l256 -103l-18 275h201l-19 -275l256 103l62 -191l-267 -68l175 -210l-160 -119l-148 233l-147 -233l-162 119l176 210z" />
<glyph unicode="+" horiz-adv-x="1218" d="M92 614v246h393v395h246v-395h395v-246h-395v-395h-244v395h-395z" />
<glyph unicode="," horiz-adv-x="561" d="M-225 -242l487 604l184 -122l-487 -605z" />
<glyph unicode="-" horiz-adv-x="755" d="M18 416l60 262h571l-61 -262h-570z" />
<glyph unicode="." horiz-adv-x="536" d="M-61 141q8 39 32.5 70t56 52.5t68.5 32.5t72 11t66.5 -11t54 -32.5t32 -52.5t1.5 -70q-8 -37 -32 -67.5t-56.5 -52t-69.5 -34t-72 -12.5q-72 0 -121 45.5t-32 120.5z" />
<glyph unicode="/" horiz-adv-x="817" d="M-170 0l915 1475h244l-915 -1475h-244z" />
<glyph unicode="0" horiz-adv-x="1449" d="M105.5 467q-3.5 135 27.5 270q31 133 96.5 269.5t162.5 246t223 178t280 68.5t249 -68.5t141 -177t49.5 -245t-27.5 -271.5t-96.5 -270t-163 -244.5t-224.5 -178.5t-278 -69q-154 0 -248 69t-141 178.5t-50.5 244.5zM407.5 408.5q10.5 -78.5 54.5 -133t138 -54.5 t162.5 54.5t117 133t78.5 167.5t46 161q16 70 27 159t0 169t-54 134t-137 54q-96 0 -165 -54t-116 -133t-76.5 -168t-46.5 -161q-16 -72 -27.5 -161t-1 -167.5z" />
<glyph unicode="1" horiz-adv-x="1449" d="M274 1180q12 53 33 106t58.5 95t97 68t149.5 26h461l-340 -1475h-348l272 1184h-16q-80 0 -116 -29t-50 -94z" />
<glyph unicode="2" horiz-adv-x="1449" d="M-55 0q23 129 98.5 232.5t178 188.5t222 154.5t230.5 131.5q49 27 100 59.5t96 70t78 82t45 93.5q23 102 -20 168.5t-150 66.5q-78 0 -136 -30.5t-99 -80t-67.5 -112.5t-41.5 -129h-299q25 137 87.5 248.5t153.5 190.5t209 122t255 43q106 0 198.5 -25.5t154.5 -81 t87 -140.5t-2 -203q-18 -80 -59 -150t-96.5 -130t-123 -111.5t-141.5 -96.5q-123 -76 -241.5 -146.5t-204.5 -144.5h422q74 0 109.5 28t47.5 89l187 -111q-14 -63 -38 -114t-61 -87t-90 -55.5t-129 -19.5h-960z" />
<glyph unicode="3" horiz-adv-x="1449" d="M61.5 287.5q-20.5 105.5 26.5 247.5h301q-39 -143 14.5 -225.5t200.5 -82.5q106 0 191.5 59.5t111.5 170.5q12 55 3 96t-35.5 66.5t-67.5 39t-92 13.5h-39l47 205h39q43 0 89 11t85 33.5t67.5 59.5t40.5 86q10 47 -3 82t-42.5 58.5t-69.5 34.5t-81 11q-55 0 -107.5 -18 t-94.5 -51t-71.5 -80t-39.5 -105h-299q31 127 95 221.5t154 156t200 92t230 30.5q82 0 168 -22.5t153 -68.5t101.5 -117.5t12.5 -168.5q-10 -43 -34 -97t-60.5 -102.5t-87 -85t-115.5 -44.5q63 -4 104 -40t61.5 -88.5t22.5 -114t-10 -118.5q-27 -115 -96.5 -201t-162.5 -143 t-200.5 -85t-212.5 -28q-129 0 -235.5 34t-174 103.5t-88 175z" />
<glyph unicode="4" horiz-adv-x="1449" d="M-25 360l70 302l852 813h317l-194 -844h27q78 0 110.5 27.5t46.5 89.5l187 -111q-12 -51 -32 -100.5t-54.5 -88t-91 -63.5t-140.5 -25h-117l-82 -360h-329l82 360h-652zM262 631h428l123 534z" />
<glyph unicode="5" horiz-adv-x="1449" d="M8 231q-31 88 6 211h314q-6 -55 8 -96t45 -67.5t75 -39t97 -12.5q115 0 209 69t123 187q29 119 -28.5 188.5t-174.5 69.5q-78 0 -150.5 -26.5t-132.5 -96.5h-297l359 857h809q72 0 117 -18.5t66.5 -54.5t21.5 -87t-15 -117l-237 -111q16 72 -12.5 94.5t-94.5 22.5h-473 l-162 -366q78 61 174.5 89.5t186.5 28.5q111 0 189.5 -34.5t124.5 -98t57.5 -152.5t-13.5 -198q-31 -129 -102.5 -222t-169 -154.5t-212 -91.5t-231.5 -30q-102 0 -202.5 27t-172 84t-102.5 145z" />
<glyph unicode="6" horiz-adv-x="1449" d="M97 424q-1 125 30 262q35 154 102.5 300.5t169 260t238.5 183t313 69.5q84 0 163 -15.5t142 -58.5l-221 -194q-29 23 -65.5 30t-77.5 7q-88 0 -156.5 -41t-122 -103.5t-90.5 -139.5t-59 -148l-8 -33q92 98 199.5 144t230.5 46q106 0 188 -34.5t134.5 -98t70 -152 t-7.5 -194.5q-31 -129 -97.5 -229.5t-160.5 -169t-208 -104.5t-239 -36q-158 0 -263 60.5t-157 165.5q-47 98 -48 223zM409 398.5q9 -50.5 37.5 -88.5t73.5 -59.5t105 -21.5q59 0 115.5 21.5t104.5 58.5t82 88.5t48 110.5t2 109.5t-43 86t-78 56t-104 20.5t-112.5 -20.5 t-101.5 -57t-79 -87t-45 -107.5q-14 -59 -5 -109.5z" />
<glyph unicode="7" horiz-adv-x="1449" d="M258 1198q12 51 31.5 100.5t54.5 88t91.5 63.5t139.5 25h830l-62 -271l-651 -1204h-356l651 1204h-383q-78 0 -111.5 -27.5t-48.5 -89.5z" />
<glyph unicode="8" horiz-adv-x="1449" d="M68 440q35 147 133 235.5t243 117.5q-104 35 -139 117.5t-8 197.5q25 106 88.5 180t147 121t180 68.5t186.5 21.5q88 0 175 -22.5t151.5 -69.5t95.5 -121t6 -178q-12 -53 -38.5 -103.5t-64.5 -92.5t-87.5 -73.5t-104.5 -45.5q129 -20 184.5 -120t24.5 -233 q-29 -121 -100.5 -209t-169 -145t-208 -84t-216.5 -27q-109 0 -208 26t-169 82t-100.5 144t-1.5 213zM383 440q-12 -55 1 -97t45 -69.5t77 -42t96 -14.5t103.5 14.5t97.5 42t79 69.5t46 97q14 61 4 107.5t-40 77t-75 46t-102 15.5t-110.5 -15.5t-97.5 -46t-77 -76.5 t-47 -108zM572.5 992q11.5 -36 37 -59.5t64.5 -35.5t82 -12t88 11t83 33.5t66.5 59.5t40.5 86q12 53 2 91t-35.5 62.5t-65.5 36t-87 11.5q-96 0 -173 -48t-102 -153q-12 -47 -0.5 -83z" />
<glyph unicode="9" horiz-adv-x="1449" d="M168 764q-16 88 8 197q31 129 97.5 229t159.5 168.5t208 104.5t238 36q158 0 263 -60.5t156 -164.5q47 -98 49.5 -223.5t-30.5 -262.5q-35 -154 -102.5 -300t-169 -259.5t-238.5 -183.5t-313 -70q-84 0 -163 15.5t-141 58.5l220 195q29 -23 65.5 -30t77.5 -7 q88 0 157.5 40t122 103.5t89 140t59.5 148.5q2 6 5 16.5t5 16.5q-92 -98 -200.5 -145.5t-231.5 -47.5q-106 0 -188 35t-134.5 98.5t-68.5 151.5zM468 857.5q11 -50.5 42 -86.5t78 -56.5t106 -20.5q57 0 111.5 20.5t100.5 57.5t80 87.5t46 107.5q14 57 5 108t-37.5 89 t-74.5 59.5t-104 21.5q-59 0 -116.5 -21.5t-104.5 -58.5t-82 -88t-49 -110q-12 -59 -1 -109.5z" />
<glyph unicode=":" horiz-adv-x="536" d="M-61 141q8 39 32.5 70t56 52.5t68.5 32.5t72 11t66.5 -11t54 -32.5t32 -52.5t1.5 -70q-8 -37 -32 -67.5t-56.5 -52t-69.5 -34t-72 -12.5q-72 0 -121 45.5t-32 120.5zM116.5 850q-10.5 31 0.5 70q8 37 32.5 67.5t56.5 52t69.5 33.5t72.5 12q72 0 121 -44.5t33 -120.5 q-8 -39 -33 -70t-56.5 -52.5t-69.5 -33.5t-73 -12t-66.5 12t-54 33.5t-33 52.5z" />
<glyph unicode=";" horiz-adv-x="536" d="M-225 -242l487 604l184 -122l-487 -605zM116.5 850q-10.5 31 0.5 70q8 37 32.5 67.5t56.5 52t69.5 33.5t72.5 12q72 0 121 -44.5t33 -120.5q-8 -39 -33 -70t-56.5 -52.5t-69.5 -33.5t-73 -12t-66.5 12t-54 33.5t-33 52.5z" />
<glyph unicode="&#x3c;" horiz-adv-x="1220" d="M92 633v207l1036 432v-258l-669 -277l669 -276v-258z" />
<glyph unicode="=" horiz-adv-x="1218" d="M92 379v246h1034v-246h-1034zM92 850v246h1034v-246h-1034z" />
<glyph unicode="&#x3e;" horiz-adv-x="1220" d="M92 203v258l670 276l-670 277v258l1036 -430v-207z" />
<glyph unicode="?" horiz-adv-x="1200" d="M133 983q25 98 78 191.5t135 165t192.5 114.5t249.5 43q133 0 221.5 -36t136.5 -93t61 -128.5t-1 -143.5q-18 -90 -56 -148.5t-85 -97.5t-100.5 -66.5t-102.5 -54.5q-47 -27 -78.5 -51.5t-54 -52t-36 -60.5t-23.5 -78l-29 -129h-295l29 127q8 41 22.5 91.5t41 101.5 t70.5 99t112 87q25 12 60.5 29.5t72.5 42.5t67.5 58.5t40.5 78.5q16 74 -22.5 114t-122.5 40q-106 0 -171 -71t-81 -173h-332zM250 141q8 39 32.5 70t56.5 52.5t69.5 32.5t72.5 11q72 0 121 -44t33 -122q-8 -37 -32.5 -67.5t-56.5 -52t-69 -34t-71 -12.5q-35 0 -67 12.5 t-54.5 34t-32.5 52t-2 67.5z" />
<glyph unicode="@" horiz-adv-x="1658" d="M76 737q0 174 59.5 314.5t166 240t250.5 153.5t314 54q139 0 268.5 -39t229.5 -115.5t159.5 -192t59.5 -267.5q0 -162 -63 -289q-41 -80 -107.5 -146.5t-159.5 -111.5q-41 -23 -89 -37t-95 -14q-41 0 -74.5 20.5t-44.5 61.5q0 8 -1 14t-1 14q-39 -59 -98 -84.5 t-127 -25.5q-76 0 -137.5 27.5t-104.5 75.5t-65.5 111.5t-22.5 137.5q0 94 31 187.5t89 165t141 116.5t186 45q78 0 147.5 -33t110.5 -102l28 98h156l-113 -432q-10 -41 -21 -84t-11 -86q0 -20 10 -38.5t35 -18.5t48 9t42 23q39 29 65.5 70t43 87t24.5 95.5t8 96.5 q0 125 -43 217t-116.5 153.5t-174 92t-217.5 30.5q-127 0 -239.5 -44t-196.5 -123t-132 -187.5t-48 -239.5q0 -133 46 -241.5t128 -187.5t193.5 -122t242.5 -43q133 0 250 40t215 130h184q-113 -174 -278.5 -256t-370.5 -82q-166 0 -309.5 55.5t-247.5 157t-163.5 240.5 t-59.5 309zM610 664q0 -72 44 -126.5t120 -54.5q137 0 203 115q12 35 28.5 91.5t32.5 103.5q-4 72 -55 117.5t-125 45.5q-55 0 -100 -26.5t-78 -69.5t-51.5 -95t-18.5 -101z" />
<glyph unicode="A" d="M-59 0l233 1014q57 250 215 372.5t406 122.5q254 -1 350 -125q61 -79 61 -206q0 -73 -20 -162l-234 -1016h-348l139 602h-315l-139 -602h-348zM489 872h316l26 109q9 43 15 88q2 18 3 35q0 25 -5 47q-8 37 -34 61.5t-79 24.5t-89 -24.5t-60.5 -61.5t-40 -82t-25.5 -88z " />
<glyph unicode="B" d="M-59 0l340 1475h526q88 0 166 -20.5t130 -64.5q51 -44 73 -114q11 -35 11 -76q0 -42 -11 -92q-25 -111 -98.5 -188.5t-184.5 -116.5q127 -35 177 -131q30 -58 30 -132q0 -49 -13 -104q-25 -109 -85 -189.5t-143 -136t-180 -83t-196 -27.5h-542zM350 270h113q49 0 94 10.5 t83 34t67 60.5t41 92q7 30 7 55q-1 55 -35 88q-50 47 -153 47h-127zM489 870h95q90 0 157 41t90 133q6 25 6 45q-1 50 -35 77q-48 38 -140 38h-95z" />
<glyph unicode="C" horiz-adv-x="1527" d="M56 431q-5 43 -6 88q0 102 26 214q39 166 121 308.5t199.5 246t266 162.5t320.5 59q131 0 235.5 -35.5t174 -105.5t99.5 -173q18 -63 19 -138q0 -48 -8 -101h-340q2 17 2 34q1 100 -63 163q-74 74 -195 74q-102 0 -182 -45t-140.5 -116t-100.5 -158t-60 -173 q-21 -88 -21 -175q0 -84 27 -154t86 -114t160 -44q74 0 136 25.5t111.5 69.5t86.5 103.5t63 126.5h342q-37 -135 -115.5 -247.5t-185 -192.5t-234.5 -124t-262 -44q-170 0 -288.5 59.5t-188 163t-85.5 243.5z" />
<glyph unicode="D" horiz-adv-x="1363" d="M-59 0l340 1475h526q168 0 277.5 -56.5t167 -156t65.5 -233.5q1 -24 1 -48q0 -113 -30 -242q-41 -176 -121 -313t-194.5 -231.5t-263 -144.5t-324.5 -50h-444zM356 291h80q104 0 187.5 34.5t147 95t105 143.5t64.5 179q17 74 17 139q1 22 -1 42q-8 82 -46 139t-107.5 89 t-173.5 32h-68z" />
<glyph unicode="E" d="M-59 0l340 1475h1011l-67 -291h-664l-72 -312h598l-63 -270h-596l-72 -311h682l-67 -291h-1030z" />
<glyph unicode="F" d="M-59 0l340 1475h1011l-67 -291h-664l-72 -312h598l-63 -270h-596l-139 -602h-348z" />
<glyph unicode="G" horiz-adv-x="1562" d="M56 431q-6 43 -6 88q0 102 26 214q39 166 121 308.5t199.5 246t266 162.5t320.5 59q131 0 235.5 -35.5t174 -105.5t99.5 -173q18 -63 18 -138q0 -48 -7 -101h-340q2 17 2 34q0 99 -63 163q-74 74 -195 74q-102 0 -182 -45t-140.5 -116t-100.5 -158t-60 -173 q-21 -88 -21 -175q0 -84 27 -154t86 -114t160 -44q123 0 210 65.5t140 169.5h-291l64 273h657l-84 -367q-9 -40 -9 -69q0 -31 11 -48q23 -30 92 -30l-184 -246q-86 0 -134 35t-71 112q-96 -84 -211.5 -131t-247.5 -47q-170 0 -288.5 59.5t-188 163t-85.5 243.5z" />
<glyph unicode="H" horiz-adv-x="1419" d="M-59 0l340 1475h348l-131 -572h493l131 572h348l-340 -1475h-348l146 633h-494l-145 -633h-348z" />
<glyph unicode="I" horiz-adv-x="569" d="M-59 0l340 1475h348l-340 -1475h-348z" />
<glyph unicode="J" d="M30 257q-2 21 -2 42q0 74 19 160l27 114h313l-18 -84q-12 -55 -17 -101q-1 -12 -1 -24q0 -31 9 -56q13 -34 42.5 -53t84.5 -19t93 22.5t65 59t44.5 82.5t27.5 94l160 690h-209q-82 0 -117 -29t-51 -94l-201 119q12 53 33.5 106t58.5 95t96.5 68t149.5 26h655l-227 -986 q-63 -272 -218 -398t-415 -126q-131 0 -217 36t-132 100.5t-53 155.5z" />
<glyph unicode="K" horiz-adv-x="1169" d="M-59 0l340 1475h348l-103 -443l416 443h397l-682 -738l342 -737h-399l-209 442l-102 -442h-348z" />
<glyph unicode="L" d="M-59 0l340 1475h348l-273 -1184h408q80 0 115.5 28.5t50.5 94.5l200 -119q-12 -53 -32.5 -106.5t-58.5 -95.5t-97 -67.5t-149 -25.5h-852z" />
<glyph unicode="M" horiz-adv-x="1896" d="M-59 0l233 1016q57 248 215 370.5t406 122.5q98 0 177 -26.5t128 -85.5q78 59 169 85.5t189 26.5q248 -1 348 -123q64 -78 65 -205q0 -74 -22 -165l-233 -1016h-348l227 981q9 43 15 89q2 18 3 35q1 26 -5 48q-8 37 -35 60.5t-78 23.5q-53 0 -89 -23.5t-60.5 -60.5 t-40 -83t-25.5 -89l-228 -981h-348l227 981q9 43 15 89q2 19 3 36q0 25 -5 47q-8 37 -35 60.5t-78 23.5q-53 0 -89 -23.5t-60.5 -60.5t-40 -83t-25.5 -89l-227 -981h-348z" />
<glyph unicode="N" d="M-59 0l233 1016q57 248 215 370.5t406 122.5q254 -1 350 -125q61 -79 61 -206q0 -73 -20 -162l-234 -1016h-348l227 981q9 43 15 88q2 18 3 35q0 25 -5 47q-8 37 -34 61.5t-79 24.5t-89 -24.5t-60.5 -61.5t-40 -82t-25.5 -88l-227 -981h-348z" />
<glyph unicode="O" horiz-adv-x="1601" d="M56 434q-6 45 -5 93q0 100 25 210q37 162 120 303.5t200.5 246t266 163.5t316.5 59t289 -59t190.5 -163.5t87.5 -246.5q6 -45 5 -92q0 -101 -25 -211q-37 -162 -120 -303t-201 -245.5t-266 -164t-316 -59.5t-289 59.5t-190.5 164t-87.5 245.5zM405 562q1 -87 29.5 -156.5 t90 -113.5t163.5 -44q100 0 181 44t142.5 113.5t104 156.5t62.5 175q19 84 19 167v8q-1 87 -30.5 157t-91 114t-162.5 44q-102 0 -183 -44t-142.5 -114t-102.5 -157t-61 -175q-19 -84 -19 -167v-8z" />
<glyph unicode="P" horiz-adv-x="1239" d="M-59 0l340 1475h538q137 0 225.5 -43t134.5 -111t55 -153q3 -28 3 -57q0 -56 -12 -112q-29 -123 -91.5 -215t-148.5 -153.5t-193.5 -91t-226.5 -29.5h-159l-117 -510h-348zM469 782h94q55 0 107.5 8.5t96.5 32t77 63.5t47 101q8 33 8 59q0 21 -5 38q-11 38 -41 60.5 t-76 31t-101 8.5h-115z" />
<glyph unicode="Q" horiz-adv-x="1601" d="M56 434q-5 45 -5 93q0 100 25 210q37 162 120 303.5t200.5 246t266 163.5t316.5 59t289 -59t190.5 -163.5t87.5 -246.5q5 -45 5 -92q0 -101 -25 -211q-35 -145 -104.5 -274t-174.5 -234l62 -84q20 -29 36.5 -49t43.5 -22q20 -2 42.5 8t49.5 27l-33 -254 q-51 -33 -105.5 -56.5t-105.5 -23.5q-53 0 -94 31.5t-80 97.5l-90 153q-80 -47 -169 -69.5t-181 -22.5q-168 0 -289 59.5t-190.5 164t-87.5 245.5zM405 562q1 -87 29.5 -156.5t90 -113.5t163.5 -44q92 0 174 59l-61 90q-20 29 -35.5 49.5t-44.5 22.5q-18 2 -41 -8t-49 -27 l33 254q49 31 101 54.5t103 25.5h6q49 0 87 -32q40 -34 86 -97l53 -76q29 41 48.5 85t29.5 89q19 84 19 167v8q-1 87 -30.5 157t-91 114t-162.5 44q-102 0 -183 -44t-142.5 -114t-102.5 -157t-61 -175q-19 -84 -19 -167v-8z" />
<glyph unicode="R" horiz-adv-x="1247" d="M-55 0l340 1475h587q96 0 176 -25t132 -76t72 -128q9 -34 9 -73q0 -50 -14 -108q-14 -61 -42.5 -118.5t-70.5 -106.5t-96.5 -86t-117.5 -56q61 -18 97 -57t51 -89q13 -44 13 -96v-14q-2 -60 -16 -125l-74 -317h-338l60 256q14 68 17 125v16q0 47 -14 82q-18 41 -62 64.5 t-119 23.5h-111l-131 -567h-348zM481 811h107q43 0 90 8t89 30.5t74 62t46 100.5q6 27 6 50q0 55 -33 91q-47 51 -196 51h-93z" />
<glyph unicode="S" horiz-adv-x="1306" d="M-46 301q-5 29 -5 61q0 60 16 132h348q-9 -44 -10 -81q0 -25 5 -47q11 -54 45 -86t88.5 -47.5t123.5 -15.5q43 0 89 10.5t88 33t74 60t44 91.5q5 22 5 40q0 24 -8 40q-15 30 -55 53.5t-104.5 43t-150.5 44.5q-82 25 -164 51.5t-143 71.5q-62 44 -90 114q-15 37 -14 86 q0 42 11 93q29 123 97.5 210t161 143t201 81.5t214.5 25.5q117 0 215.5 -24.5t165 -80.5t94.5 -146q14 -47 14 -106q0 -53 -12 -116h-329q11 35 11 65q0 21 -5 37q-12 42 -43 68.5t-76 38.5t-94 12q-37 0 -81 -7t-84 -25.5t-69.5 -50t-40.5 -78.5q-2 -13 -2 -26 q0 -38 23 -63q31 -34 88 -57.5t132 -42t153 -39.5q78 -23 149.5 -52.5t120.5 -76.5t70 -118q10 -32 9 -72q0 -47 -13 -103q-31 -133 -107 -225t-178.5 -148.5t-221 -82t-233.5 -25.5q-51 0 -116.5 8.5t-130 31t-124 59t-99.5 96t-53 141.5z" />
<glyph unicode="T" d="M102 1180q12 53 33 106t58.5 95t97 68t149.5 26h963l-68 -291h-442l-272 -1184h-349l273 1184h-76q-80 0 -116 -29t-50 -94z" />
<glyph unicode="U" d="M47 459l234 1016h348l-228 -981q-10 -42 -15 -88q-2 -18 -2 -34q0 -26 5 -48q8 -36 34 -61t79 -25q51 0 88 24.5t61.5 61t40 82t25.5 88.5l227 981h348l-233 -1014q-57 -250 -215 -373t-406 -123q-254 0 -350 125q-61 79 -61 207q0 73 20 162z" />
<glyph unicode="V" horiz-adv-x="1257" d="M170 1475h356l76 -859l471 859h357l-793 -1475h-356z" />
<glyph unicode="W" horiz-adv-x="1896" d="M47 459l234 1016h348l-228 -981q-10 -44 -15 -90q-2 -18 -2 -34q0 -26 5 -48q8 -36 34 -60t79 -24q51 0 88 23.5t61.5 60t40 83t25.5 89.5l227 981h348l-227 -981q-9 -44 -15 -90q-2 -18 -3 -34q-1 -26 5 -48q8 -36 34 -60t79 -24q51 0 88 23.5t61.5 60t40 83t25.5 89.5 l228 981h348l-234 -1016q-57 -248 -214.5 -371t-405.5 -123q-98 0 -177 26.5t-128 86.5q-78 -59 -169 -86t-190 -27q-248 0 -348 123q-64 78 -64 207q0 74 21 164z" />
<glyph unicode="X" horiz-adv-x="1423" d="M-170 0l682 737l-342 738h399l211 -443l414 443h399l-682 -738l342 -737h-399l-211 442l-414 -442h-399z" />
<glyph unicode="Y" d="M193 1096l88 379h348l-80 -347q-10 -43 -15 -88q-3 -19 -3 -37q0 -23 5 -45q7 -36 32.5 -61t78.5 -25t90 25t62.5 62.5t40 82.5t24.5 86l80 347h348l-88 -379q-47 -201 -157.5 -319t-282.5 -154l-143 -623h-349l144 623q-243 61 -243 312q0 73 20 161z" />
<glyph unicode="Z" horiz-adv-x="1302" d="M-133 0l63 279l985 905h-720l65 291h1178l-60 -261l-993 -923h453q82 0 116.5 28.5t51.5 94.5l200 -119q-12 -53 -33.5 -106.5t-58.5 -95.5t-96.5 -67.5t-149.5 -25.5h-1001z" />
<glyph unicode="[" horiz-adv-x="770" d="M-158 -422l439 1897h567l-55 -246h-285l-326 -1405h285l-55 -246h-570z" />
<glyph unicode="\" horiz-adv-x="817" d="M170 1475h244l233 -1475h-244z" />
<glyph unicode="]" horiz-adv-x="770" d="M-162 -422l58 246h282l326 1405h-285l57 246h568l-438 -1897h-568z" />
<glyph unicode="^" horiz-adv-x="968" d="M0 682l385 793h199l385 -793h-246l-238 512l-239 -512h-246z" />
<glyph unicode="_" horiz-adv-x="1024" d="M0 -154h1024v-102h-1024v102z" />
<glyph unicode="`" horiz-adv-x="0" d="M522 1466h334l148 -303h-220z" />
<glyph unicode="a" horiz-adv-x="1374" d="M16 303q-7 39 -7 81q0 66 18 140q29 121 93 224.5t154.5 178t202 117.5t234.5 43q90 0 165.5 -25.5t129.5 -78.5l18 78h313l-159 -701q-6 -26 -6 -47q0 -31 14 -48q24 -29 92 -29l-186 -246q-203 0 -242 127q-98 -74 -191.5 -109t-209.5 -35q-121 0 -212.5 41t-147 115 t-73.5 174zM342 524q-14 -59 -14 -109q0 -73 30 -124q52 -86 205 -86q43 0 93.5 13t94.5 40t76.5 63.5t44.5 86.5l64 270q4 15 4 29q0 27 -12 47q-18 32 -52 54.5t-76 35t-81 12.5q-160 0 -251 -90t-126 -242z" />
<glyph unicode="b" horiz-adv-x="1374" d="M-59 0l252 1092q9 40 9 69q0 31 -12 47q-22 30 -92 31l185 244q57 0 111.5 -9.5t91.5 -39.5q38 -30 52 -86q6 -22 6 -49q0 -44 -14 -103l-49 -213q74 53 163 78.5t181 25.5q121 0 213 -41.5t148 -116.5t74 -179q7 -39 7 -80q0 -69 -18 -146q-29 -121 -93 -222 t-154.5 -174t-200 -114t-228.5 -41q-98 0 -173.5 30t-125.5 83l-20 -86h-313zM348 408q-5 -21 -5 -39q-1 -25 9 -47q16 -37 49 -64t77 -40t87 -13q156 0 245 86t124 233q15 68 15 125v7q-1 60 -26.5 105.5t-77.5 70t-136 24.5q-37 0 -84 -12.5t-91.5 -36t-79 -56 t-42.5 -73.5z" />
<glyph unicode="c" horiz-adv-x="1216" d="M16 303q-7 39 -7 81q0 66 18 140q29 121 93 224.5t154.5 178t202 117.5t234.5 43q96 0 179 -25.5t140 -76.5t84 -128q17 -50 18 -109q0 -33 -6 -70h-299q2 16 2 30q-1 64 -37 102q-44 46 -128 46q-74 0 -128.5 -28.5t-93.5 -75.5t-63.5 -106.5t-38.5 -121.5 q-14 -58 -16 -116q0 -6 -1 -12q0 -50 16 -91q17 -45 57 -72.5t112 -27.5q88 0 158.5 58.5t97.5 144.5h301q-37 -104 -99.5 -185.5t-143.5 -136.5t-176 -84t-197 -29q-121 0 -212.5 41t-147 115t-73.5 174z" />
<glyph unicode="d" horiz-adv-x="1374" d="M16 303q-7 39 -7 81q0 66 18 140q29 121 93 224.5t154.5 178t202 117.5t234.5 43q90 0 166.5 -25.5t130.5 -76.5l26 119q7 30 7 54q0 30 -12 48q-21 32 -93 33l184 244q74 0 129.5 -12.5t88.5 -44.5q34 -32 44 -88q3 -17 3 -38q0 -45 -15 -104l-176 -760 q-10 -45 -16.5 -83t0 -63.5t29 -39.5t69.5 -14l-184 -246q-209 0 -244 131q-92 -78 -189.5 -113t-209.5 -35q-121 0 -212.5 41t-147 115t-73.5 174zM342 524q-14 -59 -14 -109q0 -73 30 -124q52 -86 205 -86q43 0 93.5 13t94.5 40t76.5 63.5t44.5 86.5l64 270q4 15 4 29 q0 27 -12 47q-18 32 -52 54.5t-76 35t-81 12.5q-160 0 -251 -90t-126 -242z" />
<glyph unicode="e" horiz-adv-x="1216" d="M16 303q-7 39 -7 81q0 66 18 140q29 121 93 224.5t154.5 178t202 117.5t234.5 43q96 0 179 -25.5t140 -76.5t84 -128q17 -50 17 -109q0 -33 -5 -70l-802 -270q0 -8 -1 -15q1 -75 39 -129q42 -58 146 -59q88 0 158.5 58.5t97.5 144.5h301q-37 -104 -99.5 -185.5 t-143.5 -136.5t-176 -84t-197 -29q-121 0 -212.5 41t-147 115t-73.5 174zM362 590l457 155q-10 53 -50 82t-105 29q-59 0 -107.5 -20.5t-85.5 -54t-62.5 -79t-41.5 -94.5q-4 -12 -5 -18z" />
<glyph unicode="f" horiz-adv-x="536" d="M-231 -186q70 0 106.5 30.5t56.5 116.5l203 881h-110l45 196h110l41 181q20 96 61.5 153.5t93.5 87t111.5 38.5t116.5 9q59 0 112.5 -5t104.5 -5l-55 -242q-41 6 -90 7q-70 0 -105.5 -28t-56.5 -112l-14 -61h110l-51 -219h-110l-228 -985q-23 -96 -63.5 -153.5t-92 -87.5 t-109.5 -39t-116 -9z" />
<glyph unicode="g" horiz-adv-x="1370" d="M16 302q-7 39 -7 82q0 66 18 140q29 123 93 226.5t155.5 178.5t203 116.5t232.5 41.5q92 0 167.5 -25.5t127.5 -78.5l18 78h313l-237 -1030q-20 -86 -60.5 -173t-113 -157t-185 -114t-278.5 -44q-90 0 -174 15.5t-146.5 55.5t-95.5 108q-24 48 -24 114q0 26 4 55h311v-6 q0 -64 45 -107q47 -44 115 -44q61 0 109 24.5t83 64.5t58.5 89t33.5 98l17 76q-74 -53 -163 -83t-187 -30q-119 0 -210.5 41t-147.5 114t-75 174zM342 524q-14 -59 -14 -109q0 -72 30 -123q50 -87 205 -87q43 0 92.5 13t94.5 40t77.5 63.5t44.5 86.5l64 270q2 12 2 24 q0 27 -12 50q-19 32 -52.5 55.5t-75.5 36t-79 12.5q-84 0 -146.5 -24.5t-108.5 -69.5t-76 -105.5t-46 -132.5z" />
<glyph unicode="h" horiz-adv-x="1251" d="M-59 0l252 1092q9 40 9 69q0 31 -12 47q-22 30 -92 31l185 244q57 0 111.5 -9.5t91.5 -39.5q38 -30 52 -86q6 -22 6 -49q0 -44 -14 -103l-65 -287q84 96 178 137t211 41q82 0 143.5 -25.5t99.5 -73.5t48 -116q4 -24 4 -50q0 -47 -12 -101l-78 -338q-10 -41 -9 -69 q0 -32 11 -48q22 -30 92 -30l-184 -246q-57 0 -112.5 9t-93.5 39q-39 30 -53 87q-6 22 -5 50q0 44 14 104l74 311q12 49 14 93v12q-1 37 -11 66q-12 34 -43.5 53.5t-88.5 19.5t-103.5 -21.5t-80.5 -58.5t-57.5 -85t-35.5 -100l-133 -569h-313z" />
<glyph unicode="i" horiz-adv-x="536" d="M-4 125q-5 22 -5 50q0 44 13 104l92 399q10 41 10 69q0 31 -12 47q-22 30 -92 31l184 244q57 0 111.5 -9t93.5 -39t53 -86q6 -22 7 -49q0 -44 -15 -104l-92 -399q-9 -40 -9 -69q-1 -32 11 -48q22 -30 92 -30l-184 -246q-57 0 -111.5 9t-93.5 39t-53 87zM215 1343 q0 37 16.5 68t44 52.5t62.5 33.5t70 12t69.5 -12t62 -33.5t44 -52.5t16.5 -68q0 -39 -16.5 -69.5t-44 -52t-62.5 -32.5t-69 -11q-35 0 -70 11t-62.5 32.5t-44 52.5t-16.5 69z" />
<glyph unicode="j" horiz-adv-x="536" d="M-811 -109h311v-10q0 -29 10 -53q13 -29 34.5 -49.5t51 -32.5t64.5 -12q61 0 108.5 24.5t82 64.5t57 89t35.5 98l153 668q10 41 10 69q0 32 -12 47q-22 31 -92 31l184 244q57 0 111.5 -9t93.5 -39t53 -86q6 -22 6 -49q0 -45 -14 -104l-174 -753v2q-20 -86 -60 -173 t-113 -157t-185.5 -114t-278.5 -44q-90 0 -175 15.5t-147.5 55.5t-94.5 108q-22 48 -22 115q0 26 3 54zM215 1343q0 37 16.5 68t44 52.5t62.5 33.5t70 12t69.5 -12t62 -33.5t44 -52.5t16.5 -68q0 -39 -16.5 -69.5t-44 -52t-62.5 -32.5t-69 -11q-35 0 -70 11t-62.5 32.5 t-44 52.5t-16.5 69z" />
<glyph unicode="k" horiz-adv-x="958" d="M-59 0l252 1092q9 40 9 69q0 31 -12 47q-22 30 -92 31l185 244q57 0 111.5 -9.5t91.5 -39.5q38 -30 52 -86q6 -22 6 -49q0 -44 -14 -103l-92 -403l252 268h342l-489 -531l94 -192q12 -25 29.5 -47.5t48.5 -22.5q23 0 44 10.5t40 22.5l-29 -250q-47 -29 -100.5 -52.5 t-104.5 -23.5q-66 0 -104.5 40t-63.5 91l-80 162l-63 -268h-313z" />
<glyph unicode="l" horiz-adv-x="536" d="M-4 125q-5 22 -5 50q0 44 13 104l189 813q9 40 9 69q0 31 -12 47q-22 30 -92 31l185 244q57 0 111.5 -9.5t91.5 -39.5q38 -30 52 -86q6 -22 6 -49q0 -44 -14 -103l-186 -813q-9 -40 -9 -69q-1 -32 11 -48q22 -30 92 -30l-184 -246q-57 0 -111.5 9t-93.5 39t-53 87z" />
<glyph unicode="m" horiz-adv-x="1966" d="M-59 0l155 678q8 38 8 66q0 26 -7 44q-14 35 -87 35h-8l184 246q111 0 176.5 -41t75.5 -141q35 41 86 76.5t109.5 63.5t116 44t104.5 16q119 0 199 -57t90 -172q80 123 187.5 176t238.5 53q82 0 143.5 -26.5t99.5 -73.5t48 -115q4 -24 4 -51q0 -47 -13 -100l-77 -338 q-8 -38 -8 -66q0 -27 7 -45q15 -36 95 -36l-185 -246q-76 0 -132 14t-87.5 48t-39.5 90q-3 17 -3 36q0 44 13 101l65 278q11 49 17 99q2 18 3 34q-1 28 -7 54q-10 40 -41 65t-93 25q-57 0 -103 -21.5t-80 -58.5t-57.5 -85t-35.5 -100l-133 -569h-314l138 590q10 47 13 91 q1 8 1 16q1 35 -11 62q-14 34 -44.5 54.5t-87.5 20.5t-103.5 -21.5t-80.5 -58.5t-57.5 -85t-35.5 -100l-133 -569h-313z" />
<glyph unicode="n" horiz-adv-x="1251" d="M-59 0l155 678q9 40 9 68q0 32 -11 48q-20 32 -92 31l184 244q129 0 189.5 -47t64.5 -139q82 109 186.5 156.5t227.5 47.5q82 0 144.5 -26.5t99.5 -73.5t48 -115q4 -24 4 -51q0 -47 -13 -100l-68 -285q-10 -45 -16 -82t1 -63.5t29.5 -40.5t69.5 -14l-184 -246 q-74 0 -129.5 13t-89.5 46q-32 33 -42 89q-3 17 -3 37q0 45 14 104l65 278q12 49 18 99q2 19 2 36q0 30 -6 54q-10 38 -41.5 63t-92.5 25q-57 0 -103.5 -21.5t-80.5 -58.5t-57.5 -85t-35.5 -100l-133 -569h-313z" />
<glyph unicode="o" horiz-adv-x="1257" d="M14 320q-3 28 -3 56q0 75 18 154q25 111 82 211.5t143 177t200.5 122.5t256.5 46q141 0 234 -46t143 -123q52 -76 62 -176q3 -30 3 -61q0 -73 -18 -151q-25 -111 -82.5 -211t-143.5 -176.5t-200.5 -123t-255.5 -46.5t-234.5 46.5t-144 123.5t-60.5 177zM327 416v-17 q0 -48 14 -88q17 -47 56 -76.5t109 -29.5t123 29.5t91 76.5t63.5 105.5t37.5 113.5q13 56 15 114v15q0 49 -14 91q-16 48 -55.5 77t-109.5 29t-123 -29.5t-92 -77t-63.5 -104.5t-36.5 -115q-12 -56 -15 -114z" />
<glyph unicode="p" horiz-adv-x="1374" d="M-100 -293q-6 22 -6 49q0 44 14 101l188 821q8 38 8 66t-8 46q-15 33 -86 33h-8l184 246q84 0 152 -24.5t90 -94.5q86 68 192.5 102.5t204.5 34.5q121 0 213 -41.5t148.5 -116.5t73.5 -179q7 -38 7 -80q0 -69 -18 -146q-29 -121 -93 -222t-154.5 -174t-200 -114 t-228.5 -41q-96 0 -172.5 29t-126.5 84l-28 -125q-8 -38 -8 -66t8 -45q16 -36 94 -36l-184 -246q-59 0 -113.5 10t-91.5 41t-51 88zM348 408q-5 -21 -5 -39q0 -26 9 -48q17 -38 49.5 -64t76.5 -39t87 -13q156 0 245 86t124 233q15 65 15 120v18q-3 61 -28.5 104t-77.5 66.5 t-134 23.5q-35 0 -82 -12.5t-91 -35t-79 -55t-45 -75.5z" />
<glyph unicode="q" horiz-adv-x="1374" d="M16 302q-7 39 -7 82q0 66 18 140q29 123 93 226.5t155.5 178.5t203 116.5t232.5 41.5q94 0 169.5 -26.5t125.5 -77.5l18 78h313l-252 -1100q-9 -40 -9 -69q0 -31 12 -48q22 -30 92 -30l-185 -246q-57 0 -111.5 9t-93 39t-52.5 87q-6 23 -6 52q0 44 13 102l54 229 q-74 -53 -163 -83t-187 -30q-119 0 -210.5 41t-147.5 114t-75 174zM342 524q-14 -59 -14 -109q0 -72 30 -123q50 -87 205 -87q43 0 92.5 13t94.5 40t77.5 63.5t44.5 86.5l64 270q4 15 4 29q0 25 -12 47q-19 32 -52.5 54.5t-76.5 35t-80 12.5q-162 0 -252 -90t-125 -242z" />
<glyph unicode="r" horiz-adv-x="835" d="M-59 0l155 678q9 40 9 68q0 32 -11 48q-20 32 -92 31l184 244q129 0 187.5 -45t66.5 -137q92 106 187.5 152t226.5 46h30.5t30.5 -4l-251 -247q-57 0 -103.5 -21.5t-80.5 -58.5t-57.5 -85t-35.5 -100l-133 -569h-313z" />
<glyph unicode="s" horiz-adv-x="1099" d="M-43 352h301q-5 -25 -5 -46q0 -59 37 -91q50 -43 142 -43q29 0 63.5 6t65.5 20.5t54.5 38t31.5 58.5t0 57.5t-35.5 39t-73.5 28.5t-114 24q-98 18 -170 44t-116 64t-58 90q-7 24 -7 53q0 33 9 71q20 86 75.5 147.5t130 100.5t163 56t172.5 17q86 0 166.5 -15t140.5 -54 q59 -38 88 -104q17 -38 17 -87q0 -35 -9 -77h-287q4 18 4 35t-5 33q-9 30 -30.5 49.5t-52 29.5t-67.5 10q-88 0 -138.5 -34.5t-60.5 -81.5q-2 -8 -2 -16q0 -33 35 -55q43 -28 104.5 -46.5t126 -29.5t97.5 -21q49 -16 94 -39t75.5 -56.5t41.5 -82.5q5 -22 5 -47q0 -32 -8 -70 q-25 -102 -85 -171t-141 -110t-174 -57.5t-183 -16.5q-96 0 -181 20.5t-145.5 66.5t-87.5 118q-15 39 -15 87q0 40 11 87z" />
<glyph unicode="t" horiz-adv-x="536" d="M-4 125q-5 22 -5 50q0 44 13 104l135 583h-110l45 199h110l52 217l344 123l-80 -340h110l-45 -199h-110l-111 -479q-9 -40 -9 -69q-1 -32 11 -48q22 -30 92 -30l-184 -246q-57 0 -111.5 9t-93.5 39t-53 87z" />
<glyph unicode="u" horiz-adv-x="1251" d="M2 825l184 244q74 0 129.5 -13.5t88.5 -45.5q34 -30 44 -86q3 -17 2 -38q0 -45 -14 -104l-65 -278q-11 -50 -17 -100q-2 -19 -3 -35q1 -29 7 -54q10 -39 40 -63.5t91 -24.5q57 0 104.5 21.5t81.5 58.5t57.5 84t35.5 101l131 569h315l-155 -678q-9 -40 -9 -68 q0 -31 11 -47q20 -32 92 -32l-184 -246q-129 0 -189.5 47t-64.5 141q-82 -109 -186.5 -157t-227.5 -48q-165 -1 -243 99q-52 67 -53 165q0 48 13 103l66 285q10 45 16 81.5t0 63.5t-28.5 41t-69.5 14z" />
<glyph unicode="v" horiz-adv-x="1036" d="M-35 784l109 271q41 12 81 21t81 9q49 0 81.5 -16t54 -45t33 -65.5t15.5 -79.5l43 -377l321 559h326l-598 -1061h-328l-73 688q-4 39 -18.5 74t-61.5 35q-33 0 -66 -13z" />
<glyph unicode="w" horiz-adv-x="1966" d="M2 823l184 246q76 0 132.5 -14.5t87.5 -46.5q32 -32 40 -88q3 -17 3 -37q0 -44 -13 -101l-65 -278q-11 -50 -17 -100q-2 -19 -3 -35q1 -29 7 -54q10 -39 40 -63.5t91 -24.5q57 0 104.5 21.5t82.5 58.5t57.5 84t34.5 98l131 572h315l-137 -592q-10 -47 -13 -91 q-1 -9 -1 -17q0 -34 10 -61q12 -34 44 -53.5t87 -19.5q57 0 104.5 21.5t82 58.5t57 84t35.5 98l131 572h315l-155 -678q-8 -38 -8 -66q0 -27 7 -45q15 -36 95 -36l-185 -244h-10q-104 0 -167 39q-66 41 -76 143q-35 -41 -86.5 -77t-108.5 -63.5t-114.5 -44t-104.5 -16.5 q-119 0 -199 56.5t-92 173.5q-78 -123 -185.5 -176.5t-238.5 -53.5q-84 0 -145.5 26t-98.5 74q-37 49 -47 115q-4 24 -4 49q0 47 12 101l78 340q8 38 8 66q0 26 -7 44q-14 35 -87 35h-8z" />
<glyph unicode="x" horiz-adv-x="1079" d="M-170 0l489 530l-94 195q-10 23 -28.5 45.5t-49.5 22.5q-23 0 -44 -9.5t-42 -21.5l31 248q47 29 100.5 52t104.5 23q66 0 104.5 -39.5t63.5 -89.5l86 -172l260 277h342l-489 -531l94 -192q12 -25 29.5 -47.5t50.5 -22.5q20 0 41.5 10.5t42.5 22.5l-29 -250 q-49 -29 -102.5 -52.5t-104.5 -23.5q-66 0 -104.5 40t-63.5 91l-84 170l-262 -276h-342z" />
<glyph unicode="y" horiz-adv-x="1251" d="M-96 -109h311v-10q0 -29 11 -53q12 -29 33.5 -49.5t51 -32.5t64.5 -12q61 0 108 24.5t82 64.5t57.5 89t34.5 98l33 142q-84 -96 -178 -137.5t-211 -41.5q-84 0 -145.5 26t-98.5 74t-47 115q-4 23 -4 49q0 47 12 101l78 340q10 41 10 69q0 31 -12 47q-22 29 -92 29 l184 246q57 0 111.5 -9t93.5 -39t53 -86q6 -22 6 -49q0 -45 -14 -104l-74 -313q-12 -47 -14 -91v-12q0 -37 10 -66q13 -34 44.5 -53.5t86.5 -19.5q57 0 104.5 21.5t81.5 57.5t57.5 83t35.5 100l131 572h315l-237 -1030q-20 -86 -60 -173t-113 -157t-185.5 -114t-278.5 -44 q-90 0 -175 15.5t-147.5 55.5t-94.5 108q-23 48 -23 113q0 27 4 56z" />
<glyph unicode="z" horiz-adv-x="1062" d="M-141 0l57 248l692 581h-289q-70 0 -99.5 -25.5t-41.5 -78.5l-160 94q10 45 27.5 88t48.5 77t80 55.5t123 21.5h764l-55 -246l-684 -584h325q70 0 99.5 26t41.5 79l160 -94q-10 -45 -27.5 -88t-48 -77t-80 -55.5t-122.5 -21.5h-811z" />
<glyph unicode="{" horiz-adv-x="806" d="M16 406l56 245q31 0 62.5 12.5t61 34t51 53t32.5 72.5l92 400q29 121 116.5 186.5t196.5 65.5h201l-58 -246h-77q-61 0 -93 -38t-49 -110l-76 -331q-12 -49 -39.5 -89t-64.5 -68t-81 -44.5t-87 -22.5q45 -6 82 -21.5t60.5 -43t30.5 -69.5t-7 -101l-74 -318 q-18 -80 0.5 -114.5t83.5 -34.5h68l-58 -246h-200q-53 0 -96.5 17.5t-70 50t-35.5 80t5 106.5l88 385q20 86 -17.5 129t-103.5 60z" />
<glyph unicode="|" horiz-adv-x="466" d="M111 0v1475h245v-1475h-245z" />
<glyph unicode="}" horiz-adv-x="806" d="M-176 -422l57 246h68q66 0 99.5 35t51.5 114l74 318q29 119 102.5 171t172.5 64q-41 6 -77 22.5t-59.5 44.5t-34 67.5t2.5 89.5l75 331q16 72 3 110t-74 38h-80l57 246h201q53 0 96 -17.5t69.5 -49.5t36 -79t-5.5 -106l-92 -400q-10 -41 -2 -72.5t26.5 -53t46.5 -34 t56 -12.5l-57 -245q-74 -16 -131 -59.5t-78 -129.5l-88 -385q-29 -121 -118 -187.5t-197 -66.5h-201z" />
<glyph unicode="~" horiz-adv-x="1089" d="M76 752q35 68 94 122t158 56q53 0 112.5 -20.5t118.5 -47.5q57 -25 112.5 -48t96.5 -23q61 0 103 46t77 99l66 -215q-23 -33 -47.5 -64.5t-53 -56.5t-65.5 -40t-82 -15q-55 0 -104.5 20.5t-102.5 46.5q-49 27 -107.5 49.5t-129.5 22.5q-70 0 -111 -45t-70 -102z" />
<glyph unicode="&#xa1;" horiz-adv-x="536" d="M-84 0l352 1087h160l-147 -1087h-365zM213 1263.5q-10 30.5 0 69.5q8 37 32.5 68t56.5 52.5t70 33.5t72 12q35 0 67 -12t53.5 -33.5t31.5 -52.5t2 -68q-10 -39 -33.5 -69.5t-56.5 -52t-70 -33t-71 -11.5q-35 0 -67 11.5t-54.5 33t-32.5 52z" />
<glyph unicode="&#xa2;" horiz-adv-x="1216" d="M79 531.5q-11 93.5 13 199.5q25 109 78 203t129 167t171 120t202 63l45 191h190l-45 -187q80 -10 146.5 -39.5t111.5 -80t64.5 -121t7.5 -162.5h-299q10 86 -35 132t-129 46q-74 0 -128 -28.5t-93 -76t-63.5 -106.5t-38.5 -121q-14 -59 -16.5 -116.5t15 -102.5 t57.5 -72.5t111 -27.5q88 0 158 58t98 144h301q-33 -92 -86 -165.5t-120.5 -127t-147.5 -87t-166 -46.5l-45 -188h-188l43 190q-98 14 -171 60.5t-116 117t-54 164z" />
<glyph unicode="&#xa3;" horiz-adv-x="1204" d="M-106 147q51 31 100 67t91 77t72.5 89t43.5 107q8 33 10 66t-6 61h-219l49 205h141q-23 53 -32 114.5t6 123.5q25 111 88 192.5t148 137t186.5 83t203.5 27.5q248 0 356.5 -129t53.5 -379h-307q14 49 12 96.5t-20.5 82t-54.5 56t-89 21.5q-88 0 -155.5 -42t-90.5 -136 q-6 -31 -4 -62.5t10.5 -64.5t16.5 -63.5t14 -57.5h250l-49 -205h-191q8 -47 -4 -104q-18 -78 -72.5 -145.5t-125.5 -114.5q57 33 127 33q41 0 78.5 -10.5t74.5 -22.5t73 -22.5t77 -10.5q33 0 63.5 13.5t58 34t53 46t48.5 49.5l76 -225q-88 -78 -186.5 -124t-204.5 -46 q-76 0 -139.5 22.5t-131.5 39.5q-53 12 -103 17t-99.5 -1t-100.5 -24.5t-108 -53.5z" />
<glyph unicode="&#xa4;" horiz-adv-x="1177" d="M49 295l123 119q-41 47 -68.5 128t-27.5 167q0 88 27.5 166.5t68.5 125.5l-123 117l127 125l117 -117q47 41 127 68t168 27q86 0 164.5 -27t126.5 -68l118 117l123 -123l-119 -119q41 -47 71 -125.5t30 -166.5q0 -86 -27.5 -166t-73.5 -129l119 -119l-121 -123l-120 123 q-53 -49 -129 -73.5t-162 -24.5q-88 0 -164 23.5t-131 70.5l-121 -119zM307 709q0 -66 23.5 -117t63.5 -88t90.5 -56.5t103.5 -19.5t103 19.5t90 55.5t63.5 88t23.5 118h2q0 66 -24.5 118t-64.5 87.5t-90 55t-103 19.5t-103.5 -19.5t-89.5 -55t-63.5 -88t-24.5 -117.5z" />
<glyph unicode="&#xa5;" d="M-8 111l45 198h307l23 103h-306l45 198h308l24 105q-313 78 -223 473l66 287h348l-58 -254q-10 -43 -15 -88.5t2 -82t32.5 -61t79.5 -24.5q51 0 89 24.5t62.5 62.5t40 83t25.5 86l57 254h348l-65 -287q-47 -201 -158 -318.5t-283 -154.5l-24 -105h305l-45 -198h-307 l-23 -103h305l-45 -198h-307l-24 -111h-349l25 111h-305z" />
<glyph unicode="&#xa6;" horiz-adv-x="466" d="M111 0v541h245v-541h-245zM111 934v541h245v-541h-245z" />
<glyph unicode="&#xa7;" horiz-adv-x="1298" d="M39 516q0 193 147 313q-76 53 -111.5 119t-35.5 160q0 117 55.5 193.5t140 122.5t187 65.5t199.5 19.5q102 0 205.5 -17t189.5 -63.5t142 -125t65 -199.5h-338q-10 102 -85 152.5t-171 50.5q-41 0 -82 -8.5t-75 -27t-55.5 -51t-21.5 -81.5q0 -41 31 -72t79 -54.5 t107.5 -40t116.5 -28.5t107.5 -22.5t81.5 -18.5q70 -20 132 -50t108 -73t74 -102.5t28 -140.5q0 -98 -37 -175t-111 -139q76 -53 112 -118.5t36 -159.5q0 -117 -55.5 -195t-140.5 -124t-187.5 -64.5t-198.5 -18.5q-102 0 -206.5 17.5t-189.5 63.5t-141.5 125t-64.5 200h338 q10 -100 83.5 -151.5t170.5 -51.5q41 0 83 8t75.5 26.5t55 51.5t21.5 82q0 41 -30.5 71.5t-79 54t-107.5 40t-117.5 29t-108.5 21.5t-81 20q-70 20 -132.5 49.5t-108.5 72.5t-72.5 102.5t-26.5 141.5zM395 559q0 -51 21.5 -83t55.5 -52.5t75 -31.5t82 -21q37 -10 73.5 -16.5 t73.5 -16.5q53 20 90 58.5t37 97.5q0 51 -21.5 82.5t-55 52t-75.5 32t-83 21.5q-35 10 -73 16.5t-73 16.5q-53 -20 -90 -58.5t-37 -97.5z" />
<glyph unicode="&#xa8;" horiz-adv-x="0" d="M324 1294q0 39 16 70t44 52.5t62.5 32.5t69.5 11t70 -11t62.5 -32.5t44 -52.5t16.5 -70t-16.5 -69.5t-44 -52t-62.5 -33t-70 -11.5t-69.5 11.5t-62.5 33t-44 52t-16 69.5zM807 1294q0 39 16.5 70t44 52.5t62.5 32.5t69 11q35 0 70 -11t61.5 -32.5t43 -52.5t16.5 -70 t-16.5 -69.5t-43 -52t-61.5 -33t-70 -11.5t-69.5 11.5t-62 33t-44 52t-16.5 69.5z" />
<glyph unicode="&#xa9;" horiz-adv-x="1683" d="M76 737q0 160 60.5 299.5t163.5 242.5t242.5 163.5t299.5 60.5t299 -60.5t242.5 -163.5t164 -242.5t60.5 -299.5t-60.5 -299t-164 -242.5t-243 -164t-298.5 -60.5q-160 0 -299.5 60.5t-242.5 164t-163.5 243t-60.5 298.5zM276 737q0 -119 44.5 -223t120 -183t179 -124 t222.5 -45t222 45t179 124t120 183t44 223t-44 223.5t-120 183.5t-179 124t-222 45t-222.5 -45t-179 -124t-120 -183.5t-44.5 -223.5zM434 733q0 94 29 174t82 138.5t131 92t174 33.5q141 0 240.5 -78.5t126.5 -238.5h-158q-16 74 -70.5 110.5t-132.5 36.5 q-117 0 -180.5 -73.5t-63.5 -190.5q0 -119 66.5 -196.5t175.5 -77.5q76 0 132 37t71 123h164h2q-29 -162 -130.5 -245t-236.5 -83q-96 0 -174 33.5t-133 92t-85 139.5t-30 173z" />
<glyph unicode="&#xaa;" horiz-adv-x="905" d="M169 1029.5q-11 60.5 5 131.5q16 74 55 136.5t94.5 106.5t123 69.5t141.5 25.5q51 0 96 -13t80 -42l10 39h193l-93 -398q-10 -43 3.5 -67.5t66.5 -24.5l-113 -151q-131 0 -159 73q-59 -45 -116.5 -64.5t-125.5 -19.5q-72 0 -127 25t-89 69t-45 104.5zM414 1092 q6 -29 21.5 -51.5t37 -35t46 -9.5t48.5 26q12 -6 35 6t44.5 32.5t36.5 45.5t13 41q6 6 7.5 28.5t-2 47t-10.5 46t-13 27.5q-33 23 -81 15t-89 -31q-59 -35 -83 -80t-11 -108z" />
<glyph unicode="&#xab;" horiz-adv-x="837" d="M59 598l66 279l364 270l-59 -254l-197 -156l127 -149l-59 -260zM410 598l65 279l365 270l-60 -254l-196 -156l127 -149l-60 -260z" />
<glyph unicode="&#xac;" horiz-adv-x="536" d="M-53 506l39 168l131 88l76 330q20 86 -2.5 116.5t-92.5 30.5l185 244q57 0 111.5 -9.5t91 -39t51 -86t-6.5 -152.5l-43 -190l131 88l-38 -168l-131 -88l-105 -455q-20 -86 2.5 -116.5t91.5 -30.5l-184 -246q-57 0 -111.5 9t-93.5 39t-53 87t8 154l74 315z" />
<glyph unicode="&#xad;" horiz-adv-x="755" d="M18 416l60 262h571l-61 -262h-570z" />
<glyph unicode="&#xae;" horiz-adv-x="923" d="M76 1116q0 80 29.5 149.5t82 122t123 82t150.5 29.5t150.5 -29.5t122.5 -82t83 -122t31 -149.5t-31 -149.5t-83 -121.5t-122.5 -82t-150.5 -30t-150.5 30t-123 82t-82 121.5t-29.5 149.5zM180 1116q0 -59 21.5 -110.5t60.5 -89t89 -60t110 -22.5q59 0 110.5 22.5t89 60 t59 89t21.5 110.5q0 57 -21.5 109.5t-59 90.5t-89 60.5t-110.5 22.5t-109.5 -22.5t-89.5 -60.5t-60.5 -90t-21.5 -110zM313 911v404h152q80 0 123 -26.5t43 -96.5q0 -55 -30 -80t-73 -29l99 -172h-86l-92 166h-56v-166h-80zM391 1141h82q33 0 53.5 12t20.5 47t-27.5 43 t-56.5 8h-72v-110z" />
<glyph unicode="&#xaf;" horiz-adv-x="0" d="M414 1190l35 151h638l-34 -151h-639z" />
<glyph unicode="&#xb0;" horiz-adv-x="755" d="M76 1196q0 63 22.5 119.5t63.5 96.5t95 63.5t120 23.5t121 -23.5t96 -63.5t63.5 -96.5t22.5 -119.5q0 -66 -22.5 -121t-63.5 -95t-96.5 -63.5t-118.5 -23.5q-66 0 -121 22.5t-96 63.5t-63.5 96t-22.5 121zM205 1196q0 -74 51 -123t121 -49q72 0 122 49t50 123h2 q0 74 -50 123t-122 49q-35 0 -66.5 -13.5t-55.5 -37t-38 -54t-14 -67.5z" />
<glyph unicode="&#xb1;" horiz-adv-x="1218" d="M92 219v246h1034v-246h-1034zM92 784v246h393v225h246v-225h395v-246h-395v-225h-244v225h-395z" />
<glyph unicode="&#xb2;" horiz-adv-x="788" d="M47 674q12 76 53 135t98.5 106.5t124 86t132.5 73.5q27 14 53.5 30.5t50 35t39.5 40t23 46.5q12 49 -9.5 79.5t-74.5 30.5q-76 0 -116 -53t-59 -133h-190q29 162 137.5 255t265.5 93q59 0 112.5 -14.5t90.5 -45t51.5 -78.5t-0.5 -116q-16 -76 -67 -132t-115.5 -102 t-134.5 -85t-121 -80h187q37 0 51 14t22 55l129 -71q-18 -78 -59 -124t-133 -46h-541z" />
<glyph unicode="&#xb3;" horiz-adv-x="780" d="M96.5 839.5q-12.5 61.5 16.5 145.5h192q-43 -164 105 -164q53 0 95 29t54 82q12 51 -15.5 75.5t-80.5 24.5h-35l31 135h35q47 0 88 21.5t51 66.5q10 41 -22.5 63.5t-75.5 22.5q-57 0 -101.5 -34.5t-56.5 -100.5h-193q18 76 56.5 132.5t90.5 91t114.5 52t129.5 17.5 q45 0 95.5 -12t89.5 -39t59.5 -67t7.5 -97q-10 -39 -39.5 -92t-87.5 -80q25 -12 41.5 -34.5t23.5 -49.5t7 -55t-6 -55q-14 -66 -54 -114t-94.5 -80t-117 -47t-119.5 -15q-72 0 -133.5 18t-100 58t-51 101.5z" />
<glyph unicode="&#xb4;" horiz-adv-x="0" d="M451 1163l288 303h336l-409 -303h-215z" />
<glyph unicode="&#xb5;" horiz-adv-x="1251" d="M-231 -186q45 0 74.5 14t48 41t29.5 63.5t22 81.5l241 1047h316l-138 -592q-10 -47 -13 -91t9.5 -78t44 -53.5t86.5 -19.5q57 0 104.5 21.5t82.5 58.5t57.5 84t34.5 98l131 572h315l-151 -655q-20 -88 -6 -129t96 -41l-184 -246q-129 0 -187.5 46t-66.5 136 q-49 -68 -120 -116t-157 -62q-23 -4 -50.5 -5t-53 2t-46 10t-28.5 19l-39 -163q-20 -86 -55 -141.5t-83 -88.5t-108.5 -46t-134.5 -13z" />
<glyph unicode="&#xb6;" d="M76 1100q0 106 37 179t102.5 116t155.5 61.5t196 18.5h555v-1897h-219v1729h-151v-1729h-220v1163q-219 0 -337.5 97.5t-118.5 261.5z" />
<glyph unicode="&#xb7;" horiz-adv-x="536" d="M76 737q0 39 16.5 70t44 52.5t62 32.5t69.5 11t70 -11t62.5 -32.5t44 -52.5t16.5 -70t-16.5 -69.5t-44 -52t-62.5 -33t-70 -11.5t-69.5 11.5t-62 33t-44 52t-16.5 69.5z" />
<glyph unicode="&#xb8;" horiz-adv-x="0" d="M115 -399l55 82q39 -12 77 -25.5t83 -13.5q41 0 85 17t54 67q10 37 -17.5 55t-60.5 18q-47 0 -92 -22l-37 43l156 178h100l-117 -129q20 8 44 10t47 2q37 0 69.5 -9t55 -27.5t31.5 -48t1 -70.5q-12 -51 -43 -86t-72.5 -55.5t-88 -29t-89.5 -8.5q-76 0 -129 14.5 t-112 37.5z" />
<glyph unicode="&#xb9;" horiz-adv-x="616" d="M205 1296q8 33 20.5 65t35 57.5t58 41t89.5 15.5h268l-187 -811h-219l146 628h-15q-29 0 -41 -18.5t-20 -52.5z" />
<glyph unicode="&#xba;" horiz-adv-x="827" d="M165 1039.5q-7 60.5 9 125.5q14 66 49 126.5t88.5 106.5t123 73.5t155.5 27.5t143.5 -27.5t88 -73.5t36.5 -106.5t-8 -126.5q-16 -66 -50 -126t-86 -106t-123 -74t-157 -28t-143.5 28t-88 74t-37.5 106.5zM359.5 1098.5q-1.5 -33.5 9 -61t34 -46t66.5 -18.5 q41 0 72.5 18.5t55.5 46t38 61t22 66.5t9.5 67t-10 61.5t-35 45t-64.5 17.5q-43 0 -74.5 -17.5t-55.5 -45t-38 -61.5t-22 -67q-6 -33 -7.5 -66.5z" />
<glyph unicode="&#xbb;" horiz-adv-x="837" d="M-2 328l59 254l197 155l-127 150l59 260l242 -270l-66 -279zM348 328l60 254l196 155l-127 150l60 260l241 -270l-65 -279z" />
<glyph unicode="&#xbc;" horiz-adv-x="1642" d="M90 0l1147 1475h180l-1149 -1475h-178zM205 1296q8 33 20.5 65t35 57.5t58 41t89.5 15.5h268l-187 -811h-219l146 628h-15q-29 0 -41 -18.5t-20 -52.5zM670 193l41 176l475 442h194l-104 -449h16q29 0 40 17.5t20 52.5l129 -72q-8 -31 -20.5 -60.5t-34 -54t-54.5 -38.5 t-84 -14h-51l-43 -193h-209l43 193h-358zM877 362h190l55 234z" />
<glyph unicode="&#xbd;" horiz-adv-x="1648" d="M90 0l1147 1475h180l-1149 -1475h-178zM205 1296q8 33 20.5 65t35 57.5t58 41t89.5 15.5h268l-187 -811h-219l146 628h-15q-29 0 -41 -18.5t-20 -52.5zM752 0q12 76 53 135.5t98.5 106.5t125 86t132.5 73q25 14 52.5 29.5t51 34t40 41t22.5 47.5q10 49 -11.5 80t-72.5 31 q-76 0 -117 -53.5t-57 -133.5h-192q31 162 139 255t266 93q59 0 111.5 -14t89.5 -45t52 -79t1 -116q-18 -76 -69.5 -132t-116 -102t-134 -86t-120.5 -81h186q39 0 52.5 14.5t23.5 57.5l127 -74q-16 -78 -58.5 -123t-132.5 -45h-542z" />
<glyph unicode="&#xbe;" horiz-adv-x="1771" d="M96.5 839.5q-12.5 61.5 16.5 145.5h192q-43 -164 105 -164q53 0 95 29t54 82q12 51 -15.5 75.5t-80.5 24.5h-35l31 135h35q47 0 88 21.5t51 66.5q10 41 -22.5 63.5t-75.5 22.5q-57 0 -101.5 -34.5t-56.5 -100.5h-193q18 76 56.5 132.5t90.5 91t114.5 52t129.5 17.5 q45 0 95.5 -12t89.5 -39t59.5 -67t7.5 -97q-10 -39 -39.5 -92t-87.5 -80q25 -12 41.5 -34.5t23.5 -49.5t7 -55t-6 -55q-14 -66 -54 -114t-94.5 -80t-117 -47t-119.5 -15q-72 0 -133.5 18t-100 58t-51 101.5zM217 0l1149 1475h180l-1149 -1475h-180zM799 193l41 176l473 442 h196l-104 -449h14q29 0 40 17.5t22 52.5l127 -72q-6 -31 -18.5 -60.5t-34 -54t-55.5 -38.5t-85 -14h-49l-45 -193h-209l45 193h-358zM1004 362h192l53 234z" />
<glyph unicode="&#xbf;" horiz-adv-x="1200" d="M-9.5 233.5q-13.5 71.5 1.5 143.5q18 90 56 148.5t86 97.5t100.5 65.5t101.5 54.5q47 27 78.5 50.5t53 51t36 61.5t24.5 79l31 129h295l-31 -127q-10 -41 -24.5 -91t-40 -101.5t-69.5 -99.5t-111 -87q-23 -12 -60 -29.5t-72.5 -42t-66.5 -58.5t-41 -79 q-16 -74 22.5 -113.5t120.5 -39.5q106 0 172 70.5t82 172.5h332q-27 -98 -80 -191t-135 -165t-192.5 -115t-249.5 -43q-133 0 -221.5 36t-136.5 93.5t-61.5 129zM563 1261.5q-10 30.5 0 69.5q8 37 33 68t56.5 52.5t69.5 33.5t73 12q72 0 120.5 -45t32.5 -121 q-10 -39 -33.5 -69.5t-56.5 -52t-69.5 -33t-71.5 -11.5t-67 11.5t-54.5 33t-32.5 52z" />
<glyph unicode="&#xc0;" d="M-59 0l233 1014q57 250 215 372.5t406 122.5q254 0 350 -124.5t41 -368.5l-234 -1016h-348l139 602h-315l-139 -602h-348zM489 872h316l26 109q10 43 15.5 88t-2.5 82t-34 61.5t-79 24.5t-89 -24.5t-60.5 -61.5t-40 -82t-25.5 -88zM596 1868h334l147 -303h-217z" />
<glyph unicode="&#xc1;" d="M-59 0l233 1014q57 250 215 372.5t406 122.5q254 0 350 -124.5t41 -368.5l-234 -1016h-348l139 602h-315l-139 -602h-348zM489 872h316l26 109q10 43 15.5 88t-2.5 82t-34 61.5t-79 24.5t-89 -24.5t-60.5 -61.5t-40 -82t-25.5 -88zM543 1565l288 303h336l-407 -303h-217z " />
<glyph unicode="&#xc2;" d="M-59 0l233 1014q57 250 215 372.5t406 122.5q254 0 350 -124.5t41 -368.5l-234 -1016h-348l139 602h-315l-139 -602h-348zM438 1567l314 301h258l178 -299l-238 -2l-98 180l-178 -180h-236zM489 872h316l26 109q10 43 15.5 88t-2.5 82t-34 61.5t-79 24.5t-89 -24.5 t-60.5 -61.5t-40 -82t-25.5 -88z" />
<glyph unicode="&#xc3;" d="M-59 0l233 1014q57 250 215 372.5t406 122.5q254 0 350 -124.5t41 -368.5l-234 -1016h-348l139 602h-315l-139 -602h-348zM465 1573q8 41 30.5 86t56.5 84t79 63.5t100 24.5q43 0 84 -14.5t77 -31t65.5 -30.5t52.5 -14q35 0 64.5 21.5t49.5 72.5h138q-14 -51 -39 -97 t-60 -80t-79 -54.5t-95 -20.5q-45 0 -83 13.5t-70.5 29.5t-64.5 29.5t-64 13.5q-37 0 -68 -31.5t-43 -64.5h-131zM489 872h316l26 109q10 43 15.5 88t-2.5 82t-34 61.5t-79 24.5t-89 -24.5t-60.5 -61.5t-40 -82t-25.5 -88z" />
<glyph unicode="&#xc4;" d="M-59 0l233 1014q57 250 215 372.5t406 122.5q254 0 350 -124.5t41 -368.5l-234 -1016h-348l139 602h-315l-139 -602h-348zM416 1696q0 39 16.5 69.5t44 52t62 33t69.5 11.5t69 -11.5t61.5 -33t44 -52t16.5 -69.5q0 -37 -16.5 -68t-44 -52.5t-61.5 -33.5t-69 -12t-69.5 12 t-62 33.5t-44 52.5t-16.5 68zM489 872h316l26 109q10 43 15.5 88t-2.5 82t-34 61.5t-79 24.5t-89 -24.5t-60.5 -61.5t-40 -82t-25.5 -88zM897 1696q0 39 16.5 69.5t44 52t62.5 33t70 11.5t69.5 -11.5t62 -33t44 -52t16.5 -69.5q0 -37 -16.5 -68t-44 -52.5t-62.5 -33.5 t-69 -12q-35 0 -70 12t-62.5 33.5t-44 52.5t-16.5 68z" />
<glyph unicode="&#xc5;" d="M-59 0l233 1014q57 250 215 372.5t406 122.5q254 0 350 -124.5t41 -368.5l-234 -1016h-348l139 602h-315l-139 -602h-348zM489 872h316l26 109q10 43 15.5 88t-2.5 82t-34 61.5t-79 24.5t-89 -24.5t-60.5 -61.5t-40 -82t-25.5 -88zM631 1745q0 45 17.5 84t47 68.5 t69.5 47t85 17.5q43 0 83 -17.5t69.5 -47t47 -68.5t17.5 -84t-17.5 -85t-47 -69.5t-68.5 -47t-84 -17.5t-85 17.5t-69.5 47t-47 69.5t-17.5 85zM733 1745q0 -47 35 -82t82 -35t81 36t34 81q0 47 -35 81t-80 34q-47 0 -82 -34t-35 -81z" />
<glyph unicode="&#xc6;" horiz-adv-x="1896" d="M-59 0l233 1014q57 250 215 372.5t406 122.5q229 0 323 -112l19 78h819l-68 -291h-663q-18 -80 -37 -164t-35 -148h598l-63 -270h-596l-72 -311h682l-68 -291h-1030l139 602h-315l-139 -602h-348zM489 872h316l26 109q10 43 15.5 88t-2.5 82t-34 61.5t-79 24.5t-89 -24.5 t-60.5 -61.5t-40 -82t-25.5 -88z" />
<glyph unicode="&#xc7;" horiz-adv-x="1527" d="M53.5 440q-14.5 135 22.5 293q39 166 121 308.5t199.5 246t266 162.5t320.5 59q131 0 235.5 -35.5t174 -105.5t99.5 -173t11 -239h-340q12 123 -61.5 197t-194.5 74q-102 0 -182 -45t-140.5 -116t-100.5 -158t-60 -173t-20.5 -172t26.5 -156.5t86 -114.5t160 -44 q74 0 136 25.5t111.5 69.5t86.5 103.5t63 126.5h342q-35 -129 -107.5 -236.5t-172 -187t-218 -127t-245.5 -55.5l-86 -96q20 8 43.5 10t46.5 2q37 0 68.5 -9t54 -27.5t32 -48t0.5 -70.5q-12 -51 -42.5 -86t-71.5 -55.5t-88 -29t-90 -8.5q-74 0 -128.5 14.5t-113.5 37.5 l55 82q39 -12 78 -25.5t82 -13.5q41 0 85 17t54 67q10 37 -17.5 55t-58.5 18q-47 0 -92 -22l-39 43l127 145q-156 8 -266 70.5t-173.5 165t-78 237.5z" />
<glyph unicode="&#xc8;" d="M-59 0l340 1475h1011l-67 -291h-664l-72 -312h598l-63 -270h-596l-72 -311h682l-67 -291h-1030zM571 1868h334l150 -303h-219z" />
<glyph unicode="&#xc9;" horiz-adv-x="1335" d="M-59 0l340 1475h1011l-67 -291h-664l-72 -312h598l-63 -270h-596l-72 -311h682l-67 -291h-1030zM592 1565l289 303h336l-410 -303h-215z" />
<glyph unicode="&#xca;" d="M-59 0l340 1475h1011l-67 -291h-664l-72 -312h598l-63 -270h-596l-72 -311h682l-67 -291h-1030zM440 1567l314 301h258l178 -299l-238 -2l-98 180l-178 -180h-236z" />
<glyph unicode="&#xcb;" d="M-59 0l340 1475h1011l-67 -291h-664l-72 -312h598l-63 -270h-596l-72 -311h682l-67 -291h-1030zM401 1696q0 39 16.5 69.5t44 52t62.5 33t70 11.5t69.5 -11.5t62.5 -33t44 -52t16 -69.5q0 -37 -16 -68t-44 -52.5t-62.5 -33.5t-69.5 -12t-70 12t-62.5 33.5t-44 52.5 t-16.5 68zM885 1696q0 39 16.5 69.5t44 52t62 33t69.5 11.5t69 -11.5t61.5 -33t44 -52t16.5 -69.5q0 -37 -16.5 -68t-44 -52.5t-61.5 -33.5t-69 -12t-69.5 12t-62 33.5t-44 52.5t-16.5 68z" />
<glyph unicode="&#xcc;" horiz-adv-x="569" d="M-59 0l340 1475h348l-340 -1475h-348zM254 1868h334l149 -303h-219z" />
<glyph unicode="&#xcd;" horiz-adv-x="569" d="M-59 0l340 1475h348l-340 -1475h-348zM217 1565l289 303h336l-408 -303h-217z" />
<glyph unicode="&#xce;" horiz-adv-x="569" d="M-59 0l340 1475h348l-340 -1475h-348zM106 1567l314 301h260l176 -299l-235 -2l-99 180l-178 -180h-238z" />
<glyph unicode="&#xcf;" horiz-adv-x="569" d="M-59 0l340 1475h348l-340 -1475h-348zM84 1696q0 39 16.5 69.5t44 52t62.5 33t69 11.5q35 0 70 -11.5t62.5 -33t44 -52t16.5 -69.5q0 -37 -16.5 -68t-44 -52.5t-62.5 -33.5t-70 -12t-69.5 12t-62 33.5t-44 52.5t-16.5 68zM567 1696q0 39 16.5 69.5t44 52t62.5 33t70 11.5 t68.5 -11.5t61.5 -33t44 -52t16 -69.5q0 -37 -16 -68t-44 -52.5t-61.5 -33.5t-68.5 -12t-70 12t-62.5 33.5t-44 52.5t-16.5 68z" />
<glyph unicode="&#xd0;" horiz-adv-x="1363" d="M-59 0l151 662h-112l45 196h114l142 617h526q168 0 277.5 -56.5t167 -156t65.5 -233.5t-29 -290q-41 -176 -121 -313t-194.5 -231.5t-263 -144.5t-324.5 -50h-444zM356 291h80q104 0 187.5 34.5t147 95t105 143.5t64.5 179q23 98 15.5 180.5t-45.5 139.5t-107.5 89 t-173.5 32h-68l-74 -324h263l-45 -198h-265z" />
<glyph unicode="&#xd1;" d="M-59 0l233 1016q57 248 215 370.5t406 122.5q254 0 350 -124.5t41 -368.5l-234 -1016h-348l227 981q10 43 15.5 88t-2.5 82t-34 61.5t-79 24.5t-89 -24.5t-60.5 -61.5t-40 -82t-25.5 -88l-227 -981h-348zM471 1573q8 41 30.5 86t56.5 84t79 63.5t100 24.5q45 0 86 -14.5 t76 -31t64.5 -30.5t52.5 -14q35 0 65.5 21.5t48.5 72.5h138q-14 -51 -39 -97t-59.5 -80t-78.5 -54.5t-96 -20.5q-45 0 -81.5 13.5t-70.5 29.5t-66 29.5t-64 13.5q-35 0 -67 -31.5t-44 -64.5h-131z" />
<glyph unicode="&#xd2;" horiz-adv-x="1601" d="M56.5 434q-17.5 141 19.5 303t120 303.5t200.5 246t266 163.5t316.5 59t289 -59t190.5 -163.5t87 -246t-19.5 -303.5t-120 -303t-201 -245.5t-266 -164t-316 -59.5t-289 59.5t-190.5 164t-87 245.5zM405 562q1 -87 29.5 -156.5t90 -113.5t163.5 -44q100 0 181 44 t142.5 113.5t104 156.5t62.5 175t19 175t-30.5 157t-91 114t-162.5 44q-102 0 -183 -44t-142.5 -114t-102.5 -157t-61 -175t-19 -175zM690 1868h334l147 -303h-217z" />
<glyph unicode="&#xd3;" horiz-adv-x="1601" d="M56.5 434q-17.5 141 19.5 303t120 303.5t200.5 246t266 163.5t316.5 59t289 -59t190.5 -163.5t87 -246t-19.5 -303.5t-120 -303t-201 -245.5t-266 -164t-316 -59.5t-289 59.5t-190.5 164t-87 245.5zM405 562q1 -87 29.5 -156.5t90 -113.5t163.5 -44q100 0 181 44 t142.5 113.5t104 156.5t62.5 175t19 175t-30.5 157t-91 114t-162.5 44q-102 0 -183 -44t-142.5 -114t-102.5 -157t-61 -175t-19 -175zM739 1565l289 303h336l-408 -303h-217z" />
<glyph unicode="&#xd4;" horiz-adv-x="1601" d="M56.5 434q-17.5 141 19.5 303t120 303.5t200.5 246t266 163.5t316.5 59t289 -59t190.5 -163.5t87 -246t-19.5 -303.5t-120 -303t-201 -245.5t-266 -164t-316 -59.5t-289 59.5t-190.5 164t-87 245.5zM405 562q1 -87 29.5 -156.5t90 -113.5t163.5 -44q100 0 181 44 t142.5 113.5t104 156.5t62.5 175t19 175t-30.5 157t-91 114t-162.5 44q-102 0 -183 -44t-142.5 -114t-102.5 -157t-61 -175t-19 -175zM614 1567l314 301h258l178 -299l-238 -2l-98 180l-178 -180h-236z" />
<glyph unicode="&#xd5;" horiz-adv-x="1601" d="M56.5 434q-17.5 141 19.5 303t120 303.5t200.5 246t266 163.5t316.5 59t289 -59t190.5 -163.5t87 -246t-19.5 -303.5t-120 -303t-201 -245.5t-266 -164t-316 -59.5t-289 59.5t-190.5 164t-87 245.5zM405 562q1 -87 29.5 -156.5t90 -113.5t163.5 -44q100 0 181 44 t142.5 113.5t104 156.5t62.5 175t19 175t-30.5 157t-91 114t-162.5 44q-102 0 -183 -44t-142.5 -114t-102.5 -157t-61 -175t-19 -175zM655 1573q8 41 31 86t56.5 84t78.5 63.5t103 24.5q43 0 84 -14.5t75.5 -31t64.5 -30.5t52 -14q37 0 66.5 21.5t50.5 72.5h135 q-12 -51 -36.5 -97t-59.5 -80t-79 -54.5t-95 -20.5q-45 0 -83 13.5t-72 29.5t-65.5 29.5t-64.5 13.5q-35 0 -66.5 -31.5t-42.5 -64.5h-133z" />
<glyph unicode="&#xd6;" horiz-adv-x="1601" d="M56.5 434q-17.5 141 19.5 303t120 303.5t200.5 246t266 163.5t316.5 59t289 -59t190.5 -163.5t87 -246t-19.5 -303.5t-120 -303t-201 -245.5t-266 -164t-316 -59.5t-289 59.5t-190.5 164t-87 245.5zM405 562q1 -87 29.5 -156.5t90 -113.5t163.5 -44q100 0 181 44 t142.5 113.5t104 156.5t62.5 175t19 175t-30.5 157t-91 114t-162.5 44q-102 0 -183 -44t-142.5 -114t-102.5 -157t-61 -175t-19 -175zM575 1696q0 39 16.5 69.5t44.5 52t62.5 33t69.5 11.5t69.5 -11.5t62.5 -33t44.5 -52t16.5 -69.5q0 -37 -16.5 -68t-44.5 -52.5 t-62.5 -33.5t-69.5 -12t-69.5 12t-62.5 33.5t-44.5 52.5t-16.5 68zM1059 1696q0 39 16.5 69.5t44 52t62.5 33t69 11.5q35 0 69 -11.5t61.5 -33t44 -52t16.5 -69.5q0 -37 -16.5 -68t-44 -52.5t-61.5 -33.5t-69 -12t-69.5 12t-62 33.5t-44 52.5t-16.5 68z" />
<glyph unicode="&#xd7;" horiz-adv-x="974" d="M0 424l313 313l-313 314l172 174l313 -316l316 316l174 -172l-316 -316l316 -313l-176 -174l-312 315l-313 -315z" />
<glyph unicode="&#xd8;" horiz-adv-x="1601" d="M-80 16l213 187q-63 102 -79.5 236t20.5 292q37 164 121 304.5t201.5 242.5t265 160.5t313.5 58.5q145 0 254.5 -44t183.5 -126l199 174l63 -65l-207 -181q61 -100 77 -233t-21 -291q-37 -164 -121 -304t-202 -242.5t-265.5 -161t-312.5 -58.5q-143 0 -252 44t-181 122 l-208 -186zM402.5 576.5q0.5 -68.5 17.5 -121.5l727 641v-2q-41 63 -103.5 91.5t-134.5 28.5q-70 0 -143.5 -26.5t-140 -83.5t-119.5 -149.5t-84 -223.5q-20 -86 -19.5 -154.5zM455 362q41 -59 101 -86.5t132 -27.5q70 0 142.5 26.5t139 84t121 149.5t85.5 223 q18 80 18 147.5t-16 120.5z" />
<glyph unicode="&#xd9;" d="M47 459l234 1016h348l-228 -981q-10 -43 -15 -88.5t3 -82t34 -61t79 -24.5q51 0 88 24.5t61.5 61t40 82t25.5 88.5l227 981h348l-233 -1014q-57 -250 -215 -373t-406 -123q-254 0 -350 125t-41 369zM588 1868h334l147 -303h-217z" />
<glyph unicode="&#xda;" d="M47 459l234 1016h348l-228 -981q-10 -43 -15 -88.5t3 -82t34 -61t79 -24.5q51 0 88 24.5t61.5 61t40 82t25.5 88.5l227 981h348l-233 -1014q-57 -250 -215 -373t-406 -123q-254 0 -350 125t-41 369zM565 1565l291 303h336l-410 -303h-217z" />
<glyph unicode="&#xdb;" d="M47 459l234 1016h348l-228 -981q-10 -43 -15 -88.5t3 -82t34 -61t79 -24.5q51 0 88 24.5t61.5 61t40 82t25.5 88.5l227 981h348l-233 -1014q-57 -250 -215 -373t-406 -123q-254 0 -350 125t-41 369zM428 1567l313 301h258l179 -299l-238 -2l-98 180l-178 -180h-236z" />
<glyph unicode="&#xdc;" d="M47 459l234 1016h348l-228 -981q-10 -43 -15 -88.5t3 -82t34 -61t79 -24.5q51 0 88 24.5t61.5 61t40 82t25.5 88.5l227 981h348l-233 -1016v2q-59 -250 -216 -373t-405 -123q-254 0 -350 125t-41 369zM403 1696q0 39 16.5 69.5t43 52t61.5 33t70 11.5t69.5 -11.5 t62.5 -33t44 -52t16 -69.5q0 -37 -16 -68t-44 -52.5t-62.5 -33.5t-69.5 -12t-70 12t-61.5 33.5t-43 52.5t-16.5 68zM885 1696q0 39 16.5 69.5t44 52t62 33t69.5 11.5t70 -11.5t62.5 -33t44 -52t16.5 -69.5q0 -37 -16.5 -68t-44 -52.5t-62.5 -33.5t-70 -12t-69.5 12t-62 33.5 t-44 52.5t-16.5 68z" />
<glyph unicode="&#xdd;" d="M193 1096l88 379h348l-80 -347q-10 -43 -15.5 -88t2 -81.5t33 -61.5t78.5 -25t90 25t62.5 62.5t40 82.5t24.5 86l80 347h348l-88 -379q-47 -201 -157.5 -319t-282.5 -154l-143 -623h-349l144 623q-313 78 -223 473zM565 1577l291 303h336l-410 -303h-217z" />
<glyph unicode="&#xde;" horiz-adv-x="1239" d="M-59 0l340 1475h348l-45 -193h192q137 0 224 -43t133.5 -110.5t55.5 -152.5t-9 -169q-29 -123 -90.5 -215t-148.5 -153.5t-194.5 -91.5t-226.5 -30h-158l-73 -317h-348zM424 590h94q55 0 108.5 8t97.5 31.5t77 64t47 101.5q14 59 3 97t-41 60.5t-76 30.5t-103 8h-113z " />
<glyph unicode="&#xdf;" horiz-adv-x="1251" d="M-231 -186q70 0 106.5 30.5t56.5 116.5l240 1047q27 117 82 209t134 156.5t179.5 99t216.5 34.5q86 0 168 -22.5t141.5 -69.5t86 -119.5t4.5 -173.5q-25 -111 -90.5 -185.5t-173.5 -121.5q68 -8 110.5 -43t65 -87t24.5 -115t-12 -126q-25 -106 -79 -190t-129 -142.5 t-168 -90t-197 -31.5q-80 0 -154 12l57 244q37 -10 74 -10q111 0 187.5 64.5t101.5 174.5q16 72 4 118t-44 72.5t-81 37t-109 10.5h-26l43 178h18q45 0 89 8t81 28.5t64.5 57.5t40.5 92q20 86 -22 131t-126 45q-102 0 -159.5 -62.5t-79.5 -156.5l-273 -1177 q-23 -96 -63.5 -153.5t-92 -87.5t-109.5 -39t-116 -9z" />
<glyph unicode="&#xe0;" horiz-adv-x="1374" d="M16.5 303q-18.5 100 10.5 221t93 224.5t154.5 178t202 117.5t234.5 43q90 0 165.5 -25.5t129.5 -78.5l18 78h313l-159 -701q-16 -66 8 -95t92 -29l-186 -246q-203 0 -242 127q-98 -74 -191.5 -109t-209.5 -35q-121 0 -212.5 41t-146.5 115t-73.5 174zM342 524 q-35 -147 16.5 -233t204.5 -86q43 0 93.5 13t94.5 40t76.5 63.5t44.5 86.5l64 270q10 43 -8.5 75.5t-52 55t-75.5 35t-81 12.5q-160 0 -251 -90t-126 -242zM496 1466h335l148 -303h-219z" />
<glyph unicode="&#xe1;" horiz-adv-x="1374" d="M16.5 303q-18.5 100 10.5 221t93 224.5t154.5 178t202 117.5t234.5 43q90 0 165.5 -25.5t129.5 -78.5l18 78h313l-159 -701q-16 -66 8 -95t92 -29l-186 -246q-203 0 -242 127q-98 -74 -191.5 -109t-209.5 -35q-121 0 -212.5 41t-146.5 115t-73.5 174zM342 524 q-35 -147 16.5 -233t204.5 -86q43 0 93.5 13t94.5 40t76.5 63.5t44.5 86.5l64 270q10 43 -8.5 75.5t-52 55t-75.5 35t-81 12.5q-160 0 -251 -90t-126 -242zM506 1163l289 303h335l-407 -303h-217z" />
<glyph unicode="&#xe2;" horiz-adv-x="1374" d="M16.5 303q-18.5 100 10.5 221t93 224.5t154.5 178t202 117.5t234.5 43q90 0 165.5 -25.5t129.5 -78.5l18 78h313l-159 -701q-16 -66 8 -95t92 -29l-186 -246q-203 0 -242 127q-98 -74 -191.5 -109t-209.5 -35q-121 0 -212.5 41t-146.5 115t-73.5 174zM342 524 q-35 -147 16.5 -233t204.5 -86q43 0 93.5 13t94.5 40t76.5 63.5t44.5 86.5l64 270q10 43 -8.5 75.5t-52 55t-75.5 35t-81 12.5q-160 0 -251 -90t-126 -242zM365 1165l313 301h260l176 -301h-235l-101 181l-178 -181h-235z" />
<glyph unicode="&#xe3;" horiz-adv-x="1374" d="M16.5 303q-18.5 100 10.5 221t93 224.5t154.5 178t202 117.5t234.5 43q90 0 165.5 -25.5t129.5 -78.5l18 78h313l-159 -701q-16 -66 8 -95t92 -29l-186 -246q-203 0 -242 127q-98 -74 -191.5 -109t-209.5 -35q-121 0 -212.5 41t-146.5 115t-73.5 174zM342 524 q-35 -147 16.5 -233t204.5 -86q43 0 93.5 13t94.5 40t76.5 63.5t44.5 86.5l64 270q10 43 -8.5 75.5t-52 55t-75.5 35t-81 12.5q-160 0 -251 -90t-126 -242zM438 1171q8 41 29.5 86.5t55.5 84t80 63.5t102 25q43 0 83.5 -14.5t76.5 -32t64.5 -32t51.5 -14.5q78 0 117 97h135 q-12 -51 -37 -97.5t-59.5 -81t-78.5 -55t-95 -20.5q-45 0 -83 13t-72 30.5t-65.5 31t-64.5 13.5q-35 0 -65.5 -33t-43.5 -64h-131z" />
<glyph unicode="&#xe4;" horiz-adv-x="1374" d="M16.5 303q-18.5 100 10.5 221t93 224.5t154.5 178t202 117.5t234.5 43q90 0 165.5 -25.5t129.5 -78.5l18 78h313l-159 -701q-16 -66 8 -95t92 -29l-186 -246q-203 0 -242 127q-98 -74 -191.5 -109t-209.5 -35q-121 0 -212.5 41t-146.5 115t-73.5 174zM342 524 q-35 -147 16.5 -233t204.5 -86q43 0 93.5 13t94.5 40t76.5 63.5t44.5 86.5l64 270q10 43 -8.5 75.5t-52 55t-75.5 35t-81 12.5q-160 0 -251 -90t-126 -242zM393 1294q0 39 16.5 70t44 52.5t62.5 32.5t70 11t69.5 -11t61 -32.5t43 -52.5t16.5 -70t-16.5 -69.5t-43 -52 t-61 -33t-69.5 -11.5t-70 11.5t-62.5 33t-44 52t-16.5 69.5zM877 1294q0 39 16 70t43 52.5t61.5 32.5t69.5 11t69.5 -11t62.5 -32.5t44.5 -52.5t16.5 -70t-16.5 -69.5t-44.5 -52t-62.5 -33t-69.5 -11.5t-69.5 11.5t-61.5 33t-43 52t-16 69.5z" />
<glyph unicode="&#xe5;" horiz-adv-x="1374" d="M16.5 303q-18.5 100 10.5 221t93 224.5t154.5 178t202 117.5t234.5 43q90 0 165.5 -25.5t129.5 -78.5l18 78h313l-159 -701q-16 -66 8 -95t92 -29l-186 -246q-203 0 -242 127q-98 -74 -191.5 -109t-209.5 -35q-121 0 -212.5 41t-146.5 115t-73.5 174zM342 524 q-35 -147 16.5 -233t204.5 -86q43 0 93.5 13t94.5 40t76.5 63.5t44.5 86.5l64 270q10 43 -8.5 75.5t-52 55t-75.5 35t-81 12.5q-160 0 -251 -90t-126 -242zM559 1366q0 45 17.5 84t47 68.5t69.5 47t85 17.5q43 0 83 -17.5t70 -47t47 -68.5t17 -84q0 -43 -17 -83t-47 -70.5 t-69 -48t-84 -17.5t-85 17.5t-69.5 47t-47 69.5t-17.5 85zM662 1366q0 -47 34.5 -82t81.5 -35t81 36t34 81q0 47 -35 81t-80 34q-47 0 -81.5 -34t-34.5 -81z" />
<glyph unicode="&#xe6;" horiz-adv-x="2091" d="M16.5 302q-18.5 101 10.5 222q29 123 93 226.5t155.5 178.5t203 116.5t232.5 41.5q92 0 167.5 -25.5t127.5 -78.5l18 78h238l-23 -100q72 57 158 91.5t188 34.5q96 0 178 -25.5t140.5 -76.5t85 -128t12.5 -179l-803 -270q-4 -86 37 -144.5t145 -58.5q90 0 160 58.5 t98 144.5h299q-37 -104 -99 -185.5t-143 -136.5t-176.5 -84t-197.5 -29q-96 0 -167 33t-116 88l-22 -94h-238l21 86q-74 -53 -163 -83t-187 -30q-119 0 -210.5 41t-147.5 114t-74.5 174zM342 524q-35 -145 15.5 -232t205.5 -87q43 0 92.5 13t94.5 40t77.5 63.5t44.5 86.5 l64 270q8 41 -10.5 73.5t-52 56t-75.5 36t-79 12.5q-84 0 -146.5 -24.5t-108.5 -69.5t-76 -105.5t-46 -132.5zM1235 590l459 155q-10 53 -51 82t-105 29q-61 0 -109.5 -20.5t-85 -54t-62.5 -79t-40 -94.5q-2 -2 -4 -8t-2 -10z" />
<glyph unicode="&#xe7;" horiz-adv-x="1216" d="M14.5 313.5q-14.5 96.5 12.5 210.5q29 121 93 224.5t154.5 178t202 117.5t234.5 43q96 0 179 -25.5t140 -76.5t84 -128t12 -179h-299q10 86 -34.5 132t-128.5 46q-74 0 -128.5 -28.5t-93.5 -75.5t-63.5 -106.5t-38.5 -121.5q-14 -59 -16 -116.5t15 -102.5t57 -72.5 t112 -27.5q88 0 158.5 58.5t97.5 144.5h301q-35 -98 -92.5 -175t-131 -132.5t-161.5 -87t-182 -38.5l-92 -104q20 8 43.5 10t46.5 2q37 0 68.5 -9t54 -27.5t31.5 -48t1 -70.5q-12 -51 -42.5 -86t-71.5 -55.5t-88.5 -29t-90.5 -8.5q-74 0 -128 14.5t-113 37.5l55 82 q39 -12 78 -25.5t82 -13.5q41 0 85 17t54 67q10 37 -17.5 55t-58.5 18q-47 0 -92 -22l-39 43l135 153q-109 8 -190.5 52.5t-130.5 117t-63.5 169z" />
<glyph unicode="&#xe8;" horiz-adv-x="1130" d="M16.5 303q-18.5 100 10.5 221t93 224.5t154.5 178t202 117.5t234.5 43q96 0 179 -25.5t140 -76.5t84 -128t12 -179l-802 -270q-4 -86 37.5 -144.5t146.5 -58.5q88 0 158.5 58.5t97.5 144.5h301q-37 -104 -99.5 -185.5t-143.5 -136.5t-176 -84t-197 -29q-121 0 -212.5 41 t-146.5 115t-73.5 174zM362 590l457 155q-10 53 -50 82t-105 29q-59 0 -107.5 -20.5t-85.5 -54t-62.5 -79t-41.5 -94.5q-4 -12 -5 -18zM483 1466h336l148 -303h-219z" />
<glyph unicode="&#xe9;" horiz-adv-x="1130" d="M16.5 303q-18.5 100 10.5 221t93 224.5t154.5 178t202 117.5t234.5 43q96 0 179 -25.5t140 -76.5t84 -128t12 -179l-802 -270q-4 -86 37.5 -144.5t146.5 -58.5q88 0 158.5 58.5t97.5 144.5h301q-37 -104 -99.5 -185.5t-143.5 -136.5t-176 -84t-197 -29q-121 0 -212.5 41 t-146.5 115t-73.5 174zM362 590l457 155q-10 53 -50 82t-105 29q-59 0 -107.5 -20.5t-85.5 -54t-62.5 -79t-41.5 -94.5q-4 -12 -5 -18zM446 1163l291 303h336l-409 -303h-218z" />
<glyph unicode="&#xea;" horiz-adv-x="1130" d="M16.5 303q-18.5 100 10.5 221t93 224.5t154.5 178t202 117.5t234.5 43q96 0 179 -25.5t140 -76.5t84 -128t12 -179l-802 -270q-4 -86 37.5 -144.5t146.5 -58.5q88 0 158.5 58.5t97.5 144.5h301q-37 -104 -99.5 -185.5t-143.5 -136.5t-176 -84t-197 -29q-121 0 -212.5 41 t-146.5 115t-73.5 174zM352 1165l314 301h260l176 -301h-236l-100 181l-178 -181h-236zM362 590l457 155q-10 53 -50 82t-105 29q-59 0 -107.5 -20.5t-85.5 -54t-62.5 -79t-41.5 -94.5q-4 -12 -5 -18z" />
<glyph unicode="&#xeb;" horiz-adv-x="1130" d="M16.5 303q-18.5 100 10.5 221t93 224.5t154.5 178t202 117.5t234.5 43q96 0 179 -25.5t140 -76.5t84 -128t12 -179l-802 -270q-4 -86 37.5 -144.5t146.5 -58.5q88 0 158.5 58.5t97.5 144.5h301q-37 -104 -99.5 -185.5t-143.5 -136.5t-176 -84t-197 -29q-121 0 -212.5 41 t-146.5 115t-73.5 174zM330 1294q0 39 16 70t44 52.5t62.5 32.5t69.5 11t70 -11t61.5 -32.5t43 -52.5t16.5 -70t-16.5 -69.5t-43 -52t-61.5 -33t-70 -11.5t-69.5 11.5t-62.5 33t-44 52t-16 69.5zM362 590l457 155q-10 53 -50 82t-105 29q-59 0 -107.5 -20.5t-85.5 -54 t-62.5 -79t-41.5 -94.5q-4 -12 -5 -18zM813 1294q0 39 16.5 70t43 52.5t61.5 32.5t70 11t69.5 -11t62 -32.5t44 -52.5t16.5 -70t-16.5 -69.5t-44 -52t-62.5 -33t-69 -11.5q-35 0 -70 11.5t-61.5 33t-43 52t-16.5 69.5z" />
<glyph unicode="&#xec;" horiz-adv-x="536" d="M-4 125q-14 57 8 154l92 399q20 86 -2 116.5t-92 30.5l184 244q57 0 111.5 -9t93.5 -39t53.5 -86t-8.5 -153l-92 -399q-20 -86 2.5 -116.5t91.5 -30.5l-184 -246q-57 0 -111.5 9t-93.5 39t-53 87zM154 1466h333l148 -303h-217z" />
<glyph unicode="&#xed;" horiz-adv-x="536" d="M-4 125q-14 57 8 154l92 399q20 86 -2 116.5t-92 30.5l184 244q57 0 111.5 -9t93.5 -39t53.5 -86t-8.5 -153l-92 -399q-20 -86 2.5 -116.5t91.5 -30.5l-184 -246q-57 0 -111.5 9t-93.5 39t-53 87zM100 1163l291 303h336l-410 -303h-217z" />
<glyph unicode="&#xee;" horiz-adv-x="536" d="M-4 125q-14 57 8 154l92 399q20 86 -2 116.5t-92 30.5l184 244q57 0 111.5 -9t93.5 -39t53.5 -86t-8.5 -153l-92 -399q-20 -86 2.5 -116.5t91.5 -30.5l-184 -246q-57 0 -111.5 9t-93.5 39t-53 87zM2 1165l311 301h260l177 -301h-236l-98 181l-178 -181h-236z" />
<glyph unicode="&#xef;" horiz-adv-x="536" d="M-23 1294q0 39 16.5 70t44.5 52.5t62.5 32.5t69.5 11t69.5 -11t62.5 -32.5t44 -52.5t16 -70t-16 -69.5t-44 -52t-62.5 -33t-69.5 -11.5t-69.5 11.5t-62.5 33t-44.5 52t-16.5 69.5zM-4 125q-14 57 8 154l92 399q20 86 -2 116.5t-92 30.5l184 244q57 0 111.5 -9t93.5 -39 t53.5 -86t-8.5 -153l-92 -399q-20 -86 2.5 -116.5t91.5 -30.5l-184 -246q-57 0 -111.5 9t-93.5 39t-53 87zM461 1294q0 39 16.5 70t44 52.5t62 32.5t69.5 11t70 -11t62.5 -32.5t44 -52.5t16.5 -70t-16.5 -69.5t-44 -52t-62.5 -33t-70 -11.5t-69.5 11.5t-62 33t-44 52 t-16.5 69.5z" />
<glyph unicode="&#xf0;" horiz-adv-x="1257" d="M10.5 281.5q-16.5 99.5 12.5 226.5q25 111 82 205t137 161.5t180 106.5t215 39q59 0 116.5 -15.5t92.5 -50.5q-25 61 -65 117.5t-87 104.5l-176 -86l-88 127l141 71q-16 23 -35.5 41.5t-41.5 34.5l258 133q6 -4 20 -14t29.5 -23.5t30 -26t18.5 -16.5l160 80l94 -127 l-141 -70q59 -72 105 -152.5t71.5 -170.5t29 -188.5t-21.5 -204.5q-31 -133 -91.5 -245t-148.5 -192.5t-202.5 -127t-253.5 -46.5q-125 0 -218.5 36t-149.5 104.5t-72.5 168zM325 401.5q-1 -55.5 17 -99.5t57 -70.5t107 -26.5q66 0 118 26.5t90 70.5t63.5 99.5t39.5 112.5 q12 57 12 111.5t-19 96.5t-59 67.5t-106 25.5t-117 -25.5t-89 -67.5t-62.5 -96.5t-38.5 -111.5q-12 -57 -13 -112.5z" />
<glyph unicode="&#xf1;" horiz-adv-x="1251" d="M-59 0l155 678q18 84 -2 115.5t-92 31.5l184 244q129 0 189.5 -47t64.5 -139q82 109 186.5 156.5t227.5 47.5q82 0 144.5 -26.5t99.5 -73.5t48 -115.5t-9 -150.5l-68 -285q-10 -45 -16 -82t1 -63.5t29.5 -40.5t69.5 -14l-184 -246q-74 0 -129.5 13t-89 46t-43 88.5 t11.5 141.5l65 278q12 49 17.5 99.5t-4 89t-41 63.5t-92.5 25q-57 0 -103.5 -21.5t-80.5 -58.5t-57.5 -85t-35.5 -100l-133 -569h-313zM367 1171q8 41 30.5 86.5t56 84t79 63.5t102.5 25q43 0 84 -14.5t75.5 -32t64.5 -32t52 -14.5q78 0 117 97h135q-14 -51 -38.5 -97.5 t-59.5 -81t-79 -55t-95 -20.5q-45 0 -82 13t-70.5 30.5t-65.5 31t-65 13.5q-35 0 -66.5 -33t-41.5 -64h-133z" />
<glyph unicode="&#xf2;" horiz-adv-x="1257" d="M13.5 319.5q-9.5 100.5 15.5 210.5q25 111 82 211.5t143 177t200.5 122.5t256.5 46q141 0 234 -46t143.5 -122.5t61 -177t-14.5 -211.5t-82.5 -211t-143.5 -176.5t-200.5 -123t-255.5 -46.5t-234.5 46.5t-144.5 123t-60.5 177zM327 416.5q-3 -58.5 14 -105.5t56 -76.5 t109 -29.5t123 29.5t91 76.5t63.5 105.5t37.5 113.5q12 57 14.5 114.5t-14 105t-55.5 77t-109 29.5t-123 -29.5t-92 -77t-63.5 -104.5t-36.5 -115q-12 -55 -15 -113.5zM494 1466h335l148 -303h-219z" />
<glyph unicode="&#xf3;" horiz-adv-x="1257" d="M13.5 319.5q-9.5 100.5 15.5 210.5q25 111 82 211.5t143 177t200.5 122.5t256.5 46q141 0 234 -46t143.5 -122.5t61 -177t-14.5 -211.5t-82.5 -211t-143.5 -176.5t-200.5 -123t-255.5 -46.5t-234.5 46.5t-144.5 123t-60.5 177zM327 416.5q-3 -58.5 14 -105.5t56 -76.5 t109 -29.5t123 29.5t91 76.5t63.5 105.5t37.5 113.5q12 57 14.5 114.5t-14 105t-55.5 77t-109 29.5t-123 -29.5t-92 -77t-63.5 -104.5t-36.5 -115q-12 -55 -15 -113.5zM483 1163l289 303h336l-408 -303h-217z" />
<glyph unicode="&#xf4;" horiz-adv-x="1257" d="M13.5 319.5q-9.5 100.5 15.5 210.5q25 111 82 211.5t143 177t200.5 122.5t256.5 46q141 0 234 -46t143.5 -122.5t61 -177t-14.5 -211.5t-82.5 -211t-143.5 -176.5t-200.5 -123t-255.5 -46.5t-234.5 46.5t-144.5 123t-60.5 177zM327 416.5q-3 -58.5 14 -105.5t56 -76.5 t109 -29.5t123 29.5t91 76.5t63.5 105.5t37.5 113.5q12 57 14.5 114.5t-14 105t-55.5 77t-109 29.5t-123 -29.5t-92 -77t-63.5 -104.5t-36.5 -115q-12 -55 -15 -113.5zM348 1165l311 301h261l176 -301h-236l-98 181l-178 -181h-236z" />
<glyph unicode="&#xf5;" horiz-adv-x="1257" d="M13.5 319.5q-9.5 100.5 15.5 210.5q25 111 82 211.5t143 177t200.5 122.5t256.5 46q141 0 234 -46t143.5 -122.5t61 -177t-14.5 -211.5t-82.5 -211t-143.5 -176.5t-200.5 -123t-255.5 -46.5t-234.5 46.5t-144.5 123t-60.5 177zM327 416.5q-3 -58.5 14 -105.5t56 -76.5 t109 -29.5t123 29.5t91 76.5t63.5 105.5t37.5 113.5q12 57 14.5 114.5t-14 105t-55.5 77t-109 29.5t-123 -29.5t-92 -77t-63.5 -104.5t-36.5 -115q-12 -55 -15 -113.5zM354 1171q8 41 30 86.5t55.5 84t79.5 63.5t102 25q43 0 83.5 -14.5t76.5 -32t64.5 -32t51.5 -14.5 q78 0 117 97h135q-12 -51 -37 -97.5t-59.5 -81t-78.5 -55t-95 -20.5q-45 0 -83 13t-72 30.5t-65.5 31t-64.5 13.5q-35 0 -65.5 -33t-43.5 -64h-131z" />
<glyph unicode="&#xf6;" horiz-adv-x="1257" d="M13.5 319.5q-9.5 100.5 15.5 210.5q25 111 82 211.5t143 177t200.5 122.5t256.5 46q141 0 234 -46t143.5 -122.5t61 -177t-14.5 -211.5t-82.5 -211t-143.5 -176.5t-200.5 -123t-255.5 -46.5t-234.5 46.5t-144.5 123t-60.5 177zM324 1294q0 39 16 70t44 52.5t62.5 32.5 t69.5 11t70 -11t62.5 -32.5t44 -52.5t16.5 -70t-16.5 -69.5t-44 -52t-62.5 -33t-70 -11.5t-69.5 11.5t-62.5 33t-44 52t-16 69.5zM327 416.5q-3 -58.5 14 -105.5t56 -76.5t109 -29.5t123 29.5t91 76.5t63.5 105.5t37.5 113.5q12 57 14.5 114.5t-14 105t-55.5 77t-109 29.5 t-123 -29.5t-92 -77t-63.5 -104.5t-36.5 -115q-12 -55 -15 -113.5zM807 1294q0 39 16.5 70t44 52.5t62.5 32.5t69 11q35 0 70 -11t62.5 -32.5t44 -52.5t16.5 -70t-16.5 -69.5t-44 -52t-62.5 -33t-70 -11.5t-69.5 11.5t-62 33t-44 52t-16.5 69.5z" />
<glyph unicode="&#xf7;" horiz-adv-x="1218" d="M92 614v246h1034v-246h-1034zM434 311q0 74 51.5 125t124.5 51q37 0 69 -13t55.5 -37.5t37.5 -56.5t14 -69q0 -74 -50 -126t-126 -52q-78 0 -127 52.5t-49 125.5zM434 1163q0 74 51.5 126t124.5 52q74 0 125 -52t51 -126t-50 -125t-126 -51t-126 51.5t-50 124.5z" />
<glyph unicode="&#xf8;" horiz-adv-x="1257" d="M-57 8l141 125q-57 78 -69.5 180.5t14.5 216.5q25 111 82 211.5t143 177t200.5 122.5t256.5 46q106 0 186 -28.5t133 -79.5l127 115l47 -56l-123 -110q55 -78 68 -179.5t-14 -218.5q-25 -111 -82.5 -211t-143.5 -176.5t-200.5 -123t-255.5 -46.5q-109 0 -187 29t-131 78 l-143 -129zM329 443q-3 -44 7 -83l471 418q-18 35 -55 56.5t-95 21.5q-70 0 -123 -29.5t-92 -77t-63.5 -105.5t-36.5 -114q-10 -43 -13 -87zM356 281q39 -76 150 -76q70 0 123 29.5t91 76.5t63.5 104.5t37.5 114.5q20 86 6 166z" />
<glyph unicode="&#xf9;" horiz-adv-x="1251" d="M2 825l184 244q74 0 129.5 -13.5t89 -45t43 -87t-11.5 -141.5l-65 -278q-12 -49 -17.5 -99.5t4 -89.5t40 -63.5t91.5 -24.5q57 0 104.5 21.5t81.5 58.5t57.5 84t35.5 101l131 569h315l-155 -678q-18 -84 2 -115.5t92 -31.5l-184 -246q-129 0 -189.5 47t-64.5 141 q-82 -109 -186.5 -157t-227.5 -48q-166 0 -243.5 99.5t-39.5 267.5l66 285q10 45 16 81.5t0 63.5t-28.5 41t-69.5 14zM477 1466h334l150 -303h-220z" />
<glyph unicode="&#xfa;" horiz-adv-x="1251" d="M2 825l184 244q74 0 129.5 -13.5t89 -45t43 -87t-11.5 -141.5l-65 -278q-12 -49 -17.5 -99.5t4 -89.5t40 -63.5t91.5 -24.5q57 0 104.5 21.5t81.5 58.5t57.5 84t35.5 101l131 569h315l-155 -678q-18 -84 2 -115.5t92 -31.5l-184 -246q-129 0 -189.5 47t-64.5 141 q-82 -109 -186.5 -157t-227.5 -48q-166 0 -243.5 99.5t-39.5 267.5l66 285q10 45 16 81.5t0 63.5t-28.5 41t-69.5 14zM467 1163l289 303h336l-410 -303h-215z" />
<glyph unicode="&#xfb;" horiz-adv-x="1251" d="M2 825l184 244q74 0 129.5 -13.5t89 -45t43 -87t-11.5 -141.5l-65 -278q-12 -49 -17.5 -99.5t4 -89.5t40 -63.5t91.5 -24.5q57 0 104.5 21.5t81.5 58.5t57.5 84t35.5 101l131 569h315l-155 -678q-18 -84 2 -115.5t92 -31.5l-184 -246q-129 0 -189.5 47t-64.5 141 q-82 -109 -186.5 -157t-227.5 -48q-166 0 -243.5 99.5t-39.5 267.5l66 285q10 45 16 81.5t0 63.5t-28.5 41t-69.5 14zM344 1165l313 301h261l176 -301h-236l-98 181l-178 -181h-238z" />
<glyph unicode="&#xfc;" horiz-adv-x="1251" d="M2 825l184 244q74 0 129.5 -13.5t89 -45t43 -87t-11.5 -141.5l-65 -278q-12 -49 -17.5 -99.5t4 -89.5t40 -63.5t91.5 -24.5q57 0 104.5 21.5t81.5 58.5t57.5 84t35.5 101l131 569h315l-155 -678q-18 -84 2 -115.5t92 -31.5l-184 -246q-129 0 -189.5 47t-64.5 141 q-82 -109 -186.5 -157t-227.5 -48q-166 0 -243.5 99.5t-39.5 267.5l66 285q10 45 16 81.5t0 63.5t-28.5 41t-69.5 14zM330 1294q0 39 16 70t44 52.5t62.5 32.5t69.5 11t70 -11t61.5 -32.5t43 -52.5t16.5 -70t-16.5 -69.5t-43 -52t-61.5 -33t-70 -11.5t-69.5 11.5t-62.5 33 t-44 52t-16 69.5zM813 1294q0 39 16.5 70t43 52.5t61.5 32.5t70 11t69.5 -11t62 -32.5t44 -52.5t16.5 -70t-16.5 -69.5t-44 -52t-62.5 -33t-69 -11.5q-35 0 -70 11.5t-61.5 33t-43 52t-16.5 69.5z" />
<glyph unicode="&#xfd;" horiz-adv-x="1251" d="M-96 -109h311q-2 -35 10.5 -63.5t34 -49t51 -32.5t64.5 -12q61 0 108 24.5t82 64.5t57.5 89t34.5 98l33 142q-84 -96 -178 -137.5t-211 -41.5q-84 0 -145.5 26t-98.5 74t-47 114.5t8 150.5l78 340q20 86 -2 115.5t-92 29.5l184 246q57 0 111.5 -9t93.5 -39t53.5 -86 t-8.5 -153l-74 -313q-12 -47 -14 -91t10.5 -78t44 -53.5t86.5 -19.5q57 0 104.5 21.5t81.5 57.5t57.5 83t35.5 100l131 572h315l-237 -1032v2q-20 -86 -60 -173t-113 -157t-185.5 -114t-278.5 -44q-90 0 -175 15.5t-147.5 55.5t-94.5 107.5t-19 169.5zM481 1174l291 303h336 l-410 -303h-217z" />
<glyph unicode="&#xfe;" horiz-adv-x="1374" d="M-100.5 -297q-14.5 57 8.5 154l285 1235q20 86 -2.5 116.5t-92.5 30.5l185 244q57 0 111.5 -9.5t92 -39t52 -86t-8.5 -152.5l-49 -213q74 53 163 78.5t181 25.5q121 0 213 -41.5t148.5 -116.5t74 -178.5t-11.5 -226.5q-29 -121 -93 -222t-154.5 -174t-200 -114 t-228.5 -41q-98 0 -173.5 30t-125.5 83l-28 -125q-20 -86 2 -116.5t92 -30.5l-184 -246q-57 0 -111.5 9t-92.5 39t-52.5 87zM348 408q-12 -49 4.5 -86t49 -64t76.5 -40t87 -13q156 0 245 86t124 233q16 72 15 132.5t-26.5 105.5t-77.5 69.5t-136 24.5q-37 0 -84 -12.5 t-91.5 -36t-79 -56t-42.5 -73.5z" />
<glyph unicode="&#xff;" horiz-adv-x="1251" d="M-96 -109h311q-2 -35 10.5 -63.5t34 -49t51 -32.5t64.5 -12q61 0 108 24.5t82 64.5t57.5 89t34.5 98l33 142q-84 -96 -178 -137.5t-211 -41.5q-84 0 -145.5 26t-98.5 74t-47 114.5t8 150.5l78 340q20 86 -2 115.5t-92 29.5l184 246q57 0 111.5 -9t93.5 -39t53.5 -86 t-8.5 -153l-74 -313q-12 -47 -14 -91t10.5 -78t44 -53.5t86.5 -19.5q57 0 104.5 21.5t81.5 57.5t57.5 83t35.5 100l131 572h315l-237 -1032v2q-20 -86 -60 -173t-113 -157t-185.5 -114t-278.5 -44q-90 0 -175 15.5t-147.5 55.5t-94.5 107.5t-19 169.5zM330 1305 q0 39 16 69.5t44 52t62.5 34t69.5 12.5t70 -12.5t62.5 -34t44 -52t16.5 -69.5q0 -37 -16.5 -68t-44 -52.5t-62.5 -33.5t-70 -12t-69.5 12t-62.5 33.5t-44 52.5t-16 68zM813 1305q0 39 16.5 69.5t44 52t61.5 34t69 12.5t69.5 -12.5t62 -34t44 -52t16.5 -69.5q0 -37 -16.5 -68 t-44 -52.5t-62.5 -33.5t-69 -12q-35 0 -69 12t-61.5 33.5t-44 52.5t-16.5 68z" />
<glyph unicode="&#x152;" horiz-adv-x="2232" d="M55.5 431q-16.5 140 20.5 302q39 166 121 308.5t199.5 246t266 162.5t320.5 59q98 0 186 -29.5t142 -82.5l16 78h981l-67 -291h-662l-72 -312h596l-61 -270h-598l-72 -311h682l-67 -291h-1000l27 115q-82 -68 -181.5 -109t-214.5 -41q-170 0 -289.5 59.5t-188 163 t-85 243.5zM403.5 563q-0.5 -86 26.5 -156.5t86 -114.5t160 -44q74 0 136 25.5t111.5 69.5t86.5 103.5t63 126.5l90 383q12 123 -61.5 197t-194.5 74q-102 0 -182 -45t-140.5 -116t-100.5 -158t-60 -173t-20.5 -172z" />
<glyph unicode="&#x153;" horiz-adv-x="2009" d="M13.5 319.5q-9.5 100.5 15.5 210.5q25 111 82 211.5t143 177t200.5 122.5t256.5 46q139 0 227 -52t131 -134q86 86 195.5 135t238.5 49q96 0 179 -25.5t140.5 -75.5t84 -127t12.5 -179l-803 -270q-4 -84 37 -143.5t145 -59.5q90 0 160 58.5t98 144.5h302 q-37 -104 -100.5 -185.5t-144.5 -136.5t-176.5 -84t-197.5 -29q-125 0 -211 49.5t-133 131.5q-82 -80 -192.5 -130.5t-249.5 -50.5q-141 0 -234.5 46.5t-144.5 123t-60.5 177zM327 416.5q-3 -58.5 14 -105.5t56 -76.5t109 -29.5t123 29.5t91 76.5t63.5 104.5t37.5 114.5 q12 55 14.5 113.5t-14 106t-55.5 77t-109 29.5t-123 -29.5t-92 -77t-63.5 -104.5t-36.5 -115q-12 -55 -15 -113.5zM1153 590l459 153q-10 53 -51 82t-105 29q-59 0 -107.5 -19.5t-85 -53t-63 -79t-41.5 -94.5q0 -2 -2 -8t-4 -10z" />
<glyph unicode="&#x178;" d="M193 1096l88 379h348l-80 -347q-10 -43 -15.5 -88t2 -81.5t33 -61.5t78.5 -25t90 25t62.5 62.5t40 82.5t24.5 86l80 347h348l-88 -379q-47 -201 -157.5 -319t-282.5 -154l-143 -623h-349l144 623q-313 78 -223 473zM406 1696q0 39 16 69.5t44 52t62.5 33t69.5 11.5 t68.5 -11.5t61.5 -33t44 -52t16 -69.5q0 -37 -16 -68t-44 -52.5t-61.5 -33.5t-68.5 -12t-69.5 12t-62.5 33.5t-44 52.5t-16 68zM887 1696q0 39 16.5 69.5t44 52t62 33t69.5 11.5t70 -11.5t62.5 -33t44 -52t16.5 -69.5q0 -37 -16.5 -68t-44 -52.5t-62.5 -33.5t-70 -12 t-69.5 12t-62 33.5t-44 52.5t-16.5 68z" />
<glyph unicode="&#x2c6;" horiz-adv-x="0" d="M354 1165l312 301h260l176 -301h-236l-98 181l-178 -181h-236z" />
<glyph unicode="&#x2dc;" horiz-adv-x="0" d="M360 1171q8 41 31 86.5t56.5 84t78.5 63.5t103 25q43 0 84 -14.5t75.5 -32t64.5 -32t52 -14.5q78 0 117 97h135q-14 -51 -38.5 -97.5t-58.5 -81t-78 -55t-95 -20.5q-45 0 -83 13t-72 30.5t-65.5 31t-64.5 13.5q-35 0 -66.5 -33t-41.5 -64h-134z" />
<glyph unicode="&#x2000;" horiz-adv-x="981" />
<glyph unicode="&#x2001;" horiz-adv-x="1962" />
<glyph unicode="&#x2002;" horiz-adv-x="981" />
<glyph unicode="&#x2003;" horiz-adv-x="1962" />
<glyph unicode="&#x2004;" horiz-adv-x="654" />
<glyph unicode="&#x2005;" horiz-adv-x="490" />
<glyph unicode="&#x2006;" horiz-adv-x="327" />
<glyph unicode="&#x2007;" horiz-adv-x="327" />
<glyph unicode="&#x2008;" horiz-adv-x="245" />
<glyph unicode="&#x2009;" horiz-adv-x="392" />
<glyph unicode="&#x200a;" horiz-adv-x="109" />
<glyph unicode="&#x2010;" horiz-adv-x="755" d="M18 416l60 262h571l-61 -262h-570z" />
<glyph unicode="&#x2011;" horiz-adv-x="755" d="M18 416l60 262h571l-61 -262h-570z" />
<glyph unicode="&#x2012;" horiz-adv-x="755" d="M18 416l60 262h571l-61 -262h-570z" />
<glyph unicode="&#x2013;" horiz-adv-x="1208" d="M18 420l60 254h1024l-60 -252z" />
<glyph unicode="&#x2014;" horiz-adv-x="2232" d="M18 420l60 254h2048l-60 -252z" />
<glyph unicode="&#x2018;" horiz-adv-x="561" d="M147 1376l242 123l209 -604l-242 -123z" />
<glyph unicode="&#x2019;" horiz-adv-x="561" d="M37 895l487 604l185 -123l-488 -604z" />
<glyph unicode="&#x201a;" horiz-adv-x="561" d="M-225 -242l487 604l184 -122l-487 -605z" />
<glyph unicode="&#x201c;" horiz-adv-x="956" d="M147 1376l242 123l209 -604l-242 -123zM543 1376l239 123l209 -604l-239 -123z" />
<glyph unicode="&#x201d;" horiz-adv-x="956" d="M37 895l487 604l185 -123l-488 -604zM430 895l490 604l184 -123l-490 -604z" />
<glyph unicode="&#x201e;" horiz-adv-x="958" d="M-225 -242l487 604l184 -122l-487 -605zM172 -242l487 604l185 -122l-488 -605z" />
<glyph unicode="&#x2022;" horiz-adv-x="790" d="M76 737q0 68 24.5 126.5t67.5 101.5t101.5 67.5t125.5 24.5q66 0 124.5 -24.5t101.5 -67.5t68.5 -101.5t25.5 -126.5t-25.5 -126t-68.5 -101t-101.5 -68.5t-124.5 -25.5q-68 0 -126 25.5t-101 68.5t-67.5 101.5t-24.5 125.5z" />
<glyph unicode="&#x2026;" horiz-adv-x="2048" d="M14 147q8 39 33 70t56.5 52.5t68.5 32.5t72 11t66.5 -11t54 -32.5t31.5 -52.5t1 -70q-8 -37 -31.5 -67.5t-56.5 -52t-69.5 -33.5t-71.5 -12q-72 0 -121 45t-33 120zM696 147q8 39 33 70t56.5 52.5t68.5 32.5t72 11t66.5 -11t54 -32.5t31.5 -52.5t1 -70 q-8 -37 -31.5 -67.5t-56.5 -52t-69.5 -33.5t-71.5 -12q-72 0 -121 45t-33 120zM1378 147q8 39 33 70t56.5 52.5t68.5 32.5t72 11t66.5 -11t54 -32.5t31.5 -52.5t1 -70q-8 -37 -31.5 -67.5t-56.5 -52t-69.5 -33.5t-71.5 -12q-72 0 -121 45t-33 120z" />
<glyph unicode="&#x202f;" horiz-adv-x="392" />
<glyph unicode="&#x2039;" horiz-adv-x="487" d="M59 598l66 279l364 270l-59 -254l-197 -156l127 -149l-59 -260z" />
<glyph unicode="&#x203a;" horiz-adv-x="487" d="M-2 328l59 254l197 155l-127 150l59 260l242 -270l-66 -279z" />
<glyph unicode="&#x205f;" horiz-adv-x="490" />
<glyph unicode="&#x2122;" horiz-adv-x="1828" d="M76 1309q0 31 5 60.5t20.5 53t46 38t79.5 14.5h533v-164h-244v-647h-197v647h-38q-43 0 -58.5 -15.5t-15.5 -52.5zM793 664v557q0 137 72.5 204.5t207.5 67.5q53 0 100.5 -13.5t81.5 -41.5q37 29 83 42t100 13q137 0 208.5 -67.5t71.5 -204.5v-557h-194v538q0 23 -3 47.5 t-12.5 44t-26 32.5t-44.5 13q-29 0 -45.5 -13t-24.5 -32.5t-11 -44t-3 -47.5v-538h-195v538q0 25 -3 48.5t-12 44t-25.5 32.5t-45.5 12t-45 -13t-24.5 -32.5t-11.5 -44t-3 -47.5v-538h-196z" />
<glyph unicode="&#x25fc;" horiz-adv-x="1085" d="M0 0v1085h1085v-1085h-1085z" />
<glyph unicode="&#xfb01;" horiz-adv-x="1071" d="M-231 -186q70 0 106.5 30.5t56.5 116.5l203 881h-110l45 196h110l41 181q20 96 61.5 153.5t93.5 87t111.5 38.5t116.5 9q59 0 112.5 -5t104.5 -5l-55 -242q-41 6 -90 7q-35 0 -60.5 -4.5t-44 -18.5t-32 -38.5t-23.5 -67.5l-16 -72h534l-155 -678q-20 -86 2 -116.5 t94 -30.5l-187 -246q-57 0 -111 9t-92 39t-52.5 87t8.5 154l129 563h-221l-228 -985q-23 -96 -63.5 -153.5t-92 -87.5t-109.5 -39t-116 -9z" />
<glyph unicode="&#xfb02;" horiz-adv-x="1071" d="M-231 -186q70 0 106.5 30.5t56.5 116.5l203 881h-110l45 196h110l41 181q20 96 61.5 153.5t93.5 87t111.5 38.5t116.5 9q53 0 105.5 -13t101.5 -13q90 -2 160 -2h159l-251 -1096q-20 -86 2 -116.5t94 -30.5l-187 -246q-57 0 -111 9t-92 39t-52.5 87t8.5 154l225 976 q-41 6 -90 7q-70 0 -105.5 -28t-56.5 -112l-14 -61h110l-51 -219h-110l-228 -985q-23 -96 -63.5 -153.5t-92 -87.5t-109.5 -39t-116 -9z" />
</font>
</defs>
</svg>
