<?xml version="1.0" standalone="no"?>
<!DOCTYPE svg PUBLIC "-//W3C//DTD SVG 1.1//EN" "http://www.w3.org/Graphics/SVG/1.1/DTD/svg11.dtd" >
<svg xmlns="http://www.w3.org/2000/svg" xmlns:xlink="http://www.w3.org/1999/xlink" version="1.1">
<metadata></metadata>
<defs>
<font id="clementepdaksemibold" horiz-adv-x="1196" >
<font-face units-per-em="2048" ascent="1638" descent="-410" />
<missing-glyph horiz-adv-x="641" />
<glyph horiz-adv-x="0" />
<glyph unicode="&#xd;" horiz-adv-x="0" />
<glyph unicode=" "  horiz-adv-x="641" />
<glyph unicode="&#x09;" horiz-adv-x="641" />
<glyph unicode="&#xa0;" horiz-adv-x="641" />
<glyph unicode="!" horiz-adv-x="489" d="M76 123q0 33 14 60.5t39 47t55.5 29.5t61.5 10t60.5 -10t54 -29.5t39 -47t14.5 -60.5q0 -35 -14.5 -61.5t-39 -46t-54.5 -30t-60 -10.5q-31 0 -61.5 10.5t-55.5 30t-39 46t-14 61.5zM86 1475h315l-86 -1123h-141z" />
<glyph unicode="&#x22;" horiz-adv-x="753" d="M111 817v658h211v-658h-211zM432 817v658h211v-658h-211z" />
<glyph unicode="#" horiz-adv-x="1075" d="M0 463l23 164h221l30 221h-221l25 164h219l65 463h168l-63 -463h219l66 463h168l-66 -463h221l-24 -164h-220l-30 -221h219l-23 -164h-219l-65 -463h-168l63 463h-219l-65 -463h-168l65 463h-221zM412 627h221l31 221h-222z" />
<glyph unicode="$" horiz-adv-x="1064" d="M45 561h258q2 -109 69.5 -158t172.5 -49q33 0 70.5 7.5t69.5 24.5t52.5 44t20.5 68t-17.5 66.5t-51.5 44t-85 30.5t-121 27q-96 18 -171.5 42.5t-128 60.5t-80 88t-27.5 126q0 68 27.5 122t76.5 92t118 61.5t148 29.5v187h164v-187q76 -6 143.5 -26.5t120 -60.5 t83 -100.5t32.5 -144.5h-246q-4 92 -65.5 136.5t-147.5 44.5q-55 0 -93 -13.5t-60.5 -33t-32.5 -44t-10 -45.5q0 -49 47 -79.5t111.5 -50t132 -31t106.5 -23.5q55 -16 106.5 -37.5t91.5 -54.5t64.5 -81t24.5 -118q0 -88 -35 -150.5t-91 -102.5t-130 -60t-152 -27v-186h-164 v188q-86 8 -158.5 34t-125.5 71t-84 111.5t-33 156.5z" />
<glyph unicode="%" horiz-adv-x="1585" d="M76 1098q0 82 20.5 151.5t63.5 119.5t107.5 78t150.5 28h809v-127l-785 -1348h-159l786 1348h-389q41 -45 61.5 -107.5t20.5 -140.5q0 -80 -20.5 -148.5t-63.5 -119t-107.5 -79t-152.5 -28.5q-90 0 -154.5 28.5t-105.5 79t-61.5 119t-20.5 146.5zM258 1098q0 -45 7 -89 t25.5 -79t49.5 -56.5t78 -21.5t78.5 21.5t50 56.5t26 79t7.5 89q0 49 -7.5 94t-26 80t-49 55.5t-79.5 20.5t-80 -21.5t-48.5 -56.5t-24.5 -80t-7 -92zM823 348q0 82 20.5 151.5t62.5 120t106.5 78t152.5 27.5t152.5 -27.5t107.5 -78t63.5 -120t20.5 -151.5v2 q0 -80 -20.5 -148.5t-63.5 -118.5t-107.5 -79t-152.5 -29q-90 0 -154.5 29t-105.5 79t-61.5 118.5t-20.5 146.5zM1004 348q0 -45 7 -89t25.5 -79t50 -56.5t78.5 -21.5t79 21.5t50.5 56.5t25.5 79t7 89q0 49 -7 94t-25.5 80t-49.5 55.5t-80 20.5t-79.5 -21.5t-49 -56.5 t-25.5 -80t-7 -92z" />
<glyph unicode="&#x26;" horiz-adv-x="1615" d="M37 428q0 59 17.5 121.5t52 115t85 87t117.5 41.5q-66 8 -109.5 42.5t-71.5 83t-40 103.5t-12 102q0 96 48 167t123 117t165 68.5t172 22.5q119 0 219 -30.5t173 -92t115 -155t42 -217.5h-256q2 66 -17.5 118t-58.5 88.5t-92.5 57t-116.5 20.5q-47 0 -94 -12t-86 -39 t-62.5 -65.5t-23.5 -92.5q0 -55 22.5 -95t59 -66.5t84 -39t96.5 -12.5h41v-178h-41q-115 0 -192 -58.5t-77 -180.5q0 -61 34 -109.5t86.5 -80.5t114.5 -49t122 -17q80 0 152.5 23.5t127 66.5t85 105.5t28.5 139.5h-59q-84 0 -111 -31.5t-27 -88.5l-184 94q0 47 8.5 93t35 83 t73.5 59.5t127 22.5h362q84 0 111 30.5t27 90.5l184 -95q0 -49 -8.5 -95t-34 -82t-73.5 -58.5t-128 -22.5h-45q12 -145 -36 -249.5t-140 -172t-218 -99.5t-267 -32q-117 0 -230.5 28t-202 83t-142.5 140t-54 202z" />
<glyph unicode="'" horiz-adv-x="432" d="M111 817v658h211v-658h-211z" />
<glyph unicode="(" horiz-adv-x="536" d="M76 526q0 250 57 487.5t170 461.5h234q-102 -231 -152.5 -463t-50.5 -486t51 -485t154 -463h-236q-57 117 -99 230.5t-71 229.5t-43 236.5t-14 251.5z" />
<glyph unicode=")" horiz-adv-x="536" d="M0 -422q104 231 154.5 463.5t50.5 484.5q0 254 -52.5 485.5t-152.5 463.5h233q57 -117 100.5 -231t72 -229.5t43 -236.5t14.5 -252q0 -250 -57.5 -487.5t-169.5 -460.5h-236z" />
<glyph unicode="*" horiz-adv-x="768" d="M0 1130l55 168l258 -100l-18 277h178l-16 -277l256 100l55 -168l-268 -69l176 -213l-144 -105l-147 234l-149 -234l-144 105l176 213z" />
<glyph unicode="+" horiz-adv-x="1218" d="M92 631v213h412v411h211v-411h411v-213h-411v-412h-211v412h-412z" />
<glyph unicode="," horiz-adv-x="512" d="M0 -233l330 569l182 -105l-330 -571z" />
<glyph unicode="-" horiz-adv-x="718" d="M92 434v225h535v-225h-535z" />
<glyph unicode="." horiz-adv-x="489" d="M76 123q0 33 14 60.5t39 47t55.5 29.5t61.5 10t60.5 -10t54 -29.5t39 -47t14.5 -60.5q0 -35 -14.5 -61.5t-39 -46t-54.5 -30t-60 -10.5q-31 0 -61.5 10.5t-55.5 30t-39 46t-14 61.5z" />
<glyph unicode="/" horiz-adv-x="796" d="M0 0l586 1475h211l-586 -1475h-211z" />
<glyph unicode="0" horiz-adv-x="1396" d="M119 737q0 131 32.5 267.5t102.5 246t178.5 179t261.5 69.5q154 0 262.5 -68.5t179 -178t103.5 -246t33 -269.5t-33 -268t-103.5 -244.5t-179 -179.5t-262.5 -70q-152 0 -261 70t-179 179.5t-102.5 244.5t-32.5 268zM377 737q0 -78 11 -173t45 -179t96.5 -141.5 t164.5 -57.5t165 56.5t96.5 140.5t45 180t11.5 174t-11.5 173.5t-45 179.5t-96 141t-163.5 57q-104 0 -166.5 -56t-96.5 -140t-45 -179.5t-11 -175.5z" />
<glyph unicode="1" horiz-adv-x="1396" d="M197 1200q0 51 8 100.5t35.5 88t79 62.5t135.5 24h399v-1475h-297v1225h-20q-88 0 -116 -31t-28 -94z" />
<glyph unicode="2" horiz-adv-x="1396" d="M111 0q-6 121 44 220t130 181t178 149.5t192 129.5q49 31 98.5 68.5t89.5 80.5t65.5 92.5t25.5 104.5q0 113 -67.5 184.5t-184.5 71.5q-84 0 -139.5 -31.5t-88 -83t-46 -119t-13.5 -137.5h-256q-6 133 29 242t105.5 185.5t174 118.5t236.5 42q104 0 198.5 -26.5t167 -81 t115.5 -137.5t43 -197q0 -82 -26.5 -152.5t-70.5 -132t-103.5 -116t-124.5 -101.5q-115 -82 -222.5 -160t-166.5 -162h471q82 0 110.5 30t26.5 89l182 -94q0 -59 -10 -106.5t-38 -81t-76 -52t-120 -18.5h-929z" />
<glyph unicode="3" horiz-adv-x="1396" d="M125 528h260q-8 -158 73 -246.5t240 -88.5q57 0 108.5 17t90.5 49t60.5 80t21.5 110q0 123 -77 181t-191 58h-41v178h41q49 0 96 12.5t84 39t59.5 66.5t22.5 95q0 53 -23.5 92t-62.5 66t-86 39t-94 12q-63 0 -116.5 -20.5t-92.5 -57t-59.5 -89t-16.5 -117.5h-256 q0 125 42 218t114.5 154.5t173 92t219.5 30.5q82 0 172 -22.5t164.5 -68.5t123 -116.5t48.5 -167.5q0 -47 -12.5 -102t-40 -103.5t-72.5 -83t-109 -42.5q68 -6 119 -41t85 -87.5t51.5 -115t17.5 -121.5q0 -113 -48.5 -198t-126 -141t-176 -85t-200.5 -29q-127 0 -239 34 t-192.5 103.5t-123.5 173t-31 242.5z" />
<glyph unicode="4" horiz-adv-x="1396" d="M63 375v258l670 842h273v-869h32q84 0 111 31t27 90l184 -94q0 -49 -8.5 -95t-35 -82t-73.5 -58.5t-127 -22.5h-108v-375h-283v375h-662zM258 606h467v602z" />
<glyph unicode="5" horiz-adv-x="1396" d="M78 442h268q10 -129 95 -189t208 -60q63 0 118.5 20t95.5 57t63.5 90.5t23.5 118.5q0 133 -81 211t-212 78q-86 0 -158.5 -30.5t-117.5 -106.5h-258l164 844h782q135 0 189.5 -66t54.5 -192l-185 -95q2 72 -33.5 95.5t-103.5 23.5h-495l-90 -418q66 68 157.5 99.5 t186.5 31.5q111 0 197.5 -34.5t147 -98t93.5 -152.5t33 -198q0 -125 -47.5 -218t-127 -154.5t-185 -92.5t-220.5 -31q-104 0 -207.5 28t-185.5 85t-129 145.5t-41 208.5z" />
<glyph unicode="6" horiz-adv-x="1396" d="M127 688q0 150 31.5 296t105.5 260t192.5 184.5t293.5 70.5q80 0 160.5 -16.5t150.5 -57.5l-150 -168q-39 25 -81 33t-87 8q-100 0 -166.5 -47t-107.5 -118.5t-60.5 -158.5t-23.5 -169q0 -4 -1 -16.5t-1 -16.5q63 111 168.5 166t234.5 55q106 0 197.5 -35.5t158 -100 t104.5 -154t38 -195.5q0 -127 -43 -225.5t-120 -167t-180 -104.5t-224 -36q-154 0 -272.5 60.5t-192.5 165.5q-70 100 -97.5 226t-27.5 261zM410 504q0 -66 23.5 -122t64.5 -97t97 -65.5t122 -24.5t123 23.5t100 64.5t67.5 98t24.5 123t-25.5 122t-68.5 97t-100.5 63.5 t-120.5 22.5q-66 0 -121 -23.5t-97 -64.5t-65.5 -97.5t-23.5 -119.5z" />
<glyph unicode="7" horiz-adv-x="1396" d="M137 1217q0 47 8.5 93t35 83t73.5 59.5t127 22.5h829v-234l-397 -1241h-305l397 1241h-446q-84 0 -110.5 -30.5t-26.5 -88.5z" />
<glyph unicode="8" horiz-adv-x="1396" d="M135 436q0 147 80 241.5t219 125.5q-111 35 -165 118t-54 195q0 100 43 172t111.5 119t154.5 69.5t172 22.5t173 -22.5t158 -70.5t115 -120t44 -170q0 -53 -15.5 -103t-43 -92t-69.5 -73t-93 -45q68 -12 122 -45t93 -82t60.5 -110.5t21.5 -129.5q0 -117 -49.5 -203 t-129 -143t-180 -86t-205.5 -29q-106 0 -207.5 28t-180.5 84t-127 143t-48 206zM403 438q0 -61 25 -108t66 -80t94 -49.5t108 -16.5t108.5 17.5t95.5 49.5t66.5 79t24.5 108q0 63 -22.5 113.5t-62.5 85.5t-92 53.5t-114 18.5q-61 0 -115.5 -18.5t-94 -52.5t-63.5 -85 t-24 -115zM459 1090q0 -49 19.5 -88t52 -66t75.5 -41t90 -14t91 13t79 40t55.5 66t20.5 90q0 111 -71.5 164t-172.5 53q-100 0 -169.5 -54.5t-69.5 -162.5z" />
<glyph unicode="9" horiz-adv-x="1396" d="M115 967q0 125 43 224t118.5 167.5t180 104.5t225.5 36q152 0 270.5 -60.5t194.5 -166.5q70 -98 97.5 -224.5t27.5 -261.5q0 -152 -32 -297t-105.5 -258.5t-192.5 -184.5t-293 -71q-82 0 -161.5 16.5t-149.5 57.5l149 168q37 -25 80 -33t88 -8q98 0 165 46t109 119 t61.5 160t23.5 169v16t2 16q-66 -111 -170.5 -166t-235.5 -55q-104 0 -195 36t-158 100.5t-104.5 153.5t-37.5 196zM365 971q0 -66 25.5 -122t68.5 -97t100 -63.5t123 -22.5q63 0 119.5 23.5t97.5 64.5t65.5 96t24.5 121q0 63 -23.5 120.5t-64.5 98.5t-97 65.5t-122 24.5 t-123 -23.5t-100 -65.5t-68.5 -98.5t-25.5 -121.5z" />
<glyph unicode=":" horiz-adv-x="489" d="M76 123q0 33 14 60.5t39 47t55.5 29.5t61.5 10t60.5 -10t54 -29.5t39 -47t14.5 -60.5q0 -35 -14.5 -61.5t-39 -46t-54.5 -30t-60 -10.5q-31 0 -61.5 10.5t-55.5 30t-39 46t-14 61.5zM76 936q0 33 14 60.5t39 47t55.5 29.5t61.5 10t60.5 -10t54 -29.5t39 -47t14.5 -60.5 q0 -35 -14.5 -61.5t-39 -46t-54.5 -30t-60 -10.5q-31 0 -61.5 10.5t-55.5 30t-39 46t-14 61.5z" />
<glyph unicode=";" horiz-adv-x="489" d="M0 -233l330 569l182 -105l-330 -571zM76 936q0 33 14 60.5t39 47t55.5 29.5t61.5 10t60.5 -10t54 -29.5t39 -47t14.5 -60.5q0 -35 -14.5 -61.5t-39 -46t-54.5 -30t-60 -10.5q-31 0 -61.5 10.5t-55.5 30t-39 46t-14 61.5z" />
<glyph unicode="&#x3c;" horiz-adv-x="1220" d="M92 647v180l1036 445v-223l-725 -312l725 -311v-223z" />
<glyph unicode="=" horiz-adv-x="1218" d="M92 403v211h1034v-211h-1034zM92 860v211h1034v-211h-1034z" />
<glyph unicode="&#x3e;" horiz-adv-x="1220" d="M92 203v223l725 311l-725 312v223l1036 -445v-180z" />
<glyph unicode="?" horiz-adv-x="1165" d="M76 987q2 100 32.5 192.5t95 163t162 112.5t232.5 42q125 0 217 -33.5t152.5 -89t91.5 -125t31 -143.5q2 -88 -23 -146.5t-61.5 -98.5t-80.5 -67.5t-83 -54.5q-45 -31 -74 -58.5t-46 -58t-23.5 -68.5t-6.5 -87v-143h-252v143q0 45 4.5 96t20.5 102.5t49 100.5t92 90 q18 12 51 30.5t65 46.5t55.5 65.5t23.5 88.5q0 86 -57.5 131.5t-153.5 45.5q-121 0 -179.5 -80t-52.5 -197h-282zM397 123q0 33 14.5 60.5t39 47t55.5 29.5t61 10q31 0 60.5 -10t54.5 -29.5t39 -47t14 -60.5q0 -35 -14 -61.5t-39 -46t-54.5 -30t-60.5 -10.5t-61.5 10.5 t-55 30t-39 46t-14.5 61.5z" />
<glyph unicode="@" horiz-adv-x="1648" d="M76 739q0 172 59.5 311.5t165 240t249.5 154.5t312 54q139 0 267 -40t226.5 -117.5t158 -193t59.5 -265.5q0 -156 -62 -281q-39 -78 -103.5 -145.5t-150.5 -114.5q-43 -23 -92 -40t-96 -17q-43 0 -78 22.5t-43 65.5q0 6 -1 12t-1 14q-41 -61 -102.5 -87.5t-132.5 -26.5 q-74 0 -133.5 27.5t-102.5 74.5t-65.5 109.5t-22.5 134.5q0 96 32 190t92 170t144 122t189 46q80 0 151.5 -34.5t112.5 -108.5l33 106h137l-135 -460q-12 -41 -21.5 -83t-9.5 -83q0 -25 11.5 -44.5t39.5 -19.5q29 0 54.5 11.5t48.5 27.5q41 31 70.5 74t49 92t28.5 102.5 t9 104.5q0 125 -44 220t-120.5 159.5t-179 96.5t-221.5 32q-131 0 -246.5 -46t-201.5 -127t-135.5 -194t-49.5 -246q0 -137 47 -250.5t130 -194.5t199 -126t251 -45q141 0 266 48t223 148h162q-111 -172 -279.5 -258t-371.5 -86q-168 0 -310.5 55.5t-245.5 157t-161.5 241.5 t-58.5 310zM575 651q0 -39 13.5 -74.5t37 -62.5t56.5 -42t74 -15q152 0 221 137q16 45 38 108.5t40 118.5q-10 78 -64.5 123t-132.5 45q-61 0 -113.5 -31.5t-90.5 -81t-58.5 -109.5t-20.5 -116z" />
<glyph unicode="A" d="M111 0v1030q0 242 124.5 360.5t362.5 118.5q244 0 365.5 -121.5t121.5 -357.5v-1030h-297v621h-380v-621h-297zM408 854h380v141q0 51 -7 101.5t-27.5 90.5t-58.5 64.5t-97 24.5q-61 0 -98 -24.5t-57.5 -64.5t-27.5 -90t-7 -102v-141z" />
<glyph unicode="B" d="M111 0v1475h499q88 0 169 -20.5t142.5 -66t98.5 -114t37 -166.5q0 -115 -61.5 -196t-166.5 -115q137 -29 214 -127.5t77 -239.5q0 -106 -42 -187t-110.5 -134.5t-158.5 -81t-188 -27.5h-510zM408 233h147q53 0 102.5 12.5t86 38t58 69t21.5 104.5q0 111 -70.5 163 t-183.5 52h-161v-439zM408 858h133q98 0 166.5 47.5t68.5 149.5q0 98 -66.5 142t-168.5 44h-133v-383z" />
<glyph unicode="C" horiz-adv-x="1513" d="M76 733q0 164 48 306.5t140 247t226.5 163.5t306.5 59q125 0 236.5 -34.5t197.5 -103t140 -170t67 -232.5h-291q-8 68 -40 123t-81 93t-109.5 59.5t-125.5 21.5q-111 0 -190 -47.5t-130 -123t-74.5 -171t-23.5 -191.5q0 -94 23.5 -187t72.5 -168t126 -122t185 -47 q84 0 147.5 27.5t108.5 76.5t72 116t39 144h291q-6 -135 -58.5 -246.5t-139.5 -192.5t-202.5 -125t-251.5 -44q-166 0 -298 59.5t-224 164t-140 244.5t-48 300z" />
<glyph unicode="D" horiz-adv-x="1304" d="M111 0v1475h473q166 0 287.5 -56.5t201.5 -156t118 -233.5t38 -290q0 -174 -48 -311t-140.5 -232.5t-227.5 -145.5t-309 -50h-393zM408 250h86q113 0 194.5 38t136 103.5t81 156.5t26.5 195v-2q0 106 -26.5 195.5t-82 154t-138.5 99.5t-196 35h-81v-975z" />
<glyph unicode="E" d="M111 0v1475h976v-250h-679v-371h614v-233h-614v-371h696v-250h-993z" />
<glyph unicode="F" d="M111 0v1475h976v-250h-679v-371h614v-233h-614v-621h-297z" />
<glyph unicode="G" horiz-adv-x="1548" d="M76 733q0 164 48 306.5t140 247t226.5 163.5t306.5 59q125 0 236.5 -34.5t197.5 -103t140 -170t67 -232.5h-291q-8 68 -40 123t-81 93t-109.5 59.5t-125.5 21.5q-111 0 -190 -47.5t-130 -123t-74.5 -171t-23.5 -191.5q0 -94 23.5 -187t72.5 -168t126 -122t185 -47 q145 0 230.5 82t113.5 209h-336v233h650v-377q0 -90 32.5 -119.5t98.5 -29.5l-109 -211q-96 0 -145 45t-82 143q-74 -100 -186.5 -159.5t-260.5 -59.5q-166 0 -298 59.5t-224 164t-140 244.5t-48 300z" />
<glyph unicode="H" horiz-adv-x="1351" d="M111 0v1475h297v-596h528v596h299v-1475h-297v647h-530v-647h-297z" />
<glyph unicode="I" horiz-adv-x="518" d="M111 0v1475h297v-1475h-297z" />
<glyph unicode="J" d="M111 444v129h268v-104q0 -61 10 -110.5t33.5 -85t63.5 -55t100 -19.5q59 0 98 21.5t62.5 60t32.5 89t9 109.5v746h-266q-86 0 -114.5 -31t-28.5 -94l-197 100q0 51 9.5 100.5t37 88t77.5 62.5t134 24h645v-1004q0 -258 -118.5 -382t-374.5 -124q-127 0 -217 35 t-149.5 98.5t-87 151.5t-27.5 194z" />
<glyph unicode="K" horiz-adv-x="1097" d="M111 0v1475h297v-486l348 486h342l-520 -738l520 -737h-342l-348 485v-485h-297z" />
<glyph unicode="L" d="M111 0v1475h297v-1225h448q88 0 115.5 30.5t27.5 94.5l197 -101q0 -51 -8 -100t-36 -88t-79 -62.5t-135 -23.5h-827z" />
<glyph unicode="M" horiz-adv-x="1873" d="M111 0v1030q0 242 124.5 360.5t362.5 118.5q109 0 195 -32.5t145 -100.5q59 68 144 100.5t194 32.5q240 0 363.5 -118.5t123.5 -360.5v-1030h-297v995q0 51 -7 102.5t-27.5 90.5t-58.5 63.5t-97 24.5q-61 0 -98 -24.5t-57.5 -63.5t-28 -90t-7.5 -103v-995h-297v995 q0 51 -7 102.5t-27.5 90.5t-58.5 63.5t-97 24.5t-97 -24.5t-58.5 -63.5t-27.5 -90t-7 -103v-995h-297z" />
<glyph unicode="N" d="M111 0v1030q0 242 124.5 360.5t362.5 118.5q244 0 365.5 -121.5t121.5 -357.5v-1030h-297v995q0 51 -7 101.5t-27.5 90.5t-58.5 64.5t-97 24.5q-61 0 -98 -24.5t-57.5 -64.5t-27.5 -90t-7 -102v-995h-297z" />
<glyph unicode="O" horiz-adv-x="1583" d="M76 737q0 160 49 301.5t141 246t225.5 164.5t301.5 60t300 -60t224 -164.5t141 -246t49 -301.5t-49 -301t-141 -245.5t-224 -165t-300 -60.5t-301.5 60.5t-225.5 165t-141 246t-49 300.5zM373 737q0 -98 24.5 -192t74.5 -169t130 -121t191 -46t189.5 46t128.5 121 t74.5 169t24.5 192t-24.5 192.5t-74.5 169.5t-129 121t-189 46q-111 0 -191 -46t-130 -121t-74.5 -169t-24.5 -193z" />
<glyph unicode="P" horiz-adv-x="1202" d="M111 0v1475h512q133 0 228 -40t156.5 -104.5t90 -148.5t28.5 -170q0 -119 -39.5 -208t-110.5 -147.5t-169 -88t-215 -29.5h-184v-539h-297zM408 772h135q59 0 113.5 11.5t96.5 38t66.5 70t24.5 109.5q0 63 -20.5 106.5t-58.5 69t-90 37t-116 11.5h-151v-453z" />
<glyph unicode="Q" horiz-adv-x="1583" d="M76 737q0 160 49 301.5t141 246t225.5 164.5t301.5 60t300 -60t224 -164.5t141 -246t49 -301.5q0 -143 -40 -272t-117 -234l110 -110q27 -27 49.5 -47.5t51.5 -22.5q23 -2 43 9.5t43 27.5l24 -217q-41 -31 -86 -53.5t-94 -22.5q-51 0 -96 31t-97 88l-147 168 q-74 -59 -165 -88t-193 -29q-168 0 -301.5 60.5t-225.5 165t-141 246t-49 300.5zM373 737q0 -98 24.5 -192t74.5 -169t130 -121t191 -46q61 0 115.5 20.5t95.5 65.5l-103 108q-25 27 -48.5 47.5t-51.5 22.5q-23 2 -43.5 -9t-42.5 -28l-25 217q39 29 84 51.5t92 24.5h6 q48 0 90 -31q46 -32 101 -88l96 -96q29 51 40 107.5t11 115.5q0 98 -24.5 192.5t-74.5 169.5t-129 121t-189 46q-111 0 -191 -46t-130 -121t-74.5 -169t-24.5 -193z" />
<glyph unicode="R" horiz-adv-x="1208" d="M115 0v1475h551q98 0 183 -24t147.5 -74t99.5 -127t37 -181q0 -127 -66 -228.5t-190 -138.5q70 -18 116.5 -56t75.5 -88t40 -111.5t11 -129.5v-317h-289v266q0 74 -11 134.5t-41.5 101.5t-84 63.5t-135.5 22.5h-147v-588h-297zM412 799h143q49 0 100.5 10t91 36.5 t64.5 70.5t25 110q0 102 -64.5 158.5t-224.5 56.5h-135v-442z" />
<glyph unicode="S" horiz-adv-x="1282" d="M25 492h297q0 -84 26.5 -142.5t73.5 -95.5t112.5 -54.5t143.5 -17.5q49 0 99 12.5t90 38t65.5 67.5t25.5 103q0 59 -26.5 96.5t-76.5 63t-121.5 45t-164.5 43.5q-88 23 -176 49.5t-158.5 70.5t-114.5 112.5t-44 179.5q0 119 48 204t126 139t177 78.5t204 24.5 q115 0 217 -24.5t181 -79.5t126 -145.5t51 -219.5h-280v10q0 61 -22 106q-24 48 -65.5 78t-96 44t-111.5 14q-43 0 -92.5 -9t-90 -30.5t-66.5 -58.5t-26 -92q2 -61 42 -100t103.5 -65t144.5 -44.5t165 -40.5q86 -23 167 -51.5t142.5 -75.5t98 -117t36.5 -176 q0 -129 -52 -218t-137 -144.5t-193.5 -80t-219.5 -24.5q-86 0 -194.5 21.5t-204.5 80t-162.5 161t-66.5 264.5z" />
<glyph unicode="T" d="M0 1200q0 51 8 100.5t36 88t79 62.5t135 24h938v-250h-448v-1225h-297v1225h-111q-88 0 -115.5 -31t-27.5 -94z" />
<glyph unicode="U" d="M111 444v1031h297v-996q0 -51 7 -101t27.5 -90t58.5 -64.5t97 -24.5q61 0 98 24.5t57.5 64.5t27.5 90t7 101v996h297v-1031q0 -242 -124.5 -360.5t-362.5 -118.5q-244 0 -365.5 122t-121.5 357z" />
<glyph unicode="V" horiz-adv-x="1234" d="M0 1475h305l313 -951l314 951h303l-465 -1475h-305z" />
<glyph unicode="W" horiz-adv-x="1873" d="M111 444v1031h297v-996q0 -53 7 -103t27.5 -89t58.5 -63.5t97 -24.5q61 0 98 24.5t57.5 63.5t27.5 89t7 103v996h297v-996q0 -53 7.5 -103t28 -89t58.5 -63.5t97 -24.5t97 24.5t58.5 63.5t27.5 89t7 103v996h297v-1031q0 -242 -125 -360.5t-362 -118.5q-109 0 -195 33 t-145 100q-59 -68 -144 -100.5t-194 -32.5q-240 0 -363.5 119t-123.5 360z" />
<glyph unicode="X" horiz-adv-x="1380" d="M0 0l518 737l-518 738h342l348 -486l348 486h342l-520 -738l520 -737h-342l-348 485l-348 -485h-342z" />
<glyph unicode="Y" d="M111 1100v375h297v-340q0 -51 7 -101.5t27.5 -90.5t58.5 -64.5t97 -24.5q61 0 98 24.5t57.5 64.5t27.5 90t7 102v340h297v-375q0 -199 -86 -313.5t-251 -147.5v-639h-297v639q-340 66 -340 461z" />
<glyph unicode="Z" horiz-adv-x="1263" d="M31 0v242l819 983h-764v250h1149v-226l-821 -999h518q86 0 113.5 30.5t27.5 94.5l197 -101q0 -51 -8.5 -100t-36 -88t-77.5 -62.5t-134 -23.5h-983z" />
<glyph unicode="[" horiz-adv-x="714" d="M111 -422v1897h512v-211h-269v-1475h269v-211h-512z" />
<glyph unicode="\" horiz-adv-x="796" d="M0 1475h209l588 -1475h-211z" />
<glyph unicode="]" horiz-adv-x="714" d="M104 -211h269v1475h-269v211h512v-1897h-512v211z" />
<glyph unicode="^" horiz-adv-x="972" d="M0 659l399 816h172l402 -816h-213l-275 576l-274 -576h-211z" />
<glyph unicode="_" horiz-adv-x="1024" d="M0 -154h1024v-102h-1024v102z" />
<glyph unicode="`" horiz-adv-x="0" d="M360 1464h287l225 -301h-186z" />
<glyph unicode="a" horiz-adv-x="1325" d="M76 520q0 121 39 224.5t110.5 179t172 118.5t223.5 43q96 0 180 -30.5t145 -89.5v94h268v-1059h-268v106q-59 -63 -145 -98t-191 -35q-117 0 -215 41t-168.5 114t-110.5 173t-40 219zM344 520q0 -154 77 -250t241 -96q49 0 99 15.5t92 44t67.5 70.5t25.5 95v287 q0 45 -27.5 82t-68.5 62.5t-89 40t-89 14.5q-90 0 -152.5 -29t-101.5 -78t-56.5 -115.5t-17.5 -142.5z" />
<glyph unicode="b" horiz-adv-x="1325" d="M111 0v1475h268v-510q61 59 145 89.5t181 30.5q123 0 223 -43t171.5 -117.5t110.5 -178t39 -226.5q0 -119 -40 -219t-110.5 -173t-169 -114t-214.5 -41q-104 0 -190.5 35t-145.5 98v-106h-268zM379 399q0 -53 25.5 -95t67.5 -70.5t92 -44t100 -15.5q164 0 240.5 96 t76.5 250q0 76 -17.5 142.5t-56.5 115.5t-101.5 78t-152.5 29q-41 0 -89 -14.5t-89 -40t-68.5 -61.5t-27.5 -81v-289z" />
<glyph unicode="c" horiz-adv-x="1187" d="M76 520q0 121 39 224.5t109.5 179t172 118.5t224.5 43q92 0 177 -24.5t151.5 -74.5t109.5 -125t53 -175h-256q-12 96 -74.5 147.5t-156.5 51.5q-80 0 -134.5 -31t-87 -82t-46 -116.5t-13.5 -135.5q0 -66 14.5 -128t46 -110.5t84 -78t127.5 -29.5q98 0 164 63.5t76 161.5 h256q-12 -102 -55 -181t-108.5 -133t-151.5 -83t-187 -29q-119 0 -217 42t-168.5 115t-109.5 173t-39 217z" />
<glyph unicode="d" horiz-adv-x="1325" d="M76 520q0 121 39 224.5t110.5 179t172 118.5t223.5 43q96 0 180 -30.5t145 -89.5v510h268v-1475h-268v106q-59 -63 -145 -98t-191 -35q-117 0 -215 41t-168.5 114t-110.5 173t-40 219zM344 520q0 -154 77 -250t241 -96q49 0 99 15.5t92 44t67.5 70.5t25.5 95v287 q0 45 -27.5 82t-68.5 62.5t-89 40t-89 14.5q-90 0 -152.5 -29t-101.5 -78t-56.5 -115.5t-17.5 -142.5z" />
<glyph unicode="e" horiz-adv-x="1187" d="M76 520q0 121 39 224.5t109.5 179t172 118.5t224.5 43q92 0 177 -24.5t151.5 -74.5t109.5 -125t53 -173l-758 -276q16 -98 79 -168t183 -70q98 0 164 63.5t76 161.5h256q-12 -102 -55 -181t-108.5 -133t-151.5 -83t-187 -29q-119 0 -217 42t-168.5 115t-109.5 173 t-39 217zM350 569l486 179q-23 66 -78.5 101.5t-132.5 35.5q-70 0 -120 -23.5t-83 -63.5t-50.5 -93.5t-21.5 -112.5v-23z" />
<glyph unicode="f" horiz-adv-x="489" d="M0 870v170h111v193q0 88 25.5 142.5t66.5 83t93 37.5t105 9q59 0 106.5 -4t94.5 -6v-207q-37 6 -92 6q-66 0 -98.5 -27.5t-32.5 -115.5v-92h110v-189h-110v-870h-268v870h-111z" />
<glyph unicode="g" horiz-adv-x="1318" d="M76 520q0 121 39 224.5t110.5 179t172 118.5t223.5 43q96 0 180 -30.5t145 -89.5v94h268v-1041q0 -90 -21.5 -175t-78.5 -151.5t-155.5 -107.5t-253.5 -41q-90 0 -175.5 16.5t-154 56.5t-113.5 106.5t-55 166.5h266q12 -84 77.5 -132t145.5 -48q66 0 113 24.5t78 65.5 t45 94.5t14 110.5v102q-59 -63 -145 -98t-191 -35q-117 0 -215 41t-168.5 114t-110.5 173t-40 219zM344 520q0 -154 77 -250t241 -96q49 0 99 15.5t92 44t67.5 70.5t25.5 95v287q0 45 -27.5 82t-68.5 62.5t-89 40t-89 14.5q-90 0 -152.5 -29t-101.5 -78t-56.5 -115.5 t-17.5 -142.5z" />
<glyph unicode="h" horiz-adv-x="1212" d="M111 0v1475h268v-586q57 104 145 150t209 46q168 0 268.5 -99t100.5 -269v-717h-268v608q0 53 -10.5 100.5t-35 83t-64.5 56t-99 20.5q-63 0 -109.5 -24.5t-77 -64.5t-45 -94t-14.5 -112v-573h-268z" />
<glyph unicode="i" horiz-adv-x="489" d="M76 1362q0 33 14 60.5t39 47t55.5 29.5t61.5 10t60.5 -10t54 -29.5t39 -47t14.5 -60.5q0 -35 -14.5 -61.5t-39 -46t-54.5 -30t-60 -10.5q-31 0 -61.5 10.5t-55.5 30t-39 46t-14 61.5zM111 0v1059h268v-1059h-268z" />
<glyph unicode="j" horiz-adv-x="489" d="M-629 -111h267q12 -84 77.5 -132t145.5 -48q68 0 115 24.5t76.5 65.5t44 94.5t14.5 110.5v1055h268v-1041q0 -90 -21.5 -175t-79 -151.5t-155.5 -107.5t-254 -41q-90 0 -175 16.5t-153.5 56.5t-113.5 106.5t-56 166.5zM76 1362q0 33 14 60.5t39 47t55.5 29.5t61.5 10 t60.5 -10t54 -29.5t39 -47t14.5 -60.5q0 -35 -14.5 -61.5t-39 -46t-54.5 -30t-60 -10.5q-31 0 -61.5 10.5t-55.5 30t-39 46t-14 61.5z" />
<glyph unicode="k" horiz-adv-x="899" d="M111 0v1475h268v-730l227 314h293l-373 -529l373 -530h-293l-227 313v-313h-268z" />
<glyph unicode="l" horiz-adv-x="489" d="M111 0v1475h268v-1475h-268z" />
<glyph unicode="m" horiz-adv-x="1933" d="M111 0v1059h268v-170q57 104 146 150t208 46q133 0 223.5 -64.5t124.5 -176.5q47 127 142.5 184t230.5 57q168 0 268.5 -100t100.5 -268v-717h-269v608q0 53 -10 100.5t-33.5 83t-63.5 56t-101 20.5q-63 0 -109.5 -24.5t-76.5 -64.5t-44 -94t-14 -112v-573h-268v608 q0 53 -10.5 100.5t-35 83t-64.5 56t-99 20.5q-66 0 -112 -24.5t-75.5 -64.5t-44 -94t-14.5 -112v-573h-268z" />
<glyph unicode="n" horiz-adv-x="1212" d="M111 0v1059h268v-170q57 104 145 150t209 46q168 0 268.5 -99t100.5 -269v-717h-268v608q0 53 -10.5 100.5t-35 83t-64.5 56t-99 20.5q-63 0 -109.5 -24.5t-77 -64.5t-45 -94t-14.5 -112v-573h-268z" />
<glyph unicode="o" horiz-adv-x="1230" d="M76 530q0 109 32.5 209.5t100 177t169 122.5t238.5 46t238.5 -46t168.5 -122.5t99.5 -177t32.5 -209.5q0 -111 -32.5 -211t-99.5 -176.5t-168 -123t-239 -46.5q-137 0 -238.5 46.5t-169 123t-100 177t-32.5 210.5zM344 530q0 -63 14.5 -126.5t46 -114.5t84 -83t127.5 -32 q76 0 127.5 32t83 83t46 114.5t14.5 126.5t-14.5 126t-46 114t-83 83t-127.5 32t-128 -32t-83.5 -83t-46 -113.5t-14.5 -126.5z" />
<glyph unicode="p" horiz-adv-x="1325" d="M111 -422v1481h268v-94q61 59 145 89.5t181 30.5q123 0 223 -43t171.5 -117.5t110.5 -178t39 -226.5q0 -119 -40 -219t-110.5 -173t-169 -114t-214.5 -41q-104 0 -190.5 35t-145.5 98v-528h-268zM379 399q0 -53 25.5 -95t67.5 -70.5t92 -44t100 -15.5q164 0 240.5 96 t76.5 250q0 76 -17.5 142.5t-56.5 115.5t-101.5 78t-152.5 29q-41 0 -89 -14.5t-89 -40t-68.5 -61.5t-27.5 -81v-289z" />
<glyph unicode="q" horiz-adv-x="1325" d="M76 520q0 121 39 224.5t110.5 179t172 118.5t223.5 43q96 0 180 -30.5t145 -89.5v94h268v-1481h-268v528q-59 -63 -145 -98t-191 -35q-117 0 -215 41t-168.5 114t-110.5 173t-40 219zM344 520q0 -154 77 -250t241 -96q49 0 99 15.5t92 44t67.5 70.5t25.5 95v287 q0 45 -27.5 82t-68.5 62.5t-89 40t-89 14.5q-90 0 -152.5 -29t-101.5 -78t-56.5 -115.5t-17.5 -142.5z" />
<glyph unicode="r" horiz-adv-x="790" d="M111 0v1059h268v-170q57 104 146 150t208 46q14 0 28.5 -1t29.5 -3l-166 -213q-66 0 -112 -24.5t-75.5 -65.5t-44 -94t-14.5 -111v-573h-268z" />
<glyph unicode="s" horiz-adv-x="1064" d="M45 352h258q2 -106 69.5 -156.5t172.5 -50.5q33 0 70.5 8.5t69.5 25t52.5 44t20.5 66.5q0 41 -17.5 67.5t-51.5 44t-85 30.5t-121 26q-96 18 -171.5 42.5t-128 61.5t-80 88t-27.5 125q0 80 37 138.5t99 97.5t143 57t167 18t169 -16t148.5 -55t105.5 -103.5t44 -160.5 h-246q-4 92 -65.5 136t-147.5 44q-55 0 -93 -13.5t-60.5 -33t-32.5 -44t-10 -44.5q0 -49 47 -80t111.5 -50.5t132 -30.5t106.5 -24q55 -16 106.5 -37.5t91.5 -55.5t64.5 -82t24.5 -118q0 -98 -43 -164.5t-111.5 -106.5t-154.5 -56.5t-172 -16.5q-98 0 -186.5 21.5t-156 66.5 t-107.5 117t-42 174z" />
<glyph unicode="t" horiz-adv-x="489" d="M0 887v172h111v229l268 133v-362h110v-172h-110v-887h-268v887h-111z" />
<glyph unicode="u" horiz-adv-x="1212" d="M111 342v717h268v-608q0 -53 10 -100.5t35 -82.5t64.5 -55t99.5 -20q63 0 109 23.5t76 64.5t44 93t14 111v574h271v-1059h-268v170q-59 -104 -147.5 -150.5t-207.5 -46.5q-168 0 -268 100.5t-100 268.5z" />
<glyph unicode="v" horiz-adv-x="999" d="M0 1059h281l219 -631l219 631h280l-360 -1059h-279z" />
<glyph unicode="w" horiz-adv-x="1933" d="M111 342v717h268v-608q0 -53 10 -99.5t35 -82.5t64.5 -56t99.5 -20q63 0 109 24.5t76 64.5t44 93t14 110v574h271v-608q0 -53 10 -99.5t33.5 -82.5t63.5 -56t100 -20q63 0 110 24.5t77 64.5t44 93t14 110v574h269v-1059h-269v170q-57 -104 -146 -150.5t-208 -46.5 q-133 0 -223 64.5t-123 177.5q-47 -127 -143.5 -184.5t-231.5 -57.5q-168 0 -268 100.5t-100 268.5z" />
<glyph unicode="x" horiz-adv-x="1040" d="M0 0l373 530l-373 529h295l225 -314l225 314h295l-372 -529l372 -530h-295l-225 313l-225 -313h-295z" />
<glyph unicode="y" horiz-adv-x="1212" d="M94 -111h266q12 -84 77 -132t147 -48q66 0 112.5 24.5t77.5 65.5t45.5 94.5t14.5 110.5v166q-59 -104 -147.5 -150.5t-207.5 -46.5q-168 0 -268 100.5t-100 268.5v717h268v-608q0 -53 10 -100.5t35 -82.5t64.5 -55t99.5 -20q63 0 109 23.5t76 64.5t44 93t14 111v574h271 v-1041q0 -90 -21.5 -175t-79 -151.5t-155.5 -107.5t-254 -41q-90 0 -175 16.5t-153.5 56.5t-115 106.5t-54.5 166.5z" />
<glyph unicode="z" horiz-adv-x="1024" d="M25 0v215l587 645h-538v199h880v-213l-579 -647h366q78 0 101.5 28.5t23.5 81.5l158 -80q0 -43 -7 -84t-30.5 -73.5t-66.5 -52t-113 -19.5h-782z" />
<glyph unicode="{" horiz-adv-x="770" d="M92 424v211q31 2 59.5 16.5t51 40t37 62.5t14.5 82v391q0 121 67.5 184.5t172.5 63.5h184v-211h-82q-61 0 -85 -40t-24 -120v-336q0 -49 -16 -90t-45 -72t-66.5 -51t-78.5 -29q90 -16 148 -74.5t58 -177.5v-323q0 -90 27 -126t90 -36h74v-211h-184q-104 0 -171 64.5 t-67 185.5v379q0 92 -45 143t-119 74z" />
<glyph unicode="|" horiz-adv-x="432" d="M111 0v1475h211v-1475h-211z" />
<glyph unicode="}" horiz-adv-x="770" d="M92 -211h72q63 0 90 36t27 126v323q0 119 59 177.5t149 74.5q-41 8 -78.5 28.5t-66.5 51.5t-46 72t-17 90v336q0 80 -22.5 120t-84.5 40h-82v211h184q104 0 171 -63.5t67 -184.5v-391q0 -92 51 -144.5t113 -56.5v-211q-74 -23 -119 -74t-45 -143v-379 q0 -121 -66.5 -185.5t-171.5 -64.5h-184v211z" />
<glyph unicode="~" horiz-adv-x="1085" d="M76 735q35 68 94 121t156 55q53 0 113.5 -19.5t119.5 -45.5q59 -27 113.5 -49.5t95.5 -22.5q61 0 103 46t77 100l62 -181q-23 -33 -46.5 -64.5t-53 -56t-64.5 -40t-80 -15.5q-53 0 -103.5 19.5t-101.5 46.5t-108.5 49t-133.5 22q-68 0 -110.5 -44t-71.5 -101z" />
<glyph unicode="&#xa1;" horiz-adv-x="489" d="M76 1352q0 33 14 60.5t39 47t55.5 29.5t61.5 10t60.5 -10t54 -29.5t39 -47t14.5 -60.5q0 -35 -14.5 -61.5t-39 -46t-54.5 -30t-60 -10.5q-31 0 -61.5 10.5t-55.5 30t-39 46t-14 61.5zM88 0l86 1122h141l88 -1122h-315z" />
<glyph unicode="&#xa2;" horiz-adv-x="1187" d="M90 729q0 109 32 204t90 169t142 121t191 61v191h166v-187q82 -8 153.5 -37.5t127 -79t91 -119t43.5 -157.5h-256q-12 94 -74.5 146.5t-156.5 52.5q-80 0 -134 -31t-87 -82t-46.5 -116.5t-13.5 -135.5q0 -66 14.5 -128t46.5 -111.5t84 -79t128 -29.5q98 0 163.5 64.5 t75.5 160.5h256q-23 -180 -135 -287.5t-280 -130.5v-188h-166v188q-104 12 -188.5 58.5t-143.5 118t-91 165t-32 199.5z" />
<glyph unicode="&#xa3;" horiz-adv-x="1183" d="M27 629v178h141q-35 59 -63.5 125.5t-28.5 134.5q0 109 43 189.5t114.5 134t163.5 80t193 26.5q246 0 383 -131t135 -379h-262q4 59 -10.5 112.5t-46 93.5t-79.5 63.5t-112 23.5q-100 0 -171 -49t-71 -156q0 -33 11.5 -67.5t28 -69.5t33.5 -67.5t32 -63.5h260v-176h-209 q14 -31 19.5 -65t5.5 -68q0 -86 -41 -159t-107 -126q59 41 135 41q43 0 85 -11.5t83 -24.5t82 -24.5t82 -11.5q37 0 66.5 13.5t55.5 35t47.5 47t41.5 52.5l111 -193q-72 -78 -157 -125t-194 -47q-80 0 -153.5 27.5t-149.5 40.5q-53 8 -101 11t-93 -3t-90 -24.5t-90 -51.5 l-115 158q45 33 86 70.5t73.5 80.5t52 93.5t19.5 109.5q0 39 -7 79t-23 73h-209z" />
<glyph unicode="&#xa4;" horiz-adv-x="1175" d="M57 285l121 118q-45 53 -73.5 135.5t-28.5 168.5q0 90 29.5 169.5t72.5 131.5l-121 116l111 109l117 -115q51 45 132 73t171 28q86 0 167 -28t132 -73l119 115l106 -107l-117 -118q45 -51 75 -131t30 -170q0 -86 -29 -168t-76 -136l117 -118l-106 -107l-119 121 q-57 -51 -134 -77.5t-165 -26.5q-90 0 -168 25.5t-135 76.5l-121 -119zM274 707q0 -70 27 -127.5t71 -98.5t100 -63.5t116 -22.5q59 0 115.5 22.5t99.5 63.5t69.5 98.5t26.5 127.5t-26.5 128t-69.5 98t-99.5 62.5t-115.5 22.5t-115.5 -22.5t-100.5 -63.5t-71 -98.5 t-27 -126.5z" />
<glyph unicode="&#xa5;" d="M111 1176v299h297v-265q0 -51 7 -101t27.5 -90t58.5 -64.5t97 -24.5q61 0 98 24.5t57.5 64.5t27.5 90t7 101v265h297v-299q0 -395 -340 -461v-121h306v-172h-306v-121h306v-172h-303v-129h-297v129h-306v172h306v121h-306v172h306v121q-170 33 -255 149.5t-85 311.5z" />
<glyph unicode="&#xa6;" horiz-adv-x="432" d="M111 0v545h211v-545h-211zM111 930v545h211v-545h-211z" />
<glyph unicode="&#xa7;" horiz-adv-x="1255" d="M39 526q0 100 39 177t117 137q-80 51 -118 116.5t-38 163.5q0 111 52 185.5t134 119.5t181.5 64.5t191.5 19.5q102 0 203.5 -18t183.5 -65.5t135.5 -126t59.5 -197.5h-289q-4 59 -28.5 102t-62.5 72t-88 43t-106 14q-47 0 -93 -9t-85 -30.5t-62.5 -57.5t-23.5 -91 q0 -45 29.5 -79t76 -58.5t104.5 -42t115.5 -30.5t109.5 -22.5t85 -19.5q70 -20 134.5 -48t113.5 -71t78 -103.5t29 -144.5q0 -193 -156 -313q80 -51 118 -117t38 -164q0 -111 -52.5 -185.5t-134.5 -119.5t-181 -64.5t-192 -19.5q-102 0 -203.5 18.5t-183.5 65.5t-135 125 t-59 199h289q4 -59 28.5 -102.5t62.5 -72t88 -43t105 -14.5q45 0 92 9.5t86 31t62.5 57.5t23.5 91q0 45 -29.5 78.5t-75.5 58.5t-104.5 42t-116 30.5t-109.5 23t-85 19.5q-72 20 -135 48t-112.5 71t-78 103t-28.5 144zM342 563q0 -59 25.5 -95t65.5 -58.5t88 -35t95 -24.5 q39 -10 77 -18t79 -19q59 23 100 65.5t41 110.5q0 57 -25.5 94.5t-65.5 60t-89 34.5t-94 24q-39 10 -77 18.5t-79 18.5q-59 -23 -100 -65.5t-41 -110.5z" />
<glyph unicode="&#xa8;" horiz-adv-x="0" d="M219 1286q0 33 14.5 60.5t39 47t55 30t61.5 10.5t60.5 -10.5t54 -30t39 -47t14.5 -60.5q0 -35 -14.5 -61.5t-39 -46t-54 -29.5t-60.5 -10t-61.5 10t-55 29.5t-39 46t-14.5 61.5zM674 1286q0 33 14 60.5t39 47t55.5 30t61.5 10.5q63 0 115.5 -40t52.5 -108t-52.5 -107.5 t-115.5 -39.5q-31 0 -61.5 10t-55.5 29.5t-39 46t-14 61.5z" />
<glyph unicode="&#xa9;" horiz-adv-x="1683" d="M76 737q0 160 60.5 299.5t163.5 242.5t242.5 163.5t299.5 60.5t299 -60.5t242.5 -163.5t164 -242.5t60.5 -299.5t-60.5 -299t-164 -242.5t-243 -164t-298.5 -60.5q-160 0 -299.5 60.5t-242.5 164t-163.5 243t-60.5 298.5zM250 737q0 -125 46 -234.5t126 -190.5 t187.5 -128t232.5 -47t232.5 47t187 128t126 190.5t46.5 234.5t-46.5 233.5t-126 190.5t-187 129t-232.5 47t-232.5 -47t-187.5 -129t-126 -190.5t-46 -233.5zM430 731q0 94 28.5 176t84 140.5t133.5 92.5t176 34q139 0 241.5 -79t125.5 -235h-138q-16 84 -77.5 125 t-147.5 41q-129 0 -199.5 -81t-70.5 -210q0 -63 19.5 -118.5t55 -95.5t85 -63.5t110.5 -23.5q82 0 145.5 43t79.5 137h144q-29 -160 -130.5 -243.5t-238.5 -83.5q-96 0 -175 33.5t-134 94t-86 141.5t-31 175z" />
<glyph unicode="&#xaa;" horiz-adv-x="878" d="M78 1161q0 72 23.5 134.5t66.5 107.5t104.5 70.5t135.5 25.5q53 0 102 -15.5t90 -47.5v49h166v-637h-166v53q-80 -68 -199 -67q-72 0 -131 24.5t-102 67.5t-66.5 103.5t-23.5 131.5zM246 1161q0 -92 44 -147.5t142 -55.5q29 0 58.5 8.5t54 26t40 42t15.5 55.5v170 q0 25 -16.5 46t-41 36.5t-52 23.5t-52.5 8q-53 0 -90 -16.5t-59.5 -45t-32.5 -67.5t-10 -84z" />
<glyph unicode="&#xab;" horiz-adv-x="796" d="M92 618v238l289 272v-223l-164 -168l162 -164v-227zM416 618v238l289 272v-223l-164 -168l164 -164v-227z" />
<glyph unicode="&#xac;" horiz-adv-x="489" d="M0 532v150l111 90v703h268v-494l110 88v-149l-110 -89v-831h-268v623z" />
<glyph unicode="&#xad;" horiz-adv-x="718" d="M92 434v225h535v-225h-535z" />
<glyph unicode="&#xae;" horiz-adv-x="925" d="M76 1116q0 80 30.5 149.5t83 122t123 82t150.5 29.5t150.5 -29.5t122.5 -82t83 -122t31 -149.5t-31 -149.5t-83 -121.5t-122.5 -82t-150.5 -30t-150.5 30t-123 82t-83 121.5t-30.5 149.5zM170 1116q0 -61 22.5 -114.5t62.5 -93.5t93 -62.5t115 -22.5q61 0 114.5 22.5 t92.5 62.5t61.5 93.5t22.5 114.5h2q0 61 -22.5 114.5t-62.5 93.5t-93.5 62.5t-114.5 22.5t-114.5 -22.5t-93.5 -62.5t-62.5 -93t-22.5 -115zM315 907v412h152q82 0 124 -28.5t42 -94.5q0 -55 -31 -80.5t-74 -30.5l107 -178h-82l-98 172q-10 -2 -34 -1t-32 1v-172h-74z M389 1139h84q35 0 59.5 11t24.5 52q0 37 -29.5 47.5t-62.5 10.5h-76v-121z" />
<glyph unicode="&#xaf;" horiz-adv-x="0" d="M309 1202v133h613v-133h-613z" />
<glyph unicode="&#xb0;" horiz-adv-x="753" d="M76 1198q0 63 22.5 118.5t63.5 95.5t95 63.5t120 23.5q63 0 118.5 -23.5t95.5 -63.5t63.5 -95.5t23.5 -118.5q0 -66 -22.5 -120t-63.5 -95t-96.5 -63.5t-118.5 -22.5q-66 0 -120 22.5t-95 63.5t-63.5 95.5t-22.5 119.5zM190 1198q0 -80 55.5 -133t131.5 -53q78 0 131 53 t53 133q0 78 -53 132t-131 54q-37 0 -71 -14t-59.5 -39.5t-41 -59.5t-15.5 -73z" />
<glyph unicode="&#xb1;" horiz-adv-x="1218" d="M92 219v211h1034v-211h-1034zM92 788v211h412v256h211v-256h411v-211h-411v-256h-211v256h-412z" />
<glyph unicode="&#xb2;" horiz-adv-x="765" d="M61 674q-4 72 23 128t71 102t100 84t112 73q51 33 98 76t47 98t-34 89t-91 34q-82 0 -113.5 -55.5t-31.5 -141.5h-166q-6 158 77 248t236 90q57 0 111.5 -14.5t96.5 -45t67.5 -77.5t25.5 -111q0 -80 -43 -139t-102.5 -108.5t-122 -92.5t-100.5 -88h221q41 0 52 15.5 t9 56.5l127 -61q0 -72 -30.5 -116t-116.5 -44h-523z" />
<glyph unicode="&#xb3;" horiz-adv-x="763" d="M55 981h168q-4 -90 37 -134t123 -44q59 0 100 31.5t41 91.5q0 59 -37.5 87.5t-97.5 28.5h-35v119h35q53 0 92 24.5t39 76.5q0 49 -42 74.5t-91 25.5q-66 0 -106.5 -40t-36.5 -114h-168q0 76 24.5 130.5t66.5 90t99.5 53t124.5 17.5q45 0 96.5 -12t95.5 -38t72.5 -67 t28.5 -96q0 -43 -20.5 -96t-73.5 -80q59 -23 87 -81.5t28 -113.5q0 -63 -28 -111t-73 -80t-101.5 -47t-113.5 -15q-72 0 -135.5 19t-110.5 58t-71.5 99.5t-16.5 142.5z" />
<glyph unicode="&#xb4;" horiz-adv-x="0" d="M356 1161l230 303h288l-331 -303h-187z" />
<glyph unicode="&#xb5;" horiz-adv-x="1212" d="M111 -422v1481h268v-608q0 -53 10 -100.5t35 -82.5t64.5 -55t99.5 -20q63 0 109 23.5t76 64.5t44 93t14 111v574h271v-1059h-268v170q-37 -80 -100.5 -125t-143.5 -55q-66 -8 -118 7t-93 48v-467h-268z" />
<glyph unicode="&#xb6;" horiz-adv-x="1183" d="M76 1096q0 104 35.5 177t100 118t154 64.5t195.5 19.5h512v-1897h-190v1749h-162v-1749h-189v1153q-109 0 -192.5 26.5t-143 75t-90 116t-30.5 147.5z" />
<glyph unicode="&#xb7;" horiz-adv-x="489" d="M76 737q0 33 14 60.5t39 47t55.5 30t61.5 10.5t60.5 -10.5t54 -30t39 -47t14.5 -60.5q0 -35 -14.5 -61.5t-39 -46t-54.5 -29.5t-60 -10q-31 0 -61.5 10t-55.5 29.5t-39 46t-14 61.5z" />
<glyph unicode="&#xb8;" horiz-adv-x="0" d="M375 -389l33 74q41 -12 81.5 -24.5t83.5 -12.5q45 0 86 18.5t41 69.5q0 37 -32.5 56.5t-63.5 19.5q-53 0 -92 -25l-45 39l117 174h88l-84 -127q33 12 84 12q35 0 68.5 -8t59 -26.5t42 -47t16.5 -67.5q0 -51 -22.5 -85t-57.5 -53.5t-78 -27.5t-86 -8q-72 0 -126 14 t-113 35z" />
<glyph unicode="&#xb9;" horiz-adv-x="573" d="M76 1309q0 31 5 60.5t21.5 53t47 38t79.5 14.5h234v-811h-189v653h-14q-35 0 -43 -19.5t-8 -54.5z" />
<glyph unicode="&#xba;" horiz-adv-x="817" d="M76 1167q0 66 20.5 125.5t61.5 105.5t104.5 73.5t147.5 27.5t146 -27.5t103 -73.5t61.5 -105.5t20.5 -125.5t-20.5 -127t-61.5 -107t-103 -74t-148 -28q-84 0 -146.5 28t-103.5 74t-61.5 107.5t-20.5 126.5zM244 1167q0 -37 9 -74.5t28.5 -67.5t51.5 -49.5t77 -19.5 t76.5 19.5t51 49.5t27.5 67.5t8 74.5t-8 74t-27.5 66.5t-51 48t-76.5 18.5t-77 -18.5t-51.5 -48t-28.5 -66.5t-9 -74z" />
<glyph unicode="&#xbb;" horiz-adv-x="796" d="M92 346v223l164 168l-164 164v227l287 -272v-238zM416 346v223l164 168l-164 164v227l289 -272v-238z" />
<glyph unicode="&#xbc;" horiz-adv-x="1550" d="M76 1309q0 31 5 60.5t21.5 53t47 38t79.5 14.5h234v-811h-189v653h-14q-35 0 -43 -19.5t-8 -54.5zM217 0l827 1475h160l-831 -1475h-156zM737 199v155l375 457h168v-463h18q35 0 42.5 18.5t7.5 53.5l127 -62q0 -31 -5.5 -59.5t-20.5 -51t-44 -35.5t-78 -13h-47v-199h-180 v199h-363zM885 348h215v275z" />
<glyph unicode="&#xbd;" horiz-adv-x="1583" d="M76 1309q0 31 5 60.5t21.5 53t47 38t79.5 14.5h234v-811h-189v653h-14q-35 0 -43 -19.5t-8 -54.5zM217 0l827 1475h160l-831 -1475h-156zM879 0q-4 72 22.5 128t71.5 101t100 83t111 73q53 33 99 77t46 97q0 57 -33.5 91t-91.5 34q-82 0 -113.5 -56.5t-31.5 -142.5h-166 q-6 158 77 249t236 91q57 0 111.5 -14t96.5 -45t67.5 -78t25.5 -113q0 -80 -43 -138t-102 -107t-121.5 -92t-101.5 -88h221q41 0 52 15t9 56l127 -63q0 -72 -30.5 -115t-116.5 -43h-522z" />
<glyph unicode="&#xbe;" horiz-adv-x="1701" d="M55 981h168q-4 -90 37 -134t123 -44q59 0 100 31.5t41 91.5q0 59 -37.5 87.5t-97.5 28.5h-35v119h35q53 0 92 24.5t39 76.5q0 49 -42 74.5t-91 25.5q-66 0 -106.5 -40t-36.5 -114h-168q0 76 24.5 130.5t66.5 90t99.5 53t124.5 17.5q45 0 96.5 -12t95.5 -38t72.5 -67 t28.5 -96q0 -43 -20.5 -96t-73.5 -80q59 -23 87 -81.5t28 -113.5q0 -63 -28 -111t-73 -80t-101.5 -47t-113.5 -15q-72 0 -135.5 19t-110.5 58t-71.5 99.5t-16.5 142.5zM367 0l829 1475h160l-832 -1475h-157zM887 199v155l375 457h170v-463h16q35 0 43 18.5t8 53.5l127 -62 q0 -31 -5 -59.5t-20.5 -51t-45 -35.5t-76.5 -13h-47v-199h-181v199h-364zM1034 348h217v275z" />
<glyph unicode="&#xbf;" horiz-adv-x="1165" d="M76 367q-2 88 22.5 145t61.5 97t81 68t85 56q43 31 71.5 58.5t46 58.5t23.5 68.5t6 87.5v143h252v-143q0 -47 -4 -97.5t-20.5 -101.5t-49.5 -100.5t-92 -90.5q-18 -12 -51 -30.5t-64.5 -46t-55 -65.5t-23.5 -89q0 -86 57 -131t153 -45q121 0 179.5 80t52.5 196h283 q-2 -100 -33 -192t-95.5 -163t-162 -113t-232.5 -42q-125 0 -217 34t-152.5 89.5t-90 125t-31.5 143.5zM430 1350q0 33 14.5 60.5t39 47t54 29.5t60.5 10t61.5 -10t55 -29.5t39 -47t14.5 -60.5q0 -35 -14.5 -61.5t-39 -46t-55 -30t-61.5 -10.5t-60.5 10.5t-54 30t-39 46 t-14.5 61.5z" />
<glyph unicode="&#xc0;" d="M111 0v1030q0 242 124.5 360.5t362.5 118.5q244 0 365.5 -121.5t121.5 -357.5v-1030h-297v621h-380v-621h-297zM342 1868h289l223 -303h-186zM408 854h380v141q0 51 -7 101.5t-27.5 90.5t-58.5 64.5t-97 24.5q-61 0 -98 -24.5t-57.5 -64.5t-27.5 -90t-7 -102v-141z" />
<glyph unicode="&#xc1;" d="M111 0v1030q0 242 124.5 360.5t362.5 118.5q244 0 365.5 -121.5t121.5 -357.5v-1030h-297v621h-380v-621h-297zM346 1565l227 303h291l-334 -303h-184zM408 854h380v141q0 51 -7 101.5t-27.5 90.5t-58.5 64.5t-97 24.5q-61 0 -98 -24.5t-57.5 -64.5t-27.5 -90t-7 -102 v-141z" />
<glyph unicode="&#xc2;" d="M111 0v1030q0 242 124.5 360.5t362.5 118.5q244 0 365.5 -121.5t121.5 -357.5v-1030h-297v621h-380v-621h-297zM248 1569l241 299h222l245 -299h-204l-152 192l-147 -192h-205zM408 854h380v141q0 51 -7 101.5t-27.5 90.5t-58.5 64.5t-97 24.5q-61 0 -98 -24.5 t-57.5 -64.5t-27.5 -90t-7 -102v-141z" />
<glyph unicode="&#xc3;" d="M111 0v1030q0 242 124.5 360.5t362.5 118.5q244 0 365.5 -121.5t121.5 -357.5v-1030h-297v621h-380v-621h-297zM270 1577q0 39 10.5 82t35 78t61.5 58.5t88 23.5q43 0 85 -14.5t81 -33t70.5 -33t56.5 -14.5q82 0 94 97h121q-2 -47 -15.5 -90t-38 -76t-61.5 -51.5 t-86 -18.5q-45 0 -84 14.5t-74.5 32t-70.5 31.5t-68 14q-37 0 -60.5 -33.5t-27.5 -66.5h-117zM408 854h380v141q0 51 -7 101.5t-27.5 90.5t-58.5 64.5t-97 24.5q-61 0 -98 -24.5t-57.5 -64.5t-27.5 -90t-7 -102v-141z" />
<glyph unicode="&#xc4;" d="M111 0v1030q0 242 124.5 360.5t362.5 118.5q244 0 365.5 -121.5t121.5 -357.5v-1030h-297v621h-380v-621h-297zM211 1690q0 33 14.5 60.5t39 47t55 29.5t61.5 10t60.5 -10t54 -29.5t39 -47t14.5 -60.5q0 -35 -14.5 -61.5t-39 -46t-54 -30t-60.5 -10.5t-61.5 10.5t-55 30 t-39 46t-14.5 61.5zM408 854h380v141q0 51 -7 101.5t-27.5 90.5t-58.5 64.5t-97 24.5q-61 0 -98 -24.5t-57.5 -64.5t-27.5 -90t-7 -102v-141zM666 1690q0 33 14 60.5t38.5 47t55.5 29.5t62 10t60.5 -10t54 -29.5t39 -47t14.5 -60.5q0 -35 -14.5 -61.5t-39 -46t-54.5 -30 t-60 -10.5q-31 0 -62 10.5t-55.5 30t-38.5 46t-14 61.5z" />
<glyph unicode="&#xc5;" d="M111 0v1030q0 242 124.5 360.5t362.5 118.5q244 0 365.5 -121.5t121.5 -357.5v-1030h-297v621h-380v-621h-297zM385 1737q0 43 17.5 82t46 67.5t67.5 45t82 16.5t81 -16.5t67.5 -46.5t46 -67.5t16.5 -80.5t-16.5 -81t-45 -67.5t-67.5 -46t-82 -16.5t-82 16.5t-67.5 46 t-46 67.5t-17.5 81zM408 854h380v141q0 51 -7 101.5t-27.5 90.5t-58.5 64.5t-97 24.5q-61 0 -98 -24.5t-57.5 -64.5t-27.5 -90t-7 -102v-141zM477 1737q0 -47 37 -83t84 -36t83 36t36 83t-36 82.5t-83 35.5t-84 -34.5t-37 -83.5z" />
<glyph unicode="&#xc6;" horiz-adv-x="1873" d="M111 0v1030q0 242 124.5 360.5t362.5 118.5q236 0 350 -125v91h817v-250h-680v-371h615v-233h-615v-371h697v-250h-994v621h-380v-621h-297zM408 854h380v141q0 51 -7 101.5t-27.5 90.5t-58.5 64.5t-97 24.5q-61 0 -98 -24.5t-57.5 -64.5t-27.5 -90t-7 -102v-141z" />
<glyph unicode="&#xc7;" horiz-adv-x="1513" d="M76 733q0 164 48 306.5t140 247t226.5 163.5t306.5 59q125 0 236.5 -34.5t197.5 -103t140 -170t67 -232.5h-291q-8 68 -40 123t-81 93t-109.5 59.5t-125.5 21.5q-111 0 -190 -47.5t-130 -123t-74.5 -171t-23.5 -191.5q0 -94 23.5 -187t72.5 -168t126 -122t185 -47 q84 0 147.5 27.5t108.5 76.5t72 116t39 144h291q-6 -129 -54.5 -236.5t-128 -187t-187 -127t-234.5 -55.5l-62 -94q33 12 82 12q35 0 68.5 -8t59.5 -26.5t42 -47t16 -67.5q0 -51 -21.5 -85t-56 -53.5t-77.5 -27.5t-86 -8q-72 0 -127.5 14t-114.5 35l35 74q41 -12 82 -24.5 t84 -12.5q45 0 86 18.5t41 69.5q0 37 -33 56.5t-66 19.5q-51 0 -90 -25l-45 39l92 141q-158 8 -281.5 70.5t-209.5 165t-131 239t-45 291.5z" />
<glyph unicode="&#xc8;" d="M111 0v1475h976v-250h-679v-371h614v-233h-614v-371h696v-250h-993zM315 1868h289l223 -303h-186z" />
<glyph unicode="&#xc9;" horiz-adv-x="1280" d="M111 0v1475h976v-250h-679v-371h614v-233h-614v-371h696v-250h-993zM406 1565l229 303h289l-332 -303h-186z" />
<glyph unicode="&#xca;" d="M111 0v1475h976v-250h-679v-371h614v-233h-614v-371h696v-250h-993zM250 1569l242 299h221l245 -299h-204l-152 192l-147 -192h-205z" />
<glyph unicode="&#xcb;" d="M111 0v1475h976v-250h-679v-371h614v-233h-614v-371h696v-250h-993zM201 1690q0 33 14 60.5t39 47t54.5 29.5t60.5 10t61.5 -10t55 -29.5t39 -47t14.5 -60.5q0 -35 -14.5 -61.5t-39 -46t-55.5 -30t-61 -10.5q-31 0 -60.5 10.5t-54.5 30t-39 46t-14 61.5zM655 1690 q0 33 14.5 60.5t39 47t55.5 29.5t61 10q31 0 60.5 -10t54.5 -29.5t39 -47t14 -60.5q0 -35 -14 -61.5t-39 -46t-54.5 -30t-60.5 -10.5t-61.5 10.5t-55 30t-39 46t-14.5 61.5z" />
<glyph unicode="&#xcc;" horiz-adv-x="518" d="M-12 1868h288l224 -303h-187zM111 0v1475h297v-1475h-297z" />
<glyph unicode="&#xcd;" horiz-adv-x="518" d="M14 1565l228 303h290l-331 -303h-187zM111 0v1475h297v-1475h-297z" />
<glyph unicode="&#xce;" horiz-adv-x="518" d="M-90 1569l242 299h221l243 -299h-202l-152 192l-147 -192h-205zM111 0v1475h297v-1475h-297z" />
<glyph unicode="&#xcf;" horiz-adv-x="518" d="M-127 1690q0 33 14.5 60.5t39 47t54 29.5t60.5 10t61.5 -10t55 -29.5t39 -47t14.5 -60.5q0 -35 -14.5 -61.5t-39 -46t-55 -30t-61.5 -10.5t-60.5 10.5t-54 30t-39 46t-14.5 61.5zM111 0v1475h297v-1475h-297zM328 1690q0 33 14 60.5t39 47t55.5 29.5t61.5 10t60.5 -10 t54 -29.5t39 -47t14.5 -60.5q0 -35 -14.5 -61.5t-39 -46t-54.5 -30t-60 -10.5q-31 0 -61.5 10.5t-55.5 30t-39 46t-14 61.5z" />
<glyph unicode="&#xd0;" horiz-adv-x="1304" d="M-6 674v172h117v629h473q166 0 287.5 -56.5t201.5 -156t118 -233.5t38 -290q0 -174 -48 -311t-140.5 -232.5t-227.5 -145.5t-309 -50h-393v674h-117zM408 250h86q113 0 194.5 38t136 103.5t81 156.5t26.5 195v-2q0 106 -26.5 195.5t-82 154t-138.5 99.5t-196 35h-81v-379 h282v-170h-282v-426z" />
<glyph unicode="&#xd1;" d="M111 0v1030q0 242 124.5 360.5t362.5 118.5q244 0 365.5 -121.5t121.5 -357.5v-1030h-297v995q0 51 -7 101.5t-27.5 90.5t-58.5 64.5t-97 24.5q-61 0 -98 -24.5t-57.5 -64.5t-27.5 -90t-7 -102v-995h-297zM281 1577q0 39 11 82t34.5 78t60.5 58.5t88 23.5q43 0 85 -14.5 t81 -33t71.5 -33t55.5 -14.5q82 0 96 97h119q0 -47 -13.5 -90t-39 -76t-62.5 -51.5t-86 -18.5q-45 0 -84 14.5t-74.5 32t-69.5 31.5t-67 14q-39 0 -62.5 -33.5t-27.5 -66.5h-116z" />
<glyph unicode="&#xd2;" horiz-adv-x="1583" d="M76 737q0 160 49 301.5t141 246t225.5 164.5t301.5 60t300 -60t224 -164.5t141 -246t49 -301.5t-49 -301t-141 -245.5t-224 -165t-300 -60.5t-301.5 60.5t-225.5 165t-141 246t-49 300.5zM373 737q0 -98 24.5 -192t74.5 -169t130 -121t191 -46t189.5 46t128.5 121 t74.5 169t24.5 192t-24.5 192.5t-74.5 169.5t-129 121t-189 46q-111 0 -191 -46t-130 -121t-74.5 -169t-24.5 -193zM444 1868h289l225 -303h-188z" />
<glyph unicode="&#xd3;" horiz-adv-x="1583" d="M76 737q0 160 49 301.5t141 246t225.5 164.5t301.5 60t300 -60t224 -164.5t141 -246t49 -301.5t-49 -301t-141 -245.5t-224 -165t-300 -60.5t-301.5 60.5t-225.5 165t-141 246t-49 300.5zM373 737q0 -98 24.5 -192t74.5 -169t130 -121t191 -46t189.5 46t128.5 121 t74.5 169t24.5 192t-24.5 192.5t-74.5 169.5t-129 121t-189 46q-111 0 -191 -46t-130 -121t-74.5 -169t-24.5 -193zM561 1565l227 303h291l-331 -303h-187z" />
<glyph unicode="&#xd4;" horiz-adv-x="1583" d="M76 737q0 160 49 301.5t141 246t225.5 164.5t301.5 60t300 -60t224 -164.5t141 -246t49 -301.5t-49 -301t-141 -245.5t-224 -165t-300 -60.5t-301.5 60.5t-225.5 165t-141 246t-49 300.5zM373 737q0 -98 24.5 -192t74.5 -169t130 -121t191 -46t189.5 46t128.5 121 t74.5 169t24.5 192t-24.5 192.5t-74.5 169.5t-129 121t-189 46q-111 0 -191 -46t-130 -121t-74.5 -169t-24.5 -193zM434 1569l242 299h221l244 -299h-203l-154 192l-147 -192h-203z" />
<glyph unicode="&#xd5;" horiz-adv-x="1583" d="M76 737q0 160 49 301.5t141 246t225.5 164.5t301.5 60t300 -60t224 -164.5t141 -246t49 -301.5t-49 -301t-141 -245.5t-224 -165t-300 -60.5t-301.5 60.5t-225.5 165t-141 246t-49 300.5zM373 737q0 -98 24.5 -192t74.5 -169t130 -121t191 -46t189.5 46t128.5 121 t74.5 169t24.5 192t-24.5 192.5t-74.5 169.5t-129 121t-189 46q-111 0 -191 -46t-130 -121t-74.5 -169t-24.5 -193zM467 1577q0 39 11 82t36 78t61.5 58.5t88.5 23.5q43 0 85 -14.5t79.5 -33t70.5 -33t55 -14.5q39 0 64.5 24t32.5 73h120q-2 -47 -15 -90t-38.5 -76 t-62.5 -51.5t-86 -18.5q-43 0 -82 14.5t-75 32t-70.5 31.5t-67.5 14q-37 0 -61.5 -33.5t-28.5 -66.5h-117z" />
<glyph unicode="&#xd6;" horiz-adv-x="1583" d="M76 737q0 160 49 301.5t141 246t225.5 164.5t301.5 60t300 -60t224 -164.5t141 -246t49 -301.5t-49 -301t-141 -245.5t-224 -165t-300 -60.5t-301.5 60.5t-225.5 165t-141 246t-49 300.5zM373 737q0 -98 24.5 -192t74.5 -169t130 -121t191 -46t189.5 46t128.5 121 t74.5 169t24.5 192t-24.5 192.5t-74.5 169.5t-129 121t-189 46q-111 0 -191 -46t-130 -121t-74.5 -169t-24.5 -193zM383 1690q0 33 14.5 60.5t39 47t55 29.5t61.5 10t60.5 -10t54 -29.5t39 -47t14.5 -60.5q0 -35 -14.5 -61.5t-39 -46t-54 -30t-60.5 -10.5t-61.5 10.5t-55 30 t-39 46t-14.5 61.5zM838 1690q0 33 14 60.5t38.5 47t55.5 29.5t62 10t61.5 -10t55 -29.5t39 -47t14.5 -60.5q0 -35 -14.5 -61.5t-39 -46t-55.5 -30t-61 -10.5q-31 0 -62 10.5t-55.5 30t-38.5 46t-14 61.5z" />
<glyph unicode="&#xd7;" horiz-adv-x="950" d="M0 412l326 325l-326 328l150 147l325 -327l326 329l149 -149l-327 -328l327 -325l-149 -150l-326 328l-325 -328z" />
<glyph unicode="&#xd8;" horiz-adv-x="1583" d="M76 731q0 162 50 302.5t142 243.5t225.5 161.5t299.5 58.5q147 0 266 -46t209 -130l153 168l70 -59l-158 -175q86 -100 130 -233t44 -291q0 -164 -49 -303t-142 -242.5t-225.5 -162t-297.5 -58.5q-145 0 -264 45t-207 127l-164 -180l-70 61l166 185q-86 102 -132 236 t-46 292zM373 731q0 -96 20.5 -175t55.5 -138l638 704q-59 68 -136 99.5t-158 31.5q-82 0 -158 -30.5t-134.5 -94t-93 -163t-34.5 -234.5zM500 336q59 -66 134 -96.5t159 -30.5q82 0 157.5 30.5t133 94t92 163t34.5 234.5q0 92 -19.5 169t-53.5 138z" />
<glyph unicode="&#xd9;" d="M111 444v1031h297v-996q0 -51 7 -101t27.5 -90t58.5 -64.5t97 -24.5q61 0 98 24.5t57.5 64.5t27.5 90t7 101v996h297v-1031q0 -242 -124.5 -360.5t-362.5 -118.5q-244 0 -365.5 122t-121.5 357zM332 1868h289l223 -303h-187z" />
<glyph unicode="&#xda;" d="M111 444v1031h297v-996q0 -51 7 -101t27.5 -90t58.5 -64.5t97 -24.5q61 0 98 24.5t57.5 64.5t27.5 90t7 101v996h297v-1031q0 -242 -124.5 -360.5t-362.5 -118.5q-244 0 -365.5 122t-121.5 357zM371 1565l227 303h291l-332 -303h-186z" />
<glyph unicode="&#xdb;" d="M111 444v1031h297v-996q0 -51 7 -101t27.5 -90t58.5 -64.5t97 -24.5q61 0 98 24.5t57.5 64.5t27.5 90t7 101v996h297v-1031q0 -242 -124.5 -360.5t-362.5 -118.5q-244 0 -365.5 122t-121.5 357zM240 1569l241 299h221l244 -299h-203l-153 192l-148 -192h-202z" />
<glyph unicode="&#xdc;" d="M111 444v1031h297v-996q0 -51 7 -101t27.5 -90t58.5 -64.5t97 -24.5q61 0 98 24.5t57.5 64.5t27.5 90t7 101v996h297v-1031q0 -242 -124.5 -360.5t-362.5 -118.5q-244 0 -365.5 122t-121.5 357zM203 1690q0 33 14 60.5t39 47t55.5 29.5t61.5 10t60.5 -10t54 -29.5t39 -47 t14.5 -60.5q0 -35 -14.5 -61.5t-39 -46t-54.5 -30t-60 -10.5q-31 0 -61.5 10.5t-55.5 30t-39 46t-14 61.5zM657 1690q0 33 14.5 60.5t39 47t55.5 29.5t61 10q31 0 62 -10t55.5 -29.5t38.5 -47t14 -60.5q0 -35 -14 -61.5t-38.5 -46t-55.5 -30t-62 -10.5t-61.5 10.5t-55 30 t-39 46t-14.5 61.5z" />
<glyph unicode="&#xdd;" d="M111 1100v375h297v-340q0 -51 7 -101.5t27.5 -90.5t58.5 -64.5t97 -24.5q61 0 98 24.5t57.5 64.5t27.5 90t7 102v340h297v-375q0 -199 -86 -313.5t-251 -147.5v-639h-297v639q-340 66 -340 461zM383 1583l227 301h291l-332 -301h-186z" />
<glyph unicode="&#xde;" horiz-adv-x="1202" d="M111 0v1475h297v-203h215q133 0 228 -40t156.5 -104.5t90 -148.5t28.5 -170q0 -119 -39.5 -208t-110.5 -147.5t-169 -88t-215 -29.5h-184v-336h-297zM408 569h135q59 0 113.5 11.5t96.5 38t66.5 70.5t24.5 110q0 63 -20.5 106t-58.5 68.5t-90 37t-116 11.5h-151v-453z " />
<glyph unicode="&#xdf;" horiz-adv-x="1210" d="M111 0v1030q0 223 124.5 349t348.5 126q86 0 170 -22.5t150.5 -69.5t108.5 -117.5t42 -167.5q0 -227 -207 -311q72 -8 126 -43t90 -86t53.5 -115.5t17.5 -130.5q0 -109 -34 -191.5t-96.5 -141t-149.5 -88t-191 -29.5q-35 0 -68 2t-68 8v209q16 -4 35 -6t37 -2 q125 0 194.5 69.5t69.5 194.5q0 78 -24.5 128t-66.5 80t-99.5 41t-122.5 11h-23v156h19q51 0 97 9t82 32.5t56.5 63.5t20.5 102q0 96 -60.5 147t-152.5 51q-111 0 -161 -65.5t-50 -169.5v-1053h-268z" />
<glyph unicode="&#xe0;" horiz-adv-x="1325" d="M76 520q0 121 39 224.5t110.5 179t172 118.5t223.5 43q96 0 180 -30.5t145 -89.5v94h268v-1059h-268v106q-59 -63 -145 -98t-191 -35q-117 0 -215 41t-168.5 114t-110.5 173t-40 219zM338 1464h289l223 -301l-186 -2zM344 520q0 -154 77 -250t241 -96q49 0 99 15.5t92 44 t67.5 70.5t25.5 95v287q0 45 -27.5 82t-68.5 62.5t-89 40t-89 14.5q-90 0 -152.5 -29t-101.5 -78t-56.5 -115.5t-17.5 -142.5z" />
<glyph unicode="&#xe1;" horiz-adv-x="1325" d="M76 520q0 121 39 224.5t110.5 179t172 118.5t223.5 43q96 0 180 -30.5t145 -89.5v94h268v-1059h-268v106q-59 -63 -145 -98t-191 -35q-117 0 -215 41t-168.5 114t-110.5 173t-40 219zM344 520q0 -154 77 -250t241 -96q49 0 99 15.5t92 44t67.5 70.5t25.5 95v287 q0 45 -27.5 82t-68.5 62.5t-89 40t-89 14.5q-90 0 -152.5 -29t-101.5 -78t-56.5 -115.5t-17.5 -142.5zM403 1161l228 303h291l-334 -303h-185z" />
<glyph unicode="&#xe2;" horiz-adv-x="1325" d="M76 520q0 121 39 224.5t110.5 179t172 118.5t223.5 43q96 0 180 -30.5t145 -89.5v94h268v-1059h-268v106q-59 -63 -145 -98t-191 -35q-117 0 -215 41t-168.5 114t-110.5 173t-40 219zM272 1165l242 299h221l244 -299h-203l-151 193l-148 -193h-205zM344 520 q0 -154 77 -250t241 -96q49 0 99 15.5t92 44t67.5 70.5t25.5 95v287q0 45 -27.5 82t-68.5 62.5t-89 40t-89 14.5q-90 0 -152.5 -29t-101.5 -78t-56.5 -115.5t-17.5 -142.5z" />
<glyph unicode="&#xe3;" horiz-adv-x="1325" d="M76 520q0 121 39 224.5t110.5 179t172 118.5t223.5 43q96 0 180 -30.5t145 -89.5v94h268v-1059h-268v106q-59 -63 -145 -98t-191 -35q-117 0 -215 41t-168.5 114t-110.5 173t-40 219zM332 1174q0 39 11 81.5t34.5 78.5t61.5 59.5t89 23.5q43 0 85 -15.5t80 -32.5 t71 -32.5t55 -15.5q82 0 96 96h121q-2 -47 -15 -90t-39 -75.5t-62.5 -51t-85.5 -18.5q-43 0 -83 14t-76 31.5t-70 32t-66 14.5q-39 0 -62.5 -34t-27.5 -66h-117zM344 520q0 -154 77 -250t241 -96q49 0 99 15.5t92 44t67.5 70.5t25.5 95v287q0 45 -27.5 82t-68.5 62.5t-89 40 t-89 14.5q-90 0 -152.5 -29t-101.5 -78t-56.5 -115.5t-17.5 -142.5z" />
<glyph unicode="&#xe4;" horiz-adv-x="1325" d="M76 520q0 121 39 224.5t110.5 179t172 118.5t223.5 43q96 0 180 -30.5t145 -89.5v94h268v-1059h-268v106q-59 -63 -145 -98t-191 -35q-117 0 -215 41t-168.5 114t-110.5 173t-40 219zM281 1286q0 33 14 60.5t38.5 47t55.5 30t62 10.5t60.5 -10.5t54 -30t38.5 -47 t14 -60.5q0 -35 -14 -61.5t-38.5 -46t-54.5 -29.5t-60 -10q-31 0 -62 10t-55.5 29.5t-38.5 46t-14 61.5zM344 520q0 -154 77 -250t241 -96q49 0 99 15.5t92 44t67.5 70.5t25.5 95v287q0 45 -27.5 82t-68.5 62.5t-89 40t-89 14.5q-90 0 -152.5 -29t-101.5 -78t-56.5 -115.5 t-17.5 -142.5zM735 1286q0 33 14.5 60.5t39 47t55 30t61.5 10.5t61.5 -10.5t55.5 -30t39 -47t14 -60.5q0 -35 -14 -61.5t-39 -46t-55.5 -29.5t-61.5 -10t-61.5 10t-55 29.5t-39 46t-14.5 61.5z" />
<glyph unicode="&#xe5;" horiz-adv-x="1325" d="M76 520q0 121 39 224.5t110.5 179t172 118.5t223.5 43q96 0 180 -30.5t145 -89.5v94h268v-1059h-268v106q-59 -63 -145 -98t-191 -35q-117 0 -215 41t-168.5 114t-110.5 173t-40 219zM344 520q0 -154 77 -250t241 -96q49 0 99 15.5t92 44t67.5 70.5t25.5 95v287 q0 45 -27.5 82t-68.5 62.5t-89 40t-89 14.5q-90 0 -152.5 -29t-101.5 -78t-56.5 -115.5t-17.5 -142.5zM410 1368q0 43 17 82t46 67.5t68 45t82 16.5t80.5 -16.5t67.5 -46t46.5 -67.5t16.5 -81t-16.5 -81t-45.5 -67.5t-67.5 -46t-81.5 -16.5t-82 16.5t-68 46t-46 67.5t-17 81 zM502 1368q0 -47 36.5 -83t84.5 -36q47 0 82.5 36t35.5 83t-35.5 83t-82.5 36t-84 -35t-37 -84z" />
<glyph unicode="&#xe6;" horiz-adv-x="2058" d="M76 520q0 121 39 224.5t110.5 179t172 118.5t223.5 43q96 0 180 -30.5t145 -89.5v94h205v-131q55 72 140 114.5t198 42.5q94 0 179 -24.5t151.5 -74.5t109.5 -125t53 -173l-757 -276q16 -98 78.5 -168t181.5 -70q100 0 165.5 63.5t73.5 161.5h258q-12 -102 -55 -181 t-108.5 -133t-151.5 -83t-186 -29q-109 0 -192 42t-138 108v-123h-205v106q-59 -63 -145 -98t-191 -35q-117 0 -215 41t-168.5 114t-110.5 173t-40 219zM344 520q0 -154 77 -250t241 -96q49 0 99 15.5t92 44t67.5 70.5t25.5 95v287q0 45 -27.5 82t-68.5 62.5t-89 40 t-89 14.5q-90 0 -152.5 -29t-101.5 -78t-56.5 -115.5t-17.5 -142.5zM1219 569l487 179q-25 66 -80 101.5t-131 35.5q-70 0 -120 -23.5t-84 -63.5t-51 -93.5t-19 -112.5q0 -4 -1 -11.5t-1 -11.5z" />
<glyph unicode="&#xe7;" horiz-adv-x="1187" d="M76 520q0 121 39 224.5t109.5 179t172 118.5t224.5 43q92 0 177 -24.5t151.5 -74.5t109.5 -125t53 -175h-256q-12 96 -74.5 147.5t-156.5 51.5q-80 0 -134.5 -31t-87 -82t-46 -116.5t-13.5 -135.5q0 -66 14.5 -128t46 -110.5t84 -78t127.5 -29.5q98 0 164 63.5t76 161.5 h256q-12 -96 -50 -171.5t-98.5 -129t-138 -85t-170.5 -38.5l-67 -102q33 12 82 12q35 0 68.5 -8t59 -26.5t42 -47t16.5 -67.5q0 -51 -21.5 -85t-56.5 -53.5t-78 -27.5t-86 -8q-72 0 -127 14t-114 35l35 74q41 -12 81.5 -24.5t83.5 -12.5q45 0 86 18.5t41 69.5 q0 37 -32.5 56.5t-65.5 19.5q-51 0 -90 -25l-45 39l98 149q-111 8 -201 52.5t-154.5 117t-99 169t-34.5 206.5z" />
<glyph unicode="&#xe8;" horiz-adv-x="1116" d="M76 520q0 121 39 224.5t109.5 179t172 118.5t224.5 43q92 0 177 -24.5t151.5 -74.5t109.5 -125t53 -173l-758 -276q16 -98 79 -168t183 -70q98 0 164 63.5t76 161.5h256q-12 -102 -55 -181t-108.5 -133t-151.5 -83t-187 -29q-119 0 -217 42t-168.5 115t-109.5 173 t-39 217zM330 1464h288l226 -301l-189 -2zM350 569l486 179q-23 66 -78.5 101.5t-132.5 35.5q-70 0 -120 -23.5t-83 -63.5t-50.5 -93.5t-21.5 -112.5v-23z" />
<glyph unicode="&#xe9;" horiz-adv-x="1116" d="M76 520q0 121 39 224.5t109.5 179t172 118.5t224.5 43q92 0 177 -24.5t151.5 -74.5t109.5 -125t53 -173l-758 -276q16 -98 79 -168t183 -70q98 0 164 63.5t76 161.5h256q-12 -102 -55 -181t-108.5 -133t-151.5 -83t-187 -29q-119 0 -217 42t-168.5 115t-109.5 173 t-39 217zM350 569l486 179q-23 66 -78.5 101.5t-132.5 35.5q-70 0 -120 -23.5t-83 -63.5t-50.5 -93.5t-21.5 -112.5v-23zM356 1161l230 303h288l-331 -303h-187z" />
<glyph unicode="&#xea;" horiz-adv-x="1116" d="M76 520q0 121 39 224.5t109.5 179t172 118.5t224.5 43q92 0 177 -24.5t151.5 -74.5t109.5 -125t53 -173l-758 -276q16 -98 79 -168t183 -70q98 0 164 63.5t76 161.5h256q-12 -102 -55 -181t-108.5 -133t-151.5 -83t-187 -29q-119 0 -217 42t-168.5 115t-109.5 173 t-39 217zM266 1165l242 299h221l244 -299h-205l-152 193l-147 -193h-203zM350 569l486 179q-23 66 -78.5 101.5t-132.5 35.5q-70 0 -120 -23.5t-83 -63.5t-50.5 -93.5t-21.5 -112.5v-23z" />
<glyph unicode="&#xeb;" horiz-adv-x="1116" d="M76 520q0 121 39 224.5t109.5 179t172 118.5t224.5 43q92 0 177 -24.5t151.5 -74.5t109.5 -125t53 -173l-758 -276q16 -98 79 -168t183 -70q98 0 164 63.5t76 161.5h256q-12 -102 -55 -181t-108.5 -133t-151.5 -83t-187 -29q-119 0 -217 42t-168.5 115t-109.5 173 t-39 217zM227 1286q0 33 14.5 60.5t39 47t55.5 30t61 10.5q31 0 60.5 -10.5t54.5 -30t39 -47t14 -60.5q0 -35 -14 -61.5t-39 -46t-54.5 -29.5t-60.5 -10t-61.5 10t-55 29.5t-39 46t-14.5 61.5zM350 569l486 179q-23 66 -78.5 101.5t-132.5 35.5q-70 0 -120 -23.5t-83 -63.5 t-50.5 -93.5t-21.5 -112.5v-23zM682 1286q0 33 14.5 60.5t39 47t55 30t61.5 10.5t61.5 -10.5t55 -30t39 -47t14.5 -60.5q0 -35 -14.5 -61.5t-39 -46t-55 -29.5t-61.5 -10t-61.5 10t-55 29.5t-39 46t-14.5 61.5z" />
<glyph unicode="&#xec;" horiz-adv-x="489" d="M-14 1464h286l226 -301l-187 -2zM111 0v1059h268v-1059h-268z" />
<glyph unicode="&#xed;" horiz-adv-x="489" d="M-2 1161l229 303h289l-332 -303h-186zM111 0v1059h268v-1059h-268z" />
<glyph unicode="&#xee;" horiz-adv-x="489" d="M-100 1165l241 299h221l244 -299h-203l-153 193l-148 -193h-202zM111 0v1059h268v-1059h-268z" />
<glyph unicode="&#xef;" horiz-adv-x="489" d="M-139 1286q0 33 14 60.5t39 47t55.5 30t61.5 10.5t61.5 -10.5t55 -30t39 -47t14.5 -60.5q0 -35 -14.5 -61.5t-39 -46t-55.5 -29.5t-61 -10q-31 0 -61.5 10t-55.5 29.5t-39 46t-14 61.5zM111 0v1059h268v-1059h-268zM317 1286q0 33 14.5 60.5t39 47t54.5 30t60 10.5 q31 0 62 -10.5t55.5 -30t38.5 -47t14 -60.5q0 -35 -14 -61.5t-38.5 -46t-55.5 -29.5t-62 -10t-60.5 10t-54 29.5t-39 46t-14.5 61.5z" />
<glyph unicode="&#xf0;" horiz-adv-x="1230" d="M76 508q0 111 34.5 204t98 162.5t155 108.5t203.5 39q66 0 132.5 -19.5t113.5 -60.5q-41 70 -102.5 136.5t-124.5 119.5l-172 -94l-105 110l148 82q-55 51 -111 84l193 117q10 -6 28.5 -18.5t38 -25.5t38 -26.5t26.5 -19.5l159 90l109 -111l-145 -81q78 -74 144.5 -156 t114.5 -174t75.5 -192.5t27.5 -211.5q0 -129 -34 -238.5t-101.5 -189.5t-168.5 -125t-237 -45q-123 0 -222 37t-169.5 105.5t-108.5 168t-38 224.5zM344 512q0 -63 15.5 -123.5t48 -109t84 -77t122.5 -28.5q74 0 125.5 28.5t84 77t48 109t15.5 123.5t-15.5 123.5t-48 106.5 t-85 74t-124.5 28t-123 -28t-83.5 -74t-48 -106.5t-15.5 -123.5z" />
<glyph unicode="&#xf1;" horiz-adv-x="1212" d="M111 0v1059h268v-170q57 104 145 150t209 46q168 0 268.5 -99t100.5 -269v-717h-268v608q0 53 -10.5 100.5t-35 83t-64.5 56t-99 20.5q-63 0 -109.5 -24.5t-77 -64.5t-45 -94t-14.5 -112v-573h-268zM270 1174q0 39 10.5 81.5t35 78.5t61.5 59.5t88 23.5q43 0 85 -15.5 t81 -32.5t70.5 -32.5t56.5 -15.5q82 0 94 96h121q-2 -47 -15.5 -90t-38 -75.5t-61.5 -51t-86 -18.5q-45 0 -84 14t-74.5 31.5t-70.5 32t-68 14.5q-37 0 -60.5 -34t-27.5 -66h-117z" />
<glyph unicode="&#xf2;" horiz-adv-x="1230" d="M76 530q0 109 32.5 209.5t100 177t169 122.5t238.5 46t238.5 -46t168.5 -122.5t99.5 -177t32.5 -209.5q0 -111 -32.5 -211t-99.5 -176.5t-168 -123t-239 -46.5q-137 0 -238.5 46.5t-169 123t-100 177t-32.5 210.5zM336 1464h289l223 -301l-186 -2zM344 530 q0 -63 14.5 -126.5t46 -114.5t84 -83t127.5 -32q76 0 127.5 32t83 83t46 114.5t14.5 126.5t-14.5 126t-46 114t-83 83t-127.5 32t-128 -32t-83.5 -83t-46 -113.5t-14.5 -126.5z" />
<glyph unicode="&#xf3;" horiz-adv-x="1230" d="M76 530q0 109 32.5 209.5t100 177t169 122.5t238.5 46t238.5 -46t168.5 -122.5t99.5 -177t32.5 -209.5q0 -111 -32.5 -211t-99.5 -176.5t-168 -123t-239 -46.5q-137 0 -238.5 46.5t-169 123t-100 177t-32.5 210.5zM344 530q0 -63 14.5 -126.5t46 -114.5t84 -83t127.5 -32 q76 0 127.5 32t83 83t46 114.5t14.5 126.5t-14.5 126t-46 114t-83 83t-127.5 32t-128 -32t-83.5 -83t-46 -113.5t-14.5 -126.5zM391 1161l227 303h291l-334 -303h-184z" />
<glyph unicode="&#xf4;" horiz-adv-x="1230" d="M76 530q0 109 32.5 209.5t100 177t169 122.5t238.5 46t238.5 -46t168.5 -122.5t99.5 -177t32.5 -209.5q0 -111 -32.5 -211t-99.5 -176.5t-168 -123t-239 -46.5q-137 0 -238.5 46.5t-169 123t-100 177t-32.5 210.5zM258 1165l242 299h221l244 -299h-203l-154 193 l-147 -193h-203zM344 530q0 -63 14.5 -126.5t46 -114.5t84 -83t127.5 -32q76 0 127.5 32t83 83t46 114.5t14.5 126.5t-14.5 126t-46 114t-83 83t-127.5 32t-128 -32t-83.5 -83t-46 -113.5t-14.5 -126.5z" />
<glyph unicode="&#xf5;" horiz-adv-x="1230" d="M76 530q0 109 32.5 209.5t100 177t169 122.5t238.5 46t238.5 -46t168.5 -122.5t99.5 -177t32.5 -209.5q0 -111 -32.5 -211t-99.5 -176.5t-168 -123t-239 -46.5q-137 0 -238.5 46.5t-169 123t-100 177t-32.5 210.5zM258 1174q0 39 11.5 81.5t35 78.5t61 59.5t89.5 23.5 q43 0 85 -15.5t79.5 -32.5t70.5 -32.5t55 -15.5q82 0 97 96h121q-2 -47 -15.5 -90t-39 -75.5t-62.5 -51t-86 -18.5q-43 0 -83 14t-76 31.5t-69.5 32t-66.5 14.5q-39 0 -62.5 -34t-27.5 -66h-117zM344 530q0 -63 14.5 -126.5t46 -114.5t84 -83t127.5 -32q76 0 127.5 32t83 83 t46 114.5t14.5 126.5t-14.5 126t-46 114t-83 83t-127.5 32t-128 -32t-83.5 -83t-46 -113.5t-14.5 -126.5z" />
<glyph unicode="&#xf6;" horiz-adv-x="1230" d="M76 530q0 109 32.5 209.5t100 177t169 122.5t238.5 46t238.5 -46t168.5 -122.5t99.5 -177t32.5 -209.5q0 -111 -32.5 -211t-99.5 -176.5t-168 -123t-239 -46.5q-137 0 -238.5 46.5t-169 123t-100 177t-32.5 210.5zM219 1286q0 33 14.5 60.5t39 47t55 30t61.5 10.5 t61.5 -10.5t55 -30t39 -47t14.5 -60.5q0 -35 -14.5 -61.5t-39 -46t-55 -29.5t-61.5 -10t-61.5 10t-55 29.5t-39 46t-14.5 61.5zM344 530q0 -63 14.5 -126.5t46 -114.5t84 -83t127.5 -32q76 0 127.5 32t83 83t46 114.5t14.5 126.5t-14.5 126t-46 114t-83 83t-127.5 32 t-128 -32t-83.5 -83t-46 -113.5t-14.5 -126.5zM676 1286q0 33 14.5 60.5t39 47t54 30t60.5 10.5t61.5 -10.5t55 -30t39 -47t14.5 -60.5q0 -35 -14.5 -61.5t-39 -46t-55.5 -29.5t-61 -10q-31 0 -60.5 10t-54 29.5t-39 46t-14.5 61.5z" />
<glyph unicode="&#xf7;" horiz-adv-x="1218" d="M92 631v213h1034v-213h-1034zM449 309q0 68 47 115t114 47q66 0 113 -47t47 -115q0 -66 -44 -114t-116 -48t-116.5 48.5t-44.5 113.5zM449 1165q0 68 47 115t114 47q66 0 113 -48t47 -114q0 -68 -44 -114.5t-116 -46.5t-116.5 47t-44.5 114z" />
<glyph unicode="&#xf8;" horiz-adv-x="1230" d="M76 530q0 109 32.5 209.5t100 177t169 122.5t238.5 46q109 0 194 -30.5t151 -85.5l98 110l55 -49l-96 -110q70 -76 103.5 -176.5t33.5 -213.5q0 -111 -32.5 -211t-99.5 -176.5t-168 -123t-239 -46.5q-111 0 -194.5 31t-149.5 84l-114 -127l-58 53l115 125 q-72 78 -105.5 179.5t-33.5 211.5zM344 530q0 -53 9 -103t32 -93l424 463q-31 41 -79 64.5t-114 23.5q-76 0 -128 -32t-83.5 -83t-46 -113.5t-14.5 -126.5zM424 262q31 -41 79 -64.5t113 -23.5q76 0 127.5 32t83 83t46 114.5t14.5 126.5q0 51 -10.5 99.5t-32.5 93.5z" />
<glyph unicode="&#xf9;" horiz-adv-x="1212" d="M111 342v717h268v-608q0 -53 10 -100.5t35 -82.5t64.5 -55t99.5 -20q63 0 109 23.5t76 64.5t44 93t14 111v574h271v-1059h-268v170q-59 -104 -147.5 -150.5t-207.5 -46.5q-168 0 -268 100.5t-100 268.5zM311 1464h289l223 -301l-186 -2z" />
<glyph unicode="&#xfa;" horiz-adv-x="1212" d="M111 342v717h268v-608q0 -53 10 -100.5t35 -82.5t64.5 -55t99.5 -20q63 0 109 23.5t76 64.5t44 93t14 111v574h271v-1059h-268v170q-59 -104 -147.5 -150.5t-207.5 -46.5q-168 0 -268 100.5t-100 268.5zM367 1161l227 303h291l-334 -303h-184z" />
<glyph unicode="&#xfb;" horiz-adv-x="1212" d="M111 342v717h268v-608q0 -53 10 -100.5t35 -82.5t64.5 -55t99.5 -20q63 0 109 23.5t76 64.5t44 93t14 111v574h271v-1059h-268v170q-59 -104 -147.5 -150.5t-207.5 -46.5q-168 0 -268 100.5t-100 268.5zM248 1165l241 299h224l243 -299h-204l-152 193l-147 -193h-205z " />
<glyph unicode="&#xfc;" horiz-adv-x="1212" d="M111 342v717h268v-608q0 -53 10 -100.5t35 -82.5t64.5 -55t99.5 -20q63 0 109 23.5t76 64.5t44 93t14 111v574h271v-1059h-268v170q-59 -104 -147.5 -150.5t-207.5 -46.5q-168 0 -268 100.5t-100 268.5zM217 1286q0 33 14.5 60.5t39 47t55 30t61.5 10.5t60.5 -10.5 t54 -30t39 -47t14.5 -60.5q0 -35 -14.5 -61.5t-39 -46t-54 -29.5t-60.5 -10t-61.5 10t-55 29.5t-39 46t-14.5 61.5zM672 1286q0 33 14 60.5t39 47t55.5 30t61.5 10.5t61.5 -10.5t55 -30t39 -47t14.5 -60.5q0 -35 -14.5 -61.5t-39 -46t-55.5 -29.5t-61 -10q-31 0 -61.5 10 t-55.5 29.5t-39 46t-14 61.5z" />
<glyph unicode="&#xfd;" horiz-adv-x="1212" d="M94 -111h266q12 -84 77 -132t147 -48q66 0 112.5 24.5t77.5 65.5t45.5 94.5t14.5 110.5v166q-59 -104 -147.5 -150.5t-207.5 -46.5q-168 0 -268 100.5t-100 268.5v717h268v-608q0 -53 10 -100.5t35 -82.5t64.5 -55t99.5 -20q63 0 109 23.5t76 64.5t44 93t14 111v574h271 v-1041q0 -90 -21.5 -175t-79 -151.5t-155.5 -107.5t-254 -41q-90 0 -175 16.5t-153.5 56.5t-115 106.5t-54.5 166.5zM381 1180l229 301h289l-332 -301h-186z" />
<glyph unicode="&#xfe;" horiz-adv-x="1325" d="M111 -422v1897h268v-510q61 59 145 89.5t181 30.5q123 0 223 -43t171.5 -117.5t110.5 -178t39 -226.5q0 -119 -40 -219t-110.5 -173t-169 -114t-214.5 -41q-104 0 -190.5 35t-145.5 98v-528h-268zM379 399q0 -53 25.5 -95t67.5 -70.5t92 -44t100 -15.5q164 0 240.5 96 t76.5 250q0 76 -17.5 142.5t-56.5 115.5t-101.5 78t-152.5 29q-41 0 -89 -14.5t-89 -40t-68.5 -61.5t-27.5 -81v-289z" />
<glyph unicode="&#xff;" horiz-adv-x="1212" d="M94 -111h266q12 -84 77 -132t147 -48q66 0 112.5 24.5t77.5 65.5t45.5 94.5t14.5 110.5v166q-59 -104 -147.5 -150.5t-207.5 -46.5q-168 0 -268 100.5t-100 268.5v717h268v-608q0 -53 10 -100.5t35 -82.5t64.5 -55t99.5 -20q63 0 109 23.5t76 64.5t44 93t14 111v574h271 v-1041q0 -90 -21.5 -175t-79 -151.5t-155.5 -107.5t-254 -41q-90 0 -175 16.5t-153.5 56.5t-115 106.5t-54.5 166.5zM217 1303q0 33 14.5 60.5t39 48t54 30.5t60.5 10t61.5 -10t55 -30.5t39 -48t14.5 -60.5t-14.5 -61t-39 -47t-55 -29.5t-61.5 -10.5t-60.5 10.5t-54 29.5 t-39 47t-14.5 61zM672 1303q0 33 14 60.5t39 48t55.5 30.5t61.5 10t60.5 -10t54 -30.5t39 -48t14.5 -60.5t-14.5 -61t-39 -47t-54.5 -29.5t-60 -10.5q-31 0 -61.5 10.5t-55.5 29.5t-39 47t-14 61z" />
<glyph unicode="&#x152;" horiz-adv-x="2230" d="M76 733q0 164 48 306.5t140 247t226.5 163.5t306.5 59q111 0 216 -38.5t173 -108.5v113h950v-250h-680v-371h617v-233h-617v-371h696v-250h-966v162q-66 -90 -165 -143.5t-235 -53.5q-166 0 -298 59.5t-224 164t-140 244.5t-48 300zM373 733q0 -94 23.5 -187t72.5 -168 t126 -122t185 -47q84 0 147.5 27.5t108.5 76.5t72 116t39 144v396q-8 68 -40 123t-81 93t-109.5 59.5t-125.5 21.5q-111 0 -190 -47.5t-130 -123t-74.5 -171t-23.5 -191.5z" />
<glyph unicode="&#x153;" horiz-adv-x="1998" d="M76 530q0 109 32.5 209.5t100 177t169 122.5t238.5 46q147 0 250 -61t160 -158q61 98 162.5 157.5t243.5 59.5q94 0 179 -24.5t151.5 -74.5t108.5 -125t52 -173l-758 -276q16 -98 80 -168t182 -70q100 0 165 64.5t75 162.5h256q-12 -102 -55 -181t-108.5 -133t-151.5 -83 t-187 -29q-135 0 -235.5 58.5t-161.5 154.5q-59 -94 -160.5 -153.5t-247.5 -59.5q-137 0 -238.5 46.5t-169 123t-100 177t-32.5 210.5zM344 530q0 -63 14.5 -126.5t46 -114.5t84 -83t127.5 -32q76 0 127.5 32t83 83t46 114.5t14.5 126.5t-14.5 126t-46 114t-83 83t-127.5 32 t-128 -32t-83.5 -83t-46 -113.5t-14.5 -126.5zM1161 569l486 176q-23 66 -78.5 103t-132.5 37q-70 0 -120 -23.5t-83 -63.5t-50.5 -94.5t-21.5 -113.5v-21z" />
<glyph unicode="&#x178;" d="M111 1100v375h297v-340q0 -51 7 -101.5t27.5 -90.5t58.5 -64.5t97 -24.5q61 0 98 24.5t57.5 64.5t27.5 90t7 102v340h297v-375q0 -199 -86 -313.5t-251 -147.5v-639h-297v639q-340 66 -340 461zM203 1690q0 33 14 60.5t39 47t55.5 29.5t61.5 10t60.5 -10t54 -29.5t39 -47 t14.5 -60.5q0 -35 -14.5 -61.5t-39 -46t-54.5 -30t-60 -10.5q-31 0 -61.5 10.5t-55.5 30t-39 46t-14 61.5zM657 1690q0 33 14.5 60.5t39 47t55.5 29.5t61 10q31 0 61 -10t54.5 -29.5t38.5 -47t14 -60.5q0 -35 -14 -61.5t-38.5 -46t-54.5 -30t-61 -10.5t-61.5 10.5t-55 30 t-39 46t-14.5 61.5z" />
<glyph unicode="&#x2c6;" horiz-adv-x="0" d="M262 1165l242 299h221l244 -299h-203l-152 193l-147 -193h-205z" />
<glyph unicode="&#x2dc;" horiz-adv-x="0" d="M264 1174q0 39 11.5 81.5t35 78.5t61.5 59.5t89 23.5q43 0 85 -15.5t80 -32.5t70.5 -32.5t55.5 -15.5q82 0 96 96h119q0 -47 -13.5 -90t-39 -75.5t-62.5 -51t-86 -18.5q-45 0 -84 14t-75 31.5t-69.5 32t-66.5 14.5q-39 0 -62.5 -34t-27.5 -66h-117z" />
<glyph unicode="&#x2000;" horiz-adv-x="974" />
<glyph unicode="&#x2001;" horiz-adv-x="1948" />
<glyph unicode="&#x2002;" horiz-adv-x="974" />
<glyph unicode="&#x2003;" horiz-adv-x="1948" />
<glyph unicode="&#x2004;" horiz-adv-x="649" />
<glyph unicode="&#x2005;" horiz-adv-x="487" />
<glyph unicode="&#x2006;" horiz-adv-x="324" />
<glyph unicode="&#x2007;" horiz-adv-x="324" />
<glyph unicode="&#x2008;" horiz-adv-x="243" />
<glyph unicode="&#x2009;" horiz-adv-x="389" />
<glyph unicode="&#x200a;" horiz-adv-x="108" />
<glyph unicode="&#x2010;" horiz-adv-x="718" d="M92 434v225h535v-225h-535z" />
<glyph unicode="&#x2011;" horiz-adv-x="718" d="M92 434v225h535v-225h-535z" />
<glyph unicode="&#x2012;" horiz-adv-x="718" d="M92 434v225h535v-225h-535z" />
<glyph unicode="&#x2013;" horiz-adv-x="1208" d="M92 438v219h1024v-219h-1024z" />
<glyph unicode="&#x2014;" horiz-adv-x="2232" d="M92 438v219h2048v-219h-2048z" />
<glyph unicode="&#x2018;" horiz-adv-x="512" d="M0 1393l182 106l330 -569l-182 -107z" />
<glyph unicode="&#x2019;" horiz-adv-x="512" d="M0 930l330 569l182 -106l-330 -570z" />
<glyph unicode="&#x201a;" horiz-adv-x="512" d="M0 -233l330 569l182 -105l-330 -571z" />
<glyph unicode="&#x201c;" horiz-adv-x="866" d="M0 1393l182 106l330 -569l-182 -107zM354 1393l185 106l327 -569l-182 -107z" />
<glyph unicode="&#x201d;" horiz-adv-x="866" d="M0 930l330 569l182 -106l-330 -570zM354 930l330 569l182 -106l-327 -570z" />
<glyph unicode="&#x201e;" horiz-adv-x="870" d="M0 -233l330 569l182 -105l-330 -571zM358 -233l330 569l182 -105l-329 -571z" />
<glyph unicode="&#x2022;" horiz-adv-x="745" d="M76 737q0 61 23.5 115.5t63.5 94.5t94 63.5t116 23.5q61 0 115.5 -23.5t94.5 -63.5t63.5 -94.5t23.5 -115.5t-23.5 -116.5t-63.5 -95.5t-94.5 -63.5t-115.5 -23.5t-115.5 23.5t-94.5 63.5t-63.5 95.5t-23.5 116.5z" />
<glyph unicode="&#x2026;" horiz-adv-x="2048" d="M172 133q0 33 14.5 60.5t39 47t55 30t61.5 10.5t61.5 -10.5t55 -30t39 -47t14.5 -60.5q0 -35 -14.5 -61.5t-39 -47t-55 -30.5t-61.5 -10t-61.5 10t-55 30.5t-39 47t-14.5 61.5zM854 133q0 33 14.5 60.5t39 47t55 30t61.5 10.5t61.5 -10.5t55 -30t39 -47t14.5 -60.5 q0 -35 -14.5 -61.5t-39 -47t-55 -30.5t-61.5 -10t-61.5 10t-55 30.5t-39 47t-14.5 61.5zM1536 133q0 33 14.5 60.5t39 47t55 30t61.5 10.5t61.5 -10.5t55 -30t39 -47t14.5 -60.5q0 -35 -14.5 -61.5t-39 -47t-55 -30.5t-61.5 -10t-61.5 10t-55 30.5t-39 47t-14.5 61.5z" />
<glyph unicode="&#x202f;" horiz-adv-x="389" />
<glyph unicode="&#x2039;" horiz-adv-x="473" d="M92 618v238l289 272v-223l-164 -168l164 -164v-227z" />
<glyph unicode="&#x203a;" horiz-adv-x="473" d="M92 346v223l164 168l-164 164v227l289 -272v-238z" />
<glyph unicode="&#x205f;" horiz-adv-x="487" />
<glyph unicode="&#x2122;" horiz-adv-x="1798" d="M76 1319q0 29 5 57.5t20.5 50t44 35t75.5 13.5h520v-144h-247v-667h-170v667h-58q-45 0 -60.5 -16.5t-15.5 -52.5zM772 664v565q0 133 68.5 198.5t201.5 65.5q57 0 104.5 -15.5t82.5 -50.5q35 35 83 50.5t103 15.5q133 0 203 -65.5t70 -198.5v-565h-170v544 q0 57 -19.5 103.5t-83.5 46.5q-33 0 -52.5 -12.5t-30.5 -34t-14 -48t-3 -55.5v-544h-170v544q0 57 -19.5 103.5t-83.5 46.5q-33 0 -52 -12.5t-30.5 -34t-14.5 -48t-3 -55.5v-544h-170z" />
<glyph unicode="&#x25fc;" horiz-adv-x="1054" d="M0 0v1055h1055v-1055h-1055z" />
<glyph unicode="&#xfb01;" horiz-adv-x="980" d="M0 870v170h111v193q0 88 25.5 142.5t66.5 83t93 37.5t105 9q59 0 106.5 -4t94.5 -6v-207q-37 6 -92 6q-33 0 -57.5 -4t-41 -18.5t-24.5 -41t-8 -71.5v-100h491v-1059h-270v870h-221v-870h-268v870h-111z" />
<glyph unicode="&#xfb02;" horiz-adv-x="980" d="M0 870v170h111v193q0 88 25.5 142.5t66.5 83t93 37.5t105 9q47 0 96.5 -11t94.5 -11q76 -2 137 -2q53 0 95 -1t46 -1v-1479h-270v1288q-18 4 -43 5t-47 1q-66 0 -98.5 -27.5t-32.5 -115.5v-92h110v-189h-110v-870h-268v870h-111z" />
</font>
</defs>
</svg>
