<?xml version="1.0" standalone="no"?>
<!DOCTYPE svg PUBLIC "-//W3C//DTD SVG 1.1//EN" "http://www.w3.org/Graphics/SVG/1.1/DTD/svg11.dtd" >
<svg xmlns="http://www.w3.org/2000/svg" xmlns:xlink="http://www.w3.org/1999/xlink" version="1.1">
<metadata></metadata>
<defs>
<font id="clementepdaqultrabold" horiz-adv-x="1306" >
<font-face units-per-em="2048" ascent="1638" descent="-410" />
<missing-glyph horiz-adv-x="684" />
<glyph horiz-adv-x="0" />
<glyph unicode="&#xd;" horiz-adv-x="0" />
<glyph unicode=" "  horiz-adv-x="684" />
<glyph unicode="&#x09;" horiz-adv-x="684" />
<glyph unicode="&#xa0;" horiz-adv-x="684" />
<glyph unicode="!" horiz-adv-x="626" d="M76 178q0 47 20.5 85t54 63.5t76.5 40t86 14.5t85 -14.5t76 -40t55.5 -63.5t21.5 -85t-21.5 -85t-55.5 -63.5t-76 -40t-85 -14.5t-86 14.5t-76.5 40t-54 63.5t-20.5 85zM78 1475h469l-133 -1018h-201z" />
<glyph unicode="&#x22;" horiz-adv-x="958" d="M111 698v777h313v-777h-313zM535 698v777h313v-777h-313z" />
<glyph unicode="#" horiz-adv-x="1005" d="M0 426l33 240h143l21 143h-144l35 240h143l60 426h244l-60 -426h143l60 426h244l-60 -426h144l-35 -240h-144l-20 -143h143l-32 -240h-144l-59 -426h-244l59 426h-143l-59 -426h-244l59 426h-143zM420 666h143l21 143h-144z" />
<glyph unicode="$" horiz-adv-x="1169" d="M51 555h387q4 -66 51.5 -96.5t106.5 -30.5q20 0 44 4t44.5 13.5t34.5 25.5t14 39t-8 39t-32.5 28.5t-68.5 22.5t-114 23q-231 39 -332.5 117.5t-101.5 215.5q0 82 33.5 141.5t87 98.5t122 60.5t138.5 31.5v187h239v-185q74 -8 143.5 -29.5t125 -59.5t90.5 -97.5 t39 -145.5h-369q-4 51 -47 82t-90 31q-43 0 -83 -15.5t-40 -66.5q0 -33 52 -54.5t122 -36.5t135.5 -26.5t93.5 -19.5q51 -16 97.5 -40t81 -59.5t55 -83.5t20.5 -114q0 -94 -35.5 -160.5t-94 -110.5t-136.5 -67.5t-160 -32.5v-184h-239v188q-78 10 -151 37t-128 71t-90 108.5 t-37 150.5z" />
<glyph unicode="%" horiz-adv-x="1734" d="M76 1085q0 86 20.5 157t64.5 123t112.5 81t162.5 29h848v-179l-709 -1296h-225l709 1296h-303q41 -92 41 -211q0 -86 -20.5 -156.5t-64.5 -122.5t-113 -81t-163 -29t-162.5 29t-112.5 81t-64.5 122.5t-20.5 156.5zM342 1085q0 -35 1 -72.5t10 -68.5t28.5 -50.5 t54.5 -19.5t54.5 19.5t28.5 50.5t10 68.5t1 72.5t-1 73t-10 68.5t-28.5 50t-54.5 19.5t-54.5 -19.5t-28.5 -50t-10 -68.5t-1 -73zM938 365q0 86 20.5 156.5t64.5 122.5t112.5 81t162.5 29t163 -29t113 -81t64.5 -122.5t20.5 -156.5t-20.5 -157t-64.5 -123t-112.5 -81 t-163.5 -29q-94 0 -162.5 29t-112.5 81t-64.5 123t-20.5 157zM1204 365q0 -35 1 -73t10.5 -68.5t29 -50t53.5 -19.5q35 0 54.5 19.5t29 50t10.5 68.5t1 73t-1 72.5t-10.5 68.5t-29 50t-54.5 19t-54 -19t-28.5 -50t-10.5 -69t-1 -72z" />
<glyph unicode="&#x26;" horiz-adv-x="1800" d="M31 440q0 51 14 111.5t44 113t75 88t106 40.5q-61 10 -99 49t-59.5 88t-28.5 100t-7 86q0 98 56 171t139 120t179.5 69.5t176.5 22.5q123 0 230.5 -29.5t187 -91t127 -158t49.5 -229.5h-385q2 43 -12.5 79t-42 61.5t-64.5 40t-78 14.5q-31 0 -63.5 -9.5t-60.5 -26.5 t-45 -44t-17 -62q0 -41 17 -68.5t45 -44t62.5 -24.5t69.5 -8h37v-260h-37q-80 0 -135 -38t-55 -126q0 -45 32.5 -77.5t80.5 -54t102.5 -33t97.5 -11.5q61 0 123.5 17.5t113 49t81 77.5t30.5 106h-20q-63 0 -92 -20.5t-29 -86.5l-270 144q0 55 7 110.5t34.5 100.5t82 72.5 t148.5 27.5h430q66 0 94.5 20.5t28.5 86.5l268 -144q0 -55 -7 -110.5t-34.5 -100.5t-82 -72.5t-148.5 -27.5h-21q16 -160 -40 -269.5t-162.5 -177t-251 -97.5t-301.5 -30q-131 0 -260.5 26t-231.5 81t-165.5 143t-63.5 215z" />
<glyph unicode="'" horiz-adv-x="534" d="M111 698v777h313v-777h-313z" />
<glyph unicode="(" horiz-adv-x="647" d="M76 518q0 256 54 491.5t167 465.5h350q-94 -238 -138 -469.5t-44 -487.5q0 -127 11 -245.5t33.5 -233.5t56.5 -228.5t81 -232.5h-350q-109 231 -165 457.5t-56 482.5z" />
<glyph unicode=")" horiz-adv-x="647" d="M0 -422q94 238 138 469.5t44 487.5q0 254 -45 478t-137 462h350q109 -231 165 -457.5t56 -482.5t-54 -492t-167 -465h-350z" />
<glyph unicode="*" horiz-adv-x="858" d="M0 1073l76 234l252 -103l-21 271h246l-21 -271l250 103l76 -234l-264 -63l176 -207l-199 -146l-141 232l-143 -232l-199 146l176 207z" />
<glyph unicode="+" horiz-adv-x="1218" d="M92 580v313h361v362h313v-360h360v-313h-360v-363h-313v361h-361z" />
<glyph unicode="," horiz-adv-x="659" d="M0 -256l387 672l272 -158l-387 -672z" />
<glyph unicode="-" horiz-adv-x="825" d="M92 379v336h641v-336h-641z" />
<glyph unicode="." horiz-adv-x="626" d="M76 178q0 47 20.5 85t54 63.5t76.5 40t86 14.5t85 -14.5t76 -40t55.5 -63.5t21.5 -85t-21.5 -85t-55.5 -63.5t-76 -40t-85 -14.5t-86 14.5t-76.5 40t-54 63.5t-20.5 85z" />
<glyph unicode="/" horiz-adv-x="862" d="M0 0l551 1475h311l-551 -1475h-311z" />
<glyph unicode="0" horiz-adv-x="1552" d="M164 737q0 137 37 273.5t112.5 245t189 176t265.5 67.5q154 0 267.5 -67.5t189 -175t113.5 -245t38 -274.5t-38 -273t-112.5 -244.5t-188 -176.5t-267.5 -68t-267.5 68t-188 176.5t-112.5 244.5t-38 273zM553 737q0 -55 4 -132t25.5 -147.5t64.5 -119.5t121 -49t122 49 t65.5 118.5t26.5 147.5t5 133t-5 132t-25.5 147.5t-64.5 120t-120 49.5q-80 0 -124 -49.5t-65.5 -119t-25.5 -146t-4 -134.5z" />
<glyph unicode="1" horiz-adv-x="1552" d="M123 1139q0 59 8 119.5t38 108.5t88 78t159 30h585v-1475h-450v1100h-8q-68 0 -99.5 -21.5t-31.5 -93.5z" />
<glyph unicode="2" horiz-adv-x="1552" d="M123 0q-8 141 47 254t145.5 203t201 163.5t214.5 137.5q29 18 62.5 40.5t62.5 50.5t48.5 61.5t19.5 72.5q0 82 -43 137.5t-129 55.5q-68 0 -110 -28t-66.5 -73t-32.5 -100t-6 -111h-385q-8 145 30.5 262t117.5 200t194.5 128t261.5 45q113 0 217 -25.5t185 -81 t130 -144.5t49 -216q0 -78 -20.5 -144.5t-57 -122.5t-86 -104.5t-106.5 -91.5q-86 -63 -179 -115.5t-179 -105.5h319q59 0 92 20.5t31 86.5l268 -144q0 -74 -12 -131t-43 -97t-83 -61.5t-134 -21.5h-1024z" />
<glyph unicode="3" horiz-adv-x="1552" d="M152 549h389q-2 -117 50 -183.5t175 -66.5q86 0 138 43t52 133q0 88 -55 126t-135 38h-37v260h37q35 0 69.5 8t62.5 24.5t45.5 44.5t17.5 68q0 35 -17.5 62t-45.5 44t-60.5 26.5t-63.5 9.5q-41 0 -78 -14.5t-64.5 -40t-43 -61.5t-10.5 -79h-385q2 133 49 229.5t127 158 t187.5 91t229.5 29.5q80 0 176.5 -22.5t179.5 -69.5t139 -120t56 -171q0 -35 -7 -86t-28.5 -100t-59.5 -88t-99 -49q61 -4 106 -40t75 -88.5t44 -113t14 -111.5q0 -121 -53 -209t-138 -144t-192.5 -84t-214.5 -28q-133 0 -253.5 34t-210 103.5t-136.5 178t-32 258.5z" />
<glyph unicode="4" horiz-adv-x="1552" d="M61 332v385l652 758h407v-795h15q66 0 94 20.5t28 85.5l269 -143q0 -55 -7.5 -110.5t-35 -100.5t-81.5 -72.5t-149 -27.5h-133v-332h-426v332h-633zM346 680h348v399z" />
<glyph unicode="5" horiz-adv-x="1552" d="M92 440h404q18 -80 81.5 -110.5t137.5 -30.5q41 0 80 13.5t69.5 38t49 59t18.5 79.5q0 94 -56.5 146.5t-148.5 52.5q-61 0 -116.5 -18.5t-90.5 -73.5h-381l160 879h864q82 0 134.5 -21.5t83 -61.5t43 -97.5t12.5 -131.5l-269 -143q2 66 -29.5 86t-93.5 20h-430l-55 -260 q66 49 151 72t167 23q111 0 197.5 -35t146 -97.5t90 -151.5t30.5 -200q0 -135 -55 -230t-145 -155.5t-205 -88.5t-234 -28q-100 0 -211.5 26t-203.5 81t-148.5 143t-46.5 215z" />
<glyph unicode="6" horiz-adv-x="1552" d="M164 684q0 160 36 307.5t115.5 260t205.5 180t306 67.5q86 0 173 -14.5t165 -57.5l-227 -249q-27 16 -57.5 21t-61.5 5q-63 0 -110 -27.5t-79 -72.5t-50.5 -99.5t-26.5 -109.5q-2 -8 -2 -15.5t-2 -13.5q82 74 164 101.5t190 27.5q106 0 196.5 -32.5t156 -94t102.5 -149.5 t37 -197q0 -137 -45 -239.5t-126 -171t-191.5 -102.5t-241.5 -34q-166 0 -287 59.5t-199 164.5q-72 96 -106.5 220t-34.5 265zM580 516q0 -45 15 -84t44 -68.5t66.5 -46t85.5 -16.5q94 0 160.5 59.5t66.5 155.5q0 47 -18.5 86t-50 65.5t-72.5 41t-86 14.5 q-90 0 -150.5 -58.5t-60.5 -148.5z" />
<glyph unicode="7" horiz-adv-x="1552" d="M180 1163q0 55 8.5 110.5t36 100.5t81.5 73t149 28h833v-349l-323 -1126h-459l323 1126h-258q-63 0 -91.5 -20.5t-28.5 -85.5z" />
<glyph unicode="8" horiz-adv-x="1552" d="M141 446q0 145 74 225.5t211 104.5q-117 33 -169 115t-52 199t52 195.5t135 126.5t183.5 67.5t198.5 19.5q94 0 196.5 -20.5t187.5 -68.5t139.5 -127t54.5 -193q0 -53 -14.5 -103.5t-43 -93.5t-69.5 -74t-97 -43q63 -6 115.5 -34.5t89.5 -73.5t56.5 -102t19.5 -120 q0 -131 -57.5 -221t-149.5 -145t-204.5 -80t-223.5 -25q-115 0 -228.5 22.5t-203.5 77t-145.5 145.5t-55.5 226zM547 449q0 -47 20.5 -79t53 -51.5t72.5 -27.5t81 -8q39 0 80 8t74 27.5t54.5 51.5t21.5 79q0 104 -65 148t-161 44t-163.5 -43t-67.5 -149zM569 1047 q0 -43 17.5 -73t46.5 -48.5t65.5 -26.5t73.5 -8q39 0 77 7t68.5 25.5t50 48.5t19.5 75q0 51 -16.5 83.5t-46 51t-68.5 25.5t-82 7q-86 0 -145.5 -34.5t-59.5 -132.5z" />
<glyph unicode="9" horiz-adv-x="1552" d="M143 952q0 137 45 239.5t126 171.5t191.5 102.5t242.5 33.5q166 0 286.5 -59.5t198.5 -163.5q72 -96 106.5 -220t34.5 -265q0 -160 -35.5 -307.5t-115.5 -260t-206 -180.5t-306 -68q-86 0 -173 14.5t-165 57.5l225 250q29 -16 58.5 -21.5t62.5 -5.5q63 0 109 28t78 73 t51.5 99t27.5 110q0 8 1 15t1 13q-80 -74 -163 -101.5t-191 -27.5q-106 0 -195.5 33t-155 94.5t-102.5 149.5t-37 196zM520 958q0 -47 18.5 -85.5t50.5 -65.5t72.5 -41t86.5 -14q88 0 149 58t61 148q0 45 -15 84t-44 69t-67.5 46.5t-83.5 16.5q-94 0 -161 -59.5t-67 -156.5z " />
<glyph unicode=":" horiz-adv-x="626" d="M76 178q0 47 20.5 85t54 63.5t76.5 40t86 14.5t85 -14.5t76 -40t55.5 -63.5t21.5 -85t-21.5 -85t-55.5 -63.5t-76 -40t-85 -14.5t-86 14.5t-76.5 40t-54 63.5t-20.5 85zM76 885q0 47 20.5 85t54 63.5t76.5 39.5t86 14t85 -14t76 -39.5t55.5 -63.5t21.5 -85t-21.5 -85 t-55.5 -63.5t-76 -40t-85 -14.5t-86 14.5t-76.5 40t-54 63.5t-20.5 85z" />
<glyph unicode=";" horiz-adv-x="626" d="M0 -256l387 672l272 -158l-387 -672zM76 885q0 47 20.5 85t54 63.5t76.5 39.5t86 14t85 -14t76 -39.5t55.5 -63.5t21.5 -85t-21.5 -85t-55.5 -63.5t-76 -40t-85 -14.5t-86 14.5t-76.5 40t-54 63.5t-20.5 85z" />
<glyph unicode="&#x3c;" horiz-adv-x="1218" d="M92 606v258l1034 408v-330l-557 -203l557 -204v-330z" />
<glyph unicode="=" horiz-adv-x="1218" d="M92 334v313h1034v-313h-1034zM92 827v314h1034v-314h-1034z" />
<glyph unicode="&#x3e;" horiz-adv-x="1218" d="M92 203v329l557 203l-557 205v332l1034 -404v-258z" />
<glyph unicode="?" horiz-adv-x="1265" d="M76 975q6 96 38.5 189t100.5 167t173.5 120t256.5 46q150 0 253 -40t166.5 -102.5t93.5 -137t32 -142.5q2 -94 -22.5 -152.5t-64.5 -97.5t-90 -64.5t-102 -51.5q-35 -18 -57.5 -37t-34.5 -39.5t-17 -47t-5 -61.5v-98h-379v98v79t12 99.5t42 100.5t89 82q25 12 57.5 26.5 t62.5 32t50.5 42t20.5 58.5q0 104 -119 105q-74 0 -104.5 -53.5t-24.5 -120.5h-428zM369 178q0 47 20.5 85t54 63.5t76.5 40t86 14.5t86 -14.5t77 -40t54.5 -63.5t20.5 -85h2q0 -47 -21.5 -85t-55.5 -63.5t-76 -40t-85 -14.5t-86 14.5t-76.5 40t-55 63.5t-21.5 85z" />
<glyph unicode="@" horiz-adv-x="1681" d="M76 735q0 178 60.5 319.5t167 241t252.5 151.5t321 52q139 0 270 -37t233.5 -112.5t164 -189t61.5 -267.5q0 -170 -72 -307q-45 -84 -115.5 -148.5t-171.5 -105.5q-39 -16 -86 -29.5t-90 -13.5q-41 0 -72.5 18.5t-42.5 54.5q-4 16 -4 29q-35 -55 -89 -78.5t-118 -23.5 q-80 0 -143 28.5t-107 78.5t-69 117t-25 144q0 94 30 181.5t85 155t135 107.5t180 40q76 0 139.5 -29t108.5 -92l21 84h194l-73 -373q-10 -45 -20.5 -89t-10.5 -89q0 -14 5 -32.5t24 -18.5q37 0 67 26q31 27 51.5 63t32.5 76t17.5 82t5.5 80q0 119 -40 206t-111 143.5 t-166 84t-206 27.5q-121 0 -226 -40t-184 -113.5t-125 -176t-46 -225.5t45 -224t121.5 -174t181 -113t225.5 -40q117 0 219.5 23.5t196.5 93.5h231q-117 -174 -279.5 -250t-367.5 -76q-166 0 -309 55.5t-248.5 156t-167 240.5t-61.5 308zM678 690q0 -59 37 -105t98 -46 q47 0 90 14t72 53q4 14 14.5 57t18.5 74q2 31 -9.5 59.5t-31 50t-47 34t-60.5 12.5q-39 0 -72.5 -17.5t-58 -46t-38 -65.5t-13.5 -74z" />
<glyph unicode="A" d="M111 0v983q0 268 139 397t403 129q272 0 407.5 -132t135.5 -394v-983h-451v563h-184v-563h-450zM561 911h184v43q0 23 -1 59t-8 68.5t-26.5 56t-56.5 23.5t-56 -23.5t-26.5 -56t-8.5 -68.5t-1 -59v-43z" />
<glyph unicode="B" d="M111 0v1475h579q90 0 174 -19.5t149.5 -62.5t104.5 -114t39 -171q0 -104 -45 -175t-135 -118q127 -43 190.5 -138t63.5 -228q0 -109 -43 -192t-113.5 -140.5t-163 -87t-192.5 -29.5h-608zM561 348h43q35 0 66.5 6t56.5 22.5t39 43t14 69.5q0 66 -39 102t-118 36h-62v-279 zM561 899h17q72 0 112.5 26.5t40.5 98.5v-2q0 55 -42 79.5t-111 24.5h-17v-227z" />
<glyph unicode="C" horiz-adv-x="1556" d="M76 737q0 168 51 310.5t146.5 245t233.5 159.5t310 57q285 0 460 -145t206 -434h-441q-14 96 -76.5 155.5t-160.5 59.5q-84 0 -137.5 -39t-85 -98.5t-44 -131t-12.5 -139.5t12.5 -139.5t44 -130.5t85 -98t137.5 -39q55 0 96 19.5t68.5 52t45 77.5t25.5 94h443h-2 q0 -137 -54.5 -249.5t-146.5 -192.5t-212 -123t-251 -43q-172 0 -309 57.5t-233.5 161t-147.5 244.5t-51 309z" />
<glyph unicode="D" horiz-adv-x="1480" d="M111 0v1475h634q168 0 292 -56.5t206 -155t122 -233.5t40 -291q0 -362 -192.5 -550.5t-555.5 -188.5h-546zM561 375h72q86 0 147.5 28.5t100.5 78.5t56 117.5t17 145.5q0 166 -92 260.5t-262 94.5h-39v-725z" />
<glyph unicode="E" d="M111 0v1475h1081v-375h-631v-189h561v-348h-561v-188h653v-375h-1103z" />
<glyph unicode="F" d="M111 0v1475h1081v-375h-631v-189h561v-348h-561v-563h-450z" />
<glyph unicode="G" horiz-adv-x="1593" d="M76 737q0 168 51 310.5t146.5 245t233.5 159.5t310 57q285 0 460 -145t206 -434h-441q-14 96 -76.5 155.5t-160.5 59.5q-84 0 -137.5 -39t-85 -98.5t-44 -131t-12.5 -139.5t12.5 -139.5t44 -130.5t85 -98t137.5 -39q78 0 125 34.5t76 90.5h-201v348h676v-348 q0 -74 24.5 -108t102.5 -34l-168 -313q-70 0 -139.5 10t-122.5 49q-160 -94 -361 -94q-172 0 -309 57.5t-233.5 161t-147.5 244.5t-51 309z" />
<glyph unicode="H" horiz-adv-x="1554" d="M111 0v1475h450v-523h422v523h451v-1475h-451v604h-422v-604h-450z" />
<glyph unicode="I" horiz-adv-x="671" d="M111 0v1475h450v-1475h-450z" />
<glyph unicode="J" d="M111 492v81h405v-43q0 -43 2 -81.5t13.5 -68.5t36 -48.5t69.5 -18.5q43 0 65.5 23.5t31.5 55.5t10 68t1 60v580h-98q-70 0 -100.5 -21.5t-30.5 -93.5l-289 154q0 59 8.5 119.5t38 108.5t88 78t158.5 30h676v-949q0 -152 -34 -258t-102.5 -173.5t-172 -98.5t-240.5 -31 q-139 0 -240.5 37t-167 106.5t-97 166t-31.5 217.5z" />
<glyph unicode="K" horiz-adv-x="1314" d="M111 0v1475h450v-357l240 357h514l-498 -738l498 -737h-514l-240 356v-356h-450z" />
<glyph unicode="L" d="M111 0v1475h450v-1100h326q68 0 99.5 21.5t31.5 92.5l289 -153q0 -59 -8.5 -119.5t-38 -109t-88 -78t-158.5 -29.5h-903z" />
<glyph unicode="M" horiz-adv-x="1941" d="M111 0v983q0 268 139 397t403 129q82 0 164 -14t154 -53q72 39 153.5 53t163.5 14q264 0 403.5 -129t139.5 -397v-983h-451v954q0 25 -1 61t-9 68.5t-26.5 55t-55.5 22.5t-56.5 -22.5t-26.5 -55t-8 -68.5t-1 -61v-954h-451v954q0 25 -1 61t-8 68.5t-26.5 55t-56.5 22.5 t-55 -22.5t-26.5 -55t-9.5 -68.5t-1 -61v-954h-450z" />
<glyph unicode="N" d="M111 0v983q0 268 139 397t403 129q272 0 407.5 -132t135.5 -394v-983h-451v954q0 23 -1 59t-8 68.5t-26.5 56t-56.5 23.5t-56 -23.5t-26.5 -56t-8.5 -68.5t-1 -59v-954h-450z" />
<glyph unicode="O" horiz-adv-x="1634" d="M76 737q0 166 52 307.5t149.5 245t233.5 161.5t306 58q168 0 305.5 -58t234.5 -161.5t149.5 -245t52.5 -307.5t-52.5 -307t-149.5 -244.5t-234.5 -162t-305.5 -58.5q-170 0 -306 58.5t-233.5 162t-149.5 244.5t-52 307zM526 737q0 -68 14.5 -140.5t48.5 -131.5t90 -97 t138 -38t138.5 38t90 97t48 131.5t14.5 140.5t-14.5 140.5t-48 132t-90 97.5t-138.5 38t-138 -38t-90 -97.5t-48.5 -132t-14.5 -140.5z" />
<glyph unicode="P" horiz-adv-x="1314" d="M111 0v1475h591q150 0 252.5 -49.5t166 -123t91 -161.5t27.5 -166q0 -133 -42 -230.5t-119 -162t-182 -96t-230 -31.5h-105v-455h-450zM561 803h12q43 0 86 3t77 18.5t55.5 47t21.5 86.5q0 49 -17.5 78t-47 43.5t-68.5 17.5t-80 3h-39v-297z" />
<glyph unicode="Q" horiz-adv-x="1634" d="M76 737q0 166 52 307.5t149.5 245t233.5 161.5t306 58q168 0 305.5 -58t234.5 -161.5t149.5 -245t52.5 -307.5q0 -150 -43 -278.5t-123 -229.5l24 -34q25 -35 44.5 -53.5t43.5 -22.5h4q28 0 76 28l27 -327q-51 -33 -105.5 -57.5t-111.5 -26.5q-55 0 -111.5 31.5 t-112.5 115.5l-84 127q-61 -23 -128.5 -34t-141.5 -11q-170 0 -306 58.5t-233.5 162t-149.5 244.5t-52 307zM526 737q0 -68 14.5 -140.5t48.5 -131.5t90 -97t138 -38q14 0 27.5 1t27.5 3l-34 51q-23 35 -43.5 53.5t-44.5 22.5h-4q-28 0 -76 -29l-27 328q49 33 102.5 57.5 t108.5 26.5h12q51 0 102 -29q58 -33 115 -119l21 -30q2 18 3 35.5t1 35.5q0 68 -14.5 140.5t-48 132t-90 97.5t-138.5 38t-138 -38t-90 -97.5t-48.5 -132t-14.5 -140.5z" />
<glyph unicode="R" horiz-adv-x="1325" d="M117 0v1475h655q96 0 182 -27t151.5 -79t104.5 -130t39 -182q0 -57 -13 -113.5t-40 -106t-69 -88t-97 -59.5q55 -23 96 -61.5t67 -90t39 -107.5t13 -112v-319h-438v236q0 53 -7 105t-28.5 92t-61.5 64.5t-106 24.5h-37v-522h-450zM567 836h33q31 0 66.5 4t64.5 19 t48.5 44t19.5 78q0 70 -47 107.5t-177 37.5h-8v-290z" />
<glyph unicode="S" horiz-adv-x="1351" d="M18 496h451q0 -113 60.5 -160t170.5 -47q27 0 60 6t61.5 22.5t47 43t18.5 67.5q0 29 -14.5 48.5t-49.5 36.5t-96 36.5t-156 46.5q-86 25 -175 52.5t-159.5 73.5t-115.5 117.5t-45 182.5q0 127 50 219t132 151.5t188.5 88t219.5 28.5q119 0 227 -24.5t192 -81.5 t135.5 -148.5t55.5 -226.5h-426q2 11 2 21q0 27 -12 49q-16 30 -44 49.5t-64 29t-68 9.5q-23 0 -51.5 -4t-54.5 -15.5t-42 -31t-14 -50.5q2 -41 39 -66.5t97 -44t135 -35.5t153 -38q78 -23 151.5 -53.5t132 -79.5t93 -121t34.5 -172q0 -143 -59 -240.5t-155.5 -158 t-217.5 -86t-243 -25.5q-41 0 -104.5 7.5t-135.5 26.5t-143.5 55t-129 95.5t-94.5 144.5t-37 202z" />
<glyph unicode="T" d="M0 1139q0 59 8 119.5t38 108.5t88.5 78t158.5 30h1014v-375h-428v-1100h-451v1100h-8q-68 0 -99.5 -21.5t-31.5 -93.5z" />
<glyph unicode="U" d="M111 492v983h450v-955q0 -23 1 -58.5t8.5 -68.5t26.5 -56.5t56 -23.5t56.5 23.5t26.5 56.5t8 69t1 58v955h451v-983q0 -268 -139 -397.5t-404 -129.5q-272 0 -407 132t-135 395z" />
<glyph unicode="V" horiz-adv-x="1304" d="M0 1475h459l192 -674l195 674h459l-424 -1475h-459z" />
<glyph unicode="W" horiz-adv-x="1941" d="M111 492v983h450v-955q0 -25 1 -60.5t9.5 -68.5t26.5 -55.5t55 -22.5t56.5 22.5t26.5 55.5t8 69t1 60v955h451v-955q0 -25 1 -60.5t8 -68.5t26.5 -55.5t56.5 -22.5t55.5 22.5t26.5 55.5t9 69t1 60v955h451v-983q0 -268 -139.5 -397.5t-403.5 -129.5q-82 0 -164 14.5 t-153 53.5q-72 -39 -154 -53.5t-164 -14.5q-264 0 -403 129t-139 398z" />
<glyph unicode="X" horiz-adv-x="1509" d="M0 0l498 737l-498 738h514l240 -357l241 357h514l-497 -738l497 -737h-514l-241 356l-240 -356h-514z" />
<glyph unicode="Y" d="M111 1090v385h450v-357q0 -25 1 -59.5t8.5 -67.5t26.5 -56.5t56 -23.5t56.5 23.5t26.5 56.5t8 68t1 59v357h451v-385q0 -205 -81 -328t-236 -170v-592h-451v592q-317 96 -317 498z" />
<glyph unicode="Z" horiz-adv-x="1382" d="M49 0v352l690 748h-641v375h1235v-328l-696 -772h326q68 0 99.5 21.5t31.5 92.5l288 -153q0 -59 -8 -119.5t-37.5 -109t-88 -78t-158.5 -29.5h-1041z" />
<glyph unicode="[" horiz-adv-x="882" d="M111 -422v1897h680v-314h-316v-1270h316v-313h-680z" />
<glyph unicode="\" horiz-adv-x="862" d="M0 1475h311l551 -1475h-311z" />
<glyph unicode="]" horiz-adv-x="882" d="M111 -109h315v1270h-315v314h680v-1897h-680v313z" />
<glyph unicode="^" horiz-adv-x="962" d="M0 727l356 748h250l357 -748h-314l-168 387l-168 -387h-313z" />
<glyph unicode="_" horiz-adv-x="1024" d="M0 -154h1024v-102h-1024v102z" />
<glyph unicode="`" horiz-adv-x="0" d="M340 1470h426l205 -305h-281z" />
<glyph unicode="a" horiz-adv-x="1472" d="M76 530q0 125 45 228.5t123 177.5t182 114t225 40q172 0 305 -68v41h406v-1063h-406v47q-129 -74 -305 -74q-121 0 -225 40t-182 113t-123 175t-45 229zM481 530q0 -131 57.5 -196.5t194.5 -65.5q33 0 72 10.5t72.5 30t56 48t22.5 67.5v235q0 33 -24.5 58.5t-60 43 t-73.5 26t-65 8.5q-139 0 -195.5 -66.5t-56.5 -198.5z" />
<glyph unicode="b" horiz-adv-x="1472" d="M111 0v1475h405v-453q131 68 305 68q119 0 224.5 -40t183.5 -114t123 -177.5t45 -228.5q0 -127 -45 -229t-123 -175t-183.5 -113t-224.5 -40q-176 0 -305 74v-47h-405zM516 424q0 -39 22.5 -67.5t56.5 -48t73 -30t71 -10.5q137 0 194.5 65.5t57.5 196.5t-56 198t-196 67 q-27 0 -64.5 -8.5t-73.5 -26t-60.5 -43t-24.5 -58.5v-235z" />
<glyph unicode="c" horiz-adv-x="1273" d="M76 530q0 123 44 226.5t121.5 177.5t182 115t227.5 41q102 0 197.5 -26t170.5 -78t122 -134t57 -193h-385q-6 66 -48 101t-106 35q-59 0 -94 -23.5t-53 -61.5t-24.5 -85t-6.5 -95q0 -47 6.5 -94t24.5 -84t53 -60.5t94 -23.5q66 0 107 47t45 109h387q-14 -109 -61 -193 t-120 -141t-166 -87t-200 -30q-123 0 -227.5 41t-182 115t-121.5 176.5t-44 224.5z" />
<glyph unicode="d" horiz-adv-x="1472" d="M76 530q0 125 45 228.5t123 177.5t182 114t225 40q172 0 305 -68v453h406v-1475h-406v47q-129 -74 -305 -74q-121 0 -225 40t-182 113t-123 175t-45 229zM481 530q0 -131 57.5 -196.5t194.5 -65.5q33 0 72 10.5t72.5 30t56 48t22.5 67.5v235q0 33 -24.5 58.5t-60 43 t-73.5 26t-65 8.5q-139 0 -195.5 -66.5t-56.5 -198.5z" />
<glyph unicode="e" horiz-adv-x="1273" d="M76 530q0 123 44 226.5t121.5 177.5t182 115t227.5 41q102 0 197.5 -26t170.5 -78t122 -134t57 -193l-704 -256q14 -57 51 -96t114 -39q66 0 107 47t45 109h387q-14 -109 -61 -193t-120 -141t-166 -87t-200 -30q-123 0 -227.5 41t-182 115t-121.5 176.5t-44 224.5z M487 633l295 106q-41 55 -123 56q-82 0 -119.5 -44t-50.5 -106q0 -8 -2 -12z" />
<glyph unicode="f" horiz-adv-x="626" d="M0 784v250h111v158q0 109 32.5 172t84 95t116 41t129.5 9q66 0 132.5 -6t127.5 -6v-307q-47 6 -92 6q-76 0 -100.5 -29.5t-24.5 -101.5v-2h111v-279h-111v-784h-405v784h-111z" />
<glyph unicode="g" horiz-adv-x="1472" d="M76 530q0 125 45 228.5t123 177.5t182 114t225 40q172 0 305 -68v41h406v-1012q0 -53 -6 -111.5t-26.5 -114.5t-57.5 -107.5t-98.5 -90.5t-150.5 -61.5t-214 -22.5q-94 0 -187.5 15.5t-170 54.5t-130 107.5t-67.5 177.5h401q8 -18 22.5 -39t34 -38.5t41 -27.5t44.5 -10 q49 0 79.5 25.5t49 63.5t24.5 80t6 75v20q-129 -74 -305 -74q-121 0 -225 40t-182 113t-123 175t-45 229zM481 530q0 -131 57.5 -196.5t194.5 -65.5q33 0 72 10.5t72.5 30t56 48t22.5 67.5v235q0 33 -24.5 58.5t-60 43t-73.5 26t-65 8.5q-139 0 -195.5 -66.5t-56.5 -198.5z " />
<glyph unicode="h" horiz-adv-x="1327" d="M111 0v1475h405v-527q72 82 150.5 112t185.5 30q164 0 264.5 -97.5t100.5 -263.5v-729h-406v557q0 37 -3 75t-15.5 67.5t-39 48t-75.5 18.5q-90 0 -126 -61.5t-36 -143.5v-561h-405z" />
<glyph unicode="i" horiz-adv-x="626" d="M76 1307q0 47 20.5 85t54 63.5t76.5 39.5t86 14t85 -14t76 -39.5t55.5 -63.5t21.5 -85t-21.5 -85t-55.5 -63.5t-76 -40t-85 -14.5t-86 14.5t-76.5 40t-54 63.5t-20.5 85zM111 0v1063h405v-1063h-405z" />
<glyph unicode="j" horiz-adv-x="626" d="M-592 -102h402q8 -18 22 -39t33.5 -38.5t41 -27.5t44.5 -10q49 0 79.5 25.5t49 63.5t25 80t6.5 75v1036h405v-1012q0 -53 -6 -111.5t-26.5 -114.5t-57.5 -107.5t-98.5 -90.5t-150.5 -61.5t-214 -22.5q-94 0 -187 15.5t-170 54.5t-130.5 107.5t-67.5 177.5zM76 1307 q0 47 20.5 85t54 63.5t76.5 39.5t86 14t85 -14t76 -39.5t55.5 -63.5t21.5 -85t-21.5 -85t-55.5 -63.5t-76 -40t-85 -14.5t-86 14.5t-76.5 40t-54 63.5t-20.5 85z" />
<glyph unicode="k" horiz-adv-x="1095" d="M111 0v1475h405v-617l139 205h441l-361 -531l361 -532h-441l-139 205v-205h-405z" />
<glyph unicode="l" horiz-adv-x="626" d="M111 0v1475h405v-1475h-405z" />
<glyph unicode="m" horiz-adv-x="2027" d="M111 0v1063h405v-115q72 82 152 112t184 30q121 0 207 -53.5t127 -149.5q55 113 147 158t219 45q164 0 264.5 -97.5t100.5 -263.5v-729h-406v557q0 37 -3 75t-15 67.5t-39 48t-76 18.5q-47 0 -77.5 -17.5t-49 -45t-26.5 -65.5t-8 -77v-561h-406v557q0 37 -3 75 t-15.5 67.5t-39 48t-75.5 18.5q-47 0 -78 -17.5t-49.5 -45t-26.5 -65.5t-8 -77v-561h-405z" />
<glyph unicode="n" horiz-adv-x="1327" d="M111 0v1063h405v-115q72 82 150.5 112t185.5 30q164 0 264.5 -97.5t100.5 -263.5v-729h-406v557q0 37 -3 75t-15.5 67.5t-39 48t-75.5 18.5q-90 0 -126 -61.5t-36 -143.5v-561h-405z" />
<glyph unicode="o" horiz-adv-x="1310" d="M76 532q0 111 34.5 211.5t105.5 177t180.5 123t258.5 46.5q150 0 259.5 -46.5t180 -123t105.5 -177t35 -211.5t-35 -212t-105.5 -177.5t-180 -123t-259.5 -46.5t-259 46.5t-180 123t-105.5 178t-34.5 211.5zM481 532q0 -43 5.5 -89t23.5 -85t53 -64.5t92 -25.5t92 25.5 t53.5 64.5t23.5 85t5 89t-5 89.5t-23.5 84t-53 63.5t-92.5 26q-57 0 -92 -26t-53 -63.5t-23.5 -84t-5.5 -89.5z" />
<glyph unicode="p" horiz-adv-x="1472" d="M111 -422v1485h405v-41q131 68 305 68q119 0 224.5 -40t183.5 -114t123 -177.5t45 -228.5q0 -127 -45 -229t-123 -175t-183.5 -113t-224.5 -40q-176 0 -305 74v-469h-405zM516 424q0 -39 22.5 -67.5t56.5 -48t73 -30t71 -10.5q137 0 194.5 65.5t57.5 196.5t-56 198 t-196 67q-27 0 -64.5 -8.5t-73.5 -26t-60.5 -43t-24.5 -58.5v-235z" />
<glyph unicode="q" horiz-adv-x="1472" d="M76 530q0 125 45 228.5t123 177.5t182 114t225 40q172 0 305 -68v41h406v-1485h-406v469q-129 -74 -305 -74q-121 0 -225 40t-182 113t-123 175t-45 229zM481 530q0 -131 57.5 -196.5t194.5 -65.5q33 0 72 10.5t72.5 30t56 48t22.5 67.5v235q0 33 -24.5 58.5t-60 43 t-73.5 26t-65 8.5q-139 0 -195.5 -66.5t-56.5 -198.5z" />
<glyph unicode="r" horiz-adv-x="925" d="M111 0v1063h405v-115q72 82 150.5 112t185.5 30q37 0 74 -7l-248 -317q-47 0 -78 -17.5t-49.5 -45t-26.5 -65.5t-8 -77v-561h-405z" />
<glyph unicode="s" horiz-adv-x="1169" d="M51 348h387q4 -66 51.5 -95.5t106.5 -29.5q20 0 44 4t44.5 13.5t34.5 26t14 38.5q0 23 -8 39t-32.5 28.5t-68.5 23t-114 22.5q-231 39 -332.5 117.5t-101.5 216.5q0 100 48 165.5t123 103.5t163 53.5t168 15.5q86 0 176 -14.5t163.5 -51.5t123 -102.5t53.5 -167.5h-369 q-4 51 -47 80.5t-90 29.5q-43 0 -83 -15t-40 -67q0 -33 52 -54t122 -36.5t135.5 -27t93.5 -19.5q51 -16 97.5 -39.5t81 -59.5t55 -84t20.5 -114q0 -111 -48 -183.5t-125 -114.5t-174 -59.5t-193 -17.5q-94 0 -187.5 19.5t-169 64.5t-124 117t-50.5 174z" />
<glyph unicode="t" horiz-adv-x="626" d="M0 813v250h111v197l405 161v-358h111v-250h-111v-813h-405v813h-111z" />
<glyph unicode="u" horiz-adv-x="1327" d="M111 334v729h405v-557q0 -37 3 -75t15.5 -67.5t39 -48t75.5 -18.5q90 0 126 61.5t36 143.5v561h406v-1063h-406v115q-72 -82 -150.5 -112t-185.5 -30q-164 0 -264 97.5t-100 263.5z" />
<glyph unicode="v" horiz-adv-x="1110" d="M0 1063h420l135 -418l135 418h420l-344 -1063h-420z" />
<glyph unicode="w" horiz-adv-x="2027" d="M111 334v729h405v-557q0 -37 3 -75t15.5 -67.5t39 -48t75.5 -18.5q45 0 77 17.5t50.5 45t26.5 64.5t8 78v561h406v-557q0 -37 3 -75t15 -67.5t38.5 -48t76.5 -18.5q45 0 76.5 17.5t50 45t26.5 64.5t8 78v561h406v-1063h-406v115q-72 -82 -151.5 -112t-183.5 -30 q-121 0 -207 53.5t-127 149.5q-55 -113 -147.5 -158t-219.5 -45q-164 0 -264 97.5t-100 263.5z" />
<glyph unicode="x" horiz-adv-x="1157" d="M0 0l358 530l-358 533h440l140 -205l137 205h440l-358 -531l358 -532h-440l-137 205l-140 -205h-440z" />
<glyph unicode="y" horiz-adv-x="1327" d="M109 -102h401q8 -18 22.5 -39t34 -38.5t41 -27.5t43.5 -10q49 0 80 25.5t49.5 63.5t24.5 80t6 75v88q-72 -82 -150.5 -112t-185.5 -30q-164 0 -264 97.5t-100 263.5v729h405v-557q0 -37 3 -75t15.5 -67.5t39 -48t75.5 -18.5q90 0 126 61.5t36 143.5v561h406v-1012 q0 -53 -6.5 -111.5t-27 -114.5t-57 -107.5t-98 -90.5t-151 -61.5t-213.5 -22.5q-94 0 -187.5 15.5t-170.5 54.5t-130 107.5t-67 177.5z" />
<glyph unicode="z" horiz-adv-x="1138" d="M35 0v313l497 455h-452v295h973v-311l-486 -457h242q53 0 77.5 17.5t24.5 72.5l228 -121q0 -47 -6.5 -94t-30 -85t-69.5 -61.5t-126 -23.5h-872z" />
<glyph unicode="{" horiz-adv-x="880" d="M92 369v313q29 0 59.5 5t55 18.5t41 36t16.5 57.5v413q0 61 24.5 109.5t64.5 82.5t92.5 52.5t109.5 18.5h233v-314h-71q-61 0 -83 -35.5t-22 -89.5v-323q0 -51 -21.5 -86t-57 -56.5t-78.5 -32t-86 -12.5q51 -4 95 -14t76.5 -31.5t52 -59.5t19.5 -97v-308q0 -61 27 -93 t92 -32h57v-313h-233q-57 0 -109.5 18.5t-92.5 52.5t-64.5 82t-24.5 109v396q0 37 -15.5 63.5t-40 41.5t-55 21.5t-61.5 6.5z" />
<glyph unicode="|" horiz-adv-x="534" d="M111 0v1475h313v-1475h-313z" />
<glyph unicode="}" horiz-adv-x="880" d="M92 -109h58q66 0 92 32t26 93v306q0 59 19.5 97t52.5 60.5t77 31.5t95 13q-43 2 -86 12.5t-79 32t-57.5 56t-21.5 86.5v325q0 53 -21.5 89t-82.5 36h-72v314h234q57 0 109 -18.5t92 -52.5t64.5 -82t24.5 -110v-411q0 -35 16.5 -58.5t41 -37t55.5 -17.5t59 -4v-313 q-31 0 -61.5 -7.5t-55 -22.5t-40 -41t-15.5 -62v-398q0 -61 -24.5 -109t-64.5 -82t-92 -52.5t-109 -18.5h-234v313z" />
<glyph unicode="~" horiz-adv-x="1097" d="M76 786q16 33 39.5 65t54.5 56.5t71 40t91 15.5q53 0 110.5 -19.5t116.5 -46.5q57 -25 112.5 -48.5t96.5 -23.5q61 0 103 46.5t77 99.5l74 -283q-23 -33 -48.5 -64.5t-55 -56t-67.5 -40t-85 -15.5q-57 0 -107.5 19.5t-101.5 48.5q-49 29 -106.5 49t-128.5 20 q-68 0 -108 -46t-64 -99z" />
<glyph unicode="&#xa1;" horiz-adv-x="626" d="M76 1296q0 47 20.5 85t54 63.5t76.5 40t86 14.5t85 -14.5t76 -40t55.5 -63.5t21.5 -85t-21.5 -84.5t-55.5 -63.5t-76 -40t-85 -14t-86 14t-76.5 40t-54 63.5t-20.5 84.5zM80 0l133 1018h201l133 -1018h-467z" />
<glyph unicode="&#xa2;" horiz-adv-x="1273" d="M98 735q0 106 34 198.5t93.5 164t142.5 120t181 66.5v191h239v-187q84 -12 160 -45t133.5 -85t94 -124.5t45.5 -169.5h-385q-6 66 -47 101.5t-107 35.5q-59 0 -94 -23.5t-53.5 -61t-24.5 -85t-6 -94.5t6 -94t24.5 -85t53.5 -61.5t94 -23.5q66 0 106.5 47t47.5 111h385 q-25 -188 -142.5 -302t-290.5 -141v-188h-239v190q-98 18 -181 66.5t-142.5 119t-93.5 162t-34 197.5z" />
<glyph unicode="&#xa3;" horiz-adv-x="1243" d="M-8 584v260h145q-31 41 -46 92t-15 102q0 113 45 199t120.5 144.5t174 87t205.5 28.5q250 0 392 -125t154 -381h-395q0 31 -8 63.5t-25.5 58.5t-44 43.5t-61.5 17.5q-63 0 -97 -29t-34 -94q0 -49 28.5 -104.5t47.5 -102.5h223v-260h-154q6 -23 6 -45q0 -63 -33.5 -123 t-84.5 -94q20 10 43.5 14t46.5 4q37 0 73.5 -8t72.5 -17.5t72 -17.5t72 -8q29 0 51.5 12t40 32.5t32 43t26.5 45.5l162 -291q-70 -78 -161 -122t-196 -44q-66 0 -125 15.5t-120 31.5q-63 16 -119.5 25.5t-110 6.5t-106.5 -21.5t-109 -57.5l-162 230q43 29 84 60.5t72 68 t50.5 82t19.5 102.5q0 18 -2 37.5t-11 38.5h-239z" />
<glyph unicode="&#xa4;" horiz-adv-x="1179" d="M35 315l123 119q-29 41 -55.5 118t-26.5 161q-2 86 25.5 161.5t56.5 114.5l-123 117l160 156l116 -115q37 31 115 55.5t164 24.5q84 0 158.5 -24.5t113.5 -55.5l119 115l156 -154l-119 -119q33 -39 59.5 -114.5t26.5 -161.5q0 -82 -25.5 -160t-60.5 -119l119 -119 l-154 -153l-121 123q-47 -43 -117.5 -64.5t-154.5 -21.5q-86 0 -159 20.5t-120 61.5l-123 -119zM371 713q0 -55 19.5 -96.5t51 -69t70.5 -40.5t78 -13t78 13t70.5 40.5t51 69t19.5 96.5t-19.5 96t-51 68.5t-70.5 41t-78 13.5t-78 -13.5t-70.5 -41t-51 -68.5t-19.5 -96z" />
<glyph unicode="&#xa5;" d="M111 1212v263h450v-234q0 -25 1 -59.5t8.5 -67.5t26.5 -56.5t56 -23.5t56.5 23.5t26.5 56.5t8 68t1 59v234h451v-263q0 -205 -81 -327.5t-236 -169.5v-74h307v-250h-307v-69h307v-250h-307v-72h-451v72h-307v250h307v69h-307v250h307v74q-317 96 -317 497z" />
<glyph unicode="&#xa6;" horiz-adv-x="534" d="M111 0v535h313v-535h-313zM111 940v535h313v-535h-313z" />
<glyph unicode="&#xa7;" horiz-adv-x="1382" d="M37 496q0 186 131 317q-66 55 -98.5 119.5t-32.5 152.5q0 125 59.5 207t151.5 130t202.5 67.5t213.5 19.5q102 0 211.5 -16t202.5 -60t155.5 -123t73.5 -202h-437q-6 33 -25.5 59.5t-46 46t-58 29.5t-64.5 10q-31 0 -62.5 -5t-57.5 -19.5t-41 -39t-15 -63.5 q0 -33 32.5 -57.5t84 -44.5t114 -34.5t121.5 -26t107.5 -20.5t72.5 -15q137 -43 225.5 -131t88.5 -240q0 -96 -32 -173t-100 -144q68 -55 100 -120t32 -153q0 -125 -60.5 -207t-153 -130t-203 -67.5t-210.5 -19.5q-102 0 -212 16.5t-202 60.5t-155.5 123t-73.5 202h436 q6 -33 25.5 -59.5t46 -46t58.5 -30t65 -10.5q31 0 62.5 5.5t57 19.5t41 38.5t15.5 63.5q0 33 -33 57.5t-84 45t-113.5 35t-122 25.5t-108.5 19.5t-72 16.5q-68 20 -125 53t-99 78t-65.5 104.5t-23.5 135.5zM500 553q0 -37 13 -59.5t35.5 -38t50.5 -23.5t58 -16 q33 -8 65 -15.5t64 -11.5q37 14 67 40t30 71q0 37 -13.5 59.5t-36 37.5t-50 24.5t-58.5 17.5q-66 14 -129 25q-37 -14 -66.5 -40t-29.5 -71z" />
<glyph unicode="&#xa8;" horiz-adv-x="0" d="M150 1311q0 47 20 85t54 63.5t77 39.5t86 14t85 -14t76 -39.5t55.5 -63.5t21.5 -85t-21.5 -85t-55.5 -64.5t-76 -41t-85 -14.5t-86 14.5t-77 41t-54 64.5t-20 85zM686 1311q0 47 20.5 85t54.5 63.5t77 39.5t86 14t85 -14t75.5 -39.5t55 -63.5t21.5 -85t-21.5 -85 t-55 -64.5t-75.5 -41t-85 -14.5t-86 14.5t-77 41t-54.5 64.5t-20.5 85z" />
<glyph unicode="&#xa9;" horiz-adv-x="1683" d="M76 737q0 160 60.5 299.5t163.5 242.5t242.5 163.5t299.5 60.5t299 -60.5t242.5 -163.5t164 -242.5t60.5 -299.5t-60.5 -299t-164 -242.5t-243 -164t-298.5 -60.5q-160 0 -299.5 60.5t-242.5 164t-163.5 243t-60.5 298.5zM330 737q0 -109 39 -204t108.5 -166.5 t162.5 -113.5t202 -42t202 42t162.5 113.5t108.5 166.5t39 204t-39 204t-108.5 167t-163 114t-201.5 42q-109 0 -202 -42t-162.5 -114t-108.5 -167t-39 -204zM440 735q0 92 29 171t81 135.5t128 89t170 32.5q139 0 236.5 -78.5t123.5 -238.5h-196q-25 106 -158 106 q-90 0 -139 -57t-49 -156q0 -98 53 -158.5t133 -60.5q63 0 107.5 25.5t52.5 93.5h205q-12 -84 -46 -145.5t-82.5 -102.5t-108.5 -61.5t-128 -20.5q-92 0 -169 33t-130 90t-83 135t-30 168z" />
<glyph unicode="&#xaa;" horiz-adv-x="958" d="M76 1163q0 76 26.5 138.5t73.5 106.5t110.5 67.5t135.5 23.5q49 0 95 -9t87 -32v25h244v-637h-244v28q-80 -45 -182 -45q-72 0 -135.5 24t-110.5 68t-73.5 105t-26.5 137zM319 1163q0 -78 34 -117.5t118 -39.5q18 0 42 6t44.5 18t33.5 29.5t13 40.5v141q0 20 -14.5 35.5 t-36 26t-44 15.5t-38.5 5q-84 0 -118 -41t-34 -119z" />
<glyph unicode="&#xab;" horiz-adv-x="921" d="M92 555v363l334 266v-316l-160 -131l160 -123v-323zM496 555v363l333 266v-316l-159 -131l159 -123v-321z" />
<glyph unicode="&#xac;" horiz-adv-x="626" d="M0 451v208l111 86v730h405v-418l111 86v-209l-111 -86v-848h-405v537z" />
<glyph unicode="&#xad;" horiz-adv-x="825" d="M92 379v336h641v-336h-641z" />
<glyph unicode="&#xae;" horiz-adv-x="917" d="M76 1116q0 80 29.5 149.5t82 122t122 82t149.5 29.5t149.5 -29.5t121.5 -82t82 -122t30 -149.5t-30 -149.5t-82 -121.5t-121.5 -82t-149.5 -30t-149.5 30t-122 82t-82 121.5t-29.5 149.5zM203 1116q0 -55 19.5 -103t54 -84t80.5 -56.5t102 -20.5q53 0 100 20.5t82 56.5 t54.5 84t19.5 103q0 53 -19.5 101.5t-54.5 84t-81 56t-101 20.5q-53 0 -100.5 -20.5t-82 -56t-54 -84t-19.5 -101.5zM307 922v387h150q84 0 128 -24.5t44 -96.5q0 -57 -30 -80t-73 -27l88 -159h-100l-78 153h-37v-153h-92zM399 1147h76q29 0 42 11t13 40t-25.5 34t-47.5 5 h-58v-90z" />
<glyph unicode="&#xaf;" horiz-adv-x="0" d="M307 1165v187h697v-187h-697z" />
<glyph unicode="&#xb0;" horiz-adv-x="761" d="M76 1194q0 66 22.5 122t63.5 97t97 63.5t122 22.5t122 -22.5t97 -63.5t63.5 -97t22.5 -122t-22.5 -122t-63.5 -97t-97.5 -63.5t-121.5 -22.5q-66 0 -122 22.5t-97 63.5t-63.5 97t-22.5 122zM236 1194q0 -63 43 -104t102 -41t102 41t43 104t-43 104t-102 41t-102 -41 t-43 -104z" />
<glyph unicode="&#xb1;" horiz-adv-x="1218" d="M92 219v313h1034v-313h-1034zM92 776v314h361v165h313v-165h360v-314h-360v-166h-313v166h-361z" />
<glyph unicode="&#xb2;" horiz-adv-x="833" d="M59 674q-4 84 25 147.5t79 114.5t112.5 91t125.5 77q14 8 32 19.5t32 24.5t24.5 28.5t10.5 33.5q0 41 -19.5 64.5t-60.5 23.5q-61 0 -83 -47t-20 -118h-241q-10 170 85 268t261 98q63 0 123.5 -14.5t107.5 -45t76 -80.5t29 -122q0 -68 -28 -120t-73 -93t-99 -73.5 t-105 -61.5h120q29 0 40.5 10t11.5 57l178 -92q0 -88 -34 -139t-132 -51h-578z" />
<glyph unicode="&#xb3;" horiz-adv-x="813" d="M55 995h244q-2 -70 23.5 -101.5t85.5 -31.5q88 0 88 78q0 39 -23.5 56.5t-64.5 17.5h-37v168h37q37 0 63.5 14t26.5 47q0 27 -28 43.5t-58 16.5q-41 0 -69 -27t-24 -76h-243q0 80 27.5 137.5t74.5 93t108.5 52t131.5 16.5q45 0 100 -12t104.5 -39t82 -68t32.5 -98 q0 -16 -3 -38.5t-11 -47.5t-22.5 -47.5t-36.5 -36.5q27 -12 45 -35.5t30.5 -50.5t17.5 -54t5 -50q0 -68 -32 -117t-81 -81t-110.5 -47t-120.5 -15q-74 0 -143.5 18t-122 58t-80 103.5t-17.5 153.5z" />
<glyph unicode="&#xb4;" horiz-adv-x="0" d="M340 1165l203 305h428l-353 -305h-278z" />
<glyph unicode="&#xb5;" horiz-adv-x="1327" d="M111 -422v1485h405v-557q0 -37 3 -75t15.5 -67.5t39 -48t75.5 -18.5q90 0 126 61.5t36 143.5v561h406v-1063h-406v115q-72 -84 -160 -115q-61 -23 -135 -25v-397h-405z" />
<glyph unicode="&#xb6;" horiz-adv-x="1333" d="M76 1110q0 111 39 181.5t106.5 111.5t159.5 56.5t199 15.5h643v-1897h-279v1686h-133v-1686h-279v1182q-223 0 -339.5 92t-116.5 258z" />
<glyph unicode="&#xb7;" horiz-adv-x="626" d="M76 737q0 47 20.5 85t54 63.5t76.5 40t86 14.5t85 -14.5t76 -40t55.5 -63.5t21.5 -85t-21.5 -85t-55.5 -63.5t-76 -39.5t-85 -14t-86 14t-76.5 39.5t-54 63.5t-20.5 85z" />
<glyph unicode="&#xb8;" horiz-adv-x="0" d="M379 -418l43 94q45 -12 87 -26.5t89 -14.5q37 0 72 16.5t35 59.5q0 35 -28 53.5t-61 18.5q-39 0 -79 -21l-54 50l115 188h119l-84 -135q18 10 45 12t47 2q39 0 76 -10t65.5 -29.5t47 -51.5t18.5 -75q0 -53 -25.5 -90t-65.5 -58.5t-87 -30.5t-92 -9q-82 0 -144.5 15.5 t-138.5 41.5z" />
<glyph unicode="&#xb9;" horiz-adv-x="700" d="M76 1274q0 35 5 70.5t22.5 64.5t52 47.5t96.5 18.5h338v-811h-279v581h-14q-18 0 -24.5 -16.5t-6.5 -52.5z" />
<glyph unicode="&#xba;" horiz-adv-x="847" d="M76 1165q0 66 20.5 126.5t63.5 106.5t108.5 73.5t155.5 27.5t155.5 -27.5t108.5 -73.5t63.5 -106.5t20.5 -126.5q0 -68 -20.5 -128t-63.5 -106t-108.5 -74t-155.5 -28t-155.5 28t-108.5 74t-63.5 106.5t-20.5 127.5zM319 1165q0 -25 3.5 -53.5t14.5 -52t31.5 -38.5 t55.5 -15t55.5 15t31.5 38.5t14 52t3 53.5t-3 53.5t-14 51t-31.5 38t-55.5 15.5t-55.5 -15.5t-31.5 -38t-14.5 -51t-3.5 -53.5z" />
<glyph unicode="&#xbb;" horiz-adv-x="921" d="M92 291v315l160 131l-160 123v324l334 -264v-363zM496 291v315l159 131l-159 123v324l333 -264v-363z" />
<glyph unicode="&#xbc;" horiz-adv-x="1826" d="M76 1274q0 35 5 70.5t22.5 64.5t52 47.5t96.5 18.5h338v-811h-279v581h-14q-18 0 -24.5 -16.5t-6.5 -52.5zM346 0l764 1475h225l-766 -1475h-223zM915 176v223l367 412h246v-422h12q18 0 25.5 15.5t7.5 52.5l178 -92q0 -33 -4 -67t-20.5 -60.5t-49 -44t-90.5 -17.5h-59 v-176h-264v176h-349zM1120 389h144v158z" />
<glyph unicode="&#xbd;" horiz-adv-x="1783" d="M76 1274q0 35 5 70.5t22.5 64.5t52 47.5t96.5 18.5h338v-811h-279v581h-14q-18 0 -24.5 -16.5t-6.5 -52.5zM346 0l764 1475h225l-766 -1475h-223zM1010 0q-6 84 23.5 147.5t78.5 114.5t112.5 91t125.5 77q31 18 65.5 43t34.5 64t-20.5 62.5t-59.5 23.5q-63 0 -83.5 -46.5 t-18.5 -117.5h-242q-10 170 85 268t261 98q63 0 123.5 -14t108 -46t76 -82t28.5 -122q0 -68 -27.5 -119t-72.5 -92t-99.5 -73.5t-105.5 -61.5h119q31 0 42 10.5t9 55.5l180 -93q0 -88 -33.5 -138t-132.5 -50h-577z" />
<glyph unicode="&#xbe;" horiz-adv-x="1908" d="M55 995h244q-2 -70 23.5 -101.5t85.5 -31.5q88 0 88 78q0 39 -23.5 56.5t-64.5 17.5h-37v168h37q37 0 63.5 14t26.5 47q0 27 -28 43.5t-58 16.5q-41 0 -69 -27t-24 -76h-243q0 80 27.5 137.5t74.5 93t108.5 52t131.5 16.5q45 0 100 -12t104.5 -39t82 -68t32.5 -98 q0 -16 -3 -38.5t-11 -47.5t-22.5 -47.5t-36.5 -36.5q27 -12 45 -35.5t30.5 -50.5t17.5 -54t5 -50q0 -68 -32 -117t-81 -81t-110.5 -47t-120.5 -15q-74 0 -143.5 18t-122 58t-80 103.5t-17.5 153.5zM428 0l764 1475h225l-766 -1475h-223zM997 176v223l367 412h246v-422h12 q18 0 25.5 15.5t7.5 52.5l178 -92q0 -33 -4 -67t-20.5 -60.5t-49.5 -44t-90 -17.5h-59v-176h-264v176h-349zM1202 389h144v158z" />
<glyph unicode="&#xbf;" horiz-adv-x="1265" d="M76 397q-2 94 22.5 152.5t64.5 97.5t90 63.5t101 53.5q35 18 57.5 36.5t35 39t17.5 47t5 61.5v99h379v-99v-79t-12.5 -99t-42 -100t-88.5 -82q-25 -12 -58 -26.5t-62.5 -32t-50 -42t-20.5 -59.5q0 -104 119 -104q74 0 104.5 53t24.5 121h428q-6 -96 -39 -189.5 t-100.5 -167t-174 -120t-255.5 -46.5q-150 0 -253.5 40t-167 102.5t-93 137.5t-31.5 142zM422 1294q0 47 20.5 85t54 63.5t76.5 40t86 14.5t85 -14.5t76 -40t55.5 -63.5t21.5 -85t-21.5 -85t-55.5 -63.5t-76 -39.5t-85 -14t-86 14t-76.5 39.5t-54 63.5t-20.5 85z" />
<glyph unicode="&#xc0;" d="M111 0v983q0 268 139 397t403 129q272 0 407.5 -132t135.5 -394v-983h-451v563h-184v-563h-450zM319 1870h426l205 -305h-280zM561 911h184v43q0 23 -1 59t-8 68.5t-26.5 56t-56.5 23.5t-56 -23.5t-26.5 -56t-8.5 -68.5t-1 -59v-43z" />
<glyph unicode="&#xc1;" d="M111 0v983q0 268 139 397t403 129q272 0 407.5 -132t135.5 -394v-983h-451v563h-184v-563h-450zM365 1565l202 305h428l-352 -305h-278zM561 911h184v43q0 23 -1 59t-8 68.5t-26.5 56t-56.5 23.5t-56 -23.5t-26.5 -56t-8.5 -68.5t-1 -59v-43z" />
<glyph unicode="&#xc2;" d="M111 0v983q0 268 139 397t403 129q272 0 407.5 -132t135.5 -394v-983h-451v563h-184v-563h-450zM242 1565l247 305h336l250 -305h-301l-117 155l-114 -155h-301zM561 911h184v43q0 23 -1 59t-8 68.5t-26.5 56t-56.5 23.5t-56 -23.5t-26.5 -56t-8.5 -68.5t-1 -59v-43z" />
<glyph unicode="&#xc3;" d="M111 0v983q0 268 139 397t403 129q272 0 407.5 -132t135.5 -394v-983h-451v563h-184v-563h-450zM276 1565q0 45 10.5 96t37 94t71.5 71.5t111 28.5q47 0 94 -13t89 -28.5t76 -27.5t52 -12q33 0 57.5 17t34.5 71h168q-2 -59 -18.5 -110.5t-46 -90.5t-72.5 -61.5 t-100 -22.5q-47 0 -90 12.5t-82 25.5t-76 25.5t-70 12.5q-35 0 -56.5 -30t-27.5 -58h-162zM561 911h184v43q0 23 -1 59t-8 68.5t-26.5 56t-56.5 23.5t-56 -23.5t-26.5 -56t-8.5 -68.5t-1 -59v-43z" />
<glyph unicode="&#xc4;" d="M111 0v983q0 268 139 397t403 129q272 0 407.5 -132t135.5 -394v-983h-451v563h-184v-563h-450zM160 1710q0 47 20.5 85t54 63.5t76.5 40t86 14.5t85 -14.5t76 -40t55.5 -63.5t21.5 -85t-21.5 -85t-55.5 -64.5t-76 -41t-85 -14.5t-86 14.5t-76.5 41t-54 64.5t-20.5 85z M561 911h184v43q0 23 -1 59t-8 68.5t-26.5 56t-56.5 23.5t-56 -23.5t-26.5 -56t-8.5 -68.5t-1 -59v-43zM698 1710q0 47 20.5 85t54.5 63.5t77 40t86 14.5t85 -14.5t75.5 -40t55.5 -63.5t22 -85t-22 -85t-55.5 -64.5t-75.5 -41t-85 -14.5t-86 14.5t-77 41t-54.5 64.5 t-20.5 85z" />
<glyph unicode="&#xc5;" d="M111 0v983q0 268 139 397t403 129q272 0 407.5 -132t135.5 -394v-983h-451v563h-184v-563h-450zM422 1761q0 47 18.5 89t50 73t73.5 49.5t89 18.5t89 -18.5t73 -49.5t49.5 -73t18.5 -89t-18.5 -89t-49.5 -73.5t-73 -50t-89 -18.5t-89 18.5t-73.5 50t-50 73.5t-18.5 89z M545 1761q0 -43 32.5 -75.5t75.5 -32.5t75 33.5t32 74.5t-33 74t-74 33t-74.5 -32t-33.5 -75zM561 911h184v43q0 23 -1 59t-8 68.5t-26.5 56t-56.5 23.5t-56 -23.5t-26.5 -56t-8.5 -68.5t-1 -59v-43z" />
<glyph unicode="&#xc6;" horiz-adv-x="1941" d="M111 0v983q0 268 139 397t403 129q219 0 348 -86v52h826v-375h-631v-189h561v-348h-561v-188h653v-375h-1104v563h-184v-563h-450zM561 911h184v43q0 23 -1 59t-8 68.5t-26.5 56t-56.5 23.5t-56 -23.5t-26.5 -56t-8.5 -68.5t-1 -59v-43z" />
<glyph unicode="&#xc7;" horiz-adv-x="1556" d="M76 737q0 168 51 310.5t146.5 245t233.5 159.5t310 57q285 0 460 -145t206 -434h-441q-14 96 -76.5 155.5t-160.5 59.5q-84 0 -137.5 -39t-85 -98.5t-44 -131t-12.5 -139.5t12.5 -139.5t44 -130.5t85 -98t137.5 -39q55 0 96 19.5t68.5 52t45 77.5t25.5 94h443h-2 q0 -129 -48.5 -236.5t-131 -186t-192.5 -126t-230 -57.5l-66 -102q20 10 46 12t48 2q39 0 76 -10t65.5 -29.5t46 -51.5t17.5 -75q0 -53 -25.5 -90t-64.5 -58.5t-86 -30.5t-92 -9q-82 0 -144.5 15.5t-138.5 41.5l43 94q43 -12 86 -26.5t90 -14.5q37 0 72 16.5t35 59.5 q0 35 -29 53.5t-59 18.5q-39 0 -80 -21l-53 50l94 155q-160 8 -286 69.5t-215 164t-136 240t-47 296.5z" />
<glyph unicode="&#xc8;" d="M111 0v1475h1081v-375h-631v-189h561v-348h-561v-188h653v-375h-1103zM301 1870h426l205 -305h-281z" />
<glyph unicode="&#xc9;" horiz-adv-x="1441" d="M111 0v1475h1081v-375h-631v-189h561v-348h-561v-188h653v-375h-1103zM387 1565l203 305h428l-352 -305h-279z" />
<glyph unicode="&#xca;" d="M111 0v1475h1081v-375h-631v-189h561v-348h-561v-188h653v-375h-1103zM244 1565l248 305h335l250 -305h-301l-117 155l-114 -155h-301z" />
<glyph unicode="&#xcb;" d="M111 0v1475h1081v-375h-631v-189h561v-348h-561v-188h653v-375h-1103zM141 1710q0 47 20.5 85t54.5 63.5t77 40t86 14.5t85 -14.5t75.5 -40t55 -63.5t21.5 -85t-21.5 -85t-55 -64.5t-75.5 -41t-85 -14.5t-86 14.5t-77 41t-54.5 64.5t-20.5 85zM680 1710q0 47 20.5 85 t54 63.5t76.5 40t87 14.5q43 0 84.5 -14.5t75.5 -40t55.5 -63.5t21.5 -85t-21.5 -85t-55.5 -64.5t-75.5 -41t-84.5 -14.5t-86.5 14.5t-77 41t-54 64.5t-20.5 85z" />
<glyph unicode="&#xcc;" horiz-adv-x="671" d="M4 1870h426l205 -305h-281zM111 0v1475h450v-1475h-450z" />
<glyph unicode="&#xcd;" horiz-adv-x="671" d="M49 1565l203 305h428l-352 -305h-279zM111 0v1475h450v-1475h-450z" />
<glyph unicode="&#xce;" horiz-adv-x="671" d="M-74 1565l248 305h336l250 -305h-301l-117 155l-115 -155h-301zM111 0v1475h450v-1475h-450z" />
<glyph unicode="&#xcf;" horiz-adv-x="671" d="M-156 1710q0 47 20.5 85t54.5 63.5t77 40t86 14.5t85 -14.5t75.5 -40t55 -63.5t21.5 -85t-21.5 -85t-55 -64.5t-75.5 -41t-85 -14.5t-86 14.5t-77 41t-54.5 64.5t-20.5 85zM111 0v1475h450v-1475h-450zM383 1710q0 47 20.5 85t54.5 63.5t77 40t86 14.5t85 -14.5t75.5 -40 t55 -63.5t21.5 -85t-21.5 -85t-55 -64.5t-75.5 -41t-85 -14.5t-86 14.5t-77 41t-54.5 64.5t-20.5 85z" />
<glyph unicode="&#xd0;" horiz-adv-x="1480" d="M2 635v250h109v590h634q168 0 292 -56.5t206 -155t122 -233.5t40 -291q0 -362 -192.5 -550.5t-555.5 -188.5h-546v635h-109zM561 375h72q86 0 147.5 28.5t100.5 78.5t56 117.5t17 145.5q0 166 -92 260.5t-262 94.5h-39v-215h223v-250h-223v-260z" />
<glyph unicode="&#xd1;" d="M111 0v983q0 268 139 397t403 129q272 0 407.5 -132t135.5 -394v-983h-451v954q0 23 -1 59t-8 68.5t-26.5 56t-56.5 23.5t-56 -23.5t-26.5 -56t-8.5 -68.5t-1 -59v-954h-450zM274 1565q0 45 10.5 96t37 94t71.5 71.5t111 28.5q47 0 94 -13t89 -28.5t76 -27.5t52 -12 q33 0 57.5 17t34.5 71h168q-2 -59 -18.5 -110.5t-46 -90.5t-72.5 -61.5t-100 -22.5q-47 0 -90 12.5t-82 25.5t-76 25.5t-70 12.5q-35 0 -56.5 -30t-27.5 -58h-162z" />
<glyph unicode="&#xd2;" horiz-adv-x="1634" d="M76 737q0 166 52 307.5t149.5 245t233.5 161.5t306 58q168 0 305.5 -58t234.5 -161.5t149.5 -245t52.5 -307.5t-52.5 -307t-149.5 -244.5t-234.5 -162t-305.5 -58.5q-170 0 -306 58.5t-233.5 162t-149.5 244.5t-52 307zM395 1870h426l205 -305h-281zM526 737 q0 -68 14.5 -140.5t48.5 -131.5t90 -97t138 -38t138.5 38t90 97t48 131.5t14.5 140.5t-14.5 140.5t-48 132t-90 97.5t-138.5 38t-138 -38t-90 -97.5t-48.5 -132t-14.5 -140.5z" />
<glyph unicode="&#xd3;" horiz-adv-x="1634" d="M76 737q0 166 52 307.5t149.5 245t233.5 161.5t306 58q168 0 305.5 -58t234.5 -161.5t149.5 -245t52.5 -307.5t-52.5 -307t-149.5 -244.5t-234.5 -162t-305.5 -58.5q-170 0 -306 58.5t-233.5 162t-149.5 244.5t-52 307zM522 1565l203 305h428l-352 -305h-279zM526 737 q0 -68 14.5 -140.5t48.5 -131.5t90 -97t138 -38t138.5 38t90 97t48 131.5t14.5 140.5t-14.5 140.5t-48 132t-90 97.5t-138.5 38t-138 -38t-90 -97.5t-48.5 -132t-14.5 -140.5z" />
<glyph unicode="&#xd4;" horiz-adv-x="1634" d="M76 737q0 166 52 307.5t149.5 245t233.5 161.5t306 58q168 0 305.5 -58t234.5 -161.5t149.5 -245t52.5 -307.5t-52.5 -307t-149.5 -244.5t-234.5 -162t-305.5 -58.5q-170 0 -306 58.5t-233.5 162t-149.5 244.5t-52 307zM399 1565l248 305h336l250 -305h-301l-117 155 l-115 -155h-301zM526 737q0 -68 14.5 -140.5t48.5 -131.5t90 -97t138 -38t138.5 38t90 97t48 131.5t14.5 140.5t-14.5 140.5t-48 132t-90 97.5t-138.5 38t-138 -38t-90 -97.5t-48.5 -132t-14.5 -140.5z" />
<glyph unicode="&#xd5;" horiz-adv-x="1634" d="M76 737q0 166 52 307.5t149.5 245t233.5 161.5t306 58q168 0 305.5 -58t234.5 -161.5t149.5 -245t52.5 -307.5t-52.5 -307t-149.5 -244.5t-234.5 -162t-305.5 -58.5q-170 0 -306 58.5t-233.5 162t-149.5 244.5t-52 307zM455 1565q0 45 10 96t36.5 94t71.5 71.5t111 28.5 q47 0 94 -13t89 -28.5t76 -27.5t52 -12q33 0 57.5 17t34.5 71h168q-2 -59 -18 -110.5t-46 -90.5t-73 -61.5t-100 -22.5q-47 0 -90 12.5t-82 25.5t-76 25.5t-70 12.5q-35 0 -56 -30t-28 -58h-161zM526 737q0 -68 14.5 -140.5t48.5 -131.5t90 -97t138 -38t138.5 38t90 97 t48 131.5t14.5 140.5t-14.5 140.5t-48 132t-90 97.5t-138.5 38t-138 -38t-90 -97.5t-48.5 -132t-14.5 -140.5z" />
<glyph unicode="&#xd6;" horiz-adv-x="1634" d="M76 737q0 166 52 307.5t149.5 245t233.5 161.5t306 58q168 0 305.5 -58t234.5 -161.5t149.5 -245t52.5 -307.5t-52.5 -307t-149.5 -244.5t-234.5 -162t-305.5 -58.5q-170 0 -306 58.5t-233.5 162t-149.5 244.5t-52 307zM297 1710q0 47 20.5 85t54.5 63.5t77 40t86 14.5 t85 -14.5t75.5 -40t55 -63.5t21.5 -85t-21.5 -85t-55 -64.5t-75.5 -41t-85 -14.5t-86 14.5t-77 41t-54.5 64.5t-20.5 85zM526 737q0 -68 14.5 -140.5t48.5 -131.5t90 -97t138 -38t138.5 38t90 97t48 131.5t14.5 140.5t-14.5 140.5t-48 132t-90 97.5t-138.5 38t-138 -38 t-90 -97.5t-48.5 -132t-14.5 -140.5zM836 1710q0 47 20.5 85t54 63.5t76.5 40t86 14.5t85 -14.5t76 -40t55.5 -63.5t21.5 -85t-21.5 -85t-55.5 -64.5t-76 -41t-85 -14.5t-86 14.5t-76.5 41t-54 64.5t-20.5 85z" />
<glyph unicode="&#xd7;" horiz-adv-x="1019" d="M0 449l289 288l-289 289l221 221l289 -289l289 291l221 -221l-289 -291l289 -288l-223 -222l-287 289l-289 -289z" />
<glyph unicode="&#xd8;" horiz-adv-x="1634" d="M76 731q0 168 53 308.5t150.5 241.5t234.5 158.5t303 57.5q141 0 261 -41t214 -119l172 189l95 -80l-179 -195q86 -98 132.5 -230t46.5 -290q0 -168 -53.5 -308t-151 -241.5t-234.5 -159t-303 -57.5q-139 0 -256 40t-209 112l-174 -193l-92 86l176 193q-90 102 -138 235 t-48 293zM526 731q0 -61 8.5 -111.5t22.5 -91.5l463 510q-47 53 -101.5 74t-101.5 21q-43 0 -94 -17.5t-94 -61.5t-73 -122t-30 -201zM623 416q45 -49 97 -67.5t97 -18.5q43 0 94.5 17.5t94.5 61.5t72.5 121.5t29.5 200.5q0 57 -7 103.5t-20 87.5z" />
<glyph unicode="&#xd9;" d="M111 492v983h450v-955q0 -23 1 -58.5t8.5 -68.5t26.5 -56.5t56 -23.5t56.5 23.5t26.5 56.5t8 69t1 58v955h451v-983q0 -268 -139 -397.5t-404 -129.5q-272 0 -407 132t-135 395zM317 1870h426l205 -305h-280z" />
<glyph unicode="&#xda;" d="M111 492v983h450v-955q0 -23 1 -58.5t8.5 -68.5t26.5 -56.5t56 -23.5t56.5 23.5t26.5 56.5t8 69t1 58v955h451v-983q0 -268 -139 -397.5t-404 -129.5q-272 0 -407 132t-135 395zM383 1565l203 305h428l-352 -305h-279z" />
<glyph unicode="&#xdb;" d="M111 492v983h450v-955q0 -23 1 -58.5t8.5 -68.5t26.5 -56.5t56 -23.5t56.5 23.5t26.5 56.5t8 69t1 58v955h451v-983q0 -268 -139 -397.5t-404 -129.5q-272 0 -407 132t-135 395zM229 1565l248 305h336l250 -305h-301l-117 155l-115 -155h-301z" />
<glyph unicode="&#xdc;" d="M111 492v983h450v-955q0 -23 1 -58.5t8.5 -68.5t26.5 -56.5t56 -23.5t56.5 23.5t26.5 56.5t8 69t1 58v955h451v-983q0 -268 -139 -397.5t-404 -129.5q-272 0 -407 132t-135 395zM137 1710q0 47 20.5 85t54.5 63.5t77 40t86 14.5t85 -14.5t75.5 -40t55 -63.5t21.5 -85 t-21.5 -85t-55 -64.5t-75.5 -41t-85 -14.5t-86 14.5t-77 41t-54.5 64.5t-20.5 85zM676 1710q0 47 20.5 85t54 63.5t76.5 40t86 14.5t85 -14.5t76 -40t55.5 -63.5t21.5 -85t-21.5 -85t-55.5 -64.5t-76 -41t-85 -14.5t-86 14.5t-76.5 41t-54 64.5t-20.5 85z" />
<glyph unicode="&#xdd;" d="M111 1090v385h450v-357q0 -25 1 -59.5t8.5 -67.5t26.5 -56.5t56 -23.5t56.5 23.5t26.5 56.5t8 68t1 59v357h451v-385q0 -205 -81 -328t-236 -170v-592h-451v592q-317 96 -317 498zM350 1565l203 305h428l-352 -305h-279z" />
<glyph unicode="&#xde;" horiz-adv-x="1314" d="M111 0v1475h450v-172h141q150 0 252.5 -49.5t166 -123t91 -161.5t27.5 -166q0 -133 -42 -230.5t-119 -162t-182 -96t-230 -31.5h-105v-283h-450zM561 631h12q43 0 86 3t77 18.5t55.5 47t21.5 86.5q0 49 -17.5 78t-47 43.5t-68.5 17.5t-80 3h-39v-297z" />
<glyph unicode="&#xdf;" horiz-adv-x="1335" d="M111 0v961q0 127 36.5 228t105.5 173t169 109.5t229 37.5q92 0 185.5 -22.5t169 -70.5t124 -122.5t48.5 -181.5q0 -106 -43 -176t-129 -123q63 -8 110 -45t79 -89t48.5 -113.5t16.5 -116.5q0 -102 -35 -187.5t-98.5 -146t-149.5 -94t-186 -33.5q-49 0 -97.5 3t-95.5 11 v311q39 -12 84 -12q80 0 126 55.5t46 130.5q0 57 -18.5 95.5t-49 61t-71.5 31.5t-88 9h-29v225h20q37 0 70 5.5t57.5 20.5t40 42t15.5 72q0 68 -37 102.5t-102 34.5q-43 0 -71 -15.5t-45.5 -41t-23.5 -59.5t-6 -71v-999h-405z" />
<glyph unicode="&#xe0;" horiz-adv-x="1472" d="M76 530q0 125 45 228.5t123 177.5t182 114t225 40q172 0 305 -68v41h406v-1063h-406v47q-129 -74 -305 -74q-121 0 -225 40t-182 113t-123 175t-45 229zM309 1470h426l205 -305h-281zM481 530q0 -131 57.5 -196.5t194.5 -65.5q33 0 72 10.5t72.5 30t56 48t22.5 67.5v235 q0 33 -24.5 58.5t-60 43t-73.5 26t-65 8.5q-139 0 -195.5 -66.5t-56.5 -198.5z" />
<glyph unicode="&#xe1;" horiz-adv-x="1472" d="M76 530q0 125 45 228.5t123 177.5t182 114t225 40q172 0 305 -68v41h406v-1063h-406v47q-129 -74 -305 -74q-121 0 -225 40t-182 113t-123 175t-45 229zM416 1165l202 305h429l-353 -305h-278zM481 530q0 -131 57.5 -196.5t194.5 -65.5q33 0 72 10.5t72.5 30t56 48 t22.5 67.5v235q0 33 -24.5 58.5t-60 43t-73.5 26t-65 8.5q-139 0 -195.5 -66.5t-56.5 -198.5z" />
<glyph unicode="&#xe2;" horiz-adv-x="1472" d="M76 530q0 125 45 228.5t123 177.5t182 114t225 40q172 0 305 -68v41h406v-1063h-406v47q-129 -74 -305 -74q-121 0 -225 40t-182 113t-123 175t-45 229zM252 1165l248 305h336l249 -305h-301l-116 156l-115 -156h-301zM481 530q0 -131 57.5 -196.5t194.5 -65.5 q33 0 72 10.5t72.5 30t56 48t22.5 67.5v235q0 33 -24.5 58.5t-60 43t-73.5 26t-65 8.5q-139 0 -195.5 -66.5t-56.5 -198.5z" />
<glyph unicode="&#xe3;" horiz-adv-x="1472" d="M76 530q0 125 45 228.5t123 177.5t182 114t225 40q172 0 305 -68v41h406v-1063h-406v47q-129 -74 -305 -74q-121 0 -225 40t-182 113t-123 175t-45 229zM348 1165q0 45 10.5 96.5t37 94.5t71.5 71.5t111 28.5q47 0 94 -13t89 -28.5t75.5 -28t52.5 -12.5q33 0 57.5 17.5 t34.5 70.5h168q-2 -59 -18.5 -110.5t-46 -90t-72.5 -61t-101 -22.5q-47 0 -90 12t-82 25.5t-75.5 25.5t-69.5 12q-35 0 -56.5 -29.5t-27.5 -58.5h-162zM481 530q0 -131 57.5 -196.5t194.5 -65.5q33 0 72 10.5t72.5 30t56 48t22.5 67.5v235q0 33 -24.5 58.5t-60 43t-73.5 26 t-65 8.5q-139 0 -195.5 -66.5t-56.5 -198.5z" />
<glyph unicode="&#xe4;" horiz-adv-x="1472" d="M76 530q0 125 45 228.5t123 177.5t182 114t225 40q172 0 305 -68v41h406v-1063h-406v47q-129 -74 -305 -74q-121 0 -225 40t-182 113t-123 175t-45 229zM231 1311q0 47 20.5 85t54.5 63.5t77 39.5t86 14t85 -14t76 -39.5t55.5 -63.5t21.5 -85t-21.5 -85t-55.5 -64.5 t-76 -41t-85 -14.5t-86 14.5t-77 41t-54.5 64.5t-20.5 85zM481 530q0 -131 57.5 -196.5t194.5 -65.5q33 0 72 10.5t72.5 30t56 48t22.5 67.5v235q0 33 -24.5 58.5t-60 43t-73.5 26t-65 8.5q-139 0 -195.5 -66.5t-56.5 -198.5zM770 1311q0 47 20.5 85t54.5 63.5t77 39.5 t86 14t85 -14t75.5 -39.5t55 -63.5t21.5 -85t-21.5 -85t-55 -64.5t-75.5 -41t-85 -14.5t-86 14.5t-77 41t-54.5 64.5t-20.5 85z" />
<glyph unicode="&#xe5;" horiz-adv-x="1472" d="M76 530q0 125 45 228.5t123 177.5t182 114t225 40q172 0 305 -68v41h406v-1063h-406v47q-129 -74 -305 -74q-121 0 -225 40t-182 113t-123 175t-45 229zM420 1362q0 47 18.5 89t50 72.5t73.5 49t89 18.5t89 -18.5t73 -49t49.5 -72.5t18.5 -89t-18.5 -89t-49.5 -74 t-73 -50.5t-89 -18.5t-89 18.5t-73.5 50.5t-50 74t-18.5 89zM481 530q0 -131 57.5 -196.5t194.5 -65.5q33 0 72 10.5t72.5 30t56 48t22.5 67.5v235q0 33 -24.5 58.5t-60 43t-73.5 26t-65 8.5q-139 0 -195.5 -66.5t-56.5 -198.5zM543 1362q0 -43 32.5 -76t75.5 -33t75 34 t32 75t-33 73.5t-74 32.5t-74.5 -31.5t-33.5 -74.5z" />
<glyph unicode="&#xe6;" horiz-adv-x="2154" d="M76 530q0 125 45 228.5t123 177.5t182 114t225 40q172 0 305 -68v41h304v-35q119 61 272 62q102 0 197.5 -26t170 -78t121.5 -134t58 -193l-705 -256q14 -57 51 -96t115 -39q66 0 107 47t45 109h387q-14 -109 -61.5 -193t-120 -141t-166 -87t-199.5 -30q-150 0 -272 60 v-33h-304v47q-129 -74 -305 -74q-121 0 -225 40t-182 113t-123 175t-45 229zM481 530q0 -131 57.5 -196.5t194.5 -65.5q33 0 72 10.5t72.5 30t56 48t22.5 67.5v235q0 33 -24.5 58.5t-60 43t-73.5 26t-65 8.5q-139 0 -195.5 -66.5t-56.5 -198.5zM1368 633l295 106 q-41 55 -123 56q-82 0 -121 -44t-49 -106z" />
<glyph unicode="&#xe7;" horiz-adv-x="1273" d="M76 530q0 123 44 226.5t121.5 177.5t182 115t227.5 41q102 0 197.5 -26t170.5 -78t122 -134t57 -193h-385q-6 66 -48 101t-106 35q-59 0 -94 -23.5t-53 -61.5t-24.5 -85t-6.5 -95q0 -47 6.5 -94t24.5 -84t53 -60.5t94 -23.5q66 0 107 47t45 109h387q-14 -102 -56 -181 t-105.5 -136.5t-146.5 -90t-177 -41.5l-72 -110q20 10 46 12t48 2q39 0 76 -10t65.5 -29.5t46 -51.5t17.5 -75q0 -53 -25.5 -90t-64.5 -58.5t-86 -30.5t-92 -9q-82 0 -144.5 15.5t-138.5 41.5l43 94q43 -12 86 -26.5t90 -14.5q37 0 72 16.5t35 59.5q0 35 -29 53.5t-59 18.5 q-39 0 -80 -21l-53 50l100 163q-111 8 -206 53.5t-164.5 117t-108.5 170t-39 214.5z" />
<glyph unicode="&#xe8;" horiz-adv-x="1159" d="M76 530q0 123 44 226.5t121.5 177.5t182 115t227.5 41q102 0 197.5 -26t170.5 -78t122 -134t57 -193l-704 -256q14 -57 51 -96t114 -39q66 0 107 47t45 109h387q-14 -109 -61 -193t-120 -141t-166 -87t-200 -30q-123 0 -227.5 41t-182 115t-121.5 176.5t-44 224.5z M287 1470h426l205 -305h-281zM487 633l295 106q-41 55 -123 56q-82 0 -119.5 -44t-50.5 -106q0 -8 -2 -12z" />
<glyph unicode="&#xe9;" horiz-adv-x="1159" d="M76 530q0 123 44 226.5t121.5 177.5t182 115t227.5 41q102 0 197.5 -26t170.5 -78t122 -134t57 -193l-704 -256q14 -57 51 -96t114 -39q66 0 107 47t45 109h387q-14 -109 -61 -193t-120 -141t-166 -87t-200 -30q-123 0 -227.5 41t-182 115t-121.5 176.5t-44 224.5z M332 1165l203 305h428l-353 -305h-278zM487 633l295 106q-41 55 -123 56q-82 0 -119.5 -44t-50.5 -106q0 -8 -2 -12z" />
<glyph unicode="&#xea;" horiz-adv-x="1159" d="M76 530q0 123 44 226.5t121.5 177.5t182 115t227.5 41q102 0 197.5 -26t170.5 -78t122 -134t57 -193l-704 -256q14 -57 51 -96t114 -39q66 0 107 47t45 109h387q-14 -109 -61 -193t-120 -141t-166 -87t-200 -30q-123 0 -227.5 41t-182 115t-121.5 176.5t-44 224.5z M229 1165l248 305h336l250 -305h-301l-117 156l-115 -156h-301zM487 633l295 106q-41 55 -123 56q-82 0 -119.5 -44t-50.5 -106q0 -8 -2 -12z" />
<glyph unicode="&#xeb;" horiz-adv-x="1159" d="M76 530q0 123 44 226.5t121.5 177.5t182 115t227.5 41q102 0 197.5 -26t170.5 -78t122 -134t57 -193l-704 -256q14 -57 51 -96t114 -39q66 0 107 47t45 109h387q-14 -109 -61 -193t-120 -141t-166 -87t-200 -30q-123 0 -227.5 41t-182 115t-121.5 176.5t-44 224.5z M147 1311q0 47 20.5 85t54.5 63.5t77 39.5t86 14t85 -14t76 -39.5t55.5 -63.5t21.5 -85t-21.5 -85t-55.5 -64.5t-76 -41t-85 -14.5t-86 14.5t-77 41t-54.5 64.5t-20.5 85zM487 633l295 106q-41 55 -123 56q-82 0 -119.5 -44t-50.5 -106q0 -8 -2 -12zM686 1311q0 47 20.5 85 t54.5 63.5t77 39.5t86 14t85 -14t75.5 -39.5t55 -63.5t21.5 -85t-21.5 -85t-55 -64.5t-75.5 -41t-85 -14.5t-86 14.5t-77 41t-54.5 64.5t-20.5 85z" />
<glyph unicode="&#xec;" horiz-adv-x="626" d="M-14 1470h426l204 -305h-280zM111 0v1063h405v-1063h-405z" />
<glyph unicode="&#xed;" horiz-adv-x="626" d="M10 1165l203 305h428l-352 -305h-279zM111 0v1063h405v-1063h-405z" />
<glyph unicode="&#xee;" horiz-adv-x="626" d="M-92 1165l248 305h336l249 -305h-301l-116 156l-115 -156h-301zM111 0v1063h405v-1063h-405z" />
<glyph unicode="&#xef;" horiz-adv-x="626" d="M-174 1311q0 47 20.5 85t54 63.5t76.5 39.5t86 14t85 -14t76 -39.5t55.5 -63.5t21.5 -85t-21.5 -85t-55.5 -64.5t-76 -41t-85 -14.5t-86 14.5t-76.5 41t-54 64.5t-20.5 85zM111 0v1063h405v-1063h-405zM365 1311q0 47 20.5 85t54 63.5t76.5 39.5t86 14t85 -14t76 -39.5 t55.5 -63.5t21.5 -85t-21.5 -85t-55.5 -64.5t-76 -41t-85 -14.5t-86 14.5t-76.5 41t-54 64.5t-20.5 85z" />
<glyph unicode="&#xf0;" horiz-adv-x="1310" d="M76 508q0 113 35.5 206t102.5 159.5t159 103.5t205 37q47 0 97 -8.5t89 -26.5q-33 43 -73 80t-83 71l-125 -67l-147 160l86 49q-31 37 -64 59l291 168l90 -63l105 59l155 -158l-86 -47q141 -133 231.5 -307t90.5 -373q0 -141 -35 -257.5t-107.5 -200.5t-182 -131.5 t-257.5 -47.5q-129 0 -234.5 33t-182 99.5t-118.5 167t-42 235.5zM481 516q0 -43 7.5 -88t25.5 -80t52 -57.5t87 -22.5t87 21.5t54.5 57.5t27.5 80t7 89t-7 88t-27.5 76t-54 53.5t-87.5 20.5q-53 0 -87 -20.5t-52 -54.5t-25.5 -76t-7.5 -87z" />
<glyph unicode="&#xf1;" horiz-adv-x="1327" d="M111 0v1063h405v-115q72 82 150.5 112t185.5 30q164 0 264.5 -97.5t100.5 -263.5v-729h-406v557q0 37 -3 75t-15.5 67.5t-39 48t-75.5 18.5q-90 0 -126 -61.5t-36 -143.5v-561h-405zM262 1165q0 45 10.5 96.5t37 94.5t71.5 71.5t111 28.5q47 0 94 -13t89 -28.5t75.5 -28 t52.5 -12.5q33 0 57.5 17.5t34.5 70.5h168q-2 -59 -18.5 -110.5t-46 -90t-72.5 -61t-101 -22.5q-47 0 -90 12t-82 25.5t-75.5 25.5t-69.5 12q-35 0 -56.5 -29.5t-27.5 -58.5h-162z" />
<glyph unicode="&#xf2;" horiz-adv-x="1310" d="M76 532q0 111 34.5 211.5t105.5 177t180.5 123t258.5 46.5q150 0 259.5 -46.5t180 -123t105.5 -177t35 -211.5t-35 -212t-105.5 -177.5t-180 -123t-259.5 -46.5t-259 46.5t-180 123t-105.5 178t-34.5 211.5zM307 1470h426l205 -305h-281zM481 532q0 -43 5.5 -89t23.5 -85 t53 -64.5t92 -25.5t92 25.5t53.5 64.5t23.5 85t5 89t-5 89.5t-23.5 84t-53 63.5t-92.5 26q-57 0 -92 -26t-53 -63.5t-23.5 -84t-5.5 -89.5z" />
<glyph unicode="&#xf3;" horiz-adv-x="1310" d="M76 532q0 111 34.5 211.5t105.5 177t180.5 123t258.5 46.5q150 0 259.5 -46.5t180 -123t105.5 -177t35 -211.5t-35 -212t-105.5 -177.5t-180 -123t-259.5 -46.5t-259 46.5t-180 123t-105.5 178t-34.5 211.5zM373 1165l202 305h429l-353 -305h-278zM481 532q0 -43 5.5 -89 t23.5 -85t53 -64.5t92 -25.5t92 25.5t53.5 64.5t23.5 85t5 89t-5 89.5t-23.5 84t-53 63.5t-92.5 26q-57 0 -92 -26t-53 -63.5t-23.5 -84t-5.5 -89.5z" />
<glyph unicode="&#xf4;" horiz-adv-x="1310" d="M76 532q0 111 34.5 211.5t105.5 177t180.5 123t258.5 46.5q150 0 259.5 -46.5t180 -123t105.5 -177t35 -211.5t-35 -212t-105.5 -177.5t-180 -123t-259.5 -46.5t-259 46.5t-180 123t-105.5 178t-34.5 211.5zM229 1165l248 305h336l250 -305h-301l-117 156l-115 -156h-301 zM481 532q0 -43 5.5 -89t23.5 -85t53 -64.5t92 -25.5t92 25.5t53.5 64.5t23.5 85t5 89t-5 89.5t-23.5 84t-53 63.5t-92.5 26q-57 0 -92 -26t-53 -63.5t-23.5 -84t-5.5 -89.5z" />
<glyph unicode="&#xf5;" horiz-adv-x="1310" d="M76 532q0 111 34.5 211.5t105.5 177t180.5 123t258.5 46.5q150 0 259.5 -46.5t180 -123t105.5 -177t35 -211.5t-35 -212t-105.5 -177.5t-180 -123t-259.5 -46.5t-259 46.5t-180 123t-105.5 178t-34.5 211.5zM244 1165q0 45 10 96.5t36.5 94.5t72 71.5t110.5 28.5 q47 0 94 -13t89 -28.5t76 -28t52 -12.5q33 0 57.5 17.5t35.5 70.5h167q-2 -59 -18 -110.5t-46 -90t-73 -61t-100 -22.5q-47 0 -90 12t-82 25.5t-76 25.5t-70 12q-35 0 -56 -29.5t-27 -58.5h-162zM481 532q0 -43 5.5 -89t23.5 -85t53 -64.5t92 -25.5t92 25.5t53.5 64.5 t23.5 85t5 89t-5 89.5t-23.5 84t-53 63.5t-92.5 26q-57 0 -92 -26t-53 -63.5t-23.5 -84t-5.5 -89.5z" />
<glyph unicode="&#xf6;" horiz-adv-x="1310" d="M76 532q0 111 34.5 211.5t105.5 177t180.5 123t258.5 46.5q150 0 259.5 -46.5t180 -123t105.5 -177t35 -211.5t-35 -212t-105.5 -177.5t-180 -123t-259.5 -46.5t-259 46.5t-180 123t-105.5 178t-34.5 211.5zM147 1311q0 47 20.5 85t54.5 63.5t77 39.5t86 14t85 -14 t76 -39.5t55.5 -63.5t21.5 -85t-21.5 -85t-55.5 -64.5t-76 -41t-85 -14.5t-86 14.5t-77 41t-54.5 64.5t-20.5 85zM481 532q0 -43 5.5 -89t23.5 -85t53 -64.5t92 -25.5t92 25.5t53.5 64.5t23.5 85t5 89t-5 89.5t-23.5 84t-53 63.5t-92.5 26q-57 0 -92 -26t-53 -63.5 t-23.5 -84t-5.5 -89.5zM686 1311q0 47 20.5 85t54.5 63.5t77 39.5t86 14t85 -14t75.5 -39.5t55 -63.5t21.5 -85t-21.5 -85t-55 -64.5t-75.5 -41t-85 -14.5t-86 14.5t-77 41t-54.5 64.5t-20.5 85z" />
<glyph unicode="&#xf7;" horiz-adv-x="1218" d="M92 580v315h1034v-315h-1034zM403 313q0 43 16.5 81t44.5 66.5t65.5 45t80.5 16.5t81 -16.5t65.5 -44t44 -66.5t16.5 -82v2q0 -43 -16.5 -80.5t-44 -67.5t-65.5 -46.5t-81 -16.5t-80.5 16.5t-65.5 45.5t-44.5 66.5t-16.5 80.5zM403 1159q0 43 16.5 81t44.5 67.5t65.5 46 t80.5 16.5t81 -16.5t65.5 -45t44 -66.5t16.5 -81t-16.5 -81t-44 -66.5t-65.5 -45t-81 -16.5t-80.5 16.5t-65.5 44t-44.5 65.5t-16.5 81z" />
<glyph unicode="&#xf8;" horiz-adv-x="1310" d="M76 532q0 111 34.5 211.5t105.5 177t180.5 123t258.5 46.5q106 0 192.5 -24t153.5 -67l103 119l72 -63l-99 -115q80 -78 119 -183.5t39 -224.5q0 -111 -35 -212t-105.5 -177.5t-180 -123t-259.5 -46.5q-104 0 -189 22.5t-151 63.5l-112 -131l-74 68l109 125 q-84 78 -123 185.5t-39 225.5zM481 532q0 -29 2 -59.5t11 -58.5l282 327q-18 25 -48 39.5t-73 14.5q-57 0 -92 -26t-53 -63.5t-23.5 -84t-5.5 -89.5zM539 317q39 -49 116 -49q57 0 92 25.5t53.5 64.5t23.5 85t5 89q0 27 -2 54.5t-8 56.5z" />
<glyph unicode="&#xf9;" horiz-adv-x="1327" d="M111 334v729h405v-557q0 -37 3 -75t15.5 -67.5t39 -48t75.5 -18.5q90 0 126 61.5t36 143.5v561h406v-1063h-406v115q-72 -82 -150.5 -112t-185.5 -30q-164 0 -264 97.5t-100 263.5zM305 1470h426l205 -305h-281z" />
<glyph unicode="&#xfa;" horiz-adv-x="1327" d="M111 334v729h405v-557q0 -37 3 -75t15.5 -67.5t39 -48t75.5 -18.5q90 0 126 61.5t36 143.5v561h406v-1063h-406v115q-72 -82 -150.5 -112t-185.5 -30q-164 0 -264 97.5t-100 263.5zM371 1165l202 305h428l-352 -305h-278z" />
<glyph unicode="&#xfb;" horiz-adv-x="1327" d="M111 334v729h405v-557q0 -37 3 -75t15.5 -67.5t39 -48t75.5 -18.5q90 0 126 61.5t36 143.5v561h406v-1063h-406v115q-72 -82 -150.5 -112t-185.5 -30q-164 0 -264 97.5t-100 263.5zM240 1165l247 305h336l250 -305h-301l-117 156l-114 -156h-301z" />
<glyph unicode="&#xfc;" horiz-adv-x="1327" d="M111 334v729h405v-557q0 -37 3 -75t15.5 -67.5t39 -48t75.5 -18.5q90 0 126 61.5t36 143.5v561h406v-1063h-406v115q-72 -82 -150.5 -112t-185.5 -30q-164 0 -264 97.5t-100 263.5zM168 1311q0 47 20.5 85t54 63.5t76.5 39.5t87 14q43 0 84.5 -14t75.5 -39.5t55.5 -63.5 t21.5 -85t-21.5 -85t-55.5 -64.5t-75.5 -41t-84.5 -14.5t-86.5 14.5t-77 41t-54 64.5t-20.5 85zM707 1311q0 47 20.5 85t54 63.5t76.5 39.5t86 14t85 -14t76 -39.5t55.5 -63.5t21.5 -85t-21.5 -85t-55.5 -64.5t-76 -41t-85 -14.5t-86 14.5t-76.5 41t-54 64.5t-20.5 85z" />
<glyph unicode="&#xfd;" horiz-adv-x="1327" d="M109 -102h401q8 -18 22.5 -39t34 -38.5t41 -27.5t43.5 -10q49 0 80 25.5t49.5 63.5t24.5 80t6 75v88q-72 -82 -150.5 -112t-185.5 -30q-164 0 -264 97.5t-100 263.5v729h405v-557q0 -37 3 -75t15.5 -67.5t39 -48t75.5 -18.5q90 0 126 61.5t36 143.5v561h406v-1012 q0 -53 -6.5 -111.5t-27 -114.5t-57 -107.5t-98 -90.5t-151 -61.5t-213.5 -22.5q-94 0 -187.5 15.5t-170.5 54.5t-130 107.5t-67 177.5zM379 1165l203 305h428l-353 -305h-278z" />
<glyph unicode="&#xfe;" horiz-adv-x="1472" d="M111 -422v1897h405v-453q131 68 305 68q119 0 224.5 -40t183.5 -114t123 -177.5t45 -228.5q0 -127 -45 -229t-123 -175t-183.5 -113t-224.5 -40q-176 0 -305 74v-469h-405zM516 424q0 -39 22.5 -67.5t56.5 -48t73 -30t71 -10.5q137 0 194.5 65.5t57.5 196.5t-56 198 t-196 67q-27 0 -64.5 -8.5t-73.5 -26t-60.5 -43t-24.5 -58.5v-235z" />
<glyph unicode="&#xff;" horiz-adv-x="1327" d="M109 -102h401q8 -18 22.5 -39t34 -38.5t41 -27.5t43.5 -10q49 0 80 25.5t49.5 63.5t24.5 80t6 75v88q-72 -82 -150.5 -112t-185.5 -30q-164 0 -264 97.5t-100 263.5v729h405v-557q0 -37 3 -75t15.5 -67.5t39 -48t75.5 -18.5q90 0 126 61.5t36 143.5v561h406v-1012 q0 -53 -6.5 -111.5t-27 -114.5t-57 -107.5t-98 -90.5t-151 -61.5t-213.5 -22.5q-94 0 -187.5 15.5t-170.5 54.5t-130 107.5t-67 177.5zM162 1311q0 47 20.5 85t54 63.5t76.5 39.5t86 14t85 -14t76 -39.5t55.5 -63.5t21.5 -85t-21.5 -85t-55.5 -64.5t-76 -41t-85 -14.5 t-86 14.5t-76.5 41t-54 64.5t-20.5 85zM700 1311q0 47 20.5 85t54.5 63.5t77 39.5t86 14t85 -14t76 -39.5t55.5 -63.5t21.5 -85t-21.5 -85t-55.5 -64.5t-76 -41t-85 -14.5t-86 14.5t-77 41t-54.5 64.5t-20.5 85z" />
<glyph unicode="&#x152;" horiz-adv-x="2236" d="M76 737q0 168 51 310.5t146.5 245t233.5 159.5t310 57q164 0 285 -45v11h1042v-375h-633v-189h564v-348h-564v-188h656v-375h-1063v23q-137 -57 -287 -58q-172 0 -309 57.5t-233.5 161t-147.5 244.5t-51 309zM526 737q0 -68 12.5 -139.5t44 -130.5t85 -98t137.5 -39 q55 0 96 19.5t68.5 52t45 77.5t25.5 94l2 357q-14 96 -76.5 155.5t-160.5 59.5q-84 0 -137.5 -39t-85 -98.5t-44 -131t-12.5 -139.5z" />
<glyph unicode="&#x153;" horiz-adv-x="2027" d="M76 532q0 111 34.5 211.5t105.5 177t180.5 123t258.5 46.5q123 0 219.5 -32t165.5 -85q74 55 167 86t198 31q102 0 197.5 -26t170 -78t122 -134t57.5 -193l-705 -256q14 -57 51 -96t115 -39q66 0 107 47t45 109h387q-14 -109 -61.5 -193t-120 -141t-166 -87t-199.5 -30 t-199.5 31t-167.5 86q-70 -53 -165 -85t-218 -32q-150 0 -259 46.5t-180 123t-105.5 178t-34.5 211.5zM481 532q0 -43 5.5 -89t23.5 -85t53 -64.5t92 -25.5t92 25.5t53.5 64.5t23.5 85t5 89t-5 89.5t-23.5 84t-53 63.5t-92.5 26q-57 0 -92 -26t-53 -63.5t-23.5 -84 t-5.5 -89.5zM1241 633l295 106q-41 55 -123 56q-82 0 -121 -44t-49 -106z" />
<glyph unicode="&#x178;" d="M111 1090v385h450v-357q0 -25 1 -59.5t8.5 -67.5t26.5 -56.5t56 -23.5t56.5 23.5t26.5 56.5t8 68t1 59v357h451v-385q0 -205 -81 -328t-236 -170v-592h-451v592q-317 96 -317 498zM145 1710q0 47 20.5 85t54.5 63.5t77 40t86 14.5t85 -14.5t76 -40t55.5 -63.5t21.5 -85 t-21.5 -85t-55.5 -64.5t-76 -41t-85 -14.5t-86 14.5t-77 41t-54.5 64.5t-20.5 85zM684 1710q0 47 20.5 85t54.5 63.5t77 40t86 14.5t85 -14.5t75.5 -40t55 -63.5t21.5 -85t-21.5 -85t-55 -64.5t-75.5 -41t-85 -14.5t-86 14.5t-77 41t-54.5 64.5t-20.5 85z" />
<glyph unicode="&#x2c6;" horiz-adv-x="0" d="M238 1165l247 305h336l252 -305h-301l-117 156l-114 -156h-303z" />
<glyph unicode="&#x2dc;" horiz-adv-x="0" d="M256 1165q0 45 10 96.5t37 94.5t72 71.5t110 28.5q47 0 94.5 -13t88.5 -28.5t74.5 -28t54.5 -12.5q33 0 57.5 17.5t34.5 70.5h168q-2 -59 -18.5 -110.5t-46 -90t-72.5 -61t-101 -22.5q-47 0 -90 12t-83 25.5t-75.5 25.5t-68.5 12q-35 0 -56.5 -29.5t-27.5 -58.5h-162z " />
<glyph unicode="&#x2000;" horiz-adv-x="995" />
<glyph unicode="&#x2001;" horiz-adv-x="1991" />
<glyph unicode="&#x2002;" horiz-adv-x="995" />
<glyph unicode="&#x2003;" horiz-adv-x="1991" />
<glyph unicode="&#x2004;" horiz-adv-x="663" />
<glyph unicode="&#x2005;" horiz-adv-x="497" />
<glyph unicode="&#x2006;" horiz-adv-x="331" />
<glyph unicode="&#x2007;" horiz-adv-x="331" />
<glyph unicode="&#x2008;" horiz-adv-x="248" />
<glyph unicode="&#x2009;" horiz-adv-x="398" />
<glyph unicode="&#x200a;" horiz-adv-x="110" />
<glyph unicode="&#x2010;" horiz-adv-x="825" d="M92 379v336h641v-336h-641z" />
<glyph unicode="&#x2011;" horiz-adv-x="825" d="M92 379v336h641v-336h-641z" />
<glyph unicode="&#x2012;" horiz-adv-x="825" d="M92 379v336h641v-336h-641z" />
<glyph unicode="&#x2013;" horiz-adv-x="1208" d="M92 385v324h1024v-324h-1024z" />
<glyph unicode="&#x2014;" horiz-adv-x="2232" d="M92 385v324h2048v-324h-2048z" />
<glyph unicode="&#x2018;" horiz-adv-x="659" d="M0 1341l272 158l387 -672l-270 -157z" />
<glyph unicode="&#x2019;" horiz-adv-x="659" d="M0 827l387 672l272 -156l-387 -673z" />
<glyph unicode="&#x201a;" horiz-adv-x="659" d="M0 -256l387 672l272 -158l-387 -672z" />
<glyph unicode="&#x201c;" horiz-adv-x="1132" d="M0 1341l272 158l387 -672l-270 -157zM473 1341l272 158l388 -672l-271 -157z" />
<glyph unicode="&#x201d;" horiz-adv-x="1132" d="M0 827l387 672l272 -156l-387 -673zM473 827l389 672l271 -156l-388 -673z" />
<glyph unicode="&#x201e;" horiz-adv-x="1136" d="M0 -256l387 672l272 -158l-387 -672zM477 -256l389 672l271 -158l-387 -672z" />
<glyph unicode="&#x2022;" horiz-adv-x="882" d="M76 737q0 76 28.5 142.5t77.5 115.5t116 78t142 29q76 0 142.5 -29t117 -78t79 -115.5t28.5 -142.5t-28.5 -142.5t-79 -116.5t-117 -78.5t-142.5 -28.5t-142.5 28.5t-115.5 78.5t-77.5 117t-28.5 142z" />
<glyph unicode="&#x2026;" horiz-adv-x="2048" d="M104 178q0 47 20.5 85t54.5 63.5t77 40t86 14.5t85 -14.5t76 -40t55.5 -63.5t21.5 -85t-21.5 -85t-55.5 -63.5t-76 -40t-85 -14.5t-86 14.5t-77 40t-54.5 63.5t-20.5 85zM786 178q0 47 20.5 85t54.5 63.5t77 40t86 14.5t85 -14.5t76 -40t55.5 -63.5t21.5 -85t-21.5 -85 t-55.5 -63.5t-76 -40t-85 -14.5t-86 14.5t-77 40t-54.5 63.5t-20.5 85zM1468 178q0 47 20.5 85t54.5 63.5t77 40t86 14.5t85 -14.5t76 -40t55.5 -63.5t21.5 -85t-21.5 -85t-55.5 -63.5t-76 -40t-85 -14.5t-86 14.5t-77 40t-54.5 63.5t-20.5 85z" />
<glyph unicode="&#x202f;" horiz-adv-x="398" />
<glyph unicode="&#x2039;" horiz-adv-x="518" d="M92 555v363l334 266v-316l-160 -131l160 -123v-321z" />
<glyph unicode="&#x203a;" horiz-adv-x="518" d="M92 291v315l160 131l-160 123v324l334 -264v-363z" />
<glyph unicode="&#x205f;" horiz-adv-x="497" />
<glyph unicode="&#x2122;" horiz-adv-x="1894" d="M76 1290q0 33 4 66t21.5 59.5t49 43t87.5 16.5h557v-207h-236v-604h-248v604h-4q-39 0 -55 -11.5t-16 -52.5zM838 664v540q0 147 75.5 218t221.5 71q47 0 91 -7t85 -30q41 23 85 30t89 7q145 0 222 -70.5t77 -218.5v-540h-248v524q0 14 -1 33.5t-5 38t-14.5 31 t-30.5 12.5t-30.5 -12.5t-15.5 -31t-5 -38v-33.5v-524h-248v524v33.5t-5 38t-15.5 31t-30.5 12.5t-30.5 -12.5t-15 -31t-4.5 -38v-33.5v-524h-247z" />
<glyph unicode="&#x25fc;" horiz-adv-x="1064" d="M0 0v1065h1065v-1065h-1065z" />
<glyph unicode="&#xfb01;" horiz-adv-x="1253" d="M0 784v250h111v158q0 109 32.5 172t84 95t116 41t129.5 9q66 0 132.5 -6t127.5 -6v-307q-47 6 -92 6q-78 0 -101.5 -22.5t-23.5 -96.5v-14h627v-1063h-406v784h-221v-784h-405v784h-111z" />
<glyph unicode="&#xfb02;" horiz-adv-x="1253" d="M0 784v250h111v158q0 109 32.5 172t84 95t116 41t129.5 9q66 0 134.5 -17t129.5 -17h406v-1475h-406v1190q-47 6 -96 6q-76 0 -100.5 -29.5t-24.5 -101.5v-2h111v-279h-111v-784h-405v784h-111z" />
</font>
</defs>
</svg>
